<?xml version="1.0" encoding="UTF-8"?>
<svg xmlns="http://www.w3.org/2000/svg" xmlns:xlink="http://www.w3.org/1999/xlink" width="64pt" height="68pt" viewBox="0 0 64 68" version="1.1">
<g id="surface1">
<path style=" stroke:#000000;stroke-width:3;stroke-opacity:0.5;fill-rule:nonzero;fill:rgb(100%,100%,100%);fill-opacity:1;" d="M 43.761719 64.027344 L 44.972656 62.652344 L 45.320312 62.140625 C 46.585938 59.964844 48.488281 58.878906 51.027344 58.878906 C 52.640625 58.878906 54.488281 59.964844 56.5625 62.140625 L 58.464844 64.027344 L 64 64.027344 L 64 67.972656 L 58.292969 67.972656 C 56.792969 67.972656 55.003906 66.886719 52.929688 64.710938 L 50.855469 62.996094 C 50.507812 62.996094 50.164062 63.226562 49.816406 63.683594 L 49.296875 64.371094 L 48.953125 64.710938 C 47.914062 66.886719 46.125 67.972656 43.589844 67.972656 C 42.089844 67.972656 40.359375 66.886719 38.398438 64.710938 L 36.324219 62.996094 C 35.976562 62.996094 35.574219 63.167969 35.113281 63.511719 L 34.59375 64.371094 L 34.421875 64.710938 C 33.039062 66.886719 31.25 67.972656 29.058594 67.972656 C 27.445312 67.972656 25.65625 66.886719 23.699219 64.710938 L 21.449219 62.996094 L 19.890625 64.371094 L 19.71875 64.710938 C 18.449219 66.886719 16.605469 67.972656 14.183594 67.972656 L 0 67.972656 L 0 64.027344 L 14.183594 64.027344 L 15.742188 62.652344 L 16.085938 62.140625 C 17.46875 59.964844 19.316406 58.878906 21.621094 58.878906 C 22.660156 58.878906 23.699219 59.222656 24.734375 59.910156 L 27.15625 62.140625 L 29.058594 64.027344 L 30.269531 62.652344 L 30.617188 62.140625 C 32 59.964844 33.902344 58.878906 36.324219 58.878906 C 37.363281 58.878906 38.398438 59.222656 39.4375 59.910156 L 41.6875 62.140625 L 43.761719 64.027344 M 51.199219 0.371094 L 50.335938 2.945312 L 48.777344 5.347656 L 48.953125 8.089844 C 48.835938 10.035156 48.027344 12.78125 46.53125 16.328125 L 42.03125 25.078125 L 39.785156 27.136719 L 38.398438 27.652344 L 30.789062 52.1875 C 32.632812 49.785156 34.480469 48.585938 36.324219 48.585938 C 38.054688 48.699219 39.839844 50.128906 41.6875 52.875 L 47.222656 38.289062 C 50.335938 30.398438 52.757812 25.765625 54.488281 24.390625 L 60.367188 24.90625 L 63.480469 41.207031 L 63.480469 41.550781 L 59.675781 36.402344 L 56.042969 31.082031 C 55.003906 33.484375 52.988281 39.71875 49.988281 49.785156 L 51.027344 49.613281 C 52.527344 49.613281 54.371094 50.699219 56.5625 52.875 L 58.464844 54.761719 L 64 54.761719 L 64 58.707031 L 58.292969 58.707031 C 56.90625 58.707031 55.121094 57.621094 52.929688 55.449219 L 50.855469 53.730469 C 50.507812 53.730469 50.164062 53.960938 49.816406 54.417969 L 49.296875 54.933594 L 48.953125 55.449219 C 47.796875 57.621094 46.011719 58.707031 43.589844 58.707031 C 42.207031 58.707031 40.476562 57.621094 38.398438 55.449219 L 36.324219 53.730469 C 35.632812 53.730469 35.054688 54.132812 34.59375 54.933594 L 34.421875 55.449219 C 32.921875 57.621094 31.136719 58.707031 29.058594 58.707031 C 27.675781 58.707031 25.886719 57.621094 23.699219 55.449219 L 21.449219 53.730469 C 20.988281 53.730469 20.46875 54.132812 19.890625 54.933594 L 19.71875 55.449219 C 18.335938 57.621094 16.488281 58.707031 14.183594 58.707031 L 13.664062 58.707031 L 13.664062 58.878906 L 0 58.878906 L 0 54.761719 L 5.363281 54.761719 L 4.671875 41.378906 C 4.441406 31.882812 5.363281 25.765625 7.4375 23.019531 C 6.976562 28.050781 7.265625 34.859375 8.300781 43.4375 L 10.03125 54.761719 L 12.453125 54.761719 L 13.144531 30.398438 L 16.257812 15.296875 L 17.644531 11.695312 L 16.777344 17.871094 C 15.972656 30.570312 16.375 41.550781 17.988281 50.816406 L 18.855469 50.300781 L 19.027344 48.242188 C 20.066406 42.292969 21.5625 36.632812 23.523438 31.253906 C 21.679688 28.851562 22.429688 24.90625 25.773438 19.414062 L 28.539062 15.640625 C 29.578125 14.613281 30.617188 14.097656 31.652344 14.097656 L 32.691406 11.695312 L 33.382812 10.492188 L 34.25 9.980469 L 34.59375 10.835938 L 33.902344 12.039062 L 32.519531 14.269531 C 33.210938 17.585938 32.460938 21.53125 30.269531 26.105469 L 28.195312 29.882812 C 27.273438 30.910156 26.0625 31.539062 24.5625 31.769531 L 22.488281 40.519531 L 20.757812 49.785156 L 21.621094 49.613281 C 22.660156 49.613281 23.699219 49.957031 24.734375 50.644531 L 27.15625 52.875 L 27.328125 53.21875 L 28.714844 53.730469 L 37.535156 26.621094 L 36.84375 25.59375 L 36.84375 23.019531 C 40.300781 11.582031 43.992188 5.574219 47.914062 5.003906 L 49.125 2.429688 L 50.507812 0.0273438 L 50.507812 0.199219 L 51.199219 0.371094 "/>
</g>
</svg>
