<?xml version="1.0" encoding="UTF-8"?>
<svg xmlns="http://www.w3.org/2000/svg" xmlns:xlink="http://www.w3.org/1999/xlink" width="63pt" height="60pt" viewBox="0 0 63 60" version="1.1">
<g id="surface1">
<path style=" stroke:#000000;stroke-width:3;stroke-opacity:0.5;fill-rule:nonzero;fill:rgb(100%,100%,100%);fill-opacity:1;" d="M 3.78125 44.808594 L 19.933594 44.808594 L 19.933594 11.066406 L 3.78125 44.808594 M 41.320312 56.449219 L 47.285156 50.261719 L 6.402344 50.261719 L 10.039062 56.449219 L 41.320312 56.449219 M 39.71875 44.808594 L 58.925781 44.808594 L 34.628906 19.316406 L 39.71875 44.808594 M 31.136719 19.90625 L 31.136719 19.023438 L 28.808594 6.351562 L 22.988281 3.402344 L 22.988281 44.808594 L 36.082031 44.808594 L 31.136719 19.90625 M 32.007812 5.761719 L 33.902344 15.929688 L 34.484375 15.78125 C 35.453125 15.78125 36.230469 16.125 36.8125 16.8125 L 61.546875 42.453125 C 62.515625 43.53125 62.710938 44.710938 62.128906 45.988281 C 61.546875 47.460938 60.476562 48.199219 58.925781 48.199219 L 49.761719 48.199219 L 50.34375 49.082031 C 50.921875 50.359375 50.730469 51.539062 49.761719 52.617188 L 43.648438 58.953125 C 43.066406 59.640625 42.289062 59.984375 41.320312 59.984375 L 10.039062 59.984375 C 8.777344 59.984375 7.808594 59.445312 7.128906 58.367188 L 3.636719 52.027344 C 2.863281 50.851562 2.863281 49.769531 3.636719 48.789062 L 4.074219 48.199219 L 3.78125 48.199219 C 2.617188 48.199219 1.648438 47.65625 0.871094 46.578125 C 0.289062 45.496094 0.242188 44.414062 0.726562 43.335938 L 17.023438 9.445312 C 17.507812 8.167969 18.429688 7.527344 19.789062 7.527344 L 19.789062 3.402344 C 19.789062 2.125 20.320312 1.144531 21.386719 0.457031 L 22.988281 0.015625 L 24.445312 0.308594 L 30.261719 3.253906 L 32.007812 5.761719 "/>
</g>
</svg>
