<?xml version="1.0" encoding="UTF-8"?>
<svg xmlns="http://www.w3.org/2000/svg" xmlns:xlink="http://www.w3.org/1999/xlink" width="64pt" height="64pt" viewBox="0 0 64 64" version="1.1">
<g id="surface1">
<path style=" stroke:#000000;stroke-width:3;stroke-opacity:0.5;fill-rule:nonzero;fill:rgb(100%,100%,100%);fill-opacity:1;" d="M 42.058594 27.320312 C 38.125 11.523438 35 3.621094 32.679688 3.621094 C 29.351562 3.621094 25.421875 13.484375 20.882812 33.207031 C 19.371094 30.1875 18.109375 28.679688 17.101562 28.679688 C 14.480469 28.679688 11.457031 33.960938 8.027344 44.527344 L 3.492188 60.378906 L 24.96875 60.378906 C 25.472656 56.351562 26.429688 53.082031 27.839844 50.566406 C 29.253906 47.949219 30.867188 46.640625 32.679688 46.640625 C 34.496094 46.640625 36.160156 47.949219 37.671875 50.566406 C 39.082031 53.082031 39.992188 56.351562 40.394531 60.378906 L 60.355469 60.378906 L 55.667969 40 C 52.140625 26.316406 49.417969 19.472656 47.503906 19.472656 C 45.789062 19.472656 43.972656 22.089844 42.058594 27.320312 M 37.671875 3.320312 C 39.484375 6.039062 41.351562 10.867188 43.265625 17.8125 C 44.578125 16.503906 45.988281 15.847656 47.503906 15.847656 C 49.621094 15.847656 51.433594 17.257812 52.945312 20.074219 C 54.761719 23.394531 56.878906 29.734375 59.296875 39.09375 L 63.988281 59.773438 L 63.230469 62.792969 C 62.523438 63.597656 61.566406 64 60.355469 64 L 40.394531 64 C 39.484375 64 38.730469 63.699219 38.125 63.09375 L 36.765625 60.832031 C 36.460938 57.710938 35.804688 55.09375 34.796875 52.980469 L 32.679688 50.265625 L 30.714844 52.980469 C 29.707031 55.09375 29 57.710938 28.597656 60.832031 C 28.496094 61.734375 28.09375 62.492188 27.386719 63.09375 L 24.96875 64 L 3.492188 64 C 2.382812 64 1.476562 63.546875 0.769531 62.640625 L 0.0117188 61.585938 L 0.0117188 59.320312 L 4.550781 43.472656 C 6.667969 36.929688 8.734375 32.25 10.75 29.433594 C 12.667969 26.515625 14.785156 25.054688 17.101562 25.054688 L 18.917969 25.507812 C 21.640625 14.945312 24.210938 7.796875 26.632812 4.074219 C 28.34375 1.359375 30.363281 0 32.679688 0 C 34.597656 0 36.261719 1.105469 37.671875 3.320312 "/>
</g>
</svg>
