<?xml version="1.0" encoding="UTF-8"?>
<svg xmlns="http://www.w3.org/2000/svg" xmlns:xlink="http://www.w3.org/1999/xlink" width="64pt" height="64pt" viewBox="0 0 64 64" version="1.1">
<g id="surface1">
<path style=" stroke:#000000;stroke-width:3;stroke-opacity:0.5;fill-rule:nonzero;fill:rgb(100%,100%,100%);fill-opacity:1;" d="M 52.054688 11.945312 C 46.550781 6.339844 39.863281 3.539062 32 3.539062 C 24.136719 3.539062 17.402344 6.339844 11.796875 11.945312 C 6.292969 17.449219 3.539062 24.136719 3.539062 32 C 3.539062 39.863281 6.292969 46.597656 11.796875 52.203125 C 17.402344 57.707031 24.136719 60.460938 32 60.460938 C 39.863281 60.460938 46.550781 57.707031 52.054688 52.203125 C 57.660156 46.597656 60.460938 39.863281 60.460938 32 C 60.460938 24.136719 57.660156 17.449219 52.054688 11.945312 M 32 0 C 40.75 0 48.269531 3.144531 54.5625 9.4375 C 60.855469 15.730469 64 23.25 64 32 C 64 40.847656 60.855469 48.417969 54.5625 54.710938 C 48.269531 60.902344 40.75 64 32 64 C 23.152344 64 15.582031 60.902344 9.289062 54.710938 C 3.097656 48.417969 0 40.847656 0 32 C 0 23.25 3.097656 15.730469 9.289062 9.4375 C 15.582031 3.144531 23.152344 0 32 0 M 36.570312 24.773438 L 33.917969 15.484375 C 33.128906 12.730469 32.539062 11.355469 32.148438 11.355469 L 30.230469 15.632812 L 27.28125 25.214844 L 23.742188 32.738281 C 22.5625 35.390625 21.972656 37.847656 21.972656 40.109375 C 21.972656 42.863281 22.957031 45.273438 24.921875 47.335938 C 26.886719 49.300781 29.296875 50.285156 32.148438 50.285156 C 34.898438 50.285156 37.308594 49.300781 39.375 47.335938 C 41.339844 45.273438 42.324219 42.863281 42.324219 40.109375 C 42.324219 37.75 41.632812 35.195312 40.257812 32.441406 L 36.570312 24.773438 M 32.148438 7.816406 C 33.621094 7.816406 34.800781 8.503906 35.6875 9.878906 L 37.605469 15.925781 L 39.964844 23.742188 L 42.46875 29.050781 L 44.828125 34.066406 L 45.863281 40.109375 C 45.863281 43.847656 44.535156 47.089844 41.878906 49.84375 C 39.226562 52.496094 35.980469 53.824219 32.148438 53.824219 C 28.3125 53.824219 25.070312 52.496094 22.414062 49.84375 C 19.761719 47.089844 18.433594 43.847656 18.433594 40.109375 L 19.316406 34.066406 L 21.53125 29.199219 L 23.890625 24.035156 L 26.101562 17.105469 L 28.609375 10.175781 C 29.492188 8.601562 30.671875 7.816406 32.148438 7.816406 "/>
</g>
</svg>
