<?xml version="1.0" encoding="UTF-8"?>
<svg xmlns="http://www.w3.org/2000/svg" xmlns:xlink="http://www.w3.org/1999/xlink" width="64pt" height="63pt" viewBox="0 0 64 63" version="1.1">
<g id="surface1">
<path style=" stroke:#000000;stroke-width:3;stroke-opacity:0.5;fill-rule:nonzero;fill:rgb(100%,100%,100%);fill-opacity:1;" d="M 41.621094 52.65625 L 41.324219 53.394531 L 39.832031 54.71875 L 37.445312 52.65625 L 34.609375 50.148438 C 33.515625 49.363281 32.371094 48.96875 31.179688 48.96875 C 28.394531 48.96875 26.207031 50.199219 24.617188 52.65625 L 24.316406 53.394531 L 22.675781 54.71875 L 20.4375 52.65625 L 17.605469 50.148438 L 14.171875 48.96875 C 11.386719 48.96875 9.199219 50.199219 7.609375 52.65625 L 7.308594 53.394531 C 6.714844 54.277344 6.167969 54.71875 5.667969 54.71875 L 3.582031 54.71875 L 3.582031 59.4375 L 5.667969 59.4375 C 8.253906 59.4375 10.34375 58.160156 11.933594 55.605469 L 12.082031 55.160156 C 12.582031 54.082031 13.226562 53.539062 14.023438 53.539062 L 16.410156 55.75 L 19.246094 58.257812 C 20.339844 59.042969 21.484375 59.4375 22.675781 59.4375 C 25.261719 59.4375 27.351562 58.160156 28.941406 55.605469 L 29.089844 55.160156 C 29.589844 54.082031 30.234375 53.539062 31.03125 53.539062 L 33.417969 55.75 L 36.25 58.257812 C 37.347656 59.042969 38.488281 59.4375 39.683594 59.4375 C 42.269531 59.4375 44.355469 58.160156 45.949219 55.605469 L 46.097656 55.160156 L 46.695312 54.425781 C 47.191406 53.835938 47.640625 53.539062 48.039062 53.539062 L 50.425781 55.75 L 53.257812 58.257812 C 54.453125 59.042969 55.597656 59.4375 56.691406 59.4375 L 58.777344 59.4375 L 58.777344 54.71875 L 56.839844 54.71875 L 54.453125 52.65625 L 51.617188 50.148438 C 50.523438 49.363281 49.378906 48.96875 48.1875 48.96875 C 45.402344 48.96875 43.214844 50.199219 41.621094 52.65625 M 51.617188 39.386719 C 50.523438 38.601562 49.378906 38.207031 48.1875 38.207031 C 45.402344 38.207031 43.214844 39.4375 41.621094 41.894531 L 41.324219 42.628906 L 39.832031 43.957031 C 39.234375 43.761719 38.441406 43.074219 37.445312 41.894531 L 34.609375 39.386719 C 33.515625 38.601562 32.371094 38.207031 31.179688 38.207031 C 28.394531 38.207031 26.207031 39.4375 24.617188 41.894531 L 24.316406 42.484375 L 22.675781 43.957031 L 20.4375 41.894531 L 17.605469 39.386719 L 14.171875 38.207031 C 11.386719 38.207031 9.199219 39.4375 7.609375 41.894531 L 7.308594 42.628906 C 6.714844 43.515625 6.167969 43.957031 5.667969 43.957031 L 3.582031 43.957031 L 3.582031 48.675781 L 5.667969 48.675781 C 8.253906 48.675781 10.34375 47.398438 11.933594 44.84375 L 12.082031 44.398438 C 12.582031 43.417969 13.226562 42.875 14.023438 42.777344 L 16.410156 44.988281 L 19.246094 47.496094 C 20.339844 48.28125 21.484375 48.675781 22.675781 48.675781 C 25.261719 48.675781 27.351562 47.398438 28.941406 44.84375 L 29.089844 44.398438 C 29.589844 43.417969 30.234375 42.875 31.03125 42.777344 L 33.417969 44.988281 L 36.25 47.496094 C 37.347656 48.28125 38.488281 48.675781 39.683594 48.675781 C 42.269531 48.675781 44.355469 47.398438 45.949219 44.84375 L 46.097656 44.398438 L 46.695312 43.664062 L 48.039062 42.777344 L 50.425781 44.988281 C 52.8125 47.445312 54.898438 48.675781 56.691406 48.675781 L 58.777344 48.675781 L 58.777344 43.957031 L 56.839844 43.957031 L 54.453125 41.894531 L 51.617188 39.386719 M 45.800781 21.253906 C 42.417969 9.460938 39.78125 3.5625 37.894531 3.5625 C 35.007812 3.5625 31.675781 10.886719 27.898438 25.527344 C 26.605469 23.269531 25.558594 22.136719 24.765625 22.136719 C 22.378906 22.136719 19.742188 26.265625 16.859375 34.523438 L 20.4375 37.617188 L 22.675781 39.683594 L 24.316406 38.207031 L 24.617188 37.617188 C 26.207031 35.160156 28.394531 33.933594 31.179688 33.933594 C 32.371094 33.933594 33.515625 34.277344 34.609375 34.964844 L 37.445312 37.617188 L 39.832031 39.683594 L 41.324219 38.207031 L 41.621094 37.617188 C 43.214844 35.160156 45.402344 33.933594 48.1875 33.933594 C 49.378906 33.933594 50.523438 34.277344 51.617188 34.964844 L 54.453125 37.617188 L 56.839844 39.683594 L 59.824219 39.828125 C 55.644531 23.515625 52.464844 15.355469 50.273438 15.355469 C 48.882812 15.355469 47.390625 17.324219 45.800781 21.253906 M 32.074219 3.710938 C 33.765625 1.253906 35.703125 0.0234375 37.894531 0.0234375 C 39.582031 0.0234375 41.027344 0.859375 42.21875 2.53125 C 43.710938 4.496094 45.300781 7.984375 46.992188 12.996094 C 48.085938 12.210938 49.179688 11.820312 50.273438 11.820312 C 51.964844 11.820312 53.457031 12.703125 54.75 14.472656 L 58.777344 23.464844 L 63.402344 39.535156 C 63.800781 41.007812 63.402344 42.238281 62.210938 43.21875 L 62.359375 43.957031 L 62.359375 59.4375 C 62.359375 60.421875 61.960938 61.253906 61.164062 61.945312 C 60.570312 62.632812 59.773438 62.976562 58.777344 62.976562 L 56.691406 62.976562 C 54.003906 62.976562 51.171875 61.453125 48.1875 58.40625 C 46 61.453125 43.164062 62.976562 39.683594 62.976562 C 36.996094 62.976562 34.164062 61.453125 31.179688 58.40625 C 28.992188 61.453125 26.15625 62.976562 22.675781 62.976562 C 19.890625 62.976562 17.058594 61.453125 14.171875 58.40625 C 11.984375 61.453125 9.148438 62.976562 5.667969 62.976562 L 3.582031 62.976562 L 1.042969 61.945312 L 0 59.4375 L 0 43.957031 C 0 42.976562 0.347656 42.140625 1.042969 41.453125 C 1.742188 40.761719 2.585938 40.417969 3.582031 40.417969 L 4.328125 40.417969 L 4.773438 39.828125 C 6.863281 36.683594 9.695312 34.964844 13.277344 34.667969 L 13.425781 33.34375 C 15.316406 28.132812 17.15625 24.398438 18.945312 22.136719 C 20.738281 19.78125 22.675781 18.601562 24.765625 18.601562 L 25.957031 18.894531 C 28.144531 11.621094 30.183594 6.558594 32.074219 3.710938 "/>
</g>
</svg>
