<?xml version="1.0" encoding="UTF-8"?>
<svg xmlns="http://www.w3.org/2000/svg" xmlns:xlink="http://www.w3.org/1999/xlink" width="64pt" height="52pt" viewBox="0 0 64 52" version="1.1">
<g id="surface1">
<path style=" stroke:#000000;stroke-width:3;stroke-opacity:0.5;fill-rule:nonzero;fill:rgb(100%,100%,100%);fill-opacity:1;" d="M 30.558594 28.257812 L 22.773438 28.257812 L 30.558594 19.230469 L 30.558594 28.257812 M 11.675781 17.777344 L 19.460938 17.777344 L 19.460938 26.945312 L 11.675781 17.777344 M 21.046875 17.777344 L 29.550781 17.777344 L 21.046875 27.527344 L 21.046875 17.777344 M 40.214844 28.257812 L 32.144531 28.257812 L 32.144531 19.230469 L 40.214844 28.257812 M 43.53125 17.777344 L 52.324219 17.777344 L 43.53125 27.382812 L 43.53125 17.777344 M 33.152344 17.777344 L 41.945312 17.777344 L 41.945312 27.527344 L 33.152344 17.777344 M 42.667969 4.386719 L 42.378906 4.386719 C 41.992188 3.804688 41.082031 3.511719 39.640625 3.511719 C 37.71875 3.511719 36.757812 3.902344 36.757812 4.679688 C 36.757812 5.453125 37.71875 5.84375 39.640625 5.84375 L 41.082031 5.695312 L 41.082031 13.554688 L 21.332031 13.554688 L 21.332031 4.96875 L 21.046875 4.96875 L 18.164062 4.09375 L 16.289062 4.386719 L 15.421875 5.261719 L 16.289062 6.132812 L 18.164062 6.425781 L 19.746094 6.277344 L 19.746094 13.554688 L 3.460938 13.554688 L 3.460938 17.777344 L 9.511719 17.777344 L 18.304688 28.257812 L 3.460938 28.257812 L 3.460938 30.730469 L 9.371094 30.730469 L 8.503906 45.722656 L 6.628906 45.722656 L 6.628906 48.488281 L 16 48.488281 L 16 45.722656 L 13.835938 45.722656 L 12.972656 30.730469 L 29.980469 30.730469 L 29.117188 45.722656 L 27.097656 45.722656 L 27.097656 48.488281 L 36.613281 48.488281 L 36.613281 45.722656 L 34.449219 45.722656 L 33.585938 30.730469 L 50.019531 30.730469 L 49.152344 45.722656 L 47.277344 45.722656 L 47.277344 48.488281 L 56.792969 48.488281 L 56.792969 45.722656 L 54.488281 45.722656 L 53.621094 30.730469 L 60.539062 30.730469 L 60.539062 28.257812 L 44.972656 28.257812 L 54.628906 17.777344 L 60.539062 17.777344 L 60.539062 13.554688 L 42.667969 13.554688 L 42.667969 4.386719 M 33.296875 4.679688 C 33.296875 3.417969 33.824219 2.347656 34.882812 1.476562 C 36.035156 0.503906 37.621094 0.0195312 39.640625 0.0195312 C 41.371094 0.0195312 42.8125 0.359375 43.964844 1.039062 C 45.40625 1.621094 46.125 2.738281 46.125 4.386719 L 46.125 10.0625 L 60.539062 10.0625 L 62.992188 10.9375 L 64 13.554688 L 64 17.777344 C 64 18.746094 63.664062 19.570312 62.992188 20.25 C 62.414062 20.929688 61.597656 21.269531 60.539062 21.269531 L 56.070312 21.269531 L 52.902344 24.761719 L 60.539062 24.761719 C 61.597656 24.761719 62.414062 25.101562 62.992188 25.78125 C 63.664062 26.460938 64 27.285156 64 28.257812 L 64 30.730469 L 62.992188 33.203125 C 62.414062 33.882812 61.597656 34.222656 60.539062 34.222656 L 57.511719 34.222656 L 57.945312 37.863281 L 57.945312 42.375 C 59.484375 42.957031 60.253906 44.070312 60.253906 45.722656 L 60.253906 48.488281 L 59.242188 50.960938 C 58.570312 51.640625 57.753906 51.980469 56.792969 51.980469 L 47.277344 51.980469 C 46.316406 51.980469 45.5 51.640625 44.828125 50.960938 C 44.15625 50.28125 43.820312 49.457031 43.820312 48.488281 L 43.820312 45.722656 C 43.820312 44.265625 44.445312 43.199219 45.695312 42.519531 L 45.695312 37.863281 L 46.125 34.222656 L 37.476562 34.222656 L 37.910156 37.863281 L 37.910156 42.375 C 39.351562 43.148438 40.070312 44.265625 40.070312 45.722656 L 40.070312 48.488281 C 40.070312 49.457031 39.6875 50.28125 38.917969 50.960938 C 38.34375 51.640625 37.574219 51.980469 36.613281 51.980469 L 27.097656 51.980469 C 26.234375 51.980469 25.417969 51.640625 24.648438 50.960938 C 23.976562 50.28125 23.640625 49.457031 23.640625 48.488281 L 23.640625 45.722656 C 23.640625 44.167969 24.3125 43.101562 25.65625 42.519531 L 25.65625 37.863281 L 26.089844 34.222656 L 16.863281 34.222656 L 17.296875 37.863281 L 17.296875 42.375 C 18.738281 42.957031 19.460938 44.070312 19.460938 45.722656 L 19.460938 48.488281 C 19.460938 49.457031 19.125 50.28125 18.449219 50.960938 C 17.875 51.640625 17.058594 51.980469 16 51.980469 L 6.628906 51.980469 L 4.179688 50.960938 L 3.171875 48.488281 L 3.171875 45.722656 C 3.171875 44.265625 3.796875 43.246094 5.046875 42.664062 L 5.046875 37.863281 L 5.476562 34.222656 L 3.460938 34.222656 C 2.59375 34.222656 1.824219 33.882812 1.152344 33.203125 C 0.382812 32.523438 0 31.699219 0 30.730469 L 0 28.257812 C 0 27.285156 0.382812 26.460938 1.152344 25.78125 C 1.824219 25.101562 2.59375 24.761719 3.460938 24.761719 L 10.8125 24.761719 L 7.929688 21.269531 L 3.460938 21.269531 C 2.5 21.269531 1.730469 20.929688 1.152344 20.25 C 0.382812 19.570312 0 18.746094 0 17.777344 L 0 13.554688 C 0 12.585938 0.382812 11.710938 1.152344 10.9375 L 3.460938 10.0625 L 16.289062 10.0625 L 16.289062 9.773438 C 14.847656 9.480469 13.742188 8.898438 12.972656 8.023438 C 12.300781 7.25 11.964844 6.328125 11.964844 5.261719 C 11.964844 4 12.445312 2.929688 13.40625 2.058594 C 14.558594 1.085938 16.144531 0.601562 18.164062 0.601562 C 19.890625 0.601562 21.332031 0.992188 22.488281 1.765625 C 24.023438 2.253906 24.792969 3.320312 24.792969 4.96875 L 24.792969 10.0625 L 37.621094 10.0625 L 37.621094 9.191406 C 34.738281 8.511719 33.296875 7.007812 33.296875 4.679688 "/>
</g>
</svg>
