<?xml version="1.0" encoding="UTF-8"?>
<svg xmlns="http://www.w3.org/2000/svg" xmlns:xlink="http://www.w3.org/1999/xlink" width="63pt" height="62pt" viewBox="0 0 63 62" version="1.1">
<g id="surface1">
<path style=" stroke:#000000;stroke-width:3;stroke-opacity:0.5;fill-rule:nonzero;fill:rgb(100%,100%,100%);fill-opacity:1;" d="M 48.546875 41.570312 L 48.125 41.855469 L 47.132812 43.144531 C 45.71875 44.667969 44.070312 45.429688 42.183594 45.429688 C 40.484375 45.429688 39.070312 44.808594 37.9375 43.570312 L 37.796875 43.285156 L 36.945312 41.855469 L 35.816406 41.144531 L 35.671875 41.429688 L 34.542969 45.429688 L 34.117188 45.570312 L 34.402344 44 L 34.542969 42.714844 L 34.402344 42.714844 L 33.976562 43.714844 L 33.550781 45.714844 L 27.183594 46.144531 L 26.617188 45.855469 L 27.183594 44.144531 L 28.457031 42.429688 L 29.308594 41.285156 L 29.164062 41.144531 L 28.457031 41.144531 C 27.230469 41.144531 25.394531 41.617188 22.941406 42.570312 C 21.808594 44.09375 20.300781 44.855469 18.414062 44.855469 L 16.996094 44.570312 L 13.460938 44.855469 L 8.226562 44.285156 L 6.953125 44.144531 L 6.527344 44.144531 L 6.105469 44.285156 L 6.386719 45.144531 L 6.953125 45.714844 C 8.460938 46.761719 9.453125 47.761719 9.925781 48.714844 L 9.359375 48.714844 L 7.800781 49.285156 L 7.800781 49.570312 L 9.074219 50 L 9.359375 50 L 8.367188 50.714844 L 6.8125 51.285156 L 6.8125 51.429688 L 8.226562 52.285156 L 8.507812 53 L 10.632812 53.570312 L 11.195312 53.714844 L 11.480469 53.714844 L 11.621094 56.285156 C 11.90625 57.523438 12.613281 58.144531 13.742188 58.144531 L 15.300781 57.714844 L 16.996094 55.570312 L 16.996094 55.429688 L 17.5625 54 L 42.746094 54.855469 L 42.890625 54.714844 L 44.304688 52.144531 L 44.019531 52.714844 L 43.738281 54.429688 C 43.550781 55.570312 43.785156 56.667969 44.445312 57.714844 L 44.585938 57.714844 C 45.058594 58.285156 45.625 58.570312 46.285156 58.570312 C 47.132812 58.570312 47.886719 58.191406 48.546875 57.429688 C 49.964844 56.09375 50.625 54.382812 50.53125 52.285156 L 50.53125 51.855469 L 50.953125 54 L 51.378906 54.144531 L 52.367188 53.714844 L 53.21875 51.285156 L 53.359375 50.855469 L 53.925781 51 C 54.492188 51 54.867188 50.808594 55.058594 50.429688 L 55.058594 50.144531 C 54.867188 49.761719 54.492188 49.570312 53.925781 49.570312 L 53.640625 49.570312 L 53.925781 49 L 54.347656 49.144531 L 56.332031 49 L 57.460938 48.429688 L 57.605469 48.285156 L 56.1875 47.714844 L 54.914062 47.855469 L 54.632812 48 L 54.773438 47.855469 L 55.765625 47 L 56.046875 47.144531 L 56.1875 46.855469 L 56.046875 46.855469 L 56.613281 46.714844 L 56.613281 46.570312 L 57.460938 45.285156 L 56.894531 43.855469 L 56.753906 43.855469 L 56.046875 43.144531 L 56.1875 42.855469 L 56.046875 42.714844 L 55.765625 43.144531 L 55.058594 42.855469 L 54.207031 42.570312 L 53.925781 42.429688 L 54.207031 42 L 54.492188 41.429688 L 54.632812 40.570312 L 53.074219 40.570312 L 48.546875 41.570312 M 31.710938 25.285156 L 35.390625 22.570312 L 36.097656 22.285156 L 36.097656 22.144531 L 32.277344 22.285156 L 28.597656 25.144531 L 27.46875 26 L 26.761719 26.429688 L 25.488281 26.429688 L 20.253906 26 L 18.269531 26.429688 L 15.582031 25.714844 L 14.027344 26.144531 L 13.601562 26.429688 L 12.046875 28.144531 C 9.40625 28.714844 6.8125 29.667969 4.265625 31 L 3.414062 31.429688 L 3.273438 31.714844 L 5.539062 33.714844 C 7.425781 34.953125 9.925781 35.808594 13.035156 36.285156 L 13.179688 37.285156 L 13.320312 37.285156 L 13.742188 37 L 13.601562 36.429688 L 14.167969 36.429688 C 14.355469 37.953125 15.015625 39.191406 16.148438 40.144531 L 17.140625 41 L 20.675781 39.855469 C 21.148438 38.714844 21.289062 37.761719 21.101562 37 L 38.363281 37.429688 L 38.785156 38 L 39.210938 37.855469 L 39.210938 37.714844 L 39.070312 37.285156 L 39.636719 37.285156 L 39.492188 37.714844 L 39.636719 39.714844 L 40.625 40.429688 L 45.859375 38.855469 L 46.285156 37.714844 L 54.347656 35.570312 L 56.613281 34.285156 L 56.894531 34.570312 L 57.039062 34.285156 L 56.894531 34.144531 L 58.3125 32.855469 L 58.734375 33.429688 L 58.875 33.429688 L 59.160156 33.285156 L 59.300781 33.144531 L 58.734375 32.429688 L 59.160156 31.570312 L 59.019531 31.570312 L 58.59375 31.855469 L 58.59375 32 L 58.453125 32.144531 L 57.320312 30.855469 L 57.460938 30.855469 L 57.746094 31 L 57.886719 31 L 58.027344 30.855469 L 57.886719 30.714844 L 57.605469 30.570312 L 57.039062 30.714844 L 52.511719 27.285156 L 51.804688 25.855469 L 50.8125 26 C 49.492188 26 48.359375 25.617188 47.417969 24.855469 C 46.378906 24.191406 45.484375 23.191406 44.730469 21.855469 L 37.511719 22.144531 L 39.492188 22.429688 L 39.636719 22.429688 L 39.917969 22.570312 L 43.03125 24 L 45.859375 27.429688 L 43.03125 28.285156 L 42.890625 27.855469 L 42.890625 28.144531 L 42.746094 28.429688 L 39.070312 28.855469 L 33.976562 28.855469 L 32.703125 26.855469 L 32.5625 26.855469 L 32.136719 27 L 31.855469 27.285156 L 32.84375 28.714844 L 28.882812 28.429688 L 31.710938 25.285156 M 37.371094 8.570312 L 37.9375 10.144531 C 37.9375 10.332031 37.75 10.429688 37.371094 10.429688 L 31.144531 10 L 30.722656 8 L 30.15625 7 L 30.015625 7 L 30.015625 7.144531 L 30.15625 8.429688 L 30.4375 9.855469 L 29.871094 9.855469 L 28.882812 5.714844 L 28.882812 5.570312 L 29.023438 5.429688 L 36.238281 6.855469 L 37.371094 8.570312 M 58.027344 8.429688 L 57.746094 8.429688 L 56.1875 8.570312 L 51.09375 9.285156 L 44.730469 8.144531 L 40.058594 6.285156 L 32.417969 4.144531 L 28.597656 3.429688 L 28.035156 3.429688 L 25.0625 8.714844 L 16.007812 6 L 11.480469 5 L 10.632812 5 L 10.207031 4.855469 L 9.925781 5 L 10.347656 6.429688 L 10.632812 6.855469 L 10.347656 6.855469 L 8.792969 7.429688 L 8.507812 7.144531 L 8.652344 7.570312 L 7.800781 8.144531 L 7.660156 8.144531 L 7.09375 9.714844 L 7.941406 11 L 8.507812 11.144531 L 8.507812 11.570312 L 8.652344 11.570312 L 8.652344 11.429688 L 9.78125 12.144531 L 9.925781 12.285156 L 9.78125 12.285156 L 8.367188 12 L 6.953125 12.570312 L 6.953125 12.855469 L 8.226562 13.285156 L 10.207031 13.429688 L 10.632812 13.285156 L 10.914062 14 L 10.632812 14 L 9.5 14.429688 L 9.5 14.714844 C 9.6875 15.09375 10.066406 15.285156 10.632812 15.285156 L 11.195312 15.285156 L 11.339844 15.570312 L 12.328125 18 C 12.519531 18.285156 12.800781 18.429688 13.179688 18.429688 L 13.320312 18.429688 C 13.507812 18.429688 13.601562 18.382812 13.601562 18.285156 L 13.886719 17 L 14.167969 16.285156 L 14.167969 16.570312 C 13.980469 18.667969 14.59375 20.429688 16.007812 21.855469 L 16.433594 22.285156 L 17.847656 22.285156 L 19.6875 22.570312 L 20.109375 22.144531 L 20.109375 22 C 20.769531 21.144531 21.054688 20.046875 20.960938 18.714844 L 20.535156 17 L 20.535156 16.855469 L 20.253906 16.429688 L 21.667969 19.144531 L 21.808594 19.285156 L 23.222656 19.144531 L 31.144531 18.855469 L 35.25 16.855469 L 38.078125 16.570312 L 42.039062 17 L 46.003906 18 L 47.699219 17.570312 L 49.113281 18 L 48.972656 17.285156 L 51.09375 17.285156 C 51.285156 18.238281 51.140625 18.855469 50.671875 19.144531 L 51.804688 20.285156 L 52.792969 20.855469 L 53.074219 20.570312 L 53.21875 18 L 53.925781 18 C 54.773438 18 55.480469 17.761719 56.046875 17.285156 L 56.332031 16.714844 L 57.886719 15.855469 L 57.746094 15.714844 L 56.1875 15 L 55.339844 14.429688 L 55.621094 14.429688 L 56.894531 14 L 56.753906 13.714844 L 55.199219 13.144531 L 54.773438 13.144531 C 55.152344 12.09375 56.046875 11.046875 57.460938 10 C 58.3125 9.429688 58.640625 8.953125 58.453125 8.570312 L 58.027344 8.429688 M 45.859375 5 L 51.09375 5.855469 L 54.914062 5.429688 L 57.320312 5 L 58.027344 5 C 59.539062 5 60.621094 5.617188 61.28125 6.855469 L 61.988281 8.855469 C 61.988281 10.191406 61.328125 11.382812 60.007812 12.429688 L 60.148438 13.144531 L 60.292969 13.285156 L 61.28125 15.429688 L 60.714844 17.570312 L 58.59375 19.570312 L 58.167969 20 L 56.472656 21 L 56.1875 21.570312 L 55.339844 23.429688 L 55.480469 25.144531 L 58.3125 27.285156 L 59.160156 27.429688 L 60.574219 28.570312 L 62.132812 29.855469 L 62.554688 32.144531 C 62.839844 33 62.792969 33.855469 62.414062 34.714844 C 61.847656 35.855469 60.90625 36.570312 59.585938 36.855469 C 58.925781 37.617188 58.074219 38 57.039062 38 L 56.894531 38.144531 L 57.320312 38.570312 L 57.886719 39.714844 L 59.160156 41 L 59.441406 41.429688 C 60.386719 42.382812 60.859375 43.667969 60.859375 45.285156 L 60.714844 46.714844 C 61.28125 47.953125 61.140625 49.238281 60.292969 50.570312 L 60.148438 50.570312 L 57.886719 52.144531 L 56.046875 53.855469 L 54.914062 56 L 52.792969 57.429688 L 50.953125 59.855469 C 49.539062 61.285156 47.984375 62 46.285156 62 C 44.585938 62 43.125 61.332031 41.898438 60 L 40.910156 58.285156 L 19.6875 57.570312 L 17.140625 60.429688 C 16.007812 61.191406 14.875 61.570312 13.742188 61.570312 C 11.007812 61.570312 9.167969 60.144531 8.226562 57.285156 L 8.226562 56.570312 L 6.386719 55.570312 L 5.960938 55.285156 L 3.839844 53.144531 C 2.992188 51.714844 3.132812 50.285156 4.265625 48.855469 L 4.40625 48.855469 L 4.6875 48 C 3.367188 47.046875 2.707031 45.90625 2.707031 44.570312 L 3.273438 42.429688 C 4.027344 41.285156 5.113281 40.714844 6.527344 40.714844 L 7.378906 40.714844 L 8.652344 40.855469 L 8.792969 41 L 9.640625 41 L 12.753906 41.429688 L 12.046875 40.570312 L 10.347656 39.285156 C 7.707031 38.714844 5.445312 37.761719 3.558594 36.429688 L 0.445312 33.570312 L 0.0195312 31.144531 L 1.578125 28.570312 L 1.71875 28.570312 L 2.566406 28 L 2.707031 27.855469 L 10.066406 25.144531 L 11.90625 23.429688 L 12.46875 23.144531 L 12.613281 23.144531 L 11.90625 21.714844 C 11.054688 21.429688 10.347656 21 9.78125 20.429688 L 8.507812 18.285156 L 6.527344 16.570312 C 5.585938 16.191406 4.878906 15.667969 4.40625 15 C 3.460938 13.855469 3.320312 12.523438 3.980469 11 L 3.699219 9.570312 C 3.605469 8.046875 4.125 6.808594 5.253906 5.855469 L 5.539062 5.285156 L 6.667969 4.144531 L 7.234375 3 C 7.894531 1.953125 8.886719 1.429688 10.207031 1.429688 L 11.90625 1.570312 L 16.996094 2.714844 L 22.65625 4.429688 L 23.363281 4.714844 L 25.0625 1.714844 C 25.722656 0.570312 26.714844 0 28.035156 0 L 29.023438 0 L 33.128906 0.714844 L 41.332031 3.144531 L 45.859375 5 "/>
</g>
</svg>
