<?xml version="1.0" encoding="UTF-8"?>
<svg xmlns="http://www.w3.org/2000/svg" xmlns:xlink="http://www.w3.org/1999/xlink" width="64pt" height="92pt" viewBox="0 0 64 92" version="1.1">
<g id="surface1">
<path style=" stroke:none;fill-rule:nonzero;fill:rgb(100%,100%,100%);fill-opacity:1;" d="M 28.46875 81.207031 L 14.335938 81.207031 L 18.285156 70.851562 L 28.46875 81.207031 M 23.066406 83.28125 L 12.882812 85.558594 L 13.507812 83.695312 L 14.335938 83.28125 L 23.066406 83.28125 M 29.296875 53.871094 L 24.726562 53.871094 L 27.84375 45.378906 L 29.296875 53.871094 M 31.792969 67.125 L 25.972656 55.941406 L 38.441406 55.941406 L 31.792969 67.125 M 19.53125 67.539062 L 23.273438 57.597656 L 28.675781 67.539062 L 19.53125 67.539062 M 9.765625 38.335938 L 9.765625 38.75 L 9.972656 39.164062 L 13.507812 39.578125 L 5.402344 50.761719 L 5.402344 51.386719 L 6.027344 51.386719 L 18.492188 38.957031 L 18.492188 38.335938 L 18.078125 38.128906 L 14.960938 37.507812 L 22.441406 30.261719 L 22.441406 29.84375 L 22.234375 29.429688 L 19.742188 29.015625 L 26.183594 22.183594 L 26.183594 21.5625 L 25.558594 21.5625 L 14.753906 29.84375 L 14.546875 30.261719 L 14.960938 30.675781 L 17.246094 31.089844 L 9.765625 38.335938 M 13.714844 19.699219 L 13.296875 19.90625 L 13.507812 20.320312 L 14.753906 22.390625 L 7.480469 23.839844 L 7.273438 24.253906 L 7.6875 24.875 L 17.871094 24.460938 L 18.078125 24.253906 L 18.078125 23.632812 L 16.832031 21.976562 L 22.441406 21.976562 L 22.855469 21.769531 L 22.855469 21.148438 L 21.816406 19.90625 L 26.804688 19.699219 L 27.222656 19.28125 L 26.804688 18.660156 L 18.910156 17.625 L 18.492188 17.832031 L 18.492188 18.453125 L 19.324219 19.699219 L 13.714844 19.699219 M 18.492188 6.648438 L 18.078125 6.648438 L 17.664062 6.855469 L 17.453125 9.34375 L 11.222656 5.199219 L 10.597656 5.40625 L 10.597656 6.027344 L 17.871094 12.863281 L 18.492188 13.070312 L 18.703125 12.65625 L 19.117188 10.378906 L 23.066406 14.3125 C 23.203125 14.589844 23.34375 14.65625 23.480469 14.519531 L 23.6875 14.105469 L 24.105469 12.449219 L 27.84375 15.96875 L 28.46875 15.96875 L 28.46875 15.347656 L 23.480469 8.929688 L 23.066406 8.71875 L 22.648438 9.136719 L 22.441406 10.585938 L 18.492188 6.648438 M 33.871094 42.273438 L 32.207031 51.59375 L 30.335938 42.273438 L 33.871094 42.273438 M 43.429688 69.609375 L 32 80.792969 L 20.988281 69.609375 L 43.429688 69.609375 M 49.664062 81.207031 L 35.742188 81.207031 L 45.921875 71.265625 L 49.664062 81.207031 M 51.117188 85.558594 L 40.519531 83.28125 L 49.664062 83.28125 L 50.492188 83.488281 L 51.117188 85.558594 M 39.273438 53.871094 L 34.910156 53.871094 L 36.570312 46 L 39.273438 53.871094 M 40.933594 57.804688 L 44.46875 67.539062 L 35.324219 67.539062 L 40.933594 57.804688 M 32 33.988281 L 34.285156 40.199219 L 29.714844 40.199219 L 32 33.988281 M 49.453125 30.261719 L 49.246094 29.84375 L 38.441406 21.5625 L 37.816406 21.5625 L 37.816406 22.183594 L 44.257812 29.015625 L 41.765625 29.429688 L 41.558594 29.84375 L 41.558594 30.261719 L 49.039062 37.507812 L 45.921875 38.128906 L 45.507812 38.335938 L 45.507812 38.957031 L 57.972656 51.386719 L 58.597656 51.386719 L 58.597656 50.761719 L 50.492188 39.578125 L 54.027344 39.164062 L 54.234375 38.75 L 54.234375 38.335938 L 46.753906 31.089844 L 49.039062 30.675781 L 49.453125 30.261719 M 37.195312 18.660156 L 36.777344 19.28125 L 37.195312 19.699219 L 42.183594 19.90625 L 41.144531 21.148438 L 41.144531 21.769531 L 41.558594 21.976562 L 47.167969 21.976562 L 45.921875 23.632812 L 45.921875 24.253906 L 46.128906 24.460938 L 56.3125 24.875 L 56.726562 24.253906 L 56.519531 23.839844 L 49.246094 22.390625 L 50.492188 20.320312 L 50.703125 19.90625 L 50.285156 19.699219 L 44.675781 19.699219 L 45.507812 18.453125 L 45.507812 17.832031 L 45.089844 17.625 L 37.195312 18.660156 M 33.039062 20.113281 L 32 19.074219 L 30.960938 20.113281 L 30.960938 29.84375 L 29.921875 30.46875 L 8.933594 87.007812 L 17.664062 87.007812 L 31.792969 83.28125 L 46.753906 87.007812 L 55.066406 87.007812 L 34.078125 30.46875 L 33.039062 29.84375 L 33.039062 20.113281 M 53.402344 6.027344 L 53.402344 5.40625 L 52.777344 5.199219 L 46.546875 9.136719 L 46.128906 6.855469 L 45.921875 6.441406 L 45.296875 6.648438 L 41.351562 10.585938 L 41.144531 9.136719 L 40.933594 8.71875 L 40.3125 8.71875 L 35.324219 15.140625 L 35.53125 15.761719 L 36.15625 15.761719 L 39.894531 12.449219 L 40.105469 14.105469 L 40.3125 14.519531 L 40.933594 14.3125 L 44.882812 10.378906 L 45.089844 12.449219 L 45.507812 12.863281 L 45.921875 12.863281 L 53.402344 6.027344 M 57.144531 2.300781 C 58.113281 3.40625 58.527344 4.648438 58.390625 6.027344 C 58.390625 7.410156 57.835938 8.582031 56.726562 9.550781 L 51.117188 14.933594 C 53.054688 15.210938 54.371094 16.175781 55.066406 17.832031 L 55.480469 18.660156 L 57.558594 19.074219 L 60.882812 21.148438 C 61.714844 22.25 61.992188 23.496094 61.714844 24.875 C 61.574219 26.394531 60.953125 27.566406 59.84375 28.394531 C 58.875 29.363281 57.695312 29.84375 56.3125 29.84375 L 54.441406 29.636719 L 54.234375 31.503906 L 57.765625 34.816406 C 59.289062 36.335938 59.707031 38.128906 59.011719 40.199219 L 58.183594 41.859375 L 62.753906 47.65625 C 63.585938 48.898438 63.863281 50.210938 63.585938 51.59375 L 61.714844 55.113281 L 58.390625 56.355469 C 56.867188 56.355469 55.550781 55.804688 54.441406 54.699219 L 44.675781 45.171875 L 59.636719 85.351562 C 60.191406 86.871094 60.050781 88.386719 59.222656 89.90625 C 58.25 91.289062 56.867188 91.976562 55.066406 91.976562 L 45.296875 91.976562 L 31.792969 88.25 L 19.117188 91.976562 L 8.933594 91.976562 C 7.132812 91.976562 5.75 91.289062 4.777344 89.90625 C 3.949219 88.386719 3.808594 86.871094 4.363281 85.351562 L 19.324219 45.171875 L 9.558594 54.699219 C 8.449219 55.804688 7.132812 56.355469 5.609375 56.355469 L 2.285156 55.113281 L 0.414062 51.59375 C 0.136719 50.210938 0.414062 48.898438 1.246094 47.65625 L 5.816406 41.859375 L 4.988281 40.199219 C 4.292969 38.128906 4.710938 36.335938 6.234375 34.816406 L 9.765625 31.503906 L 9.558594 29.636719 L 7.6875 29.84375 C 6.304688 29.84375 5.125 29.363281 4.15625 28.394531 C 3.046875 27.566406 2.425781 26.394531 2.285156 24.875 L 3.117188 21.148438 L 6.648438 19.074219 L 8.519531 18.660156 L 8.933594 17.832031 C 9.765625 16.175781 11.011719 15.210938 12.675781 14.933594 L 7.273438 9.757812 C 6.164062 8.652344 5.542969 7.410156 5.402344 6.027344 L 6.648438 2.300781 C 7.757812 0.917969 9.210938 0.230469 11.011719 0.230469 L 13.714844 1.058594 L 15.585938 2.300781 L 16.414062 1.886719 L 18.078125 1.679688 C 19.601562 1.679688 20.917969 2.164062 22.027344 3.128906 L 22.648438 3.75 L 23.066406 3.75 C 24.726562 3.75 26.183594 4.441406 27.429688 5.820312 L 31.792969 11.621094 L 36.363281 5.613281 C 37.472656 4.371094 38.925781 3.75 40.726562 3.75 L 41.144531 3.75 L 41.765625 3.128906 C 42.875 2.023438 44.191406 1.472656 45.714844 1.472656 L 47.375 1.886719 L 48.207031 2.300781 L 49.871094 1.058594 L 52.988281 0.0234375 C 54.789062 0.0234375 56.171875 0.78125 57.144531 2.300781 "/>
</g>
</svg>
