<?xml version="1.0" encoding="UTF-8"?>
<svg xmlns="http://www.w3.org/2000/svg" xmlns:xlink="http://www.w3.org/1999/xlink" width="64pt" height="65pt" viewBox="0 0 64 65" version="1.1">
<g id="surface1">
<path style=" stroke:none;fill-rule:nonzero;fill:rgb(100%,100%,100%);fill-opacity:1;" d="M 60.460938 3.539062 L 52.644531 3.539062 L 52.644531 34.839844 L 48.515625 34.839844 L 48.515625 3.539062 L 40.847656 3.539062 L 40.847656 28.257812 L 28.753906 37.328125 L 28.753906 27.964844 L 16.222656 37.328125 L 16.222656 27.964844 L 3.539062 37.472656 L 3.539062 61.460938 L 60.460938 61.460938 L 60.460938 3.539062 M 50.582031 0.617188 L 52.644531 0.03125 L 60.460938 0.03125 C 61.445312 0.03125 62.28125 0.371094 62.96875 1.054688 L 64 3.539062 L 64 61.460938 L 62.96875 63.945312 C 62.28125 64.628906 61.445312 64.96875 60.460938 64.96875 L 3.539062 64.96875 C 2.65625 64.96875 1.867188 64.628906 1.179688 63.945312 C 0.394531 63.261719 0 62.433594 0 61.460938 L 0 37.472656 C 0 36.304688 0.492188 35.375 1.476562 34.695312 L 14.15625 25.1875 L 16.222656 24.457031 L 17.84375 24.75 C 19.121094 25.332031 19.761719 26.40625 19.761719 27.964844 L 19.761719 30.160156 L 26.542969 25.1875 L 28.753906 24.457031 L 30.378906 24.75 C 31.65625 25.332031 32.296875 26.40625 32.296875 27.964844 L 32.296875 30.160156 L 37.308594 26.503906 L 37.308594 3.539062 C 37.308594 2.566406 37.652344 1.738281 38.339844 1.054688 C 39.027344 0.371094 39.863281 0.03125 40.847656 0.03125 L 48.515625 0.03125 L 50.582031 0.617188 "/>
</g>
</svg>
