<?xml version="1.0" encoding="UTF-8"?>
<svg xmlns="http://www.w3.org/2000/svg" xmlns:xlink="http://www.w3.org/1999/xlink" width="64pt" height="41pt" viewBox="0 0 64 41" version="1.1">
<g id="surface1">
<path style=" stroke:#000000;stroke-width:3;stroke-opacity:0.5;fill-rule:nonzero;fill:rgb(100%,100%,100%);fill-opacity:1;" d="M 53.734375 15.160156 C 52.871094 12.078125 51.765625 9.914062 50.421875 8.660156 C 46.871094 5.195312 40.730469 3.464844 32 3.464844 C 23.269531 3.464844 17.078125 5.292969 13.433594 8.949219 C 12.089844 10.296875 11.035156 12.367188 10.265625 15.160156 L 10.125 15.160156 C 8.589844 15.160156 7.292969 15.6875 6.238281 16.746094 C 5.183594 17.707031 4.652344 18.960938 4.652344 20.5 L 3.503906 30.316406 L 4.078125 31.617188 L 5.085938 32.050781 L 9.835938 32.050781 L 9.835938 36.8125 L 10.699219 37.535156 L 16.742188 37.535156 L 17.464844 36.8125 L 17.464844 32.050781 L 46.535156 32.050781 L 46.535156 36.8125 L 47.257812 37.535156 L 53.300781 37.535156 L 54.164062 36.8125 L 54.164062 32.050781 L 58.914062 32.050781 L 59.921875 31.617188 L 60.496094 30.316406 L 59.347656 20.5 C 59.347656 18.960938 58.816406 17.707031 57.761719 16.746094 C 56.707031 15.6875 55.410156 15.160156 53.875 15.160156 L 53.734375 15.160156 M 32 0 C 45.722656 0 53.875 3.992188 56.46875 11.980469 C 58.386719 12.558594 59.921875 13.617188 61.074219 15.160156 C 62.222656 16.792969 62.800781 18.574219 62.800781 20.5 L 63.375 26.128906 L 63.953125 30.316406 C 63.953125 31.761719 63.472656 33.011719 62.511719 34.070312 C 61.457031 35.03125 60.257812 35.515625 58.914062 35.515625 L 57.617188 35.515625 L 57.617188 36.8125 C 57.617188 37.96875 57.1875 38.980469 56.324219 39.84375 C 55.460938 40.613281 54.453125 41 53.300781 41 L 47.257812 41 C 46.105469 41 45.144531 40.613281 44.378906 39.84375 C 43.515625 38.980469 43.082031 37.96875 43.082031 36.8125 L 43.082031 35.515625 L 20.917969 35.515625 L 20.917969 36.8125 C 20.917969 37.96875 20.484375 38.980469 19.621094 39.84375 C 18.855469 40.613281 17.894531 41 16.742188 41 L 10.699219 41 C 9.546875 41 8.539062 40.613281 7.675781 39.84375 C 6.8125 38.980469 6.382812 37.96875 6.382812 36.8125 L 6.382812 35.515625 L 5.085938 35.515625 C 3.742188 35.515625 2.589844 35.03125 1.632812 34.070312 C 0.574219 33.011719 0.046875 31.761719 0.046875 30.316406 L 0.480469 26.128906 L 1.199219 20.5 C 1.199219 18.574219 1.777344 16.792969 2.925781 15.160156 C 4.078125 13.617188 5.613281 12.558594 7.53125 11.980469 C 8.683594 8.710938 10.890625 6.113281 14.152344 4.1875 C 18.472656 1.394531 24.417969 0 32 0 "/>
</g>
</svg>
