<?xml version="1.0" encoding="UTF-8"?>
<svg xmlns="http://www.w3.org/2000/svg" xmlns:xlink="http://www.w3.org/1999/xlink" width="64pt" height="60pt" viewBox="0 0 64 60" version="1.1">
<g id="surface1">
<path style=" stroke:#000000;stroke-width:3;stroke-opacity:0.5;fill-rule:nonzero;fill:rgb(100%,100%,100%);fill-opacity:1;" d="M 40.394531 5.570312 C 41.027344 8.117188 40.921875 10.714844 40.078125 13.367188 L 37.226562 21.007812 C 36.171875 23.554688 35.695312 24.988281 35.800781 25.304688 L 39.761719 21.167969 C 42.71875 17.558594 45.355469 15.121094 47.679688 13.847656 C 51.058594 11.9375 53.75 11.140625 55.757812 11.457031 C 57.972656 11.882812 59.082031 13.6875 59.082031 16.871094 L 59.558594 23.714844 L 61.933594 28.167969 C 63.304688 30.078125 63.464844 31.9375 62.410156 33.738281 C 61.246094 35.648438 59.1875 36.710938 56.230469 36.921875 C 52.324219 37.347656 47.835938 36.65625 42.769531 34.855469 L 36.117188 32.785156 C 35.484375 33.210938 38.597656 36.128906 45.460938 41.539062 C 47.785156 43.34375 49.421875 45.199219 50.371094 47.109375 C 51.535156 49.761719 50.953125 51.832031 48.628906 53.316406 C 46.625 54.589844 44.722656 55.066406 42.929688 54.746094 C 40.710938 54.429688 39.074219 54.429688 38.019531 54.746094 C 35.167969 56.234375 33.109375 57.347656 31.839844 58.089844 L 25.980469 58.566406 C 23.023438 56.976562 21.8125 53.953125 22.339844 49.496094 C 22.65625 46.101562 23.660156 42.8125 25.347656 39.628906 C 26.296875 37.71875 26.773438 36.234375 26.773438 35.171875 L 26.457031 33.898438 L 19.488281 41.378906 C 14.84375 47.640625 12.570312 53.847656 12.679688 60 L 6.816406 57.453125 L 8.71875 51.722656 C 10.300781 47.480469 11.992188 44.351562 13.785156 42.335938 L 21.386719 35.492188 L 25.824219 32.308594 L 22.179688 32.148438 C 19.433594 32.46875 16.320312 34.164062 12.835938 37.242188 C 9.351562 40.53125 6.394531 41.539062 3.96875 40.265625 C 2.277344 39.417969 1.117188 37.878906 0.484375 35.648438 C 0.164062 34.484375 0.269531 32.890625 0.800781 30.875 L 1.90625 25.78125 L 2.226562 19.574219 C 2.542969 16.921875 3.4375 15.171875 4.917969 14.324219 L 11.09375 13.6875 C 13.3125 14.324219 15.160156 15.597656 16.636719 17.507812 C 19.910156 21.328125 23.023438 23.660156 25.980469 24.507812 C 23.34375 19.945312 20.753906 16.445312 18.222656 14.003906 C 15.792969 11.671875 14.472656 9.496094 14.261719 7.480469 C 14.050781 5.570312 14.738281 3.980469 16.320312 2.707031 L 21.230469 1.910156 L 26.296875 2.386719 L 31.050781 0.316406 L 36.433594 0 C 38.441406 1.0625 39.761719 2.917969 40.394531 5.570312 "/>
</g>
</svg>
