<?xml version="1.0" encoding="UTF-8"?>
<svg xmlns="http://www.w3.org/2000/svg" xmlns:xlink="http://www.w3.org/1999/xlink" width="63pt" height="46pt" viewBox="0 0 63 46" version="1.1">
<g id="surface1">
<path style=" stroke:none;fill-rule:nonzero;fill:rgb(100%,100%,100%);fill-opacity:1;" d="M 49.078125 10 C 49.078125 8.191406 48.417969 6.617188 47.09375 5.285156 C 45.867188 4.046875 44.355469 3.429688 42.558594 3.429688 L 9.808594 3.429688 C 8.011719 3.429688 6.5 4.046875 5.273438 5.285156 C 4.042969 6.617188 3.429688 8.191406 3.429688 10 L 3.429688 33.429688 L 16.332031 33.429688 L 16.046875 35.285156 C 16.046875 37.382812 16.753906 39.191406 18.171875 40.714844 C 19.6875 42.144531 21.480469 42.855469 23.5625 42.855469 C 25.640625 42.855469 27.4375 42.144531 28.949219 40.714844 C 30.460938 39.191406 31.214844 37.382812 31.214844 35.285156 L 30.933594 33.429688 L 59.570312 33.429688 L 59.570312 29.285156 L 49.078125 29.285156 L 49.078125 10 M 42.558594 0 C 45.300781 0 47.613281 1 49.503906 3 C 51.488281 4.90625 52.480469 7.238281 52.480469 10 L 52.480469 25.855469 L 59.570312 25.855469 C 60.515625 25.855469 61.320312 26.191406 61.980469 26.855469 C 62.640625 27.523438 62.972656 28.332031 62.972656 29.285156 L 62.972656 33.429688 C 62.972656 34.382812 62.640625 35.144531 61.980469 35.714844 C 61.320312 36.476562 60.515625 36.855469 59.570312 36.855469 L 34.335938 36.855469 C 33.863281 39.429688 32.632812 41.617188 30.648438 43.429688 C 28.570312 45.144531 26.207031 46 23.5625 46 C 20.820312 46 18.410156 45.144531 16.332031 43.429688 C 14.34375 41.617188 13.117188 39.429688 12.644531 36.855469 L 3.429688 36.855469 C 2.484375 36.855469 1.679688 36.476562 1.019531 35.714844 C 0.359375 35.144531 0.0273438 34.382812 0.0273438 33.429688 L 0.0273438 10 C 0.0273438 7.238281 0.972656 4.90625 2.863281 3 C 4.847656 1 7.164062 0 9.808594 0 L 42.558594 0 "/>
</g>
</svg>
