<?xml version="1.0" encoding="UTF-8"?>
<svg xmlns="http://www.w3.org/2000/svg" xmlns:xlink="http://www.w3.org/1999/xlink" width="64pt" height="64pt" viewBox="0 0 64 64" version="1.1">
<g id="surface1">
<path style=" stroke:#000000;stroke-width:3;stroke-opacity:0.5;fill-rule:nonzero;fill:rgb(100%,100%,100%);fill-opacity:1;" d="M 4.179688 26.378906 L 4.035156 26.378906 L 3.460938 32 C 3.460938 36.035156 4.277344 39.929688 5.910156 43.675781 C 7.542969 47.136719 9.800781 50.210938 12.683594 52.902344 L 18.019531 36.613281 L 4.179688 26.378906 M 5.910156 20.179688 L 23.351562 20.179688 L 28.683594 3.746094 L 28.828125 3.605469 C 23.734375 4.179688 19.125 5.957031 14.992188 8.9375 C 11.050781 11.914062 8.023438 15.664062 5.910156 20.179688 M 32 60.539062 C 36.804688 60.539062 41.464844 59.292969 45.980469 56.792969 L 32 46.703125 L 18.019531 56.792969 C 22.535156 59.292969 27.195312 60.539062 32 60.539062 M 58.089844 43.675781 C 59.722656 39.929688 60.539062 36.035156 60.539062 32 L 59.964844 26.378906 L 45.980469 36.613281 L 51.316406 52.902344 C 54.199219 50.210938 56.457031 47.136719 58.089844 43.675781 M 32 0 C 39.398438 0 45.980469 2.304688 51.746094 6.917969 C 57.511719 11.339844 61.261719 17.105469 62.992188 24.214844 L 64 32 C 64 36.996094 62.894531 41.707031 60.683594 46.125 C 58.472656 50.449219 55.496094 54.101562 51.746094 57.082031 L 49.007812 58.953125 C 43.820312 62.316406 38.148438 64 32 64 C 25.851562 64 20.179688 62.316406 14.992188 58.953125 L 11.53125 56.503906 C 7.976562 53.527344 5.1875 49.921875 3.171875 45.695312 C 1.058594 41.371094 0 36.804688 0 32 L 1.007812 24.214844 L 2.304688 20.179688 C 4.613281 14.222656 8.457031 9.371094 13.835938 5.621094 C 19.316406 1.875 25.371094 0 32 0 M 38.199219 23.640625 L 32 4.902344 L 25.800781 23.640625 L 6.199219 23.640625 L 22.199219 35.171875 L 16 54.054688 L 32 42.378906 L 48 54.054688 L 41.800781 35.171875 L 57.800781 23.640625 L 38.199219 23.640625 M 40.648438 20.179688 L 58.089844 20.179688 C 55.976562 15.664062 52.949219 11.914062 49.007812 8.9375 C 44.875 5.957031 40.265625 4.179688 35.171875 3.605469 L 35.316406 3.746094 L 40.648438 20.179688 "/>
</g>
</svg>
