<?xml version="1.0" encoding="UTF-8"?>
<svg xmlns="http://www.w3.org/2000/svg" xmlns:xlink="http://www.w3.org/1999/xlink" width="64pt" height="65pt" viewBox="0 0 64 65" version="1.1">
<g id="surface1">
<path style=" stroke:#000000;stroke-width:3;stroke-opacity:0.5;fill-rule:nonzero;fill:rgb(100%,100%,100%);fill-opacity:1;" d="M 51.230469 24.289062 L 36.570312 23.949219 L 31.742188 10.09375 L 27.085938 23.949219 L 12.425781 24.289062 L 24.152344 32.84375 L 19.667969 47.039062 L 31.742188 38.488281 L 43.8125 47.039062 L 39.503906 32.84375 L 51.230469 24.289062 M 60.023438 12.316406 C 57.265625 16.648438 55.886719 21.152344 55.886719 25.828125 C 55.886719 30.503906 56.921875 34.496094 58.992188 37.800781 C 60.023438 39.628906 61.175781 40.882812 62.441406 41.566406 L 59.851562 46.699219 C 57.324219 50.6875 53.703125 54.109375 48.988281 56.960938 C 43.238281 60.382812 37.488281 63.0625 31.742188 65 L 26.394531 62.949219 L 14.839844 56.960938 C 10.011719 54.109375 6.503906 50.6875 4.320312 46.699219 L 1.90625 41.566406 C 3.054688 40.882812 4.089844 39.628906 5.007812 37.800781 C 6.847656 34.496094 7.769531 30.503906 7.769531 25.828125 C 7.769531 21.152344 6.5625 16.648438 4.148438 12.316406 L 0.0078125 7.011719 L 5.699219 0 L 8.285156 3.59375 C 11.160156 5.871094 14.609375 7.011719 18.632812 7.011719 C 21.507812 7.011719 24.554688 6.273438 27.773438 4.789062 C 29.382812 4.105469 30.707031 3.363281 31.742188 2.566406 L 35.878906 4.789062 C 39.214844 6.273438 42.320312 7.011719 45.195312 7.011719 C 49.101562 7.011719 52.496094 5.871094 55.367188 3.59375 L 58.472656 0 L 63.992188 7.011719 L 60.023438 12.316406 "/>
</g>
</svg>
