<?xml version="1.0" encoding="UTF-8"?>
<svg xmlns="http://www.w3.org/2000/svg" xmlns:xlink="http://www.w3.org/1999/xlink" width="64pt" height="67pt" viewBox="0 0 64 67" version="1.1">
<g id="surface1">
<path style=" stroke:none;fill-rule:nonzero;fill:rgb(100%,100%,100%);fill-opacity:1;" d="M 47.15625 60.359375 L 47.3125 60.058594 L 47.769531 59.453125 L 48.84375 58.851562 L 50.679688 60.359375 C 52.414062 62.269531 53.945312 63.226562 55.273438 63.226562 L 60.476562 63.226562 L 60.476562 59.753906 L 55.578125 59.753906 L 53.742188 58.097656 L 51.597656 56.132812 L 48.84375 55.230469 C 46.699219 55.230469 45.015625 56.183594 43.789062 58.097656 L 43.636719 58.546875 L 42.410156 59.753906 L 40.726562 58.097656 L 38.582031 56.132812 C 37.664062 55.53125 36.746094 55.230469 35.828125 55.230469 C 33.785156 55.230469 32.152344 56.183594 30.929688 58.097656 L 30.621094 58.546875 L 29.550781 59.753906 L 27.714844 58.097656 C 25.875 56.183594 24.292969 55.230469 22.964844 55.230469 C 20.824219 55.230469 19.140625 56.183594 17.914062 58.097656 L 17.609375 58.546875 L 16.382812 59.753906 L 3.675781 59.753906 L 3.675781 63.226562 L 16.382812 63.226562 C 18.628906 63.226562 20.210938 62.269531 21.128906 60.359375 L 21.28125 60.058594 L 21.742188 59.304688 L 22.8125 58.851562 L 24.652344 60.359375 C 26.386719 62.269531 27.96875 63.226562 29.398438 63.226562 C 31.539062 63.226562 33.121094 62.269531 34.144531 60.359375 L 34.296875 60.058594 L 35.828125 58.851562 L 37.664062 60.359375 C 39.503906 62.269531 41.085938 63.226562 42.410156 63.226562 C 44.453125 63.226562 46.035156 62.269531 47.15625 60.359375 M 50.679688 0.605469 C 52.007812 1.308594 52.667969 2.367188 52.667969 3.773438 C 52.667969 5.183594 52.109375 6.691406 50.984375 8.300781 L 50.679688 8.753906 L 50.679688 10.867188 C 50.578125 12.878906 49.761719 15.695312 48.230469 19.316406 L 43.789062 27.613281 L 40.726562 30.480469 L 36.898438 42.703125 L 39.042969 43.609375 C 41.390625 37.171875 43.277344 32.445312 44.707031 29.425781 C 46.445312 25.601562 48.078125 23.1875 49.609375 22.183594 L 51.90625 21.429688 L 53.742188 21.429688 L 58.335938 21.882812 C 59.765625 22.484375 60.582031 23.492188 60.785156 24.898438 L 63.539062 38.933594 L 63.539062 39.988281 C 63.539062 41.699219 62.773438 42.855469 61.242188 43.460938 L 59.867188 43.609375 C 58.84375 43.609375 57.925781 43.257812 57.109375 42.554688 L 54.199219 38.78125 L 52.515625 44.515625 C 53.230469 44.816406 54.507812 45.824219 56.34375 47.535156 L 56.804688 47.984375 L 60.324219 47.984375 C 61.449219 47.984375 62.316406 48.339844 62.929688 49.042969 C 63.644531 49.746094 64 50.601562 64 51.609375 L 64 63.378906 L 62.929688 65.792969 C 62.316406 66.597656 61.449219 67 60.324219 67 L 55.273438 67 C 53.027344 67 50.882812 65.992188 48.84375 63.980469 C 47.003906 65.992188 44.808594 67 42.257812 67 C 40.113281 67 38.023438 65.992188 35.980469 63.980469 C 34.144531 65.992188 31.949219 67 29.398438 67 C 27.253906 67 25.109375 65.992188 22.964844 63.980469 C 21.230469 65.992188 18.984375 67 16.230469 67 L 3.675781 67 C 2.652344 67 1.785156 66.597656 1.070312 65.792969 L 0 63.378906 L 0 51.609375 L 1.070312 49.042969 C 1.785156 48.339844 2.652344 47.984375 3.675781 47.984375 L 4.441406 47.984375 C 3.417969 34.40625 4.390625 25.601562 7.347656 21.578125 C 8.0625 20.574219 9.035156 20.070312 10.257812 20.070312 L 11.636719 20.371094 L 13.015625 21.429688 L 14.546875 15.996094 L 15.921875 12.222656 C 16.636719 10.816406 17.761719 10.109375 19.292969 10.109375 L 20.363281 10.261719 C 21.28125 10.5625 21.996094 11.066406 22.507812 11.769531 L 22.964844 14.335938 L 22.199219 19.464844 L 22.199219 20.675781 L 23.425781 18.5625 L 26.335938 14.636719 L 29.089844 12.828125 L 29.398438 12.074219 L 29.550781 11.921875 C 30.367188 9.707031 31.746094 8.601562 33.683594 8.601562 L 34.757812 8.601562 C 36.082031 8.902344 37.050781 9.609375 37.664062 10.714844 C 39.296875 7.796875 41.1875 5.886719 43.332031 4.980469 L 45.015625 1.960938 C 45.730469 0.65625 46.851562 0 48.382812 0 L 50.679688 0.605469 M 48.535156 3.773438 L 48.382812 3.773438 L 48.382812 3.621094 L 47.15625 5.585938 L 46.085938 7.847656 C 42.617188 8.453125 39.347656 13.78125 36.285156 23.84375 C 35.980469 24.949219 36.183594 25.957031 36.898438 26.859375 L 29.089844 50.703125 L 27.867188 50.25 L 27.714844 49.949219 L 25.570312 47.984375 C 24.652344 47.382812 23.730469 47.082031 22.8125 47.082031 L 22.046875 47.230469 L 23.578125 39.082031 L 25.417969 31.386719 C 26.742188 31.285156 27.816406 30.734375 28.632812 29.726562 L 30.46875 26.40625 C 32.511719 22.484375 33.175781 19.015625 32.460938 15.996094 L 33.683594 14.035156 L 34.296875 12.976562 L 33.992188 12.222656 L 33.683594 12.222656 L 33.070312 12.675781 L 32.613281 13.734375 L 31.695312 15.84375 C 30.570312 15.945312 29.652344 16.398438 28.9375 17.203125 L 26.488281 20.523438 C 23.527344 25.351562 22.863281 28.871094 24.496094 31.085938 L 20.515625 45.875 L 20.363281 47.683594 L 19.597656 48.136719 C 18.167969 39.988281 17.8125 30.382812 18.527344 19.316406 L 19.292969 13.734375 L 18.066406 17.050781 L 15.3125 30.179688 L 14.699219 51.609375 L 12.554688 51.609375 L 11.023438 41.648438 C 10.105469 34.105469 9.851562 28.117188 10.257812 23.691406 C 8.421875 26.105469 7.605469 31.488281 7.808594 39.835938 L 8.421875 51.609375 L 3.675781 51.609375 L 3.675781 55.230469 L 15.617188 55.230469 L 18.984375 52.511719 L 24.039062 51.757812 C 25.671875 52.058594 27.355469 52.964844 29.089844 54.472656 L 32.460938 52.210938 L 37.207031 51.757812 C 38.839844 52.058594 40.472656 52.964844 42.105469 54.472656 C 45.066406 51.65625 47.71875 50.753906 50.066406 51.757812 C 52.007812 52.160156 53.894531 53.265625 55.730469 55.078125 L 60.324219 55.078125 L 60.324219 51.609375 L 55.425781 51.609375 L 53.742188 49.949219 C 51.90625 48.035156 50.269531 47.082031 48.84375 47.082031 L 47.921875 47.230469 L 53.28125 30.785156 L 56.496094 35.460938 L 59.867188 39.988281 L 59.867188 39.6875 L 57.109375 25.351562 L 53.742188 25.050781 L 51.90625 25.050781 C 50.375 26.15625 48.230469 30.179688 45.472656 37.121094 L 40.574219 49.949219 C 38.941406 47.535156 37.359375 46.277344 35.828125 46.175781 L 35.523438 46.175781 C 33.992188 46.175781 32.460938 47.230469 30.929688 49.34375 L 37.664062 27.765625 L 38.890625 27.3125 L 40.878906 25.503906 L 44.859375 17.808594 C 46.1875 14.6875 46.902344 12.273438 47.003906 10.5625 L 46.851562 8.148438 L 48.230469 6.035156 L 48.996094 3.925781 L 48.535156 3.773438 "/>
</g>
</svg>
