<?xml version="1.0" encoding="UTF-8"?>
<svg xmlns="http://www.w3.org/2000/svg" xmlns:xlink="http://www.w3.org/1999/xlink" width="64pt" height="64pt" viewBox="0 0 64 64" version="1.1">
<g id="surface1">
<path style=" stroke:#000000;stroke-width:3;stroke-opacity:0.5;fill-rule:nonzero;fill:rgb(100%,100%,100%);fill-opacity:1;" d="M 52.996094 13.546875 C 55.589844 13.546875 59.257812 23.140625 64 42.328125 L 62.644531 41.480469 L 60.445312 41.480469 L 57.734375 38.941406 L 54.519531 36.0625 C 53.277344 35.160156 51.980469 34.710938 50.625 34.710938 C 47.464844 34.710938 44.980469 36.121094 43.175781 38.941406 L 42.835938 39.789062 L 40.972656 41.3125 L 38.433594 38.941406 L 35.21875 36.0625 C 33.976562 35.160156 32.675781 34.710938 31.324219 34.710938 C 28.164062 34.710938 25.679688 36.121094 23.871094 38.941406 L 23.535156 39.617188 L 21.671875 41.3125 L 19.132812 38.941406 L 15.070312 35.554688 C 18.34375 26.074219 21.332031 21.332031 24.042969 21.332031 C 25.058594 21.332031 26.242188 22.632812 27.597656 25.226562 C 32 8.410156 35.78125 0 38.941406 0 C 41.085938 0 44.078125 6.714844 47.914062 20.148438 C 49.722656 15.746094 51.414062 13.546875 52.996094 13.546875 M 54.519531 41.144531 L 57.734375 44.019531 L 60.445312 46.390625 L 62.644531 46.390625 L 62.644531 51.808594 L 60.273438 51.808594 C 58.921875 51.808594 57.621094 51.300781 56.382812 50.285156 L 53.164062 47.578125 L 50.453125 45.035156 C 50.003906 45.035156 49.496094 45.375 48.929688 46.054688 L 48.253906 46.730469 L 48.085938 47.238281 C 46.277344 50.285156 43.910156 51.808594 40.972656 51.808594 C 39.617188 51.808594 38.320312 51.300781 37.078125 50.285156 L 33.863281 47.578125 L 31.152344 45.035156 L 28.953125 46.730469 L 28.78125 47.238281 C 26.976562 50.285156 24.605469 51.808594 21.671875 51.808594 L 17.777344 50.285156 L 14.5625 47.578125 L 11.851562 45.035156 L 9.652344 46.730469 L 9.480469 47.238281 C 7.675781 50.285156 5.304688 51.808594 2.371094 51.808594 L 0 51.808594 L 0 46.390625 L 2.371094 46.390625 C 3.046875 46.390625 3.613281 45.828125 4.0625 44.699219 L 4.570312 44.019531 C 6.378906 41.085938 8.859375 39.617188 12.019531 39.617188 C 13.375 39.617188 14.671875 40.128906 15.914062 41.144531 L 19.132812 44.019531 L 21.671875 46.390625 L 23.535156 44.699219 L 23.871094 44.019531 C 25.679688 41.085938 28.164062 39.617188 31.324219 39.617188 C 32.675781 39.617188 33.976562 40.128906 35.21875 41.144531 L 38.433594 44.019531 L 40.972656 46.390625 L 42.835938 44.699219 L 43.175781 44.019531 C 44.980469 41.085938 47.464844 39.617188 50.625 39.617188 C 51.980469 39.617188 53.277344 40.128906 54.519531 41.144531 M 48.085938 59.765625 C 46.277344 62.589844 43.910156 64 40.972656 64 C 39.617188 64 38.320312 63.605469 37.078125 62.816406 L 33.863281 59.765625 L 31.152344 57.398438 C 30.25 57.398438 29.515625 58.019531 28.953125 59.257812 L 28.78125 59.765625 C 26.976562 62.589844 24.605469 64 21.671875 64 L 17.777344 62.816406 L 14.5625 59.765625 C 13.207031 58.414062 12.304688 57.621094 11.851562 57.398438 C 10.949219 57.398438 10.214844 58.019531 9.652344 59.257812 L 9.480469 59.765625 C 7.675781 62.589844 5.304688 64 2.371094 64 L 0 64 L 0 58.75 L 2.371094 58.75 L 4.0625 57.226562 L 4.570312 56.382812 C 6.378906 53.558594 8.859375 52.148438 12.019531 52.148438 C 13.375 52.148438 14.671875 52.542969 15.914062 53.332031 L 19.132812 56.382812 L 21.671875 58.75 L 23.535156 57.058594 L 23.871094 56.382812 C 25.679688 53.558594 28.164062 52.148438 31.324219 52.148438 C 32.675781 52.148438 33.976562 52.542969 35.21875 53.332031 L 38.433594 56.382812 L 40.972656 58.75 L 42.835938 57.226562 L 43.175781 56.382812 C 44.980469 53.558594 47.464844 52.148438 50.625 52.148438 C 51.980469 52.148438 53.277344 52.542969 54.519531 53.332031 L 57.734375 56.382812 L 60.445312 58.75 L 62.644531 58.75 L 62.644531 64 L 60.273438 64 L 56.382812 62.816406 L 53.164062 59.765625 L 50.453125 57.398438 C 50.003906 57.398438 49.496094 57.679688 48.929688 58.242188 L 48.253906 59.257812 L 48.085938 59.765625 "/>
</g>
</svg>
