<?xml version="1.0" encoding="UTF-8"?>
<svg xmlns="http://www.w3.org/2000/svg" xmlns:xlink="http://www.w3.org/1999/xlink" width="64pt" height="79pt" viewBox="0 0 64 79" version="1.1">
<g id="surface1">
<path style=" stroke:none;fill-rule:nonzero;fill:rgb(100%,100%,100%);fill-opacity:1;" d="M 32 0 L 47.988281 15.960938 L 37.195312 15.960938 L 57.382812 36.109375 L 39.996094 36.109375 L 63.980469 59.847656 L 35.996094 59.847656 L 35.996094 70.222656 C 41.195312 70.488281 45.859375 71.417969 49.988281 73.015625 C 53.984375 74.609375 56.785156 76.605469 58.382812 79 L 5.816406 79 C 7.414062 76.738281 10.082031 74.8125 13.8125 73.214844 C 17.542969 71.617188 21.941406 70.621094 27.003906 70.222656 L 28.203125 70.222656 L 28.203125 59.847656 L 0.0195312 59.847656 L 24.003906 36.109375 L 6.617188 36.109375 L 26.804688 15.960938 L 16.011719 15.960938 L 32 0 "/>
</g>
</svg>
