<?xml version="1.0" encoding="UTF-8"?>
<svg xmlns="http://www.w3.org/2000/svg" xmlns:xlink="http://www.w3.org/1999/xlink" width="64pt" height="64pt" viewBox="0 0 64 64" version="1.1">
<g id="surface1">
<path style=" stroke:none;fill-rule:nonzero;fill:rgb(100%,100%,100%);fill-opacity:1;" d="M 61.253906 9.210938 L 51.878906 19.394531 L 53.980469 58.019531 L 47.515625 64 L 39.273438 36.523438 C 38.734375 35.230469 38.035156 34.585938 37.171875 34.585938 C 36.523438 34.371094 35.664062 34.746094 34.585938 35.71875 L 21.332031 47.675781 L 21.496094 56.242188 L 16.644531 60.929688 L 13.738281 53.171875 C 10.71875 55.328125 8.941406 56.1875 8.402344 55.757812 L 8.242188 55.433594 L 9.210938 52.6875 L 10.828125 50.261719 L 3.070312 47.191406 L 7.757812 42.503906 L 16.324219 42.667969 L 28.28125 29.253906 C 29.253906 28.175781 29.628906 27.3125 29.414062 26.667969 C 29.414062 26.019531 28.769531 25.375 27.476562 24.726562 L 12.769531 20.203125 L 0 16.484375 L 5.980469 10.019531 L 44.445312 12.121094 C 48.539062 7.8125 51.933594 4.6875 54.625 2.746094 C 56.351562 1.5625 58.398438 0.753906 60.769531 0.324219 L 63.839844 0 L 64 0.160156 L 63.675781 3.230469 C 63.246094 5.496094 62.4375 7.488281 61.253906 9.210938 "/>
</g>
</svg>
