<?xml version="1.0" encoding="UTF-8"?>
<svg xmlns="http://www.w3.org/2000/svg" xmlns:xlink="http://www.w3.org/1999/xlink" width="64pt" height="63pt" viewBox="0 0 64 63" version="1.1">
<g id="surface1">
<path style=" stroke:#000000;stroke-width:3;stroke-opacity:0.5;fill-rule:nonzero;fill:rgb(100%,100%,100%);fill-opacity:1;" d="M 12.136719 58.441406 C 12.566406 58.765625 12.996094 58.660156 13.425781 58.117188 L 14.074219 56.488281 L 11.652344 56.324219 C 11.4375 57.410156 11.597656 58.117188 12.136719 58.441406 M 17.625 37.765625 C 17.089844 36.574219 16.496094 36.195312 15.851562 36.628906 L 15.527344 37.929688 L 15.851562 39.394531 C 16.496094 40.480469 17.140625 40.804688 17.789062 40.371094 C 18.328125 39.828125 18.273438 38.960938 17.625 37.765625 M 15.367188 14.488281 C 14.503906 15.464844 14.398438 16.765625 15.042969 18.394531 C 15.6875 20.023438 16.550781 20.457031 17.625 19.699219 L 17.625 19.535156 C 18.59375 18.667969 18.757812 17.363281 18.109375 15.628906 C 17.359375 14 16.441406 13.621094 15.367188 14.488281 M 51.21875 58.929688 C 51.863281 57.300781 51.703125 56.054688 50.734375 55.1875 C 49.765625 54.210938 48.902344 54.589844 48.148438 56.324219 C 47.503906 58.0625 47.664062 59.363281 48.632812 60.234375 L 48.632812 60.394531 C 49.710938 61.15625 50.574219 60.667969 51.21875 58.929688 M 46.210938 37.441406 C 45.566406 37.117188 44.972656 37.496094 44.433594 38.582031 C 43.898438 39.992188 43.84375 40.914062 44.273438 41.347656 C 44.917969 41.78125 45.566406 41.402344 46.210938 40.210938 C 46.640625 38.691406 46.640625 37.765625 46.210938 37.441406 M 60.910156 45.90625 L 61.230469 46.070312 L 61.878906 47.699219 L 60.910156 49.164062 L 60.910156 49.324219 L 60.261719 49.488281 L 60.261719 49.652344 L 60.101562 49.8125 L 59.9375 49.652344 L 58.808594 50.464844 L 58.484375 50.628906 L 58.808594 50.628906 L 61.878906 50.953125 L 61.878906 51.277344 L 60.585938 51.929688 L 57.839844 51.929688 L 57.515625 52.582031 C 58.378906 52.582031 58.917969 52.796875 59.132812 53.234375 L 59.132812 53.558594 L 57.03125 54.046875 L 57.03125 54.535156 L 56.546875 56 L 55.902344 57.300781 C 55.6875 57.628906 55.308594 57.789062 54.769531 57.789062 L 54.449219 57.628906 L 54.125 56 L 53.964844 55.511719 C 54.070312 57.898438 53.316406 59.90625 51.703125 61.535156 L 49.441406 62.835938 C 48.582031 62.945312 47.773438 62.621094 47.019531 61.859375 C 46.265625 60.882812 45.941406 59.636719 46.050781 58.117188 L 46.535156 56.164062 L 46.859375 55.347656 L 45.242188 58.441406 L 45.082031 58.605469 L 16.335938 57.628906 L 15.6875 59.253906 L 15.6875 59.417969 L 13.75 61.859375 L 11.328125 62.347656 L 9.550781 60.070312 L 9.390625 57.140625 L 8.421875 57.140625 L 6 56.488281 L 5.675781 55.675781 L 3.898438 54.699219 L 4.0625 54.535156 L 5.835938 53.882812 C 6.050781 53.449219 6.429688 53.179688 6.96875 53.070312 L 6.484375 53.070312 L 5.03125 52.582031 L 5.191406 52.253906 L 6.96875 51.605469 L 7.613281 51.605469 L 5.835938 49.324219 L 4.222656 48.023438 L 3.578125 47.371094 L 3.253906 46.558594 L 4.222656 46.394531 L 5.675781 46.558594 L 11.652344 47.210938 L 18.917969 45.90625 L 24.085938 43.953125 L 29.578125 42.976562 L 29.738281 43.140625 L 28.769531 44.441406 L 27.316406 46.394531 L 26.507812 48.347656 L 27.316406 48.675781 L 34.421875 48.1875 L 35.070312 45.746094 C 35.175781 44.875 35.390625 44.550781 35.714844 44.765625 L 35.554688 46.234375 L 35.230469 48.023438 L 35.714844 47.859375 L 36.523438 45.417969 L 37.007812 43.140625 L 37.007812 42.976562 L 38.78125 43.953125 L 41.042969 46.722656 L 51.703125 43.464844 L 56.871094 42.324219 L 58.484375 42.324219 L 58 43.953125 L 57.839844 44.441406 L 58.164062 44.441406 L 59.132812 44.765625 L 59.9375 45.253906 L 60.261719 44.765625 L 60.261719 44.929688 L 60.101562 45.253906 L 60.910156 45.90625 M 54.125 17.90625 L 54.609375 15.789062 L 52.1875 15.789062 L 52.832031 17.417969 C 53.265625 17.960938 53.695312 18.125 54.125 17.90625 M 37.652344 19.046875 L 43.464844 19.210938 L 50.085938 21.164062 L 51.863281 21.8125 L 50.410156 20.511719 L 50.734375 20.023438 L 52.996094 22.464844 L 55.902344 23.929688 L 55.253906 24.253906 L 53.964844 23.605469 L 56.226562 27.1875 L 61.394531 31.09375 L 62.363281 31.09375 L 62.199219 31.253906 L 61.714844 31.253906 L 63.007812 32.722656 L 63.167969 32.558594 L 63.167969 32.394531 C 63.277344 32.179688 63.4375 32.070312 63.652344 32.070312 L 63.816406 32.070312 L 63.332031 33.046875 L 63.976562 33.859375 L 63.332031 34.1875 L 62.847656 33.535156 L 61.230469 35 L 61.394531 35.164062 L 61.230469 35.488281 L 60.910156 35.164062 L 58.324219 36.628906 L 49.117188 39.070312 L 47.179688 42.488281 C 45.351562 44.441406 43.789062 44.605469 42.496094 42.976562 L 42.335938 42.976562 C 41.582031 42 41.257812 40.699219 41.367188 39.070312 L 41.367188 38.582031 L 40.882812 38.582031 L 41.042969 39.070312 L 40.398438 39.394531 L 40.074219 38.746094 L 20.371094 38.09375 C 20.585938 39.613281 20.316406 40.914062 19.566406 42 L 19.402344 42 C 18.757812 42.867188 18.003906 43.25 17.140625 43.140625 L 14.71875 41.835938 C 13.535156 40.75 12.78125 39.285156 12.457031 37.441406 L 12.136719 37.605469 L 11.8125 37.605469 L 11.972656 38.253906 L 11.328125 38.582031 L 11.167969 37.441406 C 7.722656 36.898438 4.867188 35.921875 2.605469 34.511719 L 0.0234375 32.070312 L 0.183594 31.90625 L 1.152344 31.417969 L 1.152344 31.253906 L 10.035156 28.164062 L 11.8125 26.210938 L 12.296875 25.882812 L 16.335938 25.394531 L 24.734375 26.210938 L 26.832031 26.046875 L 27.640625 25.722656 L 31.675781 22.464844 L 37.652344 19.046875 M 37.8125 21.164062 L 37.652344 21.324219 L 37.328125 21.324219 L 36.683594 21.8125 L 32.324219 24.90625 L 29.253906 28.324219 L 33.777344 28.8125 L 32.644531 27.1875 L 32.96875 26.859375 L 33.613281 26.699219 L 35.070312 28.976562 L 40.882812 28.976562 L 44.917969 28.324219 L 45.082031 28.164062 L 45.40625 27.835938 L 45.242188 28.164062 L 45.242188 28.324219 L 48.632812 27.347656 C 48.203125 26.046875 47.128906 24.746094 45.40625 23.441406 L 41.851562 21.8125 L 40.074219 21.324219 L 38.136719 21.164062 L 37.8125 21.164062 M 39.589844 7.652344 L 38.945312 5.859375 L 37.492188 3.90625 L 29.417969 2.277344 L 29.253906 2.441406 L 29.253906 2.605469 L 30.386719 7.324219 L 31.03125 7.324219 L 30.707031 5.699219 L 30.386719 4.070312 L 30.546875 4.070312 L 31.191406 5.210938 L 31.675781 7.488281 L 38.945312 7.976562 C 39.265625 7.976562 39.484375 7.867188 39.589844 7.652344 M 63.007812 5.859375 L 62.683594 6.835938 L 61.878906 7.324219 L 58.648438 10.90625 L 59.292969 11.070312 L 61.070312 11.558594 L 61.070312 11.882812 C 60.855469 12.210938 60.421875 12.371094 59.777344 12.371094 L 59.292969 12.535156 L 60.421875 13.1875 L 62.199219 13.835938 L 62.363281 14.164062 L 60.585938 15.140625 L 60.261719 15.789062 C 59.722656 16.226562 58.917969 16.496094 57.839844 16.605469 L 56.871094 16.605469 L 56.710938 19.535156 C 56.386719 20.730469 55.792969 21.433594 54.933594 21.652344 L 52.511719 21.164062 L 50.574219 18.882812 L 50.574219 18.558594 L 49.925781 16.929688 L 21.019531 17.90625 L 19.402344 14.652344 L 19.726562 15.464844 L 20.050781 17.417969 C 20.265625 18.9375 19.996094 20.1875 19.242188 21.164062 L 19.082031 21.324219 C 18.433594 22.085938 17.679688 22.410156 16.820312 22.300781 L 14.398438 20.835938 C 12.890625 19.316406 12.191406 17.363281 12.296875 14.976562 L 12.136719 15.464844 L 11.8125 16.929688 L 11.328125 17.09375 C 11.003906 17.308594 10.683594 17.148438 10.359375 16.605469 L 9.230469 13.835938 L 9.066406 13.511719 C 8.097656 13.621094 7.453125 13.402344 7.128906 12.859375 L 7.128906 12.535156 L 8.582031 12.046875 L 8.421875 11.234375 L 5.675781 11.234375 C 5.03125 11.125 4.546875 10.90625 4.222656 10.582031 L 4.222656 10.417969 L 7.453125 10.09375 L 7.613281 10.09375 L 7.453125 9.765625 L 6.160156 9.117188 L 6 9.117188 L 6 8.789062 L 5.351562 8.628906 L 4.382812 7.164062 L 5.03125 5.371094 L 5.191406 5.371094 L 6.160156 4.722656 L 5.835938 4.234375 L 6 4.070312 L 6.160156 4.558594 L 8.097656 3.90625 L 8.421875 3.90625 L 8.097656 3.417969 L 7.613281 1.789062 L 8.257812 1.628906 L 9.390625 1.789062 L 14.558594 2.929688 L 24.734375 5.859375 L 28.285156 0 L 28.929688 0 L 33.292969 0.652344 C 36.628906 1.300781 39.535156 2.171875 42.011719 3.253906 L 47.34375 5.371094 L 54.609375 6.675781 L 60.421875 5.859375 L 62.039062 5.699219 L 63.007812 5.859375 "/>
</g>
</svg>
