<?xml version="1.0" encoding="UTF-8"?>
<svg xmlns="http://www.w3.org/2000/svg" xmlns:xlink="http://www.w3.org/1999/xlink" width="64pt" height="67pt" viewBox="0 0 64 67" version="1.1">
<g id="surface1">
<path style=" stroke:#000000;stroke-width:3;stroke-opacity:0.5;fill-rule:nonzero;fill:rgb(100%,100%,100%);fill-opacity:1;" d="M 44.375 3.621094 L 42.566406 3.621094 L 36.980469 20.371094 L 36.980469 36.214844 L 11.925781 36.214844 L 4.230469 44.667969 L 6.34375 44.667969 L 6.34375 63.378906 L 57.203125 63.378906 L 57.203125 44.667969 L 59.769531 44.667969 L 52.222656 36.214844 L 49.808594 36.214844 L 49.808594 20.371094 L 44.375 3.621094 M 39.09375 2.566406 C 39.597656 0.957031 40.753906 0.101562 42.566406 0 L 44.375 0 C 45.984375 0 47.09375 0.804688 47.695312 2.414062 L 53.28125 19.164062 L 53.429688 20.371094 L 53.429688 32.746094 L 54.941406 33.800781 L 62.488281 42.253906 C 63.492188 43.359375 63.695312 44.667969 63.089844 46.175781 L 60.828125 48.136719 L 60.828125 63.378906 L 59.769531 65.945312 C 59.167969 66.648438 58.3125 67 57.203125 67 L 6.34375 67 L 3.777344 65.945312 C 3.074219 65.238281 2.722656 64.382812 2.722656 63.378906 L 2.722656 47.988281 L 0.910156 46.023438 C 0.304688 44.71875 0.507812 43.460938 1.511719 42.253906 L 9.363281 33.800781 C 10.066406 32.996094 10.921875 32.59375 11.925781 32.59375 L 33.359375 32.59375 L 33.359375 20.371094 L 33.507812 19.316406 L 39.09375 2.566406 "/>
</g>
</svg>
