<?xml version="1.0" encoding="UTF-8"?>
<svg xmlns="http://www.w3.org/2000/svg" xmlns:xlink="http://www.w3.org/1999/xlink" width="64pt" height="63pt" viewBox="0 0 64 63" version="1.1">
<g id="surface1">
<path style=" stroke:none;fill-rule:nonzero;fill:rgb(100%,100%,100%);fill-opacity:1;" d="M 60.277344 6.265625 L 60.5625 3.714844 L 60.277344 3.429688 C 57.320312 3.429688 54.695312 4.234375 52.402344 5.839844 C 49.921875 7.542969 46.914062 10.28125 43.382812 14.0625 L 9.164062 12.363281 L 3.867188 17.890625 L 15.035156 21.152344 L 28.0625 25.121094 C 29.207031 25.6875 29.828125 26.300781 29.925781 26.964844 C 30.019531 27.53125 29.683594 28.285156 28.921875 29.230469 L 18.328125 40.855469 L 10.738281 40.855469 L 6.585938 44.96875 L 13.457031 47.660156 L 12.027344 49.644531 C 11.167969 51.0625 10.882812 51.914062 11.167969 52.199219 L 11.3125 52.339844 L 11.597656 52.480469 L 15.894531 50.214844 L 18.613281 57.019531 L 22.765625 52.765625 L 22.765625 45.25 L 34.503906 34.761719 C 35.363281 34.003906 36.082031 33.625 36.652344 33.625 C 37.417969 33.625 38.085938 34.289062 38.65625 35.609375 L 45.960938 59.570312 L 51.542969 54.324219 L 49.824219 20.585938 C 53.644531 16.992188 56.410156 14.015625 58.128906 11.652344 C 59.179688 10.140625 59.894531 8.34375 60.277344 6.265625 M 50.398438 3.148438 C 53.261719 1.066406 56.554688 0.0273438 60.277344 0.0273438 L 60.421875 0.0273438 C 61.375 0.0273438 62.140625 0.40625 62.710938 1.164062 L 62.855469 1.304688 C 63.617188 1.871094 64 2.628906 64 3.570312 C 64 7.351562 62.996094 10.707031 60.992188 13.636719 L 53.261719 22 L 54.980469 54.183594 C 55.074219 55.222656 54.742188 56.121094 53.976562 56.875 L 48.25 62.121094 L 45.960938 62.972656 L 44.957031 62.972656 C 43.714844 62.59375 42.953125 61.789062 42.667969 60.5625 L 35.792969 38.164062 L 26.203125 46.667969 L 26.203125 52.765625 C 26.203125 53.804688 25.867188 54.609375 25.199219 55.175781 L 21.046875 59.429688 C 20.285156 60.089844 19.472656 60.421875 18.613281 60.421875 L 17.898438 60.277344 C 16.65625 59.996094 15.84375 59.285156 15.464844 58.152344 L 14.175781 55.175781 L 11.597656 55.882812 C 10.546875 55.882812 9.640625 55.503906 8.878906 54.75 L 8.734375 54.609375 C 7.398438 53.285156 7.253906 51.535156 8.304688 49.363281 L 5.296875 48.085938 C 4.058594 47.613281 3.339844 46.8125 3.148438 45.675781 C 2.863281 44.449219 3.199219 43.410156 4.152344 42.558594 L 8.304688 38.445312 C 8.972656 37.785156 9.785156 37.453125 10.738281 37.453125 L 16.894531 37.453125 L 25.484375 27.957031 L 2.863281 21.292969 C 1.621094 20.914062 0.859375 20.113281 0.574219 18.882812 C 0.191406 17.652344 0.429688 16.566406 1.289062 15.621094 L 6.585938 10.09375 C 7.351562 9.335938 8.207031 8.960938 9.164062 8.960938 L 41.808594 10.660156 C 45.53125 6.972656 48.394531 4.46875 50.398438 3.148438 "/>
</g>
</svg>
