<?xml version="1.0" encoding="UTF-8"?>
<svg xmlns="http://www.w3.org/2000/svg" xmlns:xlink="http://www.w3.org/1999/xlink" width="64pt" height="66pt" viewBox="0 0 64 66" version="1.1">
<g id="surface1">
<path style=" stroke:#000000;stroke-width:3;stroke-opacity:0.5;fill-rule:nonzero;fill:rgb(100%,100%,100%);fill-opacity:1;" d="M 31.664062 20.5 C 30.773438 19.609375 29.710938 19.167969 28.480469 19.167969 C 27.253906 19.167969 26.191406 19.609375 25.300781 20.5 C 24.519531 21.277344 24.128906 22.277344 24.128906 23.5 C 24.128906 24.722656 24.519531 25.777344 25.300781 26.667969 C 26.191406 27.445312 27.253906 27.832031 28.480469 27.832031 C 29.710938 27.832031 30.773438 27.445312 31.664062 26.667969 C 32.445312 25.777344 32.835938 24.722656 32.835938 23.5 C 32.835938 22.277344 32.445312 21.277344 31.664062 20.5 M 62.820312 66 L 50.59375 66 L 55.449219 50.332031 C 57.796875 43.332031 60.253906 37.832031 62.820312 33.832031 L 62.820312 66 M 50.929688 44 C 47.132812 52.109375 44.117188 59.445312 41.882812 66 L 26.136719 66 C 35.964844 50.554688 45.847656 39.832031 55.785156 33.832031 L 50.929688 44 M 49.085938 33.832031 L 37.359375 43.167969 C 28.316406 50.945312 20.890625 58.554688 15.082031 66 L 0.0078125 66 L 0.0078125 59.667969 C 9.945312 51.667969 16.308594 46.832031 19.101562 45.167969 C 28.59375 39.167969 38.589844 35.390625 49.085938 33.832031 M 55.785156 24.667969 L 53.777344 25.5 L 52.9375 27.332031 C 52.9375 28.109375 53.21875 28.777344 53.777344 29.332031 C 54.335938 29.890625 55.003906 30.167969 55.785156 30.167969 L 57.628906 29.332031 L 58.464844 27.332031 L 57.628906 25.5 L 55.785156 24.667969 M 52.269531 30.832031 C 51.261719 29.832031 50.761719 28.667969 50.761719 27.332031 C 50.761719 26 51.261719 24.832031 52.269531 23.832031 C 53.273438 22.832031 54.445312 22.332031 55.785156 22.332031 C 57.125 22.332031 58.296875 22.832031 59.304688 23.832031 C 60.308594 24.832031 60.8125 26 60.8125 27.332031 C 60.8125 28.667969 60.308594 29.832031 59.304688 30.832031 C 58.296875 31.832031 57.125 32.332031 55.785156 32.332031 C 54.445312 32.332031 53.273438 31.832031 52.269531 30.832031 M 34.847656 17.167969 C 36.746094 18.945312 37.695312 21.054688 37.695312 23.5 C 37.695312 25.609375 37.023438 27.5 35.683594 29.167969 C 34.34375 30.832031 32.671875 31.890625 30.660156 32.332031 L 39.707031 33.332031 L 28.148438 37.167969 C 18.65625 40.722656 9.273438 45.054688 0.0078125 50.167969 L 0.0078125 36.332031 L 9.386719 33.332031 L 25.300781 32.167969 C 23.511719 31.5 22.117188 30.390625 21.113281 28.832031 C 19.882812 27.277344 19.269531 25.5 19.269531 23.5 C 19.269531 20.945312 20.164062 18.832031 21.949219 17.167969 C 23.738281 15.277344 25.914062 14.332031 28.480469 14.332031 C 31.050781 14.332031 33.171875 15.277344 34.847656 17.167969 M 38.867188 1.667969 L 33.171875 1.667969 L 33.171875 10.832031 L 41.378906 10.832031 L 38.867188 1.667969 M 55.449219 4.167969 L 57.796875 4.167969 L 57.796875 12.332031 L 61.3125 12.667969 L 63.992188 23.667969 L 62.820312 25.167969 L 62.320312 25.167969 L 59.804688 21.667969 C 58.578125 20.777344 57.238281 20.332031 55.785156 20.332031 C 54.222656 20.332031 52.828125 20.777344 51.597656 21.667969 C 50.371094 22.554688 49.53125 23.722656 49.085938 25.167969 L 39.539062 25.167969 L 39.707031 23.5 C 39.707031 20.390625 38.589844 17.777344 36.355469 15.667969 C 34.234375 13.445312 31.609375 12.332031 28.480469 12.332031 C 26.027344 12.332031 23.902344 13 22.117188 14.332031 L 22.117188 0 L 39.539062 0 L 44.226562 10.832031 L 55.449219 11.832031 L 55.449219 4.167969 "/>
</g>
</svg>
