<?xml version="1.0" encoding="UTF-8"?>
<svg xmlns="http://www.w3.org/2000/svg" xmlns:xlink="http://www.w3.org/1999/xlink" width="64pt" height="58pt" viewBox="0 0 64 58" version="1.1">
<g id="surface1">
<path style=" stroke:#000000;stroke-width:3;stroke-opacity:0.5;fill-rule:nonzero;fill:rgb(100%,100%,100%);fill-opacity:1;" d="M 22.105469 18.800781 L 29.761719 18.800781 L 29.761719 26.667969 L 22.105469 26.667969 L 22.105469 18.800781 M 11.414062 26.667969 L 11.414062 18.800781 L 19.214844 18.800781 L 19.214844 26.667969 L 11.414062 26.667969 M 43.773438 0 L 64 12.679688 L 59.089844 20.546875 L 59.089844 58 L 5.054688 58 L 5.054688 24.191406 L 0 16.757812 L 20.660156 3.789062 L 29.183594 9.179688 L 43.773438 0 M 57.644531 16.613281 L 59.378906 13.699219 L 43.773438 3.933594 L 29.039062 13.117188 L 20.660156 7.578125 L 4.765625 17.777344 L 6.5 20.546875 L 8.378906 19.382812 L 8.378906 54.648438 L 15.890625 54.648438 L 15.890625 39.929688 L 25.28125 39.929688 L 25.28125 54.648438 L 39.152344 54.648438 L 39.152344 39.929688 L 48.542969 39.929688 L 48.542969 54.648438 L 55.910156 54.648438 L 55.910156 15.449219 L 57.644531 16.613281 M 45.21875 26.667969 L 45.21875 18.800781 L 52.875 18.800781 L 52.875 26.667969 L 45.21875 26.667969 M 42.472656 26.667969 L 34.527344 26.667969 L 34.527344 18.800781 L 42.472656 18.800781 L 42.472656 26.667969 "/>
</g>
</svg>
