<?xml version="1.0" encoding="UTF-8"?>
<svg xmlns="http://www.w3.org/2000/svg" xmlns:xlink="http://www.w3.org/1999/xlink" width="64pt" height="78pt" viewBox="0 0 64 78" version="1.1">
<g id="surface1">
<path style=" stroke:none;fill-rule:nonzero;fill:rgb(100%,100%,100%);fill-opacity:1;" d="M 27.84375 26.003906 C 24.65625 27.519531 23.066406 29.992188 23.066406 33.429688 C 23.066406 36.867188 24.65625 39.414062 27.84375 41.0625 L 27.84375 26.003906 M 24.105469 22.085938 L 27.84375 20.644531 L 27.84375 11.363281 C 22.027344 12.597656 17.246094 15.417969 13.507812 19.816406 C 9.628906 24.082031 7.6875 29.238281 7.6875 35.289062 C 7.6875 41.0625 9.628906 46.148438 13.507812 50.550781 C 17.246094 55.089844 22.027344 57.769531 27.84375 58.59375 L 27.84375 50.136719 L 27.222656 51.167969 L 23.894531 49.933594 L 24.933594 45.804688 L 24.933594 45.601562 L 24.726562 45.394531 L 21.195312 42.710938 L 20.988281 42.507812 L 16.832031 44.363281 L 15.167969 41.476562 L 18.492188 39 L 18.703125 38.792969 L 18.492188 38.585938 L 17.664062 33.84375 L 17.664062 33.636719 L 17.453125 33.636719 L 13.507812 32.605469 L 13.921875 29.101562 L 18.285156 29.304688 L 18.285156 29.101562 L 20.570312 24.972656 L 20.777344 24.769531 L 20.570312 24.355469 L 18.285156 21.675781 L 20.988281 19.40625 L 24.105469 22.292969 L 24.105469 22.085938 M 40.933594 33.429688 C 40.933594 29.992188 39.34375 27.519531 36.15625 26.003906 L 36.15625 41.0625 C 39.34375 39.414062 40.933594 36.867188 40.933594 33.429688 M 43.011719 19.40625 L 45.714844 21.675781 L 43.429688 24.355469 L 43.222656 24.769531 L 43.429688 24.972656 L 45.714844 29.101562 L 45.714844 29.304688 L 45.921875 29.304688 L 50.078125 29.101562 L 50.492188 32.605469 L 46.546875 33.636719 L 46.335938 33.636719 L 46.335938 33.84375 L 45.296875 38.585938 L 45.296875 38.792969 L 45.507812 39 L 48.832031 41.476562 L 46.960938 44.363281 L 43.011719 42.507812 L 42.804688 42.710938 L 39.273438 45.394531 L 39.066406 45.601562 L 39.066406 45.804688 L 40.105469 49.933594 L 36.777344 51.167969 L 36.15625 50.136719 L 36.15625 58.59375 C 41.972656 57.769531 46.824219 55.089844 50.703125 50.550781 C 54.441406 46.148438 56.3125 41.0625 56.3125 35.289062 C 56.3125 29.238281 54.441406 24.082031 50.703125 19.816406 C 46.824219 15.417969 41.972656 12.597656 36.15625 11.363281 L 36.15625 20.644531 L 39.6875 22.085938 L 40.105469 22.292969 L 40.105469 22.085938 L 43.011719 19.40625 M 32.207031 0.015625 L 33.453125 2.699219 L 35.324219 7.441406 C 43.496094 8.40625 50.285156 12.050781 55.6875 18.375 C 61.230469 24.5625 64 31.988281 64 40.648438 C 64 49.039062 61.230469 56.464844 55.6875 62.925781 C 50.285156 69.113281 43.566406 72.6875 35.53125 73.652344 L 35.53125 74.683594 L 34.703125 77.15625 L 32.207031 77.984375 L 29.714844 77.15625 L 28.46875 74.683594 L 28.46875 73.652344 C 20.292969 72.6875 13.574219 69.113281 8.3125 62.925781 C 2.769531 56.464844 0 49.039062 0 40.648438 C 0 31.988281 2.839844 24.5625 8.519531 18.375 C 13.921875 12.050781 20.710938 8.40625 28.882812 7.441406 L 30.753906 2.699219 L 32.207031 0.015625 "/>
</g>
</svg>
