<?xml version="1.0" encoding="UTF-8"?>
<svg xmlns="http://www.w3.org/2000/svg" xmlns:xlink="http://www.w3.org/1999/xlink" width="64pt" height="64pt" viewBox="0 0 64 64" version="1.1">
<g id="surface1">
<path style=" stroke:#000000;stroke-width:3;stroke-opacity:0.5;fill-rule:nonzero;fill:rgb(100%,100%,100%);fill-opacity:1;" d="M 10.988281 30.546875 L 23.109375 30.546875 C 23.433594 28.605469 24.351562 26.988281 25.859375 25.695312 L 19.554688 15.03125 C 14.277344 18.910156 11.421875 24.082031 10.988281 30.546875 M 40.402344 50.910156 L 34.746094 41.210938 C 33.023438 41.75 31.191406 41.75 29.253906 41.210938 L 23.597656 50.910156 C 29.199219 53.386719 34.800781 53.386719 40.402344 50.910156 M 32 0 C 40.835938 0 48.378906 3.125 54.625 9.375 C 60.875 15.621094 64 23.164062 64 32 C 64 40.835938 60.875 48.324219 54.625 54.464844 C 48.378906 60.820312 40.835938 64 32 64 C 23.164062 64 15.621094 60.820312 9.375 54.464844 C 3.125 48.324219 0 40.835938 0 32 C 0 23.164062 3.125 15.621094 9.375 9.375 C 15.621094 3.125 23.164062 0 32 0 M 51.71875 12.28125 C 46.222656 6.894531 39.648438 4.203125 32 4.203125 C 24.351562 4.203125 17.777344 6.894531 12.28125 12.28125 C 6.894531 17.777344 4.203125 24.351562 4.203125 32 C 4.203125 39.648438 6.894531 46.167969 12.28125 51.554688 C 17.777344 57.050781 24.351562 59.796875 32 59.796875 C 39.648438 59.796875 46.222656 57.050781 51.71875 51.554688 C 57.105469 46.167969 59.796875 39.648438 59.796875 32 C 59.796875 24.351562 57.105469 17.777344 51.71875 12.28125 M 33.777344 30.707031 L 32 29.898438 L 30.222656 30.707031 L 29.414062 32.484375 L 30.222656 34.101562 L 32 34.910156 L 33.777344 34.101562 L 34.585938 32.484375 L 33.777344 30.707031 M 38.140625 25.695312 C 39.648438 26.988281 40.621094 28.605469 41.050781 30.546875 L 53.011719 30.546875 C 52.6875 24.082031 49.832031 18.910156 44.445312 15.03125 L 38.140625 25.695312 M 43.152344 9.535156 L 44.769531 10.503906 C 48.644531 12.769531 51.609375 15.785156 53.65625 19.554688 C 55.8125 23.328125 56.890625 27.367188 56.890625 31.675781 L 56.890625 34.425781 L 38.140625 34.425781 L 36.6875 36.847656 L 45.738281 52.523438 L 43.960938 53.496094 C 40.296875 55.542969 36.308594 56.566406 32 56.566406 C 27.691406 56.566406 23.703125 55.542969 20.039062 53.496094 L 18.261719 52.523438 L 27.3125 36.847656 L 26.019531 34.425781 L 7.273438 34.425781 L 7.109375 31.675781 C 7.109375 27.367188 8.242188 23.328125 10.503906 19.554688 C 12.660156 15.785156 15.570312 12.769531 19.230469 10.503906 L 21.011719 9.535156 L 30.707031 26.183594 L 32 26.019531 L 33.453125 26.183594 L 43.152344 9.535156 "/>
</g>
</svg>
