<?xml version="1.0" encoding="UTF-8"?>
<svg xmlns="http://www.w3.org/2000/svg" xmlns:xlink="http://www.w3.org/1999/xlink" width="64pt" height="59pt" viewBox="0 0 64 59" version="1.1">
<g id="surface1">
<path style=" stroke:none;fill-rule:nonzero;fill:rgb(100%,100%,100%);fill-opacity:1;" d="M 20.265625 26.449219 L 29.214844 26.449219 L 29.214844 17.292969 L 20.265625 17.292969 L 20.265625 26.449219 M 7.773438 17.292969 L 7.773438 26.449219 L 17.058594 26.449219 L 17.058594 17.292969 L 7.773438 17.292969 M 63.992188 11.359375 L 62.132812 14.75 L 59.941406 13.394531 L 59.941406 59 L 50.992188 59 L 50.992188 41.875 L 40.1875 41.875 L 40.1875 59 L 24.148438 59 L 24.148438 41.875 L 13.007812 41.875 L 13.007812 59 L 4.398438 59 L 4.398438 17.972656 L 2.203125 19.328125 L 0.0078125 16.105469 L 18.578125 4.238281 L 28.371094 10.679688 L 45.589844 0 L 63.992188 11.359375 M 47.277344 17.292969 L 47.277344 26.449219 L 56.394531 26.449219 L 56.394531 17.292969 L 47.277344 17.292969 M 43.902344 26.449219 L 43.902344 17.292969 L 34.785156 17.292969 L 34.785156 26.449219 L 43.902344 26.449219 "/>
</g>
</svg>
