<?xml version="1.0" encoding="UTF-8"?>
<svg xmlns="http://www.w3.org/2000/svg" xmlns:xlink="http://www.w3.org/1999/xlink" width="24pt" height="23pt" viewBox="0 0 24 23" version="1.1">
<g id="surface1">
<path style=" stroke:none;fill-rule:nonzero;fill:rgb(100%,100%,100%);fill-opacity:1;" d="M 21.625 1.773438 L 19.5625 4.5625 L 22.375 6.460938 L 21.5625 7.792969 L 18.5625 5.828125 L 17.75 6.90625 L 18.625 10.136719 L 19.6875 9.125 L 22.5 11.722656 L 21.8125 14.699219 L 20.25 14.699219 L 20.25 17.929688 L 21.8125 17.929688 L 21.8125 16.601562 L 24 16.601562 L 24 23 L 22 23 L 22 19.894531 L 20.375 19.894531 L 20.375 23 L 12.375 23 L 12.375 18.5 L 10.75 18.5 L 10.75 23 L 6.125 23 L 6.125 18.882812 L 3.5 18.882812 L 3.5 23 L 1.3125 23 L 1.3125 16.855469 L 0 16.855469 L 2.1875 14.828125 L 3.75 16.21875 L 5.5 15.269531 L 5 12.355469 L 7.25 10.328125 L 7.25 8.425781 L 5.9375 8.425781 L 8.3125 5.195312 L 8.0625 1.902344 L 4.25 2.976562 L 4.125 1.773438 L 9.0625 0 L 9.3125 3.800781 L 11.5625 0.761719 L 13.1875 2.976562 L 11.875 4.246094 L 12.25 6.335938 L 14.8125 9.1875 L 15.8125 9.503906 L 15.8125 12.734375 L 17.3125 11.339844 L 16.0625 6.589844 L 17.25 4.941406 L 16.3125 4.308594 L 17.125 2.976562 L 18.25 3.675781 L 20.4375 0.824219 L 21.625 1.773438 M 12.0625 10.136719 L 12.0625 15.714844 L 13.6875 15.714844 L 13.6875 10.136719 L 12.0625 10.136719 M 18.75 14.699219 L 17.125 14.699219 L 17.125 17.929688 L 18.75 17.929688 L 18.75 14.699219 M 9 10.136719 L 9 15.714844 L 10.625 15.714844 L 10.625 10.136719 L 9 10.136719 "/>
</g>
</svg>
