<?xml version="1.0" encoding="UTF-8"?>
<svg xmlns="http://www.w3.org/2000/svg" xmlns:xlink="http://www.w3.org/1999/xlink" width="64pt" height="67pt" viewBox="0 0 64 67" version="1.1">
<g id="surface1">
<path style=" stroke:none;fill-rule:nonzero;fill:rgb(100%,100%,100%);fill-opacity:1;" d="M 36.800781 34.832031 C 36.800781 36.253906 36.324219 37.4375 35.378906 38.386719 C 34.429688 39.453125 33.246094 39.988281 31.820312 39.988281 C 30.519531 39.988281 29.332031 39.453125 28.265625 38.386719 C 27.320312 37.4375 26.84375 36.253906 26.84375 34.832031 C 26.84375 33.53125 27.320312 32.402344 28.265625 31.457031 C 29.332031 30.507812 30.519531 30.035156 31.820312 30.035156 C 33.246094 30.035156 34.429688 30.507812 35.378906 31.457031 C 36.324219 32.402344 36.800781 33.53125 36.800781 34.832031 M 33.246094 57.226562 L 54.039062 36.253906 C 53.683594 35.425781 53.683594 34.535156 54.039062 33.589844 L 33.246094 12.796875 L 30.398438 12.796875 L 9.605469 33.589844 L 9.605469 36.253906 L 30.398438 57.226562 L 33.246094 57.226562 M 58.839844 30.035156 C 60.261719 30.035156 61.445312 30.507812 62.394531 31.457031 L 63.996094 34.832031 L 62.394531 38.386719 C 60.972656 39.808594 59.371094 40.222656 57.59375 39.632812 L 36.621094 60.601562 C 37.214844 62.496094 36.800781 64.15625 35.378906 65.578125 C 34.429688 66.527344 33.246094 67 31.820312 67 C 30.519531 67 29.332031 66.527344 28.265625 65.578125 C 26.964844 64.039062 26.609375 62.378906 27.199219 60.601562 L 6.226562 39.632812 C 4.332031 40.34375 2.671875 39.925781 1.25 38.386719 C 0.421875 37.4375 0.00390625 36.253906 0.00390625 34.832031 L 1.25 31.457031 L 3.382812 30.210938 C 3.621094 21.800781 6.40625 14.632812 11.738281 8.707031 C 17.1875 2.902344 23.644531 0 31.109375 0 C 38.578125 0 44.976562 2.902344 50.308594 8.707031 C 55.640625 14.515625 58.484375 21.621094 58.839844 30.035156 "/>
</g>
</svg>
