<?xml version="1.0" encoding="UTF-8"?>
<svg xmlns="http://www.w3.org/2000/svg" xmlns:xlink="http://www.w3.org/1999/xlink" width="64pt" height="64pt" viewBox="0 0 64 64" version="1.1">
<g id="surface1">
<path style=" stroke:#000000;stroke-width:3;stroke-opacity:0.5;fill-rule:nonzero;fill:rgb(100%,100%,100%);fill-opacity:1;" d="M 32.453125 52.890625 L 33.207031 60.378906 L 30.1875 60.378906 L 29.585938 52.890625 L 30.1875 45.703125 L 33.207031 45.703125 L 32.453125 52.890625 M 60.378906 31.925781 C 60.378906 24.238281 57.609375 17.597656 52.074219 12.007812 C 46.640625 6.414062 40.050781 3.621094 32.300781 3.621094 C 24.855469 3.621094 18.414062 6.066406 12.980469 10.957031 C 7.648438 15.75 4.578125 21.691406 3.773438 28.78125 L 11.019531 28.03125 L 18.414062 28.78125 L 18.414062 31.773438 L 11.019531 31.027344 L 3.621094 31.773438 L 3.621094 29.078125 L 3.472656 31.925781 C 3.472656 39.914062 6.289062 46.703125 11.925781 52.292969 C 17.460938 57.785156 24.25 60.53125 32.300781 60.53125 C 40.050781 60.53125 46.640625 57.785156 52.074219 52.292969 C 57.609375 46.703125 60.378906 39.914062 60.378906 31.925781 M 32.300781 0.0234375 C 40.957031 0.0234375 48.351562 3.171875 54.492188 9.460938 C 60.832031 15.652344 64 23.140625 64 31.925781 C 64 40.8125 60.832031 48.449219 54.492188 54.839844 C 48.351562 60.929688 40.957031 63.976562 32.300781 63.976562 C 23.445312 63.976562 15.898438 61.027344 9.660156 55.136719 C 3.523438 48.949219 0.300781 41.511719 0 32.824219 L 0.152344 28.78125 L 0.300781 28.332031 C 1.207031 20.34375 4.679688 13.652344 10.71875 8.261719 C 16.855469 2.769531 24.050781 0.0234375 32.300781 0.0234375 M 52.527344 30.578125 L 60.074219 29.976562 L 60.074219 32.972656 L 52.527344 33.574219 L 45.585938 32.972656 L 45.585938 29.976562 L 52.527344 30.578125 M 38.339844 26.085938 C 36.628906 24.488281 34.566406 23.6875 32.152344 23.6875 C 29.636719 23.6875 27.523438 24.488281 25.8125 26.085938 C 24.203125 27.78125 23.394531 29.777344 23.394531 32.074219 C 23.394531 34.472656 24.203125 36.566406 25.8125 38.363281 C 27.523438 40.0625 29.636719 40.910156 32.152344 40.910156 C 34.566406 40.910156 36.628906 40.0625 38.339844 38.363281 C 39.847656 36.566406 40.605469 34.472656 40.605469 32.074219 C 40.605469 29.777344 39.847656 27.78125 38.339844 26.085938 M 32.152344 20.242188 C 35.472656 20.242188 38.289062 21.441406 40.605469 23.835938 C 42.917969 26.035156 44.074219 28.78125 44.074219 32.074219 C 44.074219 35.570312 42.917969 38.464844 40.605469 40.761719 C 38.289062 43.15625 35.472656 44.355469 32.152344 44.355469 C 28.730469 44.355469 25.8125 43.15625 23.394531 40.761719 C 21.082031 38.464844 19.925781 35.570312 19.925781 32.074219 C 19.925781 28.78125 21.082031 26.035156 23.394531 23.835938 C 25.8125 21.441406 28.730469 20.242188 32.152344 20.242188 M 34.414062 4.519531 L 35.019531 11.855469 L 34.414062 19.195312 L 31.394531 19.195312 L 32 11.855469 L 31.394531 4.519531 L 34.414062 4.519531 "/>
</g>
</svg>
