<?xml version="1.0" encoding="UTF-8"?>
<svg xmlns="http://www.w3.org/2000/svg" xmlns:xlink="http://www.w3.org/1999/xlink" width="63pt" height="60pt" viewBox="0 0 63 60" version="1.1">
<g id="surface1">
<path style=" stroke:none;fill-rule:nonzero;fill:rgb(100%,100%,100%);fill-opacity:1;" d="M 32.210938 6.300781 L 32.210938 3.4375 L 30.789062 3.4375 L 30.789062 6.300781 L 29.371094 7.445312 L 28.804688 8.164062 L 28.804688 13.746094 L 26.820312 13.746094 L 26.820312 19.761719 L 25.257812 19.761719 L 25.257812 24.058594 L 6.253906 24.058594 L 6.253906 19.761719 L 3.414062 19.761719 L 3.414062 56.5625 L 59.585938 56.5625 L 59.585938 19.761719 L 56.890625 19.761719 L 56.890625 24.058594 L 37.742188 24.058594 L 37.742188 19.761719 L 36.324219 19.761719 L 36.324219 13.746094 L 34.335938 13.746094 L 34.335938 8.164062 L 32.210938 6.300781 M 37.171875 6.445312 L 37.742188 8.164062 L 37.742188 10.597656 C 39.066406 11.167969 39.726562 12.21875 39.726562 13.746094 L 39.726562 16.898438 C 40.671875 17.566406 41.144531 18.519531 41.144531 19.761719 L 41.144531 20.621094 L 53.484375 20.621094 L 53.484375 19.761719 C 53.484375 18.902344 53.816406 18.089844 54.476562 17.328125 C 55.140625 16.660156 55.945312 16.324219 56.890625 16.324219 L 59.585938 16.324219 L 61.996094 17.328125 L 62.988281 19.761719 L 62.988281 56.5625 L 61.996094 58.996094 L 59.585938 60 L 3.414062 60 L 1.003906 58.996094 L 0.0117188 56.5625 L 0.0117188 19.761719 L 1.003906 17.328125 L 3.414062 16.324219 L 6.253906 16.324219 C 7.199219 16.324219 8 16.660156 8.664062 17.328125 C 9.324219 18.089844 9.65625 18.902344 9.65625 19.761719 L 9.65625 20.621094 L 21.855469 20.621094 L 21.855469 19.761719 C 21.855469 18.519531 22.375 17.566406 23.414062 16.898438 L 23.414062 13.746094 C 23.414062 12.21875 24.078125 11.167969 25.402344 10.597656 L 25.402344 8.164062 L 25.828125 6.445312 L 27.386719 4.582031 L 27.386719 3.4375 L 28.378906 1.003906 C 29.042969 0.335938 29.84375 0 30.789062 0 L 32.210938 0 L 34.761719 1.003906 L 35.613281 3.4375 L 35.613281 4.582031 L 37.171875 6.445312 "/>
</g>
</svg>
