<?xml version="1.0" encoding="UTF-8"?>
<svg xmlns="http://www.w3.org/2000/svg" xmlns:xlink="http://www.w3.org/1999/xlink" width="64pt" height="101pt" viewBox="0 0 64 101" version="1.1">
<g id="surface1">
<path style=" stroke:#000000;stroke-width:3;stroke-opacity:0.5;fill-rule:nonzero;fill:rgb(100%,100%,100%);fill-opacity:1;" d="M 47.144531 46.40625 L 47.144531 30.03125 L 31.660156 5.464844 L 16.855469 30.257812 L 16.855469 46.40625 L 12.980469 51.636719 L 12.980469 92.351562 L 5.464844 92.351562 L 5.464844 95.535156 L 58.535156 95.535156 L 58.535156 92.351562 L 50.789062 92.351562 L 50.789062 51.636719 L 47.144531 46.40625 M 51.929688 27.300781 L 52.613281 30.03125 L 52.613281 44.585938 L 55.34375 48.453125 L 56.257812 51.863281 L 56.257812 86.890625 L 58.535156 86.890625 C 60.050781 86.890625 61.34375 87.421875 62.40625 88.484375 C 63.46875 89.546875 64 90.835938 64 92.351562 L 64 95.535156 C 64 97.050781 63.46875 98.265625 62.40625 99.175781 C 61.34375 100.386719 60.050781 100.996094 58.535156 100.996094 L 5.464844 100.996094 C 3.949219 100.996094 2.65625 100.386719 1.59375 99.175781 C 0.53125 98.265625 0 97.050781 0 95.535156 L 0 92.351562 C 0 90.835938 0.53125 89.546875 1.59375 88.484375 C 2.65625 87.421875 3.949219 86.890625 5.464844 86.890625 L 7.515625 86.890625 L 7.515625 51.636719 L 8.882812 48.226562 L 11.386719 44.585938 L 11.386719 30.257812 L 12.070312 27.527344 L 27.101562 2.507812 C 28.167969 0.839844 29.683594 0.00390625 31.660156 0.00390625 C 33.785156 0.00390625 35.378906 0.839844 36.441406 2.507812 L 51.929688 27.300781 "/>
</g>
</svg>
