<?xml version="1.0" encoding="UTF-8"?>
<svg xmlns="http://www.w3.org/2000/svg" xmlns:xlink="http://www.w3.org/1999/xlink" width="63pt" height="61pt" viewBox="0 0 63 61" version="1.1">
<g id="surface1">
<path style=" stroke:none;fill-rule:nonzero;fill:rgb(100%,100%,100%);fill-opacity:1;" d="M 22.964844 14.117188 L 19.339844 14.117188 L 19.339844 21.3125 L 22.964844 21.3125 L 22.964844 14.117188 M 29.007812 14.117188 L 25.835938 14.117188 L 25.835938 21.3125 L 29.007812 21.3125 L 29.007812 14.117188 M 16.316406 14.117188 L 12.992188 14.117188 L 12.992188 21.3125 L 16.316406 21.3125 L 16.316406 14.117188 M 51.820312 48.414062 L 50.914062 48.414062 L 44.417969 48.871094 C 42 49.484375 40.792969 50.8125 40.792969 52.851562 C 40.792969 55.710938 44.164062 56.78125 50.914062 56.066406 C 55.546875 55.558594 57.863281 54.28125 57.863281 52.238281 L 56.65625 49.945312 C 55.847656 49.332031 54.792969 48.871094 53.480469 48.566406 L 53.480469 53.003906 L 51.820312 53.003906 L 51.820312 48.414062 M 36.257812 5.699219 L 53.480469 0.03125 L 53.480469 45.65625 C 56.605469 46.269531 58.820312 47.136719 60.128906 48.257812 C 62.042969 49.894531 62.246094 52.136719 60.734375 54.996094 C 60.027344 56.324219 58.164062 57.546875 55.144531 58.671875 L 45.171875 60.507812 C 38.625 60.8125 33.1875 60.761719 28.855469 60.355469 C 23.417969 59.84375 18.128906 58.621094 12.992188 56.679688 C 7.050781 54.535156 3.476562 51.730469 2.265625 48.257812 C 0.753906 43.972656 3.929688 40.246094 11.785156 37.082031 C 19.238281 34.019531 26.488281 33.714844 33.539062 36.164062 C 37.566406 37.695312 40.890625 39.738281 43.511719 42.289062 L 45.171875 43.511719 C 46.480469 44.433594 47.890625 44.992188 49.402344 45.199219 L 51.820312 45.351562 L 51.820312 11.054688 L 36.257812 5.699219 M 34.445312 13.351562 L 34.445312 14.117188 L 31.726562 14.117188 L 31.726562 21.3125 L 33.839844 21.3125 L 33.839844 26.367188 L 21.300781 24.683594 L 8.160156 26.214844 L 8.160156 21.3125 L 10.273438 21.3125 L 10.273438 14.117188 L 7.554688 14.117188 L 7.554688 13.351562 L 6.648438 13.351562 L 6.648438 12.28125 L 21 6.308594 L 35.351562 12.28125 L 35.351562 13.351562 L 34.445312 13.351562 "/>
</g>
</svg>
