<?xml version="1.0" encoding="UTF-8"?>
<svg xmlns="http://www.w3.org/2000/svg" xmlns:xlink="http://www.w3.org/1999/xlink" width="64pt" height="46pt" viewBox="0 0 64 46" version="1.1">
<g id="surface1">
<path style=" stroke:#000000;stroke-width:3;stroke-opacity:0.5;fill-rule:nonzero;fill:rgb(100%,100%,100%);fill-opacity:1;" d="M 50.585938 39.292969 L 48.96875 40.109375 L 48.324219 40.925781 L 48.160156 41.414062 C 46.4375 44.453125 44.011719 45.976562 40.890625 45.976562 C 39.703125 45.976562 38.464844 45.539062 37.171875 44.671875 L 33.9375 41.738281 L 31.191406 39.292969 C 30.328125 39.292969 29.574219 39.835938 28.929688 40.925781 L 28.769531 41.414062 C 27.152344 44.453125 24.78125 45.976562 21.65625 45.976562 C 20.363281 45.976562 19.070312 45.539062 17.777344 44.671875 L 14.707031 41.738281 L 11.960938 39.292969 C 10.988281 39.292969 10.234375 39.835938 9.695312 40.925781 L 9.375 41.414062 L 7.109375 44.183594 C 5.710938 45.378906 4.09375 45.976562 2.261719 45.976562 L 0 45.976562 L 0 40.597656 L 2.261719 40.597656 L 4.203125 38.96875 L 4.6875 37.992188 C 6.410156 35.273438 8.835938 33.917969 11.960938 33.917969 C 13.359375 33.917969 14.707031 34.351562 16 35.222656 L 19.230469 38.152344 L 21.816406 40.433594 L 23.433594 38.804688 L 23.917969 38.152344 C 25.644531 35.328125 28.121094 33.917969 31.355469 33.917969 L 35.230469 35.222656 L 38.464844 38.152344 L 41.050781 40.433594 L 42.828125 38.96875 L 43.3125 38.152344 C 44.929688 35.328125 47.355469 33.917969 50.585938 33.917969 L 54.625 35.222656 L 57.859375 38.152344 L 60.445312 40.597656 L 62.546875 40.597656 L 62.546875 45.976562 L 60.28125 45.976562 C 58.988281 45.976562 57.695312 45.539062 56.402344 44.671875 L 53.171875 41.738281 L 50.585938 39.292969 M 50.585938 21.371094 L 54.625 22.675781 L 57.859375 25.769531 L 60.445312 28.050781 L 62.546875 28.050781 L 62.546875 33.429688 L 60.28125 33.429688 C 58.34375 33.429688 55.972656 32.015625 53.171875 29.191406 L 50.585938 26.746094 C 50.046875 26.746094 49.507812 27.074219 48.96875 27.726562 L 48.324219 28.539062 L 48.160156 29.027344 C 46.328125 31.960938 43.90625 33.429688 40.890625 33.429688 C 38.949219 33.429688 36.632812 32.015625 33.9375 29.191406 L 31.191406 26.746094 C 30.328125 26.746094 29.574219 27.34375 28.929688 28.539062 L 28.769531 29.027344 C 26.9375 31.960938 24.566406 33.429688 21.65625 33.429688 C 20.363281 33.429688 19.070312 32.992188 17.777344 32.125 L 14.707031 29.191406 L 11.960938 26.746094 C 10.988281 26.746094 10.234375 27.34375 9.695312 28.539062 L 9.375 29.027344 C 7.867188 31.960938 5.496094 33.429688 2.261719 33.429688 L 0 33.429688 L 0 28.050781 L 2.261719 28.050781 C 3.015625 28.050781 3.664062 27.507812 4.203125 26.421875 L 4.6875 25.605469 C 6.519531 22.78125 8.941406 21.371094 11.960938 21.371094 C 13.359375 21.371094 14.707031 21.804688 16 22.675781 L 19.230469 25.769531 L 21.816406 28.050781 L 23.433594 26.421875 L 23.917969 25.605469 C 25.644531 22.78125 28.121094 21.371094 31.355469 21.371094 L 35.230469 22.675781 L 38.464844 25.769531 L 41.050781 28.050781 L 42.828125 26.421875 L 43.3125 25.605469 C 45.035156 22.78125 47.460938 21.371094 50.585938 21.371094 M 42.183594 5.074219 L 42.183594 21.859375 L 40.566406 23.652344 L 37.980469 21.207031 L 37.171875 20.394531 L 37.171875 5.074219 L 27.3125 5.074219 L 27.3125 17.621094 L 23.273438 21.207031 L 22.949219 21.859375 L 22.140625 22.835938 L 22.140625 5.074219 L 12.28125 5.074219 L 12.28125 16.972656 L 11.3125 16.808594 L 7.273438 17.949219 L 7.273438 5.074219 L 1.292969 5.074219 L 1.292969 0.0234375 L 64 0.0234375 L 64 5.074219 L 57.050781 5.074219 L 57.050781 21.042969 L 52.039062 17.296875 L 52.039062 5.074219 L 42.183594 5.074219 "/>
</g>
</svg>
