<?xml version="1.0" encoding="UTF-8"?>
<svg xmlns="http://www.w3.org/2000/svg" xmlns:xlink="http://www.w3.org/1999/xlink" width="64pt" height="64pt" viewBox="0 0 64 64" version="1.1">
<g id="surface1">
<path style=" stroke:#000000;stroke-width:3;stroke-opacity:0.5;fill-rule:nonzero;fill:rgb(100%,100%,100%);fill-opacity:1;" d="M 42.546875 16.984375 L 42.546875 55.417969 L 49.878906 55.417969 L 49.878906 16.984375 L 42.546875 16.984375 M 64 15.195312 L 61.855469 15.195312 L 61.855469 16.984375 L 55.957031 16.984375 L 55.957031 55.417969 L 60.601562 55.417969 L 60.601562 58.457031 L 61.855469 58.457031 L 61.855469 61.320312 L 64 61.320312 L 64 64 L 0 64 L 0 61.320312 L 1.789062 61.320312 L 1.789062 58.457031 L 3.21875 58.457031 L 3.21875 55.417969 L 8.042969 55.417969 L 8.042969 16.984375 L 1.789062 16.984375 L 1.789062 15.195312 L 0 15.195312 L 0 12.871094 L 31.820312 0 L 64 12.871094 L 64 15.195312 M 36.113281 16.984375 L 28.066406 16.984375 L 28.066406 55.417969 L 36.113281 55.417969 L 36.113281 16.984375 M 13.945312 16.984375 L 13.945312 55.417969 L 21.453125 55.417969 L 21.453125 16.984375 L 13.945312 16.984375 "/>
</g>
</svg>
