<?xml version="1.0" encoding="UTF-8"?>
<svg xmlns="http://www.w3.org/2000/svg" xmlns:xlink="http://www.w3.org/1999/xlink" width="64pt" height="64pt" viewBox="0 0 64 64" version="1.1">
<g id="surface1">
<path style=" stroke:none;fill-rule:nonzero;fill:rgb(100%,100%,100%);fill-opacity:1;" d="M 35.808594 26.441406 L 47.382812 26.589844 L 38.246094 33.351562 L 41.597656 44.46875 L 32 37.859375 L 22.554688 44.46875 L 25.753906 33.351562 L 16.464844 26.589844 L 28.191406 26.441406 L 32 15.472656 L 35.808594 26.441406 M 51.496094 4.207031 L 53.933594 0 L 63.988281 12.167969 L 61.703125 14.273438 L 58.65625 18.027344 C 56.726562 21.132812 55.761719 24.339844 55.761719 27.644531 C 55.761719 30.746094 56.421875 33.402344 57.742188 35.605469 C 58.453125 37.007812 59.113281 37.808594 59.722656 38.007812 L 61.550781 39.363281 L 61.09375 41.613281 L 58.65625 47.023438 C 56.320312 50.828125 52.816406 54.035156 48.144531 56.636719 C 43.371094 59.742188 38.347656 62.148438 33.066406 63.851562 L 32.914062 63.851562 L 32.457031 64 L 32 64 L 25.601562 61.898438 L 15.703125 56.636719 C 11.335938 54.035156 7.933594 50.828125 5.496094 47.023438 L 3.058594 41.613281 L 2.601562 39.363281 L 4.429688 38.160156 L 6.410156 35.605469 C 7.628906 33.402344 8.238281 30.746094 8.238281 27.644531 C 8.238281 24.339844 7.324219 21.132812 5.496094 18.027344 L 2.449219 14.273438 L 0.0117188 12.167969 L 10.21875 0 L 12.351562 4.355469 L 14.332031 6.609375 C 16.058594 7.914062 18.191406 8.5625 20.730469 8.5625 C 23.773438 8.5625 26.871094 7.460938 30.019531 5.257812 L 32 4.054688 L 33.828125 5.257812 L 36.875 7.0625 C 39.3125 8.0625 41.445312 8.5625 43.269531 8.5625 C 47.027344 8.5625 49.769531 7.109375 51.496094 4.207031 M 54.390625 6.007812 L 51.800781 9.015625 C 49.363281 10.917969 46.519531 11.867188 43.269531 11.867188 C 41.039062 11.867188 38.449219 11.269531 35.503906 10.066406 L 32 8.113281 L 28.496094 10.066406 L 20.730469 11.867188 C 17.277344 11.867188 14.382812 10.917969 12.046875 9.015625 L 9.609375 6.007812 L 4.734375 11.867188 L 8.238281 16.226562 C 10.574219 19.832031 11.742188 23.636719 11.742188 27.644531 C 11.742188 31.648438 10.878906 35.054688 9.152344 37.859375 L 6.410156 41.015625 L 8.390625 45.371094 C 10.523438 48.675781 13.519531 51.53125 17.378906 53.933594 L 27.277344 58.890625 L 32 60.695312 C 36.976562 59.09375 41.800781 56.839844 46.46875 53.933594 C 50.429688 51.53125 53.527344 48.675781 55.761719 45.371094 L 57.742188 41.015625 L 55.152344 37.859375 C 53.222656 35.054688 52.257812 31.648438 52.257812 27.644531 C 52.257812 23.636719 53.476562 19.832031 55.914062 16.226562 L 59.417969 11.867188 L 54.390625 6.007812 "/>
</g>
</svg>
