<?xml version="1.0" encoding="UTF-8"?>
<svg xmlns="http://www.w3.org/2000/svg" xmlns:xlink="http://www.w3.org/1999/xlink" width="64pt" height="64pt" viewBox="0 0 64 64" version="1.1">
<g id="surface1">
<path style=" stroke:#000000;stroke-width:3;stroke-opacity:0.5;fill-rule:nonzero;fill:rgb(100%,100%,100%);fill-opacity:1;" d="M 58.324219 18.601562 L 58.324219 17.183594 L 60.214844 17.183594 L 60.214844 15.132812 L 31.84375 3.785156 L 3.785156 15.132812 L 3.785156 17.183594 L 5.359375 17.183594 L 5.359375 18.601562 L 10.875 18.601562 L 10.875 52.492188 L 6.621094 52.492188 L 6.621094 55.328125 L 5.359375 55.328125 L 5.359375 57.851562 L 3.785156 57.851562 L 3.785156 60.214844 L 60.214844 60.214844 L 60.214844 57.851562 L 58.324219 57.851562 L 58.324219 55.328125 L 57.222656 55.328125 L 57.222656 52.492188 L 53.125 52.492188 L 53.125 18.601562 L 58.324219 18.601562 M 33.261719 0.15625 L 61.636719 11.664062 C 63.210938 12.296875 64 13.453125 64 15.132812 L 64 17.183594 C 64 18.863281 63.210938 20.019531 61.636719 20.648438 C 60.898438 21.804688 59.796875 22.382812 58.324219 22.382812 L 56.90625 22.382812 L 56.90625 48.710938 L 57.222656 48.710938 C 58.167969 48.710938 59.007812 49.078125 59.742188 49.8125 L 61.003906 52.492188 L 62.109375 54.542969 C 63.371094 55.382812 64 56.484375 64 57.851562 L 64 60.214844 L 62.898438 62.898438 L 60.214844 64 L 3.785156 64 L 1.101562 62.898438 L 0 60.214844 L 0 57.851562 C 0 56.484375 0.527344 55.433594 1.578125 54.699219 L 2.835938 52.492188 C 2.835938 51.441406 3.207031 50.546875 3.941406 49.8125 C 4.675781 49.078125 5.570312 48.710938 6.621094 48.710938 L 7.09375 48.710938 L 7.09375 22.382812 L 5.359375 22.382812 C 3.992188 22.382812 2.890625 21.753906 2.050781 20.492188 C 0.683594 19.863281 0 18.757812 0 17.183594 L 0 15.132812 C 0 13.453125 0.789062 12.296875 2.363281 11.664062 L 30.421875 0.15625 L 31.84375 0 L 33.261719 0.15625 "/>
</g>
</svg>
