<?xml version="1.0" encoding="UTF-8"?>
<svg xmlns="http://www.w3.org/2000/svg" xmlns:xlink="http://www.w3.org/1999/xlink" width="64pt" height="82pt" viewBox="0 0 64 82" version="1.1">
<g id="surface1">
<path style=" stroke:none;fill-rule:nonzero;fill:rgb(100%,100%,100%);fill-opacity:1;" d="M 32.277344 62.421875 L 34.875 61.683594 L 36.171875 62.054688 L 45.257812 62.054688 L 45.257812 68.703125 L 35.617188 68.703125 L 33.945312 69.8125 L 33.945312 69.625 L 32.648438 68.148438 L 33.390625 66.117188 L 34.875 66.671875 L 43.03125 66.671875 L 43.03125 64.085938 L 34.503906 64.085938 L 27.273438 65.5625 C 27.519531 65.316406 27.828125 63.59375 28.199219 60.390625 C 28.570312 60.636719 28.816406 61.5 28.941406 62.976562 L 29.867188 63.347656 L 32.277344 62.421875 M 32.464844 38.046875 C 32.957031 38.046875 33.207031 38.722656 33.207031 40.078125 L 33.945312 42.292969 C 34.195312 43.769531 33.761719 45 32.648438 45.988281 C 30.425781 47.957031 27.273438 48.941406 23.191406 48.941406 L 22.820312 48.941406 C 21.214844 48.816406 19.546875 48.140625 17.816406 46.910156 L 17.628906 46.726562 L 15.589844 43.953125 C 15.21875 42.601562 15.464844 41.371094 16.332031 40.261719 L 17.816406 38.785156 L 17.257812 38.785156 L 16.703125 38.96875 L 15.21875 39.152344 C 14.230469 39.152344 14.105469 38.90625 14.847656 38.414062 L 17.074219 37.304688 L 19.296875 36.566406 L 20.78125 36.9375 L 23.75 37.304688 L 32.277344 38.046875 L 32.464844 38.046875 M 37.65625 4.617188 L 35.429688 4.433594 L 28.382812 5.355469 L 25.417969 6.277344 C 21.460938 8.125 18.371094 10.589844 16.144531 13.667969 L 13.179688 19.023438 L 10.953125 26.410156 L 10.398438 31.027344 L 10.398438 37.859375 L 11.511719 45.617188 L 15.402344 58.175781 L 18.742188 63.53125 C 20.226562 65.625 21.152344 67.410156 21.523438 68.886719 C 22.140625 71.105469 23.378906 73.136719 25.230469 74.980469 L 28.382812 77.382812 L 35.058594 77.566406 L 35.617188 77.566406 L 37.285156 74.429688 L 37.65625 77.566406 L 46.183594 77.382812 L 47.855469 75.722656 L 49.152344 70.734375 C 49.277344 68.886719 50.265625 66.054688 52.121094 62.238281 C 53.851562 58.667969 55.332031 56.265625 56.570312 55.035156 C 57.433594 54.296875 57.683594 52.328125 57.3125 49.125 L 57.125 48.570312 L 56.199219 48.570312 C 54.714844 50.050781 52.921875 50.789062 50.820312 50.789062 C 48.84375 50.789062 47.113281 50.171875 45.628906 48.941406 L 43.402344 59.46875 L 36.171875 59.46875 L 34.503906 58.546875 L 33.019531 57.804688 L 31.722656 58.359375 L 30.054688 57.4375 L 30.425781 55.773438 L 31.535156 55.035156 L 31.722656 55.222656 C 30.980469 55.835938 30.792969 56.574219 31.164062 57.4375 C 31.414062 56.945312 31.90625 56.699219 32.648438 56.699219 L 33.390625 56.699219 C 34.257812 57.804688 35.492188 58.359375 37.097656 58.359375 L 39.511719 57.066406 L 39.511719 43.402344 C 39.511719 39.707031 41.550781 37.367188 45.628906 36.382812 L 56.199219 35.828125 L 59.351562 35.828125 L 59.164062 28.441406 C 58.546875 24.132812 57.3125 20.375 55.457031 17.175781 C 53.601562 13.726562 49.894531 11.390625 44.332031 10.15625 L 44.515625 29.917969 L 43.402344 32.875 C 42.539062 33.613281 41.613281 33.980469 40.621094 33.980469 L 37.46875 33.980469 L 37.65625 4.617188 M 59.351562 15.144531 L 60.648438 17.546875 C 62.132812 20.746094 63.121094 24.195312 63.617188 27.886719 L 63.988281 32.136719 L 63.988281 34.535156 L 63.429688 37.492188 C 62.9375 38.84375 62.007812 39.769531 60.648438 40.261719 L 58.980469 40.261719 L 59.351562 42.292969 L 58.980469 44.695312 L 60.648438 45.988281 L 61.019531 46.355469 L 61.761719 48.570312 L 61.761719 48.941406 L 61.945312 53.558594 L 60.648438 57.066406 L 59.535156 58.359375 C 58.671875 59.097656 57.496094 61.070312 56.011719 64.269531 C 54.40625 67.472656 53.601562 69.6875 53.601562 70.917969 C 53.480469 73.996094 52.738281 76.644531 51.378906 78.859375 C 50.019531 80.832031 48.347656 81.816406 46.371094 81.816406 L 37.65625 82 L 36.726562 81.816406 L 35.617188 82 L 35.058594 82 L 27.273438 81.628906 L 21.523438 77.753906 C 19.421875 75.289062 18 72.703125 17.257812 69.996094 L 14.476562 65.195312 L 11.324219 60.207031 L 11.140625 59.652344 L 9.46875 59.652344 L 6.6875 58.914062 L 5.019531 56.699219 L 3.90625 55.035156 C 1.804688 52.941406 0.507812 49.925781 0.0117188 45.988281 L 0.0117188 38.597656 C 0.261719 37.246094 1.003906 36.136719 2.238281 35.273438 L 2.421875 35.273438 L 5.945312 33.980469 L 6.503906 25.671875 L 8.914062 17.175781 L 12.621094 10.894531 C 15.34375 7.203125 19.050781 4.371094 23.75 2.402344 L 23.75 2.214844 L 27.273438 1.109375 L 35.429688 0 L 35.988281 0.183594 L 37.65625 0.183594 C 38.890625 0.183594 39.878906 0.617188 40.621094 1.476562 C 41.613281 2.339844 42.105469 3.386719 42.105469 4.617188 L 42.105469 6.464844 L 44.332031 5.726562 L 45.445312 5.910156 C 52.242188 7.386719 56.878906 10.464844 59.351562 15.144531 "/>
</g>
</svg>
