<?xml version="1.0" encoding="UTF-8"?>
<svg xmlns="http://www.w3.org/2000/svg" xmlns:xlink="http://www.w3.org/1999/xlink" width="64pt" height="64pt" viewBox="0 0 64 64" version="1.1">
<g id="surface1">
<path style=" stroke:none;fill-rule:nonzero;fill:rgb(100%,100%,100%);fill-opacity:1;" d="M 39.832031 50.332031 C 39.832031 49.777344 39.109375 49.5 37.667969 49.5 C 36.445312 49.5 35.832031 49.777344 35.832031 50.332031 L 35.832031 56.5 L 39.832031 56.5 L 39.832031 50.332031 M 37.667969 40 C 36.445312 40 35.832031 40.277344 35.832031 40.832031 L 35.832031 46.832031 L 39.832031 46.832031 L 39.832031 40.832031 C 39.832031 40.277344 39.109375 40 37.667969 40 M 47.667969 36 L 48.667969 35.5 L 49.5 34.167969 L 48.667969 33 L 47.667969 32.332031 C 47.109375 32.332031 46.667969 32.554688 46.332031 33 L 46 34.167969 L 46.332031 35.5 L 47.667969 36 M 52.167969 46.832031 L 52.167969 40.832031 C 52.167969 40.277344 51.554688 40 50.332031 40 C 48.890625 40 48.167969 40.277344 48.167969 40.832031 L 48.167969 46.832031 L 52.167969 46.832031 M 52.167969 50.332031 C 52.167969 49.777344 51.554688 49.5 50.332031 49.5 C 48.890625 49.5 48.167969 49.777344 48.167969 50.332031 L 48.167969 56.5 L 52.167969 56.5 L 52.167969 50.332031 M 14.832031 50.332031 C 14.832031 49.777344 14.167969 49.5 12.832031 49.5 C 11.5 49.5 10.832031 49.777344 10.832031 50.332031 L 10.832031 56.5 L 14.832031 56.5 L 14.832031 50.332031 M 12.832031 40 C 11.5 40 10.832031 40.277344 10.832031 40.832031 L 10.832031 46.832031 L 14.832031 46.832031 L 14.832031 40.832031 C 14.832031 40.277344 14.167969 40 12.832031 40 M 27.5 50.332031 C 27.5 49.777344 26.777344 49.5 25.332031 49.5 C 24 49.5 23.332031 49.777344 23.332031 50.332031 L 23.332031 56.5 L 27.5 56.5 L 27.5 50.332031 M 17.5 33 L 16.167969 32.332031 L 14.832031 33 L 14.5 34.167969 L 14.832031 35.5 L 16.167969 36 L 17.5 35.5 L 18 34.167969 C 18 33.609375 17.832031 33.222656 17.5 33 M 27.5 40.832031 C 27.5 40.277344 26.777344 40 25.332031 40 C 24 40 23.332031 40.277344 23.332031 40.832031 L 23.332031 46.832031 L 27.5 46.832031 L 27.5 40.832031 M 28.167969 33 L 26.332031 36.5 L 36.5 36.5 L 34.667969 33 C 33.777344 32.109375 32.722656 31.667969 31.5 31.667969 C 30.390625 31.667969 29.277344 32.109375 28.167969 33 M 33.667969 20.167969 L 33.667969 14.332031 C 33.667969 13.222656 33 12.667969 31.667969 12.667969 C 30.445312 12.667969 29.832031 13.222656 29.832031 14.332031 L 29.832031 20.167969 L 33.667969 20.167969 M 32.832031 7.332031 C 35.277344 7.445312 37.167969 8.5 38.5 10.5 L 39.332031 13.5 L 39.332031 21 L 42.167969 21.832031 L 42.167969 26.832031 L 44.667969 28.5 L 52.667969 28.5 L 52.667969 33 L 60 37.332031 L 55.667969 37.332031 L 55.667969 60.5 L 64 60.5 L 64 64 L 0 64 L 0 60.5 L 7.5 60.5 L 7.5 37.332031 L 3.832031 37.332031 L 10.832031 33.332031 L 10.832031 28.5 L 18.832031 28.5 L 22 26.832031 L 22 21.832031 L 25 21 L 25 13.5 L 25.832031 10.5 C 26.945312 8.5 28.832031 7.445312 31.5 7.332031 L 31.5 0 L 32.832031 0 L 32.832031 7.332031 "/>
</g>
</svg>
