<?xml version="1.0" encoding="UTF-8"?>
<svg xmlns="http://www.w3.org/2000/svg" xmlns:xlink="http://www.w3.org/1999/xlink" width="64pt" height="64pt" viewBox="0 0 64 64" version="1.1">
<g id="surface1">
<path style=" stroke:#000000;stroke-width:3;stroke-opacity:0.5;fill-rule:nonzero;fill:rgb(100%,100%,100%);fill-opacity:1;" d="M 63.203125 0.957031 C 63.734375 1.703125 61.605469 5.53125 56.816406 12.449219 C 51.710938 19.789062 46.976562 25.429688 42.613281 29.367188 L 35.910156 35.113281 C 29.101562 41.601562 27.132812 48.253906 30.003906 55.0625 L 32.398438 52.828125 L 37.984375 49.476562 C 37.027344 52.242188 35.058594 55.117188 32.078125 58.09375 C 28.996094 61.285156 26.121094 63.203125 23.460938 63.839844 L 23.140625 64 L 23.140625 63.839844 C 23.566406 62.351562 25.21875 59.957031 28.089844 56.660156 L 22.503906 44.050781 L 20.429688 44.210938 L 19.789062 43.730469 L 19.632812 42.292969 L 19.949219 41.65625 L 7.339844 35.910156 C 4.042969 38.890625 1.597656 40.59375 0 41.015625 C 0.746094 38.25 2.714844 35.273438 5.90625 32.078125 C 8.992188 29.207031 11.863281 27.238281 14.523438 26.175781 C 13.777344 27.984375 12.714844 29.84375 11.332031 31.761719 L 9.097656 34.15625 C 15.695312 37.027344 22.34375 35.058594 29.046875 28.25 L 34.632812 21.546875 C 38.570312 17.183594 44.210938 12.449219 51.550781 7.339844 C 58.574219 2.445312 62.457031 0.320312 63.203125 0.957031 "/>
</g>
</svg>
