<?xml version="1.0" encoding="UTF-8"?>
<svg xmlns="http://www.w3.org/2000/svg" xmlns:xlink="http://www.w3.org/1999/xlink" width="64pt" height="63pt" viewBox="0 0 64 63" version="1.1">
<g id="surface1">
<path style=" stroke:#000000;stroke-width:3;stroke-opacity:0.5;fill-rule:nonzero;fill:rgb(100%,100%,100%);fill-opacity:1;" d="M 29.058594 54.527344 L 29.730469 62.8125 L 33.09375 62.8125 L 32.421875 54.527344 L 33.09375 46.578125 L 29.730469 46.578125 L 29.058594 54.527344 M 34.4375 17.25 L 35.109375 9.132812 L 34.4375 1.015625 L 31.074219 1.015625 L 31.914062 9.132812 L 31.242188 17.25 L 34.4375 17.25 M 55.265625 29.84375 L 47.203125 29.179688 L 47.203125 32.492188 L 55.265625 33.15625 L 63.832031 32.492188 L 63.832031 29.179688 L 55.265625 29.84375 M 41.660156 22.386719 C 38.972656 19.738281 35.722656 18.410156 31.914062 18.410156 C 28.21875 18.410156 25.027344 19.738281 22.339844 22.386719 C 19.652344 24.816406 18.308594 27.855469 18.308594 31.5 C 18.308594 35.367188 19.652344 38.570312 22.339844 41.109375 C 25.027344 43.761719 28.21875 45.085938 31.914062 45.085938 C 35.722656 45.085938 38.972656 43.761719 41.660156 41.109375 C 44.347656 38.570312 45.691406 35.367188 45.691406 31.5 C 45.691406 27.855469 44.347656 24.816406 41.660156 22.386719 M 32.085938 0.0195312 C 41.042969 0.0195312 48.546875 3.113281 54.59375 9.300781 C 60.863281 15.484375 64 22.828125 64 31.335938 C 64 40.171875 60.863281 47.679688 54.59375 53.867188 C 48.546875 59.941406 41.042969 62.980469 32.085938 62.980469 C 23.125 62.980469 15.621094 59.941406 9.574219 53.867188 C 3.191406 47.679688 0 40.171875 0 31.335938 L 0.167969 28.1875 L 0.167969 31.167969 L 8.734375 30.339844 L 16.964844 31.167969 L 16.964844 27.855469 L 8.734375 27.027344 L 0.167969 27.855469 C 1.289062 20.011719 4.871094 13.441406 10.917969 8.140625 C 16.742188 2.726562 23.796875 0.0195312 32.085938 0.0195312 "/>
</g>
</svg>
