<?xml version="1.0" encoding="UTF-8"?>
<svg xmlns="http://www.w3.org/2000/svg" xmlns:xlink="http://www.w3.org/1999/xlink" width="24pt" height="23pt" viewBox="0 0 24 23" version="1.1">
<g id="surface1">
<path style=" stroke:#000000;stroke-width:3;stroke-opacity:0.5;fill-rule:nonzero;fill:rgb(100%,100%,100%);fill-opacity:1;" d="M 15.90625 5.203125 L 16.785156 5.765625 L 15.683594 7.164062 L 16.785156 11.417969 L 15.519531 12.589844 L 15.519531 9.738281 L 14.585938 9.511719 L 12.386719 6.996094 L 12.054688 5.09375 L 13.15625 4.027344 L 11.726562 2.015625 L 9.746094 4.757812 L 9.523438 1.34375 L 5.234375 2.964844 L 5.289062 4.027344 L 8.644531 3.023438 L 8.863281 5.988281 L 6.773438 8.84375 L 7.929688 8.84375 L 7.929688 10.464844 L 5.949219 12.253906 L 6.445312 14.886719 L 4.902344 15.726562 L 3.472656 14.492188 L 1.550781 16.285156 L 2.757812 16.285156 L 2.757812 21.65625 L 22.671875 21.65625 L 22.671875 16.0625 L 20.746094 16.0625 L 20.746094 17.234375 L 19.371094 17.234375 L 19.371094 14.382812 L 20.746094 14.382812 L 21.351562 11.75 L 18.929688 9.402344 L 17.941406 10.351562 L 17.171875 7.5 L 17.941406 6.546875 L 20.582031 8.226562 L 21.296875 7.050781 L 18.765625 5.429688 L 20.636719 2.964844 L 19.589844 2.125 L 17.609375 4.644531 L 16.675781 4.027344 L 15.90625 5.203125 M 20.359375 1.0625 L 21.460938 1.902344 L 21.957031 2.796875 C 22.03125 3.171875 21.9375 3.507812 21.679688 3.804688 L 20.691406 5.09375 L 22.011719 5.988281 L 22.5625 6.828125 L 22.394531 7.835938 L 21.625 9.007812 L 20.964844 9.511719 L 22.285156 10.746094 C 22.652344 11.117188 22.761719 11.546875 22.617188 12.03125 L 22.066406 14.660156 L 22.066406 14.71875 L 22.671875 14.71875 C 23.039062 14.71875 23.347656 14.847656 23.605469 15.109375 C 23.863281 15.371094 23.992188 15.6875 23.992188 16.0625 L 23.992188 21.65625 L 23.605469 22.609375 C 23.347656 22.871094 23.039062 23 22.671875 23 L 2.757812 23 C 2.355469 23 2.027344 22.871094 1.769531 22.609375 L 1.4375 21.65625 L 1.4375 17.628906 C 0.890625 17.554688 0.523438 17.253906 0.339844 16.730469 C 0.117188 16.171875 0.230469 15.6875 0.667969 15.277344 L 2.648438 13.488281 C 2.90625 13.261719 3.179688 13.152344 3.472656 13.152344 C 3.839844 13.152344 4.132812 13.261719 4.355469 13.488281 L 4.960938 13.933594 L 4.683594 12.535156 C 4.574219 12.011719 4.703125 11.582031 5.070312 11.25 L 6.390625 10.128906 C 6.023438 9.980469 5.765625 9.757812 5.621094 9.457031 C 5.398438 8.933594 5.4375 8.46875 5.730469 8.058594 L 7.542969 5.597656 L 7.433594 4.8125 L 5.675781 5.316406 L 5.289062 5.371094 L 4.574219 5.148438 C 4.246094 4.886719 4.042969 4.550781 3.96875 4.140625 L 3.914062 3.023438 C 3.839844 2.351562 4.132812 1.902344 4.792969 1.679688 L 9.085938 0.113281 L 9.523438 0 L 10.238281 0.28125 C 10.570312 0.464844 10.773438 0.746094 10.84375 1.121094 C 11.066406 0.820312 11.359375 0.671875 11.726562 0.671875 C 12.164062 0.671875 12.53125 0.875 12.824219 1.285156 L 14.199219 3.191406 L 14.476562 4.140625 C 14.476562 4.476562 14.347656 4.757812 14.089844 4.980469 L 13.484375 5.539062 L 13.648438 6.378906 L 14.367188 7.273438 L 14.640625 6.378906 L 14.859375 6.101562 L 14.859375 6.042969 C 14.457031 5.558594 14.4375 5.035156 14.804688 4.476562 L 15.519531 3.300781 C 15.8125 2.890625 16.199219 2.6875 16.675781 2.6875 L 17.335938 2.855469 L 18.492188 1.285156 C 18.710938 0.988281 19.023438 0.820312 19.425781 0.785156 L 19.589844 0.785156 L 20.359375 1.0625 "/>
</g>
</svg>
