<?xml version="1.0" encoding="UTF-8"?>
<svg xmlns="http://www.w3.org/2000/svg" xmlns:xlink="http://www.w3.org/1999/xlink" width="64pt" height="84pt" viewBox="0 0 64 84" version="1.1">
<g id="surface1">
<path style=" stroke:none;fill-rule:nonzero;fill:rgb(100%,100%,100%);fill-opacity:1;" d="M 29.246094 67.210938 C 29.246094 65.515625 28.960938 64.527344 28.398438 64.246094 L 28.398438 68.484375 L 27.335938 70.179688 L 32.210938 68.90625 L 35.601562 68.484375 L 45.351562 68.484375 L 45.351562 71.449219 L 36.027344 71.449219 L 34.332031 70.8125 L 33.484375 72.933594 L 34.96875 74.839844 L 36.875 73.78125 L 47.894531 73.78125 L 47.894531 65.941406 L 37.296875 65.941406 L 33.484375 66.363281 L 29.246094 67.210938 M 20.34375 45.179688 L 18.859375 44.117188 L 21.191406 42.421875 L 22.675781 46.027344 L 20.34375 45.179688 M 30.09375 43.90625 L 26.703125 46.027344 C 27.550781 45.320312 27.902344 44.1875 27.761719 42.636719 L 30.09375 43.90625 M 4.664062 41.152344 L 3.179688 41.578125 C 3.179688 42 3.742188 42.28125 4.875 42.421875 L 5.722656 44.117188 L 6.570312 46.238281 L 6.144531 49.203125 L 6.570312 51.957031 L 6.570312 51.109375 L 7.417969 50.261719 L 7.839844 52.382812 L 7.417969 54.078125 L 9.113281 55.769531 C 9.394531 56.902344 9.253906 57.75 8.6875 58.3125 L 6.992188 58.3125 L 6.359375 56.617188 L 6.359375 54.925781 L 4.664062 50.476562 L 4.027344 45.390625 C 3.039062 46.238281 2.753906 47.71875 3.179688 49.839844 L 4.238281 54.5 C 1.414062 51.816406 0.425781 46.945312 1.273438 39.882812 L 5.085938 39.035156 L 5.933594 40.09375 L 6.359375 41.789062 L 4.664062 41.152344 M 54.25 38.820312 C 55.523438 38.820312 56.652344 39.316406 57.640625 40.304688 L 58.914062 43.484375 L 57.640625 46.660156 C 56.652344 47.648438 55.523438 48.144531 54.25 48.144531 C 52.980469 48.144531 51.851562 47.648438 50.859375 46.660156 C 50.011719 45.8125 49.589844 44.753906 49.589844 43.484375 C 49.589844 42.210938 50.011719 41.152344 50.859375 40.304688 C 51.851562 39.316406 52.980469 38.820312 54.25 38.820312 M 34.121094 40.515625 C 34.261719 39.105469 33.90625 38.46875 33.058594 38.609375 L 19.921875 37.339844 C 18.789062 36.773438 17.660156 36.773438 16.53125 37.339844 L 13.140625 39.035156 C 12.292969 39.597656 12.292969 39.882812 13.140625 39.882812 L 15.257812 39.667969 L 17.589844 39.667969 L 20.132812 40.515625 L 21.402344 40.941406 L 17.589844 43.484375 L 18.859375 41.578125 L 17.164062 42.636719 L 15.683594 44.117188 L 17.589844 44.117188 L 20.554688 46.027344 L 24.582031 47.296875 C 26.417969 47.296875 27.972656 46.800781 29.246094 45.8125 L 30.941406 43.90625 L 28.820312 41.789062 L 31.789062 41.363281 L 33.695312 42.847656 L 34.121094 40.515625 M 36.664062 0.0507812 L 39.207031 0.0507812 L 38.992188 33.949219 L 42.597656 33.949219 C 43.726562 33.949219 44.785156 33.453125 45.773438 32.464844 L 47.046875 29.074219 L 46.835938 6.617188 C 53.191406 8.03125 57.429688 10.714844 59.550781 14.667969 C 61.667969 18.339844 63.082031 22.648438 63.789062 27.59375 L 64 36.066406 L 49.589844 36.066406 C 47.753906 36.066406 45.988281 36.84375 44.292969 38.398438 C 42.3125 40.09375 41.324219 42.210938 41.324219 44.753906 L 41.324219 60.433594 L 38.570312 61.914062 C 36.734375 61.914062 35.320312 61.28125 34.332031 60.007812 C 33.058594 59.867188 32.210938 60.148438 31.789062 60.855469 C 31.503906 59.867188 31.71875 59.019531 32.425781 58.3125 C 32 57.890625 31.574219 58.03125 31.152344 58.738281 L 30.515625 60.855469 L 32.210938 61.914062 L 33.90625 61.28125 L 35.601562 62.128906 L 37.511719 63.1875 L 45.773438 63.1875 L 48.316406 50.6875 L 61.457031 50.6875 L 61.667969 51.320312 C 62.09375 54.851562 61.808594 57.113281 60.820312 58.101562 C 59.410156 59.375 57.714844 62.128906 55.734375 66.363281 C 53.617188 70.742188 52.484375 73.992188 52.34375 76.109375 L 50.859375 81.832031 L 48.953125 83.738281 L 39.207031 83.949219 L 38.78125 80.347656 L 36.875 83.949219 L 28.609375 83.738281 L 25.007812 80.984375 C 22.886719 78.863281 21.476562 76.464844 20.769531 73.78125 C 20.34375 72.226562 19.285156 70.25 17.589844 67.847656 L 13.773438 61.703125 C 11.375 56.902344 9.75 52.242188 8.902344 47.71875 C 8.054688 42.917969 7.769531 37.199219 8.054688 30.558594 L 8.6875 25.261719 L 11.230469 16.789062 L 14.621094 10.644531 C 17.164062 7.113281 20.699219 4.289062 25.21875 2.167969 L 28.609375 1.109375 L 36.664062 0.0507812 "/>
</g>
</svg>
