<?xml version="1.0" encoding="UTF-8"?>
<svg xmlns="http://www.w3.org/2000/svg" xmlns:xlink="http://www.w3.org/1999/xlink" width="64pt" height="44pt" viewBox="0 0 64 44" version="1.1">
<g id="surface1">
<path style=" stroke:none;fill-rule:nonzero;fill:rgb(100%,100%,100%);fill-opacity:1;" d="M 16.640625 38.398438 L 16.640625 26.558594 L 13.761719 31.839844 L 11.519531 26.71875 L 11.519531 35.679688 L 16.640625 38.398438 M 3.199219 22.078125 C 3.199219 25.171875 4.214844 28 6.238281 30.558594 L 6.238281 13.441406 C 4.214844 16 3.199219 18.878906 3.199219 22.078125 M 29.441406 8.640625 L 24 8.640625 L 24 3.359375 L 22.558594 3.519531 L 22.558594 40.480469 L 29.441406 41.28125 L 29.441406 8.640625 M 10.558594 9.121094 L 13.761719 16.800781 L 16.960938 5.441406 L 10.558594 9.121094 M 52.640625 25.761719 L 47.199219 25.761719 L 47.199219 38.398438 L 52.640625 35.519531 L 52.640625 25.761719 M 57.761719 30.558594 C 59.679688 27.894531 60.640625 25.066406 60.640625 22.078125 C 60.640625 18.988281 59.679688 16.105469 57.761719 13.441406 L 57.761719 30.558594 M 40.640625 8.640625 L 35.199219 8.640625 L 35.199219 41.28125 L 42.238281 40.160156 L 42.238281 3.839844 L 40.640625 3.519531 L 40.640625 8.640625 M 47.199219 20.960938 L 52.640625 20.960938 L 52.640625 13.441406 L 47.199219 9.761719 L 47.199219 20.960938 M 32 0 C 40.746094 0 48.265625 2.132812 54.558594 6.398438 C 60.851562 10.773438 64 16 64 22.078125 C 64 28.054688 60.851562 33.226562 54.558594 37.601562 C 48.265625 41.867188 40.746094 44 32 44 C 23.148438 44 15.574219 41.867188 9.28125 37.601562 C 3.09375 33.226562 0 28.054688 0 22.078125 C 0 16 3.09375 10.773438 9.28125 6.398438 C 15.574219 2.132812 23.148438 0 32 0 "/>
</g>
</svg>
