<?xml version="1.0" encoding="UTF-8"?>
<svg xmlns="http://www.w3.org/2000/svg" xmlns:xlink="http://www.w3.org/1999/xlink" width="64pt" height="46pt" viewBox="0 0 64 46" version="1.1">
<g id="surface1">
<path style=" stroke:none;fill-rule:nonzero;fill:rgb(100%,100%,100%);fill-opacity:1;" d="M 38.703125 34.875 L 38.703125 42.640625 L 58.578125 42.640625 L 40.808594 3.054688 L 23.039062 3.054688 L 5.421875 42.640625 L 25.296875 42.640625 L 25.296875 34.875 L 25.902344 34.113281 L 38.097656 34.113281 L 38.703125 34.875 M 64 45.988281 L 35.539062 45.988281 L 35.539062 37.3125 L 28.613281 37.3125 L 28.613281 45.988281 L 0 45.988281 L 20.328125 1.535156 L 21.234375 0.0117188 L 42.617188 0.0117188 L 64 45.988281 M 31.925781 5.339844 L 33.882812 6.40625 L 34.636719 8.992188 L 33.882812 11.886719 C 33.28125 12.597656 32.628906 12.953125 31.925781 12.953125 L 30.269531 11.886719 L 29.515625 8.992188 L 30.269531 6.40625 L 31.925781 5.339844 "/>
</g>
</svg>
