<?xml version="1.0" encoding="UTF-8"?>
<svg xmlns="http://www.w3.org/2000/svg" xmlns:xlink="http://www.w3.org/1999/xlink" width="64pt" height="79pt" viewBox="0 0 64 79" version="1.1">
<g id="surface1">
<path style=" stroke:none;fill-rule:nonzero;fill:rgb(100%,100%,100%);fill-opacity:1;" d="M 50.425781 23.046875 C 50.425781 18.011719 48.679688 13.691406 45.1875 10.078125 C 41.566406 6.464844 37.171875 4.65625 32 4.65625 C 26.957031 4.65625 22.625 6.464844 19.007812 10.078125 C 15.386719 13.691406 13.574219 18.011719 13.574219 23.046875 L 13.574219 58.277344 L 4.65625 58.277344 L 4.65625 74.34375 L 59.34375 74.34375 L 59.34375 58.277344 L 50.425781 58.277344 L 50.425781 23.046875 M 48.484375 6.785156 C 52.878906 11.304688 55.078125 16.722656 55.078125 23.046875 L 55.078125 53.628906 L 59.34375 53.628906 C 60.636719 53.628906 61.738281 54.082031 62.640625 54.984375 C 63.546875 55.761719 64 56.855469 64 58.277344 L 64 74.34375 L 62.640625 77.632812 C 61.738281 78.539062 60.636719 78.988281 59.34375 78.988281 L 4.65625 78.988281 C 3.363281 78.988281 2.261719 78.539062 1.359375 77.632812 L 0 74.34375 L 0 58.277344 C 0 56.984375 0.453125 55.890625 1.359375 54.984375 C 2.261719 54.082031 3.363281 53.628906 4.65625 53.628906 L 8.921875 53.628906 L 8.921875 23.046875 C 8.921875 16.722656 11.183594 11.304688 15.710938 6.785156 C 20.234375 2.269531 25.664062 0.0117188 32 0.0117188 C 38.335938 0.0117188 43.832031 2.269531 48.484375 6.785156 "/>
</g>
</svg>
