<?xml version="1.0" encoding="UTF-8"?>
<svg xmlns="http://www.w3.org/2000/svg" xmlns:xlink="http://www.w3.org/1999/xlink" width="64pt" height="64pt" viewBox="0 0 64 64" version="1.1">
<g id="surface1">
<path style=" stroke:#000000;stroke-width:3;stroke-opacity:0.5;fill-rule:nonzero;fill:rgb(100%,100%,100%);fill-opacity:1;" d="M 39.109375 9.859375 L 39.109375 24.890625 L 54.140625 24.890625 L 54.140625 39.109375 L 39.109375 39.109375 L 39.109375 54.140625 L 24.890625 54.140625 L 24.890625 39.109375 L 9.859375 39.109375 L 9.859375 24.890625 L 24.890625 24.890625 L 24.890625 9.859375 L 39.109375 9.859375 M 32 0 C 40.835938 0 48.378906 3.125 54.625 9.375 C 60.875 15.621094 64 23.164062 64 32 C 64 40.835938 60.875 48.378906 54.625 54.625 C 48.378906 60.875 40.835938 64 32 64 C 23.164062 64 15.621094 60.875 9.375 54.625 C 3.125 48.378906 0 40.835938 0 32 C 0 23.164062 3.125 15.621094 9.375 9.375 C 15.621094 3.125 23.164062 0 32 0 M 50.910156 13.089844 C 45.628906 7.8125 39.328125 5.171875 32 5.171875 C 24.671875 5.171875 18.425781 7.8125 13.253906 13.089844 C 7.972656 18.371094 5.332031 24.671875 5.332031 32 C 5.332031 39.328125 7.972656 45.628906 13.253906 50.910156 C 18.425781 56.082031 24.671875 58.667969 32 58.667969 C 39.328125 58.667969 45.628906 56.082031 50.910156 50.910156 C 56.082031 45.628906 58.667969 39.328125 58.667969 32 C 58.667969 24.671875 56.082031 18.371094 50.910156 13.089844 "/>
</g>
</svg>
