<?xml version="1.0" encoding="UTF-8"?>
<svg xmlns="http://www.w3.org/2000/svg" xmlns:xlink="http://www.w3.org/1999/xlink" width="64pt" height="98pt" viewBox="0 0 64 98" version="1.1">
<g id="surface1">
<path style=" stroke:#000000;stroke-width:3;stroke-opacity:0.5;fill-rule:nonzero;fill:rgb(100%,100%,100%);fill-opacity:1;" d="M 10.75 90.824219 L 11.25 91.070312 L 27.75 91.070312 L 15.5 78.695312 L 10.75 90.824219 M 9.75 93.792969 L 9 96.019531 L 21.25 93.296875 L 10.75 93.296875 L 9.75 93.792969 M 28 74.488281 L 21.5 62.609375 L 17 74.488281 L 28 74.488281 M 23.25 58.15625 L 28.75 58.15625 L 27 48.257812 L 23.25 58.15625 M 24.75 60.632812 L 31.75 74.242188 L 39.75 60.632812 L 24.75 60.632812 M 5.5 40.585938 L 5.25 40.339844 L 5.25 39.597656 L 14.25 30.933594 L 11.5 30.4375 L 11 30.191406 L 11.25 29.449219 L 24.25 19.550781 L 25 19.796875 L 25 20.539062 L 17.25 28.707031 L 20.25 29.203125 L 20.5 29.449219 L 20.5 29.945312 L 11.5 38.855469 L 15.25 39.347656 L 15.75 39.84375 L 15.75 40.339844 L 0.75 55.1875 L 0 55.1875 L 0 54.445312 L 9.75 41.328125 L 5.5 40.585938 M 9.75 18.3125 L 9.5 17.570312 L 10 17.324219 L 16.75 17.324219 L 15.75 15.839844 L 15.75 15.34375 L 16.25 15.097656 L 25.75 16.332031 L 26.25 16.828125 L 25.75 17.324219 L 19.75 17.570312 L 21 19.304688 L 21 19.796875 L 20.5 20.292969 L 13.75 20.292969 L 15.25 22.273438 L 15.25 22.769531 L 15 23.261719 L 2.75 23.511719 L 2.25 23.015625 L 2.5 22.519531 L 11.25 20.539062 L 9.75 18.3125 M 14.75 2.226562 L 15.25 1.730469 L 15.75 1.730469 L 20.5 6.433594 L 20.75 4.703125 L 21.25 4.207031 L 21.75 4.453125 L 27.75 12.125 L 27.75 12.867188 L 27 12.867188 L 22.5 8.910156 L 21.75 11.382812 L 21.25 11.136719 L 16.5 6.433594 L 16 8.910156 L 15.75 9.402344 L 15 9.15625 L 6.25 0.988281 L 6.25 0.246094 L 7 0.246094 L 14.5 4.949219 L 14.75 2.226562 M 32 90.328125 L 45.75 76.964844 L 18.75 76.964844 L 32 90.328125 M 42.25 93.296875 L 55 96.019531 L 54.25 93.792969 L 53.25 93.296875 L 42.25 93.296875 M 52.75 91.070312 L 53.25 90.824219 L 48.75 78.945312 L 36.5 91.070312 L 52.75 91.070312 M 35.5 58.15625 L 40.75 58.15625 L 37.5 48.753906 L 35.5 58.15625 M 47 74.488281 L 42.75 62.859375 L 36 74.488281 L 47 74.488281 M 34.25 44.546875 L 33.75 44.296875 L 30.75 44.296875 L 30 44.546875 L 32.25 55.433594 L 34.25 44.546875 M 34.75 41.824219 L 32 34.644531 L 29.25 41.824219 L 34.75 41.824219 M 53 30.191406 L 52.5 30.4375 L 49.75 30.933594 L 58.75 39.597656 L 58.75 40.339844 L 58.5 40.585938 L 54.25 41.328125 L 64 54.445312 L 64 55.1875 L 63.25 55.1875 L 48.25 40.339844 L 48.25 39.84375 L 48.75 39.347656 L 52.5 38.855469 L 43.5 29.945312 L 43.5 29.449219 L 43.75 29.203125 L 46.75 28.707031 L 39 20.539062 L 39 19.796875 L 39.75 19.550781 L 52.75 29.449219 L 53 30.191406 M 32 16.582031 L 33.25 18.066406 L 33.25 29.449219 L 34.5 30.191406 L 59.75 98 L 49.75 98 L 31.75 93.296875 L 29.25 93.792969 L 14.75 98 L 4.25 98 L 29.5 30.191406 L 30.75 29.449219 L 30.75 18.066406 L 32 16.582031 M 37.75 16.828125 L 38.25 16.332031 L 47.75 15.097656 L 48.25 15.34375 L 48.25 15.839844 L 47.25 17.324219 L 54 17.324219 L 54.5 17.570312 L 54.25 18.3125 L 52.75 20.539062 L 61.5 22.519531 L 61.75 23.015625 L 61.25 23.511719 L 49 23.261719 L 48.75 22.769531 L 48.75 22.273438 L 50.25 20.292969 L 43.5 20.292969 L 43 19.796875 L 43 19.304688 L 44.25 17.570312 L 38.25 17.324219 L 37.75 16.828125 M 57.75 0.246094 L 57.75 0.988281 L 48.75 9.15625 L 48.25 9.402344 L 47.75 8.910156 L 47.5 6.1875 L 42.75 10.890625 L 42 11.136719 L 41.75 10.640625 L 41.5 8.660156 L 37 12.867188 L 36.25 12.867188 C 35.75 12.539062 35.667969 12.292969 36 12.125 L 42 4.453125 L 42.75 4.207031 L 43 4.703125 L 43.25 6.433594 L 48 1.730469 L 48.75 1.730469 L 49 1.980469 L 49.5 4.949219 L 57 0 L 57.75 0.246094 "/>
</g>
</svg>
