<?xml version="1.0" encoding="UTF-8"?>
<svg xmlns="http://www.w3.org/2000/svg" xmlns:xlink="http://www.w3.org/1999/xlink" width="64pt" height="75pt" viewBox="0 0 64 75" version="1.1">
<g id="surface1">
<path style=" stroke:none;fill-rule:nonzero;fill:rgb(100%,100%,100%);fill-opacity:1;" d="M 36.421875 17.566406 L 45.605469 17.566406 L 32 4.054688 L 18.394531 17.566406 L 27.578125 17.566406 L 10.402344 34.628906 L 25.199219 34.628906 L 4.792969 54.898438 L 28.597656 54.898438 L 28.597656 63.511719 L 27.75 63.511719 C 23.554688 63.851562 19.757812 64.695312 16.355469 66.046875 C 13.179688 67.398438 10.96875 69.03125 9.722656 70.945312 L 54.445312 70.945312 C 53.199219 69.03125 50.820312 67.398438 47.304688 66.046875 C 43.789062 64.695312 39.824219 63.851562 35.402344 63.511719 L 35.402344 54.898438 L 59.207031 54.898438 L 38.800781 34.628906 L 53.597656 34.628906 L 36.421875 17.566406 M 34.890625 1.183594 L 48.496094 14.695312 C 49.855469 15.933594 50.195312 17.398438 49.515625 19.085938 C 48.835938 20.550781 47.757812 21.394531 46.285156 21.621094 L 56.488281 31.757812 C 57.734375 32.996094 58.019531 34.460938 57.335938 36.148438 C 56.65625 37.835938 55.410156 38.683594 53.597656 38.683594 L 48.664062 38.683594 L 62.097656 51.859375 C 63.347656 53.210938 63.628906 54.730469 62.949219 56.417969 C 62.269531 58.109375 61.023438 58.953125 59.207031 58.953125 L 39.480469 58.953125 L 39.480469 59.796875 C 48.550781 61.035156 54.671875 64.019531 57.847656 68.75 C 58.753906 69.988281 58.867188 71.339844 58.1875 72.804688 C 57.394531 74.269531 56.148438 75 54.445312 75 L 9.722656 75 C 8.023438 75 6.832031 74.269531 6.152344 72.804688 C 5.359375 71.453125 5.414062 70.101562 6.324219 68.75 C 9.496094 64.019531 15.5625 61.035156 24.519531 59.796875 L 24.519531 58.953125 L 4.792969 58.953125 C 3.089844 58.953125 1.84375 58.109375 1.050781 56.417969 C 0.371094 54.730469 0.652344 53.210938 1.902344 51.859375 L 15.335938 38.683594 L 10.402344 38.683594 C 8.589844 38.683594 7.34375 37.835938 6.664062 36.148438 C 5.980469 34.460938 6.265625 32.996094 7.511719 31.757812 L 17.886719 21.621094 C 16.296875 21.394531 15.222656 20.550781 14.65625 19.085938 C 13.859375 17.398438 14.144531 15.933594 15.503906 14.695312 L 29.109375 1.183594 C 29.902344 0.394531 30.867188 0 32 0 C 33.246094 0 34.210938 0.394531 34.890625 1.183594 "/>
</g>
</svg>
