<?xml version="1.0" encoding="UTF-8"?>
<svg xmlns="http://www.w3.org/2000/svg" xmlns:xlink="http://www.w3.org/1999/xlink" width="63pt" height="38pt" viewBox="0 0 63 38" version="1.1">
<g id="surface1">
<path style=" stroke:#000000;stroke-width:3;stroke-opacity:0.5;fill-rule:nonzero;fill:rgb(100%,100%,100%);fill-opacity:1;" d="M 11.78125 25.441406 C 12.628906 24.582031 13.054688 23.5625 13.054688 22.382812 C 13.054688 21.199219 12.628906 20.179688 11.78125 19.320312 C 10.933594 18.464844 9.925781 18.035156 8.761719 18.035156 C 7.488281 18.035156 6.425781 18.464844 5.578125 19.320312 C 4.730469 20.179688 4.308594 21.199219 4.308594 22.382812 C 4.308594 23.5625 4.730469 24.582031 5.578125 25.441406 C 6.425781 26.40625 7.488281 26.890625 8.761719 26.890625 C 9.925781 26.890625 10.933594 26.40625 11.78125 25.441406 M 59.011719 22.382812 C 59.011719 21.199219 58.585938 20.179688 57.738281 19.320312 C 56.890625 18.464844 55.882812 18.035156 54.71875 18.035156 C 53.445312 18.035156 52.4375 18.464844 51.695312 19.320312 C 50.742188 20.179688 50.265625 21.199219 50.265625 22.382812 C 50.265625 23.5625 50.742188 24.582031 51.695312 25.441406 C 52.4375 26.40625 53.445312 26.890625 54.71875 26.890625 C 55.882812 26.890625 56.890625 26.40625 57.738281 25.441406 C 58.585938 24.582031 59.011719 23.5625 59.011719 22.382812 M 51.855469 5.796875 C 53.339844 7.191406 54.558594 9.605469 55.511719 13.042969 L 55.671875 13.042969 C 57.367188 13.042969 58.800781 13.632812 59.964844 14.8125 C 61.132812 15.996094 61.714844 17.445312 61.714844 19.160156 L 62.988281 30.109375 L 62.351562 31.398438 L 61.238281 31.882812 L 59.328125 31.882812 L 58.851562 32.042969 L 55.988281 32.042969 L 55.988281 37.195312 L 55.035156 38 L 48.355469 38 L 47.5625 37.195312 L 47.5625 32.042969 L 15.4375 32.042969 L 15.4375 37.195312 C 15.4375 37.730469 15.121094 38 14.484375 38 L 7.964844 38 L 7.011719 37.195312 L 7.011719 32.042969 L 4.148438 32.042969 L 3.671875 31.882812 L 1.761719 31.882812 L 0.648438 31.398438 L 0.0117188 30.109375 L 1.285156 19.160156 C 1.285156 17.445312 1.867188 15.996094 3.035156 14.8125 C 4.199219 13.632812 5.632812 13.042969 7.328125 13.042969 L 7.488281 13.042969 C 8.441406 9.820312 9.609375 7.515625 10.984375 6.117188 C 15.015625 2.039062 21.851562 0 31.5 0 C 41.148438 0 47.933594 1.933594 51.855469 5.796875 M 32.296875 3.703125 L 34.839844 3.703125 L 35.953125 4.667969 C 35.953125 5.421875 35.582031 5.796875 34.839844 5.796875 L 28.160156 5.796875 C 27.417969 5.796875 27.046875 5.421875 27.046875 4.667969 L 28.160156 3.703125 L 30.386719 3.703125 L 30.386719 2.578125 C 23.070312 2.683594 17.558594 4.453125 13.847656 7.890625 C 11.835938 9.605469 10.613281 11.59375 10.191406 13.847656 L 10.984375 14.492188 C 16.921875 12.558594 22.699219 11.433594 28.320312 11.109375 L 34.679688 11.109375 C 40.300781 11.433594 46.023438 12.558594 51.855469 14.492188 L 52.808594 13.847656 C 52.386719 11.699219 51.058594 9.714844 48.832031 7.890625 C 45.015625 4.5625 39.503906 2.789062 32.296875 2.578125 L 32.296875 3.703125 M 43.109375 18.679688 L 31.5 18.195312 L 19.890625 18.679688 C 16.710938 19.214844 15.121094 20.179688 15.121094 21.578125 C 15.121094 22.972656 16.710938 24.207031 19.890625 25.28125 L 31.5 26.890625 L 43.109375 25.28125 C 46.289062 24.207031 47.878906 22.972656 47.878906 21.578125 C 47.878906 20.179688 46.289062 19.214844 43.109375 18.679688 "/>
</g>
</svg>
