<?xml version="1.0" encoding="UTF-8"?>
<svg xmlns="http://www.w3.org/2000/svg" xmlns:xlink="http://www.w3.org/1999/xlink" width="63pt" height="46pt" viewBox="0 0 63 46" version="1.1">
<g id="surface1">
<path style=" stroke:none;fill-rule:nonzero;fill:rgb(100%,100%,100%);fill-opacity:1;" d="M 35.492188 31.355469 L 36.675781 30.757812 L 40.816406 30.757812 L 41.410156 33.445312 C 41.410156 35.234375 40.769531 36.777344 39.484375 38.070312 C 38.203125 39.460938 36.625 40.15625 34.753906 40.15625 C 33.273438 40.15625 31.992188 39.761719 30.910156 38.964844 C 29.726562 37.96875 28.9375 36.777344 28.542969 35.382812 L 32.535156 32.996094 L 32.535156 33.445312 L 33.125 34.9375 L 34.753906 35.683594 L 36.378906 34.9375 L 37.121094 33.445312 C 37.121094 32.449219 36.578125 31.753906 35.492188 31.355469 M 55.015625 3.304688 L 54.570312 3.753906 L 54.421875 4.5 L 54.570312 4.648438 L 37.710938 12.109375 C 27.359375 16.882812 18.730469 21.210938 11.832031 25.089844 L 11.238281 25.835938 L 11.238281 27.027344 L 11.980469 28.371094 C 11.386719 29.167969 11.289062 29.914062 11.683594 30.609375 C 12.078125 31.304688 12.667969 31.652344 13.457031 31.652344 L 13.605469 31.652344 L 14.34375 32.996094 L 15.527344 33.890625 L 16.121094 33.742188 L 17.894531 32.996094 L 14.640625 37.621094 L 8.578125 39.5625 L 8.28125 39.5625 C 7.789062 38.367188 7 37.769531 5.914062 37.769531 C 4.730469 37.769531 3.945312 38.367188 3.550781 39.5625 L 3.550781 42.097656 L 17.746094 42.097656 L 26.472656 36.726562 C 27.0625 38.515625 28.148438 39.960938 29.726562 41.054688 L 34.753906 42.546875 C 37.316406 42.546875 39.4375 41.648438 41.113281 39.859375 C 42.789062 38.070312 43.625 35.929688 43.625 33.445312 L 43.332031 30.757812 L 45.105469 30.757812 L 45.105469 19.570312 L 52.203125 15.09375 L 57.824219 11.363281 L 57.972656 11.511719 L 58.414062 11.808594 L 59.007812 11.660156 L 59.15625 10.914062 L 59.007812 10.617188 L 59.15625 10.617188 L 59.15625 9.421875 L 56.9375 4.796875 L 56.050781 3.902344 L 55.753906 3.902344 L 55.605469 3.753906 L 55.015625 3.304688 M 57.527344 0.769531 L 59.894531 3.007812 L 62.261719 7.929688 L 62.261719 8.078125 C 62.753906 9.175781 62.851562 10.21875 62.554688 11.214844 C 62.554688 12.707031 61.964844 13.847656 60.78125 14.644531 L 58.414062 15.242188 L 58.269531 15.242188 L 55.308594 17.03125 C 53.042969 18.722656 50.773438 20.265625 48.507812 21.65625 L 48.507812 30.757812 C 48.507812 31.953125 48.015625 32.898438 47.027344 33.59375 C 46.929688 37.074219 45.746094 40.007812 43.480469 42.394531 C 41.113281 44.78125 38.203125 45.976562 34.753906 45.976562 C 30.910156 45.976562 27.753906 44.484375 25.289062 41.5 L 19.375 45.082031 L 17.746094 45.527344 L 3.550781 45.527344 C 2.5625 45.527344 1.726562 45.179688 1.035156 44.484375 C 0.34375 43.886719 0 43.09375 0 42.097656 L 0 39.5625 L 0.296875 38.070312 L 2.515625 35.382812 C 3.597656 34.6875 4.730469 34.339844 5.914062 34.339844 C 7.195312 34.339844 8.378906 34.785156 9.464844 35.683594 L 11.535156 34.9375 L 11.238281 34.636719 L 8.726562 31.953125 C 8.132812 30.957031 7.984375 29.8125 8.28125 28.519531 L 8.132812 28.371094 L 7.984375 24.789062 C 8.378906 23.496094 9.121094 22.601562 10.203125 22.105469 C 16.910156 18.324219 25.535156 13.949219 36.085938 8.976562 L 51.464844 1.960938 L 53.683594 0.320312 L 53.832031 0.320312 L 55.015625 0.0234375 L 57.527344 0.769531 "/>
</g>
</svg>
