<?xml version="1.0" encoding="UTF-8"?>
<svg xmlns="http://www.w3.org/2000/svg" xmlns:xlink="http://www.w3.org/1999/xlink" width="63pt" height="63pt" viewBox="0 0 63 63" version="1.1">
<g id="surface1">
<path style=" stroke:#000000;stroke-width:3;stroke-opacity:0.5;fill-rule:nonzero;fill:rgb(100%,100%,100%);fill-opacity:1;" d="M 46.058594 6.953125 C 52.589844 2.316406 56.835938 0 58.796875 0 L 61.175781 0.851562 L 61.734375 1.277344 C 62.574219 2.316406 62.761719 3.59375 62.292969 5.109375 C 61.640625 7.1875 59.636719 10.6875 56.277344 15.609375 C 51.703125 22.230469 47.363281 27.433594 43.257812 31.214844 L 40.457031 33.628906 L 37.519531 36.324219 C 34.347656 39.445312 32.574219 42.425781 32.199219 45.261719 L 35.699219 43.417969 L 36.960938 43.136719 C 37.800781 43.136719 38.59375 43.464844 39.339844 44.128906 C 40.363281 45.167969 40.597656 46.398438 40.039062 47.816406 C 39.011719 50.65625 37.050781 53.585938 34.160156 56.613281 C 30.988281 60.019531 27.859375 62.101562 24.78125 62.859375 L 23.941406 63 C 23.007812 63 22.214844 62.621094 21.5625 61.863281 C 20.628906 61.011719 20.347656 59.972656 20.722656 58.742188 C 21.1875 56.945312 22.402344 54.863281 24.359375 52.5 L 21.421875 45.546875 C 20.582031 45.359375 19.835938 44.980469 19.183594 44.414062 L 18.621094 43.84375 L 17.503906 41.714844 L 10.644531 38.59375 C 8.3125 40.675781 6.257812 41.90625 4.484375 42.285156 L 3.785156 42.425781 C 2.757812 42.425781 1.964844 42.09375 1.40625 41.433594 C 0.472656 40.582031 0.144531 39.539062 0.425781 38.3125 C 1.171875 35.1875 3.226562 31.972656 6.585938 28.664062 C 9.570312 25.636719 12.464844 23.601562 15.261719 22.5625 L 16.523438 22.417969 C 17.550781 22.417969 18.34375 22.75 18.902344 23.414062 C 19.929688 24.546875 20.160156 25.777344 19.601562 27.101562 L 17.78125 30.648438 C 20.582031 30.269531 23.519531 28.472656 26.601562 25.257812 L 31.640625 19.4375 C 35 15.65625 39.804688 11.492188 46.058594 6.953125 M 41.019531 28.664062 C 44.84375 25.257812 48.996094 20.242188 53.476562 13.621094 C 57.675781 7.472656 59.542969 4.066406 59.074219 3.40625 L 58.796875 3.40625 C 57.488281 3.40625 53.988281 5.4375 48.296875 9.507812 C 42.136719 13.953125 37.378906 18.019531 34.019531 21.710938 L 29.121094 27.667969 C 25.015625 31.925781 20.910156 34.054688 16.800781 34.054688 C 15.03125 34.054688 13.304688 33.675781 11.625 32.917969 L 13.582031 30.789062 C 14.890625 29.085938 15.871094 27.433594 16.523438 25.824219 C 14.097656 26.675781 11.578125 28.425781 8.964844 31.074219 C 6.070312 33.914062 4.34375 36.5625 3.785156 39.019531 C 5.183594 38.640625 7.285156 37.128906 10.082031 34.480469 L 21.140625 39.585938 L 20.863281 40.15625 L 21 41.433594 L 21.5625 42 L 22.261719 42.285156 L 23.519531 41.714844 L 28.28125 53.066406 C 25.761719 55.90625 24.316406 58.082031 23.941406 59.59375 C 26.367188 58.933594 28.980469 57.136719 31.78125 54.203125 C 34.394531 51.554688 36.121094 49 36.960938 46.539062 L 32.058594 49.519531 L 29.960938 51.507812 C 27.441406 45.546875 29.167969 39.636719 35.140625 33.769531 L 41.019531 28.664062 "/>
</g>
</svg>
