<?xml version="1.0" encoding="UTF-8"?>
<svg xmlns="http://www.w3.org/2000/svg" xmlns:xlink="http://www.w3.org/1999/xlink" width="64pt" height="63pt" viewBox="0 0 64 63" version="1.1">
<g id="surface1">
<path style=" stroke:#000000;stroke-width:3;stroke-opacity:0.5;fill-rule:nonzero;fill:rgb(100%,100%,100%);fill-opacity:1;" d="M 43.824219 9.921875 L 47.460938 7.9375 L 49.777344 4.132812 L 52.421875 2.480469 L 52.421875 37.203125 L 56.886719 37.203125 L 55.5625 41.667969 L 52.421875 41.667969 L 52.421875 46.300781 L 60.6875 46.300781 L 63.996094 45.472656 L 63.996094 63 L 0.00390625 63 L 0.00390625 44.316406 L 1.988281 42.992188 L 1.988281 22.820312 L 0.00390625 21.496094 L 0.00390625 7.441406 L 2.980469 7.441406 L 2.980469 0 L 9.429688 3.636719 L 9.429688 7.441406 L 13.398438 7.441406 L 12.40625 10.417969 L 13.066406 12.566406 L 11.578125 12.566406 L 11.578125 22.324219 L 18.855469 22.324219 L 15.710938 24.472656 L 11.578125 24.472656 L 11.578125 34.226562 L 15.710938 34.226562 L 17.695312 33.234375 L 18.855469 34.226562 L 18.855469 46.300781 L 22.824219 46.300781 L 22.824219 43.324219 L 26.296875 43.324219 L 26.296875 49.109375 L 29.273438 49.109375 L 29.273438 41.835938 L 27.949219 41.835938 L 28.28125 40.179688 L 29.273438 40.179688 L 29.273438 32.738281 L 28.941406 32.738281 L 29.273438 30.261719 L 29.273438 18.1875 L 31.917969 18.1875 L 31.917969 27.449219 L 34.726562 27.449219 L 34.726562 32.738281 L 31.917969 32.738281 L 31.917969 40.179688 L 34.726562 40.179688 L 34.726562 41.835938 L 31.917969 41.835938 L 31.917969 49.109375 L 34.894531 49.109375 L 34.894531 39.355469 L 37.703125 39.355469 L 37.703125 49.109375 L 41.011719 49.109375 L 41.011719 41.835938 L 39.191406 41.835938 L 39.6875 40.179688 L 41.011719 40.179688 L 41.011719 37.371094 L 42.5 35.21875 L 40.183594 27.449219 L 43.824219 27.449219 L 43.824219 9.921875 M 52.421875 49.773438 L 52.421875 54.566406 L 60.6875 54.566406 L 60.6875 49.773438 L 52.421875 49.773438 M 37.703125 50.929688 L 37.703125 58.203125 L 41.011719 58.203125 L 41.011719 50.929688 L 37.703125 50.929688 M 34.894531 50.929688 L 31.917969 50.929688 L 31.917969 58.203125 L 34.894531 58.203125 L 34.894531 50.929688 M 8.601562 22.324219 L 8.601562 12.566406 L 4.632812 12.566406 L 4.632812 22.324219 L 8.601562 22.324219 M 4.632812 48.613281 L 4.632812 58.203125 L 8.601562 58.203125 L 8.601562 48.613281 L 4.632812 48.613281 M 11.578125 48.613281 L 11.578125 58.203125 L 15.710938 58.203125 L 15.710938 48.613281 L 11.578125 48.613281 "/>
</g>
</svg>
