<?xml version="1.0" encoding="UTF-8"?>
<svg xmlns="http://www.w3.org/2000/svg" xmlns:xlink="http://www.w3.org/1999/xlink" width="64pt" height="93pt" viewBox="0 0 64 93" version="1.1">
<g id="surface1">
<path style=" stroke:none;fill-rule:nonzero;fill:rgb(100%,100%,100%);fill-opacity:1;" d="M 46.800781 50.273438 L 46.800781 58.898438 L 26.777344 58.898438 L 26.777344 50.273438 L 46.800781 50.273438 M 46.800781 34.53125 L 46.800781 43.589844 L 26.777344 43.589844 L 26.777344 34.53125 L 46.800781 34.53125 M 45.714844 8.875 L 45.714844 14.050781 L 29.171875 14.050781 L 29.171875 17.285156 L 13.933594 17.285156 L 13.933594 21.597656 L 29.171875 21.597656 L 29.171875 30.21875 L 12.191406 30.21875 L 12.191406 34.53125 L 20.460938 34.53125 L 20.460938 59.328125 L 5.007812 59.328125 L 5.007812 88.007812 L 58.992188 88.007812 L 58.992188 6.070312 L 45.714844 8.875 M 40.925781 4.992188 L 64 0.0351562 L 64 92.964844 L 0 92.964844 L 0 54.371094 L 15.457031 54.371094 L 15.457031 39.707031 L 7.183594 39.707031 L 7.183594 25.476562 L 8.925781 25.476562 L 8.925781 12.109375 L 24.164062 12.109375 L 24.164062 8.875 L 40.925781 8.875 L 40.925781 4.992188 "/>
</g>
</svg>
