<?xml version="1.0" encoding="UTF-8"?>
<svg xmlns="http://www.w3.org/2000/svg" xmlns:xlink="http://www.w3.org/1999/xlink" width="64pt" height="81pt" viewBox="0 0 64 81" version="1.1">
<g id="surface1">
<path style=" stroke:none;fill-rule:nonzero;fill:rgb(100%,100%,100%);fill-opacity:1;" d="M 15.625 59.945312 L 15.433594 61.273438 L 15.625 61.273438 L 15.625 59.945312 M 42.472656 30.539062 L 47.042969 30.539062 L 47.804688 33.195312 L 52.375 60.890625 C 52.628906 62.285156 52.3125 63.421875 51.421875 64.308594 C 50.789062 65.191406 49.773438 65.632812 48.375 65.632812 L 43.617188 65.632812 L 43.617188 59.753906 L 35.617188 59.753906 L 35.617188 59.375 L 34.476562 56.527344 C 33.585938 55.769531 32.632812 55.390625 31.621094 55.390625 L 28.761719 56.527344 L 27.621094 59.375 L 27.621094 59.753906 L 20.003906 59.753906 L 20.003906 65.632812 L 15.050781 65.632812 C 13.78125 65.632812 12.765625 65.191406 12.003906 64.308594 C 11.117188 63.421875 10.800781 62.285156 11.054688 60.890625 L 15.625 33.195312 L 16.574219 30.539062 L 21.335938 30.539062 L 21.335938 33.765625 L 42.472656 33.765625 L 42.472656 30.539062 M 47.804688 14.039062 L 38.285156 14.039062 C 38.03125 11.507812 37.269531 9.230469 36 7.207031 L 31.621094 4.363281 C 30.097656 4.363281 28.636719 5.3125 27.238281 7.207031 C 25.96875 9.105469 25.144531 11.382812 24.765625 14.039062 L 15.8125 14.039062 L 15.8125 16.882812 L 18.097656 16.882812 L 18.097656 22.195312 C 16.320312 22.828125 14.925781 23.648438 13.910156 24.660156 C 11.625 26.683594 10.226562 29.214844 9.71875 32.25 L 5.339844 60.132812 C 4.832031 63.421875 5.59375 66.140625 7.625 68.289062 L 11.433594 71.136719 L 11.433594 76.636719 L 51.996094 76.636719 L 51.996094 71.136719 L 56.183594 68.289062 C 58.214844 66.015625 58.976562 63.296875 58.46875 60.132812 L 53.898438 32.25 C 53.519531 29.085938 52.121094 26.558594 49.710938 24.660156 L 45.710938 22.195312 L 45.710938 16.882812 L 47.804688 16.882812 L 47.804688 14.039062 M 37.710938 2.65625 C 39.617188 4.425781 41.011719 6.765625 41.902344 9.675781 L 51.996094 9.675781 L 51.996094 20.867188 L 52.566406 21.4375 C 55.738281 24.089844 57.644531 27.503906 58.277344 31.679688 L 62.847656 59.5625 C 63.609375 63.863281 62.46875 67.722656 59.421875 71.136719 L 56.375 73.601562 L 56.375 81 L 7.246094 81 L 7.246094 73.601562 L 4.199219 71.136719 C 1.40625 67.972656 0.328125 64.054688 0.960938 59.375 L 5.53125 31.867188 C 6.039062 27.441406 7.878906 23.964844 11.054688 21.4375 L 11.433594 20.867188 L 11.433594 9.675781 L 21.71875 9.675781 C 22.480469 6.765625 23.75 4.425781 25.527344 2.65625 C 27.429688 0.886719 29.460938 0 31.621094 0 C 33.902344 0 35.933594 0.886719 37.710938 2.65625 "/>
</g>
</svg>
