<?xml version="1.0" encoding="UTF-8"?>
<svg xmlns="http://www.w3.org/2000/svg" xmlns:xlink="http://www.w3.org/1999/xlink" width="64pt" height="81pt" viewBox="0 0 64 81" version="1.1">
<g id="surface1">
<path style=" stroke:none;fill-rule:nonzero;fill:rgb(100%,100%,100%);fill-opacity:1;" d="M 22.132812 26.644531 L 21.703125 26.644531 L 21.917969 25.367188 L 23.207031 23.875 L 25.992188 30.054688 L 24.707031 33.039062 L 24.0625 34.746094 L 22.777344 32.1875 L 21.917969 30.269531 L 21.273438 28.988281 L 22.5625 27.285156 L 22.132812 26.644531 M 34.359375 56.273438 L 34.359375 63.308594 L 35.003906 69.0625 L 32 69.0625 L 26.207031 69.488281 L 26.851562 67.996094 L 27.066406 63.949219 L 28.996094 58.832031 L 29.640625 53.714844 L 33.929688 44.335938 L 35.648438 54.570312 L 34.359375 56.273438 M 33.929688 12.578125 L 34.359375 12.363281 L 35.648438 12.363281 L 36.289062 10.871094 L 35.859375 8.527344 L 35.003906 5.96875 L 31.355469 4.476562 L 31.140625 4.476562 L 28.996094 5.328125 L 27.710938 7.246094 L 27.066406 8.738281 C 26.921875 9.59375 26.421875 10.230469 25.566406 10.65625 C 25.136719 10.941406 25.277344 11.296875 25.992188 11.722656 L 27.496094 12.578125 L 29.210938 13.855469 L 28.566406 14.28125 L 26.207031 15.132812 L 21.917969 16.414062 L 18.914062 19.609375 L 17.414062 23.660156 L 14.839844 24.726562 L 15.484375 27.921875 L 17.628906 28.988281 L 17.628906 30.054688 L 18.914062 32.398438 L 23.417969 36.664062 L 23.417969 37.941406 L 21.273438 38.792969 L 19.773438 42.632812 C 19.199219 44.761719 17.484375 47.605469 14.625 51.15625 C 14.195312 52.152344 14.625 52.792969 15.910156 53.078125 L 17.414062 53.714844 L 22.132812 43.058594 L 24.0625 42.417969 L 24.0625 52.648438 L 22.777344 54.140625 L 22.777344 65.226562 L 21.273438 68.421875 L 21.273438 69.914062 C 12.980469 71.195312 7.617188 73.328125 5.1875 76.308594 L 58.8125 76.308594 C 56.8125 73.46875 52.164062 71.480469 44.871094 70.34375 L 39.292969 68.210938 L 39.292969 63.308594 L 40.152344 53.929688 L 41.867188 43.910156 L 42.726562 40.5 L 44.226562 40.285156 L 45.515625 40.074219 L 42.941406 36.238281 L 42.082031 35.382812 L 41.867188 34.320312 L 41.867188 27.496094 L 41.4375 26.429688 L 41.4375 25.152344 L 41.867188 23.019531 L 41.4375 18.542969 L 47.660156 10.230469 L 46.585938 9.378906 L 45.941406 9.59375 L 39.9375 16.839844 L 38.007812 15.347656 L 36.289062 14.707031 L 34.359375 14.28125 C 33.644531 13.855469 33.5 13.285156 33.929688 12.578125 M 38.433594 2.984375 L 40.152344 7.460938 L 40.582031 9.378906 L 42.726562 6.820312 L 42.941406 6.609375 C 43.941406 5.613281 45.15625 5.117188 46.585938 5.117188 C 48.589844 5.117188 50.234375 6.039062 51.519531 7.886719 C 52.519531 9.734375 52.449219 11.296875 51.304688 12.578125 L 45.941406 19.609375 L 45.941406 33.039062 C 47.371094 34.175781 48.515625 36.09375 49.375 38.792969 L 49.160156 42.417969 L 45.941406 44.335938 L 44.441406 54.140625 L 43.582031 65.441406 L 45.726562 66.078125 C 54.023438 67.640625 59.601562 70.269531 62.460938 73.964844 C 63.460938 75.246094 63.605469 76.738281 62.890625 78.441406 C 61.886719 80.148438 60.53125 81 58.8125 81 L 5.1875 81 C 3.46875 81 2.113281 80.148438 1.109375 78.441406 C 0.394531 76.878906 0.609375 75.386719 1.753906 73.964844 C 4.472656 70.269531 9.761719 67.640625 17.628906 66.078125 L 18.484375 64.585938 L 18.484375 57.980469 L 17.414062 57.980469 C 14.554688 57.980469 12.480469 57.054688 11.191406 55.207031 C 10.050781 53.359375 9.835938 51.441406 10.550781 49.453125 L 11.191406 48.386719 L 15.910156 41.140625 L 16.984375 36.875 L 15.269531 34.746094 L 13.765625 32.1875 L 13.339844 31.761719 C 12.195312 31.191406 11.480469 30.199219 11.191406 28.777344 L 10.550781 25.792969 C 10.261719 23.519531 10.976562 21.957031 12.695312 21.101562 L 13.765625 20.464844 L 14.625 17.90625 L 19.558594 12.578125 L 21.058594 11.722656 L 21.058594 11.511719 C 20.773438 9.804688 21.347656 8.382812 22.777344 7.246094 L 24.277344 4.261719 L 24.707031 3.835938 C 26.566406 1.277344 28.710938 0 31.140625 0 L 32 0 C 34.859375 0.570312 37.003906 1.5625 38.433594 2.984375 "/>
</g>
</svg>
