<?xml version="1.0" encoding="UTF-8"?>
<svg xmlns="http://www.w3.org/2000/svg" xmlns:xlink="http://www.w3.org/1999/xlink" width="64pt" height="64pt" viewBox="0 0 64 64" version="1.1">
<g id="surface1">
<path style=" stroke:#000000;stroke-width:3;stroke-opacity:0.5;fill-rule:nonzero;fill:rgb(100%,100%,100%);fill-opacity:1;" d="M 43.402344 26.722656 C 45.558594 20.824219 47.601562 17.871094 49.53125 17.871094 C 51.6875 17.871094 54.75 25.589844 58.722656 41.019531 L 64 64 L 41.53125 64 C 41.078125 59.460938 40.058594 55.773438 38.46875 52.9375 C 36.765625 49.984375 34.894531 48.511719 32.851562 48.511719 C 30.808594 48.511719 28.992188 49.984375 27.402344 52.9375 C 25.816406 55.773438 24.738281 59.460938 24.171875 64 L 0 64 L 5.105469 46.128906 C 8.964844 34.210938 12.367188 28.253906 15.320312 28.253906 C 16.453125 28.253906 17.871094 29.902344 19.574219 33.191406 C 24.679688 11.0625 29.105469 0 32.851562 0 C 35.460938 0 38.980469 8.90625 43.402344 26.722656 "/>
</g>
</svg>
