<?xml version="1.0" encoding="UTF-8"?>
<svg xmlns="http://www.w3.org/2000/svg" xmlns:xlink="http://www.w3.org/1999/xlink" width="64pt" height="61pt" viewBox="0 0 64 61" version="1.1">
<g id="surface1">
<path style=" stroke:#000000;stroke-width:3;stroke-opacity:0.5;fill-rule:nonzero;fill:rgb(100%,100%,100%);fill-opacity:1;" d="M 57.667969 4.707031 L 52.167969 12.097656 L 59.667969 17.140625 L 57.5 20.667969 L 49.5 15.460938 L 47.332031 18.316406 L 49.667969 26.886719 L 52.5 24.199219 L 60 31.089844 L 58.167969 38.984375 L 54 38.984375 L 54 47.554688 L 58.167969 47.554688 L 58.167969 44.027344 L 64 44.027344 L 64 61 L 58.667969 61 L 58.667969 52.765625 L 54.332031 52.765625 L 54.332031 61 L 33 61 L 33 49.070312 L 28.667969 49.070312 L 28.667969 61 L 16.332031 61 L 16.332031 50.078125 L 9.332031 50.078125 L 9.332031 61 L 3.5 61 L 3.5 44.699219 L 0 44.699219 L 5.832031 39.324219 L 10 43.019531 L 14.667969 40.5 L 13.332031 32.769531 L 19.332031 27.390625 L 19.332031 22.351562 L 15.832031 22.351562 L 22.167969 13.78125 L 21.5 5.042969 L 11.332031 7.898438 L 11 4.707031 L 24.167969 0 L 24.832031 10.082031 L 30.832031 2.015625 L 35.167969 7.898438 L 31.667969 11.257812 L 32.667969 16.804688 L 39.5 24.367188 L 42.167969 25.207031 L 42.167969 33.777344 L 46.167969 30.078125 L 42.832031 17.476562 L 46 13.109375 L 43.5 11.425781 L 45.667969 7.898438 L 48.667969 9.746094 L 54.5 2.183594 L 57.667969 4.707031 M 32.167969 26.886719 L 32.167969 41.675781 L 36.5 41.675781 L 36.5 26.886719 L 32.167969 26.886719 M 50 38.984375 L 45.667969 38.984375 L 45.667969 47.554688 L 50 47.554688 L 50 38.984375 M 24 26.886719 L 24 41.675781 L 28.332031 41.675781 L 28.332031 26.886719 L 24 26.886719 "/>
</g>
</svg>
