<?xml version="1.0" encoding="UTF-8"?>
<svg xmlns="http://www.w3.org/2000/svg" xmlns:xlink="http://www.w3.org/1999/xlink" width="64pt" height="67pt" viewBox="0 0 64 67" version="1.1">
<g id="surface1">
<path style=" stroke:#000000;stroke-width:3;stroke-opacity:0.5;fill-rule:nonzero;fill:rgb(100%,100%,100%);fill-opacity:1;" d="M 42.882812 18.359375 L 42.882812 30.921875 L 27.289062 30.921875 L 27.289062 12.722656 L 12.1875 12.722656 L 12.1875 3.867188 L 6.5 3.867188 L 6.5 12.722656 L 3.902344 12.722656 L 3.902344 63.132812 L 60.097656 63.132812 L 60.097656 18.359375 L 42.882812 18.359375 M 38.984375 27.058594 L 38.984375 18.359375 C 38.984375 17.285156 39.363281 16.375 40.121094 15.621094 C 40.769531 14.871094 41.691406 14.496094 42.882812 14.496094 L 60.097656 14.496094 C 61.289062 14.496094 62.207031 14.871094 62.859375 15.621094 C 63.617188 16.375 63.996094 17.285156 63.996094 18.359375 L 63.996094 63.132812 C 63.996094 64.207031 63.617188 65.066406 62.859375 65.710938 C 62.207031 66.570312 61.289062 67 60.097656 67 L 3.902344 67 C 2.929688 67 2.007812 66.570312 1.140625 65.710938 C 0.382812 65.066406 0.00390625 64.207031 0.00390625 63.132812 L 0.00390625 12.722656 C 0.00390625 10.898438 0.871094 9.664062 2.605469 9.019531 L 2.605469 3.867188 L 3.742188 1.289062 C 4.5 0.429688 5.417969 0 6.5 0 L 12.1875 0 C 13.269531 0 14.1875 0.429688 14.945312 1.289062 C 15.703125 2.039062 16.082031 2.898438 16.082031 3.867188 L 16.082031 8.859375 L 27.289062 8.859375 C 28.371094 8.859375 29.292969 9.234375 30.050781 9.984375 C 30.808594 10.738281 31.1875 11.648438 31.1875 12.722656 L 31.1875 27.058594 L 38.984375 27.058594 "/>
</g>
</svg>
