<?xml version="1.0" encoding="UTF-8"?>
<svg xmlns="http://www.w3.org/2000/svg" xmlns:xlink="http://www.w3.org/1999/xlink" width="64pt" height="57pt" viewBox="0 0 64 57" version="1.1">
<g id="surface1">
<path style=" stroke:#000000;stroke-width:3;stroke-opacity:0.5;fill-rule:nonzero;fill:rgb(100%,100%,100%);fill-opacity:1;" d="M 9.863281 52.140625 L 9.539062 52.628906 C 7.925781 55.542969 5.5 57 2.269531 57 L 0.0078125 57 L 0.0078125 51.65625 L 2.269531 51.65625 C 3.132812 51.65625 3.777344 51.117188 4.207031 50.035156 L 4.695312 49.226562 C 6.523438 46.3125 9.054688 44.855469 12.289062 44.855469 C 13.582031 44.855469 14.925781 45.285156 16.328125 46.152344 L 19.558594 49.226562 L 22.144531 51.65625 C 23.003906 51.441406 23.597656 50.902344 23.921875 50.035156 L 24.40625 49.226562 C 26.34375 46.3125 28.824219 44.855469 31.839844 44.855469 L 36.039062 46.152344 L 39.269531 49.226562 L 41.855469 51.65625 L 43.472656 50.035156 L 43.957031 49.226562 C 45.789062 46.3125 48.320312 44.855469 51.550781 44.855469 L 55.589844 46.152344 L 58.820312 49.226562 L 61.570312 51.65625 L 63.667969 51.65625 L 63.667969 57 L 61.40625 57 C 59.359375 57 56.9375 55.597656 54.136719 52.789062 L 51.390625 50.199219 L 49.773438 51.171875 L 49.128906 52.140625 L 48.964844 52.628906 C 47.027344 55.542969 44.601562 57 41.695312 57 C 40.402344 57 39.109375 56.566406 37.816406 55.703125 L 34.585938 52.789062 L 31.839844 50.199219 C 30.867188 50.308594 30.113281 50.953125 29.578125 52.140625 L 29.253906 52.628906 C 27.636719 55.542969 25.214844 57 21.980469 57 C 20.042969 57 17.671875 55.597656 14.871094 52.789062 L 12.125 50.199219 C 11.265625 50.308594 10.511719 50.953125 9.863281 52.140625 M 24.40625 36.597656 C 26.34375 33.683594 28.824219 32.222656 31.839844 32.222656 L 36.039062 33.519531 L 39.269531 36.597656 L 41.855469 39.027344 L 43.472656 37.40625 L 43.957031 36.597656 C 45.789062 33.683594 48.320312 32.222656 51.550781 32.222656 L 55.589844 33.519531 L 58.820312 36.597656 L 61.570312 39.027344 L 63.667969 39.027344 L 63.667969 44.53125 L 61.40625 44.53125 C 60.007812 44.53125 58.660156 44.046875 57.367188 43.074219 L 54.136719 40.160156 L 51.390625 37.730469 C 50.851562 37.730469 50.3125 38 49.773438 38.539062 L 49.128906 39.511719 L 48.964844 39.996094 C 47.027344 43.019531 44.601562 44.53125 41.695312 44.53125 C 40.402344 44.53125 39.109375 44.046875 37.816406 43.074219 L 34.585938 40.160156 L 31.839844 37.730469 C 31.085938 37.730469 30.332031 38.324219 29.578125 39.511719 L 29.253906 39.996094 C 27.53125 43.019531 25.105469 44.53125 21.980469 44.53125 C 20.691406 44.53125 19.398438 44.046875 18.105469 43.074219 L 14.871094 40.160156 C 13.472656 38.648438 12.558594 37.839844 12.125 37.730469 C 11.371094 37.730469 10.617188 38.324219 9.863281 39.511719 L 9.539062 39.996094 C 7.816406 43.019531 5.394531 44.53125 2.269531 44.53125 L 0.0078125 44.53125 L 0.0078125 39.027344 L 2.269531 39.027344 L 4.207031 37.40625 L 4.695312 36.597656 C 6.523438 33.683594 9.054688 32.222656 12.289062 32.222656 C 13.582031 32.222656 14.925781 32.65625 16.328125 33.519531 L 19.558594 36.597656 L 22.144531 39.027344 C 22.898438 38.917969 23.492188 38.378906 23.921875 37.40625 L 24.40625 36.597656 M 30.707031 22.023438 L 29.898438 19.917969 C 29.253906 19.269531 28.5 18.945312 27.636719 18.945312 L 25.375 19.917969 L 24.40625 22.023438 L 25.375 24.289062 C 26.023438 24.9375 26.777344 25.261719 27.636719 25.261719 C 28.5 25.261719 29.253906 24.9375 29.898438 24.289062 L 30.707031 22.023438 M 20.527344 24.289062 C 21.175781 23.640625 21.496094 22.886719 21.496094 22.023438 L 20.527344 19.917969 L 18.265625 18.945312 C 17.402344 18.945312 16.703125 19.269531 16.164062 19.917969 L 15.195312 22.023438 L 16.164062 24.289062 C 16.703125 24.9375 17.402344 25.261719 18.265625 25.261719 C 19.128906 25.261719 19.882812 24.9375 20.527344 24.289062 M 46.378906 17.488281 L 63.992188 17.488281 L 54.621094 28.660156 L 50.582031 27.203125 C 47.457031 27.203125 44.925781 28.660156 42.988281 31.578125 L 42.664062 32.386719 L 40.886719 34.003906 L 38.300781 31.578125 L 35.070312 28.660156 L 30.867188 27.203125 C 27.636719 27.203125 25.160156 28.660156 23.4375 31.578125 L 22.953125 32.386719 L 21.335938 34.003906 L 18.589844 31.578125 L 15.359375 28.660156 L 11.316406 27.203125 C 9.378906 27.203125 7.601562 27.851562 5.984375 29.148438 L 3.078125 17.652344 L 10.996094 17.652344 L 10.832031 11.171875 L 9.539062 10.6875 L 9.378906 10.847656 L 9.21875 9.714844 L 10.832031 7.933594 L 16.8125 7.773438 L 14.871094 0 L 23.113281 0 L 27.636719 7.773438 L 37.171875 7.773438 L 46.378906 17.488281 M 46.21875 18.945312 C 45.355469 18.945312 44.601562 19.269531 43.957031 19.917969 L 43.148438 22.023438 C 43.148438 22.996094 43.417969 23.75 43.957031 24.289062 C 44.601562 24.9375 45.355469 25.261719 46.21875 25.261719 C 47.1875 25.261719 47.941406 24.9375 48.480469 24.289062 L 49.289062 22.023438 L 48.480469 19.917969 L 46.21875 18.945312 M 33.777344 22.023438 C 33.777344 22.996094 34.101562 23.75 34.746094 24.289062 C 35.394531 24.9375 36.148438 25.261719 37.007812 25.261719 C 37.871094 25.261719 38.570312 24.9375 39.109375 24.289062 L 40.078125 22.023438 L 39.109375 19.917969 C 38.570312 19.269531 37.871094 18.945312 37.007812 18.945312 C 36.148438 18.945312 35.394531 19.269531 34.746094 19.917969 C 34.101562 20.566406 33.777344 21.265625 33.777344 22.023438 M 38.785156 15.222656 L 35.554688 10.527344 L 19.558594 10.6875 L 19.074219 11.171875 L 19.558594 12.792969 L 20.527344 14.25 L 21.496094 15.222656 L 38.785156 15.222656 "/>
</g>
</svg>
