<?xml version="1.0" encoding="UTF-8"?>
<svg xmlns="http://www.w3.org/2000/svg" xmlns:xlink="http://www.w3.org/1999/xlink" width="64pt" height="37pt" viewBox="0 0 64 37" version="1.1">
<g id="surface1">
<path style=" stroke:none;fill-rule:nonzero;fill:rgb(100%,100%,100%);fill-opacity:1;" d="M 52.449219 6.441406 C 51.347656 6.441406 50.25 7.339844 49.152344 9.136719 C 46.054688 7.339844 42.261719 5.941406 37.765625 4.941406 L 26.082031 3.296875 C 21.289062 3.296875 17.046875 4.246094 13.351562 6.140625 C 9.753906 8.140625 7.457031 10.636719 6.460938 13.632812 C 4.460938 14.132812 3.464844 15.03125 3.464844 16.328125 C 3.464844 17.527344 4.460938 18.425781 6.460938 19.023438 C 7.757812 22.71875 10.902344 25.515625 15.898438 27.414062 L 17.394531 30.558594 L 18.441406 32.957031 L 20.089844 33.554688 L 33.125 33.554688 C 33.824219 33.554688 34.472656 33.207031 35.070312 32.507812 L 35.820312 30.558594 L 35.820312 28.3125 C 41.3125 27.214844 45.90625 25.664062 49.601562 23.667969 C 50.398438 24.964844 51.347656 25.617188 52.449219 25.617188 L 52.746094 25.617188 C 55.042969 25.515625 57.339844 24.316406 59.636719 22.019531 C 57.839844 21.921875 56.09375 21.121094 54.394531 19.625 L 55.144531 17.976562 C 58.738281 17.875 60.535156 17.328125 60.535156 16.328125 C 60.535156 15.328125 58.6875 14.730469 54.992188 14.53125 L 53.945312 12.882812 L 57.691406 10.484375 L 59.636719 10.1875 C 57.339844 7.890625 55.042969 6.640625 52.746094 6.441406 L 52.449219 6.441406 M 59.039062 5.242188 L 62.035156 7.640625 C 63.03125 8.738281 63.28125 9.988281 62.785156 11.382812 L 61.882812 12.734375 C 63.28125 13.53125 63.980469 14.730469 63.980469 16.328125 C 63.980469 17.726562 63.382812 18.875 62.183594 19.773438 L 62.785156 20.820312 C 63.28125 22.21875 63.03125 23.417969 62.035156 24.417969 C 59.136719 27.214844 56.09375 28.761719 52.898438 29.0625 L 52.449219 29.0625 C 51.148438 29.0625 49.949219 28.660156 48.851562 27.863281 L 39.414062 30.859375 C 39.316406 32.65625 38.617188 34.152344 37.316406 35.351562 C 36.121094 36.449219 34.722656 37 33.125 37 L 20.089844 37 C 18.292969 37 16.894531 36.402344 15.898438 35.203125 L 14.097656 31.90625 L 13.351562 29.960938 C 8.757812 28.0625 5.511719 25.316406 3.613281 21.71875 C 1.214844 20.421875 0.0195312 18.625 0.0195312 16.328125 C 0.0195312 13.929688 1.214844 12.132812 3.613281 10.933594 C 5.410156 7.539062 8.308594 4.84375 12.300781 2.847656 C 16.394531 0.949219 20.988281 0 26.082031 0 L 37.167969 1.199219 C 41.261719 2.097656 44.957031 3.296875 48.253906 4.792969 C 49.453125 3.59375 50.847656 2.996094 52.449219 2.996094 L 52.898438 2.996094 C 54.992188 3.195312 57.042969 3.945312 59.039062 5.242188 "/>
</g>
</svg>
