<?xml version="1.0" encoding="UTF-8"?>
<svg xmlns="http://www.w3.org/2000/svg" xmlns:xlink="http://www.w3.org/1999/xlink" width="63pt" height="44pt" viewBox="0 0 63 44" version="1.1">
<g id="surface1">
<path style=" stroke:none;fill-rule:nonzero;fill:rgb(100%,100%,100%);fill-opacity:1;" d="M 19.894531 32.757812 C 19.152344 33.507812 18.78125 34.417969 18.78125 35.488281 C 18.78125 36.558594 19.152344 37.46875 19.894531 38.21875 C 20.636719 38.96875 21.539062 39.34375 22.597656 39.34375 C 23.65625 39.34375 24.609375 38.96875 25.460938 38.21875 C 26.199219 37.46875 26.570312 36.558594 26.570312 35.488281 C 26.570312 34.417969 26.199219 33.507812 25.460938 32.757812 C 24.609375 31.902344 23.65625 31.472656 22.597656 31.472656 C 21.539062 31.472656 20.636719 31.902344 19.894531 32.757812 M 16.554688 29.386719 C 18.253906 27.78125 20.265625 26.976562 22.597656 26.976562 C 24.929688 26.976562 26.941406 27.78125 28.636719 29.386719 C 30.335938 31.101562 31.183594 33.132812 31.183594 35.488281 C 31.183594 37.84375 30.335938 39.878906 28.636719 41.589844 C 26.941406 43.195312 24.929688 44 22.597656 44 C 20.265625 44 18.253906 43.195312 16.554688 41.589844 C 14.96875 39.878906 14.171875 37.84375 14.171875 35.488281 C 14.171875 33.132812 14.96875 31.101562 16.554688 29.386719 M 8.925781 7.226562 L 7.175781 7.867188 L 6.542969 9.636719 L 6.542969 15.253906 L 7.175781 17.023438 L 8.925781 17.664062 L 28.480469 17.664062 L 28.480469 7.226562 L 8.925781 7.226562 M 49.144531 2.085938 C 50.523438 3.585938 51.210938 5.351562 51.210938 7.386719 L 51.210938 29.066406 L 62.976562 29.066406 L 62.976562 33.722656 L 33.566406 33.722656 C 33.144531 30.9375 31.925781 28.691406 29.910156 26.976562 C 27.789062 25.050781 25.351562 24.085938 22.597656 24.085938 C 19.84375 24.085938 17.457031 25.050781 15.445312 26.976562 C 13.324219 28.691406 12.050781 30.9375 11.628906 33.722656 L 0.0234375 33.722656 L 0.0234375 7.386719 C 0.0234375 5.351562 0.710938 3.585938 2.089844 2.085938 C 3.574219 0.695312 5.324219 0 7.335938 0 L 44.058594 0 C 46.074219 0 47.769531 0.695312 49.144531 2.085938 M 43.265625 7.226562 L 34.519531 7.226562 L 34.519531 17.664062 L 43.265625 17.664062 L 45.011719 17.023438 L 45.648438 15.253906 L 45.648438 9.636719 L 45.011719 7.867188 L 43.265625 7.226562 "/>
</g>
</svg>
