<?xml version="1.0" encoding="UTF-8"?>
<svg xmlns="http://www.w3.org/2000/svg" xmlns:xlink="http://www.w3.org/1999/xlink" width="64pt" height="64pt" viewBox="0 0 64 64" version="1.1">
<g id="surface1">
<path style=" stroke:none;fill-rule:nonzero;fill:rgb(100%,100%,100%);fill-opacity:1;" d="M 33.171875 0.167969 L 33.171875 0 C 39.761719 0.335938 45.683594 2.402344 50.933594 6.199219 C 56.179688 10.109375 59.867188 15.078125 61.988281 21.109375 L 55.957031 21.109375 C 54.058594 16.976562 51.265625 13.515625 47.582031 10.722656 C 43.785156 8.042969 39.59375 6.421875 35.015625 5.863281 L 33.171875 0.167969 M 62.828125 23.289062 C 63.609375 26.082031 64 28.984375 64 32 C 64 37.027344 62.882812 41.773438 60.648438 46.242188 C 58.527344 50.597656 55.566406 54.28125 51.769531 57.296875 L 49.757812 51.265625 C 52.441406 48.921875 54.507812 46.074219 55.957031 42.722656 C 57.523438 39.371094 58.304688 35.796875 58.304688 32 L 57.800781 26.972656 L 62.828125 23.289062 M 61.988281 22.449219 L 43.394531 35.851562 L 50.597656 57.800781 L 32 44.230469 L 13.402344 57.800781 L 20.605469 35.851562 L 2.011719 22.449219 L 24.796875 22.449219 L 32 0.503906 L 39.203125 22.449219 L 61.988281 22.449219 M 44.734375 54.953125 L 49.757812 58.640625 C 44.398438 62.214844 38.476562 64 32 64 C 25.523438 64 19.601562 62.214844 14.242188 58.640625 L 19.265625 54.953125 C 23.289062 57.1875 27.53125 58.304688 32 58.304688 C 36.46875 58.304688 40.710938 57.1875 44.734375 54.953125 M 30.828125 0.167969 L 28.984375 5.863281 C 24.40625 6.421875 20.214844 8.042969 16.417969 10.722656 C 12.734375 13.515625 9.941406 16.976562 8.042969 21.109375 L 2.011719 21.109375 C 4.132812 15.078125 7.820312 10.109375 13.066406 6.199219 C 18.316406 2.402344 24.238281 0.335938 30.828125 0 L 30.828125 0.167969 M 6.199219 26.972656 L 5.695312 32 C 5.695312 35.796875 6.476562 39.371094 8.042969 42.722656 C 9.492188 46.074219 11.558594 48.921875 14.242188 51.265625 L 12.230469 57.296875 C 8.433594 54.28125 5.472656 50.597656 3.351562 46.242188 C 1.117188 41.773438 0 37.027344 0 32 C 0 28.984375 0.390625 26.082031 1.171875 23.289062 L 6.199219 26.972656 "/>
</g>
</svg>
