<?xml version="1.0" encoding="UTF-8"?>
<svg xmlns="http://www.w3.org/2000/svg" xmlns:xlink="http://www.w3.org/1999/xlink" width="64pt" height="60pt" viewBox="0 0 64 60" version="1.1">
<g id="surface1">
<path style=" stroke:none;fill-rule:nonzero;fill:rgb(100%,100%,100%);fill-opacity:1;" d="M 27.007812 27.78125 L 22.75 27.78125 L 22.75 41.917969 L 27.007812 41.917969 L 27.007812 27.78125 M 55.160156 39.285156 L 51.070312 39.285156 L 51.070312 47.503906 L 55.160156 47.503906 L 55.160156 39.285156 M 47.46875 47.503906 L 47.46875 39.285156 L 43.375 39.285156 L 43.375 47.503906 L 47.46875 47.503906 M 34.535156 27.78125 L 30.609375 27.78125 L 30.609375 41.917969 L 34.535156 41.917969 L 34.535156 27.78125 M 43.375 23.671875 L 40.101562 23.671875 L 40.101562 34.355469 L 49.757812 25.152344 L 64 38.464844 L 60.5625 38.464844 L 60.5625 59.996094 L 55.652344 59.996094 L 55.652344 52.273438 L 51.558594 52.273438 L 51.558594 59.996094 L 31.425781 59.996094 L 31.425781 48.820312 L 27.335938 48.820312 L 27.335938 59.996094 L 15.550781 59.996094 L 15.550781 49.804688 L 9.003906 49.804688 L 9.003906 59.996094 L 3.4375 59.996094 L 3.4375 44.710938 L 0 44.710938 L 18.332031 28.273438 L 18.332031 23.671875 L 15.058594 23.671875 L 21.113281 15.453125 L 21.113281 0.00390625 L 23.570312 0.00390625 L 23.570312 12 L 29.300781 4.441406 L 43.375 23.671875 "/>
</g>
</svg>
