<?xml version="1.0" encoding="UTF-8"?>
<svg xmlns="http://www.w3.org/2000/svg" xmlns:xlink="http://www.w3.org/1999/xlink" width="64pt" height="64pt" viewBox="0 0 64 64" version="1.1">
<g id="surface1">
<path style=" stroke:#000000;stroke-width:3;stroke-opacity:0.5;fill-rule:nonzero;fill:rgb(100%,100%,100%);fill-opacity:1;" d="M 59.746094 59.746094 L 59.746094 14.808594 L 31.320312 4.253906 L 4.253906 14.808594 L 4.253906 59.746094 L 59.746094 59.746094 M 32.851562 0.339844 L 61.105469 10.722656 C 63.035156 11.519531 64 12.878906 64 14.808594 L 64 59.746094 C 64 60.878906 63.601562 61.902344 62.808594 62.808594 C 61.902344 63.601562 60.878906 64 59.746094 64 L 4.253906 64 C 3.121094 64 2.097656 63.601562 1.191406 62.808594 C 0.398438 61.902344 0 60.878906 0 59.746094 L 0 14.808594 C 0 12.878906 0.90625 11.519531 2.722656 10.722656 L 29.789062 0.339844 L 31.320312 0 L 32.851562 0.339844 "/>
</g>
</svg>
