<?xml version="1.0" encoding="UTF-8"?>
<svg xmlns="http://www.w3.org/2000/svg" xmlns:xlink="http://www.w3.org/1999/xlink" width="64pt" height="63pt" viewBox="0 0 64 63" version="1.1">
<g id="surface1">
<path style=" stroke:#000000;stroke-width:3;stroke-opacity:0.5;fill-rule:nonzero;fill:rgb(100%,100%,100%);fill-opacity:1;" d="M 47.71875 48.238281 L 50.265625 48.238281 L 50.265625 52.492188 L 51.824219 52.492188 L 51.824219 48.378906 C 52.957031 48.660156 53.945312 49.085938 54.796875 49.65625 L 55.929688 51.78125 C 55.929688 53.671875 53.757812 54.855469 49.414062 55.328125 L 46.160156 55.46875 C 41.910156 55.46875 39.789062 54.429688 39.789062 52.351562 C 39.789062 49.609375 42.429688 48.238281 47.71875 48.238281 M 33.980469 15.757812 L 34.832031 15.757812 L 34.832031 14.761719 L 21.238281 9.375 L 7.929688 14.761719 L 7.929688 15.757812 L 8.777344 15.757812 L 8.777344 16.464844 L 11.328125 16.464844 L 11.328125 23.132812 L 9.34375 23.132812 L 9.34375 27.671875 L 20.957031 26.253906 L 33.414062 27.8125 L 33.414062 23.132812 L 31.433594 23.132812 L 31.433594 16.464844 L 33.980469 16.464844 L 33.980469 15.757812 M 55.078125 3.417969 L 55.222656 3.558594 L 55.222656 43.128906 C 58.714844 44.074219 61.074219 45.730469 62.300781 48.09375 C 63.433594 50.457031 63.199219 53.058594 61.59375 55.894531 C 60.460938 58.164062 57.863281 59.914062 53.804688 61.144531 L 44.035156 62.84375 L 36.246094 62.988281 C 27.46875 62.988281 19.585938 61.710938 12.601562 59.15625 C 9.203125 57.929688 6.371094 56.273438 4.105469 54.195312 C 1.464844 51.828125 0.09375 49.277344 0 46.535156 C 0 41.710938 3.824219 37.742188 11.46875 34.621094 C 15.71875 32.917969 19.917969 32.066406 24.070312 32.066406 C 28.980469 32.066406 33.699219 33.25 38.230469 35.613281 C 40.96875 37.03125 43.136719 38.542969 44.742188 40.152344 L 44.886719 40.152344 L 45.453125 40.578125 L 46.867188 41.429688 L 46.867188 16.039062 L 37.664062 13.0625 L 38.230469 14.761719 L 38.230469 15.757812 C 38.230469 17.078125 37.664062 18.074219 36.53125 18.734375 L 34.832031 19.871094 L 34.832031 20.152344 C 36.152344 20.71875 36.8125 21.714844 36.8125 23.132812 L 36.8125 27.8125 C 36.8125 28.851562 36.34375 29.75 35.398438 30.507812 L 33.414062 31.214844 L 32.425781 31.074219 L 20.957031 29.65625 L 10.195312 30.933594 L 9.34375 31.074219 C 8.496094 31.074219 7.789062 30.839844 7.222656 30.367188 C 6.371094 29.703125 5.945312 28.804688 5.945312 27.671875 L 5.945312 23.132812 C 5.945312 21.617188 6.609375 20.578125 7.929688 20.011719 L 7.929688 19.871094 C 7.175781 19.679688 6.511719 19.253906 5.945312 18.59375 C 5.003906 17.835938 4.53125 16.890625 4.53125 15.757812 L 4.53125 14.761719 C 4.53125 13.25 5.238281 12.210938 6.65625 11.644531 L 19.964844 6.253906 L 21.238281 5.96875 L 22.511719 6.253906 L 32.566406 10.367188 L 32.140625 8.664062 L 32.847656 6.679688 L 34.546875 5.402344 L 50.691406 0.15625 L 51.679688 0.0117188 L 53.804688 0.722656 C 54.65625 1.382812 55.078125 2.28125 55.078125 3.417969 M 51.679688 3.558594 L 51.679688 3.417969 L 35.539062 8.664062 L 50.265625 13.769531 L 50.265625 45.542969 L 48 45.257812 C 46.585938 45.070312 45.261719 44.550781 44.035156 43.699219 L 42.476562 42.5625 C 37.097656 37.835938 30.960938 35.472656 24.070312 35.472656 C 20.390625 35.472656 16.613281 36.226562 12.742188 37.742188 C 5.378906 40.765625 2.40625 44.21875 3.824219 48.09375 C 4.957031 51.402344 8.257812 54.003906 13.734375 55.894531 C 20.4375 58.355469 27.941406 59.582031 36.246094 59.582031 L 43.894531 59.441406 L 53.378906 57.738281 C 56.210938 56.699219 57.957031 55.566406 58.621094 54.335938 C 60.035156 51.6875 59.847656 49.609375 58.054688 48.09375 C 56.824219 47.148438 54.75 46.34375 51.824219 45.683594 L 51.824219 3.558594 L 51.679688 3.558594 "/>
</g>
</svg>
