<?xml version="1.0" encoding="UTF-8"?>
<svg xmlns="http://www.w3.org/2000/svg" xmlns:xlink="http://www.w3.org/1999/xlink" width="63pt" height="61pt" viewBox="0 0 63 61" version="1.1">
<g id="surface1">
<path style=" stroke:none;fill-rule:nonzero;fill:rgb(100%,100%,100%);fill-opacity:1;" d="M 33.523438 23.386719 L 32.40625 22.820312 L 31.570312 23.105469 C 32.128906 22.257812 32.035156 21.554688 31.289062 20.992188 L 31.152344 20.992188 C 29.476562 20.992188 26.777344 22.304688 23.054688 24.933594 C 18.398438 28.128906 15.605469 31.605469 14.675781 35.359375 C 14.304688 36.769531 13.28125 37.472656 11.605469 37.472656 L 8.394531 36.207031 C 7.460938 35.171875 7.183594 33.859375 7.554688 32.261719 C 8.300781 30.289062 9.882812 28.457031 12.300781 26.765625 L 22.214844 18.878906 C 24.914062 16.246094 26.355469 13.804688 26.542969 11.550781 C 26.730469 9.578125 25.9375 7.75 24.167969 6.058594 C 22.496094 4.273438 20.308594 3.382812 17.609375 3.382812 L 13.28125 4.226562 C 11.882812 4.695312 10.8125 5.351562 10.066406 6.199219 L 9.507812 7.75 C 9.230469 8.78125 9.371094 9.484375 9.929688 9.863281 C 10.488281 10.238281 10.347656 11.082031 9.507812 12.398438 L 8.671875 14.652344 L 8.8125 14.652344 C 9.554688 14.652344 11 13.195312 13.140625 10.285156 L 15.09375 8.734375 C 16.582031 7.703125 17.980469 7.183594 19.28125 7.183594 C 20.308594 7.183594 21.238281 7.558594 22.074219 8.3125 C 23.097656 9.34375 23.519531 10.332031 23.332031 11.269531 C 23.238281 12.867188 21.84375 14.886719 19.144531 17.328125 C 17.375 18.925781 14.441406 21.179688 10.347656 24.089844 C 7.925781 25.78125 6.160156 27.707031 5.042969 29.867188 C 3.925781 32.027344 3.550781 34.28125 3.925781 36.628906 C 4.484375 39.820312 6.25 42.6875 9.230469 45.222656 L 12.859375 48.320312 C 11.183594 48.882812 9.835938 49.917969 8.8125 51.421875 L 8.53125 52.125 L 6.996094 53.394531 L 5.179688 53.394531 L 5.179688 57.617188 L 6.996094 57.617188 C 9.324219 57.617188 11.230469 56.445312 12.722656 54.097656 L 12.859375 53.816406 C 13.417969 52.875 13.976562 52.359375 14.535156 52.265625 L 16.628906 54.238281 C 18.769531 56.492188 20.632812 57.617188 22.214844 57.617188 C 24.542969 57.617188 26.402344 56.445312 27.800781 54.097656 L 27.941406 53.816406 L 29.753906 52.265625 L 31.988281 54.238281 L 34.363281 56.492188 C 35.386719 57.242188 36.410156 57.617188 37.433594 57.617188 C 39.855469 57.617188 41.714844 56.445312 43.019531 54.097656 L 43.160156 53.816406 L 43.71875 53.109375 C 44.089844 52.640625 44.507812 52.359375 44.972656 52.265625 L 47.066406 54.238281 L 49.582031 56.492188 C 50.511719 57.242188 51.535156 57.617188 52.652344 57.617188 L 54.328125 57.617188 L 54.328125 53.394531 L 52.792969 53.394531 L 50.699219 51.421875 L 47.765625 49.167969 L 49.441406 48.039062 L 51.117188 46.347656 C 53.910156 43.71875 56.5625 39.210938 59.074219 32.824219 L 42.878906 35.359375 L 41.34375 33.8125 L 41.203125 33.386719 L 39.945312 32.824219 L 39.109375 33.105469 C 39.761719 32.355469 39.808594 31.652344 39.25 30.992188 C 38.96875 30.523438 38.550781 30.289062 37.992188 30.289062 L 37.433594 30.429688 L 37.292969 30.429688 C 37.851562 29.867188 37.898438 29.207031 37.433594 28.457031 L 36.175781 27.753906 L 35.480469 27.894531 L 35.480469 27.753906 C 36.128906 27.1875 36.128906 26.578125 35.480469 25.921875 L 34.363281 25.21875 L 33.664062 25.5 L 33.664062 25.359375 C 34.222656 24.605469 34.175781 23.949219 33.523438 23.386719 M 33.386719 18.453125 L 34.640625 20.003906 L 36.039062 21.132812 L 37.015625 22.539062 L 38.273438 23.808594 L 38.96875 25.21875 L 40.226562 26.484375 L 40.925781 27.894531 L 42.042969 29.019531 L 42.601562 30.289062 L 43.71875 31.132812 L 43.996094 31.699219 L 58.515625 29.445312 L 59.074219 29.445312 C 60.191406 29.445312 61.078125 29.867188 61.726562 30.710938 C 62.566406 31.746094 62.707031 32.871094 62.148438 34.09375 L 59.355469 40.148438 C 57.304688 44 55.304688 46.914062 53.351562 48.882812 L 53.070312 49.167969 L 53.910156 50.011719 L 54.328125 50.011719 C 55.351562 50.011719 56.144531 50.339844 56.703125 50.996094 L 57.679688 53.394531 L 57.679688 57.617188 L 56.703125 60.015625 L 54.328125 61 L 52.652344 61 C 50.234375 61 47.71875 59.683594 45.113281 57.054688 C 42.972656 59.683594 40.414062 61 37.433594 61 C 35.015625 61 32.5 59.683594 29.894531 57.054688 C 27.941406 59.683594 25.378906 61 22.214844 61 C 19.796875 61 17.328125 59.683594 14.816406 57.054688 C 12.765625 59.683594 10.160156 61 6.996094 61 L 5.179688 61 C 4.34375 61 3.550781 60.671875 2.808594 60.015625 C 2.15625 59.355469 1.832031 58.558594 1.832031 57.617188 L 1.832031 53.394531 C 1.832031 52.546875 2.15625 51.75 2.808594 50.996094 C 3.550781 50.339844 4.34375 50.011719 5.179688 50.011719 L 5.738281 50.011719 L 6.160156 49.589844 L 7.277344 48.039062 L 7.136719 47.898438 C 3.507812 44.894531 1.320312 41.277344 0.574219 37.050781 C 0.203125 34.140625 0.667969 31.320312 1.96875 28.597656 C 3.367188 25.78125 5.554688 23.339844 8.53125 21.273438 C 15.792969 16.199219 19.609375 12.820312 19.980469 11.128906 L 19.703125 10.707031 L 19.28125 10.566406 C 18.351562 10.566406 17.140625 11.222656 15.652344 12.539062 C 12.953125 16.199219 10.671875 18.03125 8.8125 18.03125 L 7.554688 17.890625 C 6.53125 17.421875 5.785156 16.625 5.320312 15.496094 C 4.949219 14.277344 5.320312 12.773438 6.4375 10.988281 L 6.578125 10.847656 C 5.648438 9.0625 5.878906 6.949219 7.277344 4.507812 L 7.695312 3.804688 C 8.90625 2.582031 10.394531 1.644531 12.164062 0.984375 L 17.609375 0 C 21.144531 0 24.125 1.175781 26.542969 3.523438 C 29.054688 5.964844 30.171875 8.734375 29.894531 11.832031 C 29.707031 14.277344 28.683594 16.625 26.824219 18.878906 L 31.152344 17.609375 L 33.386719 18.453125 "/>
</g>
</svg>
