<?xml version="1.0" encoding="UTF-8"?>
<svg xmlns="http://www.w3.org/2000/svg" xmlns:xlink="http://www.w3.org/1999/xlink" width="64pt" height="63pt" viewBox="0 0 64 63" version="1.1">
<g id="surface1">
<path style=" stroke:none;fill-rule:nonzero;fill:rgb(100%,100%,100%);fill-opacity:1;" d="M 21.011719 51.027344 L 28.445312 38.113281 L 32 39.070312 L 35.554688 38.273438 L 42.988281 51.027344 C 39.542969 52.941406 35.878906 53.894531 32 53.894531 C 28.121094 53.894531 24.457031 52.941406 21.011719 51.027344 M 12.28125 20.101562 C 14.222656 16.703125 16.863281 13.992188 20.203125 11.972656 L 28.28125 25.839844 C 26.019531 27.222656 24.890625 29.242188 24.890625 31.898438 L 24.890625 32.058594 L 9.050781 32.058594 L 9.050781 31.261719 C 9.050781 27.222656 10.128906 23.503906 12.28125 20.101562 M 32 0.0195312 C 40.835938 0.0195312 48.378906 3.101562 54.625 9.261719 C 60.875 15.320312 64 22.707031 64 31.421875 C 64 40.132812 60.875 47.574219 54.625 53.738281 C 48.378906 59.898438 40.835938 62.980469 32 62.980469 C 23.164062 62.980469 15.621094 59.898438 9.375 53.738281 C 3.125 47.574219 0 40.132812 0 31.421875 C 0 22.707031 3.125 15.320312 9.375 9.261719 C 15.621094 3.101562 23.164062 0.0195312 32 0.0195312 M 51.71875 12.132812 C 46.222656 6.714844 39.648438 4.003906 32 4.003906 C 24.351562 4.003906 17.777344 6.714844 12.28125 12.132812 C 6.894531 17.445312 4.203125 23.875 4.203125 31.421875 C 4.203125 38.964844 6.894531 45.449219 12.28125 50.867188 C 17.777344 56.179688 24.351562 58.835938 32 58.835938 C 39.648438 58.835938 46.222656 56.179688 51.71875 50.867188 C 57.105469 45.449219 59.796875 38.964844 59.796875 31.421875 C 59.796875 23.875 57.105469 17.445312 51.71875 12.132812 M 43.796875 11.972656 C 47.136719 13.992188 49.832031 16.703125 51.878906 20.101562 C 53.925781 23.503906 54.949219 27.222656 54.949219 31.261719 L 54.949219 32.058594 L 39.273438 32.058594 L 39.273438 31.898438 C 39.273438 29.242188 38.085938 27.222656 35.71875 25.839844 L 43.796875 11.972656 M 32 27.59375 C 33.183594 27.59375 34.207031 28.019531 35.070312 28.871094 C 36.039062 29.71875 36.523438 30.78125 36.523438 32.058594 L 35.070312 35.085938 C 34.207031 35.9375 33.183594 36.363281 32 36.363281 C 30.816406 36.363281 29.792969 35.9375 28.929688 35.085938 L 27.476562 32.058594 C 27.476562 30.78125 27.960938 29.71875 28.929688 28.871094 C 29.792969 28.019531 30.816406 27.59375 32 27.59375 "/>
</g>
</svg>
