<?xml version="1.0" encoding="UTF-8"?>
<svg xmlns="http://www.w3.org/2000/svg" xmlns:xlink="http://www.w3.org/1999/xlink" width="63pt" height="60pt" viewBox="0 0 63 60" version="1.1">
<g id="surface1">
<path style=" stroke:#000000;stroke-width:3;stroke-opacity:0.5;fill-rule:nonzero;fill:rgb(100%,100%,100%);fill-opacity:1;" d="M 38.769531 8.839844 C 38.214844 6.410156 37.0625 4.726562 35.308594 3.792969 L 33.230469 3.371094 L 29.769531 4.492188 L 26.445312 5.894531 L 25.890625 5.894531 L 23.261719 5.753906 L 20.628906 5.335938 L 17.722656 6.175781 C 16.339844 7.296875 15.738281 8.699219 15.921875 10.378906 C 16.109375 12.15625 17.261719 14.117188 19.382812 16.265625 C 21.601562 18.320312 23.863281 21.40625 26.167969 25.515625 C 23.585938 24.769531 20.863281 22.664062 18 19.207031 C 16.0625 16.78125 13.707031 15.566406 10.9375 15.566406 L 7.753906 16.40625 C 6.460938 17.152344 5.675781 18.695312 5.398438 21.03125 L 5.125 26.496094 L 4.152344 31.121094 C 3.691406 32.894531 3.601562 34.25 3.875 35.183594 L 5.398438 38.128906 C 6.324219 39.25 7.476562 39.808594 8.863281 39.808594 C 10.523438 39.808594 12.460938 38.78125 14.675781 36.726562 C 18.09375 33.550781 21.136719 31.960938 23.816406 31.960938 L 26.03125 32.382812 C 21.507812 35.371094 18 38.316406 15.507812 41.210938 C 13.9375 42.988281 12.460938 45.742188 11.078125 49.480469 L 9.414062 54.523438 L 14.539062 56.628906 C 14.445312 51.207031 16.429688 45.789062 20.492188 40.371094 C 22.523438 37.566406 24.554688 35.371094 26.585938 33.785156 C 27.324219 34.53125 27 36.167969 25.617188 38.6875 C 24.136719 41.585938 23.261719 44.480469 22.984375 47.378906 C 22.523438 51.300781 23.585938 53.964844 26.167969 55.367188 L 27.96875 55.785156 L 32.261719 54.246094 L 36.691406 52.003906 L 38.628906 51.722656 L 40.429688 52.003906 L 42.09375 52.144531 L 45.96875 50.742188 C 48 49.433594 48.507812 47.65625 47.492188 45.414062 C 46.660156 43.640625 45.230469 41.957031 43.199219 40.371094 C 37.199219 35.699219 34.476562 33.128906 35.03125 32.664062 L 35.167969 32.664062 L 40.847656 34.484375 C 44.445312 35.792969 47.722656 36.445312 50.675781 36.445312 L 52.617188 36.445312 C 55.199219 36.167969 57 35.230469 58.015625 33.644531 C 58.9375 32.054688 58.800781 30.375 57.601562 28.597656 L 55.523438 24.675781 L 55.109375 18.789062 C 55.109375 15.519531 53.863281 13.882812 51.371094 13.882812 C 49.617188 13.882812 47.539062 14.585938 45.136719 15.984375 C 43.199219 17.105469 40.984375 19.164062 38.492188 22.152344 L 35.03125 26.074219 L 34.753906 26.074219 C 34.660156 25.796875 35.078125 24.535156 36 22.292969 L 38.492188 15.707031 C 39.230469 13.277344 39.324219 10.988281 38.769531 8.839844 M 51.371094 10.519531 C 53.308594 10.519531 54.921875 11.128906 56.214844 12.34375 C 57.691406 13.835938 58.429688 15.9375 58.429688 18.648438 L 58.847656 23.695312 L 60.371094 26.777344 C 62.125 29.300781 62.398438 31.867188 61.199219 34.484375 C 59.816406 37.566406 57.046875 39.34375 52.890625 39.808594 L 47.214844 39.53125 C 49.984375 42.332031 51.324219 45.089844 51.230469 47.796875 C 51.136719 50.226562 49.9375 52.1875 47.628906 53.683594 L 42.09375 55.507812 L 39.738281 55.085938 L 37.800781 55.085938 L 34.890625 56.628906 C 32.03125 58.308594 29.722656 59.148438 27.96875 59.148438 L 24.644531 58.308594 C 21.136719 56.441406 19.476562 53.171875 19.660156 48.5 C 18.460938 51.207031 17.863281 53.917969 17.863281 56.628906 C 17.863281 57.839844 17.355469 58.824219 16.339844 59.570312 L 14.539062 59.992188 L 13.152344 59.710938 L 8.167969 57.46875 L 6.507812 55.925781 L 6.230469 53.542969 L 10.246094 42.894531 L 8.863281 43.171875 C 6.738281 43.171875 4.9375 42.378906 3.460938 40.792969 C 2.167969 39.578125 1.246094 38.035156 0.691406 36.167969 C 0.230469 34.578125 0.414062 32.101562 1.246094 28.738281 L 1.9375 26.074219 L 1.9375 23.832031 L 2.628906 18.367188 C 3.183594 16.125 4.382812 14.492188 6.230469 13.464844 L 10.9375 12.203125 L 13.015625 12.480469 C 12.554688 11.359375 12.414062 10.285156 12.601562 9.257812 C 12.691406 6.921875 13.707031 5.007812 15.644531 3.511719 C 17.125 2.484375 18.785156 1.972656 20.628906 1.972656 L 23.816406 2.390625 L 25.890625 2.53125 L 26.167969 2.53125 L 27.96875 1.691406 C 30 0.570312 31.753906 0.0078125 33.230469 0.0078125 L 36.832031 0.851562 C 38.953125 1.972656 40.523438 3.792969 41.539062 6.316406 C 42.371094 8.558594 42.601562 11.082031 42.230469 13.882812 L 43.476562 13.042969 C 46.429688 11.359375 49.0625 10.519531 51.371094 10.519531 "/>
</g>
</svg>
