<?xml version="1.0" encoding="UTF-8"?>
<svg xmlns="http://www.w3.org/2000/svg" xmlns:xlink="http://www.w3.org/1999/xlink" width="63pt" height="49pt" viewBox="0 0 63 49" version="1.1">
<g id="surface1">
<path style=" stroke:none;fill-rule:nonzero;fill:rgb(100%,100%,100%);fill-opacity:1;" d="M 34.457031 26.523438 L 34.457031 34.914062 L 9.023438 34.914062 L 9.023438 26.523438 L 34.457031 26.523438 M 57.230469 24.125 L 59.597656 24.125 L 59.597656 20.078125 L 3.402344 20.078125 L 3.402344 24.125 L 5.769531 24.125 L 5.769531 45.554688 L 25.140625 45.554688 L 25.140625 40.457031 L 37.710938 40.457031 L 37.710938 45.554688 L 57.230469 45.554688 L 57.230469 24.125 M 41.40625 26.523438 L 53.832031 26.523438 L 53.832031 34.914062 L 41.40625 34.914062 L 41.40625 26.523438 M 63 16.632812 L 63 27.273438 L 60.632812 27.273438 L 60.632812 49 L 2.367188 49 L 2.367188 27.273438 L 0 27.273438 L 0 16.632812 L 63 16.632812 "/>
<path style=" stroke:none;fill-rule:nonzero;fill:rgb(100%,100%,100%);fill-opacity:1;" d="M 52.054688 2.246094 L 49.691406 2.246094 L 49.691406 0 L 52.941406 0 L 52.941406 20.078125 L 49.691406 20.078125 L 49.691406 10.789062 L 52.054688 10.789062 L 52.054688 7.34375 L 49.691406 7.34375 L 49.691406 5.695312 L 52.054688 5.695312 L 52.054688 2.246094 "/>
</g>
</svg>
