<?xml version="1.0" encoding="UTF-8"?>
<svg xmlns="http://www.w3.org/2000/svg" xmlns:xlink="http://www.w3.org/1999/xlink" width="64pt" height="86pt" viewBox="0 0 64 86" version="1.1">
<g id="surface1">
<path style=" stroke:#000000;stroke-width:3;stroke-opacity:0.5;fill-rule:nonzero;fill:rgb(100%,100%,100%);fill-opacity:1;" d="M 36.207031 9.886719 L 31.902344 4.65625 L 27.792969 9.886719 L 20.941406 66.238281 C 13.636719 69.078125 8.414062 74.113281 5.285156 81.34375 L 58.714844 81.34375 C 55.453125 74.113281 50.167969 69.078125 42.863281 66.238281 L 36.207031 9.886719 M 31.902344 0.0078125 C 33.46875 0.0078125 34.707031 0.589844 35.621094 1.753906 L 39.925781 6.980469 L 40.90625 9.304688 L 47.363281 63.140625 C 54.539062 66.625 59.757812 72.046875 63.019531 79.40625 C 63.671875 80.957031 63.542969 82.441406 62.628906 83.859375 C 61.714844 85.28125 60.410156 85.992188 58.714844 85.992188 L 5.285156 85.992188 C 3.589844 85.992188 2.21875 85.28125 1.175781 83.859375 C 0.390625 82.441406 0.328125 80.957031 0.980469 79.40625 C 4.109375 72.046875 9.328125 66.625 16.636719 63.140625 L 23.09375 9.304688 L 24.074219 6.980469 L 28.183594 1.753906 C 29.226562 0.589844 30.46875 0.0078125 31.902344 0.0078125 "/>
</g>
</svg>
