<?xml version="1.0" encoding="UTF-8"?>
<svg xmlns="http://www.w3.org/2000/svg" xmlns:xlink="http://www.w3.org/1999/xlink" width="63pt" height="44pt" viewBox="0 0 63 44" version="1.1">
<g id="surface1">
<path style=" stroke:#000000;stroke-width:3;stroke-opacity:0.5;fill-rule:nonzero;fill:rgb(100%,100%,100%);fill-opacity:1;" d="M 37.527344 30.785156 L 36.207031 31.453125 C 37.417969 31.898438 38.023438 32.679688 38.023438 33.792969 L 37.195312 35.46875 L 35.378906 36.304688 L 33.5625 35.46875 L 32.738281 33.792969 L 32.902344 33.292969 L 28.28125 35.96875 L 30.921875 39.984375 C 32.242188 40.878906 33.730469 41.324219 35.378906 41.324219 C 37.363281 41.324219 39.125 40.542969 40.664062 38.980469 C 42.09375 37.53125 42.8125 35.800781 42.8125 33.792969 L 42.152344 30.785156 L 37.527344 30.785156 M 57.507812 0.5 L 57.835938 0 L 58.664062 0.5 L 58.664062 0.667969 L 58.828125 0.667969 L 59.984375 1.671875 L 62.296875 6.859375 C 62.734375 7.527344 62.734375 7.976562 62.296875 8.199219 L 62.296875 9.367188 L 61.636719 9.535156 L 61.140625 9.203125 L 61.140625 9.035156 L 54.863281 13.214844 L 46.9375 18.234375 L 46.9375 30.785156 L 44.792969 30.785156 L 45.121094 33.792969 C 45.121094 36.582031 44.242188 38.980469 42.480469 40.988281 C 40.5 42.996094 38.132812 44 35.378906 44 C 33.179688 44 31.253906 43.441406 29.601562 42.328125 C 27.949219 41.101562 26.738281 39.484375 25.96875 37.476562 L 15.894531 43.5 L 0.0429688 43.5 L 0.0429688 40.652344 C 0.484375 39.316406 1.363281 38.644531 2.6875 38.644531 C 3.785156 38.644531 4.667969 39.316406 5.328125 40.652344 L 5.492188 40.652344 L 12.261719 38.480469 L 16.0625 33.292969 L 13.914062 34.128906 C 13.144531 34.464844 12.429688 34.183594 11.769531 33.292969 L 11.105469 31.785156 C 10.226562 31.898438 9.566406 31.507812 9.125 30.617188 C 8.574219 29.835938 8.628906 29 9.292969 28.105469 L 8.628906 26.601562 L 8.464844 25.261719 L 9.292969 24.425781 C 16.996094 20.074219 26.738281 15.222656 38.519531 9.871094 L 57.339844 1.503906 L 57.339844 1.339844 L 57.507812 0.5 "/>
</g>
</svg>
