<?xml version="1.0" encoding="UTF-8"?>
<svg xmlns="http://www.w3.org/2000/svg" xmlns:xlink="http://www.w3.org/1999/xlink" width="64pt" height="64pt" viewBox="0 0 64 64" version="1.1">
<g id="surface1">
<path style=" stroke:none;fill-rule:nonzero;fill:rgb(100%,100%,100%);fill-opacity:1;" d="M 32.832031 9.832031 L 32.832031 3.332031 L 31.332031 3.332031 L 31.332031 9.832031 C 29.109375 9.945312 27.5 10.890625 26.5 12.667969 L 25.667969 15.332031 L 25.667969 22 L 23 22.667969 L 23 27.167969 L 20.332031 28.832031 L 13.167969 28.832031 L 13.167969 33 L 6.832031 36.667969 L 10 36.667969 L 10 57.167969 L 3.5 57.167969 L 3.5 60.5 L 60.5 60.5 L 60.5 57.167969 L 53.167969 57.167969 L 53.167969 36.667969 L 57 36.667969 L 50.5 32.832031 L 50.5 28.832031 L 43.332031 28.832031 L 41 27.5 L 41 22.667969 L 38.5 22 L 38.5 15.332031 L 37.667969 12.667969 C 36.667969 10.890625 35.054688 9.945312 32.832031 9.832031 M 35.167969 1 L 36.167969 3.332031 L 36.167969 7.167969 C 38.167969 7.832031 39.667969 9.054688 40.667969 10.832031 L 42 15.167969 L 42 19.332031 L 43.832031 20.667969 L 44.5 22.667969 L 44.5 25.332031 L 50.5 25.332031 L 53 26.332031 L 54 28.832031 L 54 30.832031 L 58.832031 33.667969 C 60.277344 34.554688 60.832031 35.832031 60.5 37.5 L 59.167969 39.332031 L 57 40.167969 L 56.5 40.167969 L 56.5 53.667969 L 60.5 53.667969 C 61.5 53.667969 62.332031 54.054688 63 54.832031 L 64 57.167969 L 64 60.5 L 63 62.832031 L 60.5 64 L 3.5 64 L 1 62.832031 L 0 60.5 L 0 57.167969 L 1 54.832031 C 1.667969 54.054688 2.5 53.667969 3.5 53.667969 L 6.5 53.667969 L 6.5 40.167969 C 4.832031 39.945312 3.832031 39.054688 3.5 37.5 L 3.667969 35.332031 L 5.167969 33.667969 L 9.667969 31 L 9.667969 28.832031 L 10.667969 26.332031 L 13.167969 25.332031 L 19.5 25.332031 L 19.5 22.667969 L 20.167969 20.667969 L 22 19.332031 L 22.167969 19.332031 L 22.167969 15.167969 C 22.167969 13.722656 22.609375 12.277344 23.5 10.832031 L 28 7.167969 L 28 3.332031 L 29 1 L 31.332031 0 L 32.832031 0 L 35.167969 1 "/>
</g>
</svg>
