<?xml version="1.0" encoding="UTF-8"?>
<svg xmlns="http://www.w3.org/2000/svg" xmlns:xlink="http://www.w3.org/1999/xlink" width="64pt" height="58pt" viewBox="0 0 64 58" version="1.1">
<g id="surface1">
<path style=" stroke:#000000;stroke-width:3;stroke-opacity:0.5;fill-rule:nonzero;fill:rgb(100%,100%,100%);fill-opacity:1;" d="M 19.328125 31.796875 L 17.902344 35.148438 L 17.109375 38.503906 C 17.320312 39.78125 19.117188 40.953125 22.496094 42.015625 L 22.335938 43.136719 L 22.8125 44.574219 L 25.980469 45.53125 L 30.734375 46.167969 C 31.367188 46.0625 31.683594 45.105469 31.683594 43.292969 C 33.585938 43.402344 36.277344 42.710938 39.761719 41.21875 C 43.5625 39.726562 46.414062 38.023438 48.316406 36.109375 L 46.574219 32.59375 C 55.339844 31.953125 60.671875 33.125 62.574219 36.109375 C 63.523438 38.023438 62.628906 40.6875 59.882812 44.09375 L 52.117188 51.441406 C 48 54.953125 42.191406 56.871094 34.691406 57.191406 C 25.1875 57.722656 17.425781 56.019531 11.40625 52.078125 C 5.386719 48.140625 1.691406 42.285156 0.316406 34.511719 C 0.105469 31.421875 0.476562 29.664062 1.425781 29.238281 C 4.277344 28.066406 10.246094 28.921875 19.328125 31.796875 M 25.980469 37.386719 L 29.148438 37.863281 C 29.570312 37.863281 29.675781 38.078125 29.464844 38.503906 L 28.832031 42.816406 L 28.355469 43.292969 L 25.1875 42.816406 L 24.710938 42.175781 L 25.347656 37.863281 L 25.980469 37.386719 M 34.535156 1.609375 C 35.0625 1.074219 35.90625 0.542969 37.070312 0.0117188 L 38.496094 0.0117188 L 43.722656 7.835938 C 45.835938 11.246094 48.160156 13.320312 50.691406 14.066406 C 51.328125 13.640625 51.800781 12.683594 52.117188 11.191406 L 53.386719 7.835938 C 55.5 14.757812 56.660156 19.976562 56.871094 23.488281 L 54.96875 19.496094 L 52.277344 15.984375 L 51.960938 18.378906 L 51.167969 20.296875 C 50.21875 19.976562 48.582031 19.125 46.257812 17.738281 C 44.25 16.460938 42.457031 15.609375 40.871094 15.183594 L 43.089844 22.851562 L 45.464844 30.675781 C 41.242188 33.976562 36.648438 36.160156 31.683594 37.226562 C 31.683594 35.839844 30.414062 35.042969 27.882812 34.828125 C 25.347656 34.617188 23.921875 35.042969 23.605469 36.109375 C 21.070312 34.191406 19.695312 32.539062 19.484375 31.15625 L 22.179688 22.851562 C 26.71875 11.5625 30.839844 4.484375 34.535156 1.609375 "/>
</g>
</svg>
