<?xml version="1.0" encoding="UTF-8"?>
<svg xmlns="http://www.w3.org/2000/svg" xmlns:xlink="http://www.w3.org/1999/xlink" width="64pt" height="52pt" viewBox="0 0 64 52" version="1.1">
<g id="surface1">
<path style=" stroke:none;fill-rule:nonzero;fill:rgb(100%,100%,100%);fill-opacity:1;" d="M 35.140625 39.851562 L 35.140625 30.273438 L 6.28125 30.273438 L 6.28125 39.851562 L 35.140625 39.851562 M 57.378906 30.273438 L 42.949219 30.273438 L 42.949219 39.851562 L 57.378906 39.851562 L 57.378906 30.273438 M 64 22.921875 L 64 27.539062 L 61.113281 27.539062 L 61.113281 51.992188 L 38.875 51.992188 L 38.875 46.175781 L 24.277344 46.175781 L 24.277344 51.992188 L 2.714844 51.992188 L 2.714844 27.539062 L 0 27.539062 L 0 22.921875 L 64 22.921875 "/>
<path style=" stroke:none;fill-rule:nonzero;fill:rgb(100%,100%,100%);fill-opacity:1;" d="M 55.34375 2.574219 L 52.625 2.574219 L 52.625 0.0078125 L 56.359375 0.0078125 L 56.359375 22.921875 L 52.625 22.921875 L 52.625 12.320312 L 55.34375 12.320312 L 55.34375 8.386719 L 52.625 8.386719 L 52.625 6.507812 L 55.34375 6.507812 L 55.34375 2.574219 "/>
</g>
</svg>
