<?xml version="1.0" encoding="UTF-8"?>
<svg xmlns="http://www.w3.org/2000/svg" xmlns:xlink="http://www.w3.org/1999/xlink" width="63pt" height="34pt" viewBox="0 0 63 34" version="1.1">
<g id="surface1">
<path style=" stroke:none;fill-rule:nonzero;fill:rgb(100%,100%,100%);fill-opacity:1;" d="M 30.753906 29.449219 L 18.117188 29.449219 L 17.121094 30.292969 L 18.117188 31.300781 L 30.753906 31.300781 L 31.75 30.292969 L 30.753906 29.449219 M 63 14.644531 C 63 15.765625 61.0625 16.382812 57.183594 16.496094 L 56.351562 18.347656 C 58.125 20.027344 60.007812 20.925781 62.003906 21.039062 C 59.453125 23.617188 56.960938 24.964844 54.523438 25.074219 C 53.304688 25.300781 52.085938 24.570312 50.867188 22.886719 C 46.765625 25.132812 41.722656 26.871094 35.738281 28.105469 L 35.738281 30.628906 L 34.90625 32.816406 C 34.242188 33.601562 33.523438 33.992188 32.746094 33.992188 L 18.117188 33.992188 L 16.457031 33.320312 L 15.292969 30.628906 L 13.796875 27.09375 C 8.035156 24.964844 4.433594 21.824219 2.992188 17.671875 C 0.996094 17 0 15.992188 0 14.644531 C 0 13.1875 0.996094 12.175781 2.992188 11.617188 C 4.101562 8.25 6.648438 5.445312 10.636719 3.203125 C 14.847656 1.074219 19.558594 0.0078125 24.769531 0.0078125 L 38.066406 1.859375 C 42.832031 2.980469 46.929688 4.550781 50.367188 6.570312 C 51.695312 4.324219 53.082031 3.316406 54.523438 3.539062 C 56.960938 3.765625 59.453125 5.167969 62.003906 7.746094 L 60.007812 8.082031 L 55.851562 10.773438 L 57.015625 12.625 C 61.003906 12.851562 63 13.523438 63 14.644531 "/>
</g>
</svg>
