<?xml version="1.0" encoding="UTF-8"?>
<svg xmlns="http://www.w3.org/2000/svg" xmlns:xlink="http://www.w3.org/1999/xlink" width="64pt" height="81pt" viewBox="0 0 64 81" version="1.1">
<g id="surface1">
<path style=" stroke:#000000;stroke-width:3;stroke-opacity:0.5;fill-rule:nonzero;fill:rgb(100%,100%,100%);fill-opacity:1;" d="M 44.710938 29.476562 L 44.710938 22.054688 L 18.15625 22.054688 L 18.15625 29.476562 L 44.710938 29.476562 M 47.433594 6.304688 C 51.519531 10.503906 53.558594 15.527344 53.558594 21.378906 L 53.558594 62.097656 L 64 62.097656 L 64 80.992188 L 0 80.992188 L 0 62.097656 L 10.441406 62.097656 L 10.441406 21.378906 C 10.441406 15.527344 12.558594 10.503906 16.792969 6.304688 C 21.03125 2.105469 26.097656 0.0078125 32 0.0078125 C 38.050781 0.0078125 43.195312 2.105469 47.433594 6.304688 M 36.765625 40.050781 L 36.765625 32.851562 L 26.328125 32.851562 L 26.328125 40.050781 L 36.765625 40.050781 "/>
</g>
</svg>
