<?xml version="1.0" encoding="UTF-8"?>
<svg xmlns="http://www.w3.org/2000/svg" xmlns:xlink="http://www.w3.org/1999/xlink" width="64pt" height="76pt" viewBox="0 0 64 76" version="1.1">
<g id="surface1">
<path style=" stroke:#000000;stroke-width:3;stroke-opacity:0.5;fill-rule:nonzero;fill:rgb(100%,100%,100%);fill-opacity:1;" d="M 36.589844 0.855469 L 39.191406 0 L 40.230469 0.171875 C 47.273438 1.996094 52.933594 5.761719 57.207031 11.46875 C 61.710938 17.175781 63.964844 23.566406 63.964844 30.640625 L 63.964844 71.890625 C 63.964844 73.03125 63.558594 74.003906 62.75 74.800781 C 61.941406 75.601562 60.960938 76 59.804688 76 L 4.195312 76 C 3.039062 76 2.058594 75.601562 1.25 74.800781 L 0.0351562 71.890625 L 0.0351562 30.640625 C 0.0351562 23.566406 2.230469 17.175781 6.621094 11.46875 C 11.007812 5.761719 16.726562 1.996094 23.769531 0.171875 L 24.808594 0 L 27.410156 0.855469 C 28.449219 1.65625 28.96875 2.738281 28.96875 4.109375 L 28.96875 11.296875 L 32.085938 10.953125 L 35.03125 11.296875 L 35.03125 4.109375 C 35.03125 2.851562 35.550781 1.769531 36.589844 0.855469 M 36.246094 16.089844 C 34.972656 15.175781 33.589844 14.722656 32.085938 14.722656 L 27.582031 16.089844 L 24.808594 19.34375 L 24.808594 3.765625 C 18.804688 5.363281 13.839844 8.617188 9.910156 13.523438 C 6.101562 18.429688 4.195312 24.019531 4.195312 30.296875 L 4.195312 71.890625 L 59.804688 71.890625 L 59.804688 30.296875 C 59.804688 24.019531 57.84375 18.429688 53.914062 13.523438 C 50.105469 8.617188 45.195312 5.363281 39.191406 3.765625 L 39.191406 19.34375 L 36.246094 16.089844 "/>
</g>
</svg>
