<?xml version="1.0" encoding="UTF-8"?>
<svg xmlns="http://www.w3.org/2000/svg" xmlns:xlink="http://www.w3.org/1999/xlink" width="64pt" height="76pt" viewBox="0 0 64 76" version="1.1">
<g id="surface1">
<path style=" stroke:#000000;stroke-width:3;stroke-opacity:0.5;fill-rule:nonzero;fill:rgb(100%,100%,100%);fill-opacity:1;" d="M 24.40625 33.066406 C 24.40625 30.074219 25.792969 27.921875 28.566406 26.605469 L 28.566406 39.703125 C 25.792969 38.269531 24.40625 36.054688 24.40625 33.066406 M 28.566406 21.9375 L 25.492188 23.195312 L 25.3125 23.375 L 22.597656 20.859375 L 20.429688 22.835938 L 22.238281 25.167969 L 22.417969 25.527344 L 22.238281 25.707031 L 20.25 29.296875 L 20.25 29.476562 L 16.453125 29.296875 L 15.910156 32.347656 L 19.527344 33.242188 L 19.707031 33.242188 L 19.707031 33.421875 L 20.429688 37.550781 L 20.609375 37.730469 L 20.429688 37.910156 L 17.535156 40.0625 L 18.984375 42.578125 L 22.597656 40.960938 L 22.78125 41.140625 L 25.851562 43.472656 L 26.035156 43.652344 L 26.035156 43.832031 L 25.128906 47.421875 L 28.023438 48.5 L 28.566406 47.601562 L 28.566406 54.960938 C 23.503906 54.242188 19.285156 51.910156 15.910156 47.960938 C 12.535156 44.132812 10.847656 39.703125 10.847656 34.679688 C 10.847656 29.414062 12.535156 24.929688 15.910156 21.21875 C 19.285156 17.390625 23.503906 14.9375 28.566406 13.863281 L 28.566406 21.9375 M 35.433594 26.605469 C 38.207031 27.921875 39.59375 30.074219 39.59375 33.066406 C 39.59375 36.054688 38.207031 38.269531 35.433594 39.703125 L 35.433594 26.605469 M 41.582031 25.527344 L 41.761719 25.167969 L 43.75 22.835938 L 41.402344 20.859375 L 38.871094 23.195312 L 38.871094 23.375 L 38.507812 23.195312 L 35.433594 21.9375 L 35.433594 13.863281 C 40.617188 14.9375 44.835938 17.390625 48.089844 21.21875 C 51.464844 24.929688 53.152344 29.414062 53.152344 34.679688 C 53.152344 39.703125 51.464844 44.132812 48.089844 47.960938 C 44.835938 51.910156 40.617188 54.242188 35.433594 54.960938 L 35.433594 47.601562 L 35.796875 48.5 L 38.871094 47.421875 L 38.148438 43.832031 L 37.964844 43.652344 L 38.148438 43.472656 L 41.21875 41.140625 L 41.402344 40.960938 L 45.015625 42.578125 L 46.464844 40.0625 L 43.570312 37.910156 L 43.390625 37.730469 L 43.390625 37.550781 L 44.292969 33.421875 L 44.472656 33.242188 L 44.65625 33.242188 L 47.910156 32.347656 L 47.546875 29.296875 L 43.933594 29.476562 L 43.75 29.476562 L 43.75 29.296875 L 41.761719 25.707031 L 41.582031 25.527344 M 34.710938 10.453125 L 33.085938 6.324219 L 32 3.992188 L 30.914062 6.324219 L 29.289062 10.453125 C 22.296875 11.289062 16.332031 14.460938 11.390625 19.964844 C 6.570312 25.347656 4.15625 31.808594 4.15625 39.347656 C 4.15625 46.523438 6.570312 52.984375 11.390625 58.726562 C 16.210938 64.113281 22.117188 67.222656 29.105469 68.0625 L 29.105469 68.957031 L 30.011719 71.113281 C 30.492188 71.589844 31.15625 71.828125 32 71.828125 L 34.167969 71.113281 L 34.894531 68.957031 L 34.894531 68.0625 C 41.882812 67.222656 47.730469 64.113281 52.429688 58.726562 C 57.371094 52.984375 59.84375 46.523438 59.84375 39.347656 C 59.84375 31.808594 57.371094 25.347656 52.429688 19.964844 C 47.730469 14.460938 41.824219 11.289062 34.710938 10.453125 M 35.433594 2.015625 L 37.964844 7.042969 C 45.4375 8.359375 51.644531 12.125 56.585938 18.347656 C 61.527344 24.210938 64 31.210938 64 39.347656 C 64 47.003906 61.589844 53.941406 56.769531 60.164062 C 52.066406 66.265625 46.042969 70.09375 38.6875 71.648438 L 35.796875 74.878906 L 32 75.957031 L 28.023438 74.878906 L 25.3125 71.648438 C 17.957031 70.09375 11.933594 66.265625 7.230469 60.164062 C 2.410156 53.941406 0 47.003906 0 39.347656 C 0 31.210938 2.472656 24.210938 7.414062 18.347656 C 12.234375 12.125 18.441406 8.359375 26.035156 7.042969 L 28.566406 2.015625 L 32 0.0429688 L 35.433594 2.015625 "/>
</g>
</svg>
