<?xml version="1.0" encoding="UTF-8"?>
<svg xmlns="http://www.w3.org/2000/svg" xmlns:xlink="http://www.w3.org/1999/xlink" width="64pt" height="57pt" viewBox="0 0 64 57" version="1.1">
<g id="surface1">
<path style=" stroke:#000000;stroke-width:3;stroke-opacity:0.5;fill-rule:nonzero;fill:rgb(100%,100%,100%);fill-opacity:1;" d="M 52.429688 44.03125 L 48.871094 42.890625 C 46.117188 42.890625 43.886719 44.175781 42.179688 46.738281 L 41.75 47.453125 L 40.328125 48.878906 L 37.90625 46.738281 L 35.0625 44.03125 C 33.828125 43.273438 32.640625 42.890625 31.5 42.890625 C 28.75 42.890625 26.519531 44.175781 24.8125 46.738281 L 24.527344 47.453125 L 22.960938 48.878906 L 20.683594 46.738281 L 17.835938 44.03125 L 14.132812 42.890625 C 11.382812 42.890625 9.199219 44.175781 7.585938 46.738281 L 7.160156 47.453125 L 5.449219 48.878906 L 3.316406 48.878906 L 3.316406 53.578125 L 5.449219 53.578125 C 8.296875 53.578125 10.433594 52.296875 11.855469 49.734375 L 12.140625 49.304688 C 12.617188 48.261719 13.230469 47.691406 13.992188 47.59375 L 16.554688 49.875 L 19.402344 52.441406 L 22.816406 53.578125 C 25.570312 53.578125 27.707031 52.296875 29.222656 49.734375 L 29.367188 49.304688 C 29.9375 48.261719 30.601562 47.691406 31.359375 47.59375 L 33.921875 49.875 L 36.625 52.441406 C 37.765625 53.199219 38.90625 53.578125 40.042969 53.578125 C 42.890625 53.578125 45.027344 52.296875 46.449219 49.734375 L 46.734375 49.304688 L 47.304688 48.449219 L 48.726562 47.59375 L 51.148438 49.875 L 53.996094 52.441406 C 55.132812 53.199219 56.273438 53.578125 57.410156 53.578125 L 59.546875 53.578125 L 59.546875 48.878906 L 57.554688 48.878906 L 55.277344 46.738281 L 52.429688 44.03125 M 52.429688 32.917969 L 48.871094 31.777344 C 46.117188 31.777344 43.886719 33.058594 42.179688 35.625 L 41.75 36.335938 L 40.328125 37.761719 L 37.90625 35.625 L 35.0625 32.917969 C 33.828125 32.15625 32.640625 31.777344 31.5 31.777344 C 28.75 31.777344 26.519531 33.058594 24.8125 35.625 L 24.527344 36.335938 L 22.960938 37.761719 L 20.683594 35.625 L 17.835938 32.917969 L 14.132812 31.777344 C 11.382812 31.777344 9.199219 33.058594 7.585938 35.625 L 7.160156 36.335938 C 6.683594 37.289062 6.113281 37.761719 5.449219 37.761719 L 3.316406 37.761719 L 3.316406 42.464844 L 5.449219 42.464844 C 8.296875 42.464844 10.433594 41.183594 11.855469 38.617188 L 12.140625 38.191406 C 12.617188 37.144531 13.230469 36.574219 13.992188 36.480469 C 14.5625 36.765625 15.414062 37.523438 16.554688 38.761719 C 18.925781 41.230469 21.015625 42.464844 22.816406 42.464844 C 25.570312 42.464844 27.707031 41.183594 29.222656 38.617188 L 29.367188 38.191406 C 29.9375 37.144531 30.601562 36.574219 31.359375 36.480469 L 33.921875 38.761719 C 36.292969 41.230469 38.335938 42.464844 40.042969 42.464844 C 42.890625 42.464844 45.027344 41.183594 46.449219 38.617188 L 46.734375 38.191406 L 47.304688 37.335938 L 48.726562 36.480469 L 51.148438 38.761719 L 53.996094 41.324219 C 55.132812 42.085938 56.273438 42.464844 57.410156 42.464844 L 59.546875 42.464844 L 59.546875 37.761719 L 57.554688 37.761719 L 55.277344 35.625 L 52.429688 32.917969 M 59.832031 18.808594 L 44.3125 18.808594 L 36.199219 10.261719 L 27.800781 10.261719 L 23.8125 3.421875 L 16.554688 3.421875 L 18.261719 10.261719 L 12.996094 10.402344 L 11.570312 12.113281 L 11.714844 12.96875 L 11.855469 12.824219 L 12.996094 13.253906 L 13.136719 18.953125 L 6.160156 18.953125 L 8.722656 29.070312 C 10.148438 27.929688 11.714844 27.359375 13.421875 27.359375 C 14.84375 27.359375 16.222656 27.929688 17.550781 29.070312 C 19.257812 29.734375 20.96875 30.96875 22.675781 32.773438 L 23.957031 31.492188 L 24.097656 31.207031 C 25.617188 28.640625 27.800781 27.359375 30.648438 27.359375 C 32.070312 27.359375 33.496094 27.929688 34.917969 29.070312 C 36.4375 29.640625 38.144531 30.875 40.042969 32.773438 L 41.183594 31.492188 L 41.324219 31.207031 C 43.03125 28.640625 45.261719 27.359375 48.015625 27.359375 L 51.574219 28.640625 L 59.832031 18.808594 M 59.832031 15.390625 C 61.351562 15.390625 62.394531 16.054688 62.964844 17.386719 C 63.628906 18.714844 63.484375 19.949219 62.535156 21.089844 L 54.5625 30.351562 L 57.839844 33.34375 L 58.835938 34.34375 L 59.546875 34.34375 C 60.496094 34.34375 61.300781 34.722656 61.964844 35.484375 C 62.632812 36.148438 62.964844 36.90625 62.964844 37.761719 L 62.964844 53.578125 L 61.964844 56.144531 L 59.546875 57 L 57.554688 57 C 55.75 57 54.042969 56.523438 52.429688 55.574219 L 48.871094 52.296875 C 46.6875 55.433594 43.792969 57 40.1875 57 C 37.433594 57 34.539062 55.433594 31.5 52.296875 C 29.414062 55.433594 26.519531 57 22.816406 57 C 21.109375 57 19.449219 56.523438 17.835938 55.574219 L 14.277344 52.296875 C 12.09375 55.433594 9.199219 57 5.59375 57 L 3.457031 57 L 1.035156 56.144531 L 0.0390625 53.578125 L 0.0390625 37.761719 C 0.0390625 36.90625 0.371094 36.148438 1.035156 35.484375 C 1.699219 34.722656 2.507812 34.34375 3.457031 34.34375 L 4.3125 34.34375 L 4.878906 33.628906 L 6.445312 31.636719 L 5.449219 29.925781 L 2.886719 19.808594 C 2.699219 18.574219 2.933594 17.574219 3.597656 16.816406 C 4.167969 15.960938 5.023438 15.53125 6.160156 15.53125 L 9.4375 15.53125 L 8.296875 13.253906 L 8.15625 12.398438 C 8.058594 11.351562 8.296875 10.496094 8.867188 9.832031 L 10.433594 8.121094 C 11 7.363281 11.855469 6.984375 12.996094 6.984375 L 13.992188 6.984375 L 13.28125 4.132812 C 12.996094 3.085938 13.230469 2.136719 13.992188 1.28125 C 14.5625 0.425781 15.414062 0 16.554688 0 L 23.8125 0 C 25.144531 0 26.140625 0.570312 26.804688 1.710938 L 29.792969 6.839844 L 36.199219 6.839844 C 37.242188 6.839844 38.097656 7.21875 38.761719 7.980469 L 45.738281 15.390625 L 59.832031 15.390625 "/>
</g>
</svg>
