<?xml version="1.0" encoding="UTF-8"?>
<svg xmlns="http://www.w3.org/2000/svg" xmlns:xlink="http://www.w3.org/1999/xlink" width="64pt" height="79pt" viewBox="0 0 64 79" version="1.1">
<g id="surface1">
<path style=" stroke:none;fill-rule:nonzero;fill:rgb(100%,100%,100%);fill-opacity:1;" d="M 24.230469 53.464844 C 21.671875 54.394531 20.261719 55.859375 19.992188 57.855469 L 19.992188 75.609375 L 43.808594 75.609375 L 43.808594 57.855469 C 43.671875 55.859375 42.257812 54.394531 39.570312 53.464844 L 31.898438 52.46875 L 24.230469 53.464844 M 31.496094 26.53125 L 31.695312 25.933594 L 31.695312 26.53125 L 31.496094 26.53125 M 32.304688 15.5625 L 32.707031 15.761719 L 32.304688 16.359375 L 32.101562 16.558594 L 32.707031 16.558594 L 32.707031 17.15625 L 33.3125 17.15625 L 33.3125 18.355469 L 33.515625 18.753906 L 33.714844 18.753906 L 34.320312 19.75 L 35.128906 21.945312 L 35.332031 22.144531 L 35.332031 22.34375 L 35.9375 22.941406 L 36.136719 23.738281 L 32.101562 23.738281 L 32.101562 25.535156 L 31.695312 25.933594 L 31.496094 25.535156 L 31.496094 23.738281 L 27.863281 23.738281 L 27.863281 22.941406 L 28.667969 21.945312 L 28.667969 21.746094 L 29.476562 19.75 L 30.285156 18.753906 L 30.484375 18.554688 L 30.484375 17.15625 L 31.089844 17.15625 L 31.089844 16.558594 L 31.496094 16.558594 L 31.496094 16.359375 L 31.089844 15.960938 L 31.089844 15.761719 L 31.292969 15.761719 L 31.292969 15.5625 L 26.046875 15.5625 L 26.046875 36.308594 L 37.753906 36.308594 L 37.753906 15.5625 L 32.304688 15.5625 M 32.101562 0 C 34.792969 0 37.484375 3.722656 40.175781 11.171875 C 40.980469 13.433594 42.933594 14.960938 46.027344 15.761719 L 43.808594 17.355469 L 43.808594 35.511719 L 46.230469 38.105469 L 46.230469 42.492188 L 63.988281 56.058594 L 63.183594 57.652344 L 59.953125 57.652344 L 59.953125 79 L 4.046875 79 L 4.046875 57.652344 L 0.816406 57.652344 L 0.0117188 56.058594 L 17.570312 42.492188 L 17.570312 38.105469 L 19.992188 35.511719 L 19.992188 17.355469 L 17.769531 15.761719 C 20.867188 14.960938 22.816406 13.433594 23.625 11.171875 L 26.652344 4.390625 C 28.265625 1.464844 29.949219 0 31.695312 0 L 32.101562 0 "/>
</g>
</svg>
