<?xml version="1.0" encoding="UTF-8"?>
<svg xmlns="http://www.w3.org/2000/svg" xmlns:xlink="http://www.w3.org/1999/xlink" width="64pt" height="64pt" viewBox="0 0 64 64" version="1.1">
<g id="surface1">
<path style=" stroke:none;fill-rule:nonzero;fill:rgb(100%,100%,100%);fill-opacity:1;" d="M 32 23.914062 C 29.753906 23.914062 27.84375 24.703125 26.273438 26.273438 C 24.703125 27.84375 23.914062 29.753906 23.914062 32 C 23.914062 34.246094 24.703125 36.15625 26.273438 37.726562 C 27.84375 39.296875 29.753906 40.085938 32 40.085938 C 34.246094 40.085938 36.15625 39.296875 37.726562 37.726562 C 39.296875 36.15625 40.085938 34.246094 40.085938 32 C 40.085938 29.753906 39.296875 27.84375 37.726562 26.273438 C 36.15625 24.703125 34.246094 23.914062 32 23.914062 M 44.800781 10.273438 L 50.695312 5.390625 L 58.609375 13.304688 L 53.726562 19.199219 L 56.421875 25.769531 L 64 26.441406 L 64 37.558594 L 56.421875 38.230469 L 53.726562 44.800781 L 58.609375 50.695312 L 50.695312 58.609375 L 44.800781 53.558594 L 38.230469 56.421875 L 37.558594 64 L 26.441406 64 L 25.769531 56.421875 L 19.199219 53.558594 L 13.304688 58.609375 L 5.390625 50.695312 L 10.441406 44.800781 L 7.578125 38.230469 L 0 37.558594 L 0 26.441406 L 7.578125 25.769531 L 10.441406 19.199219 L 5.390625 13.304688 L 13.304688 5.390625 L 19.199219 10.273438 L 25.769531 7.578125 L 26.441406 0 L 37.558594 0 L 38.230469 7.578125 L 44.800781 10.273438 "/>
</g>
</svg>
