<?xml version="1.0" encoding="UTF-8"?>
<svg xmlns="http://www.w3.org/2000/svg" xmlns:xlink="http://www.w3.org/1999/xlink" width="64pt" height="62pt" viewBox="0 0 64 62" version="1.1">
<g id="surface1">
<path style=" stroke:none;fill-rule:nonzero;fill:rgb(100%,100%,100%);fill-opacity:1;" d="M 61.300781 39.84375 C 59.078125 44.199219 56.960938 47.332031 54.949219 49.246094 C 52.511719 46.910156 50.183594 45.738281 47.960938 45.738281 C 44.464844 45.738281 41.765625 47.226562 39.859375 50.203125 L 39.382812 51 L 36.527344 48.289062 L 39.542969 45.421875 C 40.917969 43.828125 42.824219 42.5 45.261719 41.4375 C 47.484375 40.269531 49.390625 39.683594 50.976562 39.683594 L 49.070312 37.453125 L 47.484375 36.339844 L 64 33.789062 L 61.300781 39.84375 M 11.433594 57.691406 L 11.277344 58.011719 C 9.582031 60.664062 7.410156 61.992188 4.765625 61.992188 L 2.699219 61.992188 L 2.699219 57.214844 L 4.765625 57.214844 L 6.511719 55.777344 L 6.828125 54.980469 C 8.523438 52.433594 10.691406 51.15625 13.339844 51.15625 C 14.609375 51.15625 15.828125 51.582031 16.992188 52.433594 L 19.851562 54.980469 L 22.234375 57.214844 L 23.664062 55.777344 L 24.140625 54.980469 C 25.726562 52.433594 27.949219 51.15625 30.808594 51.15625 C 31.972656 51.15625 33.136719 51.582031 34.300781 52.433594 L 37.160156 54.980469 L 39.542969 57.214844 L 40.972656 55.777344 L 41.289062 54.980469 C 42.984375 52.433594 45.207031 51.15625 47.960938 51.15625 C 49.867188 51.15625 52.035156 52.433594 54.472656 54.980469 L 56.855469 57.214844 L 58.601562 57.214844 L 58.601562 61.992188 L 56.535156 61.992188 C 55.371094 61.992188 54.257812 61.570312 53.199219 60.71875 L 50.34375 58.167969 L 47.960938 55.9375 L 46.53125 56.734375 L 45.894531 57.691406 L 45.738281 58.011719 C 44.253906 60.664062 42.136719 61.992188 39.382812 61.992188 C 38.21875 61.992188 37.054688 61.570312 35.890625 60.71875 L 33.191406 58.167969 L 30.648438 55.9375 C 29.910156 55.9375 29.222656 56.523438 28.585938 57.691406 L 28.425781 58.011719 C 26.839844 60.664062 24.722656 61.992188 22.074219 61.992188 C 20.910156 61.992188 19.746094 61.570312 18.582031 60.71875 L 15.722656 58.167969 L 13.339844 55.9375 C 12.597656 55.9375 11.964844 56.523438 11.433594 57.691406 M 32.714844 22.953125 L 34.9375 23.269531 C 35.679688 23.910156 35.730469 24.652344 35.097656 25.503906 L 36.207031 25.34375 L 37.160156 25.980469 C 37.902344 26.832031 37.902344 27.574219 37.160156 28.210938 L 37.160156 28.371094 C 38.113281 27.945312 38.855469 28.160156 39.382812 29.007812 C 40.019531 29.75 39.96875 30.441406 39.226562 31.078125 L 39.382812 31.238281 L 40.496094 31.078125 L 41.449219 31.875 C 42.085938 32.621094 42.03125 33.363281 41.289062 34.105469 L 41.289062 34.265625 L 43.671875 34.585938 C 44.308594 35.328125 44.359375 36.074219 43.832031 36.816406 L 43.832031 36.976562 L 45.738281 37.613281 L 47.484375 38.886719 C 44.835938 39.207031 42.347656 40.214844 40.019531 41.914062 L 34.144531 46.535156 L 30.648438 45.738281 C 27.367188 45.738281 24.667969 47.226562 22.550781 50.203125 L 22.074219 51 L 21.121094 50.042969 L 17.785156 47.175781 C 16.304688 46.21875 14.820312 45.738281 13.339844 45.738281 C 11.117188 45.738281 9.105469 46.484375 7.304688 47.972656 C 3.917969 45.207031 1.90625 41.96875 1.269531 38.25 C 0.421875 32.832031 2.859375 28.050781 8.574219 23.910156 C 13.128906 20.828125 16.464844 18.277344 18.582031 16.261719 C 21.652344 13.605469 23.238281 11.375 23.34375 9.566406 C 23.558594 8.503906 23.027344 7.390625 21.757812 6.222656 L 15.246094 5.902344 L 11.75 8.453125 C 9.210938 11.957031 7.515625 13.605469 6.671875 13.390625 L 7.621094 10.84375 C 8.574219 9.355469 8.734375 8.398438 8.097656 7.972656 C 7.464844 7.546875 7.304688 6.753906 7.621094 5.582031 L 8.257812 3.832031 C 10.058594 2.023438 12.492188 0.960938 15.5625 0.644531 C 19.058594 0.21875 21.96875 1.175781 24.296875 3.511719 C 26.308594 5.425781 27.210938 7.546875 26.996094 9.886719 C 26.785156 12.433594 25.144531 15.199219 22.074219 18.171875 L 10.800781 27.097656 C 8.046875 28.902344 6.246094 30.972656 5.398438 33.3125 C 4.660156 36.179688 5.664062 38.089844 8.417969 39.046875 C 11.277344 39.898438 12.96875 39.152344 13.5 36.816406 C 14.558594 32.355469 17.945312 28.265625 23.664062 24.546875 C 28.746094 21.148438 31.65625 19.820312 32.398438 20.5625 C 33.242188 21.199219 33.351562 21.996094 32.714844 22.953125 "/>
</g>
</svg>
