<?xml version="1.0" encoding="UTF-8"?>
<svg xmlns="http://www.w3.org/2000/svg" xmlns:xlink="http://www.w3.org/1999/xlink" width="63pt" height="46pt" viewBox="0 0 63 46" version="1.1">
<g id="surface1">
<path style=" stroke:none;fill-rule:nonzero;fill:rgb(100%,100%,100%);fill-opacity:1;" d="M 9.019531 30.617188 C 7.234375 28.339844 6.34375 25.777344 6.34375 22.929688 C 6.34375 20.175781 7.234375 17.660156 9.019531 15.382812 L 9.019531 30.617188 M 15.644531 31.757812 L 18.179688 26.917969 L 18.179688 37.453125 L 13.671875 35.03125 L 13.671875 27.199219 L 15.644531 31.757812 M 24.523438 11.25 L 29.316406 11.25 L 29.316406 40.160156 L 23.253906 39.304688 L 23.253906 6.695312 L 24.523438 6.410156 L 24.523438 11.25 M 15.644531 18.371094 L 12.824219 11.535156 L 18.320312 8.402344 L 15.644531 18.371094 M 49.609375 26.203125 L 49.609375 34.890625 L 44.820312 37.453125 L 44.820312 26.203125 L 49.609375 26.203125 M 56.65625 22.929688 C 56.65625 25.683594 55.765625 28.246094 53.980469 30.617188 L 53.980469 15.382812 C 55.765625 17.753906 56.65625 20.269531 56.65625 22.929688 M 51.300781 9.257812 C 45.851562 5.367188 39.226562 3.417969 31.429688 3.417969 C 23.726562 3.417969 17.148438 5.367188 11.699219 9.257812 C 6.15625 12.960938 3.382812 17.515625 3.382812 22.929688 C 3.382812 28.433594 6.15625 33.039062 11.699219 36.742188 C 17.148438 40.539062 23.726562 42.4375 31.429688 42.4375 C 39.226562 42.4375 45.851562 40.539062 51.300781 36.742188 C 56.75 33.039062 59.476562 28.433594 59.476562 22.929688 C 59.476562 17.515625 56.75 12.960938 51.300781 9.257812 M 31.429688 0 C 40.167969 0 47.636719 2.28125 53.839844 6.835938 C 59.945312 11.300781 63 16.664062 63 22.929688 C 63 29.289062 59.945312 34.75 53.839844 39.304688 C 47.636719 43.765625 40.167969 46 31.429688 46 C 22.785156 46 15.410156 43.765625 9.300781 39.304688 C 3.101562 34.75 0 29.289062 0 22.929688 C 0 16.664062 3.101562 11.300781 9.300781 6.835938 C 15.410156 2.28125 22.785156 0 31.429688 0 M 44.820312 21.933594 L 44.820312 11.964844 L 49.609375 15.382812 L 49.609375 21.933594 L 44.820312 21.933594 M 34.390625 11.25 L 39.320312 11.25 L 39.320312 6.550781 L 40.589844 6.980469 L 40.589844 39.019531 L 34.390625 40.160156 L 34.390625 11.25 "/>
</g>
</svg>
