<?xml version="1.0" encoding="UTF-8"?>
<svg xmlns="http://www.w3.org/2000/svg" xmlns:xlink="http://www.w3.org/1999/xlink" width="64pt" height="86pt" viewBox="0 0 64 86" version="1.1">
<g id="surface1">
<path style=" stroke:none;fill-rule:nonzero;fill:rgb(100%,100%,100%);fill-opacity:1;" d="M 19.972656 24.679688 L 19.746094 26.488281 L 20.425781 26.035156 L 20.652344 27.167969 L 19.289062 29.429688 L 19.972656 30.332031 L 21.558594 32.59375 L 22.46875 35.988281 L 24.738281 30.332031 L 21.558594 23.546875 L 19.972656 24.679688 M 36.085938 59.738281 L 34.269531 47.523438 L 29.050781 58.832031 L 28.367188 64.941406 L 26.097656 71.046875 L 25.871094 75.796875 L 25.191406 77.605469 L 35.632812 77.152344 L 34.949219 70.367188 L 34.949219 62 L 36.085938 59.738281 M 35.632812 1.832031 L 36.765625 4.773438 L 36.992188 7.261719 L 36.3125 9.296875 L 34.949219 9.296875 L 34.269531 9.75 C 33.664062 10.503906 33.890625 11.109375 34.949219 11.558594 L 39.261719 13.144531 L 41.53125 14.953125 L 48.792969 6.132812 L 49.476562 5.679688 C 49.929688 5.679688 50.382812 5.980469 50.835938 6.582031 L 43.347656 16.761719 L 43.574219 22.417969 L 43.347656 24.679688 L 43.347656 26.035156 L 43.574219 28.296875 L 43.574219 35.535156 L 44.027344 36.667969 L 45.390625 37.796875 L 48.113281 42.320312 L 46.523438 42.320312 L 44.710938 43.226562 L 43.574219 47.070312 L 42.210938 58.832031 L 41.078125 70.367188 L 40.625 76.25 L 47.207031 78.285156 C 55.980469 80.246094 61.578125 82.808594 64 85.976562 L 0 85.976562 C 2.875 82.355469 9.304688 79.792969 19.289062 78.285156 L 19.289062 76.25 L 21.558594 72.40625 L 21.105469 59.511719 L 22.46875 57.703125 L 22.46875 45.261719 L 20.425781 45.714844 L 14.523438 58.832031 C 11.648438 58.832031 10.667969 57.703125 11.574219 55.441406 L 17.476562 45.714844 L 19.289062 40.964844 L 21.789062 39.832031 L 21.789062 38.476562 L 16.339844 33.273438 L 14.980469 30.332031 L 14.980469 29.429688 L 12.253906 27.84375 L 11.574219 24.226562 L 14.980469 22.871094 L 16.339844 18.121094 L 18.15625 15.859375 L 19.972656 14.046875 L 25.191406 12.691406 C 27.007812 12.390625 27.914062 12.011719 27.914062 11.558594 L 28.367188 10.882812 C 27.460938 10.882812 26.855469 10.503906 26.554688 9.75 L 24.738281 8.621094 C 23.980469 8.167969 23.980469 7.714844 24.738281 7.261719 L 26.097656 5 L 27.007812 2.964844 L 28.367188 0.703125 L 31.320312 0.0234375 C 33.4375 0.0234375 34.875 0.628906 35.632812 1.832031 "/>
</g>
</svg>
