<?xml version="1.0" encoding="UTF-8"?>
<svg xmlns="http://www.w3.org/2000/svg" xmlns:xlink="http://www.w3.org/1999/xlink" width="63pt" height="50pt" viewBox="0 0 63 50" version="1.1">
<g id="surface1">
<path style=" stroke:none;fill-rule:nonzero;fill:rgb(100%,100%,100%);fill-opacity:1;" d="M 21.160156 27.578125 L 29.75 27.578125 L 29.75 17.585938 L 21.160156 27.578125 M 17.5 15.972656 L 9.066406 15.972656 L 17.5 26.128906 L 17.5 15.972656 M 28.796875 15.972656 L 19.410156 15.972656 L 19.410156 26.773438 L 28.796875 15.972656 M 31.660156 27.578125 L 40.566406 27.578125 L 31.660156 17.585938 L 31.660156 27.578125 M 53.773438 15.972656 L 44.226562 15.972656 L 44.226562 26.449219 L 53.773438 15.972656 M 42.316406 15.972656 L 32.613281 15.972656 L 42.316406 26.613281 L 42.316406 15.972656 M 42.953125 0.980469 L 43.273438 0.980469 L 43.273438 11.136719 L 63 11.136719 L 63 15.972656 L 56.476562 15.972656 L 45.816406 27.578125 L 63 27.578125 L 63 30.320312 L 55.363281 30.320312 L 56.316406 46.925781 L 58.703125 46.925781 L 58.703125 49.988281 L 48.363281 49.988281 L 48.363281 46.925781 L 50.433594 46.925781 L 51.386719 30.320312 L 33.25 30.320312 L 34.203125 46.925781 L 36.433594 46.925781 L 36.433594 49.988281 L 26.089844 49.988281 L 26.089844 46.925781 L 28.316406 46.925781 L 29.273438 30.320312 L 10.339844 30.320312 L 11.296875 46.925781 L 13.839844 46.925781 L 13.839844 49.988281 L 3.339844 49.988281 L 3.339844 46.925781 L 5.410156 46.925781 L 6.363281 30.320312 L 0 30.320312 L 0 27.578125 L 16.386719 27.578125 L 6.523438 15.972656 L 0 15.972656 L 0 11.136719 L 17.816406 11.136719 L 17.816406 3.234375 L 16.226562 3.398438 L 14 3.074219 L 13.046875 2.109375 L 14 1.140625 L 16.226562 0.816406 C 17.816406 0.816406 18.824219 1.140625 19.25 1.785156 L 19.566406 1.785156 L 19.566406 11.136719 L 41.363281 11.136719 L 41.363281 2.589844 L 39.933594 2.753906 L 37.546875 2.429688 L 36.589844 1.460938 L 37.546875 0.496094 L 39.933594 0.0117188 L 42.953125 0.980469 "/>
</g>
</svg>
