<?xml version="1.0" encoding="UTF-8"?>
<svg xmlns="http://www.w3.org/2000/svg" xmlns:xlink="http://www.w3.org/1999/xlink" width="64pt" height="78pt" viewBox="0 0 64 78" version="1.1">
<g id="surface1">
<path style=" stroke:none;fill-rule:nonzero;fill:rgb(100%,100%,100%);fill-opacity:1;" d="M 48.847656 77.996094 L 48.847656 55.347656 L 55.625 55.347656 L 55.625 77.996094 L 48.847656 77.996094 M 59.015625 55.347656 L 64 55.347656 L 64 77.996094 L 59.015625 77.996094 L 59.015625 55.347656 M 0 55.347656 L 4.984375 55.347656 L 4.984375 77.996094 L 0 77.996094 L 0 55.347656 M 24.722656 61.648438 L 16.148438 61.648438 L 16.148438 77.996094 L 8.175781 77.996094 L 8.175781 55.347656 L 45.457031 55.347656 L 45.457031 77.996094 L 24.722656 77.996094 L 24.722656 61.648438 M 32.101562 12.609375 C 33.828125 12.609375 35.488281 13.066406 37.085938 13.988281 L 40.273438 17.925781 L 40.273438 0.00390625 C 47.1875 1.839844 52.835938 5.519531 57.222656 11.03125 C 61.742188 16.808594 64 23.308594 64 30.53125 L 64 47.863281 L 0 47.863281 L 0 30.53125 C 0 23.308594 2.191406 16.808594 6.578125 11.03125 C 11.097656 5.519531 16.8125 1.839844 23.726562 0.00390625 L 23.726562 17.925781 L 26.914062 13.988281 L 32.101562 12.609375 M 40.273438 25.214844 C 38.679688 28.757812 35.953125 30.53125 32.101562 30.53125 L 26.914062 29.152344 L 23.726562 25.214844 L 23.726562 40.96875 L 40.273438 40.96875 L 40.273438 25.214844 "/>
</g>
</svg>
