<?xml version="1.0" encoding="UTF-8"?>
<svg xmlns="http://www.w3.org/2000/svg" xmlns:xlink="http://www.w3.org/1999/xlink" width="63pt" height="63pt" viewBox="0 0 63 63" version="1.1">
<g id="surface1">
<path style=" stroke:none;fill-rule:nonzero;fill:rgb(100%,100%,100%);fill-opacity:1;" d="M 49.386719 5.730469 L 47.070312 7.199219 L 45.042969 10.722656 L 41.855469 12.484375 L 41.855469 27.902344 L 38.667969 27.902344 L 40.695312 34.949219 L 39.394531 36.859375 L 39.394531 39.207031 L 36.496094 39.207031 L 36.496094 38.621094 L 34.035156 38.621094 L 34.035156 39.207031 L 31.425781 39.207031 L 31.425781 32.75 L 33.890625 32.75 L 33.890625 27.902344 L 31.425781 27.902344 L 31.425781 19.828125 L 29.109375 19.828125 L 29.109375 30.546875 L 28.820312 32.75 L 29.109375 32.75 L 29.109375 39.207031 L 28.242188 39.207031 L 27.953125 40.824219 L 29.109375 40.824219 L 29.109375 47.285156 L 26.503906 47.285156 L 26.503906 42.144531 L 23.460938 42.144531 L 23.460938 44.640625 L 19.984375 44.640625 L 19.984375 34.070312 L 18.972656 33.042969 L 17.234375 34.070312 L 13.613281 34.070312 L 13.613281 25.40625 L 17.234375 25.40625 L 19.984375 23.351562 L 13.613281 23.351562 L 13.613281 14.835938 L 14.917969 14.835938 L 14.339844 12.925781 L 15.207031 10.28125 L 11.875 10.28125 L 11.875 6.757812 L 9.414062 5.582031 L 6.082031 3.527344 L 6.082031 10.28125 L 3.476562 10.28125 L 3.476562 22.617188 L 5.214844 23.792969 L 5.214844 41.703125 L 3.476562 42.878906 L 3.476562 59.472656 L 59.523438 59.472656 L 59.523438 43.90625 L 56.628906 44.789062 L 49.386719 44.789062 L 49.386719 40.675781 L 52.136719 40.675781 L 53.296875 36.566406 L 49.386719 36.566406 L 49.386719 5.730469 M 47.359375 2.792969 L 49.386719 2.207031 L 50.980469 2.5 C 52.234375 3.183594 52.863281 4.261719 52.863281 5.730469 L 52.863281 33.042969 L 53.296875 33.042969 C 54.359375 33.042969 55.277344 33.53125 56.046875 34.511719 C 56.722656 35.488281 56.917969 36.515625 56.628906 37.59375 L 55.613281 41.265625 L 56.191406 41.265625 L 58.65625 40.53125 L 59.523438 40.382812 L 61.695312 41.117188 C 62.566406 41.902344 63 42.832031 63 43.90625 L 63 59.472656 L 61.984375 61.96875 C 61.308594 62.652344 60.488281 62.996094 59.523438 62.996094 L 3.476562 62.996094 L 1.015625 61.96875 C 0.339844 61.28125 0 60.449219 0 59.472656 L 0 42.878906 C 0 41.703125 0.484375 40.773438 1.449219 40.089844 L 1.738281 39.941406 L 1.738281 25.699219 L 1.449219 25.554688 C 0.484375 24.769531 0 23.792969 0 22.617188 L 0 10.28125 L 0.867188 8.078125 L 2.605469 6.757812 L 2.605469 3.527344 C 2.605469 2.15625 3.1875 1.128906 4.34375 0.445312 L 6.082031 0.00390625 L 7.964844 0.589844 L 11.007812 2.5 L 13.179688 3.675781 C 14.53125 4.261719 15.253906 5.289062 15.351562 6.757812 C 16.414062 6.757812 17.28125 7.199219 17.957031 8.078125 C 18.632812 8.960938 18.828125 9.988281 18.539062 11.164062 L 17.957031 12.925781 L 18.25 13.660156 C 18.632812 14.835938 18.488281 15.910156 17.8125 16.890625 L 17.089844 17.476562 L 17.089844 19.828125 L 19.984375 19.828125 C 21.53125 19.828125 22.59375 20.609375 23.171875 22.175781 C 23.75 23.742188 23.367188 25.0625 22.015625 26.140625 L 19.40625 28.195312 C 18.828125 28.6875 18.101562 28.929688 17.234375 28.929688 L 17.089844 28.929688 L 17.089844 30.105469 L 17.234375 29.957031 L 18.972656 29.519531 C 19.9375 29.519531 20.710938 29.859375 21.289062 30.546875 L 22.304688 31.425781 C 23.074219 32.113281 23.460938 32.992188 23.460938 34.070312 L 23.460938 38.621094 L 24.765625 38.621094 L 25.632812 36.710938 L 25.632812 34.070312 L 25.488281 32.308594 L 25.632812 30.25 L 25.632812 19.828125 L 26.648438 17.332031 C 27.324219 16.644531 28.144531 16.300781 29.109375 16.300781 L 31.425781 16.300781 C 32.488281 16.300781 33.308594 16.644531 33.890625 17.332031 L 34.902344 19.828125 L 34.902344 24.523438 L 36.207031 25.40625 L 38.378906 24.378906 L 38.378906 12.484375 L 38.667969 11.457031 L 40.117188 9.402344 L 42.578125 8.078125 L 44.171875 5.4375 L 45.1875 4.261719 L 47.359375 2.792969 "/>
</g>
</svg>
