<?xml version="1.0" encoding="UTF-8"?>
<svg xmlns="http://www.w3.org/2000/svg" xmlns:xlink="http://www.w3.org/1999/xlink" width="64pt" height="78pt" viewBox="0 0 64 78" version="1.1">
<g id="surface1">
<path style=" stroke:#000000;stroke-width:3;stroke-opacity:0.5;fill-rule:nonzero;fill:rgb(100%,100%,100%);fill-opacity:1;" d="M 39.203125 14.054688 L 36.570312 8.082031 C 35.164062 5.503906 33.699219 4.214844 32.175781 4.214844 L 31.824219 4.214844 C 30.300781 4.214844 28.835938 5.503906 27.429688 8.082031 L 24.796875 14.054688 C 24.09375 16.046875 22.394531 17.390625 19.699219 18.09375 L 21.632812 19.324219 L 21.632812 35.3125 L 19.523438 37.59375 L 19.523438 41.636719 L 4.238281 53.582031 L 4.9375 54.988281 L 7.75 54.988281 L 7.75 73.785156 L 56.25 73.785156 L 56.25 54.988281 L 59.0625 54.988281 L 59.761719 53.582031 L 44.476562 41.636719 L 44.476562 37.59375 L 42.367188 35.3125 L 42.367188 19.324219 L 44.300781 18.09375 C 41.605469 17.390625 39.90625 16.046875 39.203125 14.054688 M 39.203125 4.390625 L 42.894531 11.945312 L 43.246094 12.472656 C 43.363281 13.058594 44.066406 13.527344 45.355469 13.878906 C 47.113281 14.347656 48.167969 15.460938 48.515625 17.214844 C 48.867188 18.855469 48.34375 20.261719 46.9375 21.433594 L 46.585938 21.433594 L 46.585938 33.554688 L 47.640625 34.785156 L 48.691406 37.59375 L 48.691406 39.527344 L 62.398438 50.242188 C 63.335938 50.945312 63.863281 51.824219 63.980469 52.878906 L 63.453125 55.6875 L 62.75 57.09375 L 60.464844 58.851562 L 60.464844 73.785156 C 60.464844 74.953125 60.054688 75.949219 59.238281 76.769531 C 58.417969 77.589844 57.421875 78 56.25 78 L 7.75 78 C 6.578125 78 5.582031 77.589844 4.761719 76.769531 C 3.945312 75.949219 3.535156 74.953125 3.535156 73.785156 L 3.535156 58.851562 L 1.25 57.09375 L 0.546875 55.6875 L 0.0195312 52.878906 C 0.136719 51.824219 0.664062 50.945312 1.601562 50.242188 L 15.308594 39.527344 L 15.308594 37.59375 L 16.359375 34.785156 L 17.414062 33.554688 L 17.414062 21.433594 L 17.238281 21.433594 C 15.714844 20.261719 15.191406 18.855469 15.65625 17.214844 C 16.007812 15.460938 17.003906 14.347656 18.644531 13.878906 L 20.929688 12.472656 L 21.105469 11.945312 L 24.796875 4.390625 C 26.785156 1.464844 29.128906 0 31.824219 0 L 32.175781 0 C 34.871094 0 37.214844 1.464844 39.203125 4.390625 "/>
</g>
</svg>
