<?xml version="1.0" encoding="UTF-8"?>
<svg xmlns="http://www.w3.org/2000/svg" xmlns:xlink="http://www.w3.org/1999/xlink" width="63pt" height="59pt" viewBox="0 0 63 59" version="1.1">
<g id="surface1">
<path style=" stroke:none;fill-rule:nonzero;fill:rgb(100%,100%,100%);fill-opacity:1;" d="M 38.390625 24.007812 L 41.203125 24.007812 L 29.109375 7.316406 L 24.1875 13.878906 L 24.1875 3.464844 L 22.078125 3.464844 L 22.078125 16.875 L 16.875 24.007812 L 19.6875 24.007812 L 19.6875 28.003906 L 3.9375 42.265625 L 6.890625 42.265625 L 6.890625 55.535156 L 56.109375 55.535156 L 56.109375 36.847656 L 58.921875 36.847656 L 46.6875 25.433594 L 38.390625 33.28125 L 38.390625 24.007812 M 46.6875 22.011719 C 47.71875 22.011719 48.515625 22.296875 49.078125 22.867188 L 61.3125 34.421875 C 62.4375 35.46875 62.71875 36.703125 62.15625 38.128906 C 61.6875 39.367188 60.796875 40.078125 59.484375 40.269531 L 59.484375 55.535156 L 58.5 57.957031 C 57.84375 58.625 57.046875 58.957031 56.109375 58.957031 L 6.890625 58.957031 C 5.953125 58.957031 5.15625 58.625 4.5 57.957031 L 3.515625 55.535156 L 3.515625 45.546875 C 2.203125 45.453125 1.265625 44.738281 0.703125 43.410156 C 0.234375 41.980469 0.5625 40.746094 1.6875 39.699219 L 15.609375 27.144531 L 13.78125 25.433594 C 13.21875 24.199219 13.359375 23.007812 14.203125 21.867188 L 18.703125 15.878906 L 18.703125 3.464844 L 19.6875 1.042969 C 20.34375 0.375 21.140625 0.0429688 22.078125 0.0429688 L 24.1875 0.0429688 C 25.125 0.0429688 25.921875 0.375 26.578125 1.042969 C 27.234375 1.800781 27.5625 2.609375 27.5625 3.464844 L 27.5625 4.179688 L 29.109375 3.894531 C 30.140625 3.894531 31.03125 4.324219 31.78125 5.179688 L 44.015625 21.867188 L 44.4375 22.867188 L 46.6875 22.011719 "/>
</g>
</svg>
