<?xml version="1.0" encoding="UTF-8"?>
<svg xmlns="http://www.w3.org/2000/svg" xmlns:xlink="http://www.w3.org/1999/xlink" width="64pt" height="49pt" viewBox="0 0 64 49" version="1.1">
<g id="surface1">
<path style=" stroke:#000000;stroke-width:3;stroke-opacity:0.5;fill-rule:nonzero;fill:rgb(100%,100%,100%);fill-opacity:1;" d="M 45.503906 13.699219 L 36.664062 7.574219 L 32.160156 3.867188 L 27.175781 7.414062 L 17.851562 13.539062 C 13.886719 15.796875 9.277344 17.785156 4.027344 19.503906 L 3.863281 45.132812 L 60.136719 45.132812 L 60.136719 19.503906 C 54.347656 17.785156 49.46875 15.851562 45.503906 13.699219 M 47.273438 10.15625 C 51.023438 12.195312 55.6875 14.128906 61.261719 15.957031 C 63.082031 16.496094 63.992188 17.675781 63.992188 19.503906 L 63.992188 45.132812 C 63.992188 46.207031 63.566406 47.121094 62.707031 47.871094 L 60.136719 49 L 3.863281 49 L 1.292969 47.871094 C 0.433594 47.226562 0.0078125 46.3125 0.0078125 45.132812 L 0.167969 19.503906 C 0.167969 17.570312 1.023438 16.386719 2.738281 15.957031 C 7.882812 14.238281 12.277344 12.304688 15.921875 10.15625 L 24.925781 4.191406 L 29.910156 0.644531 L 32.160156 0 L 34.734375 0.96875 L 39.074219 4.511719 C 42.289062 7.09375 45.023438 8.972656 47.273438 10.15625 "/>
</g>
</svg>
