<?xml version="1.0" encoding="UTF-8"?>
<svg xmlns="http://www.w3.org/2000/svg" xmlns:xlink="http://www.w3.org/1999/xlink" width="64pt" height="66pt" viewBox="0 0 64 66" version="1.1">
<g id="surface1">
<path style=" stroke:#000000;stroke-width:3;stroke-opacity:0.5;fill-rule:nonzero;fill:rgb(100%,100%,100%);fill-opacity:1;" d="M 17.953125 41.714844 L 17.328125 42.492188 L 16.546875 45.292969 L 16.078125 46.074219 L 4.527344 55.722656 L 4.214844 56.5 L 4.214844 56.65625 L 4.839844 57.589844 L 11.082031 61.480469 L 12.019531 61.949219 L 12.175781 61.949219 L 12.800781 61.480469 L 13.738281 60.703125 L 22.164062 49.03125 L 23.101562 48.5625 L 23.570312 48.5625 L 24.507812 48.40625 L 25.132812 48.097656 L 25.289062 47.941406 L 19.824219 40.160156 L 17.953125 41.714844 M 32.78125 24.128906 L 32.3125 24.441406 L 30.125 35.179688 L 8.898438 16.035156 L 8.117188 15.726562 L 7.804688 15.726562 L 7.804688 16.660156 L 34.183594 53.542969 L 34.808594 54.011719 L 35.433594 53.542969 L 37.464844 43.425781 L 58.535156 61.949219 L 59.316406 62.414062 L 59.472656 62.257812 C 59.890625 62.050781 59.941406 61.738281 59.628906 61.324219 L 33.5625 24.441406 L 32.78125 24.128906 M 41.210938 11.367188 L 33.40625 11.210938 L 30.75 3.742188 L 28.410156 11.210938 L 20.292969 11.367188 L 26.535156 16.191406 L 24.195312 23.816406 L 30.75 19.148438 L 37.152344 23.816406 L 34.964844 16.191406 L 41.210938 11.367188 M 57.757812 7.632812 C 58.796875 7.632812 60.097656 8.253906 61.660156 9.5 L 62.59375 10.277344 L 64 13.234375 C 63.894531 14.480469 63.324219 15.515625 62.28125 16.347656 L 54.945312 22.261719 L 55.101562 23.195312 C 55.101562 24.542969 54.53125 25.582031 53.386719 26.308594 L 51.511719 26.929688 L 43.863281 33.15625 L 62.59375 59.457031 C 63.425781 60.496094 63.636719 61.585938 63.21875 62.726562 L 61.347656 65.371094 L 59.316406 65.992188 C 58.066406 65.992188 56.976562 65.527344 56.039062 64.59375 L 39.648438 49.964844 L 38.710938 54.320312 L 37.308594 56.8125 L 34.808594 57.746094 L 34.652344 57.746094 C 33.195312 57.640625 32.050781 56.96875 31.21875 55.722656 L 27.628906 50.273438 L 26.222656 51.054688 L 24.351562 51.675781 L 16.703125 62.726562 C 15.871094 63.761719 15.039062 64.488281 14.203125 64.902344 L 13.582031 65.214844 L 13.269531 65.214844 L 12.019531 65.527344 L 9.210938 64.75 L 2.964844 60.546875 L 0.9375 57.746094 L 0.78125 57.589844 C 0.261719 55.617188 0.726562 54.011719 2.183594 52.765625 L 13.269531 43.738281 L 13.894531 41.558594 L 15.765625 38.914062 L 17.640625 37.203125 L 18.105469 36.890625 L 4.996094 18.683594 C 4.265625 17.644531 4.058594 16.503906 4.371094 15.257812 C 4.683594 14.117188 5.203125 13.285156 5.933594 12.769531 L 8.117188 12.144531 C 9.261719 12.144531 10.40625 12.558594 11.550781 13.390625 L 21.074219 22.105469 L 22.476562 17.59375 L 18.105469 14.167969 C 16.753906 13.234375 16.339844 11.9375 16.859375 10.277344 C 17.273438 8.617188 18.367188 7.789062 20.136719 7.789062 L 25.757812 7.632812 L 27.472656 2.339844 C 28.203125 0.785156 29.292969 0.0078125 30.75 0.0078125 C 32.417969 0.0078125 33.5625 0.785156 34.183594 2.339844 L 35.746094 7.632812 L 41.367188 7.789062 C 43.03125 7.789062 44.125 8.617188 44.644531 10.277344 C 45.164062 11.9375 44.746094 13.234375 43.394531 14.167969 L 39.023438 17.59375 L 39.960938 20.394531 L 55.101562 8.566406 L 57.757812 7.632812 M 60.097656 12.769531 L 57.757812 11.210938 L 57.289062 11.367188 L 39.023438 25.53125 L 42.300781 30.042969 L 50.417969 23.351562 L 50.574219 23.507812 L 51.042969 23.664062 L 51.199219 23.507812 L 51.355469 22.882812 L 49.796875 21.792969 L 60.097656 13.546875 L 60.097656 12.769531 "/>
</g>
</svg>
