<?xml version="1.0" encoding="UTF-8"?>
<svg xmlns="http://www.w3.org/2000/svg" xmlns:xlink="http://www.w3.org/1999/xlink" width="63pt" height="60pt" viewBox="0 0 63 60" version="1.1">
<g id="surface1">
<path style=" stroke:#000000;stroke-width:3;stroke-opacity:0.5;fill-rule:nonzero;fill:rgb(100%,100%,100%);fill-opacity:1;" d="M 41.75 13.578125 L 44.0625 15.035156 L 41.175781 18.6875 L 44.0625 29.78125 L 40.742188 32.847656 L 40.742188 25.402344 L 38.285156 24.816406 L 32.511719 18.25 L 31.644531 13.285156 L 34.53125 10.511719 L 30.777344 5.253906 L 25.578125 12.410156 L 25.003906 3.503906 L 13.738281 7.738281 L 13.882812 10.511719 L 22.691406 7.882812 L 23.269531 15.621094 L 17.78125 23.066406 L 20.816406 23.066406 L 20.816406 27.300781 L 15.617188 31.972656 L 16.917969 38.832031 L 12.875 41.023438 L 9.121094 37.808594 L 4.066406 42.480469 L 7.242188 42.480469 L 7.242188 56.496094 L 59.511719 56.496094 L 59.511719 41.898438 L 54.457031 41.898438 L 54.457031 44.964844 L 50.847656 44.964844 L 50.847656 37.519531 L 54.457031 37.519531 L 56.046875 30.65625 L 49.691406 24.527344 L 47.09375 27.007812 L 45.074219 19.5625 L 47.09375 17.082031 L 54.023438 21.460938 L 55.902344 18.394531 L 49.261719 14.160156 L 54.167969 7.738281 L 51.425781 5.546875 L 46.226562 12.117188 L 43.773438 10.511719 L 41.75 13.578125 M 53.449219 2.773438 L 56.335938 4.964844 L 57.632812 7.300781 C 57.828125 8.273438 57.585938 9.148438 56.914062 9.925781 L 54.3125 13.285156 L 57.777344 15.621094 L 59.222656 17.808594 L 58.789062 20.4375 L 56.769531 23.503906 L 55.035156 24.816406 L 58.5 28.027344 C 59.464844 29.003906 59.753906 30.121094 59.367188 31.386719 L 57.921875 38.25 L 57.921875 38.394531 L 59.511719 38.394531 C 60.472656 38.394531 61.292969 38.734375 61.964844 39.417969 C 62.640625 40.097656 62.976562 40.925781 62.976562 41.898438 L 62.976562 56.496094 L 61.964844 58.976562 C 61.292969 59.660156 60.472656 60 59.511719 60 L 7.242188 60 C 6.183594 60 5.316406 59.660156 4.644531 58.976562 L 3.777344 56.496094 L 3.777344 45.984375 C 2.332031 45.789062 1.371094 45.011719 0.890625 43.648438 C 0.3125 42.191406 0.601562 40.925781 1.753906 39.855469 L 6.953125 35.183594 C 7.628906 34.597656 8.347656 34.304688 9.121094 34.304688 C 10.082031 34.304688 10.851562 34.597656 11.429688 35.183594 L 13.019531 36.351562 L 12.296875 32.699219 C 12.007812 31.339844 12.34375 30.21875 13.308594 29.34375 L 16.773438 26.421875 C 15.808594 26.035156 15.136719 25.449219 14.75 24.671875 C 14.171875 23.308594 14.269531 22.09375 15.039062 21.023438 L 19.804688 14.597656 L 19.515625 12.554688 L 14.894531 13.867188 L 13.882812 14.015625 L 12.007812 13.429688 C 11.140625 12.75 10.613281 11.875 10.417969 10.804688 L 10.273438 7.882812 C 10.082031 6.132812 10.851562 4.964844 12.585938 4.378906 L 23.847656 0.292969 L 25.003906 0 L 26.878906 0.730469 C 27.746094 1.214844 28.273438 1.945312 28.46875 2.917969 C 29.046875 2.140625 29.816406 1.75 30.777344 1.75 C 31.933594 1.75 32.894531 2.285156 33.664062 3.359375 L 37.277344 8.320312 L 37.996094 10.804688 C 37.996094 11.679688 37.660156 12.410156 36.988281 12.992188 L 35.398438 14.453125 L 35.832031 16.640625 L 37.707031 18.976562 L 38.429688 16.640625 L 39.007812 15.914062 L 39.007812 15.765625 C 37.949219 14.5 37.902344 13.140625 38.863281 11.679688 L 40.742188 8.613281 C 41.511719 7.542969 42.523438 7.007812 43.773438 7.007812 L 45.503906 7.445312 L 48.539062 3.359375 C 49.117188 2.578125 49.933594 2.140625 50.992188 2.042969 L 51.425781 2.042969 L 53.449219 2.773438 "/>
</g>
</svg>
