<?xml version="1.0" encoding="UTF-8"?>
<svg xmlns="http://www.w3.org/2000/svg" xmlns:xlink="http://www.w3.org/1999/xlink" width="64pt" height="72pt" viewBox="0 0 64 72" version="1.1">
<g id="surface1">
<path style=" stroke:none;fill-rule:nonzero;fill:rgb(100%,100%,100%);fill-opacity:1;" d="M 51.546875 41.453125 C 47.160156 46.789062 41.621094 49.816406 34.921875 50.546875 L 34.921875 62.910156 L 51.546875 62.910156 L 51.546875 41.453125 M 12.453125 62.910156 L 29.078125 62.910156 L 29.078125 50.546875 C 22.378906 49.816406 16.839844 46.789062 12.453125 41.453125 L 12.453125 62.910156 M 0.0351562 72 L 0.0351562 62.910156 L 6.609375 62.910156 L 6.609375 24.910156 L 57.390625 24.910156 L 57.390625 62.910156 L 63.964844 62.910156 L 63.964844 72 L 0.0351562 72 M 32 0 C 38.210938 0 43.628906 2 48.257812 6 C 53.007812 9.878906 55.929688 14.847656 57.023438 20.910156 L 6.976562 20.910156 C 8.070312 14.847656 10.992188 9.878906 15.742188 6 C 20.371094 2 25.789062 0 32 0 "/>
</g>
</svg>
