<?xml version="1.0" encoding="UTF-8"?>
<svg xmlns="http://www.w3.org/2000/svg" xmlns:xlink="http://www.w3.org/1999/xlink" width="64pt" height="65pt" viewBox="0 0 64 65" version="1.1">
<g id="surface1">
<path style=" stroke:#000000;stroke-width:3;stroke-opacity:0.5;fill-rule:nonzero;fill:rgb(100%,100%,100%);fill-opacity:1;" d="M 43.703125 35.71875 L 46.667969 33.230469 C 37.480469 34.597656 28.640625 37.914062 20.148438 43.183594 L 3.554688 55.914062 L 3.554688 61.476562 L 16.890625 61.476562 C 23.703125 52.792969 32.640625 44.207031 43.703125 35.71875 M 50.222656 34.988281 L 49.777344 35.28125 L 49.035156 36.011719 L 45.925781 38.355469 C 39.703125 43.621094 33.285156 51.332031 26.667969 61.476562 L 40.59375 61.476562 C 43.257812 53.867188 47.011719 45.136719 51.851562 35.28125 L 50.222656 34.988281 M 59.109375 33.230469 C 56.839844 36.742188 54.667969 41.574219 52.59375 47.71875 L 48.296875 61.476562 L 59.109375 61.476562 L 59.109375 33.230469 M 52.59375 7.183594 L 52.59375 13.914062 L 42.667969 13.035156 L 38.519531 3.523438 L 23.109375 3.523438 L 23.109375 18.449219 C 21.433594 20.109375 20.59375 22.011719 20.59375 24.15625 C 20.59375 25.816406 21.085938 27.378906 22.074219 28.839844 L 25.925781 31.769531 L 23.703125 31.621094 L 11.109375 32.9375 L 3.554688 35.425781 L 3.554688 47.574219 L 18.816406 39.671875 C 26.816406 35.671875 32.199219 33.230469 34.964844 32.355469 L 30.667969 31.914062 C 32.246094 31.523438 33.582031 30.792969 34.667969 29.71875 L 36.59375 25.621094 L 48.890625 25.621094 L 48.445312 27.523438 C 48.445312 28.695312 48.890625 29.71875 49.777344 30.597656 C 50.566406 31.476562 51.605469 31.914062 52.890625 31.914062 C 54.074219 31.914062 55.109375 31.476562 56 30.597656 C 56.890625 29.71875 57.332031 28.695312 57.332031 27.523438 L 56.742188 25.621094 L 59.109375 25.621094 L 60.148438 24.304688 L 57.777344 14.644531 L 54.667969 14.351562 L 54.667969 7.183594 L 52.59375 7.183594 M 54.667969 3.667969 C 55.65625 3.667969 56.492188 4.011719 57.183594 4.695312 L 58.222656 7.183594 L 58.222656 11.132812 C 59.800781 11.230469 60.789062 12.109375 61.183594 13.765625 L 63.554688 23.574219 C 63.851562 24.644531 63.65625 25.621094 62.964844 26.5 L 61.925781 27.816406 L 60.742188 28.839844 L 60.445312 30.011719 C 61.925781 30.597656 62.667969 31.671875 62.667969 33.230469 L 62.667969 61.476562 C 62.667969 62.453125 62.273438 63.28125 61.480469 63.964844 C 60.890625 64.648438 60.097656 64.988281 59.109375 64.988281 L 3.554688 64.988281 L 1.035156 63.964844 L 0 61.476562 L 0 35.425781 C 0 33.867188 0.742188 32.792969 2.222656 32.207031 L 2.667969 31.914062 C 7.902344 29.964844 12.988281 28.792969 17.925781 28.402344 L 17.035156 24.15625 C 17.035156 21.621094 17.875 19.28125 19.554688 17.132812 L 19.554688 3.523438 L 20.59375 1.035156 C 21.285156 0.351562 22.125 0.0117188 23.109375 0.0117188 L 38.519531 0.0117188 C 40.097656 0.0117188 41.183594 0.695312 41.777344 2.058594 L 45.035156 9.667969 L 49.035156 10.109375 L 49.035156 7.183594 C 49.035156 6.304688 49.382812 5.472656 50.074219 4.695312 C 50.765625 4.011719 51.605469 3.667969 52.59375 3.667969 L 54.667969 3.667969 "/>
</g>
</svg>
