<?xml version="1.0" encoding="UTF-8"?>
<svg xmlns="http://www.w3.org/2000/svg" xmlns:xlink="http://www.w3.org/1999/xlink" width="64pt" height="66pt" viewBox="0 0 64 66" version="1.1">
<g id="surface1">
<path style=" stroke:none;fill-rule:nonzero;fill:rgb(100%,100%,100%);fill-opacity:1;" d="M 49.109375 15.890625 L 54.78125 19.59375 C 57.144531 21.003906 60.21875 22.238281 64 23.296875 L 63.824219 39.175781 L 49.816406 39.175781 L 49.816406 28.0625 L 42.726562 28.0625 L 42.726562 39.175781 L 36.875 39.175781 C 40.183594 40.9375 44.144531 42.527344 48.753906 43.9375 L 48.753906 65.988281 L 29.429688 65.988281 L 29.429688 50.640625 L 19.5 50.640625 L 19.5 65.988281 L 0 65.988281 L 0 43.9375 C 4.609375 42.527344 8.628906 40.761719 12.054688 38.644531 L 20.210938 33.527344 L 24.464844 30.53125 L 28.71875 33.882812 L 28.71875 23.296875 C 32.03125 22.238281 34.925781 21.003906 37.40625 19.59375 L 46.449219 13.597656 L 49.109375 15.890625 M 21.984375 4.246094 L 28.542969 6.894531 L 28.542969 18.359375 L 18.4375 18.359375 L 18.4375 10.421875 L 13.472656 10.421875 L 13.472656 18.359375 L 3.367188 18.359375 L 3.367188 6.894531 C 5.851562 6.1875 7.976562 5.304688 9.75 4.246094 L 16.132812 0.0117188 L 18.082031 1.601562 L 21.984375 4.246094 "/>
</g>
</svg>
