<?xml version="1.0" encoding="UTF-8"?>
<svg xmlns="http://www.w3.org/2000/svg" xmlns:xlink="http://www.w3.org/1999/xlink" width="63pt" height="39pt" viewBox="0 0 63 39" version="1.1">
<g id="surface1">
<path style=" stroke:#000000;stroke-width:3;stroke-opacity:0.5;fill-rule:nonzero;fill:rgb(100%,100%,100%);fill-opacity:1;" d="M 19.554688 26.367188 L 17.679688 27 L 16.898438 28.894531 L 17.679688 30.949219 L 19.554688 31.738281 L 21.425781 30.949219 C 21.949219 30.421875 22.207031 29.738281 22.207031 28.894531 L 21.425781 27 L 19.554688 26.367188 M 31.890625 28.894531 L 31.109375 27 C 30.589844 26.578125 29.964844 26.367188 29.234375 26.367188 L 27.363281 27 L 26.582031 28.894531 L 27.363281 30.949219 L 29.234375 31.738281 C 29.964844 31.738281 30.589844 31.472656 31.109375 30.949219 L 31.890625 28.894531 M 41.574219 28.894531 L 40.949219 27 L 39.074219 26.367188 L 37.199219 27 L 36.261719 28.894531 C 36.261719 29.738281 36.574219 30.421875 37.199219 30.949219 L 39.074219 31.738281 L 40.949219 30.949219 L 41.574219 28.894531 M 50.628906 30.949219 L 51.410156 28.894531 L 50.628906 27 L 48.601562 26.367188 L 46.726562 27 L 46.101562 28.894531 L 46.726562 30.949219 L 48.601562 31.738281 L 50.628906 30.949219 M 40.167969 0 L 42.355469 0 L 42.355469 10.578125 L 44.226562 10.421875 L 45.320312 10.738281 L 45.632812 12.316406 L 45.632812 19.421875 L 54.066406 19.894531 C 57.503906 20.210938 59.585938 20.894531 60.3125 21.949219 C 62.082031 24.050781 62.394531 26.527344 61.25 29.367188 C 60.3125 31.894531 58.699219 34 56.410156 35.683594 C 53.804688 37.578125 49.640625 38.683594 43.914062 39 L 22.988281 38.367188 L 6.433594 35.210938 L 5.808594 36.949219 C 5.183594 37.789062 4.5625 38.105469 3.9375 37.894531 C 3.101562 38.105469 2.6875 37.421875 2.6875 35.84375 L 2.6875 33.472656 L 0.03125 31.105469 C 0.03125 30.367188 0.550781 29.632812 1.59375 28.894531 L 3.15625 28.261719 L 3 20.84375 L 3.46875 18.949219 L 4.09375 18.789062 L 4.71875 18.789062 C 5.238281 18.894531 5.652344 19.210938 5.964844 19.738281 L 6.589844 21.632812 L 6.902344 26.84375 L 17.054688 23.210938 C 20.90625 21.84375 26.058594 20.738281 32.515625 19.894531 L 32.515625 15.472656 C 32.515625 13.894531 32.828125 13 33.453125 12.789062 L 40.167969 11.050781 L 40.167969 0 "/>
</g>
</svg>
