<?xml version="1.0" encoding="UTF-8"?>
<svg xmlns="http://www.w3.org/2000/svg" xmlns:xlink="http://www.w3.org/1999/xlink" width="64pt" height="84pt" viewBox="0 0 64 84" version="1.1">
<g id="surface1">
<path style=" stroke:#000000;stroke-width:3;stroke-opacity:0.5;fill-rule:nonzero;fill:rgb(100%,100%,100%);fill-opacity:1;" d="M 49.640625 30.425781 L 44.570312 30.425781 L 44.570312 34.171875 L 19.652344 34.171875 L 19.652344 30.425781 L 14.359375 30.425781 L 13.035156 33.511719 L 7.523438 65.699219 C 7.375 67.316406 7.816406 68.640625 8.84375 69.667969 C 9.578125 70.699219 10.757812 71.210938 12.375 71.210938 L 18.105469 71.210938 L 18.105469 64.378906 L 27.367188 64.378906 L 27.367188 63.9375 L 28.691406 60.628906 C 29.574219 59.746094 30.601562 59.308594 31.78125 59.308594 C 33.25 59.308594 34.425781 59.746094 35.308594 60.628906 L 36.851562 63.9375 L 36.851562 64.378906 L 45.894531 64.378906 L 45.894531 71.210938 L 51.40625 71.210938 L 55.15625 69.667969 C 56.039062 68.640625 56.332031 67.316406 56.039062 65.699219 L 50.746094 33.511719 L 49.640625 30.425781 M 37.070312 3.308594 C 38.542969 5.511719 39.496094 8.15625 39.9375 11.242188 L 50.523438 11.242188 L 50.523438 14.550781 L 48.320312 14.550781 L 48.320312 20.722656 C 50.082031 21.460938 51.625 22.414062 52.949219 23.589844 C 55.742188 25.941406 57.359375 28.882812 57.800781 32.410156 L 63.316406 64.820312 C 63.753906 68.640625 62.875 71.800781 60.667969 74.300781 C 59.34375 75.621094 57.65625 76.722656 55.597656 77.605469 L 55.597656 84 L 7.960938 84 L 7.960938 77.605469 L 3.332031 74.300781 C 1.125 71.652344 0.246094 68.492188 0.683594 64.820312 L 5.757812 32.410156 C 6.34375 28.734375 8.035156 25.796875 10.828125 23.589844 L 15.679688 20.722656 L 15.679688 14.550781 L 13.253906 14.550781 L 13.253906 11.242188 L 24.0625 11.242188 C 24.503906 8.304688 25.457031 5.660156 26.929688 3.308594 C 28.546875 1.101562 30.234375 0 32 0 C 33.910156 0 35.601562 1.101562 37.070312 3.308594 "/>
</g>
</svg>
