<?xml version="1.0" encoding="UTF-8"?>
<svg xmlns="http://www.w3.org/2000/svg" xmlns:xlink="http://www.w3.org/1999/xlink" width="64pt" height="108pt" viewBox="0 0 64 108" version="1.1">
<g id="surface1">
<path style=" stroke:none;fill-rule:nonzero;fill:rgb(100%,100%,100%);fill-opacity:1;" d="M 35.433594 73.890625 L 35.433594 104.140625 L 45.871094 104.140625 L 45.871094 73.890625 L 35.433594 73.890625 M 19.226562 60.265625 L 19.226562 65.988281 L 45.597656 65.988281 L 45.597656 60.265625 L 19.226562 60.265625 M 27.46875 104.140625 L 27.46875 73.890625 L 18.128906 73.890625 L 18.128906 104.140625 L 27.46875 104.140625 M 50.265625 29.746094 L 50.265625 49.367188 L 54.660156 55.363281 L 54.660156 104.140625 L 64 104.140625 L 64 107.953125 L 0 107.953125 L 0 104.140625 L 9.0625 104.140625 L 9.0625 55.363281 L 13.734375 49.367188 L 13.734375 30.019531 L 31.589844 0.046875 L 50.265625 29.746094 M 36.808594 35.742188 C 35.523438 34.472656 33.96875 33.835938 32.136719 33.835938 C 30.121094 33.835938 28.476562 34.472656 27.191406 35.742188 L 25.269531 40.101562 L 27.191406 44.460938 C 28.476562 45.734375 30.121094 46.371094 32.136719 46.371094 C 33.96875 46.371094 35.523438 45.734375 36.808594 44.460938 C 38.089844 43.371094 38.730469 41.917969 38.730469 40.101562 C 38.730469 38.285156 38.089844 36.832031 36.808594 35.742188 "/>
</g>
</svg>
