<?xml version="1.0" encoding="UTF-8"?>
<svg xmlns="http://www.w3.org/2000/svg" xmlns:xlink="http://www.w3.org/1999/xlink" width="64pt" height="65pt" viewBox="0 0 64 65" version="1.1">
<g id="surface1">
<path style=" stroke:#000000;stroke-width:3;stroke-opacity:0.5;fill-rule:nonzero;fill:rgb(100%,100%,100%);fill-opacity:1;" d="M 64 0.00390625 L 64 64.996094 L 0 64.996094 L 0 38.078125 L 14.257812 27.414062 L 14.257812 37.914062 L 28.351562 27.414062 L 28.351562 37.914062 L 41.78125 27.742188 L 41.78125 0.00390625 L 50.570312 0.00390625 L 50.570312 35.125 L 55.210938 35.125 L 55.210938 0.00390625 L 64 0.00390625 M 38.132812 45.957031 L 29.511719 45.957031 L 29.511719 50.0625 L 38.132812 50.0625 L 38.132812 45.957031 M 38.132812 52.851562 L 29.511719 52.851562 L 29.511719 56.953125 L 38.132812 56.953125 L 38.132812 52.851562 M 26.363281 45.957031 L 17.742188 45.957031 L 17.742188 50.0625 L 26.363281 50.0625 L 26.363281 45.957031 M 14.589844 45.957031 L 5.96875 45.957031 L 5.96875 50.0625 L 14.589844 50.0625 L 14.589844 45.957031 M 14.589844 56.953125 L 14.589844 52.851562 L 5.96875 52.851562 L 5.96875 56.953125 L 14.589844 56.953125 M 17.742188 56.953125 L 26.363281 56.953125 L 26.363281 52.851562 L 17.742188 52.851562 L 17.742188 56.953125 "/>
</g>
</svg>
