<?xml version="1.0" encoding="UTF-8"?>
<svg xmlns="http://www.w3.org/2000/svg" xmlns:xlink="http://www.w3.org/1999/xlink" width="64pt" height="66pt" viewBox="0 0 64 66" version="1.1">
<g id="surface1">
<path style=" stroke:none;fill-rule:nonzero;fill:rgb(100%,100%,100%);fill-opacity:1;" d="M 15.644531 42.824219 L 17.777344 41.070312 L 24 49.84375 L 23.820312 50.019531 L 23.109375 50.367188 L 22.042969 50.542969 L 21.511719 50.542969 L 20.445312 51.070312 L 10.84375 64.226562 C 10.605469 64.695312 10.191406 64.988281 9.601562 65.105469 L 8.890625 65.632812 L 8.710938 65.632812 L 7.644531 65.105469 L 0.710938 60.71875 L 0 59.667969 L 0 59.492188 L 0.355469 58.613281 L 13.511719 47.738281 L 14.042969 46.859375 L 14.933594 43.703125 L 15.644531 42.824219 M 32.890625 23 L 33.777344 23.351562 L 63.464844 64.929688 L 63.289062 65.984375 L 62.222656 65.632812 L 38.042969 44.753906 L 35.910156 56.15625 L 35.199219 56.683594 L 34.488281 56.15625 L 4.089844 14.578125 L 4.089844 13.527344 L 5.332031 13.878906 L 29.6875 35.457031 L 32.355469 23.351562 L 32.890625 23 M 33.421875 8.4375 L 42.488281 8.613281 L 35.378906 14.050781 L 37.867188 22.648438 L 30.398438 17.386719 L 22.753906 22.648438 L 25.421875 14.050781 L 18.132812 8.613281 L 27.378906 8.4375 L 30.398438 0.015625 L 33.421875 8.4375 M 60.800781 8.613281 L 61.332031 8.4375 L 64 10.191406 L 64 11.070312 L 52.265625 20.367188 L 54.042969 21.597656 L 53.867188 22.296875 L 53.6875 22.472656 L 53.15625 22.296875 L 52.976562 22.121094 L 43.554688 29.667969 L 40 24.578125 L 60.800781 8.613281 "/>
</g>
</svg>
