<?xml version="1.0" encoding="UTF-8"?>
<svg xmlns="http://www.w3.org/2000/svg" xmlns:xlink="http://www.w3.org/1999/xlink" width="64pt" height="66pt" viewBox="0 0 64 66" version="1.1">
<g id="surface1">
<path style=" stroke:#000000;stroke-width:3;stroke-opacity:0.5;fill-rule:nonzero;fill:rgb(100%,100%,100%);fill-opacity:1;" d="M 19.714844 5.175781 L 17.996094 3.765625 L 12.363281 7.519531 C 10.796875 8.457031 8.917969 9.238281 6.730469 9.863281 L 6.730469 20.023438 L 28.949219 20.023438 L 28.949219 9.863281 L 23.160156 7.519531 L 19.714844 5.175781 M 44.753906 15.804688 L 41.9375 17.835938 L 36.773438 21.121094 C 34.582031 22.371094 32.027344 23.515625 29.105469 24.558594 L 29.105469 33.78125 L 25.351562 30.8125 L 21.59375 33.46875 L 14.394531 38.160156 C 11.371094 39.929688 7.824219 41.441406 3.753906 42.691406 L 3.753906 62.234375 L 46.789062 62.234375 L 46.789062 42.691406 L 36.304688 38.628906 L 60.089844 38.628906 L 60.246094 24.558594 L 52.109375 21.277344 C 50.75 20.546875 49.082031 19.398438 47.101562 17.835938 L 44.753906 15.804688 M 32.078125 7.832031 L 32.703125 9.863281 L 32.703125 19.085938 L 34.894531 17.835938 L 39.746094 14.710938 L 42.40625 12.832031 L 44.753906 12.050781 L 47.101562 12.988281 C 50.125 15.492188 52.367188 17.160156 53.828125 17.992188 L 61.339844 20.960938 C 63.113281 21.589844 64 22.785156 64 24.558594 L 63.84375 38.628906 L 62.75 41.285156 C 62.019531 42.015625 61.132812 42.378906 60.089844 42.378906 L 50.542969 42.378906 L 50.542969 62.234375 L 49.449219 65.046875 L 46.789062 65.984375 L 3.753906 65.984375 L 1.09375 65.046875 L 0 62.234375 L 0 42.691406 C 0 41.023438 0.886719 39.878906 2.660156 39.253906 C 6.414062 38.003906 9.703125 36.542969 12.519531 34.875 L 19.402344 30.5 L 23.160156 27.683594 L 25.351562 27.058594 L 25.351562 24.402344 L 25.507812 23.777344 L 6.730469 23.777344 C 5.683594 23.777344 4.796875 23.410156 4.070312 22.683594 C 3.339844 21.953125 2.972656 21.066406 2.972656 20.023438 L 2.972656 9.863281 C 2.972656 8.195312 3.859375 7.050781 5.632812 6.425781 C 7.511719 5.800781 9.074219 5.070312 10.328125 4.234375 L 15.648438 0.796875 L 17.996094 0.015625 L 20.34375 0.953125 L 25.035156 4.234375 L 30.042969 6.425781 L 32.078125 7.832031 "/>
</g>
</svg>
