<?xml version="1.0" encoding="UTF-8"?>
<svg xmlns="http://www.w3.org/2000/svg" xmlns:xlink="http://www.w3.org/1999/xlink" width="64pt" height="64pt" viewBox="0 0 64 64" version="1.1">
<g id="surface1">
<path style=" stroke:none;fill-rule:nonzero;fill:rgb(100%,100%,100%);fill-opacity:1;" d="M 4.203125 32 C 4.203125 36.203125 5.171875 40.351562 7.109375 44.445312 L 7.109375 19.554688 C 5.171875 23.648438 4.203125 27.796875 4.203125 32 M 12.769531 23.109375 L 11.476562 22.789062 L 10.667969 22.789062 L 9.695312 22.464844 L 10.34375 22.304688 L 9.375 22.304688 L 9.375 48 C 13.359375 53.925781 18.910156 57.644531 26.019531 59.152344 L 28.929688 59.152344 L 28.929688 58.828125 L 28.769531 57.859375 L 29.089844 57.535156 L 29.089844 56.402344 L 27.796875 53.980469 L 27.636719 53.011719 L 27.476562 52.523438 L 27.3125 48.808594 L 27.796875 47.675781 L 27.796875 45.574219 L 27.960938 44.445312 L 27.960938 43.796875 L 27.476562 41.859375 L 26.988281 42.828125 L 26.34375 43.636719 L 26.34375 43.796875 L 26.019531 43.960938 L 25.859375 44.28125 L 24.402344 45.898438 L 23.597656 47.355469 L 23.273438 48.160156 L 21.496094 51.070312 L 20.6875 52.203125 L 20.203125 53.496094 L 19.878906 54.625 L 19.71875 55.917969 L 19.554688 56.082031 L 19.554688 56.242188 L 18.101562 55.757812 L 16.484375 54.625 L 16.484375 54.464844 L 16.644531 54.464844 L 17.453125 54.304688 L 18.101562 53.980469 L 18.585938 53.011719 L 20.039062 47.515625 L 22.140625 44.445312 L 23.109375 43.636719 L 23.109375 43.3125 L 24.082031 42.34375 L 24.402344 41.375 L 24.402344 41.050781 L 25.050781 39.109375 L 25.375 38.140625 L 25.535156 37.171875 L 26.183594 36.203125 L 27.3125 34.261719 L 27.960938 31.675781 L 27.960938 30.382812 L 28.445312 29.253906 L 27.796875 27.3125 L 27.476562 26.503906 L 27.476562 25.695312 L 26.828125 24.890625 L 26.828125 24.242188 C 26.613281 23.8125 26.34375 23.597656 26.019531 23.597656 L 25.535156 23.757812 L 23.917969 23.757812 L 22.949219 23.433594 L 22.140625 23.597656 L 20.523438 23.433594 L 19.878906 23.597656 L 19.230469 23.597656 L 18.101562 23.757812 L 16.644531 23.433594 L 15.839844 23.273438 L 15.355469 23.109375 L 14.382812 23.109375 L 13.738281 22.789062 C 13.628906 23.003906 13.304688 23.109375 12.769531 23.109375 M 13.089844 16.808594 L 12.605469 16.324219 L 12.28125 16.324219 L 11.960938 16.160156 L 11.636719 16.160156 L 11.3125 16 L 10.503906 15.355469 L 11.152344 15.355469 L 10.828125 15.355469 C 10.503906 15.355469 10.234375 15.246094 10.019531 15.03125 L 9.375 16.160156 L 9.375 21.171875 L 10.503906 21.011719 L 11.3125 20.847656 L 10.828125 20.847656 L 10.183594 20.6875 L 9.859375 20.363281 L 11.3125 20.203125 L 11.796875 20.523438 L 12.445312 20.523438 L 13.898438 21.171875 L 14.707031 21.171875 L 15.191406 21.332031 L 16.324219 21.171875 L 18.425781 21.171875 L 19.394531 21.011719 L 20.203125 21.332031 L 22.140625 21.171875 L 23.273438 21.171875 L 22.304688 21.011719 L 19.71875 20.039062 L 19.230469 19.71875 L 18.585938 19.554688 L 15.675781 17.9375 L 14.0625 16.96875 L 13.089844 16.808594 M 13.253906 14.0625 L 13.574219 14.222656 L 14.707031 15.355469 L 15.191406 15.675781 L 16.484375 16.160156 L 19.070312 16.644531 L 19.230469 16.808594 L 20.6875 17.617188 L 21.816406 18.261719 L 22.304688 18.261719 L 22.949219 18.585938 L 25.050781 19.230469 L 27.476562 19.554688 L 28.769531 20.039062 L 29.738281 19.878906 L 30.382812 18.910156 L 30.382812 18.585938 L 30.0625 17.617188 L 29.898438 17.617188 L 29.414062 16.808594 L 29.414062 16 L 29.738281 16 C 29.628906 14.816406 30.007812 14.007812 30.867188 13.574219 L 12.605469 13.574219 L 13.253906 14.0625 M 56.890625 44.28125 C 58.828125 40.402344 59.796875 36.308594 59.796875 32 C 59.796875 27.691406 58.828125 23.597656 56.890625 19.71875 L 56.890625 44.28125 M 50.746094 11.476562 C 45.46875 6.625 39.21875 4.203125 32 4.203125 C 24.78125 4.203125 18.53125 6.625 13.253906 11.476562 L 50.746094 11.476562 M 37.496094 23.597656 L 36.6875 23.917969 L 36.039062 27.476562 L 35.71875 28.121094 L 35.230469 31.355469 L 34.746094 31.191406 L 34.910156 32.644531 L 35.230469 33.292969 L 35.230469 34.585938 L 35.394531 34.585938 L 35.394531 34.425781 L 35.554688 34.585938 L 36.203125 35.554688 L 37.332031 38.464844 L 38.625 42.34375 L 38.304688 42.988281 L 38.625 43.796875 L 39.433594 44.605469 L 39.917969 44.445312 L 40.726562 46.867188 L 42.34375 50.585938 L 43.636719 53.171875 L 43.3125 53.171875 L 43.3125 53.496094 L 43.636719 53.171875 L 44.769531 54.140625 L 46.546875 54.140625 L 48.324219 53.171875 L 48.644531 53.65625 L 48.160156 54.304688 L 46.222656 55.433594 L 44.929688 55.433594 L 43.960938 55.917969 L 43.3125 56.890625 L 42.828125 56.566406 L 43.152344 55.109375 L 42.503906 53.980469 L 42.667969 53.816406 L 42.34375 53.496094 L 42.183594 53.496094 L 40.242188 50.910156 L 39.433594 50.101562 C 38.464844 49.023438 38.035156 48.214844 38.140625 47.675781 L 38.464844 47.191406 L 37.980469 46.222656 L 37.011719 45.414062 L 36.847656 45.414062 L 36.847656 45.738281 L 36.6875 45.738281 L 35.230469 42.503906 L 35.070312 44.769531 L 34.910156 44.929688 L 34.585938 44.769531 L 34.585938 45.414062 L 35.070312 46.382812 L 34.746094 47.515625 L 35.070312 47.355469 L 34.910156 47.675781 L 34.101562 53.496094 L 34.101562 55.597656 L 33.9375 55.597656 L 34.101562 55.917969 L 34.746094 56.890625 L 36.203125 57.375 L 37.980469 57.695312 L 37.980469 58.34375 L 36.6875 58.828125 L 35.230469 58.988281 L 34.101562 58.503906 L 33.132812 58.988281 L 32.644531 58.988281 L 32.644531 58.828125 L 32.808594 57.859375 L 32.808594 56.242188 L 32.96875 56.082031 L 32.324219 53.980469 L 32.324219 53.816406 C 31.675781 51.125 31.675781 49.453125 32.324219 48.808594 L 32.808594 48.644531 L 32.808594 47.355469 L 32.484375 46.382812 L 32.324219 45.738281 L 32.160156 45.738281 L 32.160156 45.574219 L 32 42.183594 L 31.675781 40.082031 L 31.355469 41.210938 L 30.867188 42.988281 L 31.03125 44.28125 L 30.867188 45.253906 L 30.867188 45.738281 L 30.546875 46.222656 L 30.546875 46.707031 L 30.382812 47.191406 L 30.222656 47.515625 L 29.898438 48.808594 L 30.222656 49.777344 L 30.382812 51.71875 L 30.222656 52.523438 L 30.382812 53.011719 L 30.382812 53.171875 L 30.707031 55.917969 L 31.191406 56.726562 L 31.191406 57.375 L 31.515625 57.859375 L 32.324219 58.503906 L 32.484375 58.988281 L 32.484375 59.152344 L 37.980469 59.152344 C 45.089844 57.644531 50.746094 53.871094 54.949219 47.839844 L 54.789062 22.625 L 52.523438 22.464844 L 52.523438 22.625 L 54.140625 22.789062 L 53.980469 23.109375 L 50.746094 23.109375 L 50.746094 23.433594 L 50.101562 23.433594 L 50.101562 22.949219 L 47.191406 23.109375 L 46.867188 23.433594 L 45.738281 23.597656 L 44.445312 23.273438 L 44.445312 22.949219 L 44.28125 22.949219 L 43.476562 23.433594 L 43.152344 23.273438 L 42.988281 23.273438 L 37.496094 23.597656 M 43.3125 19.878906 L 43.152344 19.878906 L 38.789062 21.496094 L 43.152344 21.816406 L 43.476562 21.65625 L 43.960938 21.816406 L 44.28125 22.140625 L 44.445312 21.980469 L 44.445312 21.65625 L 46.382812 21.332031 L 49.777344 21.496094 L 49.9375 21.496094 L 49.9375 21.65625 L 50.101562 21.65625 L 50.101562 20.847656 L 50.585938 20.6875 L 50.585938 21.011719 L 51.394531 20.6875 L 52.6875 20.363281 L 54.140625 21.011719 L 54.140625 21.332031 L 54.789062 21.496094 L 54.789062 16.160156 L 53.980469 15.03125 L 52.203125 15.675781 L 53.65625 15.355469 L 53.65625 15.839844 L 50.910156 16.644531 L 51.070312 16.808594 L 50.585938 17.132812 L 50.261719 16.644531 L 47.191406 18.261719 L 46.867188 18.585938 L 45.898438 19.230469 L 44.929688 19.554688 L 44.445312 19.554688 L 44.445312 19.070312 L 44.28125 19.230469 L 43.3125 19.878906 M 42.988281 18.261719 L 43.960938 18.261719 L 43.796875 17.9375 L 43.796875 17.777344 L 43.960938 17.453125 L 46.222656 16.644531 C 47.839844 16.214844 48.808594 15.785156 49.132812 15.355469 L 49.292969 15.355469 L 49.453125 15.675781 L 49.617188 15.675781 L 49.132812 15.03125 L 49.292969 14.707031 L 49.777344 14.867188 L 50.425781 14.222656 L 51.554688 13.574219 L 33.132812 13.574219 L 33.777344 13.898438 L 34.261719 16.160156 L 34.585938 16.160156 L 34.585938 16.808594 L 34.261719 17.292969 L 34.101562 17.617188 L 33.777344 18.585938 L 33.453125 19.070312 L 34.261719 20.363281 C 34.910156 19.5 35.769531 19.070312 36.847656 19.070312 L 38.140625 19.394531 L 42.667969 18.585938 L 42.828125 18.425781 L 42.828125 18.261719 L 42.988281 18.261719 M 56.566406 11.476562 L 56.890625 11.960938 C 61.628906 17.777344 64 24.457031 64 32 C 64 40.835938 60.875 48.378906 54.625 54.625 C 48.378906 60.875 40.835938 64 32 64 C 23.164062 64 15.621094 60.875 9.375 54.625 C 3.125 48.378906 0 40.835938 0 32 C 0 24.457031 2.371094 17.722656 7.109375 11.796875 L 7.433594 11.476562 C 10.453125 7.917969 14.0625 5.117188 18.261719 3.070312 C 22.574219 1.023438 27.152344 0 32 0 C 36.847656 0 41.425781 1.023438 45.738281 3.070312 C 49.9375 5.117188 53.546875 7.917969 56.566406 11.476562 "/>
</g>
</svg>
