<?xml version="1.0" encoding="UTF-8"?>
<svg xmlns="http://www.w3.org/2000/svg" xmlns:xlink="http://www.w3.org/1999/xlink" width="64pt" height="39pt" viewBox="0 0 64 39" version="1.1">
<g id="surface1">
<path style=" stroke:none;fill-rule:nonzero;fill:rgb(100%,100%,100%);fill-opacity:1;" d="M 11.417969 9.152344 L 28.542969 9.152344 L 28.542969 14.78125 L 11.417969 14.78125 L 11.417969 9.152344 M 60.09375 2.304688 C 61.597656 3.722656 62.347656 5.5 62.347656 7.628906 L 64 38.980469 L 0 38.980469 L 1.804688 7.628906 C 1.804688 5.5 2.554688 3.722656 4.054688 2.304688 C 5.558594 0.78125 7.3125 0.0195312 9.316406 0.0195312 L 54.683594 0.0195312 C 56.789062 0.0195312 58.589844 0.78125 60.09375 2.304688 M 57.691406 4.738281 C 56.890625 3.925781 55.886719 3.519531 54.683594 3.519531 L 9.316406 3.519531 C 8.210938 3.519531 7.210938 3.925781 6.308594 4.738281 C 5.507812 5.550781 5.109375 6.511719 5.109375 7.628906 L 3.605469 35.632812 L 46.421875 35.632812 L 46.421875 28.023438 L 51.378906 28.023438 L 51.378906 35.632812 L 60.394531 35.632812 L 58.890625 7.628906 C 58.890625 6.511719 58.492188 5.550781 57.691406 4.738281 M 35.003906 9.152344 L 52.28125 9.152344 L 52.28125 14.78125 L 35.003906 14.78125 L 35.003906 9.152344 "/>
</g>
</svg>
