<?xml version="1.0" encoding="UTF-8"?>
<svg xmlns="http://www.w3.org/2000/svg" xmlns:xlink="http://www.w3.org/1999/xlink" width="64pt" height="64pt" viewBox="0 0 64 64" version="1.1">
<g id="surface1">
<path style=" stroke:#000000;stroke-width:3;stroke-opacity:0.5;fill-rule:nonzero;fill:rgb(100%,100%,100%);fill-opacity:1;" d="M 43.363281 12.5625 L 37.53125 10.316406 L 36.933594 3.589844 L 27.066406 3.589844 L 26.46875 10.316406 L 20.636719 12.5625 L 15.402344 8.375 L 8.375 15.253906 L 12.859375 20.484375 L 10.316406 26.316406 L 3.589844 26.914062 L 3.589844 36.785156 L 10.316406 37.53125 L 12.859375 43.363281 L 8.375 48.449219 L 15.402344 55.476562 L 20.636719 51.140625 L 26.46875 53.53125 L 27.066406 60.410156 L 36.933594 60.410156 L 37.53125 53.53125 L 43.363281 51.140625 L 48.597656 55.476562 L 55.625 48.449219 L 51.289062 43.363281 L 53.683594 37.53125 L 60.410156 36.785156 L 60.410156 26.914062 L 53.683594 26.316406 L 51.289062 20.484375 L 55.625 15.253906 L 48.597656 8.375 L 43.363281 12.5625 M 51.140625 5.832031 L 58.167969 12.859375 L 59.214844 15.101562 L 58.316406 17.644531 L 55.476562 21.085938 L 56.074219 22.878906 L 60.710938 23.328125 C 61.707031 23.527344 62.503906 23.925781 63.101562 24.523438 L 64 26.914062 L 64 36.785156 L 63.101562 39.328125 C 62.503906 40.023438 61.707031 40.375 60.710938 40.375 L 56.074219 40.824219 L 55.476562 42.617188 L 58.316406 46.207031 L 59.214844 48.746094 L 58.167969 50.992188 L 51.140625 58.019531 C 50.542969 58.714844 49.695312 59.066406 48.597656 59.066406 L 46.355469 58.316406 L 42.765625 55.328125 L 40.972656 56.074219 L 40.523438 60.5625 L 39.328125 62.953125 C 38.730469 63.652344 37.929688 64 36.933594 64 L 27.066406 64 C 26.070312 64 25.269531 63.652344 24.671875 62.953125 L 23.476562 60.5625 L 23.175781 56.074219 L 21.234375 55.328125 L 17.792969 58.316406 L 15.402344 59.066406 C 14.40625 59.066406 13.558594 58.714844 12.859375 58.019531 L 5.832031 50.992188 L 4.933594 48.746094 C 4.835938 47.75 5.085938 46.902344 5.683594 46.207031 L 8.523438 42.617188 L 7.925781 40.824219 L 3.289062 40.375 C 2.292969 40.375 1.496094 40.023438 0.898438 39.328125 L 0 36.785156 L 0 26.914062 L 0.898438 24.523438 C 1.496094 23.925781 2.292969 23.527344 3.289062 23.328125 L 7.925781 22.878906 L 8.523438 21.085938 L 5.683594 17.644531 C 5.085938 16.945312 4.835938 16.101562 4.933594 15.101562 L 5.832031 12.859375 L 12.859375 5.832031 C 13.558594 5.132812 14.40625 4.785156 15.402344 4.785156 C 16.199219 4.785156 16.996094 5.085938 17.792969 5.683594 L 21.234375 8.523438 L 23.175781 7.925781 L 23.476562 3.289062 L 24.671875 0.898438 C 25.269531 0.300781 26.070312 0 27.066406 0 L 36.933594 0 C 37.929688 0 38.730469 0.300781 39.328125 0.898438 L 40.523438 3.289062 L 40.972656 7.925781 L 42.765625 8.523438 L 46.355469 5.683594 L 48.597656 4.785156 C 49.695312 4.785156 50.542969 5.132812 51.140625 5.832031 "/>
</g>
</svg>
