<?xml version="1.0" encoding="UTF-8"?>
<svg xmlns="http://www.w3.org/2000/svg" xmlns:xlink="http://www.w3.org/1999/xlink" width="64pt" height="63pt" viewBox="0 0 64 63" version="1.1">
<g id="surface1">
<path style=" stroke:none;fill-rule:nonzero;fill:rgb(100%,100%,100%);fill-opacity:1;" d="M 17.859375 49 L 16.574219 44.546875 C 16.039062 42.742188 15.34375 41.46875 14.488281 40.726562 L 15.289062 46.453125 L 16.414062 49.796875 L 17.378906 49.796875 L 17.859375 49 M 26.535156 30.386719 L 26.535156 29.273438 L 27.179688 28.316406 L 28.625 28.316406 C 29.269531 28.316406 29.589844 28.636719 29.589844 29.273438 L 29.589844 30.386719 C 29.589844 31.023438 29.269531 31.339844 28.625 31.339844 L 27.179688 31.339844 C 26.75 31.339844 26.535156 31.023438 26.535156 30.386719 M 18.019531 29.273438 L 18.824219 28.316406 L 20.269531 28.316406 C 20.914062 28.316406 21.234375 28.636719 21.234375 29.273438 L 21.234375 30.386719 C 21.234375 31.023438 20.914062 31.339844 20.269531 31.339844 L 18.824219 31.339844 L 18.019531 30.386719 L 18.019531 29.273438 M 12.078125 31.339844 L 10.46875 31.339844 L 9.667969 30.386719 L 9.667969 29.273438 L 10.46875 28.316406 L 12.078125 28.316406 L 12.71875 29.273438 L 12.71875 30.386719 C 12.71875 31.023438 12.503906 31.339844 12.078125 31.339844 M 2.113281 28.316406 L 3.5625 28.316406 C 4.097656 28.316406 4.363281 28.636719 4.363281 29.273438 L 4.363281 30.386719 C 4.363281 31.023438 4.097656 31.339844 3.5625 31.339844 L 2.113281 31.339844 C 1.578125 31.339844 1.3125 31.023438 1.3125 30.386719 L 1.3125 29.273438 L 2.113281 28.316406 M 1.3125 0.953125 L 2.113281 0 L 3.5625 0 C 4.097656 0 4.363281 0.316406 4.363281 0.953125 L 4.363281 2.226562 C 4.363281 2.863281 4.097656 3.183594 3.5625 3.183594 L 2.113281 3.183594 C 1.578125 3.183594 1.3125 2.863281 1.3125 2.226562 L 1.3125 0.953125 M 9.667969 0.953125 L 10.46875 0 L 12.078125 0 L 12.71875 0.953125 L 12.71875 2.226562 C 12.71875 2.863281 12.503906 3.183594 12.078125 3.183594 L 10.46875 3.183594 L 9.667969 2.226562 L 9.667969 0.953125 M 18.824219 0 L 20.269531 0 C 20.914062 0 21.234375 0.316406 21.234375 0.953125 L 21.234375 2.226562 C 21.234375 2.863281 20.914062 3.183594 20.269531 3.183594 L 18.824219 3.183594 L 18.019531 2.226562 L 18.019531 0.953125 L 18.824219 0 M 28.625 0 C 29.269531 0 29.589844 0.316406 29.589844 0.953125 L 29.589844 2.226562 C 29.589844 2.863281 29.269531 3.183594 28.625 3.183594 L 27.179688 3.183594 C 26.75 3.183594 26.535156 2.863281 26.535156 2.226562 L 26.535156 0.953125 L 27.179688 0 L 28.625 0 M 36.175781 52.5 L 36.175781 49.796875 L 29.910156 49.796875 L 29.910156 52.5 L 36.175781 52.5 M 43.570312 59.5 L 43.570312 56.476562 L 22.519531 56.316406 L 22.519531 59.5 L 43.570312 59.5 M 32.480469 37.703125 L 32.480469 36.433594 L 24.125 37.546875 C 20.914062 38.394531 19.144531 40.144531 18.824219 42.796875 L 21.394531 42.316406 L 24.125 41.839844 L 23.644531 40.566406 L 23.324219 39.296875 C 24.5 38.128906 25.949219 37.757812 27.660156 38.183594 C 29.484375 38.5 30.5 39.507812 30.714844 41.203125 L 32.964844 41.203125 L 36.339844 41.839844 L 41.160156 42.636719 L 46.460938 42.796875 C 46.140625 40.144531 44.425781 38.394531 41.320312 37.546875 L 32.964844 36.433594 C 32.75 37.175781 32.855469 37.652344 33.285156 37.863281 L 34.570312 38.023438 L 34.890625 38.976562 L 32.480469 38.976562 L 30.554688 38.339844 L 31.519531 37.863281 L 32.480469 37.703125 M 51.28125 39.613281 L 51.28125 45.976562 L 50.316406 52.5 L 51.121094 53.613281 L 51.28125 55.203125 C 51.28125 56.265625 50.210938 56.796875 48.066406 56.796875 L 48.066406 59.5 L 61.886719 59.816406 C 63.277344 60.453125 63.972656 61.515625 63.972656 63 L 0.507812 63 C 0.1875 61.621094 0.347656 60.667969 0.988281 60.136719 L 9.667969 59.5 L 17.378906 59.5 L 17.378906 56.796875 C 15.234375 56.796875 14.164062 56.265625 14.164062 55.203125 L 14.324219 53.613281 L 15.128906 52.5 L 14.164062 45.976562 L 14.164062 39.613281 C 15.664062 39.71875 16.898438 40.621094 17.859375 42.316406 C 19.253906 39.667969 20.59375 37.917969 21.878906 37.066406 C 24.125 35.371094 27.660156 34.523438 32.480469 34.523438 L 32.964844 34.523438 C 37.785156 34.523438 41.320312 35.371094 43.570312 37.066406 C 44.855469 37.917969 46.246094 39.667969 47.746094 42.316406 C 48.601562 40.621094 49.78125 39.71875 51.28125 39.613281 M 50.15625 46.453125 L 50.960938 40.726562 C 49.78125 41.894531 48.710938 44.652344 47.746094 49 C 47.53125 49.425781 47.691406 49.6875 48.226562 49.796875 L 49.191406 49.796875 L 50.15625 46.453125 M 60.601562 5.726562 L 60.601562 25.773438 L 3.882812 25.773438 L 3.882812 5.726562 L 60.601562 5.726562 M 60.761719 28.316406 L 62.207031 28.316406 L 63.011719 29.273438 L 63.011719 30.386719 C 63.011719 31.023438 62.742188 31.339844 62.207031 31.339844 L 60.761719 31.339844 C 60.226562 31.339844 59.957031 31.023438 59.957031 30.386719 L 59.957031 29.273438 C 59.957031 28.636719 60.226562 28.316406 60.761719 28.316406 M 52.246094 28.316406 L 53.851562 28.316406 L 54.65625 29.273438 L 54.65625 30.386719 L 53.851562 31.339844 L 52.246094 31.339844 C 51.816406 31.339844 51.601562 31.023438 51.601562 30.386719 L 51.601562 29.273438 L 52.246094 28.316406 M 44.050781 31.339844 C 43.40625 31.339844 43.085938 31.023438 43.085938 30.386719 L 43.085938 29.273438 C 43.085938 28.636719 43.40625 28.316406 44.050781 28.316406 L 45.496094 28.316406 L 46.300781 29.273438 L 46.300781 30.386719 L 45.496094 31.339844 L 44.050781 31.339844 M 37.140625 31.339844 L 35.695312 31.339844 C 35.054688 31.339844 34.730469 31.023438 34.730469 30.386719 L 34.730469 29.273438 C 34.730469 28.636719 35.054688 28.316406 35.695312 28.316406 L 37.140625 28.316406 L 37.785156 29.273438 L 37.785156 30.386719 C 37.785156 31.023438 37.570312 31.339844 37.140625 31.339844 M 35.695312 0 L 37.140625 0 L 37.785156 0.953125 L 37.785156 2.226562 C 37.785156 2.863281 37.570312 3.183594 37.140625 3.183594 L 35.695312 3.183594 C 35.054688 3.183594 34.730469 2.863281 34.730469 2.226562 L 34.730469 0.953125 C 34.730469 0.316406 35.054688 0 35.695312 0 M 44.050781 0 L 45.496094 0 L 46.300781 0.953125 L 46.300781 2.226562 L 45.496094 3.183594 L 44.050781 3.183594 C 43.40625 3.183594 43.085938 2.863281 43.085938 2.226562 L 43.085938 0.953125 C 43.085938 0.316406 43.40625 0 44.050781 0 M 52.246094 0 L 53.851562 0 L 54.65625 0.953125 L 54.65625 2.226562 L 53.851562 3.183594 L 52.246094 3.183594 C 51.816406 3.183594 51.601562 2.863281 51.601562 2.226562 L 51.601562 0.953125 L 52.246094 0 M 62.207031 0 L 63.011719 0.953125 L 63.011719 2.226562 C 63.011719 2.863281 62.742188 3.183594 62.207031 3.183594 L 60.761719 3.183594 C 60.226562 3.183594 59.957031 2.863281 59.957031 2.226562 L 59.957031 0.953125 C 59.957031 0.316406 60.226562 0 60.761719 0 L 62.207031 0 "/>
</g>
</svg>
