<?xml version="1.0" encoding="UTF-8"?>
<svg xmlns="http://www.w3.org/2000/svg" xmlns:xlink="http://www.w3.org/1999/xlink" width="63pt" height="42pt" viewBox="0 0 63 42" version="1.1">
<g id="surface1">
<path style=" stroke:#000000;stroke-width:3;stroke-opacity:0.5;fill-rule:nonzero;fill:rgb(100%,100%,100%);fill-opacity:1;" d="M 41.472656 3.417969 L 39.503906 3.417969 L 39.503906 13.242188 L 33.464844 14.808594 C 32.90625 14.996094 32.625 15.804688 32.625 17.226562 L 32.625 21.214844 C 26.820312 21.972656 22.183594 22.96875 18.71875 24.203125 L 9.589844 27.476562 L 9.308594 22.78125 L 8.746094 21.070312 L 7.34375 20.21875 L 7.0625 20.359375 L 6.921875 20.21875 C 6.359375 20.21875 6.078125 20.882812 6.078125 22.210938 L 6.21875 28.757812 C 5.75 28.855469 5.285156 29.089844 4.816406 29.472656 C 3.878906 30.039062 3.410156 30.65625 3.410156 31.320312 L 5.796875 33.601562 L 5.796875 35.59375 C 5.796875 36.828125 6.078125 37.445312 6.640625 37.445312 L 7.0625 37.445312 C 7.71875 37.445312 8.234375 37.160156 8.609375 36.589844 L 9.167969 35.023438 C 13.289062 36.542969 18.25 37.492188 24.054688 37.871094 L 39.085938 38.582031 C 46.292969 38.582031 51.304688 37.539062 54.113281 35.449219 C 56.171875 33.933594 57.621094 32.035156 58.464844 29.757812 C 59.496094 27.191406 59.214844 24.960938 57.621094 23.0625 C 56.96875 22.117188 55.09375 21.5 52.003906 21.214844 L 44.421875 20.785156 L 44.421875 14.378906 L 44.28125 12.957031 L 43.4375 12.671875 L 43.15625 12.671875 L 41.472656 12.957031 L 41.472656 3.417969 M 41.472656 0 C 42.40625 0 43.203125 0.332031 43.859375 0.996094 L 44.84375 3.417969 L 44.84375 9.398438 C 46.808594 9.871094 47.792969 11.53125 47.792969 14.378906 L 47.792969 17.652344 L 48.214844 17.652344 L 55.375 18.222656 C 57.714844 18.699219 59.402344 19.601562 60.433594 20.929688 C 62.117188 23.207031 62.726562 25.769531 62.257812 28.617188 C 61.789062 32.414062 59.777344 35.640625 56.21875 38.296875 C 52.660156 40.765625 46.949219 42 39.085938 42 L 23.777344 41.289062 L 10.855469 39.152344 C 9.917969 40.292969 8.652344 40.859375 7.0625 40.859375 L 6.640625 40.859375 C 5.609375 40.859375 4.722656 40.527344 3.972656 39.863281 C 2.941406 38.820312 2.429688 37.398438 2.429688 35.59375 L 2.429688 35.308594 C 0.835938 34.074219 0.0390625 32.746094 0.0390625 31.320312 C 0.0390625 29.519531 0.929688 28 2.707031 26.765625 L 2.707031 22.210938 L 3.550781 18.652344 L 6.921875 16.800781 L 7.34375 16.800781 C 8.933594 16.800781 10.339844 17.558594 11.558594 19.078125 C 12.210938 20.027344 12.585938 21.167969 12.679688 22.496094 L 12.679688 22.78125 L 17.597656 21.070312 L 29.253906 18.222656 L 29.253906 17.226562 C 29.253906 14.09375 30.28125 12.242188 32.34375 11.675781 L 36.132812 10.535156 L 36.132812 3.417969 C 36.132812 2.46875 36.460938 1.660156 37.117188 0.996094 C 37.773438 0.332031 38.570312 0 39.503906 0 L 41.472656 0 "/>
</g>
</svg>
