<?xml version="1.0" encoding="UTF-8"?>
<svg xmlns="http://www.w3.org/2000/svg" xmlns:xlink="http://www.w3.org/1999/xlink" width="64pt" height="57pt" viewBox="0 0 64 57" version="1.1">
<g id="surface1">
<path style=" stroke:#000000;stroke-width:3;stroke-opacity:0.5;fill-rule:nonzero;fill:rgb(100%,100%,100%);fill-opacity:1;" d="M 56.445312 42.117188 C 58.867188 39.125 59.660156 36.785156 58.820312 35.097656 C 57.421875 32.945312 54.210938 31.871094 49.183594 31.871094 L 46.667969 32.011719 L 45.828125 32.992188 L 45.269531 33.414062 L 46.25 35.097656 C 44.664062 36.691406 42.382812 38.09375 39.402344 39.308594 C 36.703125 40.527344 34.375 41.230469 32.417969 41.417969 L 32.417969 41.558594 L 31.160156 43.941406 C 30.417969 44.503906 29.578125 44.785156 28.648438 44.785156 L 25.296875 44.363281 L 22.78125 42.820312 C 22.222656 41.976562 21.988281 41.042969 22.082031 40.011719 L 22.082031 39.871094 L 18.730469 37.34375 L 19.148438 34.957031 L 17.472656 31.167969 L 17.472656 30.324219 L 7.972656 28.640625 L 4.902344 29.203125 C 4.0625 29.484375 3.738281 30.980469 3.921875 33.695312 C 5.039062 40.152344 8.019531 45.113281 12.863281 48.578125 C 17.613281 51.945312 23.851562 53.628906 31.582031 53.628906 L 34.234375 53.628906 C 40.847656 53.351562 45.96875 51.664062 49.601562 48.578125 L 56.445312 42.117188 M 42.195312 10.25 L 37.585938 3.371094 L 36.332031 3.371094 L 34.09375 4.773438 C 30.929688 7.207031 27.296875 13.429688 23.199219 23.445312 L 21.523438 28.078125 L 21.664062 28.078125 L 23.480469 29.484375 C 23.945312 30.230469 24.132812 31.027344 24.039062 31.871094 L 23.199219 34.117188 L 23.480469 34.398438 C 24.222656 33.367188 25.25 32.851562 26.550781 32.851562 L 27.109375 32.851562 L 29.90625 33.273438 C 31.394531 33.554688 32.371094 34.398438 32.839844 35.800781 C 35.910156 34.957031 38.75 33.695312 41.359375 32.011719 C 41.359375 31.167969 41.59375 30.511719 42.058594 30.042969 L 43.453125 28.921875 L 41.359375 22.742188 L 39.683594 16.847656 L 44.433594 18.953125 L 48.761719 21.339844 L 49.460938 19.515625 L 49.742188 17.410156 L 52.113281 20.496094 L 53.792969 24.007812 C 53.605469 20.917969 52.582031 16.332031 50.71875 10.25 L 49.601562 13.195312 C 49.320312 14.507812 48.902344 15.351562 48.34375 15.722656 C 46.109375 15.070312 44.058594 13.242188 42.195312 10.25 M 50.71875 6.878906 L 51.277344 6.878906 C 52.675781 7.160156 53.558594 7.957031 53.929688 9.265625 C 55.792969 15.070312 56.863281 19.890625 57.144531 23.726562 L 56.726562 25.832031 L 54.769531 27.097656 L 53.792969 27.238281 C 52.488281 27.238281 51.511719 26.628906 50.859375 25.410156 L 50.300781 24.429688 L 48.761719 24.710938 L 47.644531 24.429688 C 46.808594 24.148438 45.96875 23.773438 45.128906 23.304688 L 46.808594 28.640625 L 49.183594 28.5 C 55.421875 28.5 59.566406 30.089844 61.613281 33.273438 L 61.753906 33.554688 C 63.242188 36.269531 62.683594 39.402344 60.078125 42.960938 L 51.835938 50.964844 L 51.695312 51.101562 C 47.503906 54.660156 41.777344 56.625 34.515625 57 L 31.582031 57 C 22.921875 57 15.9375 55.035156 10.628906 51.101562 C 5.226562 47.171875 1.875 41.558594 0.570312 34.257812 L 0.570312 33.976562 C 0.199219 29.671875 1.222656 27.050781 3.644531 26.113281 L 7.972656 25.410156 L 18.308594 27.097656 L 19.847656 22.882812 L 20.125 22.183594 C 24.503906 11.605469 28.460938 4.914062 32 2.105469 L 34.933594 0.28125 L 36.332031 0 L 37.585938 0 C 38.519531 0 39.308594 0.328125 39.960938 0.984375 L 44.011719 6.738281 L 46.808594 10.949219 L 47.925781 8.421875 C 48.578125 7.394531 49.507812 6.878906 50.71875 6.878906 "/>
</g>
</svg>
