<?xml version="1.0" encoding="UTF-8"?>
<svg xmlns="http://www.w3.org/2000/svg" xmlns:xlink="http://www.w3.org/1999/xlink" width="64pt" height="64pt" viewBox="0 0 64 64" version="1.1">
<g id="surface1">
<path style=" stroke:none;fill-rule:nonzero;fill:rgb(100%,100%,100%);fill-opacity:1;" d="M 32 6.964844 C 27.136719 6.964844 22.605469 8.289062 18.402344 10.941406 C 14.425781 13.484375 11.386719 16.910156 9.285156 21.222656 C 10.5 21.664062 11.109375 22.550781 11.109375 23.875 L 11.109375 40.289062 C 11.109375 41.507812 10.5 42.390625 9.285156 42.941406 C 11.386719 47.144531 14.425781 50.570312 18.402344 53.222656 C 22.605469 55.875 27.136719 57.203125 32 57.203125 C 38.851562 57.203125 44.765625 54.714844 49.742188 49.742188 C 54.605469 44.765625 57.035156 38.851562 57.035156 32 C 57.035156 25.148438 54.605469 19.234375 49.742188 14.257812 C 44.765625 9.394531 38.851562 6.964844 32 6.964844 M 37.304688 23.875 L 41.285156 32.496094 C 42.832031 35.59375 43.605469 38.464844 43.605469 41.121094 C 43.605469 44.214844 42.5 46.921875 40.289062 49.242188 C 38.078125 51.453125 35.371094 52.558594 32.164062 52.558594 C 28.960938 52.558594 26.308594 51.453125 24.207031 49.242188 C 21.886719 46.921875 20.726562 44.214844 20.726562 41.121094 C 20.726562 38.578125 21.445312 35.8125 22.878906 32.828125 L 26.695312 24.375 L 30.011719 13.597656 L 32.164062 8.789062 C 32.609375 8.789062 33.269531 10.335938 34.15625 13.429688 C 35.480469 18.402344 36.53125 21.886719 37.304688 23.875 M 54.550781 9.449219 C 60.851562 15.640625 64 23.15625 64 32 C 64 40.84375 60.851562 48.414062 54.550781 54.714844 C 48.359375 60.90625 40.84375 64 32 64 C 23.15625 64 15.585938 60.90625 9.285156 54.714844 C 3.09375 48.414062 0 40.84375 0 32 C 0 23.15625 3.09375 15.640625 9.285156 9.449219 C 15.585938 3.148438 23.15625 0 32 0 C 40.84375 0 48.359375 3.148438 54.550781 9.449219 "/>
</g>
</svg>
