<?xml version="1.0" encoding="UTF-8"?>
<svg xmlns="http://www.w3.org/2000/svg" xmlns:xlink="http://www.w3.org/1999/xlink" width="64pt" height="64pt" viewBox="0 0 64 64" version="1.1">
<g id="surface1">
<path style=" stroke:#000000;stroke-width:3;stroke-opacity:0.5;fill-rule:nonzero;fill:rgb(100%,100%,100%);fill-opacity:1;" d="M 24.648438 22.054688 L 24.070312 21.910156 L 24.792969 22.054688 L 24.648438 22.054688 M 25.082031 18.019531 L 26.667969 18.59375 L 27.386719 18.449219 L 28.683594 18.738281 L 28.683594 17.007812 L 22.773438 17.007812 L 23.496094 17.441406 L 23.929688 17.875 L 24.070312 17.875 L 24.9375 18.019531 L 25.082031 18.019531 M 17.152344 17.007812 L 16.144531 15.855469 L 15.277344 15.277344 L 31.566406 15.277344 C 30.894531 15.664062 30.558594 16.382812 30.558594 17.441406 L 30.414062 17.441406 L 30.269531 18.304688 L 30.847656 18.882812 L 31.277344 19.605469 L 31.277344 20.035156 L 30.558594 20.902344 L 29.835938 21.046875 L 28.539062 20.613281 L 27.386719 20.179688 L 26.378906 20.46875 L 24.503906 19.746094 L 23.929688 19.605469 L 23.496094 19.605469 L 22.488281 18.882812 L 21.332031 18.304688 L 21.046875 18.019531 L 18.738281 17.585938 L 18.019531 17.296875 L 17.730469 17.152344 L 17.152344 17.007812 M 32 0 C 40.839844 0 48.382812 3.125 54.628906 9.371094 C 60.875 15.617188 64 23.160156 64 32 C 64 40.839844 60.875 48.382812 54.628906 54.628906 C 48.382812 60.875 40.839844 64 32 64 C 23.160156 64 15.617188 60.875 9.371094 54.628906 C 3.125 48.382812 0 40.839844 0 32 C 0 23.160156 3.125 15.617188 9.371094 9.371094 C 15.617188 3.125 23.160156 0 32 0 M 37.765625 28.394531 L 37.476562 28.828125 L 37.332031 31.277344 L 37.046875 31.855469 L 37.332031 33.007812 L 37.332031 33.152344 L 39.0625 37.046875 L 40.070312 40.214844 L 40.214844 40.359375 L 40.359375 40.9375 L 40.359375 41.226562 L 41.371094 42.378906 L 43.386719 47.566406 L 44.394531 49.585938 L 44.683594 49.730469 L 45.117188 49.730469 L 46.414062 49.152344 L 46.992188 49.007812 L 47.136719 49.007812 L 47.277344 48.863281 C 47.855469 48.863281 48.335938 49.152344 48.722656 49.730469 L 49.007812 50.019531 C 49.394531 50.691406 49.34375 51.363281 48.863281 52.035156 L 48.433594 52.613281 L 47.855469 53.1875 L 45.980469 54.199219 L 44.683594 54.34375 L 44.539062 54.34375 L 44.109375 54.917969 L 42.667969 55.640625 L 41.945312 55.496094 L 41.371094 55.207031 C 40.695312 54.824219 40.410156 54.199219 40.503906 53.332031 L 40.792969 52.613281 L 40.359375 51.890625 L 40.359375 51.746094 L 40.214844 51.746094 L 38.628906 49.730469 L 38.054688 49.007812 L 36.613281 47.277344 L 36.324219 50.882812 L 36.179688 52.46875 L 38.34375 53.046875 L 39.640625 54.34375 L 39.640625 55.0625 L 38.917969 56.503906 L 37.621094 57.65625 L 32.578125 58.089844 L 27.53125 57.65625 L 26.523438 56.9375 L 26.234375 55.785156 C 26.332031 54.726562 26.90625 54.199219 27.964844 54.199219 L 28.109375 54.199219 L 28.253906 53.910156 L 27.386719 51.746094 L 26.953125 50.59375 L 26.8125 46.414062 L 27.097656 45.550781 L 27.097656 45.40625 L 26.667969 46.125 L 26.523438 46.703125 L 25.945312 47.855469 L 25.800781 48 L 23.785156 51.171875 L 23.785156 51.316406 L 23.496094 52.613281 L 23.351562 52.902344 L 23.207031 53.765625 L 22.773438 54.628906 L 22.628906 54.628906 L 21.765625 55.0625 L 21.332031 55.0625 L 19.605469 54.488281 L 19.460938 54.488281 L 18.304688 53.765625 L 17.585938 53.046875 L 17.152344 52.035156 L 17.152344 51.746094 L 18.019531 50.164062 L 18.882812 49.875 L 19.171875 49.730469 L 19.171875 49.296875 L 19.605469 47.277344 L 20.46875 44.972656 L 22.199219 42.378906 L 23.0625 41.371094 L 23.0625 41.226562 L 23.207031 40.9375 L 23.929688 39.929688 L 24.070312 39.785156 L 24.070312 39.640625 L 24.792969 37.332031 L 25.082031 36.757812 L 25.082031 36.46875 L 25.226562 36.035156 L 25.800781 34.738281 L 25.945312 34.449219 L 26.667969 33.441406 L 26.8125 33.152344 L 27.242188 31.277344 L 27.53125 29.40625 L 27.242188 27.964844 L 27.097656 27.820312 L 26.953125 27.386719 L 26.953125 26.667969 L 26.523438 26.089844 L 25.226562 26.089844 L 22.628906 25.800781 L 21.910156 26.089844 L 21.765625 26.089844 L 21.332031 25.945312 L 21.046875 26.089844 L 20.179688 26.089844 L 18.738281 25.800781 L 18.449219 25.800781 L 18.304688 25.65625 L 17.875 25.65625 L 17.585938 25.511719 L 16.722656 25.511719 L 16.433594 25.371094 L 15.710938 25.511719 L 15.421875 25.511719 L 14.558594 25.226562 L 14.125 25.226562 L 14.125 54.199219 C 19.410156 58.425781 25.371094 60.539062 32 60.539062 C 39.304688 60.539062 45.742188 57.992188 51.316406 52.902344 L 51.171875 25.511719 L 50.304688 25.511719 L 49.296875 25.800781 L 48.722656 25.800781 L 47.710938 25.511719 L 46.414062 25.65625 L 45.117188 26.089844 L 44.828125 26.089844 C 44.539062 26.089844 44.109375 25.945312 43.53125 25.65625 L 42.953125 25.800781 L 42.089844 25.65625 L 38.34375 25.945312 L 37.765625 28.394531 M 42.667969 20.902344 L 42.8125 20.902344 L 43.53125 20.179688 L 43.820312 20.179688 L 43.820312 20.613281 L 44.253906 20.613281 L 45.117188 20.46875 L 45.835938 19.746094 L 48.863281 18.019531 L 49.152344 18.449219 L 49.585938 18.304688 L 49.441406 18.019531 L 52.035156 17.152344 L 52.035156 16.863281 L 50.59375 17.152344 L 50.59375 17.007812 L 52.035156 16.578125 L 49.152344 13.40625 L 16.144531 13.40625 L 13.550781 16.144531 L 13.695312 16.144531 L 13.980469 16.289062 L 14.414062 16.578125 L 13.40625 16.289062 L 13.117188 16.722656 L 13.695312 16.722656 L 13.980469 17.007812 L 13.40625 17.007812 L 14.125 17.441406 L 14.414062 17.585938 L 14.847656 17.585938 L 14.992188 17.875 L 15.277344 17.875 L 15.855469 18.164062 L 16.289062 18.304688 L 16.578125 18.304688 L 18.019531 19.171875 L 20.613281 20.613281 L 21.332031 20.613281 L 21.765625 20.902344 L 22.773438 21.332031 L 23.929688 21.910156 L 22.488281 22.199219 L 22.199219 22.199219 L 21.332031 21.910156 L 20.902344 21.910156 L 20.613281 22.199219 L 18.738281 22.054688 L 17.730469 22.199219 L 17.152344 22.199219 L 16.722656 22.054688 L 16.433594 22.199219 L 15.277344 21.476562 L 14.992188 21.476562 L 14.125 21.1875 L 13.261719 21.332031 L 12.828125 21.332031 L 13.261719 21.765625 L 13.980469 21.765625 L 13.550781 21.910156 L 12.394531 21.910156 L 12.394531 17.585938 L 10.523438 20.902344 L 10.523438 50.738281 L 12.394531 52.613281 L 12.394531 23.0625 L 13.261719 23.0625 L 12.683594 23.207031 L 13.117188 23.496094 L 14.847656 23.496094 L 15.421875 23.785156 L 15.710938 23.785156 C 16 23.785156 16.191406 23.6875 16.289062 23.496094 L 16.578125 23.640625 L 17.007812 23.785156 L 17.730469 23.785156 L 18.882812 24.070312 L 20.179688 24.359375 L 21.332031 24.214844 L 21.765625 24.359375 L 21.910156 24.359375 L 22.34375 24.070312 L 22.488281 24.070312 L 23.640625 24.214844 L 23.929688 24.214844 L 24.503906 24.070312 L 25.371094 24.359375 L 27.386719 24.359375 L 27.964844 24.792969 L 27.964844 25.371094 L 28.539062 26.089844 L 28.828125 27.53125 L 29.550781 29.261719 L 29.117188 31.421875 L 28.683594 32.578125 L 28.394531 33.730469 L 27.386719 35.460938 L 26.953125 36.46875 L 26.378906 38.054688 L 25.800781 39.640625 L 25.800781 40.070312 L 25.65625 40.359375 L 25.511719 40.9375 L 24.792969 41.800781 L 24.648438 42.089844 L 23.929688 42.953125 L 21.910156 45.550781 L 20.613281 50.449219 L 20.179688 51.316406 L 19.746094 51.605469 L 19.460938 51.605469 L 18.882812 51.746094 L 18.882812 52.035156 L 20.179688 52.902344 L 21.332031 53.332031 L 21.476562 53.332031 L 21.621094 53.046875 L 21.765625 51.890625 L 22.199219 50.882812 L 23.207031 48.722656 L 24.359375 46.992188 L 24.792969 46.125 L 25.082031 45.40625 L 25.800781 44.253906 L 26.523438 43.386719 L 27.097656 42.667969 L 27.53125 42.234375 L 27.53125 42.089844 L 28.253906 41.371094 L 28.539062 40.503906 L 28.972656 42.234375 L 29.117188 42.953125 L 28.828125 44.828125 L 28.828125 45.695312 L 28.394531 46.847656 C 28.109375 48 28.15625 49.058594 28.539062 50.019531 L 28.972656 51.316406 L 29.695312 52.902344 L 29.980469 53.476562 L 29.980469 54.488281 L 29.695312 54.773438 L 29.980469 55.640625 L 29.835938 55.785156 L 29.980469 55.929688 L 30.703125 56.214844 L 32.578125 56.359375 C 33.730469 56.359375 33.875 56.214844 33.007812 55.929688 L 32.863281 55.351562 L 32.433594 55.0625 L 32.289062 54.773438 L 31.855469 54.34375 L 31.855469 53.765625 L 31.421875 52.902344 L 31.277344 51.890625 L 31.136719 50.738281 L 31.136719 50.449219 L 30.992188 50.019531 L 31.277344 49.296875 L 30.847656 46.847656 L 30.992188 46.125 L 30.992188 45.550781 L 31.277344 45.261719 L 31.277344 44.394531 L 31.566406 43.964844 L 31.710938 43.53125 L 31.710938 41.65625 L 32 39.929688 L 32.289062 39.0625 L 32.578125 40.792969 L 32.722656 43.820312 L 32.722656 43.964844 L 32.863281 43.964844 L 33.007812 44.683594 L 33.441406 45.40625 L 33.296875 46.558594 L 32.863281 46.847656 C 32.289062 47.328125 32.335938 48.769531 33.007812 51.171875 L 33.007812 51.316406 L 33.296875 52.902344 L 33.296875 53.046875 L 33.441406 52.902344 L 33.441406 53.1875 L 33.296875 53.332031 L 33.441406 54.773438 L 33.152344 55.640625 L 33.152344 55.929688 L 33.585938 55.929688 L 34.449219 55.496094 L 35.605469 55.785156 L 36.757812 55.640625 L 37.910156 55.207031 L 37.910156 54.628906 L 35.171875 53.910156 L 34.59375 53.046875 L 34.449219 53.046875 L 34.304688 52.757812 L 34.449219 52.757812 L 34.449219 52.613281 L 35.171875 45.695312 L 35.316406 45.40625 L 35.171875 45.550781 L 35.316406 44.683594 L 34.882812 43.820312 L 34.882812 43.097656 L 35.171875 43.242188 L 35.171875 43.386719 L 35.316406 43.097656 L 35.460938 41.226562 L 36.757812 43.964844 L 36.902344 43.964844 L 37.046875 43.53125 L 37.1875 43.675781 L 37.910156 44.394531 L 38.34375 45.261719 L 38.054688 45.695312 C 37.957031 46.269531 38.34375 46.992188 39.207031 47.855469 L 39.929688 48.578125 L 41.65625 50.882812 L 41.800781 50.882812 L 41.800781 50.738281 L 42.089844 51.171875 L 41.945312 51.316406 L 42.523438 52.324219 L 42.234375 53.621094 L 42.667969 53.910156 L 43.386719 53.046875 L 44.253906 52.613281 L 45.261719 52.613281 L 46.992188 51.605469 L 47.421875 51.027344 L 47.277344 50.59375 L 47.136719 50.738281 L 45.695312 51.460938 L 43.964844 51.460938 L 42.953125 50.738281 L 42.667969 50.882812 L 42.667969 50.738281 L 42.953125 50.59375 L 41.800781 48.289062 L 40.503906 44.972656 L 39.640625 42.953125 L 39.207031 42.953125 L 38.628906 42.234375 L 38.34375 41.511719 L 38.628906 40.9375 L 37.476562 37.476562 L 36.324219 34.882812 L 35.746094 34.019531 L 35.746094 33.875 L 35.605469 34.019531 L 35.605469 33.007812 L 35.171875 32.289062 L 35.171875 30.992188 L 35.605469 30.992188 L 35.890625 28.253906 L 36.179688 27.53125 L 36.757812 24.503906 L 36.902344 24.503906 L 37.476562 24.214844 L 42.523438 23.929688 L 42.953125 24.070312 L 43.53125 23.640625 L 43.820312 23.640625 L 43.675781 23.785156 L 43.675781 23.929688 L 43.820312 23.929688 L 44.109375 24.070312 C 44.394531 24.265625 44.636719 24.359375 44.828125 24.359375 L 46.269531 23.929688 L 48.722656 23.640625 L 48.722656 24.070312 L 49.296875 24.070312 L 49.296875 23.785156 L 52.179688 23.929688 L 52.324219 23.496094 L 50.882812 23.207031 L 52.902344 23.207031 L 53.046875 51.171875 L 54.773438 49.007812 L 54.773438 21.046875 L 52.902344 17.730469 L 52.902344 22.34375 L 52.324219 22.199219 L 52.324219 21.910156 L 51.027344 21.332031 L 49.152344 21.910156 L 49.152344 21.765625 L 48.722656 21.765625 L 48.722656 22.628906 L 48.578125 22.628906 L 48.578125 22.34375 L 45.550781 22.199219 L 43.675781 22.34375 L 43.53125 22.488281 L 43.820312 22.773438 L 43.53125 22.773438 L 43.386719 22.628906 L 42.953125 22.628906 L 38.628906 22.34375 L 42.667969 20.902344 M 42.8125 19.316406 L 42.667969 19.316406 L 42.378906 19.605469 L 42.234375 19.605469 L 42.089844 19.746094 L 38.054688 20.46875 L 36.902344 20.179688 C 36.035156 20.179688 35.265625 20.566406 34.59375 21.332031 L 33.875 20.035156 L 34.304688 19.746094 L 34.449219 18.882812 L 34.738281 18.738281 L 34.882812 17.585938 L 34.738281 17.585938 L 34.164062 15.710938 L 33.585938 15.277344 L 50.019531 15.277344 L 49.007812 15.855469 L 48.433594 16.433594 L 48.144531 16.289062 L 47.855469 16.578125 L 48.289062 17.152344 L 48.144531 17.152344 L 48 16.863281 L 47.855469 17.007812 C 47.566406 17.296875 46.703125 17.632812 45.261719 18.019531 C 43.820312 18.304688 43.097656 18.691406 43.097656 19.171875 L 43.386719 19.460938 L 43.097656 19.605469 L 42.8125 19.316406 M 41.226562 18.164062 L 41.65625 17.875 L 41.800781 17.875 L 42.8125 17.007812 L 36.46875 17.007812 L 36.613281 17.296875 L 36.46875 18.449219 L 36.902344 18.449219 L 38.199219 18.738281 L 41.226562 18.164062 M 49.152344 11.675781 L 50.304688 12.253906 L 53.476562 15.566406 L 53.765625 16.289062 L 54.34375 16.722656 L 56.359375 20.324219 L 56.503906 21.046875 L 56.503906 46.414062 C 59.195312 41.898438 60.539062 37.09375 60.539062 32 C 60.539062 24.121094 57.753906 17.394531 52.179688 11.820312 C 46.605469 6.246094 39.878906 3.460938 32 3.460938 C 24.121094 3.460938 17.394531 6.246094 11.820312 11.820312 C 6.246094 17.394531 3.460938 24.121094 3.460938 32 C 3.460938 37.957031 5.238281 43.484375 8.792969 48.578125 L 8.792969 20.902344 L 8.9375 20.035156 L 10.953125 16.722656 L 11.820312 15.566406 L 11.820312 15.421875 L 12.253906 14.992188 L 14.992188 12.253906 L 16.144531 11.675781 L 49.152344 11.675781 "/>
</g>
</svg>
