<?xml version="1.0" encoding="UTF-8"?>
<svg xmlns="http://www.w3.org/2000/svg" xmlns:xlink="http://www.w3.org/1999/xlink" width="64pt" height="71pt" viewBox="0 0 64 71" version="1.1">
<g id="surface1">
<path style=" stroke:#000000;stroke-width:3;stroke-opacity:0.5;fill-rule:nonzero;fill:rgb(100%,100%,100%);fill-opacity:1;" d="M 14.796875 59.167969 L 14.796875 40.296875 C 18.65625 44.882812 23.53125 47.492188 29.425781 48.132812 L 29.425781 59.167969 L 14.796875 59.167969 M 25.570312 51.332031 L 18.65625 48.613281 L 18.65625 55.328125 L 25.570312 55.328125 L 25.570312 51.332031 M 49.203125 40.296875 L 49.203125 59.167969 L 34.574219 59.167969 L 34.574219 48.132812 C 40.46875 47.492188 45.34375 44.882812 49.203125 40.296875 M 45.34375 48.613281 L 38.429688 51.332031 L 38.429688 55.328125 L 45.34375 55.328125 L 45.34375 48.613281 M 48.882812 6.078125 C 53.707031 10.128906 56.707031 15.246094 57.886719 21.429688 L 57.566406 23.507812 L 58.207031 25.585938 L 58.207031 55.328125 L 60.136719 55.328125 C 61.210938 55.328125 62.121094 55.703125 62.871094 56.449219 C 63.621094 57.300781 63.996094 58.207031 63.996094 59.167969 L 63.996094 67.164062 C 63.996094 68.226562 63.621094 69.132812 62.871094 69.878906 C 62.121094 70.625 61.210938 71 60.136719 71 L 3.863281 71 L 1.289062 69.878906 C 0.433594 69.132812 0.00390625 68.226562 0.00390625 67.164062 L 0.00390625 59.167969 C 0.00390625 58.207031 0.433594 57.300781 1.289062 56.449219 C 2.039062 55.703125 2.898438 55.328125 3.863281 55.328125 L 5.792969 55.328125 L 5.792969 25.585938 L 6.433594 23.507812 L 6.273438 21.429688 C 7.347656 15.246094 10.347656 10.128906 15.277344 6.078125 C 20.101562 2.027344 25.675781 0 32 0 C 38.324219 0 43.953125 2.027344 48.882812 6.078125 M 53.867188 21.429688 C 52.796875 16.417969 50.222656 12.257812 46.148438 8.953125 C 42.074219 5.542969 37.359375 3.835938 32 3.835938 C 26.640625 3.835938 21.925781 5.542969 17.851562 8.953125 C 13.882812 12.257812 11.3125 16.417969 10.132812 21.429688 L 9.652344 25.90625 L 9.652344 59.167969 L 3.863281 59.167969 L 3.863281 67.164062 L 60.136719 67.164062 L 60.136719 59.167969 L 54.347656 59.167969 L 54.347656 25.90625 L 53.867188 21.429688 "/>
</g>
</svg>
