<?xml version="1.0" encoding="UTF-8"?>
<svg xmlns="http://www.w3.org/2000/svg" xmlns:xlink="http://www.w3.org/1999/xlink" width="64pt" height="68pt" viewBox="0 0 64 68" version="1.1">
<g id="surface1">
<path style=" stroke:#000000;stroke-width:3;stroke-opacity:0.5;fill-rule:nonzero;fill:rgb(100%,100%,100%);fill-opacity:1;" d="M 44.394531 16.644531 L 64 16.644531 L 64 67.972656 L 0 67.972656 L 0 9.996094 L 2.960938 9.996094 L 2.960938 0.0273438 L 9.433594 0.0273438 L 9.433594 9.996094 L 26.636719 9.996094 L 26.636719 30.859375 L 44.394531 30.859375 L 44.394531 16.644531 M 48.09375 28.644531 L 48.09375 33.628906 L 60.671875 33.628906 L 60.671875 28.644531 L 48.09375 28.644531 M 60.671875 45.816406 L 48.09375 45.816406 L 48.09375 50.617188 L 60.671875 50.617188 L 60.671875 45.816406 M 60.671875 37.140625 L 48.09375 37.140625 L 48.09375 42.125 L 60.671875 42.125 L 60.671875 37.140625 M 36.996094 38.800781 L 36.996094 41.753906 L 41.0625 41.753906 L 41.0625 38.800781 L 36.996094 38.800781 M 35.515625 38.800781 L 31.628906 38.800781 L 31.628906 41.753906 L 35.515625 41.753906 L 35.515625 38.800781 M 35.515625 47.664062 L 31.628906 47.664062 L 31.628906 51.910156 L 35.515625 51.910156 L 35.515625 47.664062 M 41.0625 51.910156 L 41.0625 47.664062 L 36.996094 47.664062 L 36.996094 51.910156 L 41.0625 51.910156 M 35.515625 56.894531 L 31.628906 56.894531 L 31.628906 62.988281 L 35.515625 62.988281 L 35.515625 56.894531 M 41.0625 56.894531 L 36.996094 56.894531 L 36.996094 62.988281 L 41.0625 62.988281 L 41.0625 56.894531 M 60.671875 59.109375 L 60.671875 54.308594 L 48.09375 54.308594 L 48.09375 59.109375 L 60.671875 59.109375 M 11.652344 25.507812 L 15.722656 25.507812 L 15.722656 15.535156 L 11.652344 15.535156 L 11.652344 25.507812 M 4.4375 27.90625 L 4.4375 38.0625 L 8.507812 38.0625 L 8.507812 27.90625 L 4.4375 27.90625 M 8.507812 15.535156 L 4.4375 15.535156 L 4.4375 25.507812 L 8.507812 25.507812 L 8.507812 15.535156 M 18.867188 27.90625 L 18.867188 38.0625 L 22.75 38.0625 L 22.75 27.90625 L 18.867188 27.90625 M 22.75 15.535156 L 18.867188 15.535156 L 18.867188 25.507812 L 22.75 25.507812 L 22.75 15.535156 M 11.652344 27.90625 L 11.652344 38.0625 L 15.722656 38.0625 L 15.722656 27.90625 L 11.652344 27.90625 M 26.265625 41.753906 L 30.335938 41.753906 L 30.335938 38.800781 L 26.265625 38.800781 L 26.265625 41.753906 M 26.265625 47.664062 L 26.265625 51.910156 L 30.335938 51.910156 L 30.335938 47.664062 L 26.265625 47.664062 M 15.722656 40.460938 L 11.652344 40.460938 L 11.652344 50.433594 L 15.722656 50.433594 L 15.722656 40.460938 M 18.867188 53.015625 L 18.867188 62.988281 L 22.75 62.988281 L 22.75 53.015625 L 18.867188 53.015625 M 18.867188 50.433594 L 22.75 50.433594 L 22.75 40.460938 L 18.867188 40.460938 L 18.867188 50.433594 M 4.4375 40.460938 L 4.4375 50.433594 L 8.507812 50.433594 L 8.507812 40.460938 L 4.4375 40.460938 M 4.4375 53.015625 L 4.4375 62.988281 L 8.507812 62.988281 L 8.507812 53.015625 L 4.4375 53.015625 M 30.335938 56.894531 L 26.265625 56.894531 L 26.265625 62.988281 L 30.335938 62.988281 L 30.335938 56.894531 M 15.722656 53.015625 L 11.652344 53.015625 L 11.652344 62.988281 L 15.722656 62.988281 L 15.722656 53.015625 "/>
</g>
</svg>
