<?xml version="1.0" encoding="UTF-8"?>
<svg xmlns="http://www.w3.org/2000/svg" xmlns:xlink="http://www.w3.org/1999/xlink" width="64pt" height="60pt" viewBox="0 0 64 60" version="1.1">
<g id="surface1">
<path style=" stroke:#000000;stroke-width:3;stroke-opacity:0.5;fill-rule:nonzero;fill:rgb(100%,100%,100%);fill-opacity:1;" d="M 47.191406 40.746094 L 41.535156 40.746094 L 41.535156 55.132812 L 47.191406 55.132812 L 47.191406 40.746094 M 43.476562 34.605469 L 43.476562 30.242188 L 40.890625 28.304688 L 38.140625 30.242188 L 38.140625 34.605469 L 43.476562 34.605469 M 54.949219 30.242188 L 54.949219 34.605469 L 60.28125 34.605469 L 60.28125 30.242188 L 57.535156 28.304688 L 54.949219 30.242188 M 58.503906 40.746094 L 52.847656 40.746094 L 52.847656 55.132812 L 58.503906 55.132812 L 58.503906 40.746094 M 15.355469 55.132812 L 21.011719 55.132812 L 21.011719 40.746094 L 15.355469 40.746094 L 15.355469 55.132812 M 27.3125 50.445312 L 27.3125 58.039062 L 36.039062 58.039062 L 36.039062 50.445312 L 31.515625 47.535156 L 27.3125 50.445312 M 9.535156 40.746094 L 4.039062 40.746094 L 4.039062 55.132812 L 9.535156 55.132812 L 9.535156 40.746094 M 10.34375 34.605469 L 10.34375 30.242188 L 7.757812 28.304688 L 5.011719 30.242188 L 5.011719 34.605469 L 10.34375 34.605469 M 21.65625 30.242188 L 21.65625 34.605469 L 26.988281 34.605469 L 26.988281 30.242188 L 24.402344 28.304688 L 21.65625 30.242188 M 32.808594 0.0195312 L 32.808594 3.253906 L 35.230469 5.355469 L 35.230469 11.65625 L 37.496094 11.65625 L 37.496094 18.445312 L 39.109375 18.445312 L 39.109375 23.292969 L 60.929688 23.292969 L 60.929688 18.445312 L 64 18.445312 L 64 59.980469 L 0 59.980469 L 0 18.445312 L 3.230469 18.445312 L 3.230469 23.292969 L 24.890625 23.292969 L 24.890625 18.445312 L 26.667969 18.445312 L 26.667969 11.65625 L 28.929688 11.65625 L 28.929688 5.355469 L 29.574219 4.546875 L 31.191406 3.253906 L 31.191406 0.0195312 L 32.808594 0.0195312 "/>
</g>
</svg>
