<?xml version="1.0" encoding="UTF-8"?>
<svg xmlns="http://www.w3.org/2000/svg" xmlns:xlink="http://www.w3.org/1999/xlink" width="64pt" height="66pt" viewBox="0 0 64 66" version="1.1">
<g id="surface1">
<path style=" stroke:#000000;stroke-width:3;stroke-opacity:0.5;fill-rule:nonzero;fill:rgb(100%,100%,100%);fill-opacity:1;" d="M 50.027344 7.628906 C 55.355469 12.816406 58.492188 19.300781 59.433594 27.085938 L 61.628906 28.640625 C 63.195312 30.199219 63.980469 32.066406 63.980469 34.246094 C 63.980469 36.527344 63.195312 38.449219 61.628906 40.003906 C 60.164062 41.457031 58.335938 42.289062 56.140625 42.496094 L 40.152344 58.0625 C 40.152344 60.242188 39.367188 62.109375 37.800781 63.664062 C 36.128906 65.222656 34.195312 66 32 66 C 29.699219 66 27.765625 65.222656 26.199219 63.664062 C 24.632812 62.109375 23.847656 60.242188 23.847656 58.0625 L 8.015625 42.496094 C 5.820312 42.289062 3.992188 41.457031 2.527344 40.003906 C 0.855469 38.550781 0.0195312 36.632812 0.0195312 34.246094 C 0.0195312 32.066406 0.855469 30.199219 2.527344 28.640625 L 3.3125 27.863281 C 4.042969 19.871094 7.074219 13.230469 12.40625 7.9375 C 17.734375 2.644531 24.058594 0 31.371094 0 C 38.480469 0 44.699219 2.542969 50.027344 7.628906 M 58.960938 31.289062 C 58.125 30.355469 57.082031 29.886719 55.828125 29.886719 C 55.515625 22.621094 53.007812 16.449219 48.304688 11.363281 C 43.601562 6.277344 37.957031 3.734375 31.371094 3.734375 C 24.789062 3.734375 19.09375 6.277344 14.285156 11.363281 C 9.582031 16.550781 7.128906 22.777344 6.917969 30.042969 L 5.039062 31.289062 C 4.304688 32.117188 3.941406 33.105469 3.941406 34.246094 C 3.941406 35.492188 4.304688 36.527344 5.039062 37.359375 C 5.976562 38.292969 7.023438 38.757812 8.171875 38.757812 L 9.425781 38.449219 L 27.925781 56.660156 C 27.402344 58.425781 27.714844 59.878906 28.863281 61.019531 C 29.910156 61.847656 30.953125 62.265625 32 62.265625 C 33.148438 62.265625 34.195312 61.847656 35.136719 61.019531 C 36.390625 59.878906 36.753906 58.425781 36.234375 56.660156 L 54.730469 38.449219 L 55.828125 38.757812 C 57.082031 38.757812 58.125 38.292969 58.960938 37.359375 C 59.902344 36.527344 60.375 35.492188 60.375 34.246094 C 60.375 33.105469 59.902344 32.117188 58.960938 31.289062 "/>
</g>
</svg>
