<?xml version="1.0" encoding="UTF-8"?>
<svg xmlns="http://www.w3.org/2000/svg" xmlns:xlink="http://www.w3.org/1999/xlink" width="64pt" height="64pt" viewBox="0 0 64 64" version="1.1">
<g id="surface1">
<path style=" stroke:none;fill-rule:nonzero;fill:rgb(100%,100%,100%);fill-opacity:1;" d="M 49.113281 45.117188 L 49.113281 39.351562 C 47.863281 39.449219 46.804688 40.3125 45.9375 41.945312 L 43.335938 37.910156 C 41.894531 36.566406 39.96875 35.652344 37.558594 35.171875 L 32.503906 34.738281 L 26.871094 35.171875 C 24.5625 35.746094 22.78125 36.707031 21.527344 38.054688 L 19.074219 41.800781 C 18.207031 40.265625 17.101562 39.449219 15.753906 39.351562 L 15.753906 45.117188 L 16.617188 51.027344 L 15.894531 51.890625 L 15.753906 53.476562 C 15.753906 54.4375 16.714844 54.917969 18.640625 54.917969 L 18.640625 57.371094 L 13.875 57.371094 L 3.910156 57.945312 C 3.332031 58.523438 3.1875 59.386719 3.476562 60.539062 L 60.523438 60.539062 C 60.523438 59.195312 59.898438 58.234375 58.648438 57.65625 L 46.515625 57.511719 L 46.226562 57.511719 L 46.226562 54.917969 C 48.152344 54.917969 49.113281 54.4375 49.113281 53.476562 L 48.96875 52.035156 L 48.246094 51.027344 L 49.113281 45.117188 M 57.492188 26.8125 L 57.492188 8.648438 L 6.363281 8.648438 L 6.363281 26.8125 L 57.492188 26.8125 M 50.125 0 L 51.425781 0 C 52.675781 0 53.734375 0.480469 54.601562 1.441406 C 55.371094 0.480469 56.382812 0 57.636719 0 L 58.933594 0 C 60.089844 0 61.101562 0.433594 61.96875 1.296875 C 62.738281 2.164062 63.125 3.171875 63.125 4.324219 L 63.125 5.332031 C 63.125 7.0625 62.402344 8.359375 60.957031 9.226562 L 60.957031 26.089844 C 62.402344 26.953125 63.125 28.253906 63.125 29.980469 L 63.125 30.992188 C 63.125 32.242188 62.738281 33.296875 61.96875 34.164062 C 61.101562 34.929688 60.089844 35.316406 58.933594 35.316406 L 57.636719 35.316406 C 56.382812 35.316406 55.371094 34.835938 54.601562 33.875 C 53.734375 34.835938 52.675781 35.316406 51.425781 35.316406 L 49.691406 35.316406 L 49.691406 35.890625 C 51.328125 36.179688 52.292969 37.1875 52.582031 38.917969 C 52.964844 40.9375 52.773438 44.253906 52.003906 48.863281 L 51.859375 49.875 C 52.628906 51.027344 52.871094 52.421875 52.582031 54.054688 L 60.234375 54.488281 L 62.980469 56.9375 L 63.992188 60.539062 L 62.980469 62.992188 L 60.523438 64 L 3.476562 64 L 1.453125 63.277344 L 0.152344 61.550781 L 0.0078125 58.378906 C 0.203125 57.03125 0.78125 56.023438 1.742188 55.351562 C 2.320312 54.871094 3.089844 54.535156 4.054688 54.34375 L 12.285156 53.910156 C 11.996094 52.371094 12.238281 51.027344 13.007812 49.875 L 12.863281 48.722656 C 12.09375 44.203125 11.902344 40.890625 12.285156 38.773438 C 12.476562 37.527344 13.152344 36.660156 14.308594 36.179688 L 14.308594 35.171875 L 13.875 35.316406 L 12.429688 35.316406 C 11.082031 35.316406 10.070312 34.835938 9.398438 33.875 C 8.628906 34.835938 7.566406 35.316406 6.21875 35.316406 L 4.921875 35.316406 C 3.765625 35.316406 2.753906 34.929688 1.886719 34.164062 C 1.117188 33.296875 0.730469 32.242188 0.730469 30.992188 L 0.730469 29.980469 C 0.730469 28.253906 1.503906 26.953125 3.042969 26.089844 L 3.042969 9.226562 C 1.503906 8.359375 0.730469 7.0625 0.730469 5.332031 L 0.730469 4.324219 C 0.730469 3.171875 1.117188 2.164062 1.886719 1.296875 C 2.753906 0.433594 3.765625 0 4.921875 0 L 6.21875 0 C 7.566406 0 8.628906 0.480469 9.398438 1.441406 C 10.070312 0.480469 11.082031 0 12.429688 0 L 13.875 0 C 15.125 0 16.136719 0.480469 16.90625 1.441406 C 17.675781 0.480469 18.6875 0 19.941406 0 L 21.382812 0 C 22.539062 0 23.550781 0.480469 24.417969 1.441406 C 25.1875 0.480469 26.199219 0 27.449219 0 L 28.75 0 C 30.097656 0 31.15625 0.480469 31.929688 1.441406 C 32.699219 0.480469 33.757812 0 35.105469 0 L 36.40625 0 C 37.65625 0 38.667969 0.480469 39.4375 1.441406 C 40.304688 0.480469 41.363281 0 42.617188 0 L 43.914062 0 C 45.167969 0 46.179688 0.480469 46.949219 1.441406 C 47.816406 0.480469 48.875 0 50.125 0 "/>
</g>
</svg>
