<?xml version="1.0" encoding="UTF-8"?>
<svg xmlns="http://www.w3.org/2000/svg" xmlns:xlink="http://www.w3.org/1999/xlink" width="64pt" height="72pt" viewBox="0 0 64 72" version="1.1">
<g id="surface1">
<path style=" stroke:none;fill-rule:nonzero;fill:rgb(100%,100%,100%);fill-opacity:1;" d="M 52.625 6.578125 L 33.101562 25.800781 L 19.691406 19.5625 L 25.972656 33.050781 L 6.28125 52.4375 C 10.921875 54.6875 16.015625 55.8125 21.558594 55.8125 C 29.367188 55.8125 36.386719 53.507812 42.609375 48.898438 L 39.722656 68.285156 L 59.757812 68.285156 L 56.191406 43.839844 L 47.871094 43.839844 C 52.285156 38.558594 55.003906 32.542969 56.019531 25.800781 C 56.8125 19.054688 55.683594 12.648438 52.625 6.578125 M 53.8125 0.00390625 L 56.191406 4.894531 C 58.792969 10.511719 59.980469 16.46875 59.757812 22.765625 C 59.757812 28.835938 58.226562 34.625 55.171875 40.128906 L 59.417969 40.128906 L 64 71.996094 L 35.308594 71.996094 L 37.855469 55.980469 C 32.539062 58.453125 27.105469 59.6875 21.558594 59.6875 C 15.675781 59.6875 10.074219 58.394531 4.753906 55.8125 L 0 53.449219 L 21.390625 32.375 L 12.054688 12.144531 L 32.253906 21.417969 L 53.8125 0.00390625 "/>
</g>
</svg>
