<?xml version="1.0" encoding="UTF-8"?>
<svg xmlns="http://www.w3.org/2000/svg" xmlns:xlink="http://www.w3.org/1999/xlink" width="64pt" height="59pt" viewBox="0 0 64 59" version="1.1">
<g id="surface1">
<path style=" stroke:none;fill-rule:nonzero;fill:rgb(100%,100%,100%);fill-opacity:1;" d="M 53.695312 19.761719 L 60.542969 12.886719 L 51.125 3.4375 L 44.273438 10.3125 L 47.414062 13.460938 L 34.140625 26.777344 L 21.867188 14.464844 L 30.289062 7.734375 L 26.292969 3.722656 L 17.585938 10.3125 L 15.585938 8.164062 L 11.875 11.886719 L 14.160156 14.175781 C 11.117188 17.902344 8.5 22.195312 6.308594 27.066406 L 4.027344 33.222656 L 5.027344 34.082031 L 18.300781 18.1875 L 30.429688 30.503906 L 23.292969 37.519531 L 16.730469 30.933594 L 13.160156 34.65625 C 10.6875 37.613281 9.308594 40.144531 9.023438 42.246094 L 8.59375 54.132812 L 8.59375 54.703125 L 8.738281 55.417969 L 9.164062 55.5625 L 10.019531 55.417969 L 13.730469 55.5625 L 21.722656 55.132812 C 24.007812 54.847656 26.578125 53.460938 29.429688 50.980469 L 33.140625 47.402344 L 26.578125 40.8125 L 33.570312 33.652344 L 47.414062 47.542969 L 46.273438 48.6875 L 52.695312 55.132812 L 58.832031 49.117188 L 52.265625 42.675781 L 51.125 43.820312 L 37.28125 29.929688 L 50.554688 16.613281 L 53.695312 19.761719 M 51.125 0 C 52.074219 0 52.882812 0.335938 53.550781 1.003906 L 62.96875 10.453125 L 63.96875 12.886719 C 63.96875 13.84375 63.636719 14.605469 62.96875 15.179688 L 56.121094 22.195312 C 55.261719 22.863281 54.453125 23.199219 53.695312 23.199219 C 52.835938 23.199219 52.027344 22.863281 51.265625 22.195312 L 50.554688 21.480469 L 42.132812 29.929688 L 51.410156 39.238281 L 52.265625 39.238281 C 53.3125 39.238281 54.121094 39.523438 54.691406 40.097656 L 61.257812 46.683594 C 61.921875 47.351562 62.257812 48.164062 62.257812 49.117188 L 61.257812 51.554688 L 55.121094 57.710938 L 52.695312 58.570312 L 50.269531 57.710938 L 43.847656 51.125 C 42.894531 50.265625 42.5625 49.167969 42.847656 47.832031 L 33.570312 38.523438 L 31.285156 40.8125 L 35.566406 44.964844 L 36.566406 47.257812 C 36.664062 48.210938 36.375 49.023438 35.710938 49.691406 C 30.953125 55.039062 26.480469 57.996094 22.296875 58.570312 L 13.730469 59 L 9.164062 59 C 7.929688 59 6.976562 58.617188 6.308594 57.855469 L 5.882812 57.566406 C 5.214844 56.519531 4.976562 55.277344 5.167969 53.84375 L 5.597656 41.816406 C 5.882812 39.523438 6.976562 37.089844 8.878906 34.511719 L 7.59375 36.085938 C 7.117188 36.851562 6.359375 37.28125 5.3125 37.375 L 5.027344 37.519531 L 2.742188 36.660156 L 1.886719 35.945312 C 0.648438 34.894531 0.269531 33.699219 0.746094 32.363281 C 2.457031 26.253906 5.40625 20.289062 9.59375 14.464844 L 9.449219 14.320312 C 8.785156 13.652344 8.449219 12.839844 8.449219 11.886719 L 9.449219 9.453125 L 13.160156 5.726562 C 13.828125 5.058594 14.636719 4.726562 15.585938 4.726562 L 17.726562 5.441406 L 24.722656 0.714844 L 26.292969 0.285156 C 27.335938 0.285156 28.148438 0.621094 28.71875 1.289062 L 32.714844 5.296875 L 33.710938 8.304688 C 33.425781 9.453125 32.761719 10.3125 31.714844 10.882812 L 26.71875 14.464844 L 34.140625 21.910156 L 42.417969 13.460938 L 41.847656 12.746094 C 41.183594 12.171875 40.847656 11.359375 40.847656 10.3125 C 40.847656 9.355469 41.183594 8.542969 41.847656 7.875 L 48.699219 1.003906 C 49.363281 0.335938 50.171875 0 51.125 0 "/>
</g>
</svg>
