<?xml version="1.0" encoding="UTF-8"?>
<svg xmlns="http://www.w3.org/2000/svg" xmlns:xlink="http://www.w3.org/1999/xlink" width="64pt" height="64pt" viewBox="0 0 64 64" version="1.1">
<g id="surface1">
<path style=" stroke:none;fill-rule:nonzero;fill:rgb(100%,100%,100%);fill-opacity:1;" d="M 3.335938 32.074219 C 3.335938 38.597656 5.257812 44.464844 9.097656 49.679688 L 26.84375 32.074219 L 9.097656 14.46875 C 5.257812 19.585938 3.335938 25.453125 3.335938 32.074219 M 10.464844 27.109375 L 10.464844 30.871094 L 11.222656 30.871094 C 13.042969 30.871094 13.953125 30.21875 13.953125 28.914062 C 13.953125 27.710938 12.992188 27.109375 11.070312 27.109375 L 10.464844 27.109375 M 6.824219 24.851562 L 10.464844 24.851562 C 15.316406 24.851562 17.742188 26.207031 17.742188 28.914062 C 17.742188 30.519531 16.785156 31.675781 14.863281 32.375 L 18.351562 38.695312 L 14.257812 38.695312 L 10.617188 32.375 L 10.464844 32.375 L 10.464844 38.695312 L 6.824219 38.695312 L 6.824219 24.851562 M 32 60.664062 C 38.570312 60.664062 44.4375 58.609375 49.59375 54.496094 L 31.242188 36.289062 L 13.496094 53.894531 C 18.855469 58.40625 25.023438 60.664062 32 60.664062 M 53.992188 50.433594 C 58.4375 45.117188 60.664062 38.996094 60.664062 32.074219 C 60.664062 25.054688 58.4375 18.933594 53.992188 13.71875 L 35.488281 32.074219 L 53.992188 50.433594 M 32 0.0234375 C 40.796875 0.0234375 48.328125 3.183594 54.597656 9.503906 C 60.867188 15.722656 64 23.246094 64 32.074219 C 64 40.902344 60.867188 48.375 54.597656 54.496094 C 48.328125 60.816406 40.796875 63.976562 32 63.976562 C 23 63.976562 15.367188 60.816406 9.097656 54.496094 C 3.03125 48.375 0 40.902344 0 32.074219 C 0 23.246094 3.03125 15.722656 9.097656 9.503906 C 15.367188 3.183594 23 0.0234375 32 0.0234375 M 49.59375 9.503906 C 44.335938 5.390625 38.472656 3.335938 32 3.335938 C 25.023438 3.335938 18.855469 5.59375 13.496094 10.105469 L 31.242188 27.710938 L 49.59375 9.503906 M 50.046875 30.871094 C 51.765625 30.871094 52.625 30.21875 52.625 28.914062 C 52.625 27.710938 51.714844 27.109375 49.894531 27.109375 L 49.441406 27.109375 L 49.441406 30.871094 L 50.046875 30.871094 M 49.441406 24.851562 C 54.191406 24.851562 56.570312 26.207031 56.570312 28.914062 C 56.570312 30.519531 55.609375 31.675781 53.6875 32.375 L 57.175781 38.695312 L 52.929688 38.695312 L 49.441406 32.375 L 49.441406 38.695312 L 45.347656 38.695312 L 45.347656 24.851562 L 49.441406 24.851562 "/>
</g>
</svg>
