<?xml version="1.0" encoding="UTF-8"?>
<svg xmlns="http://www.w3.org/2000/svg" xmlns:xlink="http://www.w3.org/1999/xlink" width="64pt" height="64pt" viewBox="0 0 64 64" version="1.1">
<g id="surface1">
<path style=" stroke:#000000;stroke-width:3;stroke-opacity:0.5;fill-rule:nonzero;fill:rgb(100%,100%,100%);fill-opacity:1;" d="M 52.179688 11.820312 C 46.605469 6.246094 39.878906 3.460938 32 3.460938 C 24.121094 3.460938 17.394531 6.246094 11.820312 11.820312 C 6.246094 17.394531 3.460938 24.121094 3.460938 32 C 3.460938 39.878906 6.246094 46.558594 11.820312 52.035156 C 17.394531 57.707031 24.121094 60.539062 32 60.539062 C 39.878906 60.539062 46.605469 57.707031 52.179688 52.035156 C 57.753906 46.558594 60.539062 39.878906 60.539062 32 C 60.539062 24.121094 57.753906 17.394531 52.179688 11.820312 M 38.34375 25.511719 L 38.34375 12.109375 L 25.65625 12.109375 L 25.65625 25.511719 L 12.253906 25.511719 L 12.253906 38.199219 L 25.65625 38.199219 L 25.65625 51.605469 L 38.34375 51.605469 L 38.34375 38.199219 L 51.746094 38.199219 L 51.746094 25.511719 L 38.34375 25.511719 M 41.800781 22.054688 L 55.207031 22.054688 L 55.207031 41.65625 L 41.800781 41.65625 L 41.800781 55.0625 L 22.199219 55.0625 L 22.199219 41.65625 L 8.792969 41.65625 L 8.792969 22.054688 L 22.199219 22.054688 L 22.199219 8.648438 L 41.800781 8.648438 L 41.800781 22.054688 M 32 0 C 40.839844 0 48.382812 3.125 54.628906 9.371094 C 60.875 15.617188 64 23.160156 64 32 C 64 40.746094 60.875 48.289062 54.628906 54.628906 C 48.382812 60.875 40.839844 64 32 64 C 23.160156 64 15.617188 60.875 9.371094 54.628906 C 3.125 48.289062 0 40.746094 0 32 C 0 23.160156 3.125 15.617188 9.371094 9.371094 C 15.617188 3.125 23.160156 0 32 0 "/>
</g>
</svg>
