<?xml version="1.0" encoding="UTF-8"?>
<svg xmlns="http://www.w3.org/2000/svg" xmlns:xlink="http://www.w3.org/1999/xlink" width="64pt" height="68pt" viewBox="0 0 64 68" version="1.1">
<g id="surface1">
<path style=" stroke:#000000;stroke-width:3;stroke-opacity:0.5;fill-rule:nonzero;fill:rgb(100%,100%,100%);fill-opacity:1;" d="M 14.617188 61.476562 L 14.617188 51.34375 L 8.878906 51.34375 L 8.878906 61.476562 L 14.617188 61.476562 M 27.652344 51.34375 L 21.917969 51.34375 L 21.917969 61.476562 L 27.652344 61.476562 L 27.652344 51.34375 M 53.902344 61.476562 L 53.902344 51.34375 L 47.992188 51.34375 L 47.992188 61.476562 L 53.902344 61.476562 M 40.867188 51.34375 L 34.957031 51.34375 L 34.957031 61.476562 L 40.867188 61.476562 L 40.867188 51.34375 M 37.738281 19.230469 L 44.167969 0.171875 L 46.082031 0 L 52.511719 19.0625 L 52.511719 37.089844 L 55.292969 37.089844 L 63.988281 46.707031 L 61.03125 46.707031 L 61.03125 68 L 2.449219 68 L 2.449219 46.707031 L 0.0117188 46.707031 L 8.878906 37.261719 L 37.738281 37.261719 L 37.738281 19.230469 M 42.257812 21.121094 L 42.257812 32.453125 L 47.296875 32.453125 L 47.296875 21.121094 L 42.257812 21.121094 "/>
</g>
</svg>
