<?xml version="1.0" encoding="UTF-8"?>
<svg xmlns="http://www.w3.org/2000/svg" xmlns:xlink="http://www.w3.org/1999/xlink" width="63pt" height="47pt" viewBox="0 0 63 47" version="1.1">
<g id="surface1">
<path style=" stroke:none;fill-rule:nonzero;fill:rgb(100%,100%,100%);fill-opacity:1;" d="M 46.382812 38.570312 L 47.800781 37.714844 L 50.070312 39.855469 L 53.046875 42.570312 L 53.472656 42.855469 L 54.039062 43.144531 L 55.171875 43.570312 L 58.433594 43.570312 L 58.433594 38.855469 L 56.449219 38.855469 L 54.179688 36.855469 L 51.34375 34.144531 L 47.800781 33 C 45.058594 33 42.933594 34.238281 41.421875 36.714844 L 40.996094 37.429688 L 39.4375 38.855469 L 37.3125 36.855469 L 34.476562 34.144531 L 30.933594 33 C 28.191406 33 26.019531 34.238281 24.414062 36.714844 L 23.988281 37.429688 C 23.703125 38.285156 23.230469 38.761719 22.570312 38.855469 L 20.300781 36.855469 L 17.46875 34.144531 C 16.332031 33.382812 15.152344 33 13.921875 33 C 11.277344 33 9.152344 34.238281 7.542969 36.714844 L 7.121094 37.429688 C 6.648438 38.382812 6.078125 38.855469 5.417969 38.855469 L 3.433594 38.855469 L 3.433594 43.570312 L 6.835938 43.570312 L 8.253906 43.144531 L 8.960938 42.714844 L 9.105469 42.570312 L 9.8125 42 L 10.378906 41.570312 L 11.230469 40.570312 L 11.796875 39.714844 L 11.9375 39.285156 C 12.410156 38.332031 13.074219 37.808594 13.921875 37.714844 L 16.332031 39.855469 C 18.695312 42.332031 20.726562 43.570312 22.429688 43.570312 C 24.980469 43.570312 27.058594 42.285156 28.664062 39.714844 L 28.808594 39.285156 L 30.792969 37.714844 L 33.199219 39.855469 C 35.5625 42.332031 37.59375 43.570312 39.296875 43.570312 C 41.941406 43.570312 44.066406 42.285156 45.675781 39.714844 L 45.816406 39.285156 L 46.382812 38.570312 M 51.484375 23.429688 L 47.800781 22.144531 C 44.964844 22.144531 42.839844 23.382812 41.421875 25.855469 L 40.996094 26.570312 L 39.4375 28 L 37.3125 26 L 34.902344 23.714844 L 34.617188 23.429688 L 30.933594 22.144531 C 29.421875 22.144531 27.671875 23.09375 25.6875 25 L 22.570312 28 L 20.300781 25.855469 L 17.46875 23.285156 C 16.332031 22.523438 15.152344 22.144531 13.921875 22.144531 L 9.8125 23.429688 L 8.535156 24.570312 L 7.542969 25.855469 L 7.121094 26.570312 L 5.417969 28 L 3.433594 28 L 3.433594 32.714844 L 5.417969 32.714844 L 7.121094 32.429688 L 8.679688 32 L 9.671875 31.285156 L 11.796875 28.855469 L 11.9375 28.429688 C 12.507812 27.382812 13.167969 26.855469 13.921875 26.855469 L 16.332031 29 C 18.695312 31.476562 20.726562 32.714844 22.429688 32.714844 C 25.167969 32.714844 27.246094 31.429688 28.664062 28.855469 L 28.808594 28.429688 L 30.792969 26.855469 L 33.199219 29 C 35.5625 31.476562 37.59375 32.714844 39.296875 32.714844 C 42.035156 32.714844 44.164062 31.429688 45.675781 28.855469 L 45.816406 28.429688 L 46.382812 27.570312 L 47.800781 26.855469 L 50.070312 29 C 52.527344 31.476562 54.605469 32.714844 56.304688 32.714844 L 58.433594 32.714844 L 58.433594 28 L 56.449219 28 L 54.179688 25.855469 L 52.480469 24.144531 L 51.769531 23.714844 L 51.484375 23.429688 M 59.566406 11.285156 L 56.871094 11.285156 L 56.871094 23.855469 L 57.722656 24.570312 L 58.433594 24.570312 C 59.375 24.570312 60.132812 24.90625 60.699219 25.570312 C 61.457031 26.332031 61.832031 27.144531 61.832031 28 L 61.832031 43.570312 C 61.832031 44.617188 61.457031 45.429688 60.699219 46 C 60.132812 46.667969 59.375 47 58.433594 47 L 56.304688 47 C 54.605469 47 52.949219 46.523438 51.34375 45.570312 L 47.941406 42.570312 C 45.675781 45.523438 42.792969 47 39.296875 47 C 36.648438 47 33.863281 45.523438 30.933594 42.570312 C 28.664062 45.523438 25.832031 47 22.429688 47 C 19.78125 47 16.996094 45.523438 14.066406 42.570312 C 11.796875 45.523438 8.914062 47 5.417969 47 L 3.433594 47 L 1.023438 46 L 0.03125 43.570312 L 0.03125 28 L 1.023438 25.570312 C 1.6875 24.90625 2.488281 24.570312 3.433594 24.570312 L 4.285156 24.570312 L 4.710938 23.855469 L 6.410156 21.855469 L 6.410156 11.285156 L 4.566406 11.285156 C 3.71875 11.285156 2.960938 10.953125 2.300781 10.285156 C 1.542969 9.617188 1.167969 8.808594 1.167969 7.855469 L 1.167969 3.429688 C 1.167969 2.476562 1.542969 1.667969 2.300781 1 L 4.566406 0 L 59.566406 0 L 61.976562 1 L 62.96875 3.429688 L 62.96875 7.855469 C 62.96875 8.808594 62.636719 9.617188 61.976562 10.285156 C 61.3125 10.953125 60.511719 11.285156 59.566406 11.285156 M 36.035156 7.855469 L 36.035156 21.285156 L 36.320312 21.570312 L 39.011719 24 L 40.429688 22.570312 L 40.429688 7.855469 L 49.21875 7.855469 L 49.21875 18.429688 C 50.351562 18.90625 51.675781 19.953125 53.1875 21.570312 L 53.472656 21.714844 L 53.472656 7.855469 L 59.566406 7.855469 L 59.566406 3.429688 L 4.566406 3.429688 L 4.566406 7.855469 L 9.8125 7.855469 L 9.8125 19.144531 L 13.355469 18.144531 L 14.207031 18.285156 L 14.207031 7.855469 L 22.851562 7.855469 L 22.851562 23.429688 L 23.84375 22 L 27.390625 18.714844 L 27.390625 7.855469 L 36.035156 7.855469 "/>
</g>
</svg>
