<?xml version="1.0" encoding="UTF-8"?>
<svg xmlns="http://www.w3.org/2000/svg" xmlns:xlink="http://www.w3.org/1999/xlink" width="64pt" height="64pt" viewBox="0 0 64 64" version="1.1">
<g id="surface1">
<path style=" stroke:none;fill-rule:nonzero;fill:rgb(100%,100%,100%);fill-opacity:1;" d="M 6.921875 51.738281 C 2.320312 46.027344 0.0234375 39.476562 0.0234375 32.085938 C 0.0234375 24.582031 2.320312 18.03125 6.921875 12.429688 L 26.445312 32.085938 L 6.921875 51.738281 M 12.308594 28.386719 C 12.308594 29.84375 11.296875 30.570312 9.277344 30.570312 L 8.4375 30.570312 L 8.4375 26.371094 L 9.109375 26.371094 C 11.242188 26.371094 12.308594 27.042969 12.308594 28.386719 M 16.347656 28.386719 C 16.347656 25.363281 13.710938 23.851562 8.4375 23.851562 L 3.894531 23.851562 L 3.894531 39.308594 L 8.4375 39.308594 L 8.4375 32.253906 L 12.476562 39.308594 L 17.019531 39.308594 L 13.316406 32.253906 C 15.335938 31.46875 16.347656 30.179688 16.347656 28.386719 M 51.691406 57.113281 C 45.96875 61.703125 39.460938 64 32.167969 64 C 24.3125 64 17.527344 61.480469 11.804688 56.441406 L 31.328125 36.789062 L 51.691406 57.113281 M 56.574219 52.578125 L 36.207031 32.085938 L 56.574219 11.589844 C 61.511719 17.414062 63.976562 24.246094 63.976562 32.085938 C 63.976562 39.921875 61.511719 46.753906 56.574219 52.578125 M 52.195312 26.371094 C 54.105469 26.371094 55.058594 27.042969 55.058594 28.386719 C 55.058594 29.84375 54.160156 30.570312 52.367188 30.570312 L 51.523438 30.570312 L 51.523438 26.371094 L 52.195312 26.371094 M 59.433594 28.386719 C 59.433594 25.363281 56.796875 23.851562 51.523438 23.851562 L 46.980469 23.851562 L 46.980469 39.308594 L 51.523438 39.308594 L 51.523438 32.253906 L 55.5625 39.308594 L 60.277344 39.308594 L 56.234375 32.253906 C 58.367188 31.46875 59.433594 30.179688 59.433594 28.386719 M 32.167969 0 C 39.460938 0 45.96875 2.296875 51.691406 6.886719 L 31.328125 27.210938 L 11.804688 7.558594 C 17.636719 2.519531 24.425781 0 32.167969 0 "/>
</g>
</svg>
