<?xml version="1.0" encoding="UTF-8"?>
<svg xmlns="http://www.w3.org/2000/svg" xmlns:xlink="http://www.w3.org/1999/xlink" width="64pt" height="59pt" viewBox="0 0 64 59" version="1.1">
<g id="surface1">
<path style=" stroke:#000000;stroke-width:3;stroke-opacity:0.5;fill-rule:nonzero;fill:rgb(100%,100%,100%);fill-opacity:1;" d="M 64 10.710938 L 56.082031 18.488281 L 52.6875 15.085938 L 37.65625 30.148438 L 53.332031 45.695312 L 54.625 44.398438 L 61.898438 51.6875 L 55.109375 58.652344 L 47.839844 51.363281 L 49.132812 49.90625 L 33.453125 34.195312 L 25.375 42.292969 L 32.808594 49.746094 L 32.96875 49.746094 L 28.769531 53.957031 C 25.535156 56.65625 22.625 58.167969 20.039062 58.492188 L 6.789062 58.976562 L 5.171875 58.976562 L 5.171875 57.355469 L 5.65625 44.078125 C 5.980469 41.59375 7.542969 38.675781 10.34375 35.332031 L 14.382812 31.121094 L 14.382812 31.28125 L 21.816406 38.570312 L 29.898438 30.632812 L 16 16.707031 L 0.96875 34.683594 L 0 33.871094 L 2.585938 26.910156 C 5.0625 21.402344 8.027344 16.488281 11.476562 12.171875 L 8.890625 9.742188 L 13.089844 5.53125 L 15.355469 7.796875 C 18.695312 4.558594 21.980469 2.128906 25.210938 0.507812 L 29.738281 4.882812 L 20.203125 12.496094 L 34.101562 26.421875 L 49.132812 11.359375 L 45.574219 7.796875 L 53.332031 0.0234375 L 64 10.710938 M 53.332031 4.558594 L 50.101562 7.796875 L 56.082031 14.113281 L 59.476562 10.710938 L 53.332031 4.558594 "/>
</g>
</svg>
