<?xml version='1.0' encoding='UTF-8'?>
<svg xmlns:xlink="http://www.w3.org/1999/xlink" xmlns="http://www.w3.org/2000/svg" version="1.1" width="400px" height="513px" viewBox="-99.239893341 -97.5129051208 399.547668457 512.627197265"><defs><g id="c1"><path fill="#ffffff" stroke="none" d="M38.05 -37.5 Q40.45 -33.8 42.55 -27.9 45.7 -18.75 45.75 -9.2 45.75 -5.6 45.35 -1.95 44.25 7.15 37.05 15.35 L36.05 16.45 33.5 18.95 32.5 19.85 Q30.3 21.7 27.8 23.3 L26.85 23.9 26.75 23.95 Q23.65 23.45 20.45 22.2 17.7 21.05 16.0 19.05 14.45 17.2 13.4 14.15 12.65 12.0 12.4 9.25 L12.4 8.6 Q16.7 7.25 19.55 3.2 22.0 -0.4 21.45 -6.1 21.1 -9.85 19.15 -15.6 17.55 -20.5 15.4 -20.65 14.5 -20.7 14.9 -19.6 L11.55 -20.6 Q14.95 -24.0 18.55 -28.85 21.75 -33.2 23.25 -36.35 25.35 -41.0 24.8 -44.9 L24.7 -45.2 Q27.55 -45.45 30.2 -44.35 34.65 -42.65 38.05 -37.5 M20.9 -36.8 Q19.55 -34.2 16.3 -29.75 12.8 -25.05 9.0 -21.4 L4.6 -23.4 12.35 -31.6 15.5 -35.2 Q17.2 -37.4 17.8 -39.3 L17.65 -40.1 18.25 -41.2 Q18.55 -41.3 18.7 -41.55 20.15 -44.05 22.85 -44.85 23.2 -41.25 20.9 -36.8 M6.65 -33.0 Q9.75 -33.65 12.4 -35.15 L10.05 -32.6 Q6.5 -28.6 1.1 -23.3 L-4.95 -17.4 -5.15 -27.4 Q-5.1 -28.95 -6.15 -30.15 L-8.15 -32.7 -8.2 -32.8 -6.4 -36.1 Q-3.85 -33.3 0.6 -32.75 L6.65 -33.0 M17.05 -16.1 Q19.65 -9.35 19.45 -4.1 16.45 -4.35 13.35 -5.35 10.1 -6.4 7.85 -8.0 6.5 -8.95 6.45 -12.4 6.45 -16.8 6.25 -17.4 5.25 -20.55 2.3 -21.1 L2.8 -21.6 4.75 -21.4 Q5.2 -20.55 5.9 -20.55 L6.15 -20.6 7.0 -20.05 Q8.85 -19.1 11.75 -18.35 L16.7 -17.1 17.05 -16.1 M0.75 -18.95 Q4.1 -19.95 4.6 -15.35 5.25 -8.65 5.45 -8.35 6.35 -6.8 8.2 -5.75 9.1 -5.25 11.75 -4.15 16.0 -2.5 19.25 -2.1 18.95 -0.65 18.25 0.8 L18.0 0.7 9.75 -1.95 Q9.35 -3.0 8.4 -4.0 L6.55 -5.45 4.25 -5.65 Q3.1 -5.35 2.1 -4.55 -2.8 -5.65 -3.2 -10.65 -3.6 -15.55 0.25 -18.6 L0.65 -18.95 0.75 -18.95 M4.55 -3.35 L6.8 -3.2 Q8.25 -2.6 8.0 -1.75 L4.35 9.9 Q3.85 6.75 1.8 3.75 L1.8 3.7 3.55 -2.6 4.55 -3.35 M50.7 17.9 L50.2 18.05 49.1 18.95 47.85 19.85 Q40.1 25.25 26.15 28.25 L26.75 25.95 27.2 26.0 Q28.2 26.15 29.8 25.0 L32.1 23.2 36.05 19.85 37.0 18.95 39.3 16.45 42.1 12.75 Q45.35 7.9 46.75 1.9 L50.4 16.45 50.7 17.9 M52.0 24.15 Q54.45 35.75 55.65 46.45 L55.75 49.35 Q55.75 51.35 56.1 52.4 54.95 55.55 47.05 59.05 35.25 64.25 28.85 61.5 26.65 54.15 23.35 49.8 L23.0 49.3 21.4 47.5 Q20.6 46.7 19.95 47.25 19.3 47.8 20.1 48.6 L21.3 49.9 Q19.25 54.35 18.4 59.1 13.15 60.4 8.6 60.6 L9.6 59.5 14.5 54.05 Q16.95 50.85 18.05 47.7 20.15 41.9 21.4 35.35 23.7 34.05 25.2 30.7 42.6 27.35 51.2 20.35 L52.0 24.15 M10.35 7.25 L10.4 9.15 10.3 9.1 Q8.45 8.8 6.8 9.5 L9.75 0.05 17.2 2.45 Q14.6 5.7 10.75 6.7 10.35 6.8 10.35 7.25 M10.65 11.15 Q11.7 17.7 15.4 21.05 18.85 24.2 24.6 25.5 L23.55 28.85 Q23.4 29.0 23.4 29.2 21.35 33.7 17.8 34.1 L14.8 33.7 14.6 33.6 16.7 30.3 Q17.1 29.6 16.15 28.85 15.25 28.1 14.85 28.85 13.6 31.4 12.35 32.6 10.5 34.4 8.35 33.95 L6.75 33.2 Q9.2 31.75 10.7 28.9 11.1 28.15 10.2 27.45 9.3 26.7 8.85 27.45 7.55 29.9 5.4 31.2 3.05 32.7 0.7 31.95 L1.45 28.45 1.55 28.4 Q4.45 26.05 5.6 24.45 7.55 21.8 6.9 19.2 6.55 17.55 4.75 16.3 L4.8 16.25 5.4 14.25 5.8 13.85 Q6.3 12.4 7.65 11.65 8.95 10.9 10.5 11.15 L10.65 11.15 M2.5 24.25 L4.25 18.05 Q6.7 19.85 2.5 24.25 M1.15 21.05 Q-2.4 33.85 -2.35 42.55 -2.35 46.9 -0.85 52.15 L0.35 56.8 Q0.75 59.2 0.2 61.55 0.0 62.4 1.0 62.95 2.0 63.55 2.2 62.55 2.85 59.55 2.25 56.5 L2.6 56.35 7.95 51.7 Q10.75 48.9 12.05 46.0 13.95 41.75 14.85 35.7 L18.85 36.2 19.05 36.15 Q18.0 41.6 16.65 45.2 14.85 50.0 12.1 53.25 L6.4 59.6 Q3.2 63.35 2.0 66.8 L-5.65 90.75 -6.45 93.4 Q-7.2 93.5 -6.8 94.55 L-9.55 103.4 -9.65 103.65 -13.25 115.25 Q-13.55 115.4 -13.45 115.95 L-13.95 117.45 Q-14.0 117.7 -15.6 117.75 L-17.5 117.7 Q-18.45 117.55 -19.25 116.65 L-19.4 116.5 Q-17.3 108.65 -13.9 98.55 -10.7 89.0 -7.5 77.9 L-5.0 69.15 Q-3.6 64.0 -3.15 60.2 -3.0 58.7 -3.95 56.1 -5.75 51.05 -6.25 48.55 -7.35 42.7 -6.1 35.25 -5.45 31.35 -3.05 22.2 0.05 20.7 1.75 18.85 L1.15 21.05 M4.95 34.0 Q6.7 35.6 8.85 36.05 10.95 36.55 12.75 35.3 11.95 40.15 10.45 43.85 9.35 46.7 6.8 49.5 4.9 51.55 1.65 54.05 L1.6 53.85 Q-0.55 46.65 -0.3 40.75 -0.25 37.4 0.4 33.8 L4.95 34.0 M37.95 64.25 Q54.6 73.15 68.35 75.75 L69.85 82.1 70.3 84.95 Q65.25 82.3 58.0 80.25 L45.2 77.05 Q40.3 75.85 35.55 73.35 30.8 70.9 26.9 67.55 26.9 64.4 28.45 63.3 32.3 65.05 37.85 64.2 L37.95 64.25 M27.05 69.95 Q31.55 73.5 37.3 76.1 33.35 77.95 30.2 82.5 28.5 77.25 27.6 72.85 L27.05 69.95 M4.6 67.75 L4.4 67.0 Q5.3 64.9 6.85 62.8 13.0 62.8 19.5 61.15 L20.95 69.75 Q19.85 70.9 17.35 72.0 14.45 73.35 10.8 73.9 L10.6 73.7 Q6.9 71.3 5.35 69.1 L4.6 67.75 M18.25 89.7 Q20.3 92.05 20.65 94.55 L20.85 95.0 20.85 95.3 19.7 99.9 Q15.3 90.4 -1.8 85.85 L-1.55 85.2 Q5.5 87.1 13.75 86.2 L13.85 86.25 Q16.45 87.65 18.25 89.7 M1.85 74.45 L3.45 69.5 Q4.8 71.8 8.25 74.25 L1.85 74.45 M34.95 80.6 Q37.45 78.3 40.15 77.55 L40.35 77.45 42.6 78.25 Q46.8 79.7 51.95 80.9 39.05 87.15 35.3 95.85 33.5 91.8 31.4 85.95 L31.2 85.3 Q32.85 82.55 34.95 80.6 M36.75 98.45 Q39.3 90.2 51.35 83.85 47.75 89.05 45.45 95.25 43.2 101.4 42.5 107.65 39.25 103.75 36.65 98.65 L36.75 98.45 M21.4 91.3 Q19.65 88.15 16.4 85.8 L21.85 84.6 21.4 91.3 M21.85 82.25 Q9.45 85.85 -1.0 83.35 L1.15 76.55 Q11.95 76.85 18.55 74.05 20.25 73.3 21.3 72.55 21.85 77.6 21.85 82.25 M67.8 73.6 Q60.25 72.1 52.2 68.95 54.6 67.5 57.45 65.1 L62.25 60.75 Q65.65 66.15 67.8 73.6 M49.55 67.85 Q46.15 66.4 40.65 63.65 43.85 62.85 47.35 61.45 55.45 58.2 57.6 54.55 L60.9 58.75 55.6 63.55 Q52.45 66.2 49.8 67.6 L49.55 67.85 M55.9 81.9 Q66.0 84.5 71.7 87.75 L72.4 87.9 74.5 90.1 Q69.5 90.15 64.0 92.95 59.2 95.35 55.15 99.2 52.35 101.9 50.4 105.25 48.25 108.9 47.6 112.5 L44.4 109.7 Q45.05 102.15 48.0 94.95 51.05 87.45 55.9 81.9 M76.3 92.25 Q80.8 98.15 80.85 103.25 L80.05 102.55 Q78.75 101.65 76.4 102.15 L72.65 103.2 Q60.6 106.4 58.6 116.95 53.55 116.3 49.55 113.85 50.6 107.65 56.1 101.65 59.95 97.55 65.25 94.9 71.1 91.95 76.3 92.25 M80.45 106.2 Q79.65 108.85 77.35 111.1 74.1 114.2 69.65 115.75 65.4 117.25 60.8 117.1 62.65 109.25 70.85 106.15 L76.4 104.6 79.05 104.4 Q80.15 104.75 80.45 106.2 M1.3 113.1 Q0.15 107.55 -7.0 102.75 L-7.05 102.75 -5.0 96.15 Q2.5 101.1 3.6 112.1 L3.65 112.35 1.3 113.1 M18.2 103.35 Q17.25 105.15 15.35 106.6 L11.55 108.85 Q8.4 110.55 5.5 111.65 4.05 100.05 -4.45 94.4 L-2.35 87.7 Q5.55 89.75 10.3 92.5 17.15 96.45 18.7 102.35 L18.2 103.35 M0.15 1.6 Q-2.35 -1.2 -5.45 -3.4 L-3.45 -6.3 Q-1.55 -3.7 1.3 -2.75 L0.15 1.6 M-8.4 -39.4 L-7.9 -38.25 Q-15.15 -25.05 -20.65 -13.2 L-24.15 -5.25 Q-26.0 -0.7 -26.95 3.0 -28.4 8.8 -28.4 12.95 -28.45 18.7 -25.95 22.45 -30.65 21.75 -34.65 20.25 -36.15 11.25 -32.55 0.05 -30.05 -7.7 -24.15 -18.7 -17.75 -30.6 -10.2 -40.4 L-8.4 -39.4 M-12.2 -41.7 Q-18.5 -33.55 -24.5 -22.9 L-26.15 -23.95 Q-25.2 -30.2 -22.3 -35.1 -18.9 -40.8 -13.75 -42.95 L-12.2 -41.7 M-7.15 -28.8 Q-7.3 -23.55 -6.95 -17.05 -6.85 -16.45 -6.3 -16.1 L-11.5 -11.2 Q-13.6 -15.35 -16.2 -17.15 L-9.1 -31.1 -7.15 -28.8 M-25.6 -21.6 L-25.3 -21.4 -28.45 -15.55 Q-31.25 -17.3 -36.95 -16.9 L-33.5 -21.1 Q-31.65 -23.2 -27.25 -22.4 L-25.6 -21.6 M-38.0 -14.65 Q-31.7 -15.3 -29.2 -13.95 L-31.7 -8.6 -32.2 -8.65 Q-36.2 -7.35 -39.75 -4.7 -43.25 -2.05 -45.75 1.45 -44.15 -6.35 -38.45 -14.75 L-38.0 -14.65 M-23.0 -1.0 Q-19.45 -3.95 -13.9 -6.3 -7.45 -3.3 -3.1 0.7 -6.8 -0.05 -10.75 1.95 -14.5 3.85 -17.35 7.5 -20.2 11.15 -21.05 15.15 -22.0 19.5 -20.25 22.9 L-23.65 22.7 Q-26.85 19.15 -26.5 12.5 -26.25 8.05 -24.3 1.7 L-23.45 -0.85 Q-23.15 -0.85 -23.0 -1.0 M-20.4 -8.35 L-20.3 -8.3 Q-18.6 -8.25 -16.8 -7.6 -19.65 -6.3 -21.9 -4.75 L-20.4 -8.35 M-14.15 -8.75 L-14.5 -8.6 Q-16.8 -9.85 -19.5 -10.25 L-16.95 -15.6 Q-14.8 -14.1 -12.8 -10.0 L-14.15 -8.75 M-7.4 -4.75 Q-9.35 -6.0 -12.05 -7.45 L-5.25 -13.75 Q-5.6 -11.1 -4.7 -8.65 L-7.4 -4.75 M-32.8 -5.95 Q-34.75 -0.9 -35.8 3.55 L-36.3 3.65 Q-39.3 5.45 -41.3 8.0 -43.6 10.85 -44.1 13.9 -46.2 11.05 -46.35 7.15 -44.4 2.8 -40.8 -0.65 -37.25 -4.1 -32.8 -5.95 M-0.25 3.8 Q2.25 7.2 2.5 10.55 3.05 16.6 -3.35 19.9 -3.75 19.55 -4.2 19.55 -4.65 19.55 -4.8 20.1 L-4.9 20.6 Q-6.1 21.1 -8.7 21.8 -12.55 19.35 -14.0 15.45 -15.55 11.35 -13.8 7.25 L-13.25 6.7 Q-10.6 4.15 -7.1 3.1 -3.1 1.95 -0.25 3.8 M-19.2 17.15 Q-18.65 14.3 -16.75 11.1 -16.7 14.25 -15.15 17.2 -13.65 20.05 -11.0 22.25 L-18.3 22.9 Q-19.85 20.6 -19.2 17.15 M-36.45 6.65 Q-37.65 13.35 -36.7 19.4 L-39.7 17.85 Q-41.2 17.0 -42.25 16.0 -42.2 13.35 -40.45 10.75 -38.95 8.5 -36.45 6.65 M-5.45 60.65 Q-5.6 62.1 -6.25 64.6 L-8.4 72.85 Q-10.9 71.75 -11.95 70.25 L-12.45 69.2 -12.6 68.55 Q-12.0 62.3 -8.5 59.25 L-5.45 60.65 M-6.4 54.65 L-5.95 55.8 Q-5.45 57.15 -5.35 58.7 L-7.6 57.75 -6.4 54.65 M-11.95 78.05 Q-12.6 74.5 -12.65 72.05 -11.2 73.55 -8.85 74.6 L-10.2 79.35 -11.95 78.1 -11.95 78.05 M-10.75 81.1 L-11.05 82.25 -11.45 80.6 -10.75 81.1 M-12.65 87.4 L-13.75 90.9 -16.85 90.5 -12.65 87.4 M-14.35 92.8 L-16.15 98.2 Q-19.75 96.75 -23.3 96.4 L-19.25 92.5 -18.85 92.55 -14.35 92.8 M-7.25 104.7 Q-1.1 109.0 -0.5 113.55 L-0.5 113.6 Q-4.65 114.7 -8.1 114.95 -6.25 112.65 -6.0 110.0 -5.75 107.2 -7.25 104.7 M-8.3 110.6 Q-8.95 112.55 -10.6 114.15 L-8.25 106.55 Q-7.6 108.45 -8.3 110.6 M-17.15 101.35 L-20.25 111.4 -21.05 113.5 -21.1 113.5 Q-24.5 111.9 -26.1 110.35 -28.45 108.1 -28.3 105.2 -28.1 102.15 -25.05 98.4 -21.0 98.4 -16.7 99.95 L-17.15 101.35"/></g></defs><g><g><use transform="matrix(3.14109802246,0.0,0.0,3.14109802246,46.35,45.25)" xlink:href="#c1"/></g></g></svg>