<?xml version='1.0' encoding='UTF-8'?>
<svg xmlns:xlink="http://www.w3.org/1999/xlink" xmlns="http://www.w3.org/2000/svg" version="1.1" width="325px" height="511px" viewBox="-95.9028160096 -94.3918373109 325.381649781 511.225817871"><defs><g id="c1"><path fill="#ffffff" stroke="none" d="M27.0 -40.0 Q27.55 -42.2 27.7 -44.25 29.3 -43.6 33.25 -41.35 36.85 -39.25 40.95 -34.0 44.65 -29.3 47.65 -23.0 L36.75 -22.6 Q30.7 -21.15 27.85 -17.0 27.2 -20.8 27.3 -26.9 L27.4 -36.85 Q27.4 -39.05 27.0 -40.0 M25.45 -34.05 L25.4 -24.2 Q25.5 -18.55 26.45 -14.35 27.35 -10.4 29.1 -5.0 L32.15 4.2 Q33.9 9.7 34.35 11.95 35.25 16.55 34.35 19.9 26.85 21.95 19.75 22.65 23.95 17.0 21.9 5.0 20.25 -4.65 20.45 -11.75 20.55 -15.0 21.35 -20.9 L22.35 -30.1 Q24.15 -32.8 25.45 -35.7 L25.45 -34.05 M21.95 -42.35 Q22.1 -42.75 21.8 -43.15 L22.4 -45.25 22.45 -45.2 25.65 -44.95 Q25.1 -38.6 20.7 -31.8 L20.4 -31.4 Q15.2 -23.6 3.1 -13.85 2.05 -16.45 1.1 -19.45 9.05 -26.2 14.3 -31.55 L18.75 -36.55 Q21.1 -39.55 21.95 -42.35 M-21.85 -26.35 L-23.55 -27.55 Q-22.3 -33.2 -19.6 -37.35 -16.25 -42.5 -11.6 -43.9 L-9.5 -42.25 Q-15.45 -35.75 -21.85 -26.35 M-22.8 -24.9 L-26.35 -19.3 Q-29.0 -21.2 -34.65 -21.3 L-31.65 -24.7 Q-29.2 -27.3 -24.75 -26.15 L-23.05 -25.15 -22.8 -24.9 M-6.95 -32.2 L-4.5 -36.1 Q-3.4 -27.9 -1.15 -20.45 L-0.9 -19.65 Q2.2 -9.8 7.3 -1.75 4.1 -0.05 1.95 1.5 L1.45 0.6 1.1 0.3 0.05 -1.05 -2.65 -6.95 -2.85 -7.55 Q-6.45 -17.5 -6.9 -32.1 L-6.95 -32.2 M-4.95 -39.7 Q-12.35 -28.3 -19.15 -16.0 L-23.05 -8.5 Q-25.15 -4.25 -26.25 -0.7 -28.1 5.25 -28.4 9.1 -28.9 14.8 -26.6 18.7 L-27.65 18.45 Q-31.6 17.5 -35.05 16.05 -36.0 7.15 -31.85 -3.45 -28.85 -11.1 -22.45 -21.1 -15.45 -32.25 -7.45 -40.95 L-4.95 -39.7 M-2.55 -36.45 Q0.15 -33.8 4.6 -33.5 10.1 -33.1 15.15 -35.95 L12.05 -32.7 Q7.8 -28.35 0.3 -21.95 -1.7 -29.15 -2.55 -36.45 M-4.2 -5.4 L-4.0 -5.55 -3.75 -4.95 -4.2 -5.4 M-6.1 -6.95 L-10.65 -10.1 -6.5 -13.3 Q-5.85 -10.6 -4.85 -7.85 L-6.1 -6.95 M0.55 2.55 L-0.15 3.1 Q-5.25 7.25 -5.5 11.75 -5.7 14.6 -3.7 17.45 -6.1 18.6 -9.35 19.25 -13.0 16.5 -14.2 12.55 -15.45 8.4 -13.4 4.35 L-12.75 3.8 Q-10.0 1.55 -6.7 0.75 -2.8 -0.15 -0.1 1.6 L0.55 2.55 M4.05 -11.55 Q14.55 -19.95 20.0 -26.8 L19.2 -20.8 18.55 -14.75 Q18.3 -10.25 18.5 -6.65 13.0 -4.65 8.8 -2.55 6.25 -6.55 4.05 -11.55 M-14.15 -20.1 L-8.75 -29.2 Q-8.35 -21.9 -7.1 -15.9 L-9.75 -13.75 Q-11.6 -18.15 -14.15 -20.1 M-11.25 -12.7 L-11.2 -12.65 -12.65 -11.55 -13.05 -11.45 Q-15.1 -12.8 -17.9 -13.45 L-15.0 -18.6 -14.4 -18.0 Q-12.45 -16.0 -11.25 -12.7 M-21.95 -4.55 Q-18.15 -7.3 -12.55 -9.15 -6.7 -5.9 -2.5 -1.4 -5.35 -2.05 -8.7 -0.95 -11.65 0.0 -14.35 2.0 -18.2 4.9 -20.4 9.9 -22.8 15.45 -20.95 19.6 L-24.3 19.15 Q-29.3 12.85 -23.3 -2.3 L-22.4 -4.4 -21.95 -4.55 M-20.65 -8.15 L-18.9 -11.6 Q-17.2 -11.4 -15.3 -10.65 -18.0 -9.6 -20.65 -8.15 M-15.45 14.35 Q-14.1 17.3 -11.55 19.65 -14.8 20.05 -18.9 19.8 -20.3 17.35 -19.45 13.95 -18.75 11.1 -16.65 8.1 -16.85 11.25 -15.45 14.35 M-12.45 22.0 Q-8.45 24.45 -3.5 25.65 0.65 26.7 6.05 27.05 20.5 27.9 29.15 23.5 L29.25 23.45 34.1 22.35 34.9 22.1 Q37.8 29.2 37.7 44.1 L37.45 50.95 37.15 53.15 Q36.95 54.65 37.05 55.45 35.95 57.35 32.75 58.7 L27.6 60.35 Q14.7 63.9 8.7 59.9 6.7 49.0 0.8 43.45 L-0.4 43.5 Q-0.75 44.3 0.0 45.0 1.8 46.75 3.25 49.3 L3.05 49.9 Q3.0 53.5 2.3 58.25 L0.9 66.5 Q-0.3 73.3 -2.95 85.95 L-4.3 91.95 -4.75 93.8 Q-9.1 97.1 -14.0 97.65 -19.4 98.2 -23.4 95.05 -24.6 85.15 -24.8 70.6 -24.95 56.8 -23.6 46.3 -21.95 33.1 -17.85 22.75 -17.75 22.3 -17.9 22.05 L-12.5 22.0 -12.45 22.0 M6.3 7.75 Q10.85 9.3 13.4 13.75 15.75 17.85 15.7 23.0 9.7 23.25 5.9 22.1 L5.05 21.8 Q6.65 18.5 6.95 14.85 7.3 11.2 6.3 7.75 M2.65 3.95 L3.65 5.8 Q3.65 6.4 4.15 7.0 5.3 10.15 5.0 13.85 4.7 17.3 3.15 20.5 L3.05 20.95 Q0.7 19.7 -0.85 18.2 -0.8 17.7 -1.25 17.15 -1.65 16.65 -2.1 16.7 -3.85 14.3 -3.4 11.75 -2.85 8.15 2.4 4.1 L2.65 3.95 M10.65 25.0 L7.4 25.0 Q-2.75 24.75 -9.4 21.6 -5.35 20.9 -2.15 19.25 1.0 22.3 5.4 23.9 7.75 24.75 10.65 25.0 M4.0 2.95 Q8.9 -0.45 18.7 -4.25 18.9 -1.7 19.4 1.5 20.6 9.3 20.6 11.9 20.6 18.1 17.6 21.6 17.05 15.85 14.0 11.6 10.75 6.95 5.45 5.5 L4.0 2.95 M-30.75 -12.7 Q-34.85 -11.7 -38.6 -9.25 -42.25 -6.9 -45.05 -3.5 -43.3 -9.25 -37.35 -17.8 L-36.25 -19.25 -35.95 -19.2 Q-31.7 -19.3 -28.75 -18.4 L-27.3 -17.75 -30.15 -12.65 -30.75 -12.7 M-39.8 -5.4 Q-35.95 -8.6 -31.4 -10.1 -33.75 -5.35 -35.15 -0.9 L-35.5 -0.85 Q-38.65 0.8 -40.9 3.15 -43.45 5.8 -44.15 8.85 -45.8 6.15 -45.95 3.0 L-45.95 2.1 -45.85 2.0 Q-43.6 -2.2 -39.8 -5.4 M-40.25 6.05 Q-38.6 3.85 -36.0 2.2 -37.65 8.8 -37.15 15.0 -40.35 13.25 -42.35 11.15 -42.1 8.5 -40.25 6.05 M5.6 67.95 Q9.55 72.25 14.7 75.7 10.4 76.8 6.6 80.7 5.65 74.75 5.6 70.1 L5.6 67.95 M8.05 61.55 Q11.45 63.8 17.05 63.95 L17.1 63.95 Q31.8 75.35 45.2 80.4 L45.5 84.05 45.5 86.95 Q45.45 88.85 45.65 90.0 41.1 86.55 34.4 83.3 L22.35 78.0 Q17.7 76.0 13.4 72.8 9.15 69.55 5.85 65.6 6.3 62.5 8.05 61.55 M54.15 -14.15 Q56.95 -9.6 58.2 -5.4 51.8 -8.7 45.0 -9.85 37.5 -11.1 31.1 -9.5 35.05 -13.5 41.9 -14.55 L53.95 -14.15 54.15 -14.15 M56.3 8.65 Q50.65 3.3 45.05 0.35 37.85 -3.5 31.7 -2.9 L30.4 -7.0 30.65 -7.0 Q37.2 -9.1 45.05 -7.8 52.2 -6.65 58.75 -3.05 L59.15 0.0 Q59.45 4.7 56.3 8.65 M52.7 -16.4 Q46.05 -17.6 40.2 -16.55 33.2 -15.25 29.2 -11.0 L28.55 -13.6 28.6 -13.65 Q30.95 -18.8 37.6 -20.5 42.9 -21.85 49.25 -20.75 L52.65 -16.45 52.7 -16.4 M34.55 5.75 L32.4 -0.75 Q37.85 -1.35 44.4 2.0 45.25 9.45 39.75 18.15 L39.65 18.25 36.7 19.2 Q37.15 16.3 36.35 12.4 35.95 10.4 34.55 5.75 M46.5 3.15 Q50.95 5.8 55.2 9.9 51.3 13.85 43.05 17.05 47.0 9.75 46.5 3.15 M17.4 77.45 L18.65 78.2 Q21.8 80.0 28.6 82.8 22.45 84.5 17.8 87.2 12.15 90.4 9.35 94.7 L9.05 93.4 Q7.95 88.65 7.1 83.7 12.0 78.0 17.1 77.5 L17.4 77.45 M27.95 69.55 L19.8 63.85 26.1 63.0 Q35.2 61.3 38.15 57.95 L39.6 60.25 40.7 62.55 34.65 66.4 Q31.1 68.45 28.2 69.45 L27.95 69.55 M41.7 64.75 Q44.05 70.7 44.95 78.3 37.9 75.7 30.4 71.1 33.05 70.1 36.2 68.25 L41.7 64.75 M49.0 95.75 Q44.0 94.95 38.1 96.75 33.0 98.35 28.3 101.5 25.15 103.6 22.65 106.55 19.95 109.7 18.7 113.15 L16.05 109.85 Q17.95 102.5 22.1 95.85 26.4 89.05 32.15 84.35 L34.5 85.45 Q42.0 89.1 46.45 92.75 46.8 93.05 47.2 93.05 L49.0 95.75 M51.35 100.2 Q53.7 105.6 53.05 109.75 L52.45 109.05 Q51.2 107.85 48.8 107.9 L44.85 108.35 Q32.35 109.5 28.7 119.65 24.2 118.3 20.45 114.85 22.45 109.2 28.5 104.3 32.95 100.75 38.75 98.9 45.15 96.85 50.3 98.0 L51.35 100.2 M19.45 95.75 Q16.25 101.3 14.45 107.35 11.9 102.95 10.25 97.8 L10.35 97.7 Q14.35 89.85 27.15 85.65 22.8 90.05 19.45 95.75 M48.7 110.2 Q52.25 109.8 52.05 112.85 48.9 119.0 37.4 120.35 L30.9 120.15 Q34.05 112.6 42.65 110.85 L45.7 110.45 48.7 110.2 M-3.85 100.9 Q-4.1 103.45 -7.05 104.35 L-8.85 104.65 Q-10.3 104.7 -10.35 103.9 -10.4 103.3 -11.0 102.85 L-12.15 102.75 -17.75 106.4 Q-20.85 108.05 -24.05 108.5 -27.45 109.05 -32.2 108.7 -38.9 108.25 -38.75 105.7 -38.65 103.8 -35.5 101.85 -34.6 101.25 -30.8 99.4 -27.4 97.75 -24.2 96.6 -19.9 100.05 -14.2 99.8 -8.95 99.55 -4.2 96.3 -3.65 98.8 -3.85 100.9"/></g></defs><g><g><use transform="matrix(3.08711242676,0.0,0.0,3.08711242676,45.95,45.3)" xlink:href="#c1"/></g></g></svg>