<?xml version='1.0' encoding='UTF-8'?>
<svg xmlns:xlink="http://www.w3.org/1999/xlink" xmlns="http://www.w3.org/2000/svg" version="1.1" width="423px" height="515px" viewBox="-108.484863281 -106.498751831 423.487161255 515.096008301"><defs><g id="c1"><path fill="#ffffff" stroke="none" d="M39.85 -34.0 L45.1 -27.0 Q38.8 -27.5 33.6 -25.7 27.45 -23.55 24.9 -18.65 L19.55 -27.4 Q16.75 -32.6 16.3 -37.05 16.15 -38.95 16.55 -41.05 17.05 -43.3 18.0 -44.45 L18.15 -44.75 Q22.15 -46.9 26.7 -45.45 30.6 -44.2 34.15 -40.65 36.7 -38.1 39.85 -34.0 M-28.65 -29.3 Q-27.75 -28.95 -26.2 -28.0 -24.35 -27.1 -21.45 -26.45 L-16.5 -25.35 Q-15.45 -19.4 -13.85 -12.55 -19.05 -13.0 -24.5 -15.7 -26.1 -16.5 -26.35 -19.7 -26.35 -23.3 -26.65 -24.5 -27.05 -26.3 -28.2 -27.5 -29.4 -28.7 -31.0 -28.95 -30.2 -29.9 -28.65 -29.3 M-19.85 -38.5 Q-18.25 -44.35 -14.5 -46.25 L-14.35 -46.4 -11.8 -44.6 Q-12.95 -32.75 -10.3 -20.65 -7.6 -8.3 -1.45 1.6 -4.3 4.1 -5.55 6.95 -7.9 1.5 -9.8 -4.7 -9.7 -5.35 -10.2 -5.95 L-11.55 -10.95 -11.7 -11.45 Q-14.0 -20.65 -15.7 -32.75 -15.8 -33.6 -16.85 -33.95 -17.85 -34.3 -17.7 -33.25 L-16.85 -27.45 -20.95 -28.5 Q-21.05 -34.2 -19.85 -38.5 M-8.05 -40.25 Q-5.7 -23.05 2.1 -9.35 L2.15 -8.85 Q2.3 -8.3 2.85 -8.05 4.0 -6.05 5.7 -3.6 2.55 -1.75 -0.15 0.5 -5.85 -8.95 -8.35 -20.65 -10.85 -32.1 -9.85 -43.35 -9.2 -41.65 -8.05 -40.25 M1.1 -31.2 Q0.35 -22.1 1.15 -14.8 -3.9 -25.6 -5.85 -38.45 -3.8 -37.15 -0.95 -36.7 L5.85 -37.05 Q9.4 -37.9 12.25 -39.85 L11.9 -38.7 Q10.4 -35.75 7.85 -33.95 5.15 -32.0 1.75 -31.75 1.1 -31.75 1.1 -31.2 M11.2 -33.7 Q11.05 -29.15 12.3 -23.45 13.15 -19.55 15.0 -13.85 L16.55 -9.1 Q11.2 -6.75 7.15 -4.5 L3.95 -9.45 Q2.6 -15.85 2.85 -25.85 L3.05 -29.7 3.5 -29.8 Q8.0 -30.6 11.2 -33.7 M15.35 -18.4 Q12.1 -29.8 14.15 -37.85 14.7 -31.75 19.5 -24.1 27.0 -12.35 30.8 -2.95 33.05 2.6 33.85 6.7 34.95 12.3 33.85 16.7 29.35 18.1 23.9 19.3 L19.4 20.15 Q21.8 16.5 22.05 10.55 22.25 5.85 21.1 0.65 20.3 -3.0 18.4 -8.85 L15.35 -18.4 M-12.35 -6.9 L-22.8 -10.0 Q-23.2 -11.0 -24.25 -12.05 -25.2 -12.95 -26.1 -13.4 L-28.45 -13.55 Q-29.6 -13.2 -30.55 -12.35 -35.5 -13.25 -36.1 -18.25 -36.7 -23.1 -32.9 -26.3 L-32.55 -26.65 -32.45 -26.65 Q-29.15 -27.75 -28.45 -23.45 L-28.15 -19.7 Q-27.95 -17.5 -27.5 -16.65 -26.75 -15.1 -25.2 -14.1 -24.25 -13.55 -22.0 -12.65 -17.35 -10.8 -13.3 -10.45 L-12.35 -6.9 M2.5 4.15 Q2.5 4.9 3.05 5.35 4.35 8.45 4.25 12.05 4.15 15.55 2.75 18.8 L2.7 19.1 Q0.85 18.3 -1.05 16.9 -5.25 13.7 -3.9 9.4 -2.85 6.05 1.4 2.4 L2.5 4.15 M-9.3 3.1 L-11.75 11.85 -13.15 10.75 Q-15.95 8.95 -19.9 8.3 L-27.1 8.1 -27.15 8.1 -22.8 -8.0 -11.7 -4.7 -9.1 2.8 -9.3 3.1 M-10.05 13.85 L-7.85 6.05 -6.3 9.55 -6.35 10.4 -6.2 12.1 -6.25 12.25 Q-8.75 22.35 -10.0 26.35 -12.4 34.25 -15.45 39.8 -16.85 42.35 -22.1 48.65 -26.55 54.0 -27.95 57.95 L-30.3 66.1 -38.35 95.2 -42.3 109.6 Q-42.6 110.75 -44.55 110.65 -46.3 110.6 -47.4 109.9 L-48.0 109.35 -47.6 107.7 -44.9 97.45 Q-41.05 84.6 -39.35 78.1 -36.7 68.15 -34.95 59.85 -34.15 56.75 -33.9 55.1 -33.4 52.25 -33.9 50.35 -34.3 48.8 -35.8 44.8 -37.1 41.35 -37.45 39.1 -38.15 34.95 -37.65 29.95 -37.35 26.3 -36.2 20.85 -33.9 9.8 -29.5 -8.6 L-29.1 -10.45 -27.75 -11.35 Q-26.95 -11.75 -25.65 -11.05 -24.4 -10.35 -24.65 -9.55 L-25.9 -5.0 Q-29.1 6.6 -30.8 13.95 -33.85 26.95 -33.4 35.3 -33.2 39.45 -31.6 44.4 L-30.2 49.0 Q-29.75 51.4 -30.2 53.75 -30.35 54.6 -29.35 55.15 -28.4 55.75 -28.2 54.75 -27.6 51.4 -28.5 48.0 -25.1 46.55 -21.5 41.6 -18.25 37.15 -16.9 31.8 L-16.85 31.65 Q-14.05 31.95 -12.05 29.15 -10.1 26.35 -11.2 23.6 -8.55 21.85 -8.35 19.0 -8.25 16.45 -10.05 13.85 M-11.0 15.7 Q-8.7 19.7 -13.1 22.0 -13.55 22.25 -13.5 22.75 L-13.1 23.55 Q-12.05 24.95 -13.5 27.25 -15.0 29.55 -16.95 29.6 -15.4 27.35 -15.4 23.95 L-15.4 23.9 Q-14.35 22.75 -14.15 21.25 -13.95 19.65 -14.95 18.55 -15.55 17.9 -16.6 17.45 -13.7 15.05 -15.5 12.1 -16.0 11.2 -16.85 11.45 -17.7 11.65 -17.1 12.65 -16.3 14.05 -17.75 15.4 -18.8 16.35 -20.5 17.0 -21.3 17.3 -20.75 18.2 -20.25 19.1 -19.55 19.05 L-16.9 19.35 Q-15.25 19.8 -16.65 21.5 -17.95 23.05 -19.2 23.25 -21.3 23.55 -23.05 22.4 -24.85 21.25 -25.45 19.3 -26.25 16.55 -25.0 13.3 -24.75 12.55 -25.65 11.8 L-26.85 11.85 Q-28.05 14.95 -27.5 18.25 L-27.55 18.3 Q-28.35 19.0 -29.75 18.8 L-27.5 9.5 Q-27.05 10.3 -26.4 10.2 -21.7 9.75 -17.2 10.95 -13.05 12.05 -11.0 15.7 M-5.05 16.45 L-4.8 15.4 Q-1.85 19.7 5.1 22.1 9.05 23.5 16.5 22.7 L17.2 22.6 17.6 22.6 Q25.15 21.7 34.05 18.9 45.2 15.35 50.95 11.45 L51.0 13.5 50.3 13.7 Q42.1 22.75 25.45 27.15 13.95 30.15 4.4 26.85 1.6 25.9 -1.1 24.15 L-2.45 23.15 -2.9 22.75 -3.1 22.6 Q-3.35 19.8 -3.75 17.7 -3.9 16.75 -5.05 16.45 M2.7 1.35 L5.8 -0.85 Q10.2 -3.75 17.25 -6.85 19.5 0.4 19.85 5.4 20.6 14.5 17.25 19.1 16.4 13.45 13.1 9.3 9.55 4.85 4.2 3.7 L2.7 1.35 M6.25 12.9 Q6.35 9.25 5.2 5.95 9.85 7.3 12.6 11.55 15.15 15.5 15.45 20.7 9.15 21.2 4.75 19.85 6.1 16.55 6.25 12.9 M-26.5 21.35 Q-25.7 23.0 -23.85 24.05 -25.0 25.55 -26.25 26.15 -27.85 27.0 -29.7 25.6 L-30.35 24.7 Q-30.4 24.4 -30.75 24.05 L-30.15 20.7 -26.85 20.6 -26.5 21.35 M-25.05 28.15 Q-23.1 27.35 -21.65 25.0 L-17.65 25.2 Q-17.95 26.95 -18.95 28.25 -19.75 29.25 -21.15 29.35 L-23.7 29.0 Q-24.65 28.8 -25.05 28.15 M13.6 45.35 L15.25 53.6 Q17.55 61.75 22.9 66.15 23.25 80.85 24.5 91.3 25.0 95.1 25.65 98.0 L25.75 98.65 26.0 98.6 25.2 99.35 Q15.95 103.15 8.85 101.45 6.9 101.0 5.0 99.9 L3.8 99.05 Q-2.55 86.1 -5.3 67.55 -6.5 59.65 -4.8 46.25 -2.8 30.7 -3.0 24.9 1.75 28.95 9.2 30.2 15.75 31.3 22.5 30.05 30.6 28.6 37.7 25.35 45.8 21.7 50.95 16.45 50.6 26.2 47.45 37.25 45.9 42.85 44.4 44.4 43.85 45.0 44.6 45.9 45.4 46.8 46.0 46.2 47.05 45.05 47.95 42.95 49.3 48.8 48.15 54.2 46.9 60.0 42.9 64.2 40.5 66.7 33.45 67.45 27.7 68.05 23.35 64.4 18.6 60.45 16.6 51.3 L15.1 43.8 Q14.1 39.5 12.75 36.8 12.3 35.9 11.45 36.1 10.65 36.35 11.15 37.35 12.6 40.3 13.6 45.35 M57.1 -7.65 Q58.8 -0.85 55.2 4.1 41.45 -7.65 31.4 -6.15 L29.4 -10.35 Q35.8 -12.55 43.5 -11.6 50.5 -10.8 57.1 -7.65 M51.85 -18.55 Q54.9 -14.1 56.4 -9.95 49.85 -12.95 42.9 -13.75 35.35 -14.65 29.0 -12.65 32.55 -16.6 39.4 -18.1 L51.55 -18.55 51.85 -18.55 M50.25 -20.75 L37.95 -20.2 Q31.15 -18.6 27.35 -14.3 L26.3 -16.2 Q28.6 -21.5 35.0 -23.7 40.4 -25.6 46.75 -24.8 L46.9 -24.8 47.65 -23.9 50.25 -20.75 M34.55 2.3 Q33.5 -1.2 32.25 -4.1 36.8 -4.85 42.95 -1.95 44.2 5.55 39.2 14.45 L39.1 14.85 36.2 15.95 Q37.0 10.45 34.55 2.3 M54.15 5.4 L54.1 5.45 Q49.85 10.0 42.3 13.55 45.95 5.8 45.05 -0.9 49.3 1.45 54.15 5.4 M56.45 30.55 Q59.45 31.8 61.6 34.9 63.5 37.65 64.45 41.35 64.45 41.65 64.6 41.85 L65.1 45.1 Q65.6 51.35 62.0 57.0 58.9 61.9 53.2 65.7 62.2 53.95 59.5 42.6 57.95 36.45 53.55 32.05 55.45 30.95 56.45 30.55 M60.8 29.1 Q66.9 27.75 71.15 31.85 69.9 36.5 65.95 39.85 63.7 33.05 58.65 29.7 L60.8 29.1 M50.6 34.15 L52.1 33.0 Q55.6 36.3 57.3 41.65 59.45 48.35 56.35 55.9 53.85 61.9 48.2 68.0 44.15 69.0 41.05 68.05 43.3 67.2 44.85 65.65 49.5 60.55 50.45 53.45 51.35 46.85 48.95 39.95 L50.6 34.15 M56.1 66.6 L56.25 66.65 Q63.35 66.6 70.15 63.3 76.8 60.0 81.35 54.35 L81.65 56.5 81.9 59.8 Q76.9 66.3 70.05 69.55 62.25 73.2 55.1 71.0 L53.35 68.45 56.1 66.6 M58.9 64.3 Q68.2 55.7 67.0 44.45 L66.65 42.35 Q71.15 39.0 72.9 33.8 L75.45 37.6 75.4 37.95 Q75.95 45.0 72.0 52.25 68.5 58.7 62.5 63.6 L58.9 64.3 M74.55 52.3 Q77.15 46.85 77.45 41.45 79.55 46.0 80.75 51.25 76.0 58.05 68.1 61.65 72.15 57.3 74.55 52.3 M63.85 77.4 Q60.45 76.35 57.5 73.6 63.95 74.8 70.7 71.8 76.75 69.1 81.65 63.75 80.2 74.15 71.25 77.25 67.6 78.5 63.85 77.4 M24.8 104.95 Q24.2 106.4 22.5 106.85 L17.3 107.6 17.3 106.4 Q17.3 105.9 16.75 105.45 16.15 104.95 15.7 105.15 3.2 111.1 -6.05 110.6 L-9.1 110.0 -10.95 109.15 -11.5 108.65 -11.65 108.45 Q-11.05 107.05 -9.25 105.8 -8.25 105.1 -6.1 104.05 -2.25 102.1 3.15 100.75 7.25 104.2 13.8 104.15 19.05 104.1 25.1 101.9 25.25 103.85 24.8 104.95"/></g></defs><g><g><use transform="matrix(3.26010131836,0.0,0.0,3.26010131836,48.0,46.4)" xlink:href="#c1"/></g></g></svg>