<?xml version='1.0' encoding='UTF-8'?>
<svg xmlns:xlink="http://www.w3.org/1999/xlink" xmlns="http://www.w3.org/2000/svg" version="1.1" width="405px" height="513px" viewBox="-100.38393631 -96.3318504331 404.669303893 513.090724944"><defs><g id="c1"><path fill="#ffffff" stroke="none" d="M29.2 -44.0 Q36.8 -41.0 41.55 -27.5 45.9 -15.0 44.35 -1.55 43.25 7.55 36.05 15.75 32.25 20.15 26.8 23.65 L25.85 24.25 25.75 24.3 Q22.6 23.85 19.45 22.55 16.7 21.45 15.0 19.45 13.45 17.65 12.4 14.55 11.65 12.35 11.4 9.65 L11.4 9.0 Q15.75 7.55 18.55 3.6 20.15 1.2 20.45 -1.85 20.65 -2.1 20.5 -2.65 20.8 -7.35 18.15 -15.25 16.55 -20.15 14.4 -20.25 13.9 -20.3 13.85 -19.9 13.75 -19.6 14.0 -19.1 L9.95 -20.1 6.15 -21.25 Q8.9 -24.05 12.05 -28.15 14.8 -31.65 16.05 -34.05 17.95 -37.8 17.6 -40.85 L17.55 -40.95 17.7 -41.15 Q19.3 -44.1 22.8 -44.7 25.85 -45.25 29.2 -44.0 M11.2 -34.65 Q13.45 -35.9 15.1 -37.65 14.45 -35.7 12.9 -33.35 L10.2 -29.6 Q7.25 -25.75 4.05 -22.45 L3.95 -22.35 2.8 -22.85 Q1.7 -23.15 0.85 -22.85 L11.05 -34.3 11.2 -34.65 M15.7 -16.65 L16.05 -15.7 Q18.65 -9.0 18.45 -3.85 13.4 -4.2 7.6 -7.0 6.0 -7.8 5.75 -11.0 L5.5 -15.8 Q5.1 -17.6 3.95 -18.8 2.75 -20.0 1.15 -20.25 1.95 -21.2 3.5 -20.6 L5.9 -19.3 Q7.75 -18.45 10.75 -17.75 L15.7 -16.65 M1.6 -3.65 Q-3.35 -4.6 -3.95 -9.6 -4.6 -14.45 -0.8 -17.6 L-0.4 -17.95 -0.3 -18.0 Q3.0 -19.05 3.65 -14.75 L4.6 -7.95 Q5.35 -6.4 6.95 -5.4 7.85 -4.85 10.1 -3.95 14.85 -2.15 18.25 -1.8 18.0 -0.3 17.35 0.95 L9.3 -1.3 Q8.9 -2.3 7.9 -3.35 L6.05 -4.7 3.7 -4.85 Q2.5 -4.55 1.6 -3.65 M4.35 -2.65 Q5.15 -3.05 6.45 -2.35 7.7 -1.65 7.5 -0.85 L6.2 3.7 Q2.8 16.3 1.35 22.65 -1.7 35.65 -1.25 43.95 -1.05 48.15 0.55 53.1 L1.9 57.7 Q2.4 60.1 1.95 62.45 1.8 63.3 2.8 63.85 3.75 64.45 3.95 63.45 4.5 60.4 3.8 57.35 L4.1 57.25 Q7.4 54.5 9.3 52.4 12.0 49.45 13.2 46.55 14.95 42.35 15.65 36.15 L19.65 36.5 19.9 36.45 Q19.0 41.95 17.8 45.6 16.2 50.45 13.55 53.8 L8.05 60.3 Q5.0 64.15 3.9 67.65 1.9 74.2 -2.9 91.85 L-10.3 118.8 -11.9 119.15 -13.85 119.2 Q-14.5 119.1 -15.6 118.3 L-15.85 118.05 Q-14.15 110.7 -11.2 100.85 -7.85 89.7 -5.25 79.15 L-3.05 70.3 Q-1.85 65.1 -1.5 61.3 -1.4 59.6 -2.4 57.2 -4.4 52.25 -4.95 49.7 -6.3 43.7 -5.2 35.85 -4.75 32.45 -2.45 22.2 L-2.5 21.75 Q3.7 18.15 3.5 12.0 3.45 8.4 1.35 5.05 L1.55 4.65 3.05 -1.75 4.35 -2.65 M48.55 -1.1 L48.0 -0.5 46.0 1.1 Q46.65 -1.85 46.8 -5.05 L48.55 -1.1 M82.1 59.65 L82.35 62.95 Q77.35 69.45 70.5 72.7 62.7 76.4 55.55 74.15 L53.8 71.6 56.55 69.8 56.7 69.8 Q63.85 69.75 70.6 66.45 77.3 63.15 81.8 57.55 L82.1 59.65 M45.5 4.2 Q48.2 2.6 49.4 1.45 51.45 8.4 51.45 16.7 51.05 16.55 50.75 16.85 46.45 21.85 39.5 25.45 33.4 28.6 26.05 30.3 L27.15 26.3 29.3 25.05 31.1 23.6 Q36.8 19.35 41.1 13.1 43.8 9.2 45.2 4.3 L45.5 4.2 M51.15 23.25 Q49.9 35.1 47.05 43.15 45.75 46.65 44.9 47.55 44.3 48.15 45.1 49.05 45.9 49.95 46.45 49.35 47.5 48.2 48.35 46.0 51.05 57.0 44.95 65.45 42.7 68.55 38.35 69.9 34.4 71.1 30.2 70.55 24.8 69.8 21.1 64.55 17.9 60.0 17.0 54.05 L16.75 53.5 Q18.3 51.2 19.0 49.0 21.25 41.65 22.2 35.6 23.7 34.6 24.8 32.85 L25.0 32.85 Q32.6 31.35 39.2 28.25 46.7 24.7 51.4 19.7 L51.15 23.25 M56.95 33.7 Q59.9 34.95 62.05 38.1 63.95 40.85 64.9 44.55 L65.05 45.05 65.55 48.25 Q66.05 54.5 62.45 60.15 59.35 65.05 53.65 68.9 62.65 57.1 59.95 45.75 58.4 39.6 54.0 35.25 55.4 34.35 56.95 33.7 M51.25 37.2 L52.55 36.2 Q56.0 39.35 57.75 44.8 59.9 51.55 56.8 59.05 54.3 65.05 48.65 71.15 44.45 72.2 41.45 71.2 44.6 69.8 46.55 67.25 50.45 62.25 51.05 55.6 51.65 49.5 49.4 43.1 L51.05 37.3 51.25 37.2 M67.1 45.55 Q71.6 42.1 73.35 37.0 L75.9 40.8 75.85 41.1 Q76.4 48.15 72.45 55.45 68.95 61.9 62.95 66.8 L59.35 67.45 Q63.7 63.45 65.8 58.65 68.05 53.4 67.45 47.65 L67.1 45.55 M66.4 43.0 Q64.1 36.25 59.1 32.9 L61.25 32.3 Q67.25 30.9 71.6 35.0 70.3 39.75 66.4 43.0 M6.75 10.2 L9.35 0.7 16.3 2.65 Q13.75 6.1 9.75 7.1 9.35 7.2 9.35 7.6 L9.4 9.65 Q8.0 9.55 6.75 10.2 M4.95 17.1 L5.45 15.05 5.85 14.65 Q6.3 13.35 7.35 12.6 8.35 11.9 9.7 11.8 10.75 18.2 14.4 21.4 18.25 24.95 24.95 26.2 23.25 33.75 18.6 34.45 L15.35 34.05 Q16.4 32.75 17.3 30.75 17.65 30.0 16.75 29.25 L15.45 29.3 Q12.8 35.3 9.15 34.6 8.35 34.45 7.5 33.9 9.85 32.4 11.3 29.55 11.65 28.8 10.75 28.05 L9.45 28.1 Q7.3 32.4 3.9 32.95 L1.75 32.9 1.4 32.8 2.0 29.4 2.1 29.3 Q4.85 27.05 6.05 25.25 7.95 22.5 7.2 19.95 6.7 18.2 4.95 17.1 M9.65 36.7 Q11.75 37.1 13.55 35.8 13.0 40.25 11.6 44.45 9.85 49.35 3.1 54.95 L3.05 54.75 Q0.85 48.35 0.7 42.9 0.55 38.95 1.1 34.75 3.45 35.55 5.75 34.75 7.5 36.35 9.65 36.7 M2.9 25.2 L4.5 18.85 Q7.05 20.6 2.9 25.2 M15.3 55.4 Q16.2 59.5 18.2 63.1 20.35 66.95 23.35 69.35 23.7 84.1 24.95 94.45 25.5 98.4 26.1 101.15 L26.2 101.85 26.45 101.8 25.65 102.55 Q16.4 106.3 9.3 104.65 7.3 104.15 5.45 103.05 L4.3 102.25 Q1.55 95.8 0.75 90.05 0.7 89.55 0.1 89.15 L5.6 69.65 Q6.95 65.05 11.2 60.15 L15.3 55.4 M75.05 55.5 Q77.65 50.0 77.9 44.6 80.05 49.25 81.2 54.45 76.45 61.2 68.55 64.85 72.6 60.5 75.05 55.5 M64.3 80.55 Q60.9 79.5 57.95 76.75 64.35 78.0 71.15 75.0 77.15 72.3 82.1 66.9 80.65 77.35 71.7 80.45 68.05 81.7 64.3 80.55 M25.25 108.15 Q24.65 109.55 22.95 110.05 L17.75 110.75 17.75 109.6 Q17.75 109.1 17.2 108.6 16.6 108.05 16.15 108.35 1.4 116.4 -6.65 113.75 L-5.05 107.9 Q-4.75 107.9 -4.55 107.7 -0.7 104.2 3.55 103.85 7.6 107.3 14.2 107.3 19.55 107.3 25.55 105.1 25.7 107.05 25.25 108.15 M-8.9 -37.85 Q-16.15 -24.65 -21.65 -12.8 -26.45 -2.55 -27.95 3.35 -29.4 9.15 -29.4 13.3 -29.45 19.1 -26.95 22.8 -31.35 22.2 -35.65 20.6 -37.15 11.65 -33.55 0.4 -31.05 -7.4 -25.15 -18.3 -18.65 -30.45 -11.2 -40.0 L-9.4 -39.0 -8.9 -37.85 M-13.2 -41.3 Q-19.5 -33.15 -25.5 -22.5 L-27.15 -23.55 Q-26.2 -29.8 -23.3 -34.7 -19.9 -40.45 -14.75 -42.55 L-13.2 -41.3 M-0.4 -32.35 Q2.95 -31.9 6.55 -32.85 L-6.0 -18.7 -6.15 -27.0 Q-6.1 -28.55 -7.15 -29.75 L-9.15 -32.3 -9.2 -32.4 -7.4 -35.7 Q-4.85 -33.0 -0.4 -32.35 M-8.15 -28.45 Q-8.3 -23.2 -7.95 -16.65 L-7.9 -16.6 -12.7 -11.25 Q-14.75 -15.05 -17.2 -16.75 L-10.15 -30.7 -8.15 -28.45 M-26.6 -21.2 L-26.3 -21.0 -29.45 -15.15 Q-32.15 -16.85 -37.95 -16.55 L-34.5 -20.7 Q-32.55 -22.9 -28.25 -22.0 L-26.6 -21.2 M-39.0 -14.25 Q-32.7 -14.9 -30.2 -13.55 L-32.7 -8.25 -33.2 -8.25 Q-37.2 -6.95 -40.75 -4.3 -44.25 -1.65 -46.75 1.85 -45.15 -5.9 -39.45 -14.35 L-39.0 -14.25 M-24.0 -0.65 Q-20.5 -3.5 -14.9 -5.95 -8.2 -2.75 -4.1 1.1 -7.8 0.35 -11.75 2.35 -15.5 4.25 -18.35 7.9 -21.2 11.55 -22.05 15.55 -23.0 19.9 -21.25 23.3 L-23.75 23.15 -24.65 23.1 Q-27.85 19.5 -27.5 12.9 -27.25 8.45 -25.3 2.05 L-24.45 -0.5 Q-24.1 -0.5 -24.0 -0.65 M-21.3 -7.9 Q-19.6 -7.85 -17.8 -7.2 -20.55 -5.95 -22.9 -4.4 L-21.4 -7.95 -21.3 -7.9 M-15.5 -8.2 Q-17.8 -9.45 -20.5 -9.85 L-17.95 -15.2 Q-15.85 -13.75 -13.9 -9.85 L-15.3 -8.3 -15.5 -8.2 M-8.4 -4.35 L-13.15 -7.1 -4.8 -16.5 Q-7.05 -12.65 -5.65 -8.3 L-5.7 -8.3 -8.4 -4.35 M-4.5 -5.85 Q-2.55 -2.75 0.85 -1.8 L-0.25 2.75 Q-2.45 -0.1 -6.45 -3.05 L-4.5 -5.85 M-33.8 -5.55 Q-35.8 -0.4 -36.8 3.95 L-37.3 4.05 Q-40.3 5.9 -42.3 8.4 -44.6 11.2 -45.1 14.3 -47.2 11.4 -47.35 7.55 -45.4 3.2 -41.8 -0.25 -38.25 -3.7 -33.8 -5.55 M-1.25 4.2 Q1.25 7.6 1.5 10.95 1.9 15.45 -1.55 18.45 -4.4 20.95 -9.7 22.15 -13.55 19.7 -15.0 15.8 -16.55 11.75 -14.8 7.65 L-14.25 7.05 Q-11.55 4.5 -8.1 3.5 -4.1 2.3 -1.25 4.2 M-19.3 23.25 Q-20.85 20.95 -20.2 17.55 -19.65 14.65 -17.75 11.5 -17.7 14.65 -16.15 17.6 -14.65 20.4 -12.0 22.6 L-19.3 23.25 M-37.7 19.75 L-40.7 18.25 -43.25 16.4 Q-43.2 11.3 -37.45 7.0 -38.65 13.7 -37.7 19.75"/></g></defs><g><g><use transform="matrix(3.12004089355,0.0,0.0,3.12004089355,47.35,44.85)" xlink:href="#c1"/></g></g></svg>