<?xml version='1.0' encoding='UTF-8'?>
<svg xmlns:xlink="http://www.w3.org/1999/xlink" xmlns="http://www.w3.org/2000/svg" version="1.1" width="419px" height="512px" viewBox="-104.361328125 -99.0345520021 419.152362061 511.997546387"><defs><g id="c1"><path fill="#ffffff" stroke="none" d="M21.05 -35.45 Q20.85 -37.35 21.3 -39.4 21.75 -41.65 22.7 -42.8 L22.85 -43.15 Q26.85 -45.3 31.45 -43.8 35.35 -42.55 38.9 -39.0 41.45 -36.45 44.55 -32.35 L49.8 -25.35 Q43.5 -25.85 38.3 -24.05 32.15 -21.9 29.6 -17.0 25.9 -22.75 24.3 -25.75 21.45 -30.95 21.05 -35.45 M5.8 -29.55 Q5.05 -20.4 5.9 -13.15 1.05 -23.5 -0.95 -35.75 1.15 -34.55 3.7 -34.25 L10.45 -34.65 Q13.95 -35.5 16.7 -37.4 L16.55 -36.7 Q14.95 -33.9 12.35 -32.15 9.6 -30.35 6.45 -30.1 5.9 -30.1 5.8 -29.55 M7.75 -28.05 Q12.45 -28.65 15.95 -32.0 15.75 -27.55 17.0 -21.8 17.8 -18.1 19.7 -12.2 L21.25 -7.45 Q15.6 -4.95 11.85 -2.85 10.2 -5.2 8.65 -7.85 7.5 -13.3 7.5 -21.6 L7.7 -26.95 7.75 -28.05 M18.85 -36.15 Q19.5 -29.85 24.25 -22.45 31.7 -10.8 35.5 -1.3 37.75 4.2 38.55 8.35 39.65 13.95 38.55 18.35 L28.6 20.9 24.1 21.8 Q26.5 18.15 26.75 12.2 26.95 7.55 25.8 2.3 25.0 -1.35 23.1 -7.15 L20.1 -16.65 Q16.85 -28.05 18.8 -36.0 L18.85 -36.15 M6.9 -7.2 Q7.05 -6.65 7.55 -6.4 9.1 -3.85 10.4 -2.0 7.1 0.0 4.6 2.1 -1.1 -7.3 -3.85 -18.75 -6.6 -30.05 -5.95 -41.25 L-5.3 -40.9 Q-4.65 -38.9 -3.15 -37.4 -0.75 -20.95 6.8 -7.7 L6.9 -7.2 M34.15 -8.7 Q40.55 -10.9 48.2 -10.0 55.25 -9.15 61.8 -6.0 63.5 0.8 59.9 5.7 46.1 -5.95 36.1 -4.55 L34.15 -8.7 M31.05 -14.55 Q33.3 -19.85 39.7 -22.05 45.1 -23.95 51.45 -23.15 L51.6 -23.15 52.35 -22.3 54.95 -19.1 42.65 -18.55 Q35.85 -16.95 32.05 -12.7 L31.05 -14.55 M56.3 -16.9 L56.55 -16.9 Q59.65 -12.5 61.1 -8.35 54.5 -11.3 47.65 -12.1 40.1 -12.95 33.75 -11.0 37.25 -15.0 44.1 -16.5 L56.3 -16.9 M47.7 -0.3 Q49.0 7.25 43.9 16.1 L43.8 16.5 40.9 17.55 Q41.7 12.2 39.25 3.95 L37.0 -2.45 Q41.5 -3.2 47.7 -0.3 M58.85 7.05 Q54.5 11.75 47.0 15.15 50.7 7.4 49.8 0.75 54.35 3.25 58.85 7.05 M54.35 15.15 Q54.15 15.15 54.0 15.3 45.9 24.35 29.15 28.8 17.75 31.75 8.15 28.5 5.3 27.55 2.6 25.8 L1.25 24.75 1.1 24.65 Q1.5 21.9 1.3 19.55 L1.2 18.6 Q4.25 21.85 9.85 23.75 13.8 25.15 21.2 24.35 L21.95 24.25 22.3 24.2 Q29.8 23.4 38.75 20.55 48.35 17.55 54.0 14.15 L54.35 15.15 M58.25 37.2 Q58.85 42.15 59.2 49.85 L59.3 50.65 59.25 50.75 Q58.3 53.85 50.15 57.55 38.3 62.75 31.95 60.0 28.55 48.35 22.4 43.85 21.45 43.15 21.1 43.95 20.75 44.75 21.6 45.35 23.1 46.5 24.5 48.2 22.45 52.55 21.5 57.6 15.1 59.2 9.3 59.2 L2.15 58.3 Q-2.15 57.6 -4.7 56.2 L-2.7 44.25 Q-1.55 37.2 -0.45 32.3 L0.8 26.6 Q5.55 30.6 12.95 31.85 19.5 32.95 26.2 31.7 34.5 30.2 41.7 26.9 49.9 23.15 55.05 17.7 56.9 24.85 58.25 37.2 M21.95 20.75 Q21.1 15.1 17.85 10.95 14.3 6.5 8.95 5.35 L7.4 3.0 10.5 0.8 Q14.75 -1.95 21.95 -5.2 24.25 2.15 24.6 7.05 25.25 16.2 21.95 20.75 M7.8 6.95 Q9.1 10.1 9.0 13.7 8.9 17.2 7.5 20.45 L7.45 20.75 Q5.2 19.7 3.65 18.55 -0.55 15.3 0.8 11.05 1.85 7.7 6.1 4.05 L7.2 5.8 Q7.2 6.6 7.8 6.95 M20.15 22.3 Q14.0 22.9 9.5 21.5 10.85 18.15 10.95 14.55 11.1 10.9 9.9 7.6 14.55 8.95 17.35 13.2 19.85 17.1 20.15 22.3 M24.05 68.3 Q21.5 71.35 13.9 72.4 L13.65 72.2 Q10.4 70.05 8.45 67.35 6.2 64.25 6.0 60.8 L9.7 61.3 9.8 61.3 9.95 61.35 Q15.9 61.35 22.6 59.65 L24.05 68.3 M24.35 71.1 Q24.9 76.15 24.9 80.75 20.3 82.0 14.15 81.65 L3.4 80.25 -3.05 79.2 Q-6.8 78.35 -8.9 76.6 -9.5 73.35 -9.55 70.6 -7.25 73.15 -4.5 73.65 L-0.2 74.5 4.1 75.05 Q14.8 75.4 21.6 72.55 23.15 71.95 24.35 71.1 M30.2 68.5 Q34.7 72.05 40.35 74.65 36.45 76.4 33.3 81.0 31.25 74.7 30.5 70.25 L30.2 68.5 M31.55 61.85 Q35.45 63.55 40.95 62.7 L41.0 62.75 Q57.8 71.65 71.45 74.25 L71.65 75.05 73.5 83.55 Q68.4 80.85 61.2 78.75 L48.3 75.55 Q38.4 73.2 30.0 66.1 30.0 62.9 31.55 61.85 M3.2 72.75 L-2.2 72.0 Q-5.1 71.5 -6.65 70.75 -9.25 69.55 -9.4 67.4 L-9.5 67.1 Q-9.0 60.95 -5.45 57.8 -2.05 59.7 4.0 60.5 4.2 64.05 6.35 67.35 8.25 70.3 11.4 72.7 L8.6 72.9 3.2 72.75 M16.25 83.8 Q16.4 84.45 16.95 84.75 19.55 86.25 21.3 88.2 23.4 90.55 23.75 93.05 L24.0 93.6 Q23.6 96.4 22.85 98.5 19.7 91.3 9.95 87.25 4.05 84.8 -7.45 82.7 L-8.4 79.0 Q-6.2 80.35 -3.0 81.1 L2.9 82.15 Q11.15 83.7 16.25 83.8 M24.5 89.8 Q22.6 86.4 18.75 83.8 L24.85 83.1 24.6 88.6 24.5 89.8 M39.8 97.0 Q42.45 88.65 54.45 82.4 50.85 87.6 48.55 93.75 46.3 99.85 45.6 106.1 42.4 102.35 39.75 97.2 L39.8 97.0 M37.55 92.3 L34.3 83.8 Q38.05 77.45 43.25 76.05 L43.45 75.95 45.7 76.8 55.05 79.45 Q42.1 85.75 38.4 94.4 L37.55 92.3 M70.85 72.1 Q63.5 70.7 55.3 67.45 57.7 66.05 60.5 63.65 L65.25 59.35 Q68.75 64.95 70.85 72.1 M63.95 57.3 L58.7 62.1 Q55.6 64.7 52.9 66.1 L52.65 66.35 Q48.2 64.45 43.75 62.15 46.95 61.35 50.45 59.95 58.45 56.85 60.7 53.05 L61.4 53.9 63.95 57.3 M58.95 80.45 Q69.0 82.95 74.8 86.25 L75.5 86.4 77.6 88.6 Q72.6 88.65 67.1 91.45 62.25 93.9 58.25 97.75 55.45 100.4 53.5 103.75 51.35 107.45 50.7 111.05 L47.5 108.2 Q48.15 100.65 51.1 93.45 54.1 86.0 58.95 80.45 M79.4 90.75 L80.9 92.9 Q84.0 97.5 84.05 101.85 L83.15 101.1 Q81.8 100.2 79.45 100.65 L75.75 101.75 Q63.6 105.0 61.65 115.65 57.0 115.15 52.65 112.4 53.65 106.15 59.2 100.15 63.05 96.0 68.35 93.4 74.2 90.45 79.4 90.75 M79.5 103.1 L82.25 102.95 Q83.35 103.3 83.6 104.9 L83.0 106.4 Q81.1 110.3 75.8 112.9 71.5 115.0 66.35 115.6 L63.85 115.75 Q65.7 107.8 73.95 104.7 L79.5 103.1 M17.3 105.95 L13.95 107.75 8.6 110.1 Q7.05 98.0 -1.7 92.7 -4.2 91.2 -7.4 90.2 -10.6 89.25 -13.7 89.0 L-7.65 84.65 Q1.15 86.3 4.35 87.25 19.55 91.95 21.8 101.0 L20.2 103.55 Q19.2 104.8 17.3 105.95 M6.7 110.6 L6.75 110.75 4.6 111.5 4.4 111.55 Q3.65 108.55 0.6 105.85 -0.8 104.7 -5.2 101.8 L-5.55 101.6 -6.15 101.15 -9.05 98.95 Q-10.85 97.55 -12.1 97.05 -16.4 95.35 -20.2 94.95 L-16.1 91.0 -15.75 91.1 Q-12.75 90.95 -9.35 91.85 L-3.3 93.9 Q1.2 95.45 3.95 100.8 6.15 105.15 6.7 110.6 M2.55 112.1 Q-1.6 113.3 -5.1 113.55 -3.6 111.7 -3.05 109.5 -2.5 107.2 -3.15 105.15 L0.55 108.1 Q2.3 110.0 2.55 112.1 M-11.85 -45.55 Q-9.9 -43.65 -7.95 -42.4 -8.65 -30.65 -5.75 -18.7 -2.8 -6.6 3.25 3.25 -0.8 6.9 -1.5 10.65 L-2.7 7.65 Q-8.35 -8.4 -12.45 -32.4 -12.6 -33.25 -13.6 -33.6 -14.65 -33.95 -14.45 -32.9 L-13.4 -26.95 -13.45 -26.95 -17.7 -28.15 Q-17.8 -33.55 -16.7 -37.75 -15.25 -43.4 -11.85 -45.55 M-13.0 -24.85 L-10.25 -12.0 -10.4 -12.05 Q-13.45 -12.25 -16.6 -13.2 -20.0 -14.2 -22.3 -15.8 -23.7 -16.75 -23.75 -20.2 -23.85 -24.6 -24.05 -25.2 -25.15 -28.35 -28.15 -28.9 -27.3 -29.85 -25.75 -29.2 L-23.35 -27.85 Q-21.5 -26.95 -18.35 -26.15 L-13.2 -24.9 -13.0 -24.85 M-29.6 -26.7 Q-26.25 -27.7 -25.7 -23.15 L-25.45 -19.3 Q-25.25 -17.1 -24.75 -16.2 -23.8 -14.6 -21.95 -13.55 L-18.4 -12.0 Q-13.55 -10.15 -9.75 -9.95 L-8.75 -6.1 -20.35 -9.75 Q-20.75 -10.8 -21.75 -11.85 -22.65 -12.8 -23.55 -13.25 L-25.9 -13.45 Q-27.05 -13.15 -28.05 -12.3 -32.95 -13.3 -33.45 -18.35 -33.9 -23.2 -30.05 -26.3 L-29.7 -26.65 -29.6 -26.7 M-23.55 -4.85 Q-26.7 5.8 -28.85 14.0 -32.0 26.4 -31.9 34.85 -31.75 39.5 -30.25 44.4 -29.2 47.7 -29.0 49.05 -28.6 51.45 -29.05 53.8 -29.25 54.65 -28.25 55.2 -27.25 55.8 -27.05 54.8 -26.35 51.45 -27.2 48.05 -23.9 46.7 -20.1 41.8 -16.8 37.45 -15.25 32.05 L-15.25 32.0 Q-12.4 32.35 -10.4 29.6 -8.35 26.85 -9.4 24.05 -6.7 22.35 -6.45 19.5 -6.3 17.0 -8.05 14.35 L-5.35 5.35 -5.35 5.5 -3.45 10.3 -3.85 10.85 Q-8.35 28.0 -12.65 37.55 -14.3 41.1 -18.5 46.1 -23.6 52.05 -25.0 54.25 -26.25 56.15 -27.2 58.95 L-28.75 63.95 -37.25 92.2 -42.35 109.55 -42.5 109.85 -42.95 109.9 Q-44.15 110.5 -45.5 110.3 -46.85 110.1 -47.8 109.2 L-48.0 109.05 -46.0 101.8 -42.9 91.7 -39.75 81.55 Q-36.8 71.5 -34.7 63.0 L-33.2 57.35 Q-32.4 53.95 -32.45 51.6 -32.45 49.85 -33.6 46.95 L-35.35 42.35 Q-37.35 34.85 -34.9 23.15 -33.25 15.5 -27.55 -6.65 L-26.55 -10.4 -25.6 -11.1 -23.3 -11.05 Q-21.85 -10.45 -22.15 -9.35 L-23.55 -4.85 M-8.15 -3.95 L-6.45 1.85 -6.75 2.3 -9.75 12.3 Q-10.65 11.4 -11.55 10.85 -16.7 7.4 -24.75 7.2 L-20.35 -7.8 -8.25 -3.95 -8.15 -3.95 M-13.45 12.4 Q-13.95 11.5 -14.8 11.75 -15.65 12.0 -15.1 13.0 -14.35 14.3 -15.8 15.65 -16.9 16.65 -18.6 17.25 -19.4 17.55 -18.85 18.45 -18.35 19.3 -17.65 19.3 L-15.0 19.7 Q-14.35 19.9 -14.25 20.2 L-14.45 21.15 Q-15.3 23.2 -17.45 23.5 -19.6 23.8 -21.4 22.5 -23.2 21.2 -23.6 19.1 -24.2 16.4 -23.0 13.45 -22.7 12.7 -23.6 11.9 -24.5 11.15 -24.85 12.0 -26.1 15.25 -25.6 18.35 L-25.65 18.4 Q-26.5 19.05 -27.8 18.85 L-25.3 9.3 Q-20.6 9.25 -15.6 10.85 -11.35 12.25 -9.15 15.9 -6.65 20.1 -11.3 22.4 -12.1 22.85 -11.3 24.0 -10.3 25.4 -11.8 27.65 -13.35 29.9 -15.3 29.9 -13.7 27.7 -13.6 24.3 L-13.6 24.25 Q-12.5 23.1 -12.3 21.6 -12.05 20.0 -13.05 18.9 -13.7 18.2 -14.7 17.8 -11.8 15.45 -13.45 12.4 M-28.9 24.1 L-28.25 20.75 Q-26.45 21.25 -25.0 20.7 L-24.65 21.5 Q-23.9 23.1 -22.05 24.25 -23.15 25.6 -24.55 26.3 -26.1 27.1 -27.95 25.65 L-28.6 24.7 -28.9 24.1 M-23.35 28.3 Q-21.35 27.45 -19.85 25.2 L-15.9 25.5 Q-16.3 27.35 -17.3 28.55 -18.9 30.45 -22.2 29.1 L-23.35 28.3 M-15.25 97.95 Q-13.5 98.4 -11.75 99.45 L-8.65 101.55 Q-6.4 103.05 -5.65 104.05 -4.55 105.55 -4.8 107.85 -5.15 110.7 -8.05 113.2 L-8.3 113.65 -11.95 113.2 -18.85 111.5 Q-22.55 110.15 -24.4 107.25 -27.05 103.2 -22.0 96.95 -18.9 96.95 -15.25 97.95"/></g></defs><g><g><use transform="matrix(3.17419433594,0.0,0.0,3.17419433594,48.0,45.55)" xlink:href="#c1"/></g></g></svg>