<?xml version='1.0' encoding='UTF-8'?>
<svg xmlns:xlink="http://www.w3.org/1999/xlink" xmlns="http://www.w3.org/2000/svg" version="1.1" width="326px" height="513px" viewBox="-102.08203125 -96.7335815432 326.115747071 513.405615235"><defs><g id="c1"><path fill="#ffffff" stroke="none" d="M28.35 -43.85 Q32.8 -42.15 36.2 -37.0 38.6 -33.3 40.7 -27.4 45.05 -14.85 43.5 -1.45 42.9 3.25 40.75 7.65 38.65 11.8 35.4 15.5 31.6 19.9 26.15 23.4 L25.2 24.0 25.1 24.05 Q21.95 23.6 18.8 22.3 16.05 21.2 14.35 19.2 12.8 17.4 11.75 14.3 11.0 12.1 10.75 9.4 L10.75 9.05 Q15.0 7.6 17.7 3.7 L18.45 2.4 Q20.4 -1.15 19.7 -6.55 19.3 -10.0 17.5 -15.5 L16.2 -18.55 Q15.1 -20.45 13.75 -20.5 13.25 -20.55 13.15 -20.05 L13.0 -19.45 7.35 -20.9 Q11.3 -24.45 14.75 -28.7 18.2 -32.8 19.8 -35.95 22.1 -40.5 21.55 -44.4 L21.5 -44.5 Q24.85 -45.25 28.35 -43.85 M12.3 -29.45 Q8.6 -25.1 4.8 -21.8 L4.45 -22.0 Q4.05 -22.5 3.55 -22.5 L3.5 -22.5 2.15 -23.1 1.15 -23.25 14.8 -37.8 Q15.1 -38.1 15.0 -38.55 L16.45 -40.7 16.9 -41.05 Q17.8 -42.8 19.65 -43.8 19.7 -40.25 17.25 -36.05 15.65 -33.35 12.3 -29.45 M15.25 -15.6 Q17.8 -8.8 17.6 -3.75 12.5 -4.1 6.8 -6.9 5.2 -7.7 4.95 -10.9 4.95 -14.5 4.65 -15.7 4.25 -17.5 3.05 -18.7 1.85 -19.9 0.25 -20.15 1.0 -21.5 2.65 -20.9 L5.25 -19.6 Q7.05 -18.75 9.85 -18.05 L14.65 -17.0 15.25 -15.6 M3.8 -7.85 Q4.55 -6.3 6.1 -5.3 L9.3 -3.85 Q13.9 -2.1 17.4 -1.7 L16.6 0.95 16.5 1.1 8.8 -1.1 Q8.55 -2.2 7.4 -3.4 L5.4 -4.95 3.05 -5.1 Q1.85 -4.8 0.9 -3.9 -4.0 -4.85 -4.6 -9.8 -5.2 -14.65 -1.45 -17.85 L-1.15 -17.85 Q2.15 -18.95 2.85 -14.65 L3.15 -10.9 Q3.35 -8.7 3.8 -7.85 M3.7 -2.9 Q4.45 -3.25 5.7 -2.65 6.9 -2.05 6.9 -1.3 L6.8 -0.85 5.55 3.45 Q2.15 16.05 0.7 22.4 -2.35 35.4 -1.9 43.7 -1.7 47.9 -0.1 52.85 L1.25 57.45 Q1.75 59.85 1.3 62.2 1.15 63.0 2.15 63.6 3.1 64.15 3.3 63.2 3.85 60.15 3.15 57.1 L3.45 56.95 Q6.7 54.3 8.65 52.15 11.35 49.2 12.55 46.3 14.25 42.15 14.95 36.35 L18.8 36.65 19.2 36.55 Q18.3 41.9 17.1 45.5 15.5 50.2 12.9 53.5 L7.4 60.0 Q4.35 63.9 3.25 67.4 1.25 73.95 -3.55 91.6 L-10.95 118.55 Q-11.0 118.8 -12.55 118.9 L-14.5 118.95 Q-15.15 118.85 -16.25 118.05 L-16.5 117.8 Q-14.75 110.25 -11.85 100.55 -9.05 91.2 -5.9 78.9 L-3.7 70.0 Q-2.5 64.8 -2.15 61.05 -2.05 59.35 -3.05 56.95 -5.05 52.0 -5.65 49.45 L-5.95 47.85 Q-5.75 47.5 -6.05 46.9 -6.8 41.45 -5.7 34.35 L-3.1 21.95 -3.15 21.5 Q3.05 17.9 2.85 11.75 2.8 8.2 0.7 4.75 L0.9 4.4 2.4 -2.0 3.7 -2.9 M47.3 -2.05 L47.65 -0.9 47.15 -0.4 45.3 1.1 Q45.9 -1.6 46.15 -5.25 L47.3 -2.05 M44.65 4.3 L48.35 1.75 Q49.65 7.4 49.65 15.05 L49.6 17.3 Q45.3 22.15 38.45 25.7 32.5 28.75 25.2 30.45 L26.3 26.4 28.45 25.15 30.25 23.7 Q36.0 19.4 40.25 13.25 L42.35 9.55 Q43.65 7.05 44.45 4.4 L44.65 4.3 M54.4 48.75 Q52.7 57.9 46.6 65.0 L42.3 66.65 43.05 62.8 43.05 62.75 Q50.6 55.85 50.9 49.2 L53.75 46.35 54.4 48.75 M47.75 35.7 Q46.2 44.1 43.8 51.65 42.45 56.05 41.35 61.1 L41.25 61.7 40.25 67.35 40.2 67.7 Q39.3 74.55 39.3 80.45 39.05 80.85 39.3 81.5 L39.45 87.3 Q39.75 91.4 40.5 95.65 40.8 97.6 41.25 99.35 L41.65 100.65 42.0 102.0 Q40.7 103.1 37.45 103.5 L32.65 103.8 25.95 103.4 Q22.3 102.6 19.7 100.85 15.75 90.9 13.8 80.15 11.8 69.25 12.15 58.75 L12.0 58.25 15.7 53.8 Q17.6 51.2 18.35 48.75 20.5 41.85 21.5 35.6 22.85 34.7 23.95 32.95 L24.2 32.95 Q31.4 31.5 37.65 28.7 44.75 25.45 49.5 20.85 49.15 27.25 47.95 34.45 47.4 34.7 47.75 35.7 M51.9 41.65 L52.75 43.55 Q51.0 46.9 46.75 48.8 48.6 42.3 49.45 37.65 50.7 39.1 51.9 41.65 M8.6 0.85 L15.35 2.75 Q12.9 5.8 9.1 6.85 8.7 6.95 8.7 7.35 L8.5 7.75 8.6 9.75 Q7.1 9.75 6.0 10.3 L8.6 0.85 M4.7 15.15 L5.05 14.8 Q5.45 13.5 6.5 12.7 7.5 12.0 8.85 11.9 10.0 18.25 13.55 21.55 17.5 25.1 24.1 26.3 22.9 31.85 20.0 33.7 L19.7 33.9 17.8 34.55 14.55 34.2 16.5 30.85 Q16.8 30.1 15.9 29.35 L14.6 29.4 Q12.0 35.35 8.3 34.7 L6.65 34.05 Q9.0 32.6 10.45 29.65 10.8 28.9 9.9 28.15 L8.6 28.2 Q6.5 32.45 3.05 33.05 2.2 33.25 0.9 33.05 L0.7 32.95 1.3 29.4 Q4.05 27.0 5.2 25.35 7.1 22.6 6.35 20.05 5.9 18.4 4.15 17.25 L4.3 16.85 4.7 15.15 M4.9 34.9 Q6.65 36.4 8.85 36.85 11.0 37.2 12.9 35.8 12.25 40.6 10.95 44.15 9.95 47.05 7.45 49.95 L2.45 54.65 2.4 54.5 Q0.2 48.0 0.05 42.6 -0.1 39.1 0.4 34.9 2.7 35.6 4.9 34.9 M2.2 25.15 L3.7 19.05 Q6.05 20.75 2.2 25.15 M4.95 69.4 Q6.2 65.15 10.1 60.45 10.1 66.1 10.6 71.25 L4.5 70.9 4.95 69.4 M55.9 58.2 L55.75 58.35 51.7 61.9 Q54.0 58.2 55.4 53.85 L55.9 58.2 M46.0 51.45 L46.25 51.45 48.5 50.55 Q47.5 54.45 44.1 58.25 L46.0 51.45 M48.1 66.9 Q52.6 64.75 56.1 61.35 L56.3 66.3 56.15 66.4 Q49.35 72.2 41.45 73.45 L41.95 69.1 Q44.55 68.5 47.1 67.35 L47.85 67.2 48.1 66.9 M41.25 75.75 Q49.25 74.7 56.1 69.5 55.4 75.35 52.35 78.2 50.55 79.95 47.1 80.8 43.55 81.65 41.05 80.8 L41.25 75.75 M41.75 104.6 Q41.35 107.5 39.8 108.35 36.15 110.45 33.75 110.2 L33.35 108.85 Q33.25 108.4 32.75 108.05 L31.85 107.85 Q21.9 111.7 13.9 112.35 L9.3 112.15 Q6.3 111.5 7.5 109.35 8.85 106.95 12.7 105.1 14.6 104.15 19.15 102.6 24.05 105.8 31.3 105.95 36.3 106.2 41.45 104.65 L41.75 104.6 M-9.55 -38.1 Q-16.8 -24.9 -22.3 -13.05 -27.1 -2.8 -28.6 3.1 -30.05 8.95 -30.1 13.05 -30.15 18.85 -27.6 22.55 -32.0 21.95 -36.3 20.35 -37.8 11.4 -34.2 0.15 -31.7 -7.65 -25.8 -18.55 -19.35 -30.6 -11.85 -40.3 L-10.05 -39.3 -9.55 -38.1 M-13.85 -41.6 Q-20.1 -33.4 -26.15 -22.8 L-27.8 -23.8 Q-26.85 -30.05 -23.95 -34.95 -20.55 -40.7 -15.4 -42.8 L-13.85 -41.6 M-8.05 -35.95 Q-5.5 -33.25 -1.05 -32.6 3.3 -32.05 7.6 -33.6 L-6.65 -18.45 -6.8 -27.25 Q-6.75 -28.8 -7.8 -30.0 L-9.8 -32.55 -9.85 -32.65 -8.05 -35.95 M-8.8 -28.7 Q-8.95 -23.45 -8.6 -16.9 L-8.45 -16.5 -13.3 -11.35 Q-15.25 -15.2 -17.85 -17.05 L-10.8 -30.95 -8.8 -28.7 M-27.25 -21.45 L-26.95 -21.25 -30.1 -15.4 Q-32.8 -17.1 -38.6 -16.8 L-35.15 -21.0 Q-33.25 -23.1 -28.9 -22.3 L-27.25 -21.45 M-30.9 -13.8 L-33.35 -8.5 -33.85 -8.5 Q-37.85 -7.2 -41.45 -4.55 -44.95 -1.9 -47.45 1.6 -45.75 -6.2 -40.1 -14.6 L-39.65 -14.55 -35.25 -14.75 Q-32.45 -14.7 -30.9 -13.8 M-24.65 -0.9 Q-21.1 -3.85 -15.55 -6.2 -8.85 -3.0 -4.75 0.8 -8.45 0.05 -12.4 2.1 -16.15 4.0 -19.0 7.65 -21.85 11.3 -22.7 15.3 -23.65 19.65 -21.9 23.0 L-25.3 22.85 Q-28.5 19.25 -28.15 12.65 -27.9 8.2 -25.95 1.8 L-25.1 -0.75 Q-24.8 -0.75 -24.65 -0.9 M-22.05 -8.2 L-21.95 -8.2 -18.45 -7.45 Q-21.1 -6.25 -23.6 -4.65 L-22.05 -8.2 M-16.15 -8.45 Q-18.4 -9.65 -21.15 -10.15 L-18.65 -15.45 Q-16.55 -14.05 -14.55 -10.05 L-15.95 -8.55 -16.15 -8.45 M-5.15 -6.1 Q-3.2 -3.0 0.2 -2.05 L-0.9 2.5 Q-3.1 -0.35 -7.1 -3.3 L-5.15 -6.1 M-9.05 -4.6 L-13.8 -7.35 -6.05 -15.6 Q-7.45 -12.25 -6.3 -8.6 L-6.35 -8.55 -9.05 -4.6 M-34.45 -5.8 Q-36.45 -0.65 -37.45 3.7 L-38.0 3.8 Q-41.0 5.65 -43.0 8.15 -45.3 10.95 -45.75 14.05 -47.85 11.1 -48.0 7.25 -46.05 2.95 -42.45 -0.5 -38.9 -3.95 -34.45 -5.8 M-1.9 3.95 Q0.55 7.25 0.85 10.7 1.25 15.2 -2.2 18.2 -5.05 20.7 -10.35 21.9 -14.2 19.45 -15.65 15.55 -17.2 11.5 -15.45 7.4 L-14.9 6.8 Q-12.2 4.25 -8.75 3.25 -4.75 2.05 -1.9 3.95 M-19.95 23.0 Q-21.5 20.65 -20.85 17.25 -20.35 14.35 -18.4 11.25 -18.35 14.4 -16.8 17.35 -15.3 20.15 -12.65 22.35 L-19.95 23.0 M-38.35 19.5 L-41.35 17.95 -43.9 16.15 Q-43.85 11.05 -38.1 6.75 -39.3 13.45 -38.35 19.5 M-5.1 56.65 Q-4.35 58.5 -4.35 60.35 -4.3 61.8 -4.8 64.05 -6.85 61.15 -7.45 57.7 -8.1 54.25 -7.15 50.85 L-5.1 56.65"/></g></defs><g><g><use transform="matrix(3.12670898438,0.0,0.0,3.12670898438,48.0,44.75)" xlink:href="#c1"/></g></g></svg>