<?xml version='1.0' encoding='UTF-8'?>
<svg xmlns:xlink="http://www.w3.org/1999/xlink" xmlns="http://www.w3.org/2000/svg" version="1.1" width="406px" height="513px" viewBox="-101.76196289 -92.3037727354 405.605316162 513.246726989"><defs><g id="c1"><path fill="#ffffff" stroke="none" d="M28.8 -42.05 Q36.5 -39.1 41.15 -25.55 45.6 -12.9 43.95 0.4 42.9 9.5 35.7 17.7 31.9 22.1 26.45 25.6 L25.45 26.2 25.4 26.25 Q22.15 25.8 19.1 24.5 16.35 23.4 14.65 21.35 13.1 19.55 12.05 16.5 11.3 14.3 11.05 11.6 L11.0 10.95 Q15.5 9.5 18.15 5.55 19.7 3.35 20.1 0.1 20.3 -0.2 20.15 -0.7 20.4 -5.25 17.8 -13.3 L16.5 -16.35 Q15.4 -18.25 14.05 -18.3 13.55 -18.35 13.45 -17.95 13.35 -17.65 13.6 -17.15 L9.6 -18.2 5.25 -19.5 5.15 -19.6 4.8 -24.9 Q10.7 -25.65 14.25 -29.25 18.05 -33.15 17.25 -38.9 L17.2 -39.0 17.35 -39.25 Q18.95 -42.15 22.45 -42.8 25.5 -43.35 28.8 -42.05 M3.4 -26.95 Q2.75 -26.9 2.75 -26.15 L3.1 -20.65 2.45 -20.9 Q0.3 -21.55 -1.35 -19.4 -1.85 -18.1 -2.5 -17.65 L-4.2 -15.95 Q-5.6 -14.2 -6.15 -12.2 L-6.55 -20.25 -6.45 -23.35 -6.45 -26.45 Q-6.5 -27.0 -7.25 -27.7 L-8.35 -28.7 Q-10.3 -30.7 -10.05 -33.55 -9.95 -34.85 -9.3 -36.05 -7.0 -31.25 -0.75 -30.4 3.55 -29.85 7.95 -31.4 12.5 -33.05 15.2 -36.25 14.6 -32.3 11.2 -29.7 7.95 -27.35 3.4 -26.95 M15.35 -14.7 L15.7 -13.8 Q18.25 -7.2 18.1 -1.9 12.85 -2.3 7.25 -5.05 5.65 -5.85 5.4 -9.05 5.4 -12.65 5.1 -13.85 4.7 -15.65 3.55 -16.85 2.35 -18.05 0.75 -18.3 1.55 -19.25 3.1 -18.65 L5.55 -17.4 Q7.4 -16.55 10.4 -15.8 L15.35 -14.7 M1.2 -1.7 Q-3.7 -2.65 -4.3 -7.65 -4.95 -12.5 -1.15 -15.65 L-0.8 -16.0 -0.65 -16.05 Q2.65 -17.15 3.3 -12.8 L4.25 -6.0 Q5.05 -4.5 6.55 -3.5 7.55 -2.85 9.75 -2.0 14.1 -0.3 17.9 0.15 L17.0 2.9 8.95 0.65 Q8.55 -0.35 7.5 -1.4 6.55 -2.3 5.65 -2.75 L3.3 -2.9 Q2.15 -2.6 1.2 -1.7 M6.1 -0.4 Q7.35 0.3 7.15 1.1 L5.85 5.65 Q3.0 15.85 0.95 24.6 -2.05 37.65 -1.65 45.9 -1.35 50.45 0.2 55.05 L1.55 59.65 Q2.0 62.05 1.55 64.4 1.4 65.2 2.4 65.75 3.35 66.35 3.55 65.4 4.15 62.4 3.45 59.3 L3.7 59.15 8.95 54.35 Q11.65 51.45 12.85 48.5 14.6 44.3 15.3 38.1 L19.25 38.45 19.55 38.4 Q18.6 43.95 17.45 47.5 15.8 52.35 13.2 55.7 L7.7 62.2 Q4.6 66.1 3.55 69.6 L0.05 81.65 -3.3 93.8 -10.65 120.75 -12.3 121.1 -14.2 121.15 Q-14.95 121.05 -15.95 120.25 L-16.2 120.0 Q-14.45 112.45 -11.55 102.75 -6.25 84.85 -3.15 70.45 L-2.1 66.05 Q-1.6 63.3 -2.0 61.5 -2.35 59.85 -3.5 57.05 L-5.15 52.55 Q-6.85 46.0 -5.55 37.0 L-2.25 21.6 2.7 0.2 4.0 -0.7 Q4.8 -1.1 6.1 -0.4 M82.0 64.9 Q77.0 71.4 70.15 74.65 62.35 78.35 55.15 76.1 L53.45 73.55 56.2 71.7 56.3 71.75 Q63.45 71.7 70.25 68.4 76.9 65.1 81.45 59.5 L81.75 61.6 82.0 64.9 M47.65 1.45 L45.65 3.0 Q46.25 0.0 46.4 -3.1 L48.15 0.85 47.65 1.45 M44.85 6.25 L45.15 6.15 Q47.5 4.75 49.05 3.4 51.1 10.35 51.1 18.6 50.65 18.5 50.4 18.8 46.1 23.8 39.15 27.4 33.05 30.55 25.65 32.25 L26.8 28.25 Q27.7 27.95 28.95 26.95 L30.75 25.5 Q36.65 21.05 40.7 15.05 43.35 11.1 44.85 6.25 M53.65 37.15 Q54.85 36.4 56.55 35.65 59.55 36.9 61.7 40.0 63.6 42.75 64.55 46.45 L64.65 47.0 65.2 50.2 Q65.7 56.45 62.1 62.1 59.0 67.0 53.3 70.85 62.3 58.9 59.55 47.7 58.1 41.6 53.65 37.15 M46.65 45.1 Q45.55 48.4 44.5 49.5 43.9 50.1 44.7 51.0 45.5 51.9 46.1 51.3 47.15 50.15 48.0 47.95 50.7 58.95 44.6 67.4 42.35 70.5 37.95 71.85 34.05 73.05 29.8 72.5 24.45 71.75 20.7 66.5 17.5 61.95 16.6 55.95 L16.3 55.4 Q18.55 51.95 19.95 46.85 L21.8 37.7 21.85 37.5 Q23.3 36.6 24.45 34.8 L24.65 34.8 Q32.25 33.3 38.8 30.2 46.3 26.65 51.05 21.6 L50.75 25.2 Q49.65 36.7 46.65 45.1 M57.4 46.75 Q59.55 53.45 56.45 61.0 53.95 66.95 48.3 73.1 44.1 74.15 41.05 73.15 44.2 71.75 46.2 69.2 50.1 64.2 50.7 57.55 51.25 51.45 49.05 45.05 L50.7 39.25 50.9 39.1 52.2 38.1 Q55.7 41.4 57.4 46.75 M71.25 36.95 Q70.0 41.5 66.05 44.95 63.75 38.1 58.75 34.85 L60.9 34.25 Q66.9 32.85 71.25 36.95 M72.95 38.95 L75.55 42.7 75.5 43.05 Q76.05 50.1 72.1 57.4 68.55 63.85 62.55 68.75 L59.0 69.4 Q63.35 65.35 65.45 60.55 67.7 55.3 67.1 49.55 L66.75 47.45 Q71.25 44.05 72.95 38.95 M9.05 11.6 Q7.65 11.55 6.35 12.15 L9.0 2.65 15.95 4.6 Q13.35 7.95 9.4 9.05 9.0 9.15 9.0 9.55 L9.05 11.6 M9.35 13.7 Q10.4 20.1 14.0 23.35 17.9 26.85 24.6 28.15 22.9 35.7 18.25 36.4 16.65 36.65 15.0 36.0 16.05 34.7 16.95 32.7 17.3 31.95 16.4 31.2 15.45 30.4 15.1 31.2 12.4 37.15 8.8 36.55 8.1 36.45 7.15 35.85 9.55 34.35 10.95 31.45 11.3 30.7 10.4 30.0 9.45 29.25 9.05 30.0 7.05 34.3 3.55 34.9 L1.4 34.85 1.05 34.75 1.65 31.3 1.75 31.25 Q4.5 28.85 5.65 27.2 7.55 24.45 6.85 21.9 6.35 20.2 4.55 19.0 L5.1 17.0 5.5 16.6 Q6.4 13.95 9.35 13.7 M5.35 36.7 Q7.3 38.3 9.3 38.65 11.3 39.05 13.2 37.75 12.65 42.25 11.25 46.35 10.25 49.25 7.75 52.15 L2.75 56.85 2.7 56.7 Q0.5 50.25 0.3 44.8 0.25 40.75 0.75 36.7 3.25 37.45 5.35 36.7 M4.1 20.8 Q6.7 22.6 2.55 27.1 L4.1 20.8 M9.5 63.75 L14.95 57.3 Q15.85 61.45 17.85 65.0 19.95 68.85 23.0 71.25 23.25 85.1 24.6 96.4 24.95 99.6 25.75 103.1 L25.8 103.8 26.1 103.75 25.3 104.5 Q16.0 108.25 8.95 106.6 7.0 106.1 5.05 105.0 L3.95 104.2 Q1.25 97.8 0.4 92.0 0.35 91.5 -0.25 91.1 L5.4 71.05 Q6.45 67.6 9.5 63.75 M74.65 57.4 Q77.25 51.95 77.55 46.55 79.5 50.8 80.85 56.35 76.1 63.15 68.15 66.8 72.2 62.45 74.65 57.4 M71.35 82.35 Q67.7 83.65 63.95 82.5 60.55 81.5 57.55 78.7 64.0 79.95 70.8 76.95 76.8 74.25 81.75 68.85 81.05 73.65 78.65 77.05 75.95 80.8 71.35 82.35 M22.6 112.0 L17.4 112.7 17.4 111.55 Q17.4 111.05 16.85 110.55 16.25 110.0 15.8 110.25 1.1 118.35 -7.0 115.7 L-5.4 109.85 -4.9 109.65 Q-1.15 106.15 3.2 105.8 7.25 109.25 13.85 109.25 19.2 109.25 25.2 107.0 25.3 109.0 24.85 110.05 24.25 111.5 22.6 112.0 M-11.0 -37.75 Q-12.7 -35.0 -11.8 -31.75 -11.0 -28.95 -8.5 -26.5 -9.75 -3.45 -1.9 10.15 L-3.35 16.65 Q-7.05 9.85 -9.8 0.05 L-9.95 -0.45 -12.3 -9.8 Q-14.45 -18.9 -15.7 -27.65 -15.8 -28.5 -16.85 -28.85 -17.9 -29.2 -17.7 -28.15 L-16.8 -22.35 -20.95 -23.4 Q-21.1 -28.65 -20.0 -32.9 -18.55 -38.5 -15.2 -40.7 L-11.0 -37.75 M-26.65 -19.4 Q-27.05 -21.2 -28.2 -22.4 -29.4 -23.55 -31.0 -23.8 -30.2 -24.8 -28.65 -24.15 L-26.25 -22.9 Q-24.4 -22.05 -21.4 -21.3 L-16.4 -20.2 -14.4 -10.5 -13.65 -7.4 Q-19.0 -7.85 -24.55 -10.6 -26.15 -11.35 -26.4 -14.55 -26.4 -18.2 -26.65 -19.4 M-32.45 -21.55 Q-29.15 -22.65 -28.5 -18.35 L-27.55 -11.55 Q-26.8 -10.0 -25.2 -9.0 -24.2 -8.35 -22.05 -7.55 -17.05 -5.6 -13.15 -5.3 L-12.25 -1.75 -22.85 -4.85 Q-23.25 -5.85 -24.25 -6.9 -25.2 -7.8 -26.1 -8.25 L-28.45 -8.4 Q-29.6 -8.1 -30.6 -7.25 -35.5 -8.15 -36.1 -13.15 -36.75 -18.0 -32.95 -21.2 L-32.55 -21.55 -32.45 -21.55 M-29.1 -5.3 L-27.8 -6.25 Q-27.0 -6.6 -25.7 -5.9 -24.45 -5.2 -24.65 -4.45 L-25.95 0.15 -30.8 19.05 Q-33.85 32.05 -33.4 40.4 -33.2 44.5 -31.6 49.55 L-30.25 54.15 Q-29.75 56.5 -30.2 58.85 -30.35 59.65 -29.35 60.25 -28.4 60.85 -28.2 59.9 -27.6 56.45 -28.6 52.85 -24.45 50.8 -21.05 46.15 -18.2 42.3 -16.2 37.15 L-16.15 36.8 Q-13.5 36.6 -11.85 34.0 -10.15 31.3 -11.2 28.75 -8.55 27.0 -8.4 24.15 -8.25 21.6 -10.05 19.0 L-7.85 11.25 -5.95 15.45 Q-7.95 23.8 -9.45 29.05 -11.65 36.45 -14.15 42.25 -15.75 45.9 -19.85 50.95 -24.85 57.15 -26.15 59.25 -27.35 61.15 -28.25 64.0 L-29.7 69.0 -37.6 97.4 -42.35 114.85 -42.5 115.2 -42.95 115.25 Q-44.15 115.85 -45.4 115.7 -46.7 115.55 -47.75 114.7 L-48.0 114.5 -46.15 107.25 -43.25 97.05 -40.35 86.9 Q-37.75 77.5 -35.7 68.25 L-34.3 62.55 Q-33.55 59.15 -33.65 56.75 -33.7 55.0 -34.95 52.1 L-36.75 47.6 Q-38.9 40.05 -36.7 28.4 L-33.5 13.4 -30.0 -1.6 -29.1 -5.3 M-9.3 8.2 L-11.75 17.0 -13.15 15.85 Q-18.4 12.3 -26.95 12.5 L-22.8 -2.85 -11.65 0.45 -9.15 7.95 -9.3 8.2 M-17.15 17.8 Q-16.35 19.15 -17.8 20.5 -18.8 21.45 -20.5 22.1 -21.3 22.4 -20.75 23.3 -20.25 24.2 -19.55 24.15 L-16.9 24.5 Q-15.25 24.95 -16.65 26.6 -18.0 28.15 -19.2 28.35 -21.3 28.65 -23.05 27.5 -24.85 26.35 -25.45 24.4 -26.25 21.75 -25.05 18.4 -24.75 17.65 -25.65 16.9 L-26.9 16.95 Q-28.05 20.1 -27.5 23.4 L-27.55 23.4 Q-28.35 24.1 -29.75 23.9 L-27.5 14.6 -27.15 14.65 Q-22.55 14.45 -17.8 15.75 -13.1 17.1 -11.1 20.3 -9.9 22.2 -10.5 24.15 -11.1 26.05 -13.1 27.1 -13.95 27.55 -13.15 28.7 -12.05 30.1 -13.55 32.4 -15.0 34.7 -16.95 34.7 -15.5 32.6 -15.4 29.05 L-15.4 29.0 Q-14.35 27.85 -14.15 26.35 -13.95 24.75 -14.95 23.65 -15.55 22.95 -16.65 22.55 -13.7 20.15 -15.5 17.2 -16.0 16.3 -16.85 16.55 -17.75 16.8 -17.15 17.8 M-23.85 29.2 Q-24.9 30.6 -26.25 31.3 -27.85 32.15 -29.7 30.75 L-30.35 29.8 Q-30.4 29.5 -30.75 29.15 L-30.15 25.85 -26.85 25.7 -26.5 26.45 Q-25.75 28.05 -23.85 29.2 M-25.05 33.25 Q-23.05 32.4 -21.65 30.1 L-17.65 30.3 Q-17.95 32.05 -18.95 33.4 -20.35 35.1 -23.7 34.1 -24.65 33.9 -25.05 33.25 M-5.15 -4.35 Q-3.15 -0.9 0.45 0.15 L-1.3 7.6 Q-3.85 2.45 -5.15 -4.35"/></g></defs><g><g><use transform="matrix(3.12004089355,0.0,0.0,3.12004089355,48.0,42.95)" xlink:href="#c1"/></g></g></svg>