<?xml version='1.0' encoding='UTF-8'?>
<svg xmlns:xlink="http://www.w3.org/1999/xlink" xmlns="http://www.w3.org/2000/svg" version="1.1" width="445px" height="512px" viewBox="-133.065151977 -111.170654297 444.848818207 511.998937988"><defs><g id="c1"><path fill="#ffffff" stroke="none" d="M35.7 -43.95 Q38.1 -43.15 41.25 -41.55 L41.3 -41.55 Q39.15 -28.2 30.55 -17.35 21.75 -6.25 9.35 -1.85 L9.3 -1.85 Q2.8 -4.9 -4.1 -9.3 L0.0 -10.8 Q7.7 -14.1 18.1 -21.5 24.45 -25.95 28.9 -31.15 34.4 -37.65 35.7 -43.95 M26.95 -43.45 L27.5 -45.4 Q27.6 -45.85 28.9 -45.65 L33.65 -44.65 Q31.3 -34.35 17.45 -23.95 L16.9 -23.55 Q12.1 -25.75 8.35 -29.0 12.2 -29.05 16.05 -31.0 19.6 -32.85 22.35 -35.9 24.85 -38.7 26.95 -43.45 M5.2 -29.55 Q9.65 -25.1 15.25 -22.35 11.25 -19.5 7.2 -17.15 L7.05 -17.25 Q-1.75 -20.6 -6.85 -29.25 -11.65 -37.4 -11.45 -47.25 L-11.5 -47.45 -9.15 -48.0 Q-6.55 -45.15 -3.2 -43.15 -1.1 -35.75 5.15 -29.6 L5.2 -29.55 M8.4 -35.5 Q11.85 -35.15 15.5 -36.2 19.15 -37.3 21.9 -39.5 18.8 -35.2 15.0 -33.05 10.65 -30.55 6.0 -31.15 1.2 -36.0 -0.85 -41.9 L-0.8 -41.9 Q0.3 -39.05 2.85 -37.35 5.2 -35.8 8.4 -35.5 M28.05 -8.35 Q27.0 -8.8 26.95 -7.85 26.9 -6.9 27.75 -6.5 31.45 -4.85 35.2 -1.95 L35.45 -1.3 Q31.05 1.2 24.8 4.05 L24.7 4.05 Q18.4 2.25 12.25 -0.45 24.35 -5.35 32.85 -16.4 41.15 -27.3 43.25 -40.45 L46.9 -38.0 Q46.95 -28.0 44.7 -19.65 42.0 -9.55 36.3 -3.55 35.95 -3.95 35.3 -4.05 31.45 -6.8 28.05 -8.35 M57.95 -26.75 Q58.2 -21.15 57.85 -17.2 57.35 -11.85 55.6 -8.0 47.65 -4.3 41.7 -6.65 45.45 -12.7 47.3 -21.1 48.85 -28.25 48.9 -36.45 53.65 -32.6 57.95 -26.75 M54.3 -5.0 Q60.45 -7.15 66.25 -12.25 L67.55 -9.4 71.0 -0.6 Q63.15 7.5 53.25 6.65 L48.35 5.55 Q45.65 4.65 44.2 3.75 L43.45 3.55 Q40.85 0.55 38.0 -1.85 L40.65 -5.1 Q46.65 -2.3 54.3 -5.0 M60.05 -23.7 Q62.85 -19.35 65.2 -14.5 62.1 -11.7 58.55 -9.6 60.25 -15.15 60.05 -23.7 M74.45 11.25 Q72.5 13.35 70.05 14.4 67.35 15.65 65.0 15.1 66.95 10.7 67.4 5.85 L67.3 5.35 Q69.85 3.85 71.85 1.9 73.3 6.35 74.45 11.25 M70.0 16.95 Q72.7 16.15 75.1 14.0 76.0 18.25 76.4 21.95 73.25 25.05 68.5 25.0 64.35 25.0 60.1 22.65 62.4 20.25 64.15 16.85 66.95 17.8 70.0 16.95 M62.1 15.7 Q59.7 20.25 56.0 23.15 L55.1 21.3 52.0 15.55 Q53.5 13.2 55.45 9.1 L55.5 8.8 Q60.5 8.75 65.2 6.5 64.45 11.4 62.1 15.7 M53.1 8.7 L50.65 13.3 46.1 6.75 Q49.45 8.3 53.1 8.7 M52.55 34.3 Q53.2 32.3 54.85 29.0 56.45 26.75 56.75 25.6 L58.8 23.95 Q62.45 26.2 66.4 26.9 70.75 27.65 74.25 26.2 69.85 33.15 60.4 35.85 57.15 37.0 54.4 37.35 L52.25 37.3 Q51.8 37.2 52.1 35.8 L52.55 34.3 M44.55 28.7 Q39.0 35.65 35.25 39.5 29.5 45.25 24.1 48.15 20.0 44.6 16.0 39.95 23.7 37.5 30.95 32.1 37.65 27.1 42.9 20.4 L45.1 28.5 44.55 28.7 M48.75 44.2 Q45.7 50.65 34.7 55.6 30.15 53.15 26.05 49.8 31.25 46.85 36.7 41.35 40.45 37.55 45.7 31.05 L48.75 44.15 48.75 44.2 M77.0 28.85 Q77.15 34.45 76.2 38.35 73.05 39.5 70.3 39.3 66.8 39.05 65.25 36.65 73.05 33.3 76.85 26.45 L77.0 28.85 M63.6 37.25 Q65.35 40.1 68.8 41.0 71.8 41.8 75.4 41.0 73.6 45.85 69.35 49.25 67.3 50.95 64.85 51.55 61.85 52.25 60.2 50.5 57.05 47.25 61.8 37.85 L63.6 37.25 M37.85 14.25 L40.4 12.05 41.65 16.05 Q35.7 18.1 32.05 18.05 L35.05 16.15 37.85 14.25 M39.55 9.5 L39.35 9.65 37.05 11.85 34.4 13.75 Q25.55 19.8 13.25 24.7 -3.1 31.15 -22.15 31.45 L-19.8 17.65 Q-11.8 18.7 -1.8 16.3 5.05 14.7 15.45 10.6 26.9 6.1 36.35 0.9 L39.55 9.5 M8.95 10.65 Q1.0 9.55 -5.4 6.85 -13.25 3.65 -17.6 -1.45 -17.1 -9.7 -17.1 -16.3 3.15 -0.75 22.15 5.25 L16.3 7.75 8.95 10.65 M14.35 40.6 Q23.8 51.75 34.35 57.45 34.75 57.85 35.2 57.85 43.9 62.35 52.75 62.75 L54.15 69.1 48.95 68.8 Q39.7 67.85 31.65 64.95 21.6 61.4 10.2 54.45 9.1 48.65 8.3 41.6 L14.25 40.45 14.35 40.6 M7.25 49.15 L6.8 54.1 Q-1.15 40.05 -7.6 32.4 L-4.15 31.85 Q-3.05 34.95 0.05 37.55 2.65 39.7 6.3 41.25 L7.35 48.8 7.25 49.15 M6.95 39.55 Q-1.05 36.3 -2.35 31.5 6.15 29.75 13.5 27.1 21.55 24.1 29.25 19.7 33.75 21.0 41.35 18.6 34.8 27.0 26.2 32.55 16.6 38.65 6.95 39.55 M32.85 70.25 Q25.3 77.15 20.3 90.65 18.5 86.6 16.7 80.6 L17.0 80.4 Q19.95 76.8 24.1 74.15 28.2 71.5 32.85 70.25 M33.85 67.7 Q28.7 68.7 24.0 71.4 19.3 74.1 15.9 78.0 L15.5 76.7 Q14.3 72.9 13.2 68.4 17.75 64.6 23.7 63.9 L24.05 63.8 31.9 67.05 33.85 67.7 M38.25 68.95 L49.0 70.85 54.6 71.2 55.15 74.45 Q55.55 76.45 56.15 77.45 L56.6 78.0 Q51.95 77.35 46.55 79.15 41.85 80.7 37.65 83.65 33.55 86.55 30.55 91.05 27.5 95.65 26.45 100.55 23.85 97.8 21.6 93.5 L21.7 93.35 Q27.95 75.8 38.0 69.25 L38.25 68.95 M10.6 56.75 Q16.1 60.0 20.7 62.2 16.15 63.25 12.6 65.85 L10.6 56.75 M4.6 69.8 L3.25 76.95 Q0.9 68.85 -5.45 62.65 0.6 64.85 4.7 69.25 L4.6 69.8 M5.0 67.2 Q-0.65 61.65 -9.25 59.5 -17.2 57.55 -25.6 58.95 L-24.55 49.3 -12.4 49.8 Q-5.95 50.6 -1.8 52.35 4.0 54.8 6.15 59.3 L5.0 67.2 M2.25 81.25 L1.25 84.7 Q0.4 87.55 -0.8 89.45 -3.5 81.0 -10.55 74.65 -17.45 68.45 -26.35 66.25 L-25.85 61.25 Q-17.3 59.5 -9.2 61.5 L-8.85 61.85 Q-4.4 65.4 -1.5 70.3 1.5 75.45 2.1 80.85 L2.25 81.25 M37.2 87.1 Q41.8 82.9 48.15 80.95 55.35 78.7 60.6 81.05 62.75 83.15 64.05 85.3 66.4 89.2 65.2 92.95 63.3 90.55 59.5 90.35 56.15 90.15 52.85 91.6 48.55 93.5 44.4 97.8 40.95 101.35 38.0 106.25 32.35 105.6 28.3 102.3 29.1 98.1 31.55 94.0 33.85 90.15 37.2 87.1 M57.3 92.6 Q62.8 91.1 64.35 94.85 62.3 98.4 57.15 101.45 53.05 103.85 48.3 105.25 44.55 106.4 40.7 106.4 44.45 100.7 49.65 96.45 53.0 93.7 57.3 92.6 M49.5 47.55 L52.3 60.6 Q44.85 60.4 37.4 56.95 46.0 52.75 49.5 47.55 M-13.45 -46.85 Q-13.4 -37.0 -8.5 -28.65 -3.4 -19.9 5.2 -16.05 L-0.7 -13.05 Q-4.95 -11.25 -6.45 -11.0 L-6.65 -10.95 Q-12.1 -14.55 -17.15 -18.45 L-17.3 -22.85 Q-17.4 -24.55 -18.05 -26.0 L-19.65 -28.9 -22.4 -34.6 Q-23.75 -38.05 -23.4 -40.75 L-23.3 -41.1 -23.3 -41.15 Q-22.75 -42.3 -20.0 -43.85 L-16.4 -45.7 -13.45 -46.85 M-28.7 -36.5 L-25.45 -39.3 Q-25.3 -37.25 -24.0 -33.9 -22.45 -29.95 -19.45 -25.15 -19.25 -24.8 -19.2 -23.5 L-19.25 -21.6 -19.15 -14.7 -19.15 -14.55 Q-24.3 -15.6 -28.45 -20.8 -31.8 -24.95 -33.95 -30.95 L-28.7 -36.5 M-19.7 -1.5 L-19.75 -1.0 Q-22.7 1.4 -24.65 4.65 -31.7 1.65 -36.15 -5.9 -40.1 -12.7 -40.9 -21.1 -38.5 -25.2 -35.25 -29.4 -32.75 -23.15 -29.05 -18.9 -24.6 -13.7 -19.2 -12.55 -19.35 -7.35 -19.65 -2.2 -19.85 -1.9 -19.7 -1.5 M-38.85 -7.3 Q-36.1 -1.85 -32.1 1.9 -35.7 4.6 -40.75 3.75 -45.05 3.05 -49.0 0.1 -47.05 -9.4 -42.45 -18.3 -41.4 -12.45 -38.85 -7.3 M-18.05 4.1 L-17.8 0.85 Q-10.05 8.85 5.1 12.0 -9.1 16.8 -19.5 15.65 -18.4 8.7 -18.05 4.1 M-27.1 9.65 L-27.15 9.65 Q-32.0 13.75 -38.1 15.3 -44.65 16.95 -50.35 14.85 -50.55 9.6 -49.7 3.85 L-49.35 2.0 Q-44.8 5.25 -40.05 5.9 -34.5 6.7 -30.45 3.65 L-30.3 3.45 Q-28.1 5.1 -25.6 6.25 L-27.1 9.65 M-32.05 23.15 L-29.2 23.6 -28.25 25.45 Q-26.35 30.35 -26.85 33.7 -27.2 36.45 -30.3 38.0 -32.95 39.3 -36.05 39.15 -37.95 35.85 -36.35 31.15 -35.15 27.5 -32.2 23.9 -31.95 23.6 -32.05 23.15 M-29.45 21.55 Q-34.85 20.25 -39.65 22.05 -44.7 23.95 -47.25 28.65 L-48.2 26.2 Q-49.8 21.75 -50.2 16.85 -44.85 18.75 -38.9 17.75 -33.3 16.8 -28.3 13.5 -29.3 17.3 -29.45 21.55 M-22.5 33.55 L-19.45 33.5 Q-18.0 41.0 -19.15 47.05 L-24.25 47.1 -22.5 33.55 M-38.2 38.8 Q-42.7 37.55 -46.05 31.25 L-45.9 31.05 Q-44.3 27.55 -41.25 25.5 -38.35 23.55 -34.65 23.2 -37.45 27.0 -38.5 30.7 -39.8 35.25 -38.2 38.8 M-9.55 32.7 Q-5.6 37.3 -1.55 43.55 L5.4 55.2 Q-1.1 47.85 -17.0 47.1 -16.05 40.9 -17.55 33.4 L-9.55 32.7 M-50.2 73.95 Q-47.1 74.8 -44.65 77.3 -42.4 79.6 -41.25 82.75 -39.75 86.85 -41.5 90.25 -43.2 93.65 -47.3 95.0 L-49.3 93.8 Q-53.55 90.95 -55.2 86.85 -57.0 82.3 -54.6 78.1 -53.15 75.6 -50.4 73.85 L-50.2 73.95 M-43.25 70.65 L-42.9 70.55 Q-38.95 72.45 -35.05 76.4 -30.75 80.95 -29.8 87.1 -28.9 92.85 -31.1 99.0 L-32.95 98.9 Q-32.15 93.9 -34.05 89.0 -35.95 84.15 -39.9 80.85 L-40.4 80.6 Q-43.15 75.05 -48.3 72.65 L-43.25 70.65 M-27.2 68.05 Q-18.2 69.95 -11.35 76.2 -4.35 82.6 -2.15 91.35 -3.55 92.85 -5.35 93.95 -9.9 96.8 -16.25 97.95 -17.55 79.9 -28.15 72.05 -31.05 69.9 -34.7 68.7 L-27.2 68.05 M-39.15 69.85 Q-34.45 69.9 -29.3 73.35 -19.25 80.2 -18.25 98.3 L-25.35 98.95 -28.75 99.05 Q-26.95 93.1 -27.8 87.55 -28.7 81.75 -32.45 76.9 -35.6 72.75 -40.4 69.85 L-39.7 69.65 -39.15 69.85 M-39.1 83.95 Q-36.45 86.9 -35.35 90.85 -34.3 94.8 -35.1 98.7 -40.15 98.15 -44.45 96.35 -40.65 94.55 -39.3 91.05 -38.1 87.85 -39.1 83.95"/></g></defs><g><g><use transform="matrix(3.31605529785,0.0,0.0,3.31605529785,55.95,48.0)" xlink:href="#c1"/></g></g></svg>