<?xml version='1.0' encoding='UTF-8'?>
<svg xmlns:xlink="http://www.w3.org/1999/xlink" xmlns="http://www.w3.org/2000/svg" version="1.1" width="379px" height="513px" viewBox="-112.11436615 -91.5406112672 379.209466553 512.999098206"><defs><g id="c1"><path fill="#ffffff" stroke="none" d="M-22.6 97.6 L-26.0 92.25 Q-27.95 88.4 -26.85 86.35 -25.8 84.45 -22.2 84.65 -19.55 84.8 -17.05 85.8 -14.1 87.0 -11.5 89.1 -8.1 93.35 -4.6 98.7 L-2.0 102.8 -13.35 108.0 Q-18.35 103.5 -22.6 97.6 M-33.85 21.15 L-30.95 21.7 -31.15 23.4 Q-31.35 24.5 -32.05 25.85 L-33.35 27.85 -30.45 32.2 Q-28.0 36.15 -28.7 36.75 -29.75 37.65 -31.6 35.7 L-33.75 33.3 -33.95 33.3 -34.05 33.3 Q-34.15 33.65 -32.4 36.65 -30.85 39.4 -31.85 40.25 -33.3 41.45 -36.25 38.2 L-36.1 38.1 Q-35.0 37.3 -35.1 35.05 -35.1 33.75 -35.75 30.65 L-36.5 26.5 Q-34.1 25.35 -33.85 21.15 M-35.55 20.55 Q-35.55 22.85 -36.7 24.1 L-37.9 24.9 -38.75 25.2 -37.7 31.05 Q-36.7 36.1 -37.3 36.5 -37.7 36.7 -39.2 35.8 -42.4 33.9 -43.2 28.2 -43.5 25.95 -43.3 22.1 -43.3 21.35 -44.15 21.3 -45.05 21.25 -45.3 21.9 -46.05 23.6 -45.25 28.65 -44.2 35.25 -40.25 37.55 -38.1 38.8 -36.75 38.4 L-36.6 38.85 -35.45 41.05 Q-35.15 41.45 -35.25 42.1 -35.35 42.85 -35.9 43.15 -37.35 44.0 -40.5 41.55 L-41.5 40.75 -42.35 39.75 Q-44.4 37.1 -45.85 34.15 -48.0 29.7 -48.0 25.7 -48.05 20.05 -43.2 11.6 -41.55 17.6 -37.1 19.85 L-35.55 20.55 M-15.15 -29.3 L-15.0 -28.0 Q-13.95 -24.0 -7.4 -21.8 -7.2 -20.85 -8.25 -15.1 -9.45 -8.25 -9.45 -5.75 -9.35 1.05 -8.05 12.3 -7.3 18.75 -7.45 19.75 -12.45 19.6 -16.3 15.5 L-16.35 14.25 Q-16.55 10.65 -18.3 3.2 L-19.7 -2.45 -20.9 -8.05 -23.45 -12.15 Q-23.1 -8.35 -21.8 -2.95 L-19.55 6.2 Q-26.15 12.7 -30.3 19.5 -32.15 19.95 -36.45 17.8 -39.2 16.4 -40.5 12.7 -41.25 10.7 -41.45 8.35 -41.45 7.65 -40.75 6.25 L-40.55 5.85 Q-37.95 0.4 -34.2 -5.7 -28.1 -15.65 -21.0 -23.55 L-15.15 -29.3 M0.25 113.6 L0.15 113.85 -1.7 114.35 Q-3.95 114.7 -6.85 113.0 -8.6 112.05 -11.4 109.7 L-1.05 104.9 -0.9 104.8 Q2.15 110.7 0.25 113.6 M6.55 108.65 L3.0 112.1 Q3.15 109.4 1.25 105.45 0.4 103.6 -2.0 99.7 -5.2 94.45 -8.6 90.1 -3.45 91.85 1.15 97.15 4.85 101.4 7.7 107.3 L6.55 108.65 M31.5 63.2 Q35.3 66.2 38.85 71.15 41.45 74.8 44.55 80.45 L45.2 81.55 45.1 81.8 Q43.45 88.0 38.45 91.45 32.95 95.25 27.25 92.4 L22.65 86.85 Q27.7 76.05 31.5 63.2 M25.2 97.85 L27.4 94.5 Q33.35 97.25 39.1 93.8 44.35 90.65 46.6 84.35 L47.25 86.65 Q47.5 89.05 46.2 92.3 45.4 94.35 43.6 97.5 39.95 104.05 33.5 107.7 25.65 112.0 22.55 108.95 20.95 107.35 21.75 104.55 22.15 103.2 23.85 100.1 27.05 99.4 31.45 101.6 32.5 102.1 32.55 101.1 32.6 100.15 31.75 99.7 28.2 98.0 25.2 97.85 M32.3 29.15 L34.7 27.45 Q35.15 35.15 33.7 44.2 32.55 51.35 29.95 60.55 24.6 79.7 15.25 96.2 12.05 101.85 8.9 105.85 5.7 99.55 1.55 95.05 -3.5 89.6 -9.15 87.9 -6.85 84.35 -5.05 77.8 -3.2 70.95 -1.95 60.9 -0.45 49.15 -0.15 38.6 -0.1 37.8 -1.1 37.2 -2.1 36.65 -2.15 37.6 -2.4 45.45 -3.2 53.25 -8.5 47.95 -11.9 41.45 -15.65 34.45 -16.4 27.55 -13.35 29.9 -8.85 31.95 0.5 36.25 12.05 35.5 23.6 34.7 32.3 29.15 M45.55 36.45 Q46.6 35.4 47.55 33.4 L55.35 33.1 Q60.7 31.55 63.4 25.05 64.6 27.7 64.9 30.05 65.75 37.05 64.25 42.6 63.55 45.3 61.7 45.3 L62.25 41.65 Q62.85 37.8 62.05 37.05 61.75 36.75 60.75 42.9 59.25 49.5 56.55 50.45 L55.95 50.55 55.75 50.45 56.65 44.9 Q57.45 39.4 56.35 39.1 56.2 39.05 55.3 44.1 L53.75 51.0 Q51.8 56.3 50.35 55.8 49.35 55.5 49.95 49.7 L50.05 48.8 50.7 39.35 50.6 38.85 Q50.5 38.65 48.6 39.55 L45.15 41.1 41.75 41.5 Q40.25 41.3 40.65 40.25 L41.05 39.75 41.9 39.2 45.55 36.45 M24.2 -32.75 Q23.8 -30.25 23.05 -29.15 21.05 -26.2 17.35 -24.1 13.7 -22.0 10.05 -21.65 6.2 -21.15 6.0 -7.65 5.9 -0.3 6.85 9.55 7.75 18.05 8.8 21.2 9.5 23.2 10.45 23.2 L10.65 23.15 Q24.85 22.05 33.8 16.35 33.8 19.8 34.25 22.45 L34.4 23.75 Q34.35 24.2 33.75 24.85 32.45 26.2 30.0 27.75 25.65 30.5 18.55 32.05 5.3 35.1 -5.95 31.15 -12.1 29.0 -16.55 25.25 L-16.25 18.3 Q-12.1 21.75 -7.1 21.75 -6.35 21.75 -6.0 21.3 -5.4 20.65 -5.45 18.65 L-6.05 12.05 Q-7.35 0.95 -7.45 -5.75 -7.45 -8.55 -6.25 -14.75 -5.4 -19.6 -5.35 -21.0 -5.3 -23.05 -6.3 -23.55 L-6.45 -23.6 Q-12.3 -25.55 -13.05 -28.5 -13.45 -29.85 -12.7 -31.4 L-9.25 -34.05 Q-7.6 -33.1 -5.0 -32.15 -3.65 -29.45 -0.95 -28.05 1.55 -26.75 4.8 -26.75 10.55 -26.75 15.55 -30.25 20.85 -33.95 21.6 -39.25 L24.3 -37.3 Q24.6 -35.25 24.2 -32.75 M24.7 -28.0 Q27.3 -31.75 26.7 -35.45 31.65 -31.55 34.85 -28.35 43.1 -20.2 47.75 -12.5 53.25 -3.4 57.35 7.55 59.9 14.25 61.4 20.05 L61.5 20.45 Q61.95 22.1 61.8 22.65 61.25 24.8 60.1 26.75 58.05 30.15 55.1 31.0 L50.45 31.8 48.75 31.5 45.8 24.9 Q41.4 16.75 30.75 6.55 23.45 -0.45 20.05 -2.7 L19.15 -1.85 Q30.6 7.8 34.05 12.4 L33.95 13.85 Q31.1 15.9 26.95 17.55 19.75 20.4 10.9 21.15 9.3 18.0 8.35 2.9 7.35 -13.25 9.35 -18.35 9.8 -19.5 10.25 -19.65 14.35 -20.0 18.35 -22.35 22.4 -24.65 24.7 -28.0"/></g></defs><g><g><use transform="matrix(3.33224487305,0.0,0.0,3.33224487305,48.0,39.25)" xlink:href="#c1"/></g></g></svg>