<?xml version='1.0' encoding='UTF-8'?>
<svg xmlns:xlink="http://www.w3.org/1999/xlink" xmlns="http://www.w3.org/2000/svg" version="1.1" width="414px" height="513px" viewBox="-102.772705078 -98.783454132 414.467884064 513.25541687"><defs><g id="c1"><path fill="#ffffff" stroke="none" d="M33.3 -44.7 Q40.9 -41.7 45.65 -28.2 47.8 -22.1 48.5 -15.35 49.2 -8.7 48.45 -2.25 47.35 6.85 40.15 15.05 36.35 19.45 30.9 22.95 L29.95 23.55 29.85 23.6 Q26.7 23.15 23.55 21.85 20.8 20.75 19.1 18.75 17.55 16.95 16.5 13.85 15.75 11.65 15.5 8.95 L15.5 8.3 Q19.85 6.85 22.65 2.9 25.1 -0.7 24.55 -6.4 24.15 -10.05 22.25 -15.95 L20.95 -19.0 Q19.85 -20.9 18.5 -20.95 17.6 -21.0 18.0 -19.9 L13.2 -21.3 Q12.1 -21.65 10.65 -22.3 L8.25 -23.5 7.35 -27.25 Q13.2 -28.0 17.2 -31.75 21.45 -35.65 21.95 -41.35 L21.85 -41.9 Q23.45 -44.8 26.95 -45.4 30.0 -45.95 33.3 -44.7 M5.25 -28.2 L6.15 -24.25 Q4.4 -24.5 2.8 -21.9 L1.6 -20.55 0.25 -19.25 Q-3.35 -15.25 -1.95 -9.95 -0.55 -4.65 4.4 -3.05 L2.3 4.65 Q-0.75 -1.2 -2.1 -9.2 -3.1 -15.25 -3.3 -23.85 L-3.2 -26.95 -3.2 -30.05 Q-3.25 -30.6 -4.0 -31.3 L-5.1 -32.25 Q-6.95 -34.2 -6.8 -37.1 -6.75 -38.5 -5.85 -40.0 L-5.3 -39.7 Q-4.3 -36.8 -1.8 -35.1 0.45 -33.5 3.7 -33.05 7.65 -32.5 11.8 -33.85 16.0 -35.15 18.8 -37.95 17.15 -34.3 13.6 -31.95 10.15 -29.7 5.85 -29.3 5.05 -29.25 5.25 -28.2 M19.8 -17.4 L20.15 -16.4 Q22.75 -9.65 22.55 -4.4 19.5 -4.7 16.45 -5.65 13.2 -6.7 10.95 -8.3 9.6 -9.25 9.55 -12.75 9.55 -17.1 9.35 -17.7 8.35 -20.8 5.3 -21.45 L5.4 -21.5 Q6.15 -22.45 7.85 -21.7 L9.0 -20.9 10.1 -20.35 Q11.95 -19.45 14.85 -18.65 L19.8 -17.4 M3.85 -19.25 Q7.2 -20.25 7.7 -15.7 L7.9 -11.8 Q8.05 -9.6 8.55 -8.7 9.45 -7.1 11.3 -6.05 L14.85 -4.45 Q19.1 -2.8 22.35 -2.4 22.05 -0.9 21.35 0.5 L21.1 0.4 12.85 -2.25 Q12.45 -3.3 11.5 -4.3 L9.65 -5.75 7.35 -6.0 Q6.2 -5.7 5.2 -4.85 0.3 -5.95 -0.1 -11.0 -0.5 -15.9 3.35 -18.9 L3.7 -19.25 3.85 -19.25 M9.9 -3.5 Q11.35 -2.9 11.1 -2.05 L9.75 2.2 Q6.55 12.3 4.25 20.75 0.7 33.55 0.75 42.25 0.75 46.6 2.25 51.85 L3.45 56.5 Q3.85 58.9 3.3 61.25 3.1 62.05 4.1 62.6 5.1 63.2 5.3 62.25 5.95 59.25 5.35 56.15 L5.65 56.05 Q9.05 53.5 11.05 51.4 13.85 48.55 15.15 45.65 17.05 41.5 17.95 35.4 19.95 36.1 21.95 35.9 L22.15 35.85 Q21.0 41.4 19.75 44.9 17.95 49.75 15.2 52.95 L9.5 59.3 Q6.3 63.05 5.1 66.5 3.4 71.45 -2.55 90.45 L-6.45 103.05 -6.55 103.3 -10.15 114.95 Q-10.45 115.05 -10.35 115.65 L-10.85 117.15 -12.5 117.45 -14.4 117.4 -16.15 116.35 -16.35 116.15 Q-14.15 108.25 -10.8 98.2 -7.45 88.3 -4.45 77.6 L-1.9 68.85 Q-0.55 63.7 -0.05 59.9 0.1 58.3 -0.85 55.8 -2.65 50.75 -3.15 48.2 -4.25 42.2 -2.9 34.35 -2.4 31.4 0.3 20.8 L6.65 -2.95 7.65 -3.65 9.9 -3.5 M58.75 46.15 L58.85 49.05 Q58.85 51.05 59.2 52.1 58.05 55.15 50.15 58.7 38.45 64.0 31.95 61.15 29.8 53.85 26.45 49.5 L26.05 49.0 24.5 47.2 Q23.7 46.4 23.05 46.95 22.4 47.5 23.2 48.3 L24.4 49.6 Q22.3 54.1 21.5 58.75 16.75 60.0 11.7 60.3 L12.7 59.2 17.6 53.75 Q20.05 50.55 21.15 47.4 23.25 41.6 24.5 35.05 26.85 33.7 28.3 30.4 45.85 26.9 54.3 20.05 L55.1 23.85 Q57.55 35.55 58.75 46.15 M53.8 17.6 L53.3 17.75 Q45.4 24.5 29.2 27.9 L29.85 25.65 30.3 25.7 Q31.25 25.85 32.9 24.7 L35.2 22.9 Q41.0 18.6 45.2 12.4 48.45 7.65 49.85 1.6 L53.8 17.6 M13.5 8.8 L13.4 8.8 Q11.55 8.5 9.9 9.2 L12.85 -0.25 20.25 2.1 Q17.75 5.4 13.85 6.4 13.45 6.5 13.45 6.9 L13.5 8.8 M13.75 10.85 Q14.8 17.4 18.45 20.7 21.85 23.8 27.7 25.2 L26.65 28.55 Q26.5 28.65 26.5 28.9 24.45 33.4 20.9 33.8 L17.9 33.35 17.7 33.3 19.8 30.0 Q20.15 29.25 19.25 28.5 L17.95 28.55 Q16.7 31.05 15.45 32.3 13.6 34.1 11.45 33.65 L9.85 32.9 Q12.3 31.45 13.8 28.6 14.2 27.85 13.3 27.1 L11.95 27.15 Q10.65 29.6 8.5 30.9 6.15 32.4 3.8 31.65 L4.55 28.15 4.65 28.05 Q7.5 25.8 8.7 24.15 10.65 21.5 10.0 18.9 9.65 17.25 7.85 16.0 L7.85 15.95 8.45 13.95 8.9 13.55 Q9.4 12.1 10.75 11.35 12.05 10.6 13.6 10.85 L13.75 10.85 M1.7 6.95 L0.05 13.3 Q-3.05 7.7 -5.4 0.25 -7.1 -5.05 -9.05 -13.4 -11.2 -22.5 -12.45 -31.25 -12.55 -32.1 -13.6 -32.45 -14.6 -32.8 -14.45 -31.75 L-13.5 -25.8 -17.7 -27.0 Q-17.8 -32.4 -16.7 -36.55 -15.25 -42.2 -11.85 -44.35 L-8.75 -41.8 -8.05 -40.85 Q-9.45 -38.2 -8.45 -35.15 -7.6 -32.45 -5.25 -30.1 -6.5 -7.05 1.4 6.55 L1.7 6.95 M5.6 23.95 L7.35 17.75 Q9.8 19.55 5.6 23.95 M15.85 35.0 Q15.0 39.9 13.55 43.55 11.7 48.4 4.75 53.7 L4.7 53.5 Q2.55 46.35 2.8 40.45 2.85 37.1 3.5 33.5 L8.05 33.65 Q9.8 35.3 11.95 35.75 14.0 36.15 15.85 35.0 M30.15 69.65 Q34.65 73.2 40.4 75.8 36.55 77.5 33.3 82.15 31.6 77.05 30.7 72.55 L30.15 69.65 M24.4 72.25 Q24.95 77.3 24.95 81.9 12.6 85.55 2.1 83.0 L4.25 76.25 Q14.95 76.55 21.65 73.75 23.35 73.0 24.4 72.25 M20.45 71.7 Q17.6 72.95 13.9 73.6 L13.65 73.4 Q10.0 71.0 8.45 68.8 L7.7 67.4 7.6 67.1 7.45 66.7 Q8.6 64.3 9.95 62.5 16.1 62.5 22.6 60.85 L24.05 69.4 Q22.9 70.65 20.45 71.7 M30.0 67.25 Q30.0 64.05 31.55 63.0 35.4 64.75 40.95 63.9 L41.05 63.95 Q57.75 72.85 71.45 75.4 L72.95 81.8 73.4 84.65 Q68.3 82.0 61.1 79.95 58.45 79.15 48.3 76.7 43.45 75.55 38.65 73.05 33.9 70.6 30.0 67.25 M6.55 69.2 Q7.85 71.4 11.35 73.9 L4.9 74.15 6.55 69.2 M13.4 92.2 Q20.25 96.15 21.8 102.05 L21.3 103.05 Q20.35 104.85 18.4 106.3 L14.65 108.55 Q11.5 110.25 8.6 111.35 7.15 99.75 -1.35 94.1 L0.75 87.4 Q8.65 89.45 13.4 92.2 M16.85 85.85 L16.95 85.95 Q19.55 87.4 21.3 89.35 23.4 91.7 23.75 94.25 L23.95 94.7 23.95 95.0 22.8 99.55 Q18.4 90.1 1.3 85.55 L1.55 84.9 Q8.7 86.8 16.85 85.85 M39.85 98.15 Q42.4 89.9 54.45 83.55 50.85 88.75 48.55 94.95 46.3 101.05 45.6 107.35 42.35 103.45 39.75 98.35 L39.85 98.15 M24.5 90.95 Q22.8 87.9 19.5 85.5 L24.95 84.3 24.5 90.95 M34.5 85.65 L34.3 85.0 Q38.05 78.65 43.25 77.25 L43.45 77.15 45.7 77.95 55.05 80.6 Q42.1 86.9 38.4 95.55 36.9 92.2 34.5 85.65 M70.9 73.3 Q63.2 71.75 55.3 68.6 L60.55 64.8 65.35 60.45 Q68.65 65.8 70.9 73.3 M50.45 61.1 Q58.5 58.0 60.7 54.2 L64.0 58.45 58.7 63.25 Q55.6 65.85 52.9 67.25 L52.65 67.5 Q49.3 66.15 43.75 63.35 46.6 62.65 50.45 61.1 M59.0 81.6 Q63.95 82.85 67.05 83.95 71.4 85.5 74.8 87.45 L75.5 87.55 77.6 89.8 Q72.6 89.85 67.1 92.65 62.25 95.05 58.25 98.9 55.5 101.55 53.5 104.95 51.35 108.6 50.7 112.2 L47.5 109.4 Q48.15 101.85 51.1 94.65 54.15 87.15 59.0 81.6 M79.4 91.95 Q83.9 97.85 83.95 102.95 L83.15 102.25 Q81.8 101.35 79.45 101.8 L75.75 102.9 Q63.7 106.1 61.7 116.65 56.8 116.05 52.65 113.55 53.7 107.2 59.2 101.35 63.05 97.25 68.35 94.6 74.2 91.65 79.4 91.95 M73.95 105.85 L79.5 104.25 82.15 104.1 Q83.25 104.45 83.55 105.9 82.75 108.55 80.45 110.8 77.2 113.9 72.75 115.45 68.5 116.95 63.9 116.8 65.75 108.95 73.95 105.85 M4.4 112.8 Q3.25 107.25 -3.9 102.45 L-3.95 102.4 -1.9 95.8 Q5.6 100.85 6.7 111.8 L6.75 112.0 4.4 112.8 M2.6 113.3 L-5.05 114.65 Q-3.2 112.35 -2.9 109.7 -2.65 106.9 -4.15 104.4 2.0 108.7 2.6 113.25 L2.6 113.3 M-23.35 -26.7 Q-21.45 -25.8 -18.35 -25.0 L-13.2 -23.75 -13.1 -23.7 -11.1 -14.05 -10.4 -10.9 Q-13.4 -11.05 -16.6 -12.0 -20.0 -13.05 -22.3 -14.65 -23.7 -15.6 -23.75 -19.05 -23.85 -23.4 -24.05 -24.0 -25.15 -27.2 -28.1 -27.75 -27.3 -28.7 -25.75 -28.05 L-23.35 -26.7 M-29.7 -25.5 L-29.55 -25.5 Q-26.2 -26.5 -25.7 -22.0 L-25.4 -18.1 Q-25.25 -15.9 -24.7 -15.0 -23.75 -13.45 -21.95 -12.4 -20.95 -11.8 -18.4 -10.85 -13.7 -9.05 -9.85 -8.8 L-8.85 -4.95 -20.3 -8.6 Q-20.7 -9.6 -21.75 -10.7 -22.7 -11.65 -23.55 -12.1 L-25.9 -12.3 Q-27.05 -12.0 -28.05 -11.15 -32.95 -12.15 -33.45 -17.2 -33.9 -22.05 -30.05 -25.15 L-29.7 -25.5 M-26.55 -9.2 L-25.6 -9.95 -23.3 -9.9 Q-21.85 -9.3 -22.15 -8.2 L-23.55 -3.65 -28.85 15.2 Q-32.0 27.9 -31.85 36.0 -31.8 40.6 -30.25 45.6 L-28.95 50.25 Q-28.55 52.65 -29.05 55.0 -29.2 55.8 -28.25 56.35 -27.25 56.95 -27.05 56.0 -26.35 52.65 -27.2 49.25 -23.8 47.85 -20.1 42.95 -16.8 38.7 -15.25 33.25 L-15.25 33.15 Q-12.4 33.5 -10.4 30.75 -8.35 28.0 -9.4 25.2 -6.7 23.55 -6.45 20.7 -6.3 18.2 -8.05 15.55 L-5.2 6.2 -2.85 11.5 Q-3.65 11.2 -3.85 12.0 L-7.65 25.55 Q-10.0 32.95 -12.65 38.7 -14.3 42.3 -18.5 47.3 -23.6 53.3 -25.0 55.45 -26.2 57.3 -27.2 60.15 L-28.75 65.1 -37.2 93.35 -42.35 110.7 -42.5 111.05 Q-42.65 110.9 -42.95 111.05 -44.15 111.65 -45.5 111.45 -46.85 111.25 -47.8 110.35 L-48.0 110.2 -46.0 102.95 -42.9 92.85 -39.75 82.75 Q-36.9 73.1 -34.7 64.2 L-33.2 58.55 Q-32.35 55.15 -32.4 52.75 -32.45 51.0 -33.6 48.1 L-35.35 43.55 Q-37.35 35.95 -34.85 24.3 -32.95 15.5 -27.55 -5.5 L-26.55 -9.2 M-8.25 -2.8 L-5.9 4.35 Q-6.85 3.95 -7.1 4.8 L-9.75 13.45 -11.5 12.0 Q-16.65 8.6 -24.75 8.4 L-20.35 -6.6 -8.25 -2.8 M-14.8 12.95 Q-15.65 13.15 -15.1 14.15 -14.35 15.45 -15.8 16.8 -16.9 17.8 -18.6 18.4 -19.4 18.7 -18.85 19.6 -18.35 20.5 -17.65 20.5 L-15.0 20.85 Q-14.35 21.05 -14.25 21.4 L-14.45 22.35 Q-15.35 24.4 -17.45 24.65 -19.6 24.95 -21.4 23.7 -23.2 22.4 -23.6 20.3 -24.15 17.65 -23.0 14.6 -22.7 13.85 -23.6 13.1 L-24.85 13.15 Q-26.05 16.25 -25.6 19.55 L-25.65 19.6 Q-26.45 20.2 -27.8 20.0 L-25.3 10.45 -25.25 10.5 Q-20.4 10.45 -15.6 12.05 -11.4 13.45 -9.15 17.1 -6.65 21.3 -11.25 23.6 -12.1 24.0 -11.3 25.15 -10.3 26.55 -11.8 28.8 -13.35 31.05 -15.3 31.1 -13.7 28.9 -13.6 25.45 L-13.6 25.4 Q-12.5 24.3 -12.3 22.8 -12.05 21.15 -13.05 20.05 -13.7 19.35 -14.7 18.95 -11.8 16.6 -13.45 13.6 -13.95 12.7 -14.8 12.95 M-24.65 22.65 Q-23.85 24.3 -22.05 25.4 -23.25 26.85 -24.5 27.45 -26.1 28.25 -27.95 26.8 L-28.6 25.85 -28.9 25.25 -28.25 21.95 Q-26.55 22.45 -25.0 21.9 L-24.65 22.65 M-23.35 29.45 Q-21.35 28.6 -19.85 26.35 L-15.9 26.65 Q-16.35 28.6 -17.3 29.7 -18.8 31.6 -22.2 30.3 -23.1 29.9 -23.35 29.45 M-3.3 54.3 L-2.85 55.5 Q-2.35 56.8 -2.25 58.4 L-4.5 57.45 -3.3 54.3 M-2.35 60.35 Q-2.5 61.8 -3.15 64.3 L-5.3 72.5 Q-7.75 71.5 -8.85 69.95 L-9.35 68.9 -9.5 68.25 Q-8.9 62.0 -5.4 58.95 L-2.35 60.35 M-8.85 77.8 L-8.9 77.75 Q-9.5 74.5 -9.55 71.75 -8.2 73.15 -5.75 74.25 L-7.15 79.05 -8.85 77.8 M-7.95 81.95 L-8.35 80.3 -7.65 80.8 -7.95 81.95 M-13.05 97.85 Q-16.75 96.45 -20.2 96.1 L-16.15 92.15 -15.75 92.25 -11.25 92.5 -13.05 97.85 M-13.75 90.2 L-9.55 87.1 -10.65 90.6 -13.75 90.2 M-5.2 110.25 Q-5.85 112.2 -7.5 113.85 L-5.15 106.25 Q-4.5 108.15 -5.2 110.25 M-17.15 111.05 L-17.95 113.2 -18.0 113.15 Q-21.35 111.6 -23.0 110.05 -25.35 107.8 -25.2 104.9 -25.0 101.85 -21.95 98.1 -17.7 98.1 -13.6 99.65 L-14.1 101.05 -17.15 111.05"/></g></defs><g><g><use transform="matrix(3.14109802246,0.0,0.0,3.14109802246,48.0,45.55)" xlink:href="#c1"/></g></g></svg>