<?xml version='1.0' encoding='UTF-8'?>
<svg xmlns:xlink="http://www.w3.org/1999/xlink" xmlns="http://www.w3.org/2000/svg" version="1.1" width="367px" height="513px" viewBox="-101.320114136 -50.0640563966 366.995091248 512.845606995"><defs><g id="c1"><path fill="#ffffff" stroke="none" d="M14.15 -11.8 Q10.25 -6.95 3.45 -0.25 L-7.6 10.2 Q-9.65 6.0 -12.4 4.1 -8.1 -4.8 -3.15 -13.85 -0.15 -10.85 4.9 -10.85 8.0 -10.85 11.2 -12.0 14.4 -13.2 16.9 -15.3 L14.15 -11.8 M19.8 -15.4 Q21.5 -18.1 22.05 -20.5 L22.0 -21.0 25.05 -19.8 Q24.1 -14.0 19.2 -7.25 16.65 -3.7 10.15 3.35 3.35 10.8 -3.45 16.6 -5.85 15.05 -8.15 13.9 -1.3 7.9 5.95 0.65 12.2 -5.6 16.45 -10.9 L19.8 -15.4 M35.0 -12.45 Q42.15 -6.0 47.85 3.4 53.35 12.5 57.45 23.45 60.0 30.15 61.5 35.95 L61.65 36.35 Q62.05 37.9 61.9 38.55 61.35 40.75 60.2 42.65 58.2 46.05 55.25 46.9 50.5 48.2 48.85 47.4 L45.9 40.8 Q42.45 34.15 38.15 28.65 33.55 22.85 25.4 16.75 L18.1 11.75 17.8 13.7 23.45 18.05 Q29.95 23.4 34.3 28.4 L34.2 28.7 34.15 29.65 Q31.5 31.65 27.25 33.35 20.0 36.3 11.0 37.05 9.85 35.2 8.8 26.6 7.65 17.0 8.15 8.9 L12.2 4.65 Q18.4 -2.1 21.15 -5.9 25.9 -12.6 27.0 -18.4 31.25 -15.75 35.0 -12.45 M65.0 45.95 Q65.95 52.9 64.4 58.5 63.65 61.2 61.85 61.2 L62.35 57.55 Q62.95 53.7 62.15 52.95 61.85 52.65 60.85 58.8 59.4 65.4 56.65 66.35 L56.1 66.45 55.9 66.35 56.8 60.8 Q57.55 55.3 56.45 54.95 56.3 54.95 55.4 60.0 L53.9 66.9 Q51.95 72.2 50.45 71.7 49.45 71.4 50.05 65.6 L50.15 64.65 50.6 58.8 50.8 55.25 50.7 54.75 Q50.6 54.55 48.7 55.45 L45.25 57.0 41.85 57.4 Q40.35 57.15 40.8 56.15 L41.2 55.65 42.05 55.1 Q44.05 53.95 45.65 52.35 46.85 51.15 47.65 49.3 L55.5 49.0 Q60.85 47.45 63.55 40.95 64.7 43.75 65.0 45.95 M4.7 23.75 Q2.45 20.9 -1.4 18.0 L6.05 11.05 Q5.85 18.65 6.85 27.15 L5.15 24.3 4.7 23.75 M10.8 39.05 Q24.8 38.0 34.05 32.2 33.95 36.3 34.55 39.5 34.7 40.3 33.15 41.6 L30.85 43.2 Q28.05 45.1 23.2 46.75 15.35 49.35 7.3 49.25 -1.15 49.1 -8.35 45.95 L-4.6 45.3 Q-4.1 45.45 -3.85 45.1 7.05 42.2 8.2 34.9 9.0 37.95 9.7 38.65 10.1 39.05 10.7 39.05 L10.8 39.05 M6.35 31.85 Q6.75 36.4 3.3 39.35 0.4 41.85 -4.9 43.05 -8.7 40.6 -10.15 36.7 -11.7 32.65 -10.0 28.55 L-9.4 27.95 Q-6.7 25.4 -3.25 24.4 0.75 23.2 3.6 25.1 6.0 28.3 6.35 31.85 M34.8 43.15 Q35.3 50.9 33.85 60.0 32.7 67.2 30.1 76.45 24.6 95.9 15.4 112.1 12.3 117.55 9.0 121.75 5.85 115.5 1.65 110.95 -3.4 105.5 -9.0 103.8 -6.75 100.4 -4.95 93.7 -3.2 87.55 -1.8 76.8 -0.35 65.7 0.0 54.5 0.0 53.7 -1.0 53.1 -1.95 52.55 -2.0 53.5 -2.2 60.25 -3.05 69.15 -12.2 59.9 -15.5 46.35 L-11.9 46.3 -11.1 46.25 -10.45 47.0 Q-2.75 50.85 6.3 51.25 14.65 51.65 23.5 49.1 30.4 47.05 34.8 43.15 M38.95 87.05 Q41.65 90.75 44.65 96.35 L45.3 97.45 45.2 97.7 Q43.55 103.9 38.55 107.35 33.05 111.15 27.35 108.3 L22.75 102.75 Q28.0 91.5 31.6 79.1 35.4 82.1 38.95 87.05 M46.3 108.2 Q45.6 110.05 43.75 113.4 40.1 120.0 33.6 123.6 25.75 127.85 22.7 124.85 21.05 123.25 21.85 120.45 22.3 119.0 24.0 116.0 27.2 115.3 31.6 117.5 32.6 118.0 32.65 117.0 32.75 116.05 31.9 115.6 28.3 113.9 25.3 113.75 L27.5 110.4 Q33.45 113.15 39.2 109.7 44.45 106.55 46.7 100.25 47.2 101.3 47.35 102.55 47.6 104.9 46.3 108.2 M7.8 123.2 L6.65 124.55 3.1 128.0 Q3.25 125.25 1.35 121.3 L-1.85 115.6 Q-4.9 110.6 -8.5 106.0 -3.35 107.75 1.25 113.05 4.95 117.3 7.8 123.2 M0.25 129.75 L-1.55 130.25 Q-3.85 130.55 -6.75 128.9 L-11.3 125.6 -0.75 120.7 Q2.3 126.6 0.35 129.5 L0.25 129.75 M-21.75 -0.3 L-21.35 0.0 -22.65 2.35 -24.5 5.8 Q-27.25 4.05 -33.1 4.35 L-29.65 0.15 Q-27.7 -2.0 -23.4 -1.1 L-21.75 -0.3 M-11.6 -19.75 Q-10.65 -19.0 -9.3 -18.25 -14.95 -11.1 -20.5 -1.5 L-22.3 -2.65 Q-21.4 -8.35 -19.05 -12.7 -16.15 -18.0 -11.6 -19.75 M-4.9 -16.25 L-4.7 -15.9 Q-11.95 -2.55 -17.05 8.5 -21.7 18.6 -23.1 24.25 -24.55 30.0 -24.6 34.2 -24.65 40.0 -22.15 43.7 -26.8 43.05 -30.8 41.5 -32.3 32.7 -28.9 21.95 -26.45 14.25 -20.8 3.8 -14.65 -7.7 -7.15 -17.2 L-4.9 -16.25 M-13.15 5.7 Q-10.9 7.2 -8.95 11.35 L-10.25 12.55 -10.7 12.7 Q-12.85 11.5 -15.7 11.0 L-13.15 5.7 M-19.15 20.25 Q-15.35 17.15 -10.05 14.95 -3.35 18.15 0.75 22.0 -2.95 21.25 -6.9 23.25 -10.65 25.15 -13.5 28.8 -16.35 32.45 -17.2 36.45 -18.15 40.8 -16.4 44.2 L-16.95 44.15 -17.5 44.15 -19.8 44.0 Q-22.95 40.5 -22.65 34.0 -22.45 29.7 -20.6 23.4 L-19.6 20.4 -19.15 20.25 M-12.95 13.7 Q-15.8 14.95 -18.1 16.55 L-16.55 12.95 -16.45 13.0 Q-14.75 13.1 -12.95 13.7 M-25.3 7.4 L-27.8 12.7 -28.35 12.65 Q-32.35 13.95 -35.95 16.6 -39.45 19.25 -41.95 22.75 -40.25 14.85 -34.65 6.55 L-34.2 6.6 -29.75 6.4 Q-26.85 6.5 -25.3 7.4 M-28.9 15.35 Q-30.85 20.2 -32.0 24.85 L-32.5 24.95 Q-35.5 26.8 -37.5 29.3 -39.8 32.1 -40.3 35.2 -42.35 32.25 -42.5 28.45 -40.55 24.1 -36.95 20.65 -33.35 17.15 -28.9 15.35 M-35.85 39.15 L-38.4 37.3 Q-38.35 32.2 -32.6 27.9 -33.8 34.8 -32.85 40.65 -34.4 40.0 -35.85 39.15 M-15.35 38.45 Q-14.85 35.5 -12.9 32.4 -12.85 35.55 -11.3 38.5 -9.8 41.3 -7.15 43.5 L-14.45 44.15 Q-16.0 41.85 -15.35 38.45 M-11.4 105.0 Q-7.85 109.3 -4.5 114.6 L-1.85 118.7 -13.25 123.9 Q-18.3 119.35 -22.45 113.5 L-25.9 108.15 Q-27.85 104.3 -26.7 102.25 -25.65 100.35 -22.05 100.55 -19.45 100.7 -16.95 101.7 -14.0 102.9 -11.4 105.0"/></g></defs><g><g><use transform="matrix(3.38400268555,0.0,0.0,3.38400268555,42.5,21.0)" xlink:href="#c1"/></g></g></svg>