<?xml version='1.0' encoding='UTF-8'?>
<svg xmlns:xlink="http://www.w3.org/1999/xlink" xmlns="http://www.w3.org/2000/svg" version="1.1" width="357px" height="513px" viewBox="-99.473144531 -93.9073852537 356.71442871 512.503308105"><defs><g id="c1"><path fill="#ffffff" stroke="none" d="M34.5 -36.45 Q38.35 -34.6 42.9 -29.55 47.15 -24.85 50.25 -19.25 44.35 -19.65 39.45 -18.05 33.5 -16.1 31.0 -11.8 30.15 -15.55 29.55 -24.8 29.0 -33.25 27.65 -37.7 L27.8 -39.2 Q29.8 -38.65 34.5 -36.45 M25.55 -38.25 Q24.4 -32.05 18.3 -23.55 13.5 -16.8 5.55 -9.05 L3.45 -14.25 Q11.1 -21.65 16.05 -27.6 L19.95 -32.65 Q21.95 -35.7 22.6 -38.45 L22.6 -38.55 22.95 -39.5 23.4 -39.5 25.05 -39.65 25.55 -38.25 M-6.35 -35.45 Q-5.15 -34.85 -3.8 -34.4 -11.3 -20.75 -16.5 -9.4 -21.1 0.7 -22.55 6.35 -24.0 12.15 -24.0 16.3 -24.1 22.05 -21.6 25.75 L-24.25 25.3 Q-27.8 24.55 -30.2 23.65 -31.7 14.85 -28.35 4.05 -25.9 -3.75 -20.25 -14.15 -13.65 -26.25 -6.4 -35.35 L-6.35 -35.45 M-8.45 -36.6 Q-14.35 -29.1 -19.95 -19.45 L-21.75 -20.6 Q-20.8 -26.55 -18.3 -30.95 -15.2 -36.4 -10.35 -37.9 L-8.45 -36.6 M-1.0 -31.3 Q2.0 -28.75 6.55 -28.75 11.55 -28.75 16.3 -31.6 L13.25 -27.95 Q8.7 -22.65 2.6 -16.8 0.3 -23.8 -1.0 -31.3 M-2.9 -31.2 Q-0.55 -18.2 4.35 -7.5 4.35 -7.05 4.8 -6.5 7.85 -0.2 11.6 4.95 9.3 6.35 6.85 8.3 L5.8 6.75 Q5.7 6.15 5.25 5.8 L4.85 5.55 2.2 2.75 Q-0.65 -3.1 -2.4 -9.0 -2.35 -9.25 -2.65 -9.85 -5.05 -18.05 -5.55 -26.3 L-2.9 -31.2 M-23.95 -12.15 Q-26.65 -13.9 -32.35 -13.6 L-29.7 -17.1 Q-27.35 -19.85 -22.85 -19.05 L-21.2 -18.25 -20.8 -17.95 -23.95 -12.15 M-7.2 -23.1 Q-6.45 -16.25 -4.6 -9.95 L-7.05 -7.75 Q-9.1 -11.95 -11.85 -13.85 L-7.2 -23.1 M-10.1 -5.25 Q-12.4 -6.5 -15.1 -6.9 L-12.6 -12.25 Q-10.2 -10.6 -8.4 -6.55 L-9.7 -5.4 -10.1 -5.25 M-15.9 -4.95 Q-14.2 -4.9 -12.4 -4.25 -15.6 -2.7 -17.55 -1.4 L-16.0 -5.0 -15.9 -4.95 M-18.6 2.35 Q-15.05 -0.6 -9.5 -2.95 -3.45 -0.15 0.75 3.65 L0.85 3.95 Q-6.0 2.9 -12.1 9.85 -18.2 16.8 -16.8 23.7 L-16.5 26.3 -19.2 26.05 Q-22.4 22.55 -22.1 16.1 -21.9 11.75 -20.0 5.5 L-19.05 2.5 -18.6 2.35 M-8.85 10.05 Q-6.65 7.95 -3.8 6.8 -0.55 5.55 2.1 6.25 L4.55 10.3 Q-0.2 14.75 -0.2 19.2 -0.15 21.2 0.85 23.1 -1.8 24.45 -4.35 25.1 -8.15 22.7 -9.6 18.8 -11.15 14.7 -9.4 10.6 L-8.85 10.05 M-3.0 -1.35 Q-5.15 -2.8 -7.6 -4.05 L-3.85 -7.4 -2.0 -2.4 -3.0 -1.35 M8.65 9.9 Q13.85 5.75 22.85 1.6 23.2 4.3 23.9 7.2 25.7 15.25 25.9 17.55 26.4 23.8 23.6 27.5 22.65 21.85 19.25 17.75 15.6 13.35 10.25 12.3 L8.65 9.9 M8.55 12.8 Q8.55 13.6 9.15 13.95 10.5 17.05 10.5 20.65 10.45 24.15 9.1 27.4 L9.1 27.85 Q5.8 26.45 3.85 24.4 1.5 21.9 1.9 18.95 2.4 15.3 7.35 11.0 L8.55 12.8 M6.6 -6.7 Q14.7 -14.65 20.15 -22.1 L22.35 -25.2 22.1 -13.0 Q22.05 -5.95 22.6 -0.9 16.85 1.75 13.0 4.05 9.6 -0.5 6.6 -6.7 M-33.6 -11.3 Q-27.2 -11.95 -24.75 -10.55 L-27.25 -5.25 -27.8 -5.25 Q-31.85 -3.95 -35.45 -1.25 -39.0 1.4 -41.5 5.0 -40.1 -1.25 -34.55 -10.3 L-33.85 -11.35 -33.6 -11.3 M-41.95 10.55 Q-40.0 6.2 -36.4 2.7 -32.8 -0.75 -28.35 -2.6 -30.3 2.3 -31.4 6.9 L-31.9 7.0 Q-34.85 8.8 -36.9 11.35 -39.15 14.15 -39.7 17.2 -41.8 14.25 -42.0 10.6 L-41.95 10.55 M-37.85 19.3 Q-37.7 14.25 -32.05 10.0 -33.25 16.75 -32.3 22.8 -35.55 21.35 -37.85 19.3 M2.2 25.05 Q5.3 28.65 11.5 30.7 L14.5 31.3 3.05 30.9 Q-2.9 30.05 -7.3 28.1 L-3.9 27.4 -3.35 27.25 Q-0.25 26.35 2.2 25.05 M-0.35 35.6 Q-0.65 43.5 -1.4 51.25 -6.1 46.55 -9.4 40.85 -12.95 34.75 -14.2 28.55 L-10.5 28.45 Q-5.25 31.6 3.25 32.95 L17.1 33.35 Q24.5 32.55 30.45 29.85 L30.65 29.7 36.6 28.1 Q36.85 35.45 35.2 44.3 33.95 50.85 31.2 60.05 25.55 78.9 16.55 94.75 13.6 99.9 10.6 103.8 7.5 97.55 3.3 93.05 -1.75 87.6 -7.35 85.9 -5.1 82.5 -3.3 75.8 -1.5 69.25 -0.15 58.9 1.3 47.8 1.65 36.6 1.65 35.8 0.65 35.2 -0.35 34.65 -0.35 35.6 M11.1 28.55 Q12.4 25.15 12.45 21.55 12.55 17.85 11.3 14.55 15.95 15.8 18.8 19.95 21.45 23.85 21.8 29.0 L11.3 28.6 11.1 28.55 M-14.75 24.3 L-14.8 23.75 -14.95 23.3 Q-15.35 19.45 -12.35 14.45 -12.3 17.65 -10.7 20.6 -9.2 23.45 -6.5 25.65 L-11.05 26.25 -13.85 26.35 -14.75 24.3 M61.3 11.7 Q55.25 6.8 49.45 4.25 42.0 0.95 35.85 2.0 L34.25 -1.95 34.4 -2.0 Q40.85 -4.6 48.8 -3.9 56.05 -3.25 62.85 -0.1 L63.5 3.45 Q63.9 7.85 61.3 11.7 M62.1 -2.45 Q55.45 -5.3 48.6 -5.95 41.0 -6.65 34.75 -4.55 38.25 -8.65 45.05 -10.25 50.85 -11.65 57.15 -10.9 L57.4 -10.9 Q60.6 -6.5 62.1 -2.45 M51.95 -17.05 L55.75 -13.05 Q49.0 -13.75 43.25 -12.2 36.45 -10.4 32.75 -5.9 L31.9 -8.4 Q33.9 -13.75 40.35 -15.95 45.5 -17.7 51.95 -17.05 M26.65 -33.8 Q27.2 -30.65 27.7 -22.65 28.1 -15.55 29.05 -11.65 30.15 -7.3 32.4 -1.6 L36.5 8.2 39.5 16.15 Q40.9 20.95 40.15 24.55 32.95 27.1 25.85 28.35 28.05 24.85 27.95 19.35 27.85 15.55 26.5 10.05 24.3 1.2 23.95 -6.3 23.8 -10.3 24.05 -17.15 L24.35 -28.05 24.25 -28.45 Q25.85 -31.3 26.65 -33.8 M48.95 6.05 Q50.25 13.55 45.45 22.3 L45.4 22.5 42.4 23.7 Q42.6 20.9 41.65 17.3 L39.6 11.2 36.7 4.1 Q42.0 3.1 48.95 6.05 M48.6 21.1 Q51.95 13.5 51.0 7.05 55.45 9.25 60.25 13.05 56.55 17.4 48.6 21.1 M49.0 84.65 Q49.25 87.05 47.95 90.3 47.15 92.35 45.35 95.5 41.75 102.05 35.25 105.7 27.4 109.95 24.3 106.95 22.65 105.35 23.5 102.55 23.95 101.1 25.65 98.1 28.8 97.4 33.25 99.6 34.25 100.1 34.3 99.1 34.35 98.15 33.55 97.7 29.95 96.0 26.95 95.85 L29.15 92.45 Q35.1 95.25 40.85 91.8 46.1 88.65 48.35 82.35 L49.0 84.65 M46.3 78.45 L46.95 79.55 46.85 79.8 Q45.2 86.0 40.2 89.45 34.7 93.25 29.0 90.4 L24.3 84.75 Q29.2 74.05 33.15 61.15 37.0 64.15 40.55 69.15 43.2 72.75 46.3 78.45 M-9.75 87.1 Q-6.6 90.95 -2.85 96.7 L-0.25 100.8 -11.6 106.0 Q-16.75 101.45 -21.15 95.1 -23.55 91.7 -24.35 90.0 -26.2 86.35 -25.05 84.35 -24.05 82.45 -20.45 82.65 -17.8 82.8 -15.3 83.8 -12.35 85.0 -9.75 87.1 M1.9 111.85 L-0.25 112.35 Q-2.5 112.5 -5.25 110.95 L-9.65 107.7 0.9 102.8 Q3.85 108.75 2.0 111.6 L1.9 111.85 M7.95 107.0 L4.75 110.05 Q4.9 107.35 3.0 103.4 L-0.2 97.7 Q-3.25 92.7 -6.85 88.1 -1.7 89.85 2.85 95.1 6.55 99.35 9.4 105.25 L7.95 107.0"/></g></defs><g><g><use transform="matrix(3.36840820312,0.0,0.0,3.36840820312,42.0,39.65)" xlink:href="#c1"/></g></g></svg>