<?xml version='1.0' encoding='UTF-8'?>
<svg xmlns:xlink="http://www.w3.org/1999/xlink" xmlns="http://www.w3.org/2000/svg" version="1.1" width="361px" height="512px" viewBox="-114.960205078 -101.566851806 361.163787841 511.83731079"><defs><g id="c1"><path fill="#ffffff" stroke="none" d="M29.55 -44.55 L32.55 -43.05 35.15 -41.6 Q38.55 -39.65 42.8 -34.3 46.6 -29.5 49.5 -23.3 L49.5 -23.25 38.6 -22.85 Q32.6 -21.4 29.7 -17.25 29.05 -21.1 29.15 -27.15 L29.25 -37.1 Q29.25 -39.3 28.85 -40.3 29.4 -42.55 29.55 -44.55 M27.5 -45.25 Q26.95 -38.85 22.55 -32.1 L22.25 -31.65 Q16.95 -23.75 4.95 -14.1 3.9 -16.7 2.95 -19.7 10.55 -26.1 16.15 -31.8 L20.6 -36.8 Q22.95 -39.85 23.8 -42.6 23.95 -43.0 23.7 -43.4 L24.25 -45.5 24.3 -45.5 27.5 -45.25 M13.9 -32.95 Q9.9 -28.85 2.2 -22.2 0.15 -29.25 -0.7 -36.7 2.1 -34.05 6.45 -33.75 11.95 -33.35 17.0 -36.2 L13.9 -32.95 M27.3 -35.95 L27.35 -34.3 27.25 -24.45 Q27.35 -18.8 28.35 -14.6 29.25 -10.6 30.95 -5.25 L34.0 3.95 36.25 11.7 Q37.1 16.25 36.2 19.6 28.85 21.65 21.65 22.4 25.8 16.75 23.75 4.75 22.1 -4.95 22.35 -12.0 22.45 -15.4 23.2 -21.2 L24.25 -30.35 Q26.0 -33.05 27.3 -35.95 M-21.7 -27.8 Q-20.4 -33.45 -17.75 -37.65 -14.4 -42.8 -9.75 -44.2 L-7.65 -42.55 Q-13.85 -35.6 -20.0 -26.6 L-21.7 -27.8 M-3.1 -40.0 Q-10.85 -27.95 -17.3 -16.25 L-21.2 -8.8 Q-23.3 -4.55 -24.4 -1.0 -26.25 4.9 -26.55 8.8 -27.05 14.55 -24.75 18.45 L-25.8 18.2 Q-29.85 17.25 -33.2 15.75 -34.15 6.9 -29.95 -3.7 -27.0 -11.25 -20.6 -21.4 -13.5 -32.5 -5.6 -41.25 -4.15 -40.45 -3.1 -40.0 M-5.1 -32.45 L-2.6 -36.35 Q-1.6 -28.35 0.7 -20.7 0.7 -20.3 0.95 -19.9 4.05 -10.05 9.15 -2.0 L3.8 1.25 Q3.75 0.75 3.3 0.3 L2.95 0.05 1.9 -1.3 Q0.45 -4.05 -0.75 -7.25 L-1.0 -7.8 Q-4.6 -17.75 -5.05 -32.35 L-5.1 -32.45 M-6.85 -1.2 Q-9.8 -0.3 -12.5 1.75 -16.4 4.65 -18.55 9.65 -20.95 15.2 -19.1 19.35 L-22.45 18.9 Q-27.45 12.6 -21.45 -2.55 L-20.55 -4.7 -20.1 -4.8 Q-16.4 -7.45 -10.7 -9.45 -4.65 -6.0 -0.65 -1.65 -3.5 -2.3 -6.85 -1.2 M-4.25 -7.25 L-8.8 -10.35 -4.65 -13.55 -3.0 -8.1 -4.25 -7.25 M-1.9 -5.25 L-2.35 -5.65 -2.1 -5.8 -1.9 -5.25 M5.9 -11.8 Q16.4 -20.2 21.85 -27.05 L21.05 -21.05 20.45 -15.0 Q20.2 -11.4 20.35 -6.95 14.55 -4.7 10.65 -2.8 7.95 -7.2 5.9 -11.8 M-12.3 -20.4 L-6.9 -29.5 Q-6.5 -22.2 -5.25 -16.15 L-7.9 -14.05 Q-9.8 -18.4 -12.3 -20.4 M-12.5 -18.25 Q-10.55 -16.15 -9.4 -12.95 L-9.35 -12.9 -10.8 -11.85 -11.2 -11.7 Q-13.45 -13.15 -16.05 -13.7 L-13.15 -18.85 -12.5 -18.25 M-25.45 -18.0 L-28.3 -12.9 -28.9 -12.95 Q-33.0 -11.95 -36.75 -9.5 -40.4 -7.15 -43.2 -3.75 -41.5 -9.45 -35.5 -18.05 L-34.4 -19.5 -34.1 -19.45 Q-29.9 -19.55 -26.85 -18.65 L-25.45 -18.0 M-20.95 -25.15 L-24.5 -19.55 Q-27.25 -21.5 -32.8 -21.6 L-29.8 -24.95 Q-27.35 -27.55 -22.9 -26.4 L-21.0 -25.25 -21.0 -25.2 -20.95 -25.15 M-13.45 -10.9 Q-16.45 -9.75 -18.8 -8.45 L-17.05 -11.9 -13.45 -10.9 M-10.9 3.55 Q-8.2 1.25 -4.8 0.5 -0.9 -0.4 1.8 1.35 L2.4 2.3 1.7 2.8 Q-3.4 6.95 -3.65 11.45 -3.85 14.4 -1.85 17.15 -4.45 18.35 -7.5 19.0 -11.15 16.25 -12.3 12.3 -13.55 8.1 -11.55 4.1 L-10.9 3.55 M-9.7 19.4 Q-12.9 19.8 -17.05 19.55 -18.4 17.05 -17.6 13.7 -16.9 10.85 -14.8 7.85 -14.95 11.0 -13.55 14.1 -12.2 17.05 -9.7 19.4 M5.85 2.7 Q10.75 -0.7 20.55 -4.5 20.75 -1.85 21.25 1.25 22.45 8.8 22.45 11.65 22.45 17.85 19.45 21.3 18.9 15.6 15.85 11.35 12.6 6.7 7.3 5.25 L5.85 2.7 M5.5 5.5 Q5.5 6.2 6.0 6.7 7.15 9.85 6.85 13.55 6.55 17.05 5.0 20.25 L4.9 20.65 Q2.65 19.5 1.0 17.95 L0.65 16.9 Q0.25 16.4 -0.25 16.45 -2.0 14.05 -1.55 11.5 -1.0 7.9 4.25 3.85 L4.5 3.7 5.5 5.5 M8.8 14.6 Q9.15 10.9 8.15 7.5 12.7 9.05 15.25 13.5 17.6 17.55 17.55 22.75 11.8 23.0 7.75 21.85 L6.9 21.55 Q8.5 18.25 8.8 14.6 M7.25 23.65 Q11.4 25.2 18.5 24.8 18.9 25.05 19.25 24.8 L19.5 24.75 23.85 24.4 Q17.0 26.5 7.95 27.7 L-4.35 27.2 Q-11.3 25.7 -15.35 21.8 -6.5 22.15 -0.3 19.0 2.8 21.95 7.25 23.65 M-33.65 -1.1 Q-36.8 0.5 -39.0 2.85 -41.6 5.6 -42.3 8.6 -43.95 5.9 -44.1 2.75 L-44.1 1.85 -44.0 1.7 Q-41.75 -2.5 -37.95 -5.7 -34.15 -8.85 -29.55 -10.4 -31.95 -5.4 -33.25 -1.15 L-33.65 -1.1 M-35.3 14.75 Q-38.5 13.0 -40.5 10.9 -40.0 5.8 -34.15 1.9 -35.8 8.6 -35.3 14.75 M-29.85 66.15 Q-29.0 59.9 -25.3 57.0 -22.05 59.05 -16.1 60.25 -16.05 63.85 -14.1 67.25 -12.35 70.35 -9.35 72.9 L-12.25 72.95 Q-16.15 72.95 -23.0 71.35 -29.75 69.9 -29.85 66.3 L-29.85 66.15 M0.4 44.05 Q-0.25 44.6 0.5 45.4 2.7 47.75 4.4 50.85 2.7 53.55 1.5 58.4 -4.85 59.6 -10.7 59.3 L-17.75 57.95 Q-22.0 57.05 -24.5 55.5 L-20.9 39.15 Q-18.7 29.65 -16.55 23.0 -12.4 27.0 -5.65 28.8 0.15 30.35 6.7 30.0 16.7 29.45 28.2 25.35 32.5 23.85 34.2 22.5 L34.55 22.4 Q37.4 31.5 39.0 42.6 40.25 51.4 40.9 63.2 41.8 78.05 41.25 93.4 L41.15 95.55 Q37.15 98.95 31.75 98.55 26.8 98.2 22.4 94.95 L18.6 82.75 Q14.3 69.6 10.55 60.4 7.85 53.85 6.55 51.4 6.55 51.05 6.15 50.65 4.1 46.8 1.8 44.3 1.05 43.5 0.4 44.05 M-10.1 61.4 Q-4.2 61.75 2.5 60.45 L3.45 69.2 Q0.5 72.25 -6.85 72.75 L-7.15 72.5 Q-10.25 70.15 -12.05 67.35 -14.15 64.05 -14.1 60.65 L-10.35 61.4 -10.1 61.4 M3.6 72.05 Q3.85 76.9 3.6 81.7 -1.05 82.65 -7.2 81.95 L-17.9 79.9 -24.2 78.5 Q-27.85 77.45 -29.85 75.6 -30.2 72.15 -30.15 69.65 -27.95 72.25 -25.25 72.85 L-21.0 74.0 -16.75 74.8 Q-6.05 75.7 0.9 73.3 L3.6 72.05 M56.0 -14.4 Q58.85 -9.8 60.05 -5.65 53.65 -9.0 46.85 -10.15 39.4 -11.4 32.95 -9.8 36.9 -13.75 43.75 -14.8 L55.8 -14.45 56.0 -14.4 M54.55 -16.7 Q47.9 -17.85 42.05 -16.8 35.05 -15.55 31.05 -11.3 L30.4 -13.85 30.45 -13.9 Q32.8 -19.05 39.45 -20.75 44.75 -22.1 51.1 -21.0 L54.5 -16.75 54.55 -16.7 M58.2 8.35 Q52.45 3.0 46.9 0.05 39.7 -3.8 33.55 -3.15 L32.25 -7.25 32.5 -7.3 Q39.05 -9.35 46.95 -8.05 54.05 -6.9 60.6 -3.3 L61.0 -0.25 Q61.3 4.55 58.2 8.35 M38.2 12.1 L36.4 5.45 34.3 -1.05 Q39.85 -1.6 46.3 1.75 47.1 9.3 41.6 17.85 L41.55 18.0 38.55 18.95 Q39.0 15.95 38.2 12.1 M48.35 2.9 Q52.7 5.5 57.05 9.6 53.05 13.7 44.95 16.8 48.85 9.45 48.35 2.9 M23.0 104.45 Q22.55 103.55 22.45 101.45 L22.5 99.4 22.65 97.25 Q27.45 100.4 32.55 100.7 38.2 101.0 42.4 97.6 47.4 101.85 50.55 105.55 L52.2 107.8 Q53.1 109.45 52.45 110.3 50.6 112.55 44.75 111.5 39.15 110.35 31.2 104.95 L29.55 103.75 Q29.2 103.45 28.7 103.5 28.2 103.5 28.15 104.05 28.1 105.05 26.95 105.4 L24.8 105.45 Q23.3 105.2 23.0 104.45 M-4.75 85.05 Q1.35 89.05 1.75 93.95 L1.95 94.45 0.5 99.1 Q-2.25 91.9 -11.75 87.3 -17.45 84.55 -28.8 81.75 L-29.5 78.05 Q-27.4 79.5 -24.2 80.4 L-18.35 81.8 Q-10.25 83.75 -5.35 84.2 L-4.75 85.05 M2.9 89.2 L2.65 90.65 Q0.9 87.0 -2.75 84.35 L3.4 84.0 2.9 89.2 M-27.9 107.85 Q-28.75 110.3 -31.25 112.2 L-31.5 112.7 -34.15 112.2 -40.7 110.3 Q-44.15 108.95 -46.35 106.45 -50.4 101.8 -44.4 95.1 -40.35 95.25 -35.65 97.2 -34.5 97.7 -33.0 98.85 L-30.6 100.85 Q-28.6 102.4 -27.95 103.8 -27.1 105.6 -27.9 107.85 M-25.7 104.5 Q-20.75 108.1 -20.5 111.75 -25.1 112.75 -28.35 112.8 -26.7 111.05 -26.0 108.9 -25.2 106.6 -25.7 104.5 M-27.7 100.9 L-27.95 100.75 -28.3 100.45 -31.2 98.0 Q-33.05 96.45 -34.3 95.8 -38.8 93.75 -42.55 93.2 -40.9 91.6 -38.05 89.4 L-37.5 89.6 Q-34.55 89.65 -31.2 90.75 L-25.25 93.15 Q-20.85 95.0 -18.45 100.55 -16.5 105.0 -16.3 110.5 L-16.3 110.65 -16.6 110.7 -18.6 111.25 Q-19.2 108.2 -22.15 105.35 -23.5 104.0 -27.7 100.9 M-1.6 103.15 Q-3.3 105.65 -7.2 107.55 -9.75 108.75 -14.35 110.1 -15.2 97.8 -23.95 91.85 -28.8 88.55 -35.6 87.7 -31.8 85.15 -29.1 83.7 -17.05 86.6 -11.95 89.1 -2.15 93.8 -0.65 101.65 L-1.6 103.15"/></g></defs><g><g><use transform="matrix(3.23333740234,0.0,0.0,3.23333740234,48.0,45.55)" xlink:href="#c1"/></g></g></svg>