<?xml version='1.0' encoding='UTF-8'?>
<svg xmlns:xlink="http://www.w3.org/1999/xlink" xmlns="http://www.w3.org/2000/svg" version="1.1" width="348px" height="514px" viewBox="-108.484863281 -106.887767029 348.178820801 513.954972839"><defs><g id="c1"><path fill="#ffffff" stroke="none" d="M11.85 -38.45 Q10.25 -35.65 7.65 -33.9 4.9 -32.1 1.75 -31.85 1.1 -31.85 1.1 -31.3 0.35 -22.2 1.15 -14.9 -3.9 -25.7 -5.85 -38.55 -3.2 -36.4 3.2 -37.15 9.1 -37.8 12.25 -39.95 L11.85 -38.45 M14.15 -37.9 Q14.8 -31.7 19.5 -24.2 26.9 -12.7 30.8 -3.05 33.05 2.45 33.85 6.6 34.95 12.2 33.85 16.6 L23.9 19.15 19.4 20.05 Q21.8 16.35 22.05 10.45 22.25 5.75 21.1 0.55 20.3 -3.05 18.4 -8.9 15.9 -16.4 15.35 -18.4 12.1 -29.8 14.1 -37.75 L14.15 -37.9 M26.7 -45.6 Q30.65 -44.3 34.15 -40.75 36.7 -38.2 39.85 -34.1 L45.1 -27.1 Q38.8 -27.6 33.6 -25.8 27.45 -23.65 24.9 -18.75 L19.55 -27.5 Q16.75 -32.7 16.3 -37.2 16.15 -39.1 16.55 -41.2 17.05 -43.45 18.0 -44.6 L18.15 -44.9 Q22.15 -47.05 26.7 -45.6 M-26.2 -28.15 Q-24.35 -27.3 -21.45 -26.55 L-16.5 -25.45 -13.85 -12.65 Q-18.85 -13.05 -24.5 -15.8 -26.1 -16.6 -26.35 -19.8 -26.35 -23.4 -26.65 -24.6 -27.05 -26.4 -28.2 -27.6 -29.4 -28.8 -31.0 -29.05 -30.2 -30.0 -28.65 -29.4 L-26.2 -28.15 M-11.8 -44.7 Q-12.95 -32.85 -10.3 -20.75 -7.6 -8.4 -1.45 1.5 -4.35 4.05 -5.55 6.8 -7.9 1.4 -9.8 -4.85 -9.7 -5.45 -10.2 -6.1 L-11.55 -11.05 -11.7 -11.55 Q-14.0 -20.85 -15.7 -32.9 -15.8 -33.75 -16.85 -34.1 -17.85 -34.45 -17.7 -33.4 L-16.85 -27.55 -20.95 -28.6 Q-21.05 -34.3 -19.85 -38.6 -18.25 -44.45 -14.5 -46.4 L-14.35 -46.5 -11.8 -44.7 M3.05 -29.8 Q7.85 -30.5 11.2 -33.75 11.05 -29.25 12.3 -23.55 13.15 -19.65 15.0 -13.95 L16.55 -9.2 Q11.2 -6.85 7.15 -4.6 L3.95 -9.6 Q2.8 -14.75 2.8 -23.35 L3.0 -28.7 3.05 -29.8 M-8.05 -40.4 Q-5.7 -23.25 2.1 -9.45 L2.15 -8.95 Q2.3 -8.4 2.85 -8.15 4.4 -5.6 5.7 -3.75 2.5 -1.8 -0.15 0.35 -5.85 -9.05 -8.35 -20.75 -10.85 -32.25 -9.85 -43.45 -9.2 -41.7 -8.05 -40.4 M-27.5 -16.75 Q-26.75 -15.2 -25.2 -14.2 -24.25 -13.65 -22.0 -12.75 -17.05 -10.85 -13.3 -10.55 L-12.35 -7.0 -22.8 -10.1 Q-23.2 -11.1 -24.25 -12.15 -25.2 -13.05 -26.1 -13.5 L-28.45 -13.65 Q-29.6 -13.35 -30.55 -12.45 -35.5 -13.4 -36.1 -18.4 -36.7 -23.25 -32.9 -26.4 L-32.55 -26.75 -32.45 -26.8 Q-29.15 -27.9 -28.45 -23.55 L-28.15 -19.85 Q-27.95 -17.65 -27.5 -16.75 M-27.75 -11.45 Q-26.95 -11.85 -25.65 -11.15 -24.4 -10.45 -24.65 -9.65 L-25.9 -5.1 Q-29.1 6.5 -30.8 13.85 -33.85 26.85 -33.4 35.15 -33.2 39.35 -31.6 44.3 L-30.2 48.9 Q-29.75 51.3 -30.2 53.65 -30.35 54.45 -29.35 55.05 -28.4 55.6 -28.2 54.65 -27.6 51.25 -28.5 47.9 -25.05 46.35 -21.5 41.5 -18.25 36.9 -16.9 31.65 L-16.85 31.55 Q-14.05 31.85 -12.05 29.05 -10.1 26.25 -11.2 23.5 -8.55 21.75 -8.35 18.9 -8.25 16.35 -10.05 13.7 L-7.85 5.9 -6.3 9.45 -6.35 10.3 -6.2 11.9 -6.25 12.2 Q-8.7 22.1 -10.0 26.25 -12.45 34.15 -15.45 39.7 -16.85 42.2 -22.1 48.5 -26.5 53.85 -27.95 57.85 L-30.3 66.0 -38.35 95.1 -42.3 109.5 Q-42.6 110.6 -44.55 110.55 -46.35 110.45 -47.4 109.75 L-48.0 109.25 -44.9 97.3 Q-41.05 84.45 -39.35 78.0 -36.7 68.0 -34.95 59.7 -34.15 56.6 -33.9 55.0 -33.4 52.15 -33.9 50.2 -34.3 48.6 -35.8 44.65 -37.1 41.2 -37.45 39.0 -38.15 34.85 -37.65 29.8 -37.35 26.15 -36.2 20.7 -33.8 9.25 -29.5 -8.75 L-29.1 -10.55 -27.75 -11.45 M-11.7 -4.8 L-9.1 2.65 -9.3 3.0 -11.75 11.75 -13.15 10.65 Q-15.95 8.85 -19.9 8.2 L-27.1 8.0 -27.15 8.0 -22.8 -8.1 -11.7 -4.8 M-26.4 10.1 Q-21.9 9.6 -17.2 10.85 -13.05 11.95 -11.0 15.6 -8.7 19.6 -13.1 21.9 -13.95 22.35 -13.1 23.45 -12.05 24.85 -13.5 27.15 -15.0 29.45 -16.95 29.5 -15.4 27.25 -15.4 23.85 L-15.4 23.8 Q-14.35 22.6 -14.15 21.15 -13.95 19.55 -14.95 18.45 -15.55 17.8 -16.6 17.35 -13.75 14.9 -15.5 11.95 -16.0 11.1 -16.85 11.35 -17.7 11.55 -17.1 12.55 -16.3 13.9 -17.75 15.25 -18.8 16.2 -20.5 16.85 -21.3 17.15 -20.75 18.05 -20.25 18.95 -19.55 18.95 L-16.9 19.25 Q-15.25 19.7 -16.65 21.35 -17.95 22.9 -19.2 23.1 -21.3 23.45 -23.05 22.3 -24.85 21.15 -25.45 19.2 -26.3 16.4 -25.0 13.2 -24.75 12.45 -25.65 11.7 L-26.85 11.75 Q-28.05 14.8 -27.5 18.15 L-27.55 18.2 Q-28.4 18.8 -29.75 18.65 L-27.5 9.4 Q-27.0 10.2 -26.4 10.1 M-26.5 21.25 Q-25.65 22.95 -23.85 23.95 -24.9 25.35 -26.25 26.05 -27.85 26.9 -29.7 25.5 L-30.35 24.55 -30.75 23.95 -30.15 20.6 -26.85 20.5 -26.5 21.25 M2.7 1.2 L5.8 -1.0 Q10.3 -3.85 17.25 -6.95 19.5 0.2 19.85 5.3 20.6 14.4 17.25 18.95 16.4 13.35 13.1 9.2 9.55 4.75 4.2 3.6 L2.7 1.2 M2.5 4.05 Q2.5 4.75 3.05 5.2 4.35 8.3 4.25 11.95 4.15 15.4 2.75 18.65 L2.7 19.0 Q0.6 18.0 -1.05 16.8 -5.25 13.55 -3.9 9.3 -2.85 5.95 1.4 2.3 L2.5 4.05 M6.25 12.8 Q6.35 9.15 5.2 5.85 9.85 7.2 12.6 11.45 15.15 15.35 15.45 20.55 9.25 21.15 4.75 19.75 6.1 16.4 6.25 12.8 M-5.05 31.15 L-4.0 23.9 Q0.7 28.45 8.5 29.95 15.4 31.25 22.5 29.95 30.3 28.55 37.15 25.5 44.95 22.05 50.1 17.15 49.75 24.3 48.4 32.05 48.1 32.35 48.25 33.05 L47.3 37.9 43.75 51.45 Q41.4 59.9 40.65 65.15 39.8 71.15 39.8 78.1 L39.8 78.8 Q39.9 86.25 41.05 93.15 L42.25 98.55 42.45 99.65 Q41.05 100.7 37.9 101.05 L33.25 101.3 26.55 100.9 Q22.9 100.15 20.3 98.45 11.1 69.8 12.5 45.45 12.55 44.65 11.55 44.05 10.55 43.5 10.5 44.45 9.85 56.15 11.55 68.8 L11.35 68.8 Q4.85 69.8 -0.4 65.55 -5.4 61.4 -6.45 54.9 -7.3 49.7 -6.7 42.95 L-5.05 31.15 M-3.8 22.25 Q-3.55 19.25 -3.7 16.65 -0.6 20.0 5.1 22.0 7.5 22.85 10.75 22.9 L16.5 22.6 17.2 22.5 17.6 22.45 Q25.1 21.65 34.05 18.8 44.65 15.4 50.2 11.8 L50.2 13.65 Q42.05 22.65 25.45 27.0 14.1 30.0 4.4 26.75 1.55 25.8 -1.1 24.0 L-2.45 23.0 -2.9 22.65 Q-3.3 22.25 -3.8 22.25 M-18.95 28.15 Q-19.75 29.15 -21.15 29.25 L-23.7 28.9 -25.05 28.05 Q-23.1 27.2 -21.65 24.9 L-17.65 25.05 Q-17.95 26.85 -18.95 28.15 M51.85 -18.65 Q54.95 -14.1 56.4 -10.1 49.8 -13.1 42.9 -13.9 35.35 -14.75 29.0 -12.8 32.55 -16.75 39.4 -18.25 L51.55 -18.65 51.85 -18.65 M54.1 5.3 Q49.85 9.95 42.3 13.4 45.95 5.75 45.05 -1.0 49.65 1.5 54.15 5.3 L54.1 5.3 M55.2 3.95 Q41.35 -7.75 31.4 -6.3 L29.4 -10.5 Q35.8 -12.7 43.5 -11.75 50.55 -10.95 57.1 -7.75 58.8 -0.95 55.2 3.95 M50.25 -20.85 L37.95 -20.3 Q31.15 -18.7 27.35 -14.45 L26.3 -16.3 Q28.6 -21.65 35.0 -23.85 40.4 -25.7 46.75 -24.9 L46.9 -24.9 50.25 -20.85 M39.2 14.35 L39.1 14.75 36.2 15.8 Q37.0 10.35 34.55 2.15 L32.25 -4.2 Q36.8 -4.95 42.95 -2.05 44.2 5.45 39.2 14.35 M48.2 43.75 L50.1 35.25 Q51.3 36.65 52.5 39.2 L53.3 41.1 Q51.65 44.35 47.55 46.2 L48.2 43.75 M44.7 55.8 L46.7 49.0 46.85 48.95 49.1 48.1 Q48.1 51.9 44.7 55.8 M42.6 66.6 Q45.1 66.05 47.7 64.85 L48.45 64.7 48.7 64.45 Q53.05 62.3 56.7 58.9 L56.85 63.85 56.7 63.9 Q50.15 69.55 42.15 71.0 42.3 68.8 42.6 66.6 M43.65 60.3 Q51.15 53.35 51.45 46.7 53.3 45.35 54.3 43.9 L54.95 46.25 Q53.3 55.4 47.2 62.55 45.4 63.4 42.95 64.15 L43.65 60.3 M56.5 55.75 L56.3 55.9 Q54.5 57.85 52.3 59.45 54.8 55.2 55.95 51.35 L56.5 55.75 M42.0 73.25 Q49.8 72.2 56.65 67.05 56.05 72.8 52.9 75.75 51.1 77.4 47.75 78.3 44.3 79.15 41.85 78.4 L42.0 73.25 M19.75 100.1 Q24.4 103.25 31.85 103.5 36.8 103.65 42.05 102.2 L42.25 102.15 42.0 103.4 Q41.7 104.75 41.15 105.35 L39.35 106.45 Q36.4 107.95 34.3 107.75 L33.95 106.4 Q33.85 105.9 33.35 105.6 32.85 105.2 32.4 105.4 22.35 109.25 14.45 109.85 L9.9 109.65 Q6.9 109.0 8.1 106.9 9.45 104.5 13.25 102.6 15.2 101.65 19.75 100.1"/></g></defs><g><g><use transform="matrix(3.26010131836,0.0,0.0,3.26010131836,48.0,46.5)" xlink:href="#c1"/></g></g></svg>