<?xml version='1.0' encoding='UTF-8'?>
<svg xmlns:xlink="http://www.w3.org/1999/xlink" xmlns="http://www.w3.org/2000/svg" version="1.1" width="371px" height="513px" viewBox="-113.85201416 -93.7889648436 371.198583984 512.503308105"><defs><g id="c1"><path fill="#ffffff" stroke="none" d="M23.3 -39.6 Q25.2 -34.7 25.75 -25.7 26.4 -15.3 27.3 -11.6 28.4 -7.25 30.65 -1.55 L34.75 8.25 37.75 16.2 Q39.15 21.0 38.4 24.55 31.5 27.05 24.0 28.45 26.45 24.2 26.25 18.25 26.15 15.2 25.0 10.5 L23.1 2.85 Q22.15 -2.6 22.25 -10.3 L22.6 -23.55 22.6 -27.8 22.8 -28.0 22.6 -28.2 Q22.55 -33.9 22.15 -39.5 L23.3 -39.6 M32.75 -36.4 Q36.6 -34.55 41.15 -29.5 45.45 -24.7 48.45 -19.2 42.6 -19.6 37.65 -18.0 31.75 -16.05 29.2 -11.75 28.45 -15.15 27.75 -25.65 27.15 -34.45 25.3 -39.35 27.75 -38.85 32.75 -36.4 M-8.5 -35.6 Q-8.85 -30.95 -8.55 -25.9 -11.25 -27.2 -12.1 -29.4 -12.8 -31.4 -11.95 -34.0 L-9.25 -36.0 -8.5 -35.6 M0.05 -13.65 Q4.0 -3.0 9.85 5.0 6.85 6.8 4.1 9.2 -1.85 -0.2 -4.65 -11.9 -7.35 -23.4 -6.5 -34.7 L-5.15 -34.15 Q-3.45 -23.25 0.05 -13.65 M10.25 -21.6 Q16.15 -22.1 20.6 -25.8 L20.3 -13.25 Q20.1 -5.8 20.7 -0.75 15.4 1.65 11.25 4.1 L7.9 -1.0 8.05 -1.0 Q7.8 -9.8 8.6 -16.0 9.3 -21.35 10.25 -21.6 M4.8 -28.7 Q9.35 -28.7 13.7 -31.05 18.2 -33.5 20.3 -37.3 L20.55 -28.55 Q16.3 -24.1 10.05 -23.6 5.9 -23.0 6.0 -4.35 -0.1 -16.05 -2.75 -31.25 0.25 -28.7 4.8 -28.7 M-23.2 -12.35 Q-22.7 -8.95 -20.85 -1.55 L-19.5 4.15 Q-23.55 8.15 -27.05 12.85 L-30.3 17.55 Q-32.15 18.0 -36.45 15.85 -39.2 14.45 -40.5 10.75 -41.25 8.75 -41.45 6.4 -41.45 5.7 -40.75 4.3 L-40.55 3.9 Q-38.35 -0.85 -34.9 -6.55 -29.45 -15.6 -23.15 -23.05 -24.1 -18.3 -23.2 -12.35 M-14.4 -31.95 Q-14.5 -30.25 -14.0 -28.75 -12.8 -25.35 -8.55 -23.7 -8.2 -22.8 -8.9 -15.65 L-9.45 -7.7 Q-9.35 -0.8 -8.05 10.3 -7.3 16.85 -7.45 17.8 -10.6 17.65 -13.5 15.9 -15.2 14.8 -16.3 13.55 L-16.35 12.3 Q-16.55 8.7 -18.3 1.25 L-21.35 -12.75 Q-22.35 -20.6 -19.65 -26.75 L-19.6 -27.0 -14.4 -31.95 M6.9 9.95 Q11.7 6.1 21.0 1.65 L22.5 8.55 24.0 15.45 Q24.55 18.5 24.05 21.6 23.45 25.05 21.8 27.45 20.85 21.85 17.5 17.8 13.85 13.4 8.5 12.35 L6.9 9.95 M-7.45 -7.7 L-7.0 -14.1 Q-4.2 -0.45 2.8 10.35 -2.0 14.85 -1.95 19.25 -1.9 23.4 2.0 26.65 5.05 29.2 9.75 30.75 L13.1 31.4 Q4.3 32.1 -3.6 29.95 -11.05 27.9 -16.55 23.3 L-16.25 16.35 Q-12.1 19.8 -7.1 19.8 -6.35 19.8 -6.0 19.35 -5.4 18.7 -5.45 16.65 L-6.05 10.1 Q-7.35 -1.0 -7.45 -7.7 M6.8 12.85 Q6.8 13.65 7.4 14.0 8.75 17.1 8.7 20.7 8.65 24.2 7.35 27.45 L7.35 27.9 Q4.05 26.5 2.1 24.45 -0.25 21.95 0.15 19.0 0.65 15.35 5.6 11.05 L6.8 12.85 M-35.55 18.6 Q-35.55 20.85 -36.7 22.15 L-37.9 22.95 -38.75 23.2 -37.7 29.1 Q-36.7 34.15 -37.3 34.55 -37.7 34.75 -39.2 33.85 -42.4 31.95 -43.2 26.25 -43.5 23.95 -43.3 20.15 -43.3 19.4 -44.15 19.35 -45.05 19.3 -45.3 19.95 -46.05 21.65 -45.25 26.7 -44.2 33.3 -40.25 35.6 -38.1 36.85 -36.75 36.45 L-36.6 36.85 -35.45 39.1 Q-35.15 39.5 -35.25 40.15 -35.35 40.85 -35.9 41.15 -37.3 42.05 -40.5 39.6 L-41.5 38.8 -42.35 37.75 Q-44.4 35.2 -45.85 32.2 -48.0 27.75 -48.0 23.75 -48.05 18.1 -43.2 9.65 -41.55 15.65 -37.1 17.9 L-35.55 18.6 M-33.35 25.9 L-30.45 30.25 Q-28.0 34.2 -28.7 34.8 -29.75 35.7 -31.6 33.75 L-33.75 31.3 -33.95 31.35 -34.05 31.35 Q-34.15 31.7 -32.4 34.65 -30.85 37.4 -31.85 38.25 -32.75 39.05 -34.2 38.1 L-36.25 36.25 -36.1 36.15 Q-35.0 35.35 -35.1 33.05 -35.1 31.7 -35.75 28.7 L-36.5 24.55 Q-34.1 23.4 -33.85 19.2 L-30.95 19.75 -31.15 21.45 Q-31.35 22.55 -32.05 23.9 L-33.35 25.9 M-2.15 35.65 Q-2.4 43.5 -3.2 51.3 -8.5 45.95 -11.9 39.55 -15.65 32.55 -16.4 25.65 L-15.05 26.5 Q-10.8 29.45 -4.95 31.5 1.45 33.75 11.3 33.4 21.7 33.05 28.65 29.9 L28.9 29.75 34.85 28.15 Q35.1 35.5 33.45 44.35 32.2 50.9 29.45 60.1 23.65 79.25 14.8 94.8 11.85 99.95 8.85 103.85 5.65 97.55 1.5 93.1 -3.55 87.65 -9.15 85.95 -6.85 82.5 -5.05 75.85 -3.25 69.3 -1.9 58.95 -0.4 46.8 -0.15 36.65 -0.1 35.85 -1.1 35.25 -2.1 34.7 -2.15 35.65 M9.3 28.6 Q10.65 25.2 10.7 21.6 10.75 17.9 9.5 14.6 14.15 15.8 17.05 20.0 19.65 23.85 20.05 29.05 L9.55 28.65 9.3 28.6 M59.55 11.75 Q53.5 6.85 47.7 4.3 40.25 1.0 34.1 2.05 L32.45 -1.9 32.65 -1.95 Q39.05 -4.55 47.05 -3.85 54.3 -3.2 61.1 -0.05 L61.75 3.5 Q62.15 7.85 59.55 11.75 M60.35 -2.4 Q53.75 -5.25 46.8 -5.9 39.25 -6.6 32.95 -4.5 36.45 -8.6 43.25 -10.2 49.1 -11.6 55.35 -10.85 L55.65 -10.85 Q58.7 -6.65 60.35 -2.4 M50.2 -17.0 L54.0 -13.0 Q47.25 -13.7 41.5 -12.15 34.7 -10.35 31.0 -5.85 L30.15 -8.35 Q32.1 -13.7 38.55 -15.9 43.75 -17.65 50.2 -17.0 M47.15 6.1 Q48.5 13.6 43.7 22.35 L43.6 22.55 40.65 23.75 Q40.85 20.95 39.9 17.35 L37.85 11.25 34.95 4.15 Q40.25 3.15 47.15 6.1 M58.5 13.1 Q54.8 17.45 46.85 21.15 50.2 13.55 49.25 7.1 53.8 9.4 58.5 13.1 M47.25 84.7 Q47.5 87.1 46.2 90.35 45.4 92.4 43.6 95.55 39.9 102.15 33.5 105.7 25.7 110.1 22.55 107.0 20.95 105.4 21.75 102.6 22.15 101.25 23.85 98.15 27.05 97.45 31.45 99.65 32.5 100.15 32.55 99.15 32.6 98.2 31.75 97.75 28.2 96.05 25.2 95.9 L27.4 92.5 Q33.35 95.3 39.1 91.85 44.35 88.7 46.6 82.4 L47.25 84.7 M44.55 78.45 L45.2 79.6 45.1 79.85 Q43.45 86.05 38.45 89.5 32.95 93.3 27.25 90.45 L22.55 84.75 Q27.45 74.15 31.4 61.2 35.25 64.2 38.8 69.15 41.45 72.8 44.55 78.45 M-11.5 87.15 Q-8.1 91.4 -4.6 96.75 L-2.0 100.85 -13.35 106.05 Q-18.5 101.5 -22.9 95.15 L-26.15 90.05 Q-27.95 86.4 -26.85 84.4 -25.8 82.5 -22.2 82.7 -19.55 82.85 -17.05 83.85 -14.1 85.05 -11.5 87.15 M-0.9 102.85 Q2.15 108.75 0.25 111.65 L0.15 111.85 -2.0 112.4 Q-4.25 112.55 -7.0 111.0 -8.8 109.95 -11.4 107.75 L-1.05 102.95 -0.9 102.85 M6.2 107.05 Q4.6 108.85 3.0 110.1 3.1 107.4 1.25 103.45 L-2.0 97.75 Q-4.9 92.9 -8.6 88.15 -3.45 89.85 1.1 95.15 4.75 99.35 7.65 105.3 L6.2 107.05"/></g></defs><g><g><use transform="matrix(3.36840820312,0.0,0.0,3.36840820312,48.0,39.6)" xlink:href="#c1"/></g></g></svg>