<?xml version='1.0' encoding='UTF-8'?>
<svg xmlns:xlink="http://www.w3.org/1999/xlink" xmlns="http://www.w3.org/2000/svg" version="1.1" width="327px" height="513px" viewBox="-101.76196289 -93.3637931822 326.824283599 513.246726989"><defs><g id="c1"><path fill="#ffffff" stroke="none" d="M28.85 -42.55 Q36.4 -39.6 41.2 -26.05 45.55 -13.55 44.0 -0.1 42.9 8.9 35.7 17.2 31.9 21.6 26.45 25.1 L25.5 25.7 25.4 25.75 Q22.6 25.35 19.1 24.0 16.35 22.85 14.65 20.85 13.1 19.0 12.05 15.95 11.3 13.85 11.05 11.1 L11.05 10.45 Q15.35 9.05 18.2 5.05 19.8 2.65 20.1 -0.4 20.3 -0.7 20.15 -1.2 20.45 -6.0 17.8 -13.8 16.2 -18.7 14.05 -18.85 13.55 -18.85 13.5 -18.5 13.4 -18.15 13.65 -17.7 L9.6 -18.7 Q6.6 -19.4 5.3 -20.05 L5.15 -20.1 4.85 -25.45 Q10.0 -26.05 13.45 -30.0 16.8 -33.8 17.25 -39.15 L17.2 -39.55 17.35 -39.75 Q18.95 -42.65 22.45 -43.3 25.55 -43.85 28.85 -42.55 M3.45 -27.45 Q2.7 -27.45 2.8 -26.65 L3.1 -21.15 2.5 -21.4 0.3 -21.35 Q-0.5 -21.0 -1.3 -19.9 L-1.85 -18.95 Q-2.15 -18.4 -2.5 -18.15 L-4.2 -16.45 Q-5.6 -14.85 -6.15 -12.7 L-6.55 -20.75 -6.45 -23.85 -6.45 -26.95 Q-6.5 -27.5 -7.25 -28.2 L-8.35 -29.2 Q-10.2 -31.15 -10.05 -34.05 -9.95 -35.4 -9.25 -36.6 -6.95 -32.05 -0.9 -31.15 3.05 -30.6 7.2 -31.85 11.4 -33.15 14.25 -35.85 12.9 -32.35 10.15 -30.1 7.2 -27.75 3.45 -27.45 M15.35 -15.2 L15.7 -14.3 Q18.3 -7.6 18.1 -2.4 12.8 -2.85 7.25 -5.6 5.65 -6.35 5.4 -9.55 L5.15 -14.35 Q4.75 -16.15 3.6 -17.35 2.4 -18.6 0.8 -18.8 1.6 -19.75 3.15 -19.15 L5.55 -17.9 Q7.4 -17.05 10.4 -16.3 L15.35 -15.2 M4.3 -6.55 Q5.05 -5.0 6.6 -4.0 7.6 -3.35 9.75 -2.55 14.1 -0.8 17.9 -0.35 17.7 1.05 17.0 2.4 L8.95 0.15 Q8.55 -0.85 7.55 -1.9 L5.7 -3.25 3.35 -3.4 Q2.2 -3.1 1.25 -2.2 -3.7 -3.15 -4.3 -8.15 -4.95 -13.0 -1.15 -16.15 L-0.75 -16.55 -0.65 -16.55 Q2.65 -17.65 3.35 -13.35 L3.65 -9.6 Q3.85 -7.4 4.3 -6.55 M4.0 -1.25 Q4.8 -1.6 6.1 -0.9 7.35 -0.2 7.15 0.6 L5.85 5.15 Q2.6 17.15 1.0 24.1 -2.05 37.0 -1.6 45.4 -1.4 49.6 0.2 54.55 L1.55 59.15 Q2.05 61.55 1.6 63.9 1.45 64.7 2.45 65.25 3.4 65.85 3.6 64.9 4.2 61.5 3.3 58.1 5.75 57.05 8.15 54.35 10.2 52.05 11.65 49.2 14.05 44.6 15.55 37.7 L19.3 37.95 19.55 37.9 Q18.65 43.35 17.45 47.0 15.85 51.85 13.2 55.2 L7.7 61.7 Q4.65 65.6 3.55 69.05 1.55 75.55 -3.25 93.3 L-10.65 120.25 -12.25 120.6 -14.2 120.65 Q-14.85 120.55 -15.95 119.75 L-16.2 119.5 Q-14.45 111.95 -11.55 102.25 -6.25 84.35 -3.15 69.95 L-2.1 65.5 Q-1.6 62.8 -1.95 61.0 -2.3 59.4 -3.45 56.55 L-5.1 52.05 -5.45 49.8 Q-5.65 48.05 -5.9 47.85 -6.55 42.15 -5.15 34.35 L-2.25 21.05 2.7 -0.3 4.0 -1.25 M47.8 -0.75 L48.15 0.4 47.65 0.95 45.65 2.5 Q46.4 -1.05 46.45 -4.25 L47.8 -0.75 M50.15 16.35 L50.1 18.6 Q45.8 23.45 38.95 27.0 33.0 30.05 25.7 31.75 L26.8 27.7 28.95 26.45 30.75 25.0 Q36.5 20.7 40.75 14.55 43.45 10.5 44.85 5.75 L45.15 5.65 48.85 3.05 Q50.15 8.7 50.15 16.35 M52.4 42.95 L53.2 44.85 Q51.5 48.3 47.25 50.1 49.2 42.9 49.95 38.95 51.3 40.55 52.4 42.95 M47.65 37.35 Q45.5 49.15 44.3 52.95 42.95 57.35 41.85 62.4 41.65 62.65 41.75 63.0 L40.75 68.7 40.7 69.0 Q39.8 75.3 39.8 81.75 39.45 82.15 39.8 82.85 L39.95 88.6 Q40.25 92.55 40.95 96.95 L41.75 100.7 42.15 101.95 42.5 103.3 Q41.15 104.4 37.9 104.8 L33.15 105.1 26.45 104.7 Q22.75 103.95 20.2 102.2 16.2 92.3 14.25 81.5 12.3 70.65 12.6 60.05 L12.55 59.7 15.45 56.2 Q18.15 52.6 19.75 47.15 20.75 43.65 21.8 37.2 L21.85 37.0 Q23.3 36.1 24.45 34.3 L24.65 34.25 Q31.85 32.85 38.1 30.0 45.2 26.75 50.0 22.2 49.8 25.65 47.65 37.35 M9.0 9.05 L9.05 11.1 Q7.65 11.0 6.4 11.65 L9.0 2.15 15.95 4.1 Q13.45 7.45 9.4 8.55 9.0 8.65 9.0 9.05 M9.35 13.2 Q10.5 19.65 14.05 22.85 17.9 26.35 24.6 27.6 22.9 35.2 18.25 35.9 16.65 36.15 15.0 35.5 16.15 34.0 16.95 32.15 17.3 31.4 16.4 30.65 L15.1 30.7 Q12.45 36.65 8.8 36.05 8.2 35.95 7.15 35.35 9.55 33.85 10.95 30.95 11.3 30.2 10.4 29.45 L9.1 29.5 Q7.0 33.85 3.55 34.35 2.7 34.55 1.4 34.35 L1.05 34.25 1.65 30.8 1.75 30.75 Q4.55 28.4 5.7 26.7 7.6 23.95 6.85 21.4 6.35 19.7 4.6 18.5 L5.1 16.45 5.5 16.1 Q6.4 13.45 9.35 13.2 M5.4 36.2 Q7.25 37.8 9.3 38.15 11.55 38.55 13.45 37.05 12.15 42.7 10.15 47.1 8.95 49.7 7.05 52.0 4.85 54.7 2.6 55.85 0.5 49.65 0.35 44.3 0.2 40.4 0.75 36.2 3.1 36.9 5.4 36.2 M2.55 26.6 L4.15 20.3 Q6.65 22.05 2.55 26.6 M5.4 70.55 Q6.6 66.6 10.6 61.95 10.6 67.55 11.1 72.6 L4.9 72.2 5.4 70.55 M56.25 59.65 L52.2 63.25 Q54.55 59.4 55.9 55.15 L56.4 59.55 56.25 59.65 M46.5 52.75 L46.75 52.75 49.0 51.9 Q48.0 55.7 44.6 59.6 L46.5 52.75 M43.5 64.1 L43.55 64.1 Q51.0 57.25 51.4 50.5 53.0 49.35 54.25 47.7 L54.9 50.05 Q53.2 59.2 47.1 66.3 45.05 67.25 42.8 67.95 L43.5 64.1 M48.6 68.2 Q53.1 66.05 56.6 62.65 L56.7 64.7 56.75 67.6 56.65 67.7 Q49.8 73.5 41.95 74.8 L42.45 70.4 47.6 68.65 48.35 68.5 48.6 68.2 M47.6 82.1 Q44.0 82.95 41.55 82.1 L41.75 77.05 Q49.5 76.1 56.6 70.8 55.9 76.65 52.85 79.55 51.05 81.25 47.6 82.1 M42.25 105.9 Q41.9 108.8 40.3 109.7 36.5 111.75 34.25 111.5 L33.85 110.15 33.25 109.35 Q32.75 109.0 32.3 109.15 22.1 113.1 14.4 113.65 L9.8 113.45 Q6.8 112.8 8.0 110.7 9.35 108.3 13.15 106.4 15.05 105.5 19.65 103.9 24.5 107.05 31.8 107.3 36.75 107.45 41.95 106.0 L42.25 105.9 M-10.85 -38.5 Q-12.7 -35.75 -11.8 -32.4 -11.05 -29.55 -8.5 -27.0 -9.75 -4.0 -1.85 9.6 L-3.35 16.1 Q-7.15 9.15 -9.8 -0.45 L-9.95 -0.95 -12.3 -10.35 Q-14.45 -19.25 -15.7 -28.15 -15.8 -29.0 -16.85 -29.35 -17.85 -29.7 -17.7 -28.65 L-16.75 -22.85 -20.95 -23.9 Q-21.05 -29.35 -19.9 -33.6 -18.4 -39.3 -14.9 -41.4 -12.95 -39.7 -10.85 -38.5 M-28.15 -15.1 Q-27.95 -12.9 -27.5 -12.05 -26.75 -10.5 -25.2 -9.5 -24.25 -8.95 -22.0 -8.05 -17.1 -6.1 -13.15 -5.8 L-12.2 -2.25 -22.8 -5.4 Q-23.25 -6.4 -24.25 -7.4 -25.2 -8.35 -26.1 -8.75 L-28.45 -8.9 Q-29.6 -8.6 -30.55 -7.75 -35.5 -8.65 -36.1 -13.65 -36.7 -18.5 -32.9 -21.7 L-32.55 -22.05 -32.45 -22.05 Q-29.15 -23.15 -28.45 -18.85 L-28.15 -15.1 M-26.65 -19.9 Q-27.05 -21.7 -28.2 -22.9 -29.4 -24.1 -31.0 -24.35 -30.2 -25.3 -28.65 -24.7 -27.75 -24.35 -26.2 -23.4 -24.35 -22.5 -21.4 -21.85 L-16.4 -20.75 -14.35 -11.0 -13.65 -7.95 Q-18.7 -8.3 -24.5 -11.1 -26.1 -11.9 -26.35 -15.1 -26.35 -18.7 -26.65 -19.9 M-25.65 -6.45 Q-24.4 -5.7 -24.65 -4.95 L-25.9 -0.4 Q-28.75 9.8 -30.8 18.55 -33.8 31.35 -33.4 39.9 -33.2 44.15 -31.55 49.0 L-30.2 53.65 Q-29.75 56.0 -30.2 58.35 -30.35 59.2 -29.35 59.75 -28.4 60.35 -28.2 59.35 -27.6 56.0 -28.5 52.6 -25.1 51.15 -21.5 46.2 -18.3 41.9 -16.9 36.4 L-16.85 36.25 Q-14.05 36.55 -12.05 33.75 -10.1 30.95 -11.2 28.2 -8.55 26.5 -8.35 23.65 -8.2 21.05 -10.05 18.45 L-7.85 10.75 -5.9 14.95 Q-7.95 23.5 -9.45 28.55 -11.65 36.0 -14.15 41.75 -15.75 45.4 -19.85 50.45 -24.8 56.55 -26.15 58.75 -27.3 60.65 -28.25 63.5 L-29.7 68.5 -37.55 96.9 -42.45 114.7 -42.9 114.7 Q-44.15 115.3 -45.4 115.2 -46.7 115.05 -47.7 114.2 L-48.0 114.0 -46.15 106.75 -43.25 96.55 -40.35 86.4 Q-38.0 77.85 -35.65 67.7 L-34.3 62.05 Q-33.55 58.65 -33.65 56.25 -33.7 54.5 -34.95 51.6 L-36.75 47.1 Q-38.9 39.4 -36.7 27.85 -35.15 20.0 -29.95 -2.1 L-29.1 -5.85 -27.75 -6.75 Q-26.95 -7.15 -25.65 -6.45 M-9.05 8.2 L-11.5 17.0 -12.9 15.85 Q-18.15 12.3 -26.7 12.5 L-22.55 -2.85 -11.4 0.45 -8.9 7.95 -9.05 8.2 M-11.0 20.3 Q-8.7 24.3 -13.05 26.6 -14.0 27.1 -13.1 28.2 -12.05 29.6 -13.5 31.9 -15.0 34.15 -16.95 34.2 -15.4 31.95 -15.4 28.55 L-15.4 28.5 Q-14.35 27.35 -14.15 25.85 -13.95 24.25 -14.95 23.15 -15.6 22.45 -16.6 22.05 -13.7 19.65 -15.5 16.7 -16.0 15.8 -16.85 16.05 -17.7 16.25 -17.1 17.25 -16.3 18.65 -17.75 20.0 -18.8 20.95 -20.5 21.6 -21.3 21.9 -20.75 22.8 -20.25 23.7 -19.55 23.65 L-16.9 24.0 Q-15.25 24.45 -16.65 26.1 -17.95 27.65 -19.2 27.85 -21.3 28.15 -23.05 27.0 -24.85 25.85 -25.45 23.9 -26.3 21.2 -25.0 17.9 -24.75 17.15 -25.65 16.4 L-26.85 16.45 Q-28.05 19.55 -27.5 22.9 L-27.55 22.9 Q-28.35 23.6 -29.75 23.4 L-28.55 18.0 -27.65 15.6 -27.3 14.75 -25.3 14.95 -17.2 15.55 Q-13.05 16.7 -11.0 20.3 M-21.6 29.6 L-17.65 29.8 Q-18.0 31.7 -18.95 32.85 -20.3 34.6 -23.7 33.6 -24.65 33.4 -25.05 32.75 -23.15 31.95 -21.6 29.6 M-26.5 25.95 Q-25.7 27.6 -23.85 28.65 -25.0 30.15 -26.25 30.75 -27.9 31.7 -29.65 30.2 L-30.35 29.3 Q-30.4 29.0 -30.75 28.65 L-30.15 25.35 -26.8 25.2 -26.5 25.95 M-6.8 52.8 L-6.2 54.7 -4.6 58.75 Q-3.75 61.1 -4.0 62.95 L-4.35 65.25 Q-6.3 62.5 -6.95 59.25 -7.6 56.0 -6.8 52.8 M-5.1 -4.85 Q-3.15 -1.45 0.5 -0.35 L-1.25 7.1 Q-3.9 1.7 -5.1 -4.85"/></g></defs><g><g><use transform="matrix(3.12004089355,0.0,0.0,3.12004089355,48.0,43.45)" xlink:href="#c1"/></g></g></svg>