<?xml version='1.0' encoding='UTF-8'?>
<svg xmlns:xlink="http://www.w3.org/1999/xlink" xmlns="http://www.w3.org/2000/svg" version="1.1" width="401px" height="513px" viewBox="-7.33517608642 -443.100219726 400.635209656 513.033728027"><defs><g id="c9"><path fill="#ffffff" stroke="none" d="M52.8 -24.55 Q52.1 -22.3 50.1 -21.0 51.5 -24.8 52.35 -28.9 53.5 -26.85 52.8 -24.55 M27.3 -1.5 Q24.5 -0.8 22.05 -1.8 35.15 -5.7 39.8 -21.2 43.55 -33.8 41.0 -49.35 44.9 -45.85 47.6 -42.2 L51.05 -35.7 Q51.45 -34.0 51.35 -32.9 50.7 -27.25 48.55 -21.25 45.2 -11.9 38.15 -6.35 33.9 -3.0 27.3 -1.5 M13.6 -15.85 Q13.85 -15.5 14.45 -15.65 L15.3 -15.95 16.2 -15.7 17.2 -15.8 Q17.75 -16.25 17.15 -16.95 16.5 -17.65 15.3 -17.65 14.45 -17.65 13.85 -16.95 13.3 -16.3 13.6 -15.85 M10.45 -18.3 Q10.55 -17.8 11.05 -17.95 L12.7 -19.3 Q14.7 -20.55 16.4 -20.0 L20.35 -18.15 Q22.4 -17.0 22.9 -17.15 24.05 -17.5 21.2 -20.3 18.35 -23.1 15.2 -22.35 12.0 -21.6 10.8 -19.55 10.35 -18.8 10.45 -18.3 M10.45 -42.9 L10.8 -43.75 10.75 -44.5 Q10.45 -44.9 9.6 -44.0 7.9 -42.25 6.2 -41.7 L5.3 -41.5 Q5.0 -41.45 5.05 -41.0 L5.45 -40.45 Q6.0 -39.9 6.6 -39.8 6.6 -38.55 7.05 -37.7 7.5 -36.85 8.15 -36.8 9.55 -36.75 9.8 -39.8 9.9 -40.95 9.5 -41.9 L10.45 -42.9 M19.75 -41.85 Q20.0 -42.8 19.55 -42.95 19.05 -43.05 18.6 -42.15 L16.4 -38.2 13.9 -35.1 12.2 -33.2 11.9 -32.4 Q11.85 -31.95 12.05 -31.6 L14.15 -28.2 Q14.7 -27.5 15.65 -27.55 L16.5 -27.75 Q16.9 -27.8 17.05 -28.1 17.2 -28.4 16.95 -28.8 L15.25 -31.35 Q14.65 -32.15 15.2 -33.05 L17.5 -36.9 Q18.8 -39.25 19.75 -41.85 M30.55 -37.75 L30.55 -38.6 Q31.75 -38.4 32.85 -39.1 L33.7 -39.85 Q33.65 -40.35 32.95 -40.5 L31.55 -40.65 Q30.8 -40.7 29.6 -41.3 28.3 -42.0 27.2 -43.0 26.2 -43.85 26.0 -43.25 25.85 -42.95 25.95 -42.5 L26.3 -41.8 27.6 -40.3 Q26.95 -39.2 26.9 -38.05 26.8 -36.6 27.25 -35.6 27.7 -34.55 28.45 -34.5 29.2 -34.4 29.8 -35.35 30.45 -36.35 30.55 -37.75 M29.75 -57.8 L29.85 -57.7 38.75 -51.85 38.75 -51.55 Q41.1 -40.35 40.5 -31.35 39.8 -21.75 34.85 -13.95 29.25 -5.15 20.6 -3.05 18.3 -3.55 14.95 -5.15 L11.6 -7.2 Q8.7 -9.25 6.55 -12.0 L6.55 -11.95 Q2.0 -17.6 0.45 -25.25 -1.1 -32.75 0.7 -40.05 1.75 -44.05 3.6 -47.65 10.1 -53.95 23.85 -56.95 L29.75 -57.8 M25.8 -51.15 L27.05 -50.9 Q28.45 -50.65 29.25 -50.15 30.0 -49.75 30.95 -48.6 31.8 -47.65 32.05 -47.65 32.45 -48.9 30.6 -50.95 L28.65 -52.75 Q28.3 -53.0 26.95 -52.25 25.6 -51.5 25.8 -51.15 M11.4 -50.8 Q10.3 -51.75 10.05 -51.55 L8.55 -50.1 Q7.1 -48.45 7.45 -47.2 L8.3 -47.95 9.6 -49.15 11.35 -49.5 12.35 -49.6 Q12.5 -49.9 11.4 -50.8 M48.6 -66.7 Q50.6 -63.8 50.95 -62.45 43.75 -68.2 34.45 -70.4 25.9 -72.4 16.05 -71.25 19.95 -73.9 25.35 -74.9 L35.35 -75.2 Q41.1 -74.5 45.95 -70.05 L48.6 -66.7 M47.1 -55.2 Q54.25 -53.15 54.8 -51.9 57.0 -46.85 56.95 -42.05 56.95 -37.3 54.7 -32.4 L52.55 -37.0 Q51.65 -40.15 48.6 -44.15 46.4 -47.55 44.0 -50.0 40.9 -53.2 33.7 -57.65 L37.5 -57.3 Q41.6 -56.85 47.1 -55.2 M46.45 -63.05 Q52.75 -59.25 54.25 -54.8 42.95 -59.9 31.25 -59.4 L30.7 -59.4 30.55 -59.35 Q25.7 -59.1 20.65 -57.85 7.5 -54.45 1.05 -46.95 -0.4 -59.8 9.05 -66.75 12.3 -69.1 17.65 -69.75 L22.5 -69.95 Q29.05 -69.75 36.15 -67.6 41.75 -65.95 46.45 -63.05"/></g></defs><g><g><use transform="matrix(6.89561462402,0.0,0.0,6.89561462402,0.25,75.45)" xlink:href="#c9"/></g></g></svg>