<?xml version='1.0' encoding='UTF-8'?>
<svg xmlns:xlink="http://www.w3.org/1999/xlink" xmlns="http://www.w3.org/2000/svg" version="1.1" width="400px" height="521px" viewBox="-10.4010307312 -436.705677033 399.936407471 521.393605042"><defs><g id="c3"><path fill="#ffffff" stroke="none" d="M46.85 -32.0 Q46.8 -32.7 46.15 -33.5 L44.95 -34.5 Q44.45 -34.75 44.15 -34.25 43.85 -33.75 44.35 -33.45 L45.0 -32.85 Q45.65 -32.2 45.65 -31.75 45.7 -31.15 46.3 -31.2 46.9 -31.2 46.85 -32.0 M44.8 -38.35 Q44.35 -38.55 44.1 -38.05 43.8 -37.55 44.5 -37.1 L46.4 -35.75 47.95 -34.0 Q48.8 -33.0 48.9 -33.5 L48.45 -34.9 47.25 -36.6 Q46.1 -37.85 44.8 -38.35 M13.6 -15.85 Q13.85 -15.5 14.45 -15.65 L15.3 -15.95 16.2 -15.7 17.2 -15.8 Q17.75 -16.25 17.15 -16.95 16.5 -17.65 15.3 -17.65 14.45 -17.65 13.85 -16.95 13.3 -16.3 13.6 -15.85 M10.45 -18.35 Q10.55 -17.85 11.05 -18.0 L12.7 -19.35 Q14.7 -20.55 16.4 -20.0 L20.35 -18.15 Q22.4 -17.0 22.9 -17.15 24.05 -17.5 21.2 -20.3 18.35 -23.1 15.2 -22.35 12.0 -21.6 10.8 -19.55 10.35 -18.85 10.45 -18.35 M19.75 -41.85 Q20.0 -42.8 19.55 -42.95 19.05 -43.05 18.6 -42.15 L16.4 -38.25 13.9 -35.1 12.2 -33.2 11.9 -32.4 Q11.85 -31.95 12.05 -31.6 L14.15 -28.2 Q14.7 -27.5 15.65 -27.55 L16.5 -27.75 Q16.9 -27.8 17.05 -28.1 17.2 -28.4 16.95 -28.8 L15.2 -31.35 Q14.65 -32.15 15.2 -33.05 L17.5 -36.9 Q18.8 -39.25 19.75 -41.85 M10.8 -43.75 L10.75 -44.5 Q10.45 -44.9 9.6 -44.0 7.9 -42.25 6.2 -41.7 L5.3 -41.5 Q5.0 -41.45 5.05 -41.0 L5.45 -40.45 Q6.0 -39.9 6.6 -39.8 6.6 -38.55 7.05 -37.7 7.5 -36.85 8.15 -36.8 9.55 -36.75 9.8 -39.8 9.9 -40.95 9.5 -41.9 L10.45 -42.9 10.8 -43.75 M30.55 -37.75 L30.55 -38.6 Q31.75 -38.4 32.85 -39.1 L33.7 -39.85 Q33.65 -40.35 32.95 -40.5 L31.55 -40.65 Q30.8 -40.7 29.6 -41.3 28.3 -42.0 27.2 -43.0 26.2 -43.85 25.95 -43.25 L25.9 -42.5 26.3 -41.8 27.55 -40.3 Q27.0 -39.3 26.9 -38.05 26.8 -36.6 27.25 -35.6 27.7 -34.55 28.45 -34.5 29.2 -34.4 29.8 -35.35 30.45 -36.35 30.55 -37.75 M28.65 -52.75 Q28.3 -53.0 26.95 -52.25 25.6 -51.5 25.8 -51.15 L27.05 -50.9 Q28.45 -50.65 29.25 -50.15 30.0 -49.75 30.95 -48.6 31.8 -47.65 32.05 -47.65 32.45 -48.9 30.6 -50.95 L28.65 -52.75 M10.05 -51.55 L8.55 -50.1 Q7.1 -48.45 7.45 -47.2 L8.3 -47.95 9.6 -49.15 11.35 -49.5 12.35 -49.6 Q12.5 -49.9 11.4 -50.8 10.3 -51.75 10.05 -51.55 M0.4 -50.85 Q0.15 -52.9 0.85 -54.05 1.55 -55.25 2.55 -54.25 3.6 -53.2 4.85 -52.8 L1.75 -47.4 Q0.55 -49.65 0.4 -50.85 M40.6 -56.5 L45.05 -57.2 Q47.8 -57.45 48.85 -54.3 49.9 -51.0 45.65 -48.85 45.45 -48.85 45.2 -48.45 44.85 -47.95 45.5 -47.55 48.55 -45.55 50.05 -43.95 53.85 -40.05 53.55 -35.35 52.2 -39.05 49.9 -42.05 47.1 -45.35 46.0 -45.75 45.35 -46.05 45.05 -45.6 44.75 -45.2 45.3 -44.85 L46.5 -43.75 48.95 -41.25 Q51.2 -38.95 53.25 -34.25 L52.85 -33.3 Q51.3 -37.05 49.15 -39.3 47.35 -41.25 45.95 -41.85 45.4 -42.1 45.25 -41.45 45.1 -40.85 45.85 -40.35 L48.25 -38.4 50.7 -35.1 52.45 -32.3 52.3 -31.9 51.45 -31.7 Q50.7 -31.35 51.25 -30.5 54.85 -27.5 52.6 -23.4 50.4 -19.3 45.85 -20.05 41.05 -12.25 34.3 -8.25 32.5 -7.25 34.6 -7.3 36.7 -7.4 39.25 -9.0 38.5 -4.4 31.75 -1.55 25.25 1.25 22.15 -1.05 L25.45 -1.5 Q28.0 -2.1 27.85 -2.55 L24.7 -2.45 Q20.45 -2.55 15.2 -5.15 6.2 -9.6 2.25 -19.95 -1.55 -29.8 1.0 -40.0 2.55 -46.35 6.75 -52.65 8.6 -52.85 10.75 -54.45 L13.4 -57.45 Q15.8 -60.25 16.6 -60.65 17.55 -61.1 19.25 -60.35 L20.95 -59.45 Q22.4 -58.75 24.05 -59.05 25.25 -59.25 27.15 -60.2 L31.35 -60.35 Q33.8 -59.5 35.7 -57.1 37.2 -55.3 40.6 -56.5 M47.2 -67.5 Q49.75 -63.85 50.0 -63.75 51.9 -62.85 53.9 -59.7 55.35 -57.4 56.3 -54.9 58.05 -50.45 56.55 -43.35 55.75 -39.85 54.65 -37.2 53.9 -41.5 51.05 -44.55 L47.3 -47.9 Q48.95 -49.0 50.15 -50.35 51.75 -52.2 51.6 -53.6 51.4 -55.85 50.15 -57.3 48.45 -59.4 45.2 -59.1 L41.45 -57.9 Q39.05 -57.0 38.3 -57.2 L34.7 -61.2 Q31.6 -64.65 29.75 -63.9 L26.3 -62.0 23.8 -60.65 22.0 -60.5 20.65 -61.25 18.5 -62.25 Q17.35 -62.5 15.7 -61.65 14.7 -61.15 12.25 -58.35 L9.7 -55.5 Q8.05 -54.2 6.4 -53.95 4.55 -53.7 3.35 -54.95 1.6 -56.8 1.05 -59.7 0.5 -62.5 1.4 -64.6 2.15 -66.3 3.45 -67.45 3.15 -65.6 4.35 -64.55 5.95 -63.15 8.15 -63.3 10.3 -63.5 11.9 -65.15 16.5 -70.1 18.35 -70.45 19.8 -70.75 22.3 -69.8 L25.2 -69.9 27.05 -72.25 Q29.85 -76.2 31.05 -76.3 32.55 -76.45 34.85 -74.7 L36.15 -73.6 Q36.95 -72.95 37.65 -72.65 40.4 -71.6 42.0 -71.3 44.9 -70.8 47.2 -67.5"/></g></defs><g><g><use transform="matrix(6.71034240723,0.0,0.0,6.71034240723,0.0,76.3)" xlink:href="#c3"/></g></g></svg>