<?xml version='1.0' encoding='UTF-8'?>
<svg xmlns:xlink="http://www.w3.org/1999/xlink" xmlns="http://www.w3.org/2000/svg" version="1.1" width="406px" height="521px" viewBox="-9.50245513915 -436.924983215 405.543823242 521.123812866"><defs><g id="c7"><path fill="#ffffff" stroke="none" d="M45.7 -31.75 Q45.75 -31.15 46.35 -31.2 46.95 -31.2 46.9 -32.0 46.85 -32.75 46.15 -33.5 L45.0 -34.5 Q44.5 -34.75 44.2 -34.25 43.9 -33.75 44.35 -33.45 L45.05 -32.85 45.7 -31.75 M44.85 -38.35 Q44.4 -38.55 44.15 -38.05 43.85 -37.55 44.55 -37.1 L46.45 -35.75 48.0 -34.0 Q48.8 -33.0 48.95 -33.5 L48.5 -34.9 47.25 -36.6 Q46.1 -37.9 44.85 -38.35 M20.75 -20.8 Q22.65 -20.4 24.2 -19.6 L24.2 -16.4 20.75 -17.4 20.75 -20.8 M25.2 -16.05 L25.2 -19.0 Q27.55 -17.3 28.25 -14.7 L25.2 -16.05 M19.75 -20.95 L19.75 -17.6 15.1 -18.2 15.1 -20.8 19.75 -20.95 M20.2 -22.65 Q16.1 -22.95 12.15 -21.45 8.05 -19.9 5.95 -17.15 5.5 -16.6 5.85 -16.25 5.95 -15.9 6.45 -16.0 12.2 -17.05 18.0 -16.05 24.0 -15.05 28.85 -12.1 29.3 -11.8 29.75 -12.35 L30.2 -13.3 Q30.15 -21.95 20.2 -22.65 M16.2 -36.25 Q14.05 -34.0 13.4 -32.9 12.0 -30.65 12.8 -28.9 13.65 -27.1 15.3 -26.7 L17.65 -26.95 Q18.5 -27.35 17.95 -31.0 17.4 -34.65 16.2 -36.25 M4.5 -43.2 Q3.4 -41.55 4.1 -38.25 4.8 -34.9 7.25 -34.2 9.7 -33.5 12.0 -36.15 14.75 -39.2 14.45 -43.45 14.15 -48.0 9.65 -46.35 5.6 -44.85 4.5 -43.2 M10.75 -43.7 Q12.65 -43.3 11.8 -39.8 10.95 -36.75 9.1 -37.15 8.05 -37.35 7.55 -38.5 7.1 -39.6 7.45 -40.95 7.8 -42.35 8.75 -43.15 9.75 -43.95 10.75 -43.7 M29.6 -43.6 Q22.55 -47.25 21.35 -42.45 20.25 -38.25 23.15 -34.1 25.3 -31.05 28.7 -31.2 32.05 -31.35 34.1 -34.45 36.15 -37.55 35.3 -39.3 34.4 -41.1 29.6 -43.6 M24.85 -38.05 Q24.85 -41.25 27.3 -41.25 28.7 -41.25 29.7 -40.25 30.7 -39.25 30.7 -37.85 30.7 -36.45 29.7 -35.45 28.7 -34.45 27.3 -34.45 24.85 -34.45 24.85 -38.05 M1.85 -54.2 L4.9 -52.8 Q3.45 -50.7 2.15 -48.05 0.05 -50.25 1.85 -54.2 M45.4 -60.95 Q45.2 -61.7 44.25 -61.45 43.35 -61.2 42.6 -60.15 41.85 -59.15 41.7 -58.4 41.5 -57.7 42.2 -57.5 42.9 -57.3 43.15 -57.95 L43.7 -58.9 Q44.3 -59.9 44.85 -60.05 45.6 -60.25 45.4 -60.95 M42.55 -64.65 L40.8 -62.7 Q39.55 -60.95 39.3 -59.25 39.15 -58.65 39.85 -58.45 40.6 -58.25 40.95 -59.2 L41.3 -60.15 42.05 -61.9 43.8 -64.25 Q44.8 -65.55 44.15 -65.6 43.65 -65.65 42.55 -64.65 M51.95 -64.2 Q51.45 -64.0 51.25 -63.45 51.0 -62.85 51.5 -62.6 56.5 -59.75 58.35 -57.15 56.85 -57.5 55.0 -57.2 L54.25 -56.65 Q53.9 -56.15 54.1 -55.75 56.35 -51.25 56.65 -47.6 56.95 -44.15 55.6 -39.8 L54.7 -37.2 Q53.95 -41.5 51.1 -44.55 L48.4 -47.05 46.4 -48.5 46.3 -52.7 Q46.05 -55.2 45.2 -56.6 L44.05 -56.65 Q43.25 -56.1 43.6 -55.5 44.35 -54.2 44.6 -51.95 L44.7 -48.05 46.7 -46.75 Q49.0 -45.35 50.1 -43.95 53.85 -39.25 53.6 -35.35 52.25 -39.05 49.9 -42.05 47.2 -45.3 46.05 -45.75 45.4 -46.05 45.1 -45.6 44.8 -45.2 45.3 -44.85 L46.55 -43.75 49.0 -41.25 Q51.2 -38.95 53.25 -34.25 L52.9 -33.3 Q51.35 -37.05 49.2 -39.3 47.4 -41.25 46.0 -41.85 45.45 -42.1 45.3 -41.45 45.15 -40.85 45.9 -40.35 L48.3 -38.4 50.75 -35.1 52.5 -32.3 52.35 -31.9 51.5 -31.7 Q50.75 -31.35 51.25 -30.5 54.85 -27.5 52.65 -23.4 50.45 -19.3 45.9 -20.05 41.1 -12.25 34.35 -8.25 32.55 -7.25 34.65 -7.3 36.75 -7.4 39.3 -9.0 38.55 -4.4 31.8 -1.55 25.3 1.25 22.2 -1.05 L25.5 -1.5 Q28.05 -2.1 27.9 -2.55 L24.75 -2.45 Q20.5 -2.55 15.25 -5.15 13.65 -5.95 11.9 -7.2 9.05 -9.25 6.85 -11.95 2.3 -17.6 0.75 -25.2 -0.8 -32.75 1.0 -40.0 1.95 -43.75 4.75 -49.15 8.95 -57.25 13.95 -60.85 19.15 -64.55 26.5 -64.05 32.85 -63.65 36.85 -60.7 L37.85 -60.75 Q38.3 -61.05 38.4 -61.6 39.4 -66.6 42.65 -67.85 43.35 -68.15 43.35 -68.9 43.35 -69.7 42.45 -69.4 38.6 -67.95 37.15 -62.9 29.3 -67.85 19.65 -65.25 10.05 -62.65 5.85 -54.45 3.6 -54.7 1.05 -56.55 -0.75 -57.85 -1.65 -59.0 0.4 -59.25 2.2 -60.1 L2.8 -60.65 Q3.1 -61.05 2.9 -61.45 1.25 -65.2 0.85 -68.6 L3.25 -67.45 Q3.75 -67.25 4.25 -67.7 4.65 -68.15 4.65 -68.65 4.7 -72.35 7.95 -74.65 7.0 -72.1 7.45 -69.35 7.5 -68.85 8.05 -68.9 8.5 -68.9 8.8 -69.25 10.9 -71.8 12.65 -72.35 10.5 -69.25 12.15 -66.15 12.35 -65.8 12.8 -65.85 L13.45 -66.2 Q14.75 -67.8 17.25 -68.4 20.75 -69.2 21.45 -69.55 22.55 -70.1 25.3 -73.1 27.65 -75.6 29.6 -75.75 31.15 -75.85 33.25 -74.55 L36.4 -72.2 36.9 -71.7 37.55 -71.55 Q43.75 -73.05 46.05 -69.85 46.3 -69.6 46.65 -69.7 48.35 -70.2 49.35 -71.45 49.6 -69.6 48.7 -67.05 L48.7 -66.4 49.15 -66.1 Q51.6 -66.1 54.35 -65.1 L51.95 -64.2"/></g></defs><g><g><use transform="matrix(6.7590637207,0.0,0.0,6.7590637207,1.65,75.75)" xlink:href="#c7"/></g></g></svg>