<?xml version='1.0' encoding='UTF-8'?>
<svg xmlns:xlink="http://www.w3.org/1999/xlink" xmlns="http://www.w3.org/2000/svg" version="1.1" width="395px" height="521px" viewBox="-5.36827392578 -436.705677033 394.903650665 521.393605042"><defs><g id="c5"><path fill="#ffffff" stroke="none" d="M46.85 -32.0 Q46.85 -32.6 46.15 -33.5 L44.95 -34.5 Q44.45 -34.75 44.15 -34.25 43.85 -33.75 44.35 -33.45 L45.0 -32.85 Q45.65 -32.2 45.7 -31.75 45.75 -31.15 46.35 -31.2 46.9 -31.2 46.85 -32.0 M44.85 -38.35 Q44.4 -38.55 44.15 -38.05 43.85 -37.55 44.5 -37.1 L46.4 -35.75 48.0 -34.0 Q48.8 -33.0 48.95 -33.5 49.0 -33.9 48.45 -34.9 L47.25 -36.6 Q46.15 -37.85 44.85 -38.35 M17.25 -19.0 Q18.95 -19.9 19.95 -20.05 L19.6 -18.55 Q19.0 -16.75 19.25 -15.75 19.65 -13.85 19.15 -11.7 18.5 -8.9 16.6 -8.45 14.5 -8.0 12.85 -9.2 11.35 -10.3 10.8 -12.15 10.35 -13.8 11.1 -16.1 11.8 -18.25 12.8 -18.85 L13.8 -19.25 13.75 -18.6 12.55 -16.05 Q11.75 -13.65 12.95 -12.45 13.35 -12.05 13.55 -13.65 13.8 -15.85 14.45 -16.75 15.25 -17.9 17.25 -19.0 M17.45 -38.8 Q19.0 -40.65 20.2 -42.85 20.7 -43.6 20.2 -43.8 19.7 -44.0 19.25 -43.25 L16.7 -40.15 14.05 -37.8 12.25 -36.35 Q11.55 -35.85 11.85 -35.0 L13.15 -31.65 Q13.75 -30.5 15.15 -30.9 L15.7 -31.15 15.7 -31.75 14.6 -34.25 14.5 -35.05 Q14.6 -35.5 14.85 -35.75 L17.45 -38.8 M12.9 -43.2 Q12.45 -44.45 12.1 -44.3 10.45 -43.85 8.65 -42.45 L6.65 -40.65 Q6.3 -40.2 7.05 -39.95 L8.2 -39.85 12.75 -41.7 Q13.35 -41.95 12.9 -43.2 M31.15 -38.85 L32.55 -38.1 Q33.25 -37.7 33.55 -37.85 34.0 -38.05 32.85 -39.6 L30.65 -41.8 Q28.05 -43.5 27.4 -42.85 27.05 -42.5 26.85 -41.65 26.65 -40.9 26.75 -40.45 26.9 -39.95 28.65 -39.5 L31.15 -38.85 M32.85 -49.75 Q32.2 -51.15 30.45 -51.9 28.5 -52.75 28.2 -51.0 28.0 -49.65 29.3 -49.35 31.1 -48.85 31.35 -48.6 L32.9 -46.45 Q33.85 -45.1 34.15 -45.25 34.8 -45.6 32.85 -49.75 M17.25 -52.2 L14.4 -52.05 Q12.7 -51.25 11.15 -49.4 9.65 -47.6 10.25 -47.4 10.5 -47.3 11.6 -48.35 L13.45 -49.8 16.1 -50.15 Q17.8 -50.35 18.0 -50.85 18.35 -51.65 17.25 -52.2 M0.45 -50.85 Q0.2 -52.9 0.9 -54.05 1.55 -55.25 2.55 -54.25 3.6 -53.2 4.85 -52.8 L1.75 -47.4 Q0.55 -49.65 0.45 -50.85 M40.65 -56.5 L45.05 -57.2 Q47.8 -57.45 48.85 -54.3 49.9 -51.0 45.65 -48.85 45.45 -48.85 45.2 -48.45 44.85 -47.95 45.5 -47.55 48.55 -45.55 50.1 -43.95 53.85 -40.0 53.55 -35.35 52.2 -39.05 49.9 -42.05 47.1 -45.35 46.05 -45.75 45.4 -46.05 45.1 -45.6 44.8 -45.2 45.3 -44.85 L46.5 -43.75 49.0 -41.25 Q51.2 -38.95 53.25 -34.25 L52.9 -33.3 Q51.15 -37.2 49.15 -39.3 47.25 -41.3 45.95 -41.85 45.35 -42.1 45.25 -41.45 45.15 -40.85 45.9 -40.35 L48.25 -38.4 Q49.8 -36.75 52.45 -32.3 L52.3 -31.9 51.45 -31.7 Q50.7 -31.35 51.25 -30.5 54.85 -27.5 52.65 -23.4 50.4 -19.3 45.9 -20.05 41.1 -12.25 34.35 -8.25 32.5 -7.25 34.6 -7.3 36.7 -7.4 39.3 -9.0 38.55 -4.4 31.8 -1.55 25.25 1.25 22.15 -1.05 L25.45 -1.5 Q28.0 -2.1 27.85 -2.55 L24.7 -2.45 Q20.5 -2.55 15.25 -5.15 L13.15 -6.35 13.25 -6.35 16.65 -6.6 Q18.2 -7.1 19.1 -8.25 21.05 -10.6 20.95 -13.05 L20.6 -16.15 Q20.45 -17.65 21.35 -18.9 23.8 -22.2 24.15 -23.55 24.25 -23.9 25.7 -24.5 L27.15 -25.0 27.95 -24.2 Q28.8 -23.45 29.15 -23.75 29.6 -24.15 29.45 -25.0 29.3 -25.95 28.35 -26.85 26.3 -28.8 25.4 -28.0 25.05 -27.7 25.35 -26.95 L25.7 -26.25 Q24.05 -24.95 23.25 -25.1 L21.15 -25.5 Q19.3 -25.9 18.1 -26.5 16.35 -27.4 14.35 -27.8 11.9 -28.35 10.25 -27.85 L7.15 -26.85 5.7 -26.2 Q5.6 -26.0 6.45 -25.65 L7.9 -25.0 Q9.55 -23.8 10.95 -20.0 L9.8 -17.4 Q8.7 -14.6 8.9 -13.35 9.1 -12.15 9.65 -10.65 10.3 -8.9 11.15 -7.75 8.75 -9.6 6.8 -11.95 2.25 -17.6 0.7 -25.2 -0.8 -32.75 1.0 -40.0 2.5 -46.2 6.75 -52.65 8.75 -52.9 10.75 -54.45 L13.4 -57.45 Q15.8 -60.25 16.6 -60.65 17.55 -61.1 19.25 -60.35 L20.95 -59.45 Q22.4 -58.75 24.05 -59.05 25.25 -59.25 27.15 -60.2 L31.4 -60.35 Q33.85 -59.5 35.75 -57.1 36.6 -56.0 38.1 -55.95 39.1 -55.95 40.65 -56.5 M47.2 -67.5 Q49.75 -63.85 50.0 -63.75 51.9 -62.85 53.9 -59.7 55.35 -57.4 56.3 -54.9 58.05 -50.45 56.55 -43.35 55.75 -39.85 54.65 -37.2 53.95 -41.45 51.1 -44.55 L47.3 -47.9 Q48.95 -49.0 50.15 -50.35 51.75 -52.2 51.6 -53.6 51.4 -55.85 50.15 -57.3 48.45 -59.4 45.2 -59.1 L41.45 -57.9 Q39.05 -57.0 38.3 -57.2 L34.7 -61.2 Q31.65 -64.65 29.75 -63.9 L26.3 -62.0 23.8 -60.65 22.0 -60.5 20.65 -61.25 18.5 -62.25 Q17.4 -62.5 15.75 -61.65 14.7 -61.15 12.25 -58.35 L9.75 -55.5 Q8.05 -54.2 6.4 -53.95 4.55 -53.7 3.35 -54.95 1.6 -56.8 1.05 -59.7 0.5 -62.5 1.4 -64.6 2.15 -66.3 3.45 -67.45 3.25 -65.5 4.35 -64.55 6.0 -63.15 8.15 -63.3 10.3 -63.5 11.9 -65.15 16.5 -70.1 18.35 -70.45 19.8 -70.75 22.3 -69.8 L25.2 -69.9 27.05 -72.25 29.05 -74.8 Q30.25 -76.25 31.05 -76.3 32.55 -76.45 34.85 -74.7 L36.15 -73.6 Q36.95 -72.95 37.65 -72.65 40.4 -71.6 42.0 -71.3 44.9 -70.8 47.2 -67.5"/></g></defs><g><g><use transform="matrix(6.71034240723,0.0,0.0,6.71034240723,0.0,76.3)" xlink:href="#c5"/></g></g></svg>