<?xml version='1.0' encoding='UTF-8'?>
<svg xmlns:xlink="http://www.w3.org/1999/xlink" xmlns="http://www.w3.org/2000/svg" version="1.1" width="401px" height="513px" viewBox="-5.51649169922 -443.100219726 400.635209656 513.033728027"><defs><g id="c13"><path fill="#ffffff" stroke="none" d="M53.1 -24.55 Q52.4 -22.3 50.4 -21.0 51.8 -24.8 52.65 -28.9 53.8 -26.85 53.1 -24.55 M27.55 -1.5 Q24.8 -0.8 22.35 -1.8 35.45 -5.7 40.1 -21.2 43.85 -33.8 41.3 -49.35 45.2 -45.85 47.9 -42.2 49.4 -39.75 51.35 -35.7 51.75 -34.0 51.65 -32.9 51.0 -27.25 48.85 -21.25 45.45 -11.9 38.4 -6.35 34.25 -3.05 27.55 -1.5 M24.2 -19.6 L24.2 -16.4 20.75 -17.4 20.75 -20.8 Q22.7 -20.4 24.2 -19.6 M25.2 -16.05 L25.2 -19.0 Q27.55 -17.4 28.2 -14.7 L25.2 -16.05 M15.05 -20.8 L19.75 -20.95 19.75 -17.6 15.05 -18.2 15.05 -20.8 M20.15 -22.65 Q16.05 -22.95 12.1 -21.45 8.0 -19.9 5.9 -17.15 5.5 -16.65 5.8 -16.25 5.95 -15.95 6.45 -16.0 12.2 -17.05 17.95 -16.05 23.95 -15.05 28.8 -12.1 29.3 -11.8 29.75 -12.35 L30.2 -13.3 Q30.15 -21.95 20.15 -22.65 M17.95 -31.0 Q17.35 -34.65 16.2 -36.25 14.05 -34.05 13.35 -32.9 11.95 -30.65 12.75 -28.9 13.6 -27.15 15.25 -26.7 L17.65 -26.95 Q18.5 -27.35 17.95 -31.0 M9.6 -46.35 Q5.6 -44.85 4.45 -43.2 3.4 -41.55 4.1 -38.25 4.8 -34.9 7.25 -34.2 9.7 -33.5 12.0 -36.15 14.7 -39.2 14.4 -43.5 14.1 -48.05 9.6 -46.35 M10.75 -43.75 Q12.6 -43.3 11.75 -39.8 11.0 -36.75 9.05 -37.15 8.05 -37.35 7.55 -38.5 7.05 -39.6 7.4 -41.0 7.8 -42.35 8.75 -43.15 9.7 -43.95 10.75 -43.75 M29.6 -43.6 Q22.55 -47.25 21.35 -42.45 20.25 -38.3 23.15 -34.1 25.25 -31.05 28.7 -31.2 32.05 -31.35 34.05 -34.45 36.1 -37.6 35.25 -39.3 34.4 -41.1 29.6 -43.6 M24.8 -38.05 Q24.8 -41.25 27.25 -41.25 28.7 -41.25 29.65 -40.25 30.65 -39.25 30.65 -37.85 30.65 -36.45 29.65 -35.45 28.65 -34.45 27.25 -34.45 24.8 -34.45 24.8 -38.05 M30.05 -57.8 L30.15 -57.7 39.05 -51.85 39.05 -51.55 Q41.4 -40.3 40.75 -31.35 40.1 -21.75 35.1 -13.95 29.55 -5.15 20.9 -3.05 18.6 -3.55 15.25 -5.15 13.65 -5.95 11.9 -7.2 9.0 -9.25 6.85 -12.0 L6.85 -11.95 Q2.3 -17.6 0.7 -25.25 -0.8 -32.75 1.0 -40.05 1.9 -43.75 3.9 -47.65 10.4 -53.95 24.15 -56.95 L30.05 -57.8 M48.9 -66.7 Q50.9 -63.8 51.25 -62.45 37.15 -73.65 16.35 -71.25 20.25 -73.9 25.65 -74.9 L35.65 -75.2 Q41.45 -74.45 46.2 -70.05 47.05 -69.3 48.9 -66.7 M47.4 -55.2 Q54.55 -53.15 55.1 -51.9 57.3 -46.85 57.25 -42.05 57.25 -37.3 55.0 -32.4 L52.85 -37.0 Q51.95 -40.15 48.9 -44.15 46.7 -47.55 44.3 -50.0 41.05 -53.3 34.0 -57.65 L37.8 -57.3 Q41.9 -56.85 47.4 -55.2 M46.75 -63.05 Q53.05 -59.25 54.55 -54.8 43.2 -59.9 31.55 -59.4 L31.0 -59.4 30.85 -59.35 Q26.0 -59.1 20.95 -57.85 7.8 -54.45 1.35 -46.95 -0.1 -59.8 9.35 -66.75 12.6 -69.1 17.95 -69.75 L22.8 -69.95 Q29.35 -69.75 36.45 -67.6 42.05 -65.95 46.75 -63.05"/></g></defs><g><g><use transform="matrix(6.89561462402,0.0,0.0,6.89561462402,0.0,75.45)" xlink:href="#c13"/></g></g></svg>