<?xml version='1.0' encoding='UTF-8'?>
<svg xmlns:xlink="http://www.w3.org/1999/xlink" xmlns="http://www.w3.org/2000/svg" version="1.1" width="401px" height="513px" viewBox="-5.86127243042 -436.025482177 400.635209656 513.033728027"><defs><g id="c11"><path fill="#ffffff" stroke="none" d="M20.15 -42.65 L19.2 -42.1 16.65 -39.0 14.0 -36.65 12.2 -35.2 11.8 -34.55 11.8 -33.8 13.1 -30.5 Q13.7 -29.35 15.15 -29.7 15.95 -29.8 15.65 -30.6 L14.55 -33.1 Q14.2 -33.9 14.8 -34.6 L17.4 -37.65 Q18.95 -39.5 20.15 -41.65 20.6 -42.45 20.15 -42.65 M12.85 -42.05 Q12.4 -43.3 12.05 -43.15 10.4 -42.7 8.6 -41.3 L6.6 -39.45 Q6.25 -39.0 7.05 -38.75 L8.2 -38.7 12.7 -40.5 Q13.3 -40.75 12.85 -42.05 M25.35 -26.85 Q25.0 -26.55 25.3 -25.75 L25.65 -25.05 Q24.0 -23.8 23.2 -23.95 L21.1 -24.35 Q19.3 -24.75 18.1 -25.35 16.3 -26.2 14.3 -26.65 11.85 -27.15 10.2 -26.65 5.85 -25.3 5.65 -25.0 5.55 -24.8 6.4 -24.5 L7.85 -23.85 Q9.55 -22.65 10.9 -18.85 L9.9 -16.25 Q8.9 -13.4 9.0 -12.1 9.2 -10.6 10.0 -9.2 10.95 -7.5 12.55 -6.6 13.8 -5.95 15.6 -5.9 17.7 -5.85 19.0 -6.9 19.95 -7.65 20.5 -9.45 L20.95 -11.9 20.55 -15.0 Q20.4 -16.5 21.3 -17.7 23.7 -20.95 24.1 -22.35 24.2 -22.7 25.65 -23.3 L27.1 -23.8 Q28.6 -22.1 29.1 -22.6 29.55 -23.05 29.45 -23.85 29.25 -24.8 28.3 -25.7 26.2 -27.65 25.35 -26.85 M32.85 -38.4 L30.6 -40.65 Q28.0 -42.3 27.35 -41.65 27.0 -41.3 26.8 -40.5 26.6 -39.7 26.7 -39.3 26.85 -38.8 28.6 -38.3 L31.1 -37.65 32.5 -36.95 Q33.2 -36.55 33.55 -36.7 33.95 -36.9 32.85 -38.4 M27.2 -51.05 Q25.85 -50.3 26.05 -49.95 L27.3 -49.7 29.55 -48.95 31.25 -47.4 32.3 -46.45 Q32.7 -47.7 30.85 -49.75 L28.9 -51.55 Q28.55 -51.8 27.2 -51.05 M30.0 -56.6 L30.1 -56.5 39.0 -50.65 39.0 -50.35 Q41.35 -39.15 40.75 -30.15 40.05 -20.55 35.1 -12.75 29.5 -3.95 20.85 -1.85 18.5 -2.4 15.2 -3.95 L11.85 -6.0 Q8.95 -8.05 6.8 -10.8 L6.8 -10.75 Q2.25 -16.4 0.7 -24.05 -0.85 -31.55 0.95 -38.85 1.95 -42.5 3.85 -46.45 10.3 -52.7 24.1 -55.75 L30.0 -56.6 M17.95 -49.7 Q18.3 -50.5 17.25 -51.05 L14.4 -50.9 Q12.7 -50.05 11.1 -48.2 9.6 -46.45 10.2 -46.2 10.45 -46.1 11.55 -47.2 L13.4 -48.65 16.05 -49.0 Q17.75 -49.15 17.95 -49.7 M46.7 -61.85 Q53.0 -58.05 54.5 -53.6 43.2 -58.7 31.5 -58.2 L31.0 -58.2 30.8 -58.15 Q25.95 -57.9 20.9 -56.65 7.75 -53.25 1.3 -45.75 -0.1 -58.65 9.3 -65.55 12.55 -67.9 17.9 -68.55 L22.75 -68.75 Q29.3 -68.55 36.4 -66.4 42.0 -64.75 46.7 -61.85 M47.35 -54.0 Q54.5 -51.95 55.05 -50.7 57.25 -45.65 57.2 -40.85 57.2 -36.1 54.95 -31.2 L52.8 -35.8 Q51.85 -39.1 48.9 -42.95 46.55 -46.45 44.25 -48.8 41.2 -51.95 34.0 -56.45 L37.75 -56.1 Q41.85 -55.65 47.35 -54.0 M48.85 -65.5 Q50.85 -62.6 51.2 -61.25 44.0 -67.0 34.7 -69.2 26.15 -71.2 16.3 -70.05 20.2 -72.7 25.6 -73.7 L35.6 -74.0 Q41.35 -73.3 46.2 -68.85 L48.85 -65.5 M12.75 -17.7 L13.75 -18.05 13.7 -17.45 12.55 -14.85 Q11.7 -12.5 12.9 -11.25 13.3 -10.85 13.5 -12.5 13.75 -14.7 14.4 -15.6 15.2 -16.7 17.2 -17.8 18.95 -18.75 19.9 -18.9 L19.6 -17.4 Q19.0 -15.55 19.2 -14.55 19.6 -12.7 19.1 -10.55 18.45 -7.75 16.55 -7.3 14.5 -6.85 12.8 -8.0 11.3 -9.1 10.8 -11.0 10.35 -12.65 11.05 -14.95 11.75 -17.1 12.75 -17.7 M53.05 -23.35 Q52.35 -21.1 50.35 -19.8 51.7 -23.2 52.6 -27.7 53.75 -25.65 53.05 -23.35 M27.55 -0.3 Q24.7 0.4 22.35 -0.6 35.45 -4.5 40.1 -20.0 43.85 -32.6 41.25 -48.15 45.15 -44.65 47.85 -41.0 L51.3 -34.5 Q51.75 -33.0 51.6 -31.7 50.95 -25.75 48.8 -20.05 45.45 -10.7 38.4 -5.15 34.15 -1.8 27.55 -0.3"/></g></defs><g><g><use transform="matrix(6.89561462402,0.0,0.0,6.89561462402,0.0,74.25)" xlink:href="#c11"/></g></g></svg>