<?xml version='1.0' encoding='UTF-8'?>
<svg xmlns:xlink="http://www.w3.org/1999/xlink" xmlns="http://www.w3.org/2000/svg" version="1.1" width="395px" height="521px" viewBox="-5.36827392578 -436.705677033 394.903650665 521.393605042"><defs><g id="c1"><path fill="#ffffff" stroke="none" d="M46.85 -32.0 Q46.85 -32.7 46.15 -33.5 L44.95 -34.5 Q44.45 -34.75 44.15 -34.25 43.9 -33.75 44.35 -33.45 L45.0 -32.85 Q45.65 -32.2 45.7 -31.75 45.75 -31.15 46.35 -31.2 46.9 -31.2 46.85 -32.0 M44.85 -38.35 Q44.4 -38.55 44.15 -38.05 43.85 -37.55 44.5 -37.1 L46.45 -35.75 48.0 -34.0 Q48.8 -33.0 48.95 -33.5 L48.5 -34.9 47.25 -36.6 Q46.15 -37.85 44.85 -38.35 M20.05 -17.85 L15.85 -17.65 Q13.25 -17.85 11.9 -18.4 L5.95 -21.2 Q5.3 -21.4 5.1 -22.35 4.95 -23.3 6.2 -23.1 L9.5 -22.15 Q13.35 -21.2 15.8 -21.15 19.75 -21.05 26.25 -22.95 27.85 -23.25 28.65 -22.45 29.25 -21.9 28.85 -21.35 28.55 -20.95 27.95 -20.7 22.15 -18.35 20.05 -17.85 M10.7 -40.4 Q10.9 -41.8 10.5 -42.85 10.1 -43.9 9.35 -44.0 8.6 -44.1 7.95 -43.2 7.3 -42.3 7.1 -40.9 6.9 -39.5 7.3 -38.45 7.7 -37.35 8.45 -37.3 9.2 -37.2 9.85 -38.1 10.5 -39.0 10.7 -40.4 M20.15 -42.75 Q19.6 -42.95 19.15 -42.0 L16.7 -38.25 14.1 -35.3 12.3 -33.45 Q11.6 -32.75 12.05 -31.85 L13.9 -28.35 Q14.45 -27.6 15.4 -27.6 L16.25 -27.75 16.8 -28.1 16.75 -28.75 15.15 -31.45 Q14.65 -32.35 15.25 -33.1 L17.75 -36.85 Q19.2 -39.1 20.25 -41.7 20.65 -42.55 20.15 -42.75 M27.05 -27.25 L26.55 -27.35 Q26.4 -27.25 26.5 -26.9 L26.95 -25.25 26.7 -24.45 Q26.35 -24.1 25.9 -24.0 18.8 -22.2 15.45 -22.15 13.35 -22.15 9.65 -23.1 L6.35 -24.05 5.75 -24.5 Q5.5 -24.85 5.55 -25.25 L5.65 -25.95 5.55 -26.45 Q5.4 -26.55 5.1 -26.25 L3.05 -24.2 Q2.4 -23.55 2.75 -22.6 L4.55 -19.1 Q4.75 -18.7 4.9 -18.75 L5.1 -19.2 5.1 -19.7 Q5.15 -20.1 5.45 -20.3 L6.15 -20.3 9.1 -18.15 Q12.65 -15.9 15.7 -15.55 18.75 -15.2 24.1 -17.55 26.75 -18.75 28.8 -20.0 L29.6 -19.95 30.2 -19.4 30.0 -17.15 30.4 -16.8 30.75 -17.2 32.15 -21.65 Q32.4 -22.55 31.65 -23.2 L27.05 -27.25 M31.55 -40.75 Q31.15 -41.8 30.4 -41.9 29.65 -42.0 28.95 -41.1 28.3 -40.2 28.1 -38.8 27.9 -37.4 28.3 -36.35 28.7 -35.25 29.45 -35.2 30.2 -35.1 30.9 -36.0 31.55 -36.9 31.75 -38.3 31.95 -39.7 31.55 -40.75 M32.7 -50.6 L32.0 -50.85 Q31.65 -50.8 31.4 -50.45 L30.6 -49.55 Q29.8 -48.6 29.95 -48.3 30.0 -48.2 30.85 -47.8 L32.65 -46.8 34.65 -45.35 Q35.75 -44.55 36.05 -44.55 36.5 -45.75 34.65 -48.3 L32.7 -50.6 M13.2 -50.1 L13.15 -51.1 12.8 -51.8 Q12.45 -52.0 12.0 -51.8 L7.95 -49.8 7.55 -49.4 Q7.55 -49.2 8.05 -49.15 L12.05 -48.95 Q12.6 -48.9 12.9 -49.25 13.25 -49.55 13.2 -50.1 M2.55 -54.25 Q3.6 -53.2 4.85 -52.8 3.05 -50.1 1.8 -47.4 0.6 -49.55 0.45 -50.85 0.2 -52.9 0.9 -54.05 1.55 -55.25 2.55 -54.25 M40.65 -56.5 L45.05 -57.2 Q47.85 -57.45 48.85 -54.3 49.95 -51.0 45.65 -48.85 45.45 -48.85 45.2 -48.45 44.85 -47.95 45.5 -47.55 48.55 -45.55 50.1 -43.95 53.8 -40.05 53.6 -35.35 52.0 -39.4 49.9 -42.05 47.1 -45.35 46.05 -45.75 45.4 -46.05 45.1 -45.6 44.8 -45.2 45.3 -44.85 L46.55 -43.75 49.0 -41.25 Q51.2 -38.95 53.25 -34.25 L52.9 -33.3 Q51.35 -36.95 49.15 -39.3 47.4 -41.3 45.95 -41.85 45.4 -42.1 45.25 -41.45 45.15 -40.85 45.9 -40.35 L48.3 -38.4 Q49.8 -36.75 52.45 -32.3 L52.3 -31.9 51.45 -31.7 Q50.7 -31.35 51.25 -30.5 54.85 -27.5 52.65 -23.4 50.4 -19.3 45.9 -20.05 41.1 -12.25 34.35 -8.25 32.55 -7.25 34.65 -7.3 36.7 -7.4 39.3 -9.0 38.55 -4.4 31.8 -1.55 25.25 1.25 22.15 -1.05 L25.45 -1.5 Q28.0 -2.1 27.9 -2.55 L24.75 -2.45 Q20.5 -2.55 15.25 -5.15 13.65 -5.95 11.9 -7.2 9.1 -9.2 6.8 -11.95 2.25 -17.6 0.7 -25.2 -0.8 -32.75 1.0 -40.0 2.5 -46.2 6.75 -52.65 8.65 -52.85 10.8 -54.45 L13.4 -57.45 Q15.8 -60.25 16.6 -60.65 17.55 -61.1 19.25 -60.35 L20.95 -59.45 Q22.4 -58.75 24.05 -59.05 25.25 -59.25 27.15 -60.2 L31.4 -60.35 Q33.85 -59.5 35.75 -57.1 37.2 -55.25 40.65 -56.5 M42.0 -71.3 Q44.95 -70.8 47.2 -67.5 L50.0 -63.75 Q51.9 -62.85 53.9 -59.7 55.35 -57.4 56.3 -54.9 58.05 -50.45 56.55 -43.35 55.75 -39.85 54.65 -37.2 53.9 -41.55 51.1 -44.55 L47.3 -47.9 Q48.95 -49.0 50.15 -50.35 51.8 -52.2 51.65 -53.6 51.4 -55.85 50.15 -57.3 48.45 -59.4 45.2 -59.1 L41.45 -57.9 Q39.05 -57.0 38.3 -57.2 L34.7 -61.2 Q31.65 -64.65 29.75 -63.9 L26.3 -62.0 23.8 -60.65 22.0 -60.5 20.65 -61.25 18.5 -62.25 Q17.4 -62.5 15.75 -61.65 14.7 -61.15 12.25 -58.35 L9.75 -55.5 Q8.05 -54.2 6.4 -53.95 4.55 -53.7 3.35 -54.95 1.6 -56.8 1.05 -59.7 0.5 -62.5 1.4 -64.6 2.15 -66.3 3.45 -67.45 3.25 -65.55 4.4 -64.55 6.0 -63.15 8.15 -63.3 10.3 -63.5 11.9 -65.15 16.7 -70.15 18.35 -70.45 19.8 -70.75 22.3 -69.8 L25.2 -69.9 Q25.85 -70.45 27.1 -72.25 29.9 -76.2 31.05 -76.3 32.65 -76.45 34.85 -74.7 L36.15 -73.6 Q36.95 -72.95 37.65 -72.65 40.4 -71.6 42.0 -71.3"/></g></defs><g><g><use transform="matrix(6.71034240723,0.0,0.0,6.71034240723,0.0,76.3)" xlink:href="#c1"/></g></g></svg>