<?xml version="1.0" encoding="iso-8859-1"?>
<!-- Generator: Adobe Illustrator 17.1.0, SVG Export Plug-In . SVG Version: 6.00 Build 0)  -->
<!DOCTYPE svg PUBLIC "-//W3C//DTD SVG 1.1//EN" "http://www.w3.org/Graphics/SVG/1.1/DTD/svg11.dtd">
<svg version="1.1" id="Capa_1" xmlns="http://www.w3.org/2000/svg" xmlns:xlink="http://www.w3.org/1999/xlink" x="0px" y="0px"
	 viewBox="0 0 439.658 439.658" style="enable-background:new 0 0 439.658 439.658;" xml:space="preserve">
<path fill="#FFFFFF" stroke="#000000" d="M295.87,378.749c3.386-0.075,6.023-3.71,6.023-8.336v-10.859c0-4.597-3.74-8.337-8.337-8.337h-37.301l11.712-119.715
	c9.248-0.6,18.206-7.691,18.206-20.734V107c0-13.008-25.285-21.922-45.052-26.346c10.212-7.959,16.93-21.344,16.93-36.488
	C258.052,19.813,240.687,0,219.342,0c-21.344,0-38.709,19.813-38.709,44.166c0,15.252,6.813,28.722,17.148,36.66
	c-19.649,4.479-44.294,13.331-44.294,26.174v103.768c0,13.043,8.958,20.135,18.206,20.734l11.711,119.715h-37.302
	c-4.597,0-8.337,3.74-8.337,8.337v10.859c0,4.627,2.637,8.262,6.024,8.336c0.326,0.229,0.995,1.33,0.995,3.096v27.186
	c0,1.766-0.669,2.866-0.995,3.096c-3.387,0.074-6.024,3.709-6.024,8.336v10.859c0,4.597,3.74,8.337,8.337,8.337h147.455
	c4.597,0,8.337-3.74,8.337-8.337v-10.859c0-4.626-2.637-8.261-6.023-8.336c-0.326-0.23-0.994-1.331-0.994-3.096v-27.186
	C294.876,380.08,295.544,378.979,295.87,378.749z"/>
<g>
</g>
<g>
</g>
<g>
</g>
<g>
</g>
<g>
</g>
<g>
</g>
<g>
</g>
<g>
</g>
<g>
</g>
<g>
</g>
<g>
</g>
<g>
</g>
<g>
</g>
<g>
</g>
<g>
</g>
</svg>
