<?xml version="1.0" encoding="iso-8859-1"?>
<!-- Generator: Adobe Illustrator 16.0.0, SVG Export Plug-In . SVG Version: 6.00 Build 0)  -->
<!DOCTYPE svg PUBLIC "-//W3C//DTD SVG 1.1//EN" "http://www.w3.org/Graphics/SVG/1.1/DTD/svg11.dtd">
<svg version="1.1" id="Capa_1" xmlns="http://www.w3.org/2000/svg" xmlns:xlink="http://www.w3.org/1999/xlink" x="0px" y="0px"
	 width="365.082px" height="365.081px" viewBox="0 0 365.082 365.081" style="enable-background:new 0 0 365.082 365.081;"
	 xml:space="preserve">
<g>
	<g>
		<rect fill="#FFFFFF" stroke="#000000" x="151.023" y="112.017" width="62.414" height="228.824"/>
		<path fill="#FFFFFF" stroke="#000000" d="M0,56.684v218.43c124.818,0,137.295,65.738,137.295,65.738V112.017C101.098,62.508,0,56.684,0,56.684z"/>
		<path fill="#FFFFFF" stroke="#000000" d="M227.783,109.727v228.831c0,0,12.483-65.739,137.299-65.739V54.395C365.082,54.395,263.983,60.219,227.783,109.727z"/>
		<path fill="#FFFFFF" stroke="#000000" d="M340.335,42.012l-23.852-17.783c0,0-113.033,16.398-135.195,42.898c-22.158-26.5-135.185-42.898-135.185-42.898
			L22.252,42.012C156.394,73.843,149.111,96.31,149.111,96.31h31.25h1.872h31.253C213.473,96.31,206.191,73.843,340.335,42.012z"/>
	</g>
</g>
<g>
</g>
<g>
</g>
<g>
</g>
<g>
</g>
<g>
</g>
<g>
</g>
<g>
</g>
<g>
</g>
<g>
</g>
<g>
</g>
<g>
</g>
<g>
</g>
<g>
</g>
<g>
</g>
<g>
</g>
</svg>
