<?xml version="1.0" encoding="UTF-8" standalone="no"?>
<svg xmlns:xlink="http://www.w3.org/1999/xlink" height="20.5px" width="20.5px" xmlns="http://www.w3.org/2000/svg">
  <g transform="matrix(1.0, 0.0, 0.0, 1.0, 10.25, 10.25)">
    <use data-characterId="188" height="20.5" transform="matrix(1.0, 0.0, 0.0, 1.0, -10.25, -10.25)" width="20.5" xlink:href="#shape0"/>
  </g>
  
    <g id="shape0" transform="matrix(1.0, 0.0, 0.0, 1.0, 10.25, 10.25)">
      <path d="M4.95 -10.15 Q5.0 -10.1 5.1 -10.05 5.15 -10.0 5.2 -9.9 5.2 -9.85 5.25 -9.8 5.3 -9.75 5.35 -9.65 5.35 -9.6 5.4 -9.5 5.4 -9.45 5.45 -9.4 5.45 -9.3 5.45 -9.25 5.5 -9.2 5.5 -9.1 5.6 -8.45 5.7 -7.8 5.75 -7.2 5.8 -6.55 5.85 -5.9 5.85 -5.25 5.85 -4.6 5.8 -4.0 5.8 -3.35 5.7 -2.7 5.65 -2.05 5.55 -1.45 5.45 -0.8 5.3 -0.2 5.2 0.45 5.05 1.05 4.95 1.5 4.85 1.95 4.75 2.4 4.7 2.85 4.6 3.35 4.55 3.8 4.5 4.25 4.5 4.7 4.45 5.15 4.45 5.6 4.45 6.1 4.45 6.55 4.5 7.0 4.5 7.45 4.55 7.95 4.65 8.4 4.65 8.5 4.65 8.6 4.65 8.65 4.65 8.75 4.65 8.85 4.6 8.9 4.55 9.0 4.5 9.05 4.5 9.1 4.4 9.2 4.35 9.25 4.3 9.3 4.2 9.35 4.15 9.4 4.05 9.45 3.95 9.5 3.75 9.6 3.55 9.65 3.35 9.75 3.15 9.8 2.95 9.85 2.75 9.9 2.55 9.95 2.35 10.0 2.15 10.05 1.95 10.05 1.75 10.1 1.55 10.1 1.35 10.15 1.15 10.15 0.95 10.15 0.75 10.15 0.45 10.15 0.2 10.15 -0.1 10.2 -0.4 10.15 -0.65 10.15 -0.95 10.15 -1.2 10.1 -1.5 10.1 -1.75 10.05 -2.0 10.0 -2.3 9.95 -2.55 9.9 -2.8 9.8 -3.05 9.75 -3.3 9.65 -3.6 9.55 -3.75 9.5 -3.85 9.45 -3.95 9.4 -4.05 9.35 -4.15 9.3 -4.2 9.2 -4.3 9.15 -4.35 9.05 -4.4 9.0 -4.4 8.9 -4.45 8.8 -4.45 8.7 -4.45 8.55 -4.45 8.4 -4.45 8.3 -4.45 8.1 -4.4 7.65 -4.35 7.15 -4.3 6.7 -4.3 6.25 -4.25 5.75 -4.3 5.3 -4.3 4.85 -4.35 4.35 -4.35 3.9 -4.4 3.45 -4.5 3.0 -4.55 2.5 -4.65 2.05 -4.75 1.6 -4.8 1.15 -4.95 0.7 -5.1 0.1 -5.2 -0.5 -5.3 -1.1 -5.4 -1.7 -5.45 -2.35 -5.55 -2.95 -5.6 -3.55 -5.6 -4.15 -5.6 -4.8 -5.6 -5.4 -5.6 -6.0 -5.55 -6.6 -5.55 -7.25 -5.45 -7.85 -5.4 -8.45 -5.3 -9.1 -5.3 -9.2 -5.25 -9.25 -5.25 -9.35 -5.25 -9.45 -5.2 -9.5 -5.2 -9.6 -5.15 -9.65 -5.15 -9.75 -5.1 -9.8 -5.05 -9.85 -5.05 -9.9 -5.0 -9.95 -4.95 -10.05 -4.85 -10.05 -4.8 -10.1 -4.75 -10.15 -1.45 -10.15 4.95 -10.15 L4.95 -10.15 M0.1 -9.3 Q-1.15 -9.3 -3.65 -9.3 -3.8 -9.3 -3.85 -9.3 -3.95 -9.3 -4.0 -9.3 -4.05 -9.25 -4.1 -9.25 -4.15 -9.25 -4.2 -9.2 -4.2 -9.15 -4.25 -9.1 -4.25 -9.05 -4.3 -9.0 -4.3 -8.95 -4.3 -8.85 -4.35 -8.75 -4.35 -8.6 -4.45 -8.05 -4.5 -7.5 -4.55 -6.9 -4.6 -6.35 -4.65 -5.8 -4.65 -5.25 -4.65 -4.7 -4.65 -4.1 -4.6 -3.55 -4.55 -3.0 -4.5 -2.45 -4.4 -1.9 -4.35 -1.35 -4.2 -0.8 -4.1 -0.25 -3.95 0.3 -3.8 0.85 -3.7 1.3 -3.6 1.85 -3.5 2.3 -3.4 2.85 -3.35 3.3 -3.3 3.85 -3.25 4.3 -3.2 4.85 -3.2 5.3 -3.15 5.85 -3.2 6.35 -3.2 6.85 -3.25 7.35 -3.3 7.9 -3.4 8.4 -3.4 8.45 -3.4 8.45 -3.35 8.5 -3.35 8.55 -3.3 8.6 -3.3 8.65 -3.25 8.65 -3.2 8.7 -3.15 8.7 -3.1 8.7 -2.7 8.85 -2.25 8.95 -1.85 9.05 -1.45 9.15 -1.0 9.2 -0.6 9.25 -0.2 9.3 0.25 9.3 0.65 9.3 1.05 9.25 1.45 9.2 1.85 9.15 2.3 9.05 2.7 8.95 3.1 8.85 3.5 8.7 3.55 8.7 3.55 8.65 3.6 8.65 3.6 8.65 3.65 8.6 3.65 8.6 3.7 8.55 3.7 8.55 3.7 8.5 3.75 8.45 3.75 8.45 3.75 8.4 3.75 8.35 3.75 8.3 3.75 8.25 3.75 8.2 3.6 5.35 3.65 4.25 3.75 2.9 4.35 0.4 4.5 -0.2 4.6 -0.75 4.7 -1.35 4.75 -1.95 4.8 -2.5 4.85 -3.1 4.9 -3.65 4.95 -4.25 4.95 -4.85 4.95 -5.4 4.95 -6.0 4.9 -6.6 4.85 -7.15 4.8 -7.75 4.75 -8.3 4.65 -8.9 4.65 -8.95 4.6 -9.0 4.6 -9.05 4.55 -9.1 4.55 -9.1 4.5 -9.15 4.5 -9.2 4.45 -9.2 4.45 -9.2 4.4 -9.25 4.4 -9.25 4.35 -9.25 4.3 -9.25 4.25 -9.3 4.2 -9.3 4.15 -9.3 2.8 -9.3 0.1 -9.3 L0.1 -9.3" fill="#ffffff" fill-rule="evenodd" stroke="none"/>
    </g>
  
</svg>
