<?xml version="1.0" encoding="UTF-8" standalone="no"?>
<svg xmlns:xlink="http://www.w3.org/1999/xlink" height="32.1px" width="31.95px" xmlns="http://www.w3.org/2000/svg">
  <g transform="matrix(1.0, 0.0, 0.0, 1.0, 15.95, 16.05)">
    <use data-characterId="165" height="32.0" transform="matrix(1.0, 0.0, 0.0, 1.0, -15.95, -15.95)" width="31.95" xlink:href="#shape0"/>
  </g>
  
    <g id="shape0" transform="matrix(1.0, 0.0, 0.0, 1.0, 15.95, 15.95)">
      <path d="M5.6 9.35 Q5.85 9.35 5.9 9.35 5.95 9.35 5.95 9.25 5.95 9.2 5.9 8.95 5.4 7.45 5.3 7.3 5.2 7.05 5.05 6.8 4.95 6.55 4.8 6.3 4.65 6.05 4.5 5.8 4.35 5.55 4.15 5.3 4.0 5.1 3.8 4.85 3.6 4.65 3.4 4.45 3.25 4.2 3.05 4.0 2.85 3.8 2.6 3.6 1.9 2.9 0.65 1.7 -0.75 0.35 -1.25 -0.2 -1.35 -0.25 -1.35 -0.3 -1.4 -0.3 -1.45 -0.4 -0.2 -0.6 0.2 -0.7 0.35 -0.7 0.5 -0.75 0.65 -0.8 0.8 -0.8 0.95 -0.85 1.05 -0.9 1.2 -0.95 1.35 -1.0 1.45 -1.1 1.6 -1.15 1.7 -1.25 1.8 -1.35 1.9 -1.45 2.05 -1.55 2.15 -1.65 2.2 -1.8 2.2 -1.85 2.3 -1.9 2.3 -1.9 2.4 -1.9 2.65 -1.9 2.95 -1.95 3.2 -1.95 3.45 -2.0 3.75 -2.05 4.0 -2.1 4.25 -2.15 4.5 -2.2 4.8 -2.25 5.05 -2.35 5.3 -2.4 5.55 -2.5 5.85 -2.6 6.1 -2.7 6.35 -2.8 6.6 -2.9 6.65 -2.9 6.7 -2.9 6.65 -2.9 6.75 -2.95 6.75 -3.0 6.8 -3.0 6.85 -3.05 6.85 -3.05 6.9 -3.1 6.95 -3.15 6.95 -3.2 7.0 -3.2 7.0 -3.25 7.0 -3.3 7.05 -3.35 7.05 -3.35 7.05 -3.4 7.05 -3.45 7.05 -3.5 7.05 -3.5 7.05 -3.55 7.0 -3.6 7.0 -3.65 6.95 -3.7 6.9 -3.75 6.9 -3.8 6.85 -3.85 6.8 -3.85 6.75 -3.9 6.7 -3.95 6.6 -3.95 6.55 -3.95 6.5 -3.95 6.4 -3.95 6.35 -3.95 6.25 -3.95 6.2 -3.9 6.1 -3.9 6.05 -3.9 6.0 -3.85 5.95 -3.85 5.9 -3.8 5.85 -3.8 5.75 -3.8 5.7 -3.75 5.65 -3.75 5.6 -3.75 5.55 -3.75 5.5 -3.7 5.45 -3.7 5.4 -3.7 5.35 -3.7 5.25 -3.7 5.2 -3.7 5.05 -3.7 4.85 -3.7 4.7 -3.7 4.55 -3.7 4.35 -3.7 4.2 -3.75 4.05 -3.75 3.85 -3.8 3.7 -3.8 3.55 -3.85 3.35 -3.85 3.2 -3.9 3.0 -3.95 2.85 -4.0 2.7 -4.05 2.5 -4.1 2.45 -4.1 2.45 -4.15 2.4 -4.15 2.4 -4.15 2.35 -4.2 2.35 -4.2 2.3 -4.25 2.3 -4.25 2.25 -4.25 2.25 -4.3 2.2 -4.3 2.2 -4.35 2.2 -4.4 2.15 -4.4 2.15 -4.45 2.1 -4.5 2.05 -4.7 1.95 -5.05 1.85 -5.5 1.8 -5.6 1.7 -5.7 1.6 -5.8 1.55 -5.8 1.5 -5.8 1.45 -5.8 1.35 -5.75 1.3 -5.75 1.25 -5.75 1.2 -5.75 1.1 -5.7 1.05 -5.7 1.0 -5.7 0.95 -5.65 0.85 -5.65 0.8 -5.65 0.75 -5.6 0.7 -5.6 0.6 -5.6 -1.2 -5.3 -1.35 -5.3 -1.65 -5.3 -2.15 -5.3 -3.35 -5.25 -3.85 -5.2 -3.9 -5.2 -3.95 -5.15 -4.05 -5.15 -4.1 -5.15 -4.15 -5.1 -4.25 -5.1 -4.3 -5.1 -4.35 -5.1 -4.45 -5.05 -4.5 -5.05 -4.55 -5.05 -4.65 -5.05 -4.7 -5.05 -4.75 -5.0 -4.8 -5.0 -4.85 -5.0 -5.25 -5.0 -6.05 -5.0 -6.05 -5.0 -6.05 -5.0 -6.05 -5.0 -6.05 -4.9 -6.2 -4.6 -6.3 -4.35 -6.45 -4.05 -6.55 -3.75 -6.6 -3.5 -6.65 -3.2 -6.7 -2.9 -6.75 -2.65 -6.75 -2.35 -6.75 -2.05 -6.75 -1.75 -6.7 -1.5 -6.65 -1.2 -6.55 -0.9 -6.5 -0.6 -6.35 -0.3 -6.25 -0.05 -6.15 0.2 -6.05 0.45 -5.9 0.7 -5.8 0.95 -5.65 1.15 -5.5 1.4 -5.35 1.6 -5.2 1.8 -5.05 2.05 -4.9 2.25 -4.75 2.45 -4.6 2.65 -4.4 2.9 -4.3 3.0 -4.05 3.3 -3.35 4.2 -1.95 6.0 -1.8 6.2 -1.65 6.4 -1.55 6.6 -1.4 6.8 -0.5 8.0 -1.1 7.15 -0.95 7.35 -0.85 7.5 -0.7 7.7 -0.6 7.85 -0.5 8.05 -0.4 8.25 -0.25 8.45 -0.15 8.7 -0.05 8.9 0.05 9.15 0.05 9.25 0.1 9.25 0.1 9.25 0.2 9.25 L5.6 9.35 5.6 9.35" fill="#ffffff" fill-rule="evenodd" stroke="none"/>
      <path d="M-1.45 -5.7 Q-1.75 -5.7 -2.35 -5.7 -2.4 -5.7 -2.45 -5.7 -2.45 -5.7 -2.5 -5.75 -2.5 -5.75 -2.55 -5.8 -2.55 -5.85 -2.55 -5.9 -2.55 -5.9 -2.55 -5.95 -2.55 -6.0 -2.55 -6.05 -2.55 -6.05 -2.55 -6.1 -2.55 -6.1 -2.55 -6.1 -2.55 -6.15 -2.6 -6.2 -2.6 -6.25 -2.6 -6.35 -2.65 -6.4 -2.65 -6.45 -2.65 -6.5 -2.65 -6.6 -2.65 -6.65 -2.65 -6.7 -2.65 -6.75 -2.65 -6.85 -2.65 -6.9 -2.65 -6.95 -2.65 -7.0 -2.65 -7.1 -2.65 -7.2 -2.65 -7.3 -2.65 -7.4 -2.65 -7.5 -2.65 -7.65 -2.65 -7.7 -2.65 -7.85 -2.65 -7.95 -2.65 -8.05 -2.65 -8.15 -2.65 -8.25 -2.65 -8.35 -2.6 -8.45 -2.6 -8.55 -2.6 -8.65 -2.55 -8.75 -2.55 -8.8 -2.55 -8.85 -2.55 -8.85 -2.55 -8.9 -2.55 -8.95 -2.55 -9.0 -2.5 -9.0 -2.5 -9.05 -2.5 -9.1 -2.5 -9.1 -2.45 -9.15 -2.45 -9.2 -2.45 -9.2 -2.4 -9.25 -2.4 -9.25 -2.35 -9.25 -2.35 -9.3 -2.3 -9.35 -2.3 -9.4 -2.25 -9.4 -2.2 -9.4 -2.2 -9.4 -2.2 -9.4 -2.15 -9.4 -2.1 -9.35 -2.05 -9.35 -2.0 -9.3 -1.7 -9.2 -1.5 -9.15 -1.35 -9.05 -1.3 -9.05 -1.3 -9.0 -1.2 -9.0 -1.2 -9.0 -1.15 -8.95 -1.1 -8.95 -1.05 -8.95 -1.0 -8.9 -0.95 -8.9 -0.95 -8.85 -0.9 -8.85 -0.85 -8.8 -0.8 -8.75 -0.75 -8.75 -0.7 -8.7 -0.65 -8.65 -0.25 -8.45 0.5 -8.05 0.6 -8.0 0.65 -8.0 0.75 -7.95 0.8 -7.9 0.9 -7.85 0.95 -7.8 1.05 -7.75 1.1 -7.7 1.2 -7.65 1.25 -7.6 1.3 -7.5 1.4 -7.45 1.45 -7.4 1.5 -7.3 1.55 -7.25 1.6 -7.2 1.65 -7.15 1.7 -7.1 1.7 -7.05 1.75 -7.0 1.8 -6.95 1.85 -6.9 1.85 -6.85 1.9 -6.8 1.95 -6.75 1.95 -6.7 2.0 -6.65 2.05 -6.6 2.05 -6.55 2.1 -6.5 2.1 -6.45 2.1 -6.4 2.1 -6.4 2.05 -6.4 2.05 -6.4 2.05 -6.35 2.05 -6.35 2.05 -6.35 2.0 -6.3 2.0 -6.3 2.0 -6.3 2.0 -6.3 1.95 -6.25 1.95 -6.25 1.9 -6.25 1.9 -6.2 1.85 -6.2 1.8 -6.2 0.25 -5.9 -0.05 -5.9 -0.15 -5.9 -0.25 -5.9 -0.35 -5.9 -0.45 -5.85 -0.55 -5.85 -0.65 -5.85 -0.7 -5.85 -0.8 -5.8 -0.9 -5.8 -1.0 -5.8 -1.05 -5.75 -1.15 -5.75 -1.25 -5.75 -1.3 -5.7 -1.4 -5.7 -1.45 -5.7 L-1.45 -5.7" fill="#ffffff" fill-rule="evenodd" stroke="none"/>
      <path d="M-2.65 -5.7 Q-3.25 -5.7 -4.45 -5.7 -4.45 -5.65 -4.45 -5.65 -4.45 -5.6 -4.4 -5.6 -4.4 -5.55 -4.3 -5.55 -4.25 -5.55 -4.05 -5.5 -4.1 -5.5 -4.15 -5.5 -4.15 -5.5 -4.2 -5.45 -4.2 -5.45 -4.25 -5.45 -4.25 -5.45 -4.3 -5.45 -4.35 -5.4 -4.35 -5.4 -4.4 -5.4 -4.45 -5.4 -4.45 -5.4 -4.5 -5.4 -4.55 -5.4 -4.55 -5.4 -4.85 -5.4 -5.45 -5.4 -5.5 -5.4 -5.55 -5.4 -5.65 -5.4 -5.6 -5.4 -5.65 -5.35 -5.7 -5.35 -5.75 -5.35 -5.75 -5.35 -5.8 -5.4 -5.85 -5.4 -5.9 -5.4 -5.9 -5.45 -5.95 -5.45 -6.0 -5.5 -6.05 -5.55 -6.05 -5.6 -6.3 -6.0 -6.35 -6.2 -6.35 -6.3 -6.4 -6.4 -6.4 -6.5 -6.4 -6.6 -6.35 -6.7 -6.35 -6.8 -6.35 -6.9 -6.3 -7.0 -6.25 -7.1 -6.2 -7.2 -6.2 -7.3 -6.15 -7.4 -6.05 -7.5 -6.0 -7.6 -5.95 -7.7 -5.85 -7.8 -5.8 -7.9 -5.7 -7.95 -5.65 -8.05 -5.55 -8.15 -5.5 -8.2 -5.4 -8.25 -5.35 -8.35 -5.25 -8.4 -5.15 -8.45 -5.1 -8.55 -5.0 -8.6 -4.9 -8.65 -4.85 -8.7 -4.75 -8.75 -4.65 -8.8 -4.55 -8.85 -4.5 -8.9 -4.45 -8.95 -4.4 -8.95 -4.35 -9.0 -4.3 -9.05 -4.25 -9.05 -4.15 -9.1 -4.1 -9.1 -4.05 -9.15 -4.0 -9.15 -3.95 -9.15 -3.9 -9.2 -3.85 -9.2 -3.8 -9.25 -3.75 -9.25 -3.65 -9.25 -3.35 -9.35 -2.75 -9.55 -2.8 -9.3 -2.85 -9.05 -2.85 -8.8 -2.9 -8.6 -2.9 -8.35 -2.95 -8.1 -2.95 -7.85 -2.95 -7.6 -2.95 -7.4 -2.95 -7.15 -2.9 -6.9 -2.9 -6.65 -2.85 -6.4 -2.8 -6.15 -2.75 -5.9 -2.65 -5.7 L-2.65 -5.7" fill="#ffffff" fill-rule="evenodd" stroke="none"/>
      <path d="M2.2 -6.3 Q2.2 -6.35 2.2 -6.45 2.2 -6.5 2.2 -6.55 2.15 -6.6 2.15 -6.65 2.1 -6.7 2.1 -6.75 2.05 -6.8 2.05 -6.85 2.0 -6.9 1.95 -6.95 1.95 -6.95 1.9 -7.05 1.85 -7.15 1.8 -7.2 1.7 -7.3 1.65 -7.35 1.6 -7.4 1.5 -7.5 1.45 -7.55 1.35 -7.65 1.3 -7.7 1.2 -7.75 1.15 -7.85 1.05 -7.9 0.95 -7.95 0.9 -8.05 0.8 -8.1 0.7 -8.15 0.6 -8.2 0.5 -8.25 0.25 -8.4 -0.2 -8.6 -0.7 -8.9 -0.85 -8.95 -1.5 -9.3 -1.55 -9.35 -1.5 -9.35 -1.45 -9.35 -1.4 -9.35 -1.35 -9.35 -1.3 -9.35 -1.25 -9.35 -1.25 -9.35 -1.15 -9.3 -1.1 -9.3 -1.1 -9.3 -1.0 -9.3 -1.0 -9.3 -0.95 -9.3 -0.9 -9.3 -0.85 -9.25 -0.75 -9.25 -0.7 -9.25 -0.7 -9.25 -0.65 -9.25 -0.6 -9.2 -0.55 -9.2 -0.55 -9.2 -0.5 -9.15 -0.45 -9.15 -0.35 -9.15 -0.25 -9.1 -0.15 -9.1 -0.05 -9.1 0.05 -9.05 0.1 -9.05 0.25 -9.05 0.35 -9.0 0.45 -9.0 0.55 -8.95 0.65 -8.95 0.75 -8.9 0.85 -8.85 0.95 -8.85 1.05 -8.8 1.1 -8.75 1.2 -8.7 1.3 -8.7 1.4 -8.65 1.5 -8.6 1.6 -8.55 1.7 -8.55 1.8 -8.5 1.85 -8.45 1.95 -8.4 2.05 -8.35 2.15 -8.35 2.25 -8.3 2.35 -8.25 2.45 -8.2 2.55 -8.15 2.6 -8.05 2.65 -8.05 2.65 -8.0 2.7 -8.0 2.7 -7.95 2.75 -7.95 2.8 -7.9 2.85 -7.9 2.85 -7.85 2.9 -7.8 2.95 -7.75 3.0 -7.75 3.0 -7.7 3.05 -7.65 3.05 -7.6 3.1 -7.55 3.1 -7.5 3.1 -7.45 3.15 -7.4 3.15 -7.35 3.15 -7.3 3.2 -7.25 3.2 -7.25 3.2 -7.2 3.2 -7.15 3.2 -7.1 3.2 -7.05 3.2 -7.0 3.2 -6.95 3.15 -6.9 3.15 -6.85 3.15 -6.8 3.1 -6.8 3.05 -6.7 3.05 -6.65 3.0 -6.55 2.95 -6.5 2.9 -6.45 2.85 -6.4 2.8 -6.35 2.75 -6.35 2.7 -6.3 2.65 -6.3 2.55 -6.3 2.5 -6.3 2.45 -6.3 2.35 -6.3 2.3 -6.3 2.2 -6.3 L2.2 -6.3" fill="#ffffff" fill-rule="evenodd" stroke="none"/>
      <path d="M-3.15 -9.55 Q-3.25 -9.55 -3.25 -9.55 -3.3 -9.55 -3.35 -9.45 -3.5 -9.4 -3.6 -9.4 -3.75 -9.35 -3.85 -9.3 -4.0 -9.25 -4.1 -9.2 -4.25 -9.15 -4.35 -9.1 -4.45 -9.0 -4.55 -8.95 -4.65 -8.9 -4.75 -8.8 -4.9 -8.75 -4.95 -8.65 -5.05 -8.55 -5.15 -8.45 -5.25 -8.4 -5.3 -8.35 -5.35 -8.3 -5.45 -8.25 -5.5 -8.2 -5.55 -8.15 -5.65 -8.05 -5.7 -8.0 -5.75 -7.95 -5.8 -7.9 -5.85 -7.8 -5.9 -7.75 -5.95 -7.7 -6.0 -7.6 -6.05 -7.55 -6.05 -7.5 -6.1 -7.4 -6.15 -7.3 -6.2 -7.2 -6.25 -7.1 -6.3 -7.0 -6.3 -6.9 -6.35 -6.8 -6.35 -6.7 -6.4 -6.6 -6.4 -6.5 -6.4 -6.4 -6.4 -6.3 -6.4 -6.2 -6.4 -6.1 -6.4 -6.0 -6.35 -5.9 -6.35 -5.85 -6.35 -5.8 -6.35 -5.8 -6.35 -5.75 -6.3 -5.75 -6.3 -5.7 -6.3 -5.65 -6.25 -5.65 -6.25 -5.6 -6.2 -5.6 -6.15 -5.55 -6.15 -5.5 -6.15 -5.5 -6.1 -5.45 -6.1 -5.4 -6.05 -5.4 -6.1 -5.4 -6.15 -5.4 -6.2 -5.45 -6.25 -5.45 -6.35 -5.5 -6.4 -5.5 -6.45 -5.55 -6.55 -5.6 -6.6 -5.65 -6.65 -5.7 -6.7 -5.75 -6.75 -5.8 -6.8 -5.85 -6.85 -5.9 -6.85 -5.95 -6.85 -6.0 -6.85 -6.05 -6.9 -6.1 -6.9 -6.15 -6.95 -6.2 -6.95 -6.25 -6.95 -6.35 -7.0 -6.4 -7.0 -6.45 -7.0 -6.5 -7.0 -6.55 -7.0 -6.65 -7.0 -6.7 -7.0 -6.75 -7.0 -6.85 -7.0 -6.9 -6.95 -7.0 -6.95 -7.1 -6.9 -7.2 -6.9 -7.3 -6.9 -7.35 -6.85 -7.45 -6.85 -7.55 -6.8 -7.65 -6.8 -7.75 -6.75 -7.8 -6.7 -7.9 -6.65 -8.0 -6.6 -8.1 -6.55 -8.2 -6.5 -8.3 -6.45 -8.4 -6.35 -8.45 -6.3 -8.5 -6.25 -8.55 -5.5 -9.5 -6.15 -8.7 -6.1 -8.75 -6.05 -8.8 -6.0 -8.85 -5.95 -8.9 -5.9 -8.95 -5.85 -9.0 -5.8 -9.05 -5.75 -9.1 -5.65 -9.15 -5.6 -9.2 -5.55 -9.25 -5.45 -9.25 -5.4 -9.3 -5.4 -9.3 -5.35 -9.35 -5.3 -9.35 -5.3 -9.35 -5.25 -9.35 -5.2 -9.35 -5.15 -9.35 -5.05 -9.4 -4.95 -9.45 -4.85 -9.45 -4.75 -9.5 -4.65 -9.5 -4.5 -9.55 -4.4 -9.55 -4.3 -9.6 -4.15 -9.6 -4.0 -9.6 -3.9 -9.6 -3.75 -9.6 -3.6 -9.6 -3.45 -9.6 -3.3 -9.6 -3.15 -9.55 -3.15 -9.55 -3.15 -9.55 L-3.15 -9.55" fill="#ffffff" fill-rule="evenodd" stroke="none"/>
      <path d="M-1.85 -9.55 Q-2.0 -9.55 -2.3 -9.6 -2.6 -9.65 -2.75 -9.65 -2.8 -9.7 -2.85 -9.75 -2.8 -9.8 -2.75 -9.8 -2.7 -9.85 -2.65 -9.85 -2.55 -9.85 -2.5 -9.85 -2.4 -9.85 -2.35 -9.8 -2.25 -9.8 -2.2 -9.75 -2.1 -9.75 -2.05 -9.7 -2.0 -9.7 -1.95 -9.65 -1.9 -9.6 -1.85 -9.55 -1.85 -9.65 -1.85 -9.55 L-1.85 -9.55" fill="#ffffff" fill-rule="evenodd" stroke="none"/>
    </g>
  
</svg>
