<?xml version="1.0" encoding="UTF-8" standalone="no"?>
<svg xmlns:xlink="http://www.w3.org/1999/xlink" height="21.2px" width="20.4px" xmlns="http://www.w3.org/2000/svg">
  <g transform="matrix(1.0, 0.0, 0.0, 1.0, 10.2, 10.6)">
    <use data-characterId="225" height="18.85" transform="matrix(1.0, 0.0, 0.0, 1.0, -9.0, -9.4)" width="18.0" xlink:href="#shape0"/>
  </g>
  
    <g id="shape0" transform="matrix(1.0, 0.0, 0.0, 1.0, 9.0, 9.4)">
      <path d="M6.1 8.85 Q5.1 8.85 3.1 8.85 3.1 8.75 3.1 8.65 3.1 3.15 3.1 -2.3 3.1 -2.45 3.1 -2.6 3.1 -2.65 3.1 -2.7 3.1 -2.75 3.1 -2.75 3.1 -2.8 3.15 -2.85 3.15 -2.9 3.2 -2.9 3.2 -2.95 3.2 -3.0 3.2 -3.0 3.2 -3.05 3.2 -3.1 3.2 -3.1 3.2 -3.15 3.2 -3.15 3.2 -3.2 3.2 -3.2 3.25 -3.25 3.25 -3.3 3.25 -3.3 3.25 -3.35 3.3 -3.4 3.3 -3.4 3.3 -3.45 3.35 -3.55 3.35 -3.65 3.35 -3.7 3.35 -3.8 3.35 -3.85 3.35 -3.9 3.35 -4.0 3.35 -4.1 3.35 -4.15 3.35 -4.25 3.35 -4.3 3.35 -4.4 3.35 -4.45 3.4 -4.55 3.4 -4.6 4.3 -4.6 6.0 -4.6 6.0 -4.2 6.0 -3.8 6.0 -3.65 6.0 -3.5 6.0 -3.2 6.0 -3.2 6.0 -3.2 6.0 -3.2 6.0 -3.0 6.0 -2.8 6.0 -2.75 6.0 -2.75 6.0 -2.7 6.0 -2.65 6.0 -2.65 6.05 -2.6 6.05 -2.55 6.1 -2.5 6.1 -2.5 6.1 -2.45 6.1 -2.45 6.1 -2.4 6.1 3.25 6.1 8.85 L6.1 8.85" fill="#ffffff" fill-rule="evenodd" stroke="none"/>
      <path d="M-3.1 8.85 Q-4.1 8.85 -6.0 8.85 -6.0 8.75 -6.0 8.65 -6.0 3.2 -6.0 -2.2 -6.0 -2.4 -6.0 -2.6 -6.0 -2.65 -6.0 -2.7 -6.0 -2.75 -6.0 -2.75 -6.0 -2.8 -5.95 -2.85 -5.95 -2.9 -5.9 -2.9 -5.9 -2.95 -5.9 -3.0 -5.9 -3.15 -5.9 -3.3 -5.9 -3.35 -5.9 -3.4 -5.9 -3.45 -5.9 -3.45 -5.9 -3.5 -5.85 -3.55 -5.85 -3.6 -5.8 -3.6 -5.8 -3.65 -5.8 -3.7 -5.8 -4.15 -5.8 -4.6 -5.0 -4.6 -3.3 -4.6 -3.3 -4.4 -3.3 -4.2 -3.3 -3.95 -3.3 -3.7 -3.25 -3.45 -3.2 -3.2 -3.2 -3.15 -3.2 -3.15 -3.2 -3.1 -3.2 -3.1 -3.2 -3.05 -3.2 -3.0 -3.2 -3.0 -3.2 -2.95 -3.2 -2.95 -3.2 -2.9 -3.15 -2.9 -3.15 -2.85 -3.15 -2.8 -3.15 -2.8 -3.1 -2.75 -3.1 -2.7 -3.1 -2.6 -3.05 -2.5 -3.05 -2.4 -3.05 -2.25 -3.05 -2.15 -3.05 -2.05 -3.05 -1.95 -3.05 -1.8 -3.05 -1.75 -3.05 -1.6 -3.1 -1.4 -3.1 -1.35 -3.1 -1.25 -3.1 -1.15 -3.1 -1.05 -3.1 -0.9 -3.1 0.0 -3.1 0.85 -3.1 1.75 -3.1 2.65 -3.1 3.55 -3.1 4.45 -3.1 6.65 -3.1 8.85 L-3.1 8.85" fill="#ffffff" fill-rule="evenodd" stroke="none"/>
      <path d="M1.5 8.85 Q0.5 8.85 -1.4 8.85 -1.4 8.75 -1.4 8.65 -1.4 3.2 -1.4 -2.2 -1.4 -2.35 -1.4 -2.5 -1.4 -2.55 -1.4 -2.6 -1.4 -2.65 -1.4 -2.65 -1.4 -2.7 -1.35 -2.75 -1.35 -2.8 -1.3 -2.8 -1.3 -2.85 -1.3 -2.9 -1.3 -3.05 -1.3 -3.2 -1.3 -3.25 -1.3 -3.3 -1.3 -3.35 -1.3 -3.35 -1.3 -3.4 -1.25 -3.45 -1.25 -3.5 -1.2 -3.5 -1.2 -3.55 -1.2 -3.6 -1.2 -4.05 -1.2 -4.5 -0.4 -4.5 1.3 -4.5 1.3 -4.3 1.3 -4.1 1.3 -3.85 1.3 -3.6 1.35 -3.35 1.4 -3.1 1.4 -3.05 1.4 -3.05 1.4 -3.0 1.4 -3.0 1.4 -2.95 1.4 -2.9 1.4 -2.9 1.4 -2.85 1.4 -2.85 1.4 -2.8 1.45 -2.8 1.45 -2.75 1.45 -2.7 1.45 -2.7 1.5 -2.65 1.5 -2.6 1.5 -2.5 1.55 -2.4 1.55 -2.3 1.55 -2.15 1.55 -2.05 1.55 -1.95 1.55 -1.85 1.55 -1.7 1.55 -1.65 1.55 -1.5 1.5 -1.3 1.5 -1.25 1.5 -1.15 1.5 -1.05 1.5 -0.95 1.5 -0.8 1.5 0.1 1.5 0.95 1.5 1.85 1.5 2.75 1.5 3.65 1.5 4.55 1.5 6.7 1.5 8.85 L1.5 8.85" fill="#ffffff" fill-rule="evenodd" stroke="none"/>
      <path d="M-7.6 -6.4 Q-7.55 -6.45 -7.5 -6.5 -7.1 -6.5 -6.2 -6.5 -6.2 -6.5 -6.2 -6.45 -6.15 -6.4 -6.1 -6.4 -6.1 -6.4 -6.1 -6.4 -6.1 -6.4 -6.1 -6.4 -6.1 -5.15 -6.1 -3.9 -6.1 -3.75 -6.1 -3.6 -6.1 -3.45 -6.1 -3.3 -6.1 -3.3 -6.1 -3.3 -6.1 -3.25 -6.1 -3.2 -6.1 -3.05 -6.1 -2.9 -6.1 -2.85 -6.1 -2.85 -6.1 -2.8 -6.1 -2.75 -6.1 -2.75 -6.15 -2.7 -6.15 -2.65 -6.2 -2.6 -6.2 -2.5 -6.2 -2.4 -6.2 3.3 -6.2 8.95 -6.25 9.0 -6.35 9.05 -6.4 9.1 -6.4 9.15 -6.6 9.15 -7.1 9.15 -7.2 9.1 -7.2 9.05 -7.2 9.05 -7.3 8.95 -7.3 8.85 -7.3 8.75 -7.3 3.15 -7.3 -2.4 -7.3 -2.55 -7.3 -2.7 -7.3 -2.75 -7.3 -2.8 -7.3 -2.85 -7.3 -2.85 -7.3 -2.9 -7.35 -2.95 -7.35 -3.0 -7.4 -3.0 -7.4 -3.05 -7.4 -3.1 -7.4 -3.15 -7.4 -3.2 -7.4 -3.2 -7.4 -3.25 -7.4 -3.3 -7.4 -3.35 -7.4 -3.4 -7.4 -3.4 -7.4 -3.45 -7.4 -3.5 -7.45 -3.55 -7.45 -3.55 -7.45 -3.6 -7.45 -3.65 -7.5 -3.7 -7.5 -3.7 -7.5 -3.8 -7.5 -3.9 -7.6 -4.7 -7.6 -6.4 L-7.6 -6.4" fill="#ffffff" fill-rule="evenodd" stroke="none"/>
      <path d="M-3.0 -6.4 Q-2.95 -6.45 -2.9 -6.5 -2.5 -6.5 -1.6 -6.5 -1.6 -6.5 -1.55 -6.45 -1.55 -6.45 -1.5 -6.4 -1.5 -6.4 -1.5 -6.4 -1.5 -5.15 -1.5 -3.9 -1.5 -3.75 -1.5 -3.6 -1.5 -3.45 -1.5 -3.3 -1.5 -3.3 -1.5 -3.3 -1.5 -3.25 -1.5 -3.2 -1.5 -3.05 -1.5 -2.9 -1.5 -2.85 -1.5 -2.85 -1.5 -2.8 -1.5 -2.75 -1.5 -2.75 -1.55 -2.7 -1.55 -2.65 -1.6 -2.6 -1.6 -2.5 -1.6 -2.4 -1.6 3.3 -1.6 8.95 -1.65 9.0 -1.75 9.05 -1.8 9.1 -1.8 9.15 -2.0 9.15 -2.5 9.15 -2.6 9.1 -2.6 9.05 -2.6 9.05 -2.7 8.95 -2.7 8.85 -2.7 8.75 -2.7 3.15 -2.7 -2.4 -2.7 -2.55 -2.7 -2.7 -2.7 -2.75 -2.7 -2.8 -2.7 -2.85 -2.7 -2.85 -2.7 -2.9 -2.75 -2.95 -2.75 -3.0 -2.8 -3.0 -2.8 -3.25 -2.8 -3.5 -2.85 -3.6 -2.9 -3.7 -2.95 -3.8 -2.95 -3.85 -3.0 -3.95 -3.0 -4.05 -3.0 -4.1 -3.0 -4.2 -3.0 -4.3 -3.0 -4.4 -3.0 -4.45 -3.0 -4.55 -3.0 -4.75 -3.0 -4.75 -3.0 -4.85 -3.0 -4.9 -3.0 -5.65 -3.0 -6.4 L-3.0 -6.4" fill="#ffffff" fill-rule="evenodd" stroke="none"/>
      <path d="M1.5 -6.4 Q1.55 -6.45 1.6 -6.5 2.0 -6.5 2.9 -6.5 2.9 -6.5 2.95 -6.5 2.95 -6.45 2.95 -6.4 3.0 -6.35 3.0 -6.3 3.0 -6.3 3.0 -6.3 3.0 -5.05 3.0 -3.8 3.0 -3.65 3.0 -3.5 3.0 -3.35 3.0 -3.2 3.0 -3.2 3.0 -3.2 3.0 -3.15 3.0 -3.1 3.0 -2.95 3.0 -2.8 3.0 -2.75 3.0 -2.75 3.0 -2.7 3.0 -2.65 3.0 -2.65 2.95 -2.6 2.95 -2.55 2.9 -2.5 2.9 -2.4 2.9 -2.3 2.9 3.4 2.9 9.05 2.85 9.1 2.75 9.15 2.7 9.2 2.7 9.25 2.5 9.25 2.0 9.25 1.95 9.2 1.9 9.15 1.85 9.15 1.8 9.05 1.8 8.95 1.8 8.85 1.8 3.25 1.8 -2.3 1.8 -2.45 1.8 -2.6 1.8 -2.65 1.8 -2.7 1.8 -2.75 1.8 -2.75 1.8 -2.8 1.75 -2.85 1.75 -2.9 1.7 -2.9 1.7 -3.15 1.7 -3.4 1.7 -3.5 1.65 -3.6 1.65 -3.7 1.65 -3.8 1.65 -3.85 1.65 -3.95 1.65 -4.05 1.65 -4.15 1.65 -4.25 1.65 -4.35 1.7 -4.55 1.7 -4.55 1.7 -4.65 1.7 -4.7 1.7 -4.85 1.7 -4.9 1.65 -5.0 1.65 -5.1 1.6 -5.2 1.6 -5.3 1.55 -5.35 1.55 -5.45 1.55 -5.55 1.55 -5.65 1.5 -5.75 1.5 -5.85 1.5 -5.95 1.5 -6.05 1.5 -6.1 1.5 -6.2 1.5 -6.3 1.5 -6.4 L1.5 -6.4" fill="#ffffff" fill-rule="evenodd" stroke="none"/>
      <path d="M6.2 -6.4 Q6.25 -6.45 6.3 -6.5 6.7 -6.5 7.6 -6.5 7.6 -6.5 7.65 -6.5 7.65 -6.45 7.65 -6.4 7.7 -6.35 7.7 -6.3 7.7 -6.3 7.7 -6.3 7.7 -5.05 7.7 -3.8 7.7 -3.65 7.7 -3.5 7.7 -3.35 7.7 -3.2 7.7 -3.2 7.7 -3.2 7.7 -3.15 7.7 -3.1 7.7 -2.95 7.7 -2.8 7.7 -2.75 7.7 -2.75 7.7 -2.7 7.7 -2.65 7.7 -2.65 7.65 -2.6 7.65 -2.55 7.6 -2.5 7.6 -2.4 7.6 -2.3 7.6 3.4 7.6 9.05 7.55 9.1 7.45 9.15 7.4 9.2 7.4 9.25 7.2 9.25 6.7 9.25 6.6 9.2 6.6 9.15 6.6 9.15 6.5 9.05 6.5 9.0 6.5 9.0 6.5 8.9 6.5 8.85 6.5 3.25 6.5 -2.3 6.5 -2.45 6.5 -2.6 6.5 -2.65 6.5 -2.7 6.5 -2.75 6.5 -2.75 6.5 -2.8 6.45 -2.85 6.45 -2.9 6.4 -2.9 6.4 -2.95 6.4 -3.0 6.4 -3.0 6.4 -3.05 6.4 -3.1 6.4 -3.1 6.4 -3.15 6.4 -3.15 6.4 -3.2 6.4 -3.2 6.35 -3.25 6.35 -3.3 6.35 -3.3 6.35 -3.35 6.3 -3.4 6.3 -3.4 6.3 -3.5 6.25 -3.6 6.25 -3.7 6.25 -3.8 6.25 -3.85 6.25 -3.95 6.25 -4.05 6.25 -4.15 6.25 -4.25 6.25 -4.35 6.3 -4.55 6.3 -4.55 6.3 -4.65 6.3 -4.7 6.3 -4.85 6.3 -4.9 6.3 -5.0 6.25 -5.1 6.25 -5.2 6.25 -5.3 6.25 -5.35 6.2 -5.45 6.2 -5.55 6.2 -5.65 6.2 -5.75 6.2 -5.85 6.2 -5.95 6.2 -6.05 6.2 -6.1 6.2 -6.2 6.2 -6.3 6.2 -6.4 L6.2 -6.4" fill="#ffffff" fill-rule="evenodd" stroke="none"/>
      <path d="M8.9 8.85 Q8.5 8.85 7.8 8.85 7.8 8.75 7.8 8.65 7.8 3.2 7.8 -2.2 7.8 -2.35 7.8 -2.5 7.8 -2.55 7.8 -2.6 7.8 -2.65 7.8 -2.65 7.8 -2.7 7.85 -2.75 7.85 -2.8 7.9 -2.8 7.9 -2.85 7.9 -2.9 7.9 -2.9 7.9 -2.95 7.9 -3.0 7.9 -3.0 7.9 -3.05 7.9 -3.05 7.9 -3.1 7.9 -3.1 7.95 -3.15 7.95 -3.2 7.95 -3.2 7.95 -3.25 8.0 -3.3 8.0 -3.3 8.0 -3.95 8.0 -4.6 8.2 -4.6 8.5 -4.6 8.55 -4.7 8.6 -4.7 8.65 -4.75 8.7 -4.8 8.7 -5.0 8.7 -5.2 8.6 -5.3 8.6 -5.3 8.55 -5.35 8.5 -5.4 8.3 -5.4 8.0 -5.4 8.0 -5.7 8.0 -6.0 8.0 -6.0 8.0 -6.0 8.0 -6.0 8.0 -6.0 8.3 -6.0 8.9 -6.0 8.9 1.45 8.9 8.85 L8.9 8.85" fill="#ffffff" fill-rule="evenodd" stroke="none"/>
      <path d="M-7.7 8.85 Q-8.1 8.85 -8.7 8.85 -8.7 1.45 -8.7 -5.9 -8.6 -5.9 -8.3 -5.9 -8.2 -5.9 -7.9 -5.9 -7.9 -5.6 -7.9 -5.3 -8.0 -5.3 -8.4 -5.3 -8.4 -5.25 -8.4 -5.2 -8.45 -5.2 -8.5 -5.1 -8.5 -4.95 -8.5 -4.8 -8.4 -4.75 -8.4 -4.7 -8.4 -4.7 -8.3 -4.6 -8.2 -4.6 -7.8 -4.6 -7.8 -4.35 -7.8 -4.1 -7.8 -4.05 -7.8 -4.0 -7.8 -3.95 -7.8 -3.9 -7.8 -3.85 -7.8 -3.75 -7.8 -3.7 -7.8 -3.65 -7.8 -3.6 -7.8 -3.55 -7.75 -3.5 -7.75 -3.45 -7.75 -3.4 -7.75 -3.35 -7.7 -3.25 -7.7 -3.2 -7.7 -3.15 -7.7 -3.15 -7.7 -3.1 -7.7 -3.1 -7.7 -3.05 -7.7 -3.0 -7.7 -3.0 -7.7 -2.95 -7.7 -2.95 -7.7 -2.9 -7.65 -2.9 -7.65 -2.85 -7.65 -2.8 -7.65 -2.8 -7.6 -2.75 -7.6 -2.7 -7.6 -2.6 -7.55 -2.5 -7.55 -2.4 -7.55 -2.3 -7.55 -2.2 -7.55 -2.05 -7.55 -2.0 -7.55 -1.85 -7.55 -1.8 -7.55 -1.65 -7.6 -1.5 -7.6 -1.45 -7.6 -1.35 -7.6 -1.25 -7.6 -1.15 -7.6 -1.0 -7.6 -0.15 -7.6 0.65 -7.6 1.5 -7.6 2.35 -7.6 3.2 -7.6 4.05 -7.6 4.9 -7.6 5.75 -7.7 6.85 -7.7 8.85 L-7.7 8.85" fill="#ffffff" fill-rule="evenodd" stroke="none"/>
      <path d="M5.9 -5.9 Q5.9 -5.65 5.9 -5.4 5.7 -5.4 3.3 -5.4 3.3 -5.7 3.3 -6.0 3.5 -5.9 5.9 -5.9 L5.9 -5.9" fill="#ffffff" fill-rule="evenodd" stroke="none"/>
      <path d="M-5.8 -5.3 Q-5.8 -5.6 -5.8 -5.9 -5.0 -5.9 -3.3 -5.9 -3.3 -5.75 -3.3 -5.6 -3.3 -5.45 -3.3 -5.3 -4.1 -5.3 -5.8 -5.3 L-5.8 -5.3" fill="#ffffff" fill-rule="evenodd" stroke="none"/>
      <path d="M-1.2 -5.3 Q-1.2 -5.6 -1.2 -5.9 -0.4 -5.9 1.3 -5.9 1.3 -5.75 1.3 -5.6 1.3 -5.45 1.3 -5.3 0.5 -5.3 -1.2 -5.3 L-1.2 -5.3" fill="#ffffff" fill-rule="evenodd" stroke="none"/>
    </g>
  
</svg>
