<?xml version="1.0" encoding="UTF-8" standalone="no"?>
<svg xmlns:xlink="http://www.w3.org/1999/xlink" height="19.2px" width="19.2px" xmlns="http://www.w3.org/2000/svg">
  <g transform="matrix(1.0, 0.0, 0.0, 1.0, 9.6, 9.6)">
    <use data-characterId="208" height="19.2" transform="matrix(1.0, 0.0, 0.0, 1.0, -9.6, -9.6)" width="19.2" xlink:href="#shape0"/>
  </g>
  
    <g id="shape0" transform="matrix(1.0, 0.0, 0.0, 1.0, 9.6, 9.6)">
      <path d="M-5.1 4.5 Q-5.1 4.45 -5.1 4.4 -5.15 4.35 -5.2 4.35 -5.25 4.3 -5.3 4.3 -5.4 4.3 -5.5 4.3 -5.55 4.3 -5.7 4.3 -5.75 4.3 -5.85 4.3 -5.9 4.3 -5.95 4.3 -6.0 4.35 -6.05 4.35 -6.1 4.35 -6.15 4.35 -6.2 4.4 -6.2 4.4 -6.25 4.4 -6.25 4.45 -6.3 4.45 -6.3 4.45 -6.3 4.5 -6.3 4.5 L-6.3 6.3 -5.1 6.3 -5.1 4.5 M-5.7 1.4 Q-5.75 1.4 -5.85 1.4 -5.9 1.4 -5.95 1.4 -6.0 1.45 -6.05 1.45 -6.1 1.45 -6.15 1.45 -6.2 1.5 -6.2 1.5 -6.25 1.5 -6.25 1.55 -6.3 1.55 -6.3 1.55 -6.3 1.6 -6.3 1.6 L-6.3 3.4 -5.1 3.4 -5.1 1.7 Q-5.1 1.65 -5.1 1.65 -5.1 1.6 -5.15 1.55 -5.15 1.55 -5.2 1.5 -5.2 1.5 -5.25 1.5 -5.3 1.45 -5.35 1.45 -5.4 1.45 -5.45 1.4 -5.5 1.4 -5.55 1.4 -5.6 1.4 -5.7 1.4 M-1.3 4.5 Q-1.3 4.45 -1.3 4.4 -1.35 4.35 -1.4 4.35 -1.45 4.3 -1.5 4.3 -1.6 4.3 -1.7 4.3 -1.75 4.3 -1.9 4.3 -1.95 4.3 -2.05 4.3 -2.1 4.3 -2.15 4.3 -2.2 4.35 -2.25 4.35 -2.3 4.35 -2.35 4.35 -2.4 4.4 -2.4 4.4 -2.45 4.4 -2.45 4.45 -2.5 4.45 -2.5 4.45 -2.5 4.5 -2.5 4.5 L-2.5 6.3 -1.3 6.3 -1.3 4.5 M-4.3 -0.7 L-4.7 -0.9 -5.1 -0.7 -5.2 -0.4 -5.1 0.0 -4.7 0.2 -4.3 0.0 -4.1 -0.4 Q-4.2 -0.55 -4.3 -0.7 M-1.3 1.7 Q-1.3 1.65 -1.3 1.6 -1.35 1.55 -1.4 1.55 -1.45 1.5 -1.5 1.5 -1.6 1.5 -1.7 1.5 -1.75 1.5 -1.9 1.5 -1.95 1.5 -2.05 1.5 -2.1 1.5 -2.15 1.5 -2.2 1.55 -2.25 1.55 -2.3 1.55 -2.35 1.55 -2.4 1.6 -2.4 1.6 -2.45 1.6 -2.45 1.65 -2.5 1.65 -2.5 1.65 -2.5 1.7 -2.5 1.7 L-2.5 3.5 -1.3 3.5 -1.3 1.7 M2.4 4.5 Q2.4 4.45 2.4 4.4 2.35 4.35 2.3 4.35 2.25 4.3 2.2 4.3 2.1 4.3 2.0 4.3 1.95 4.3 1.8 4.3 1.75 4.3 1.65 4.3 1.6 4.3 1.55 4.3 1.5 4.35 1.45 4.35 1.4 4.35 1.35 4.35 1.3 4.4 1.3 4.4 1.25 4.4 1.25 4.45 1.2 4.45 1.2 4.45 1.2 4.5 1.2 4.5 L1.2 6.3 2.4 6.3 2.4 4.5 M-1.1 -0.7 L-1.7 0.3 1.4 0.3 0.8 -0.7 Q0.75 -0.75 0.7 -0.75 0.65 -0.8 0.6 -0.85 0.5 -0.9 0.45 -0.9 0.4 -0.95 0.35 -0.95 0.3 -1.0 0.25 -1.05 0.2 -1.05 0.15 -1.05 0.05 -1.1 0.0 -1.1 -0.05 -1.1 -0.1 -1.1 -0.15 -1.1 -0.25 -1.1 -0.3 -1.1 -0.4 -1.05 -0.45 -1.05 -0.5 -1.05 -0.55 -1.0 -0.65 -0.95 -0.7 -0.95 -0.75 -0.9 -0.8 -0.9 -0.85 -0.85 -0.9 -0.8 -1.0 -0.75 -1.0 -0.75 -1.1 -0.7 M1.7 1.4 Q1.65 1.4 1.55 1.4 1.5 1.4 1.45 1.4 1.4 1.45 1.35 1.45 1.3 1.45 1.25 1.45 1.2 1.5 1.2 1.5 1.15 1.5 1.15 1.55 1.1 1.55 1.1 1.55 1.1 1.6 1.1 1.6 L1.1 3.4 2.3 3.4 2.3 1.7 Q2.3 1.65 2.3 1.65 2.3 1.6 2.3 1.55 2.3 1.55 2.25 1.5 2.25 1.5 2.2 1.5 2.15 1.45 2.1 1.45 2.05 1.45 2.0 1.4 1.9 1.4 1.85 1.4 1.8 1.4 1.7 1.4 M4.7 -0.9 Q4.65 -0.9 4.6 -0.9 4.6 -0.9 4.55 -0.9 4.5 -0.85 4.5 -0.85 4.45 -0.85 4.45 -0.8 4.4 -0.8 4.4 -0.8 4.35 -0.75 4.35 -0.75 4.35 -0.75 4.3 -0.7 4.25 -0.65 4.25 -0.65 L4.2 -0.3 4.3 0.1 4.7 0.3 5.0 0.1 5.2 -0.3 5.0 -0.7 4.7 -0.9 M6.1 4.5 Q6.1 4.45 6.1 4.4 6.05 4.35 6.0 4.35 5.95 4.3 5.9 4.3 5.8 4.3 5.7 4.3 5.65 4.3 5.5 4.3 5.45 4.3 5.35 4.3 5.3 4.3 5.2 4.3 5.15 4.35 5.1 4.35 5.05 4.35 5.0 4.35 4.95 4.4 4.9 4.4 4.9 4.4 4.85 4.45 4.85 4.45 4.8 4.45 4.8 4.5 4.8 4.5 L4.8 6.3 6.0 6.3 6.1 4.5 M6.1 3.5 L6.1 1.7 Q6.1 1.65 6.1 1.6 6.05 1.55 6.0 1.55 5.95 1.5 5.9 1.5 5.8 1.5 5.7 1.5 5.65 1.5 5.5 1.5 5.45 1.5 5.35 1.5 5.3 1.5 5.2 1.5 5.15 1.55 5.1 1.55 5.05 1.55 5.0 1.55 4.95 1.6 4.9 1.6 4.9 1.6 4.85 1.65 4.85 1.65 4.8 1.65 4.8 1.7 4.8 1.7 L4.8 3.5 6.1 3.5 M-0.2 -4.2 L3.8 -2.0 6.2 -2.0 6.2 -0.7 8.4 0.6 7.1 0.6 7.1 7.5 9.6 7.5 9.6 8.6 -9.6 8.6 -9.6 7.6 -7.3 7.6 -7.3 0.6 -8.4 0.6 -6.3 -0.6 -6.3 -2.0 -3.9 -2.0 -2.9 -2.5 Q-1.55 -3.35 -0.2 -4.2 L-0.2 -4.2" fill="#ffffff" fill-rule="evenodd" stroke="none"/>
    </g>
  
</svg>
