<?xml version="1.0" encoding="UTF-8" standalone="no"?>
<svg xmlns:xlink="http://www.w3.org/1999/xlink" height="21.35px" width="16.35px" xmlns="http://www.w3.org/2000/svg">
  <g transform="matrix(1.0, 0.0, 0.0, 1.0, 8.05, 10.65)">
    <use data-characterId="62" height="19.05" transform="matrix(1.0, 0.0, 0.0, 1.0, -7.1, -9.5)" width="14.25" xlink:href="#shape0"/>
  </g>
  
    <g id="shape0" transform="matrix(1.0, 0.0, 0.0, 1.0, 7.1, 9.5)">
      <path d="M-7.0 6.95 Q-7.0 5.55 -7.0 2.75 -6.8 2.75 -6.3 2.75 -6.3 2.65 -6.3 2.55 -6.3 1.35 -6.3 -1.1 -6.3 -1.15 -6.3 -1.2 -6.3 -1.25 -6.35 -1.25 -6.35 -1.3 -6.4 -1.3 -6.45 -1.35 -6.55 -1.35 -6.6 -1.4 -6.65 -1.45 -6.7 -1.5 -6.75 -1.55 -6.8 -1.6 -6.85 -1.65 -6.9 -1.7 -6.9 -1.75 -6.95 -1.85 -6.95 -1.9 -7.0 -1.95 -7.0 -2.05 -7.0 -2.1 -7.0 -2.2 -7.0 -2.6 -7.0 -3.5 -7.0 -3.55 -7.0 -3.6 -6.95 -3.6 -6.9 -3.7 -6.55 -4.2 -5.65 -5.35 -4.8 -6.4 -4.4 -7.0 -4.4 -7.0 -4.4 -7.0 -4.35 -7.05 -4.35 -7.05 -4.3 -7.05 -4.25 -7.1 -4.2 -7.1 -4.2 -7.1 -1.4 -7.1 4.25 -7.1 4.3 -7.1 4.35 -7.1 4.35 -7.05 4.45 -7.0 4.85 -6.4 5.7 -5.35 6.6 -4.2 6.95 -3.7 6.95 -3.6 6.95 -3.5 6.95 -3.1 6.95 -2.3 6.95 -2.2 6.95 -2.15 6.95 -2.05 6.9 -2.0 6.9 -1.9 6.85 -1.85 6.85 -1.75 6.8 -1.7 6.75 -1.65 6.7 -1.6 6.65 -1.5 6.6 -1.45 6.55 -1.4 6.5 -1.35 6.4 -1.3 6.35 -1.3 6.35 -1.3 6.35 -1.25 6.3 -1.25 6.3 -1.2 6.25 -1.2 6.25 -1.15 6.25 -1.1 6.25 -1.1 6.25 0.15 6.25 2.65 6.25 2.65 6.25 2.7 6.25 2.7 6.25 2.75 6.45 2.75 6.95 2.75 6.95 4.15 6.95 6.95 2.35 6.95 -7.0 6.95 L-7.0 6.95 M4.65 -2.1 Q4.65 -2.0 4.6 -1.9 4.55 -1.8 4.5 -1.7 4.45 -1.6 4.4 -1.55 4.35 -1.45 4.3 -1.4 4.2 -1.35 4.15 -1.3 4.05 -1.25 3.95 -1.2 3.85 -1.15 3.75 -1.15 3.65 -1.1 3.55 -1.1 3.4 -1.1 3.3 -1.1 3.2 -1.1 3.05 -1.1 2.95 -1.15 2.85 -1.15 2.8 -1.2 2.7 -1.3 2.6 -1.35 2.55 -1.45 2.5 -1.5 2.4 -1.6 2.35 -1.7 2.3 -1.85 2.25 -1.95 2.25 -2.1 2.25 -2.0 2.2 -1.9 2.15 -1.8 2.1 -1.7 2.05 -1.6 2.0 -1.55 1.95 -1.45 1.9 -1.4 1.8 -1.35 1.75 -1.3 1.65 -1.25 1.6 -1.2 1.5 -1.15 1.4 -1.15 1.3 -1.1 1.25 -1.1 1.1 -1.1 1.0 -1.1 0.85 -1.1 0.75 -1.1 0.65 -1.15 0.55 -1.15 0.45 -1.2 0.4 -1.3 0.3 -1.35 0.25 -1.45 0.15 -1.5 0.1 -1.6 0.05 -1.7 0.0 -1.85 -0.05 -1.95 -0.1 -2.1 -0.1 -2.0 -0.15 -1.9 -0.15 -1.8 -0.2 -1.7 -0.25 -1.6 -0.3 -1.55 -0.35 -1.45 -0.4 -1.4 -0.45 -1.35 -0.5 -1.3 -0.6 -1.25 -0.7 -1.2 -0.75 -1.15 -0.85 -1.15 -0.95 -1.1 -1.1 -1.1 -1.25 -1.1 -1.35 -1.1 -1.45 -1.1 -1.55 -1.1 -1.65 -1.15 -1.75 -1.15 -1.85 -1.2 -1.9 -1.3 -2.0 -1.35 -2.05 -1.45 -2.15 -1.5 -2.2 -1.6 -2.25 -1.7 -2.3 -1.85 -2.35 -1.95 -2.4 -2.1 -2.4 -2.0 -2.45 -1.9 -2.5 -1.8 -2.5 -1.7 -2.55 -1.6 -2.6 -1.55 -2.65 -1.45 -2.75 -1.4 -2.8 -1.35 -2.9 -1.3 -2.95 -1.25 -3.05 -1.2 -3.1 -1.15 -3.2 -1.15 -3.3 -1.1 -3.4 -1.1 -3.55 -1.1 -3.65 -1.1 -3.75 -1.1 -3.85 -1.1 -3.95 -1.15 -4.05 -1.15 -4.15 -1.2 -4.25 -1.3 -4.3 -1.35 -4.4 -1.45 -4.45 -1.5 -4.5 -1.6 -4.55 -1.7 -4.6 -1.85 -4.65 -1.95 -4.7 -2.1 -4.7 -2.0 -4.75 -1.95 -4.75 -1.85 -4.8 -1.8 -4.8 -1.75 -4.8 -1.7 -4.85 -1.6 -4.9 -1.55 -4.9 -1.5 -4.95 -1.45 -5.0 -1.45 -5.05 -1.4 -5.1 -1.35 -5.15 -1.35 -5.2 -1.3 -5.3 -1.3 -5.35 -1.25 -5.35 -1.2 -5.35 -1.15 -5.4 -1.15 -5.4 -1.1 -5.4 -1.05 -5.4 -1.05 -5.4 -1.0 -5.4 0.25 -5.4 2.65 -5.4 2.7 -5.4 2.75 -5.4 2.75 -5.4 2.85 -1.8 2.85 5.45 2.85 5.45 2.85 5.45 2.85 5.45 1.65 5.45 -0.9 5.45 -0.9 5.45 -0.95 5.4 -1.0 5.35 -1.0 5.3 -1.05 5.25 -1.15 5.1 -1.3 5.1 -1.25 5.05 -1.35 5.0 -1.4 4.95 -1.45 4.9 -1.55 4.85 -1.6 4.85 -1.65 4.8 -1.75 4.75 -1.8 4.7 -1.85 4.7 -1.95 4.65 -2.0 4.65 -2.1 L4.65 -2.1" fill="#ffffff" fill-rule="evenodd" stroke="none"/>
    </g>
  
</svg>
