<?xml version="1.0" encoding="UTF-8" standalone="no"?>
<svg xmlns:xlink="http://www.w3.org/1999/xlink" height="20.0px" width="20.0px" xmlns="http://www.w3.org/2000/svg">
  <g transform="matrix(1.0, 0.0, 0.0, 1.0, 10.0, 10.0)">
    <use data-characterId="184" height="19.95" transform="matrix(1.0, 0.0, 0.0, 1.0, -10.0, -10.0)" width="20.0" xlink:href="#shape0"/>
  </g>
  
    <g id="shape0" transform="matrix(1.0, 0.0, 0.0, 1.0, 10.0, 10.0)">
      <path d="M-9.45 2.45 Q-9.5 2.3 -9.55 2.1 -9.6 1.9 -9.65 1.75 -9.65 1.55 -9.7 1.4 -9.7 1.2 -9.75 1.05 -9.75 0.9 -9.75 0.7 -9.75 0.55 -9.75 0.35 -9.8 0.2 -9.8 0.05 -9.8 -0.1 -9.8 -0.3 -9.8 -0.65 -9.75 -1.05 -9.75 -1.4 -9.65 -1.75 -9.6 -2.1 -9.5 -2.45 -9.4 -2.8 -9.3 -3.15 -9.15 -3.5 -9.0 -3.8 -8.85 -4.15 -8.65 -4.45 -8.45 -4.75 -8.25 -5.05 -8.05 -5.4 -7.8 -5.65 -7.2 -6.35 -6.5 -6.95 -5.85 -7.5 -5.15 -7.9 -4.45 -8.35 -3.7 -8.65 -2.95 -8.9 -2.2 -9.1 -1.45 -9.25 -0.65 -9.3 0.1 -9.35 0.85 -9.3 1.55 -9.2 2.3 -9.05 3.0 -8.9 3.65 -8.65 4.5 -8.35 5.25 -7.9 5.95 -7.5 6.55 -7.0 7.15 -6.55 7.65 -5.95 8.1 -5.45 8.5 -4.85 8.85 -4.3 9.1 -3.65 9.4 -3.1 9.55 -2.45 9.7 -1.9 9.8 -1.3 9.9 -0.75 9.9 -0.2 9.85 -0.2 9.8 -0.2 9.75 -0.2 9.75 -0.2 9.7 -0.2 9.65 -0.2 9.6 -0.25 9.55 -0.25 9.5 -0.25 9.45 -0.25 9.4 -0.25 9.35 -0.25 9.3 -0.3 9.25 -0.3 9.15 -0.3 9.1 -0.3 8.9 -0.35 7.8 -0.1 7.75 -0.1 7.65 -0.05 7.6 -0.05 7.5 -0.05 7.45 -0.05 7.4 -0.05 7.3 -0.05 7.25 -0.1 7.15 -0.1 7.1 -0.15 7.05 -0.15 7.0 -0.2 6.9 -0.25 6.85 -0.3 6.8 -0.35 6.8 -0.4 6.75 -0.45 6.7 -0.5 6.7 -0.5 6.65 -0.55 6.6 -0.6 6.55 -0.65 6.55 -0.7 6.5 -0.75 6.45 -0.85 6.45 -0.85 6.4 -0.9 6.35 -0.95 6.35 -1.0 6.3 -1.05 6.25 -1.1 6.2 -1.15 6.15 -1.2 6.1 -1.25 6.1 -1.3 6.05 -1.35 6.0 -1.4 5.95 -1.45 5.85 -1.5 5.8 -1.55 5.75 -1.55 5.7 -1.6 5.65 -1.65 5.6 -1.65 5.5 -1.7 5.45 -1.7 5.4 -1.75 5.35 -1.75 5.15 -1.75 5.0 -1.8 4.85 -1.8 4.7 -1.8 4.55 -1.8 4.4 -1.75 4.25 -1.75 4.15 -1.7 4.0 -1.65 3.9 -1.55 3.75 -1.5 3.65 -1.4 3.55 -1.25 3.5 -1.15 3.4 -1.0 3.35 -0.8 3.35 -0.7 3.3 -0.6 3.3 -0.5 3.3 -0.4 3.25 -0.3 3.25 -0.2 3.25 -0.15 3.25 -0.05 3.25 0.05 3.3 0.15 3.3 0.25 3.3 0.35 3.35 0.4 3.35 0.5 3.4 0.6 3.45 0.65 3.5 0.75 3.55 0.8 3.55 0.9 3.6 0.95 3.6 1.05 3.65 1.15 3.65 1.2 3.7 1.3 3.7 1.35 3.7 1.45 3.7 1.55 3.7 1.6 3.7 1.7 3.7 1.75 3.7 1.85 3.65 1.95 3.65 2.05 3.6 2.1 3.6 2.15 3.55 2.2 3.5 2.25 3.5 2.3 3.45 2.4 3.4 2.4 3.35 2.45 3.3 2.5 3.25 2.55 3.2 2.55 3.1 2.6 3.05 2.6 2.95 2.65 2.9 2.65 2.8 2.65 2.75 2.7 2.65 2.7 2.55 2.7 2.5 2.7 2.4 2.7 2.3 2.7 2.2 2.7 2.15 2.65 2.05 2.65 1.95 2.6 1.9 2.6 1.8 2.55 1.7 2.55 1.65 2.5 1.55 2.45 1.45 2.4 1.4 2.35 1.3 2.3 1.25 2.2 1.2 2.15 1.15 2.05 1.1 2.0 1.05 1.9 1.05 1.8 1.0 1.7 1.0 1.6 1.0 1.5 0.95 1.4 0.95 1.3 1.0 1.2 1.0 1.1 1.05 0.95 1.05 0.95 1.05 0.85 1.1 0.75 1.1 0.7 1.1 0.6 1.15 0.55 1.15 0.45 1.15 0.35 1.2 0.3 1.2 0.2 1.2 0.15 1.2 0.05 1.2 0.0 1.2 -0.1 1.2 -0.2 1.2 -0.4 1.2 -0.55 1.2 -0.75 1.15 -0.9 1.1 -1.05 1.05 -1.2 1.0 -1.35 0.9 -1.5 0.8 -1.65 0.65 -1.75 0.55 -1.85 0.4 -1.9 0.2 -2.0 0.0 -2.05 -0.2 -2.1 -0.45 -2.1 -0.65 -2.1 -1.2 -2.1 -1.3 -2.1 -1.35 -2.05 -1.45 -2.0 -1.55 -2.0 -1.6 -1.95 -1.65 -1.95 -1.75 -1.9 -1.8 -1.85 -1.85 -1.85 -1.9 -1.8 -2.0 -1.75 -2.05 -1.7 -2.1 -1.65 -2.15 -1.65 -2.2 -1.6 -2.2 -1.55 -2.25 -1.5 -2.3 -1.45 -2.3 -1.45 -2.35 -1.4 -2.4 -1.35 -2.45 -1.3 -2.5 -1.25 -2.5 -1.25 -2.55 -1.2 -2.55 -1.2 -2.6 -1.15 -2.65 -1.1 -2.65 -1.1 -2.7 -1.05 -2.75 -1.05 -2.8 -1.05 -2.9 -0.95 -2.95 -0.9 -3.05 -0.85 -3.15 -0.85 -3.2 -0.8 -3.3 -0.8 -3.4 -0.8 -3.5 -0.8 -3.6 -0.8 -3.7 -0.8 -3.75 -0.8 -3.85 -0.85 -3.95 -0.85 -4.05 -0.9 -4.2 -0.9 -4.2 -0.9 -4.3 -0.95 -4.35 -1.0 -4.45 -1.05 -4.55 -1.05 -4.65 -1.1 -4.7 -1.15 -4.8 -1.2 -4.9 -1.2 -4.95 -1.25 -5.05 -1.3 -5.15 -1.3 -5.2 -1.35 -5.3 -1.4 -5.4 -1.4 -5.45 -1.45 -5.55 -1.45 -5.7 -1.45 -5.85 -1.5 -6.0 -1.5 -6.1 -1.5 -6.25 -1.5 -6.4 -1.5 -6.55 -1.5 -6.65 -1.5 -6.8 -1.45 -6.9 -1.45 -7.05 -1.4 -7.15 -1.4 -7.3 -1.35 -7.4 -1.25 -7.55 -1.2 -7.65 -1.15 -7.75 -1.05 -7.85 -1.0 -7.95 -0.9 -8.0 -0.8 -8.1 -0.75 -8.15 -0.65 -8.2 -0.55 -8.3 -0.5 -8.35 -0.4 -8.35 -0.3 -8.4 -0.2 -8.45 -0.1 -8.5 0.0 -8.5 0.1 -8.55 0.2 -8.55 0.35 -8.6 0.55 -8.65 1.05 -8.7 1.5 -8.8 1.7 -8.8 1.75 -8.85 1.8 -8.85 1.9 -8.9 1.95 -8.9 2.0 -8.95 2.05 -9.0 2.1 -9.05 2.1 -9.05 2.15 -9.1 2.2 -9.15 2.25 -9.2 2.3 -9.25 2.35 -9.3 2.4 -9.4 2.4 -9.45 2.45 L-9.45 2.45" fill="#ffffff" fill-rule="evenodd" stroke="none"/>
      <path d="M-9.1 3.5 Q-8.9 3.45 -8.75 3.35 -8.6 3.3 -8.45 3.2 -8.35 3.1 -8.25 2.95 -8.15 2.85 -8.05 2.7 -7.95 2.6 -7.9 2.45 -7.8 2.3 -7.75 2.15 -7.7 2.0 -7.65 1.8 -7.6 1.7 -7.55 1.5 -7.55 1.4 -7.5 1.3 -7.5 1.2 -7.45 1.1 -7.45 1.05 -7.4 0.95 -7.4 0.85 -7.35 0.75 -7.35 0.7 -7.3 0.6 -7.3 0.5 -7.25 0.4 -7.25 0.3 -7.2 0.2 -7.15 0.15 -7.1 0.05 -7.1 -0.05 -7.05 -0.15 -7.0 -0.25 -6.95 -0.3 -6.9 -0.35 -6.85 -0.4 -6.8 -0.45 -6.7 -0.5 -6.65 -0.55 -6.55 -0.55 -6.45 -0.6 -6.35 -0.6 -6.25 -0.6 -6.15 -0.55 -6.0 -0.55 -5.9 -0.5 -5.65 -0.45 -4.45 0.15 -4.25 0.2 -4.25 0.2 -4.1 0.25 -4.05 0.3 -3.9 0.35 -3.8 0.35 -3.7 0.4 -3.6 0.4 -3.5 0.4 -3.4 0.45 -3.3 0.45 -3.2 0.45 -3.1 0.45 -3.0 0.4 -2.9 0.4 -2.8 0.35 -2.65 0.3 -1.9 -0.2 -1.8 -0.25 -1.5 -0.5 -1.25 -0.7 -1.1 -0.8 -1.05 -0.85 -1.0 -0.9 -0.95 -0.9 -0.9 -0.95 -0.85 -1.0 -0.8 -1.0 -0.75 -1.0 -0.7 -1.05 -0.65 -1.05 -0.6 -1.05 -0.55 -1.05 -0.5 -1.05 -0.45 -1.05 -0.4 -1.05 -0.35 -1.05 -0.35 -1.05 -0.3 -1.05 -0.25 -1.0 -0.25 -0.95 -0.2 -0.9 -0.15 -0.9 -0.15 -0.85 -0.1 -0.8 -0.1 -0.75 -0.05 -0.7 -0.05 -0.65 -0.05 -0.6 0.0 -0.5 0.0 -0.45 0.0 -0.4 0.0 -0.35 0.0 -0.3 -0.05 0.35 -0.1 1.0 -0.15 2.45 -0.1 2.55 -0.1 2.65 -0.05 2.75 0.0 2.85 0.05 2.95 0.1 3.0 0.15 3.1 0.2 3.2 0.3 3.25 0.35 3.35 0.45 3.4 0.5 3.45 0.6 3.55 0.7 3.6 0.8 3.65 0.9 3.7 1.0 3.7 1.15 3.8 1.3 3.85 1.45 3.9 1.6 3.95 1.75 4.0 1.9 4.05 2.05 4.1 2.2 4.1 2.4 4.15 2.55 4.15 2.7 4.15 2.85 4.15 3.0 4.15 3.15 4.1 3.3 4.1 3.45 4.05 3.6 4.0 3.75 3.95 3.9 3.9 4.05 3.85 4.15 3.75 4.25 3.65 4.4 3.6 4.45 3.5 4.55 3.4 4.65 3.25 4.7 3.15 4.8 3.05 4.85 2.9 4.9 2.75 4.95 2.6 5.0 2.45 5.0 2.3 5.05 2.2 5.05 2.05 5.05 1.9 5.05 1.8 5.05 1.65 5.05 1.55 5.0 1.4 5.0 1.3 5.0 1.15 4.95 1.05 4.9 0.95 4.9 0.8 4.85 0.7 4.8 0.55 4.8 0.45 4.8 0.4 4.75 0.35 4.75 0.35 4.7 0.3 4.7 0.25 4.7 0.2 4.7 0.15 4.7 0.1 4.7 0.1 4.65 0.05 4.65 0.0 4.65 -0.05 4.65 -0.1 4.65 -0.15 4.65 -0.2 4.65 -0.3 4.7 -0.4 4.8 -0.5 4.85 -0.5 4.85 -0.5 4.9 -0.5 4.95 -0.5 5.0 -0.5 5.05 -0.5 5.1 -0.45 5.15 -0.45 5.2 -0.4 5.2 -0.4 5.65 0.3 5.65 0.35 6.3 1.2 6.45 1.3 6.55 1.35 6.6 1.4 6.7 1.45 6.8 1.45 6.9 1.5 7.0 1.5 7.05 1.5 7.15 1.5 7.25 1.5 7.35 1.45 7.45 1.45 7.55 1.45 7.65 1.4 7.7 1.35 7.8 1.35 7.9 1.3 8.0 1.25 8.15 1.2 8.25 1.15 8.4 1.1 8.5 1.1 8.65 1.1 8.75 1.05 8.9 1.05 9.0 1.1 9.15 1.1 9.25 1.1 9.4 1.15 9.5 1.2 9.65 1.25 9.75 1.3 9.9 1.4 9.9 1.4 9.9 1.4 9.95 1.45 9.95 1.45 9.95 1.5 10.0 1.55 10.0 1.6 10.0 1.6 10.0 1.8 9.95 2.0 9.9 2.2 9.9 2.4 9.85 2.55 9.8 2.75 9.75 2.95 9.65 3.1 9.6 3.3 9.55 3.45 9.45 3.65 9.4 3.8 9.3 4.0 9.2 4.15 9.1 4.3 9.0 4.45 8.95 4.55 8.85 4.7 8.8 4.8 8.75 4.9 8.65 5.0 8.6 5.15 8.5 5.25 8.45 5.35 8.35 5.45 8.25 5.55 8.2 5.65 8.1 5.75 8.05 5.85 7.95 5.95 7.9 6.0 7.8 6.15 7.65 6.3 7.55 6.45 7.4 6.6 7.25 6.75 7.1 6.9 6.95 7.0 6.8 7.15 6.65 7.25 6.5 7.4 6.3 7.5 6.15 7.65 6.0 7.75 5.85 7.85 5.65 7.95 5.5 8.05 5.35 8.15 5.15 8.25 4.95 8.35 4.75 8.45 4.6 8.55 4.4 8.6 4.2 8.7 4.0 8.8 3.8 8.85 3.6 8.95 3.4 9.0 3.2 9.05 3.0 9.1 2.8 9.2 2.55 9.25 2.35 9.3 2.1 9.3 0.9 9.55 0.2 9.55 -0.05 9.55 -0.3 9.55 -0.55 9.5 -0.75 9.5 -1.0 9.45 -1.25 9.45 -1.5 9.4 -1.7 9.35 -1.95 9.3 -2.2 9.25 -2.4 9.2 -2.65 9.15 -2.85 9.05 -3.1 8.95 -3.35 8.9 -3.55 8.8 -3.75 8.7 -3.9 8.65 -4.1 8.55 -4.25 8.45 -4.45 8.35 -4.6 8.25 -4.75 8.2 -4.9 8.1 -5.05 8.0 -5.2 7.85 -5.35 7.75 -5.5 7.65 -5.65 7.55 -5.8 7.45 -5.95 7.35 -6.1 7.2 -6.25 7.1 -6.35 7.0 -6.45 6.9 -6.6 6.8 -6.7 6.7 -6.8 6.55 -6.9 6.45 -7.05 6.35 -7.15 6.25 -7.25 6.1 -7.35 6.0 -7.4 5.9 -7.5 5.75 -7.6 5.65 -7.7 5.55 -7.8 5.4 -7.95 5.25 -8.05 5.15 -8.15 5.0 -8.3 4.85 -8.35 4.75 -8.45 4.6 -8.55 4.5 -8.6 4.4 -8.7 4.3 -8.75 4.15 -8.8 4.1 -8.85 3.95 -8.95 3.8 -9.0 3.7 -9.05 3.6 -9.1 3.5 L-9.1 3.5" fill="#ffffff" fill-rule="evenodd" stroke="none"/>
    </g>
  
</svg>
