<?xml version="1.0" encoding="UTF-8" standalone="no"?>
<svg xmlns:xlink="http://www.w3.org/1999/xlink" height="21.3px" width="21.0px" xmlns="http://www.w3.org/2000/svg">
  <g transform="matrix(1.0, 0.0, 0.0, 1.0, 10.5, 11.0)">
    <use data-characterId="97" height="19.0" transform="matrix(1.0, 0.0, 0.0, 1.0, -9.25, -9.5)" width="18.55" xlink:href="#shape0"/>
  </g>
  
    <g id="shape0" transform="matrix(1.0, 0.0, 0.0, 1.0, 9.25, 9.5)">
      <path d="M-6.75 1.6 Q-6.75 1.0 -6.75 -0.1 -6.75 -0.15 -6.75 -0.2 -6.75 -0.2 -6.75 -0.25 -6.7 -0.3 -6.7 -0.35 -6.7 -0.4 -6.7 -0.45 -6.65 -0.5 -6.65 -0.55 -6.65 -0.6 -6.6 -0.65 -6.6 -0.7 -6.6 -0.7 -6.55 -0.75 -6.55 -0.8 -6.55 -0.9 -6.55 -1.1 -6.55 -1.2 -6.55 -1.2 -6.55 -1.3 -6.55 -1.3 -6.55 -1.4 -6.55 -1.45 -6.55 -1.5 -6.5 -1.55 -6.5 -1.6 -6.5 -1.65 -6.5 -1.7 -6.45 -1.75 -6.45 -1.85 -6.4 -1.9 -6.4 -1.95 -6.35 -2.0 -6.35 -2.0 -6.35 -2.05 -6.35 -2.1 -6.35 -2.15 -6.35 -2.2 -6.3 -2.25 -6.3 -2.3 -6.3 -2.35 -6.25 -2.35 -6.25 -2.4 -6.25 -2.45 -6.25 -2.45 -6.25 -2.5 -6.25 -2.55 -6.2 -2.6 -6.2 -2.6 -6.2 -2.65 -6.2 -2.7 -6.15 -2.75 -6.15 -2.75 -6.15 -2.8 -6.1 -2.85 -6.1 -2.9 -6.1 -2.9 -6.05 -2.95 -6.05 -3.0 -6.05 -3.1 -6.05 -3.15 -6.0 -3.2 -5.95 -3.2 -5.95 -3.25 -5.95 -3.3 -5.95 -3.35 -5.95 -3.4 -5.9 -3.45 -5.9 -3.5 -5.9 -3.55 -5.9 -3.6 -5.85 -3.65 -5.85 -3.65 -5.85 -3.7 -5.8 -3.75 -5.8 -3.8 -5.8 -3.8 -5.75 -3.85 -5.75 -3.9 -5.75 -3.95 -5.7 -4.0 -5.7 -4.0 -5.7 -4.05 -5.65 -4.1 -5.65 -4.15 -5.65 -4.15 -5.65 -4.25 -5.65 -4.3 -5.6 -4.3 -5.6 -4.35 -5.6 -4.4 -5.6 -4.45 -5.55 -4.45 -5.55 -4.5 -5.55 -4.5 -5.5 -4.55 -5.45 -4.65 -5.45 -4.7 -5.4 -4.8 -5.35 -4.85 -5.3 -4.9 -5.25 -4.95 -5.2 -5.05 -5.15 -5.1 -5.1 -5.15 -5.05 -5.25 -5.0 -5.25 -4.95 -5.35 -4.9 -5.4 -4.85 -5.45 -4.85 -5.5 -4.85 -5.55 -4.8 -5.6 -4.8 -5.6 -4.75 -5.65 -4.75 -5.65 -4.7 -5.75 -4.65 -5.8 -4.65 -5.8 -4.6 -5.85 -4.6 -5.9 -4.55 -5.95 -4.55 -6.0 -4.5 -6.05 -4.5 -6.1 -4.45 -6.15 -4.45 -6.2 -4.45 -6.25 -4.4 -6.3 -4.4 -6.3 -4.35 -6.35 -4.35 -6.4 -4.3 -6.4 -4.3 -6.45 -4.25 -6.45 -4.25 -6.5 -4.2 -6.5 -4.2 -6.55 -4.2 -6.55 -4.15 -6.55 -4.15 -6.6 -4.1 -6.65 -4.1 -6.65 -4.05 -6.7 -3.45 -7.0 -3.45 -7.0 -3.4 -7.05 -3.4 -7.05 -3.35 -7.05 -3.35 -7.1 -3.3 -7.1 -3.3 -7.15 -3.25 -7.15 -3.25 -7.15 -3.2 -7.2 -3.2 -7.2 -3.15 -7.2 -3.15 -7.25 -3.1 -7.25 -3.05 -7.3 -3.05 -7.3 -2.8 -7.3 -2.55 -7.3 -2.5 -7.3 -2.45 -7.25 -2.35 -7.25 -2.3 -7.25 -2.25 -7.2 -2.15 -7.2 -2.1 -7.2 -2.05 -7.15 -1.95 -7.15 -1.9 -7.15 -1.85 -7.15 -1.75 -7.1 -1.7 -7.1 -1.65 -7.1 -1.6 -7.1 -1.55 -7.1 -0.65 -7.0 1.1 -7.0 1.15 -7.0 1.2 -7.0 1.25 -7.0 1.3 -7.0 1.35 -7.0 1.4 -7.0 1.5 -7.0 1.55 -7.0 1.6 -7.0 1.65 -7.0 1.7 -7.05 1.75 -7.05 1.8 -7.05 1.85 -7.05 1.95 -7.1 2.0 -7.1 2.1 -7.1 2.5 -7.3 2.55 -7.35 2.65 -7.35 2.7 -7.4 2.8 -7.4 2.85 -7.45 2.95 -7.45 3.0 -7.45 3.1 -7.45 3.15 -7.45 3.25 -7.4 3.3 -7.4 3.4 -7.35 3.45 -7.35 3.55 -7.3 3.6 -7.25 3.7 -7.2 3.75 -7.15 3.75 -7.15 3.8 -7.1 3.85 -7.05 3.9 -7.05 3.95 -7.0 4.0 -7.0 4.05 -6.95 4.1 -6.9 4.15 -6.9 4.2 -6.85 4.2 -6.85 4.25 -6.8 4.3 -6.75 4.35 -6.75 4.4 -6.7 4.45 -6.7 4.45 -6.65 4.5 -6.65 4.55 -6.6 4.55 -6.6 4.6 -6.55 4.6 -6.5 4.65 -6.5 4.65 -6.45 4.7 -6.4 4.75 -6.35 4.75 -6.35 4.8 -6.3 4.8 -6.25 4.85 -6.25 4.9 -6.2 4.95 -6.15 4.95 -6.1 5.0 -6.1 5.05 -6.05 5.05 -6.0 5.1 -5.95 5.1 -5.95 5.15 -5.9 5.15 -5.85 5.15 -5.85 5.2 -5.8 5.2 -5.75 5.25 -5.7 5.25 -5.7 5.25 -5.65 5.3 -5.6 5.4 -5.5 5.7 -4.9 5.75 -4.8 5.8 -4.7 5.85 -4.55 6.0 -4.2 6.15 -3.85 6.2 -3.7 6.2 -3.7 6.2 -3.7 6.2 -3.65 6.2 -3.6 6.15 -3.55 6.2 -3.5 6.2 -3.45 6.2 -3.4 6.25 -3.35 6.25 -3.3 6.15 -3.45 6.3 -3.2 6.35 -3.15 6.35 -3.1 6.35 -3.05 6.4 -3.0 6.4 -2.95 6.4 -2.9 6.4 -2.85 6.4 -2.8 6.4 -2.8 6.4 -2.75 6.4 -2.7 6.45 -2.65 6.45 -2.65 6.5 -2.6 6.5 -2.55 6.5 -2.55 6.5 -2.5 6.5 -2.45 6.5 -2.45 6.55 -2.4 6.55 -2.4 6.55 -2.35 6.55 -2.3 6.55 -2.3 6.55 -2.25 6.6 -2.25 6.6 -2.2 6.6 -2.15 6.6 -2.15 6.6 -2.1 6.6 -2.05 6.6 -2.05 6.6 -2.0 6.6 -1.95 6.6 -1.95 6.65 -1.9 6.65 -1.9 6.65 -1.85 6.65 -1.8 6.65 -1.8 6.65 -1.75 6.7 -1.75 6.7 -1.7 6.7 -1.65 6.7 -1.65 6.7 -1.6 6.7 -1.5 6.7 -1.45 6.7 -1.35 6.7 -1.3 6.7 -1.2 6.7 -1.1 6.7 -1.05 6.7 -0.95 6.75 -0.85 6.75 -0.8 6.75 -0.7 6.8 -0.6 6.8 -0.55 6.85 -0.45 6.85 -0.35 6.9 -0.3 6.9 -0.3 6.9 -0.2 6.9 1.05 7.0 1.8 7.0 1.9 7.0 2.0 7.0 2.05 6.95 2.15 6.95 2.2 6.9 2.3 6.9 2.35 6.85 2.4 6.8 2.45 6.8 2.55 6.75 2.6 6.7 2.65 6.65 2.7 6.6 2.7 6.55 2.75 6.5 2.8 6.35 2.9 6.1 3.1 5.85 3.3 5.7 3.4 5.6 3.45 5.55 3.45 5.45 3.5 5.4 3.55 5.3 3.55 5.25 3.6 5.15 3.6 5.1 3.65 5.0 3.65 4.95 3.7 4.85 3.7 4.8 3.7 4.7 3.75 4.65 3.75 4.6 3.8 4.5 3.8 4.35 3.85 4.0 3.9 3.65 3.95 3.5 4.0 3.35 4.05 3.05 4.1 2.75 4.15 2.6 4.2 2.5 4.2 2.5 4.2 2.45 4.2 2.4 4.2 2.35 4.2 2.3 4.2 2.25 4.2 2.2 4.2 2.15 4.2 2.1 4.2 2.05 4.25 2.0 4.25 1.95 4.25 1.9 4.25 1.85 4.3 1.8 4.3 1.7 4.35 1.6 4.35 1.5 4.4 1.4 4.4 1.3 4.45 1.2 4.45 1.1 4.45 1.0 4.5 0.9 4.5 0.8 4.5 0.7 4.5 0.6 4.5 0.5 4.5 0.4 4.5 0.3 4.5 0.2 4.5 -0.35 4.5 -0.95 4.5 -1.05 4.5 -1.15 4.5 -1.2 4.5 -1.3 4.5 -1.4 4.5 -1.45 4.5 -1.55 4.5 -1.65 4.5 -1.7 4.5 -1.8 4.5 -1.9 4.45 -1.95 4.45 -2.05 4.45 -2.15 4.45 -2.25 4.4 -2.35 4.4 -2.4 4.4 -2.45 4.4 -2.5 4.4 -2.55 4.4 -2.6 4.35 -2.65 4.35 -2.7 4.35 -2.75 4.35 -2.8 4.3 -2.85 4.3 -2.9 4.3 -2.95 4.25 -3.0 4.25 -3.05 4.25 -3.1 4.2 -3.15 4.2 -3.2 4.2 -3.2 4.2 -3.25 4.2 -3.3 4.2 -3.35 4.2 -3.4 4.2 -3.45 4.2 -3.5 4.2 -3.55 4.2 -3.6 4.2 -3.65 4.15 -3.65 4.15 -3.7 4.15 -3.75 4.15 -3.8 4.1 -3.85 4.1 -4.1 4.05 -4.35 4.0 -4.4 4.0 -4.45 3.95 -4.45 3.95 -4.5 3.95 -4.55 3.9 -4.6 3.9 -4.65 3.9 -4.65 3.9 -4.7 3.9 -4.75 3.85 -4.75 3.85 -4.8 3.85 -4.8 3.8 -4.85 3.8 -4.85 3.8 -4.85 3.75 -4.95 3.75 -5.0 3.75 -5.05 3.7 -5.15 3.7 -5.2 3.7 -5.25 3.65 -5.3 3.65 -5.35 3.6 -5.4 3.6 -5.45 3.55 -5.55 3.55 -5.55 3.5 -5.6 3.45 -5.65 3.4 -5.7 3.35 -5.75 3.3 -5.75 3.3 -5.75 3.3 -5.8 3.3 -5.8 3.3 -5.85 3.3 -5.85 3.25 -5.9 3.25 -5.95 3.2 -6.1 3.05 -6.4 2.8 -6.7 2.55 -6.85 2.4 -6.9 2.35 -6.9 2.35 -6.9 2.3 -6.95 2.25 -6.95 2.2 -6.95 2.2 -6.95 2.15 -6.95 2.1 -6.95 2.1 -6.9 2.05 -6.9 2.05 -6.9 2.0 -6.9 2.0 -6.85 1.95 -6.85 1.9 -6.85 1.9 -6.85 1.9 -6.8 1.8 -6.8 1.8 -6.8 1.75 -6.8 1.7 -6.8 1.65 -6.75 1.65 -6.75 1.6 -6.8 1.6 -6.8 1.6 -6.8 1.6 -6.75 1.6 L-6.75 1.6 M1.4 1.5 Q1.6 1.5 1.7 1.5 1.85 1.5 1.95 1.5 2.05 1.45 2.1 1.45 2.15 1.4 2.2 1.4 2.25 1.35 2.25 1.3 2.3 1.25 2.3 1.15 2.3 1.1 2.3 1.0 2.3 0.85 2.3 0.8 2.3 0.7 2.3 0.6 2.3 0.5 2.35 0.4 2.35 0.3 2.4 0.2 2.45 0.1 2.5 0.05 2.55 -0.05 2.6 -0.15 2.65 -0.2 2.7 -0.3 2.75 -0.35 2.85 -0.45 2.9 -0.5 3.0 -0.6 3.05 -0.65 3.05 -0.65 3.1 -0.7 3.1 -0.75 3.1 -0.75 3.15 -0.8 3.15 -0.8 3.15 -0.85 3.15 -0.9 3.1 -0.9 3.1 -0.95 3.1 -0.95 3.1 -1.0 3.05 -1.05 3.0 -1.05 3.0 -1.1 2.9 -1.2 2.85 -1.25 2.75 -1.35 2.7 -1.4 2.65 -1.5 2.6 -1.55 2.55 -1.65 2.5 -1.7 2.45 -1.8 2.4 -1.85 2.35 -1.95 2.35 -2.05 2.3 -2.15 2.3 -2.2 2.3 -2.3 2.3 -2.4 2.3 -2.55 2.3 -2.65 2.3 -2.75 2.3 -2.8 2.25 -2.9 2.25 -2.95 2.25 -3.0 2.2 -3.0 2.15 -3.05 2.1 -3.05 2.05 -3.1 2.0 -3.1 1.9 -3.1 1.8 -3.1 1.75 -3.1 1.6 -3.1 1.6 -3.1 1.55 -3.1 1.55 -3.1 1.5 -3.1 1.45 -3.15 1.45 -3.15 1.4 -3.15 1.4 -3.15 1.35 -3.2 1.3 -3.2 1.3 -3.2 1.25 -3.25 1.25 -3.25 1.2 -3.25 1.2 -3.3 1.2 -3.3 1.2 -3.35 1.15 -3.4 1.15 -3.5 1.15 -3.55 1.15 -3.6 1.15 -3.65 1.15 -3.75 1.15 -3.8 1.2 -3.85 1.2 -3.9 1.2 -3.95 1.25 -4.0 1.3 -4.05 1.3 -4.1 1.35 -4.15 1.4 -4.2 1.45 -4.25 1.5 -4.3 1.55 -4.4 1.55 -4.45 1.6 -4.5 1.65 -4.6 1.65 -4.65 1.65 -4.75 1.7 -4.8 1.7 -4.85 1.7 -4.95 1.7 -5.0 1.65 -5.05 1.65 -5.1 1.6 -5.15 1.6 -5.2 1.55 -5.25 1.5 -5.3 1.45 -5.35 1.4 -5.4 1.35 -5.4 1.3 -5.45 1.2 -5.45 1.15 -5.5 1.1 -5.5 1.0 -5.5 0.95 -5.5 0.85 -5.5 0.8 -5.5 0.75 -5.45 0.65 -5.45 0.6 -5.4 0.55 -5.4 0.5 -5.35 0.5 -5.35 0.45 -5.35 0.4 -5.35 0.4 -5.35 0.35 -5.35 0.35 -5.4 0.35 -5.4 0.3 -5.4 0.3 -5.45 0.3 -5.45 0.3 -5.5 0.3 -5.55 0.3 -5.55 0.3 -5.6 0.3 -5.65 0.3 -5.65 0.3 -5.7 0.3 -5.75 0.3 -5.8 0.3 -5.8 0.3 -5.85 0.3 -5.9 0.3 -5.95 0.25 -5.95 0.25 -6.0 0.2 -6.05 0.2 -6.05 0.15 -6.1 0.1 -6.1 0.1 -6.1 0.05 -6.1 0.0 -6.05 -0.05 -6.05 -0.1 -6.0 -0.15 -5.95 -0.15 -5.9 -0.15 -5.85 -0.15 -5.8 -0.15 -5.8 -0.15 -5.75 -0.15 -5.7 -0.15 -5.65 -0.15 -5.65 -0.15 -5.6 -0.15 -5.55 -0.15 -5.5 -0.15 -5.45 -0.2 -5.45 -0.2 -5.4 -0.25 -5.4 -0.25 -5.4 -0.3 -5.4 -0.35 -5.4 -0.45 -5.4 -0.5 -5.4 -0.5 -5.45 -0.55 -5.45 -0.6 -5.45 -0.65 -5.45 -0.7 -5.5 -0.75 -5.5 -0.8 -5.5 -0.8 -5.5 -0.85 -5.5 -0.9 -5.5 -0.95 -5.5 -1.0 -5.5 -1.05 -5.5 -1.1 -5.5 -1.15 -5.5 -1.2 -5.5 -1.3 -5.45 -1.35 -5.4 -1.4 -5.35 -1.45 -5.3 -1.5 -5.25 -1.55 -5.2 -1.55 -5.1 -1.6 -5.05 -1.6 -4.95 -1.6 -4.9 -1.6 -4.8 -1.6 -4.75 -1.6 -4.65 -1.55 -4.55 -1.55 -4.5 -1.5 -4.45 -1.45 -4.4 -1.35 -4.35 -1.3 -4.3 -1.25 -4.3 -1.2 -4.25 -1.15 -4.2 -1.1 -4.15 -1.05 -4.1 -1.05 -4.0 -1.0 -3.95 -1.0 -3.9 -1.0 -3.85 -1.0 -3.8 -1.0 -3.7 -1.0 -3.65 -1.0 -3.6 -1.05 -3.5 -1.05 -3.5 -1.05 -3.45 -1.05 -3.45 -1.05 -3.4 -1.05 -3.4 -1.05 -3.4 -1.05 -3.35 -1.05 -3.35 -1.05 -3.35 -1.1 -3.3 -1.1 -3.3 -1.1 -3.25 -1.15 -3.25 -1.15 -3.25 -1.2 -3.2 -1.25 -3.2 -1.5 -3.15 -1.75 -3.1 -1.8 -3.1 -1.85 -3.1 -1.9 -3.1 -1.95 -3.1 -1.95 -3.05 -2.0 -3.05 -2.0 -3.05 -2.05 -3.0 -2.05 -3.0 -2.1 -2.95 -2.1 -2.95 -2.1 -2.9 -2.1 -2.85 -2.15 -2.8 -2.15 -2.75 -2.15 -2.7 -2.15 -2.55 -2.1 -2.45 -2.1 -2.35 -2.15 -2.2 -2.15 -2.1 -2.2 -2.0 -2.2 -1.9 -2.25 -1.75 -2.3 -1.65 -2.35 -1.55 -2.4 -1.5 -2.5 -1.4 -2.55 -1.3 -2.65 -1.2 -2.75 -1.1 -2.85 -1.0 -2.85 -0.95 -2.9 -0.95 -2.9 -0.9 -2.9 -0.85 -2.9 -0.8 -2.9 -0.75 -2.9 -0.7 -2.9 -0.65 -2.85 -0.65 -2.85 -0.6 -2.65 -0.3 -2.25 0.3 -2.25 0.35 -2.2 0.4 -2.2 0.4 -2.2 0.45 -2.15 0.5 -2.15 0.55 -2.15 0.6 -2.15 0.65 -2.15 0.7 -2.15 0.75 -2.15 0.8 -2.15 0.9 -2.15 0.95 -2.15 1.0 -2.15 1.05 -2.15 1.1 -2.15 1.15 -2.15 1.2 -2.15 1.25 -2.1 1.3 -2.1 1.35 -2.1 1.35 -2.05 1.4 -2.05 1.4 -2.0 1.45 -2.0 1.45 -1.95 1.45 -1.9 1.5 -1.9 1.5 -1.85 1.5 -1.8 1.5 -1.75 1.5 -1.6 1.5 -1.45 1.5 -1.35 1.5 -1.25 1.5 -1.1 1.55 -1.0 1.55 -0.95 1.6 -0.85 1.6 -0.75 1.65 -0.65 1.7 -0.55 1.75 -0.5 1.8 -0.4 1.8 -0.35 1.9 -0.25 1.95 -0.2 2.0 -0.15 2.0 -0.05 2.1 0.0 2.15 0.05 2.15 0.05 2.2 0.1 2.2 0.15 2.25 0.15 2.25 0.2 2.25 0.2 2.25 0.25 2.25 0.3 2.25 0.3 2.25 0.35 2.2 0.35 2.2 0.4 2.15 0.45 2.15 0.5 2.1 0.55 2.05 0.6 1.95 0.65 1.9 0.7 1.85 0.75 1.8 0.8 1.75 0.85 1.7 0.95 1.65 1.0 1.6 1.05 1.6 1.1 1.55 1.2 1.55 1.25 1.5 1.3 1.5 1.35 1.5 1.4 1.5 L1.4 1.5" fill="#ffffff" fill-rule="evenodd" stroke="none"/>
      <path d="M0.2 9.4 Q0.1 9.4 0.05 9.4 0.0 9.4 -0.1 9.4 -0.15 9.35 -0.2 9.35 -0.25 9.35 -0.3 9.3 -0.4 9.3 -0.45 9.3 -0.5 9.25 -0.55 9.25 -0.6 9.2 -0.7 9.15 -0.75 9.15 -0.85 9.1 -0.9 9.05 -0.95 9.05 -1.0 9.0 -1.05 8.95 -1.1 8.95 -1.15 8.9 -1.2 8.9 -1.3 8.85 -1.35 8.85 -1.4 8.8 -1.45 8.8 -1.5 8.8 -1.55 8.75 -1.6 8.75 -1.65 8.7 -1.75 8.7 -1.9 8.6 -2.2 8.45 -2.5 8.3 -2.65 8.2 -3.15 7.9 -4.15 7.3 -4.25 7.25 -4.5 7.1 -4.75 6.95 -4.85 6.9 -4.9 6.9 -5.0 6.85 -5.05 6.85 -5.1 6.8 -5.15 6.8 -5.2 6.75 -5.25 6.75 -5.3 6.7 -5.35 6.7 -5.4 6.65 -5.0 6.9 -5.5 6.6 -5.55 6.55 -5.55 6.55 -5.6 6.5 -5.65 6.5 -5.75 6.45 -6.0 6.3 -6.25 6.15 -6.35 6.1 -7.15 5.45 -7.35 5.3 -7.4 5.3 -7.4 5.25 -7.45 5.25 -7.5 5.2 -7.5 5.2 -7.55 5.15 -7.55 5.15 -7.6 5.1 -7.6 5.1 -7.65 5.05 -7.5 5.2 -7.65 5.0 -7.7 4.95 -7.7 4.95 -7.75 4.9 -7.75 4.9 -7.75 4.9 -7.8 4.85 -7.8 4.85 -7.8 4.8 -7.85 4.8 -7.85 4.75 -7.85 4.7 -7.9 4.7 -7.9 4.65 -7.9 4.6 -7.9 4.6 -7.95 4.55 -7.95 4.5 -7.95 4.45 -7.95 4.45 -7.95 4.4 -7.95 4.35 -8.0 4.25 -8.0 4.2 -8.0 4.1 -8.0 4.05 -8.0 4.0 -7.95 3.9 -7.95 3.85 -7.95 3.8 -7.9 3.75 -7.9 3.7 -7.9 3.65 -7.85 3.55 -7.8 3.5 -7.8 3.45 -7.75 3.4 -7.7 3.35 -7.65 3.35 -7.65 3.3 -7.6 3.25 -7.55 3.2 -7.5 3.2 -7.45 3.15 -7.45 3.1 -7.4 3.1 -7.35 3.05 -7.3 3.0 -7.25 3.0 -7.2 2.95 -7.15 2.95 -7.1 2.9 -7.05 2.9 -7.05 2.9 -7.0 2.9 -7.0 2.9 -6.95 2.9 -6.95 2.95 -6.9 2.95 -6.85 2.95 -6.85 2.95 -6.8 3.0 -6.8 3.0 -6.75 3.0 -6.75 3.05 -6.7 3.05 -6.7 3.05 -6.65 3.1 -6.65 3.1 -6.6 3.15 -6.55 3.2 -6.55 3.25 -6.5 3.3 -6.45 3.35 -6.4 3.4 -6.35 3.45 -6.35 3.5 -6.3 3.55 -6.25 3.55 -6.2 3.6 -6.15 3.65 -6.1 3.7 -6.05 3.7 -6.0 3.75 -5.95 3.8 -5.9 3.85 -5.85 3.85 -5.8 3.9 -5.7 3.95 -5.65 3.95 -5.6 4.0 -5.55 4.0 -5.5 4.05 -5.45 4.05 -5.4 4.1 -5.3 4.1 -5.25 4.1 -5.2 4.15 -5.15 4.15 -5.1 4.2 -5.05 4.2 -5.05 4.2 -5.05 4.2 -5.0 4.25 -4.9 4.3 -4.8 4.35 -4.75 4.35 -4.65 4.4 -4.55 4.4 -4.5 4.4 -4.4 4.45 -4.3 4.45 -4.25 4.5 -4.15 4.5 -4.1 4.55 -4.0 4.55 -3.95 4.6 -3.9 4.65 -3.85 4.7 -3.75 4.7 -3.65 4.7 -3.5 4.75 -3.15 4.8 -2.8 4.85 -2.65 4.9 -2.35 4.95 -2.05 5.0 -1.55 5.0 -1.05 5.0 -0.05 4.95 1.0 4.9 1.5 4.9 2.5 4.7 2.7 4.65 3.0 4.6 3.3 4.55 3.5 4.5 3.5 4.5 3.75 4.45 3.85 4.4 4.0 4.4 4.1 4.4 4.7 4.2 4.7 4.2 4.95 4.1 5.05 4.05 5.2 4.0 5.45 3.95 5.55 3.9 5.3 4.05 5.8 3.7 5.85 3.65 5.95 3.65 6.0 3.6 6.05 3.55 6.1 3.55 6.15 3.5 6.2 3.45 6.25 3.45 6.25 3.4 6.3 3.35 6.35 3.35 6.4 3.3 6.45 3.25 6.5 3.2 6.5 3.15 6.6 3.1 6.65 3.1 6.65 3.1 6.7 3.05 6.75 3.0 6.8 3.0 6.8 2.95 6.85 2.9 6.85 2.85 6.9 2.85 6.9 2.8 6.95 2.75 6.95 2.75 7.0 2.7 7.05 2.7 7.1 2.65 7.15 2.65 7.2 2.6 7.2 2.6 7.25 2.6 7.3 2.6 7.35 2.6 7.4 2.65 7.45 2.65 7.5 2.7 7.55 2.75 7.6 2.8 7.65 2.85 7.7 2.9 7.75 2.9 7.8 2.95 7.85 3.0 7.9 3.05 8.0 3.1 8.0 3.15 8.05 3.25 8.1 3.3 8.15 3.35 8.2 3.4 8.2 3.5 8.25 3.55 8.3 3.65 8.3 3.7 8.3 3.8 8.3 3.9 8.35 3.95 8.3 4.05 8.3 4.15 8.3 4.2 8.3 4.3 8.25 4.4 8.2 4.45 8.2 4.5 8.15 4.6 8.1 4.65 8.05 4.7 8.0 4.8 7.95 4.85 7.9 4.9 7.7 5.1 7.2 5.6 7.0 5.75 6.6 6.0 6.2 6.25 6.0 6.4 5.25 6.85 5.2 6.9 4.9 7.05 4.35 7.35 3.75 7.65 3.5 7.8 3.45 7.8 3.4 7.85 3.35 7.85 3.3 7.9 3.3 7.9 3.25 7.95 3.2 8.0 3.15 8.0 3.1 8.05 3.05 8.1 3.0 8.1 2.95 8.15 2.9 8.2 2.85 8.25 2.8 8.25 2.8 8.3 2.75 8.35 2.7 8.35 2.7 8.4 2.65 8.4 2.6 8.4 2.55 8.4 2.55 8.4 2.5 8.4 2.45 8.45 2.4 8.45 2.3 8.5 2.25 8.55 2.2 8.6 2.1 8.6 2.05 8.65 2.0 8.7 1.9 8.7 1.85 8.75 1.8 8.8 1.7 8.8 1.65 8.85 1.6 8.85 1.55 8.9 1.5 8.9 1.2 9.0 0.75 9.2 0.4 9.35 0.2 9.4 L0.2 9.4" fill="#ffffff" fill-rule="evenodd" stroke="none"/>
      <path d="M1.3 -7.4 Q0.65 -7.35 -0.05 -7.3 -0.15 -7.3 -0.25 -7.3 -0.35 -7.3 -0.4 -7.3 -0.5 -7.3 -0.6 -7.3 -0.7 -7.3 -0.8 -7.3 -0.9 -7.3 -1.0 -7.3 -1.1 -7.35 -1.2 -7.35 -1.3 -7.35 -1.4 -7.35 -1.5 -7.4 -1.65 -7.4 -1.8 -7.45 -1.95 -7.5 -2.0 -7.5 -2.0 -7.55 -2.05 -7.55 -2.05 -7.6 -2.05 -7.6 -2.05 -7.65 -2.1 -7.65 -2.05 -7.7 -2.05 -7.75 -2.05 -7.75 -2.05 -7.8 -2.0 -7.8 -1.95 -7.85 -1.95 -7.85 -1.9 -7.9 -1.85 -7.9 -1.75 -7.95 -1.65 -8.0 -1.55 -8.05 -1.5 -8.1 -1.4 -8.15 -1.3 -8.25 -1.25 -8.3 -1.15 -8.35 -1.1 -8.35 -0.95 -8.5 -0.85 -8.6 -0.8 -8.65 -0.7 -8.7 -0.6 -8.8 -0.5 -8.85 -0.45 -8.9 -0.35 -9.0 -0.25 -9.05 -0.2 -9.1 -0.1 -9.1 -0.05 -9.15 0.0 -9.2 0.05 -9.2 0.15 -9.2 0.2 -9.2 0.25 -9.2 0.35 -9.15 0.4 -9.1 0.5 -9.1 0.55 -9.05 0.65 -9.0 0.8 -8.9 1.1 -8.7 1.6 -8.2 1.65 -8.15 1.65 -8.15 1.7 -8.1 1.75 -8.1 1.8 -8.05 1.8 -8.05 1.85 -8.05 1.9 -8.0 2.0 -7.9 2.2 -7.7 2.15 -7.7 2.15 -7.65 2.1 -7.65 2.05 -7.6 2.0 -7.6 2.0 -7.55 1.95 -7.55 1.9 -7.55 1.85 -7.5 1.85 -7.5 1.8 -7.5 1.8 -7.5 1.75 -7.5 1.75 -7.5 1.75 -7.45 1.7 -7.45 1.65 -7.45 1.6 -7.4 1.55 -7.4 1.5 -7.4 1.45 -7.4 1.4 -7.4 1.35 -7.4 1.3 -7.4 1.3 -7.4 1.3 -7.4 L1.3 -7.4" fill="#ffffff" fill-rule="evenodd" stroke="none"/>
      <path d="M0.1 1.2 Q-0.1 1.2 -0.35 1.2 -0.55 1.15 -0.75 1.05 -0.95 0.95 -1.1 0.85 -1.3 0.75 -1.45 0.55 -1.55 0.45 -1.7 0.25 -1.8 0.1 -1.85 -0.1 -1.95 -0.25 -2.0 -0.45 -2.05 -0.65 -2.05 -0.8 -2.05 -1.0 -2.0 -1.2 -1.95 -1.4 -1.9 -1.6 -1.8 -1.8 -1.7 -1.95 -1.55 -2.1 -1.45 -2.25 -1.3 -2.4 -1.1 -2.55 -0.95 -2.65 -0.75 -2.75 -0.55 -2.8 -0.35 -2.85 -0.15 -2.9 0.1 -2.9 0.3 -2.9 0.55 -2.85 0.75 -2.8 0.9 -2.75 1.1 -2.65 1.3 -2.55 1.45 -2.4 1.6 -2.25 1.7 -2.1 1.85 -1.95 1.95 -1.8 2.0 -1.6 2.1 -1.4 2.15 -1.2 2.2 -1.0 2.2 -0.8 2.2 -0.65 2.15 -0.45 2.1 -0.25 2.05 -0.1 1.95 0.1 1.85 0.25 1.7 0.45 1.6 0.6 1.45 0.75 1.25 0.85 1.1 0.95 0.9 1.05 0.7 1.15 0.5 1.2 0.3 1.2 0.1 1.2 L0.1 1.2" fill="#ffffff" fill-rule="evenodd" stroke="none"/>
      <path d="M-0.55 -4.6 Q-0.75 -4.65 -0.95 -4.7 -1.0 -4.7 -1.05 -4.75 -1.1 -4.75 -1.1 -4.8 -1.1 -4.85 -1.1 -4.9 -1.05 -4.95 -1.05 -5.0 -1.05 -5.05 -1.0 -5.05 -0.95 -5.1 -0.95 -5.1 -0.9 -5.15 -0.85 -5.15 -0.85 -5.15 -0.85 -5.1 -0.8 -5.05 -0.65 -4.95 -0.5 -4.85 -0.45 -4.8 -0.45 -4.8 -0.5 -4.7 -0.5 -4.65 -0.55 -4.6 L-0.55 -4.6" fill="#ffffff" fill-rule="evenodd" stroke="none"/>
      <path d="M0.8 -4.6 Q0.7 -4.65 0.6 -4.7 0.6 -4.75 0.6 -4.8 0.6 -4.85 0.6 -4.85 0.65 -4.9 0.7 -4.9 0.7 -4.9 0.75 -4.95 0.75 -4.95 0.75 -4.95 0.8 -5.0 0.8 -5.0 0.8 -5.0 0.85 -5.05 0.85 -5.05 0.9 -5.05 0.9 -5.05 0.95 -5.1 0.95 -5.1 1.0 -5.1 1.05 -5.1 1.1 -5.1 1.1 -5.1 1.15 -5.1 1.15 -5.05 1.15 -5.0 1.15 -5.05 1.2 -4.95 1.2 -4.9 1.25 -4.85 1.25 -4.85 1.3 -4.8 1.25 -4.75 1.2 -4.7 1.15 -4.65 1.1 -4.65 1.1 -4.65 1.05 -4.6 1.0 -4.6 0.95 -4.6 0.9 -4.6 0.85 -4.6 0.8 -4.6 0.8 -4.6 L0.8 -4.6" fill="#ffffff" fill-rule="evenodd" stroke="none"/>
    </g>
  
</svg>
