<?xml version="1.0" encoding="UTF-8" standalone="no"?>
<svg xmlns:xlink="http://www.w3.org/1999/xlink" height="21.0px" width="20.0px" xmlns="http://www.w3.org/2000/svg">
  <g transform="matrix(1.0, 0.0, 0.0, 1.0, 10.0, 11.0)">
    <use data-characterId="173" height="20.5" transform="matrix(1.0, 0.0, 0.0, 1.0, -10.0, -10.5)" width="20.0" xlink:href="#shape0"/>
  </g>
  
    <g id="shape0" transform="matrix(1.0, 0.0, 0.0, 1.0, 10.0, 10.5)">
      <path d="M0.25 -7.95 L6.8 -7.95 6.85 -7.95 Q8.15 -7.95 9.1 -7.0 10.0 -6.1 10.0 -4.8 L10.0 3.35 Q10.0 4.65 9.1 5.6 8.15 6.5 6.85 6.5 L-0.05 6.5 Q-1.35 6.5 -2.3 5.6 -3.2 4.65 -3.2 3.35 L-3.2 -4.8 Q-3.2 -6.1 -2.3 -7.0 -1.35 -7.95 -0.05 -7.95 L0.25 -7.95 0.2 -7.65 0.25 -7.95 M-0.6 1.35 L-1.1 1.15 -1.25 0.7 -1.25 -6.1 Q-1.25 -6.75 -0.6 -6.75 L7.4 -6.75 7.9 -6.55 8.1 -6.1 8.1 0.7 Q8.1 1.3 7.5 1.35 8.15 1.85 8.15 2.7 8.15 3.35 7.65 3.9 7.15 4.4 6.45 4.4 5.8 4.4 5.25 3.9 4.75 3.35 4.75 2.7 4.75 1.85 5.45 1.35 L1.4 1.35 Q2.1 1.85 2.1 2.7 2.1 3.35 1.6 3.9 1.1 4.4 0.4 4.4 -0.3 4.4 -0.8 3.9 L-1.25 2.7 Q-1.25 1.85 -0.6 1.35 M6.85 -7.25 L-0.05 -7.25 Q-1.05 -7.25 -1.8 -6.5 -2.5 -5.8 -2.5 -4.8 L-2.5 3.35 Q-2.5 4.4 -1.8 5.1 -1.05 5.8 -0.05 5.8 L6.85 5.8 Q7.9 5.8 8.6 5.1 9.35 4.4 9.35 3.35 L9.35 -4.8 Q9.35 -5.8 8.6 -6.5 7.9 -7.25 6.85 -7.25 M6.8 -7.95 L6.8 -7.65 6.8 -7.95 M-6.95 -3.35 L-7.1 4.9 -4.2 4.9 -4.2 7.65 -5.05 7.65 -5.05 10.0 -10.0 10.0 -10.0 -3.35 -8.5 -3.35 -6.95 -3.35 M-7.65 -2.7 L-9.3 -2.7 -9.3 9.3 -5.7 9.3 -5.7 6.95 -4.85 6.95 -4.85 5.55 -7.8 5.55 -7.65 -2.7 M-0.6 0.7 L7.4 0.7 7.4 -6.1 -0.6 -6.1 -0.6 0.7 M0.4 3.7 Q0.85 3.7 1.1 3.4 L1.4 2.7 1.1 2.0 Q0.85 1.7 0.4 1.7 0.0 1.7 -0.3 2.0 L-0.6 2.7 -0.3 3.4 0.4 3.7 M6.45 3.7 Q6.85 3.7 7.15 3.4 L7.5 2.7 Q7.5 2.3 7.15 2.0 6.85 1.7 6.45 1.7 6.05 1.7 5.75 2.0 5.45 2.3 5.45 2.7 5.45 3.1 5.75 3.4 L6.45 3.7" fill="#ffffff" fill-rule="evenodd" stroke="none"/>
      <path d="M6.8 -7.95 L6.0 -9.3 Q5.25 -9.95 4.2 -10.0 L2.6 -10.0 Q1.65 -10.0 0.9 -9.3 0.3 -8.7 0.25 -7.95 L0.2 -7.65 M6.8 -7.65 L6.8 -7.95 M4.2 -10.0 L5.85 -10.0 M-8.5 -3.35 Q-8.5 -7.3 -7.7 -8.65 -6.85 -10.0 -4.2 -10.0 L2.6 -10.0" fill="none" stroke="#ffffff" stroke-linecap="butt" stroke-linejoin="round" stroke-width="1.0"/>
    </g>
  
</svg>
