<?xml version="1.0" encoding="UTF-8" standalone="no"?>
<svg xmlns:xlink="http://www.w3.org/1999/xlink" height="21.0px" width="21.0px" xmlns="http://www.w3.org/2000/svg">
  <g transform="matrix(1.0, 0.0, 0.0, 1.0, 10.5, 10.5)">
    <use data-characterId="176" height="21.0" transform="matrix(1.0, 0.0, 0.0, 1.0, -10.5, -10.5)" width="21.0" xlink:href="#shape0"/>
  </g>
  
    <g id="shape0" transform="matrix(1.0, 0.0, 0.0, 1.0, 10.5, 10.5)">
      <path d="M5.95 7.85 L9.15 -3.45 9.2 -3.45 Q9.5 -3.45 9.7 -3.7 L9.9 -4.2 9.9 -4.45 9.5 -5.1 9.65 -6.15 Q9.65 -7.75 8.6 -8.9 7.5 -10.0 5.9 -10.0 4.35 -10.0 3.25 -8.9 2.15 -7.75 2.15 -6.15 2.15 -5.65 2.3 -5.1 1.9 -4.85 1.9 -4.45 L1.9 -4.2 Q1.9 -3.9 2.15 -3.7 L2.6 -3.45 2.65 -3.45 5.85 7.85 2.0 7.85 2.0 3.75 Q2.65 3.6 3.1 3.1 3.5 2.6 3.5 1.9 3.5 1.1 2.95 0.6 2.4 0.05 1.65 0.05 0.9 0.05 0.35 0.6 -0.2 1.1 -0.2 1.9 -0.2 2.6 0.25 3.1 L1.3 3.75 1.3 7.85 -0.9 7.85 -0.9 -0.1 Q0.15 -0.3 0.85 -1.1 1.5 -1.95 1.5 -3.0 1.5 -4.25 0.65 -5.1 -0.25 -6.0 -1.45 -6.0 -2.65 -6.0 -3.5 -5.1 -4.4 -4.25 -4.4 -3.0 -4.4 -1.95 -3.7 -1.1 -3.05 -0.3 -2.0 -0.1 L-2.0 7.85 -3.8 7.85 -3.8 5.45 Q-3.3 5.35 -3.0 4.95 -2.65 4.55 -2.65 4.05 -2.65 3.45 -3.05 3.0 -3.45 2.6 -4.1 2.6 -4.65 2.6 -5.1 3.0 -5.5 3.45 -5.5 4.05 L-5.15 4.95 Q-4.85 5.35 -4.35 5.45 L-4.35 7.85 -6.95 7.85 -5.3 2.05 Q-4.85 2.05 -4.85 1.65 L-4.85 1.45 -5.1 1.05 -5.0 0.4 Q-5.0 -0.6 -5.65 -1.3 -6.35 -2.0 -7.35 -2.0 -8.3 -2.0 -9.0 -1.3 -9.7 -0.6 -9.7 0.4 L-9.6 1.05 -9.85 1.45 -9.85 1.65 Q-9.85 2.05 -9.4 2.05 L-7.75 7.85 -10.0 7.85 -10.0 10.0 10.0 10.0 10.0 7.85 5.95 7.85 Z" fill="none" stroke="#ffffff" stroke-linecap="round" stroke-linejoin="round" stroke-width="1.0"/>
    </g>
  
</svg>
