<?xml version="1.0" encoding="UTF-8" standalone="no"?>
<svg xmlns:xlink="http://www.w3.org/1999/xlink" height="22.2px" width="22.2px" xmlns="http://www.w3.org/2000/svg">
  <g transform="matrix(1.0, 0.0, 0.0, 1.0, 11.1, 11.1)">
    <use data-characterId="144" height="19.8" transform="matrix(1.0, 0.0, 0.0, 1.0, -9.9, -9.9)" width="19.8" xlink:href="#shape0"/>
  </g>
  
    <g id="shape0" transform="matrix(1.0, 0.0, 0.0, 1.0, 9.9, 9.9)">
      <path d="M9.7 -0.9 Q9.65 -0.85 9.65 -0.8 9.6 -0.8 9.55 -0.75 9.5 -0.7 9.5 -0.65 9.45 -0.65 9.4 -0.6 9.35 -0.55 9.35 -0.5 9.3 -0.45 9.25 -0.4 9.2 -0.35 9.15 -0.3 9.15 -0.25 9.1 -0.2 7.75 1.3 6.4 2.8 6.4 2.8 6.4 2.8 6.35 2.75 6.35 2.7 6.3 2.65 6.3 2.6 6.25 2.55 6.25 2.55 6.25 2.5 6.25 2.45 6.25 2.45 6.25 2.4 6.25 2.35 6.3 2.35 6.3 2.3 6.35 2.25 6.35 2.25 6.4 2.2 7.7 0.8 9.0 -0.6 9.05 -0.65 9.05 -0.65 9.05 -0.7 9.1 -0.75 9.1 -0.8 9.1 -0.8 9.15 -0.85 9.2 -0.85 9.2 -0.9 9.25 -0.9 9.25 -0.9 9.3 -0.9 9.35 -0.95 9.4 -0.9 9.45 -0.9 9.5 -0.9 9.6 -0.9 9.7 -0.9 9.7 -0.9 9.7 -0.9 L9.7 -0.9" fill="#ffffff" fill-rule="evenodd" stroke="none"/>
      <path d="M-4.1 1.4 Q-2.0 3.65 0.1 5.9 2.9 2.9 4.2 1.3 4.3 1.4 4.3 1.4 4.3 1.45 4.3 1.5 4.7 2.2 5.1 2.9 5.15 2.95 5.15 3.0 5.2 3.0 5.2 3.05 5.2 3.1 5.15 3.15 5.15 3.15 5.1 3.2 5.0 3.35 4.9 3.4 4.8 3.5 4.75 3.6 4.65 3.7 4.55 3.75 4.45 3.85 4.35 3.95 4.25 4.05 4.2 4.15 4.1 4.25 4.0 4.35 3.95 4.45 3.85 4.6 3.75 4.7 3.7 4.8 1.95 6.7 0.2 8.6 0.15 8.65 0.1 8.7 0.05 8.65 0.0 8.6 -0.1 8.5 -4.9 3.4 -5.0 3.25 -5.05 3.2 -5.05 3.1 -5.05 3.0 -5.0 2.95 -4.9 2.8 -4.55 2.2 -4.2 1.6 -4.15 1.5 -4.1 1.4 L-4.1 1.4" fill="#ffffff" fill-rule="evenodd" stroke="none"/>
      <path d="M8.5 8.7 Q8.45 8.6 8.4 8.5 4.75 2.05 1.1 -4.4 0.1 -6.1 -0.9 -7.8 -0.95 -7.9 -0.95 -7.95 -1.0 -8.05 -1.05 -8.1 -1.05 -8.2 -1.05 -8.3 -1.1 -8.4 -1.1 -8.45 -1.1 -8.55 -1.1 -8.65 -1.1 -8.75 -1.05 -8.85 -1.05 -8.9 -1.0 -9.0 -0.95 -9.1 -0.9 -9.2 -0.85 -9.35 -0.7 -9.45 -0.65 -9.55 -0.5 -9.6 -0.4 -9.65 -0.25 -9.7 -0.15 -9.75 0.0 -9.75 0.15 -9.75 0.3 -9.7 0.4 -9.7 0.55 -9.65 0.7 -9.6 0.8 -9.5 0.9 -9.4 1.0 -9.3 1.05 -9.2 1.05 -9.2 1.1 -9.1 1.15 -9.05 1.2 -9.0 1.2 -8.95 1.25 -8.9 1.3 -8.85 1.3 -8.75 1.35 -8.7 1.4 -8.65 1.4 -8.6 1.45 -8.5 1.45 -8.45 1.5 -8.35 1.5 -8.3 4.4 -1.3 7.3 5.7 7.9 7.15 8.5 8.6 8.5 8.65 8.5 8.7 8.5 8.7 8.5 8.7 L8.5 8.7" fill="#ffffff" fill-rule="evenodd" stroke="none"/>
      <path d="M-8.8 8.7 Q-5.0 0.15 -1.2 -8.4 -1.15 -8.25 -1.1 -8.1 -0.7 -7.35 -0.3 -6.6 -0.15 -6.3 0.0 -6.0 0.05 -6.0 0.05 -6.0 0.1 -5.95 0.1 -5.95 0.1 -5.9 0.05 -5.85 0.05 -5.85 0.0 -5.8 -2.55 -1.6 -5.1 2.6 -5.5 3.25 -8.6 8.4 -8.6 8.45 -8.6 8.5 -8.65 8.5 -8.65 8.55 -8.7 8.6 -8.75 8.65 -8.75 8.65 -8.8 8.7 -8.8 8.7 -8.8 8.7 L-8.8 8.7" fill="#ffffff" fill-rule="evenodd" stroke="none"/>
      <path d="M5.3 3.3 Q5.35 3.4 5.4 3.5 5.45 3.55 5.45 3.55 5.5 3.6 5.5 3.65 5.5 3.7 5.45 3.7 5.45 3.75 5.4 3.8 4.9 4.4 3.8 5.5 0.2 9.4 0.1 9.5 0.05 9.6 0.0 9.7 -0.5 9.2 -0.5 9.2 -3.0 6.5 -5.5 3.8 -5.55 3.75 -5.55 3.7 -5.55 3.7 -5.55 3.65 -5.6 3.6 -5.55 3.55 -5.55 3.55 -5.5 3.5 -5.4 3.35 -5.3 3.2 -5.3 3.25 -5.25 3.25 -5.25 3.3 -5.2 3.35 -5.2 3.35 -5.15 3.4 -5.15 3.4 -5.1 3.45 -5.1 3.45 -5.05 3.5 -5.1 3.45 -5.0 3.5 -4.95 3.55 -4.95 3.55 -4.9 3.6 -4.9 3.6 -2.85 5.85 -0.8 8.1 -0.75 8.15 -0.7 8.2 -0.7 8.2 -0.65 8.25 -0.6 8.3 -0.55 8.35 -0.55 8.35 -0.5 8.4 -0.45 8.45 -0.4 8.5 -0.4 8.55 -0.35 8.6 -0.3 8.65 -0.25 8.7 -0.25 8.75 -0.2 8.8 -0.15 8.85 -0.15 8.9 -0.1 8.95 -0.1 8.95 -0.05 8.95 0.0 8.95 0.0 8.95 0.05 8.9 0.05 8.85 0.1 8.8 1.55 7.25 3.0 5.7 4.1 4.5 5.2 3.3 5.2 3.4 5.3 3.3 L5.3 3.3" fill="#ffffff" fill-rule="evenodd" stroke="none"/>
      <path d="M8.8 -0.9 Q8.75 -0.85 7.4 0.6 6.55 1.55 6.0 2.2 5.95 2.15 5.9 2.1 5.55 1.3 5.2 0.5 5.2 0.35 5.2 0.2 5.65 -0.3 6.1 -0.8 6.2 -0.85 6.3 -0.9 7.55 -0.9 8.8 -0.9 8.8 -0.9 8.8 -0.9 L8.8 -0.9" fill="#ffffff" fill-rule="evenodd" stroke="none"/>
      <path d="M-8.7 -0.9 Q-7.8 -0.9 -6.9 -0.9 -6.7 -0.9 -6.5 -0.9 -6.45 -0.9 -6.45 -0.9 -6.4 -0.9 -6.35 -0.9 -6.35 -0.9 -6.3 -0.9 -6.3 -0.9 -6.25 -0.85 -6.2 -0.85 -6.2 -0.85 -6.15 -0.85 -6.15 -0.8 -6.1 -0.8 -6.05 -0.75 -6.05 -0.75 -6.0 -0.7 -5.95 -0.65 -5.9 -0.6 -5.9 -0.55 -5.85 -0.5 -5.8 -0.45 -5.75 -0.4 -5.75 -0.35 -5.7 -0.3 -5.65 -0.25 -5.6 -0.2 -5.55 -0.15 -5.5 -0.1 -5.45 -0.05 -5.4 0.0 -5.35 0.05 -5.3 0.1 -5.25 0.15 -5.2 0.25 -5.2 0.35 -5.2 0.5 -5.25 0.65 -5.3 0.7 -5.3 0.8 -5.35 0.85 -5.4 0.95 -5.45 1.05 -5.45 1.15 -5.5 1.25 -5.55 1.35 -5.6 1.4 -5.65 1.5 -5.7 1.6 -5.75 1.65 -5.8 1.75 -5.85 1.85 -5.9 1.9 -5.95 2.0 -6.0 2.1 -7.35 0.6 -8.7 -0.9 -8.7 -0.9 -8.7 -0.9 L-8.7 -0.9" fill="#ffffff" fill-rule="evenodd" stroke="none"/>
      <path d="M2.4 2.5 Q1.6 2.5 0.8 2.5 0.8 2.5 0.8 2.5 0.85 2.45 0.9 2.4 0.95 2.4 0.95 2.35 1.0 2.35 1.05 2.3 1.05 2.3 1.1 2.3 1.1 2.25 1.15 2.25 1.15 2.2 1.15 2.2 1.15 2.15 1.2 2.15 1.2 2.1 1.2 2.05 1.2 2.05 1.2 2.0 1.05 1.55 0.9 1.1 0.85 1.05 0.8 1.0 0.1 1.0 -0.6 1.0 -0.65 1.0 -0.7 1.0 -0.7 1.0 -0.8 1.1 -1.0 1.7 -1.1 1.9 -1.1 1.95 -1.15 1.95 -1.15 2.0 -1.15 2.05 -1.15 2.1 -1.15 2.1 -1.1 2.15 -1.1 2.2 -1.1 2.2 -1.05 2.25 -1.0 2.25 -1.0 2.25 -0.95 2.3 -0.9 2.3 -0.85 2.3 -0.8 2.3 -0.7 2.3 -0.6 2.3 -0.6 2.35 -0.6 2.4 -0.65 2.4 -0.7 2.4 -1.2 2.4 -1.7 2.4 -1.7 2.4 -1.75 2.4 -1.75 2.4 -1.8 2.4 -1.75 2.35 -1.7 2.3 -1.65 2.3 -1.6 2.3 -1.55 2.25 -1.5 2.2 -1.45 2.2 -1.45 2.15 -1.4 2.1 -1.4 2.05 -1.4 2.05 -1.4 2.0 -1.0 1.0 -0.8 0.4 -0.5 -0.3 0.1 -1.9 0.15 -2.0 0.2 -2.1 0.25 -2.0 0.3 -1.9 0.6 -1.2 1.0 -0.1 1.55 1.4 1.7 1.8 1.7 1.85 1.75 1.9 1.8 1.95 1.85 2.0 1.85 2.05 1.9 2.1 1.95 2.15 2.0 2.2 2.0 2.25 2.05 2.25 2.1 2.3 2.15 2.35 2.2 2.4 2.25 2.4 2.35 2.45 2.4 2.5 2.35 2.45 2.35 2.45 2.4 2.45 2.4 2.5 2.4 2.45 2.4 2.45 2.4 2.45 2.4 2.5 L2.4 2.5 M0.7 0.8 Q0.65 0.65 0.6 0.6 0.6 0.45 0.55 0.35 0.5 0.25 0.45 0.15 0.45 0.0 0.4 -0.1 0.35 -0.2 0.3 -0.3 0.25 -0.4 0.2 -0.5 0.15 -0.6 0.1 -0.7 0.05 -0.8 0.0 -0.9 0.0 -0.9 0.0 -0.9 -0.35 -0.05 -0.7 0.8 0.0 0.8 0.7 0.8 L0.7 0.8" fill="#ffffff" fill-rule="evenodd" stroke="none"/>
      <path d="M-6.4 2.9 Q-7.6 1.6 -9.8 -0.8 -9.75 -0.8 -9.7 -0.85 -9.6 -0.85 -9.55 -0.85 -9.5 -0.85 -9.4 -0.85 -9.35 -0.85 -9.25 -0.8 -9.2 -0.8 -9.15 -0.8 -9.05 -0.75 -9.0 -0.75 -8.95 -0.7 -8.9 -0.65 -8.85 -0.65 -8.8 -0.6 -7.5 0.8 -6.2 2.2 -6.15 2.25 -6.1 2.35 -6.1 2.4 -6.1 2.6 -6.15 2.6 -6.2 2.6 -6.25 2.6 -6.25 2.65 -6.3 2.65 -6.3 2.7 -6.3 2.75 -6.35 2.8 -6.4 2.85 -6.4 2.9 L-6.4 2.9" fill="#ffffff" fill-rule="evenodd" stroke="none"/>
    </g>
  
</svg>
