<?xml version="1.0" encoding="UTF-8" standalone="no"?>
<svg xmlns:xlink="http://www.w3.org/1999/xlink" height="20.0px" width="20.0px" xmlns="http://www.w3.org/2000/svg">
  <g transform="matrix(1.0, 0.0, 0.0, 1.0, 10.0, 10.0)">
    <use data-characterId="170" height="20.0" transform="matrix(1.0, 0.0, 0.0, 1.0, -10.0, -10.0)" width="20.0" xlink:href="#shape0"/>
  </g>
  
    <g id="shape0" transform="matrix(1.0, 0.0, 0.0, 1.0, 10.0, 10.0)">
      <path d="M3.8 6.1 Q3.1 6.1 2.4 6.1 2.3 6.1 2.3 6.1 2.25 6.1 2.2 6.1 2.1 6.1 2.05 6.1 2.0 6.1 1.95 6.1 1.9 6.1 1.85 6.1 1.8 6.15 1.75 6.15 1.65 6.15 1.6 6.15 1.55 6.2 1.5 6.2 0.75 6.35 0.0 6.5 -0.05 6.5 -0.1 6.5 -0.1 6.5 -0.15 6.5 -0.2 6.55 -0.2 6.55 -0.25 6.55 -0.25 6.6 -0.3 6.6 -0.3 6.6 -0.35 6.65 -0.35 6.65 -0.35 6.65 -0.4 6.7 -0.45 6.75 -0.45 6.75 -0.55 6.75 -0.6 6.8 -0.7 6.8 -0.8 6.8 -0.85 6.85 -0.95 6.85 -1.15 6.9 -1.15 6.9 -1.25 6.9 -1.35 6.95 -1.45 6.95 -1.55 6.95 -1.6 7.0 -1.7 7.0 -1.8 7.0 -1.9 7.0 -2.05 7.0 -2.25 7.0 -2.4 7.0 -2.55 7.0 -2.75 6.95 -2.9 6.95 -3.05 6.95 -3.25 6.95 -3.4 6.9 -3.55 6.9 -3.75 6.85 -3.9 6.85 -4.05 6.8 -4.2 6.75 -4.35 6.75 -4.5 6.7 -4.7 6.65 -5.6 6.2 -6.0 6.0 -6.6 5.6 -6.75 5.5 -6.9 5.35 -7.05 5.25 -7.15 5.15 -7.3 5.0 -7.4 4.9 -7.55 4.75 -7.65 4.6 -7.75 4.5 -7.85 4.35 -7.95 4.2 -8.05 4.05 -8.15 3.9 -8.25 3.75 -8.35 3.55 -8.4 3.4 -8.45 3.3 -8.5 3.15 -8.55 3.05 -8.6 2.95 -8.65 2.85 -8.7 2.7 -8.75 2.6 -8.75 2.5 -8.8 2.35 -8.85 2.25 -8.9 2.15 -8.9 2.0 -8.95 1.9 -8.95 1.75 -9.0 1.65 -9.0 1.5 -9.2 0.5 -9.2 0.0 -9.2 -0.5 -9.0 -1.5 -9.0 -1.55 -9.0 -1.55 -9.0 -1.6 -8.95 -1.65 -8.95 -1.7 -8.95 -1.7 -8.9 -1.75 -8.85 -1.8 -8.85 -1.8 -8.8 -1.85 -8.8 -1.9 -8.75 -1.9 -8.7 -1.95 -8.65 -1.95 -8.65 -2.0 -8.6 -2.0 -8.55 -2.0 -8.55 -2.05 -8.5 -2.05 -8.45 -2.1 -8.4 -2.15 -8.4 -2.2 -8.35 -2.2 -8.3 -2.25 -8.3 -2.3 -8.25 -2.35 -8.2 -2.4 -8.2 -2.45 -8.15 -2.5 -8.15 -2.5 -8.1 -2.55 -8.1 -2.6 -8.1 -2.65 -8.05 -2.7 -8.05 -2.75 -8.05 -2.8 -8.05 -2.85 -8.0 -2.9 -8.0 -2.95 -8.0 -3.0 -8.0 -3.05 -8.0 -3.05 -7.95 -3.1 -7.95 -3.15 -7.95 -3.2 -7.95 -3.2 -7.9 -3.25 -7.9 -3.3 -7.9 -3.35 -7.9 -3.35 -7.9 -3.4 -7.9 -3.45 -7.9 -3.5 -7.9 -3.55 -7.95 -3.6 -7.95 -3.65 -7.95 -3.65 -8.0 -3.7 -8.15 -3.85 -8.25 -3.95 -8.3 -4.1 -8.4 -4.25 -8.45 -4.4 -8.5 -4.55 -8.5 -4.7 -8.55 -4.85 -8.55 -5.05 -8.55 -5.2 -8.55 -5.35 -8.5 -5.55 -8.5 -5.7 -8.45 -5.85 -8.45 -6.0 -8.4 -6.2 -8.35 -6.35 -8.3 -6.45 -8.25 -6.55 -8.2 -6.65 -8.15 -6.8 -8.05 -6.9 -8.0 -7.0 -7.9 -7.05 -7.85 -7.15 -7.75 -7.25 -7.65 -7.35 -7.55 -7.45 -7.5 -7.5 -7.4 -7.6 -7.25 -7.75 -7.2 -7.8 -7.15 -7.85 -7.1 -7.9 -7.0 -7.95 -6.95 -8.0 -6.9 -8.1 -6.8 -8.15 -6.75 -8.2 -6.65 -8.25 -6.6 -8.3 -6.5 -8.35 -6.45 -8.4 -6.35 -8.45 -6.25 -8.55 -6.2 -8.6 -6.1 -8.65 -6.0 -8.7 -5.95 -8.75 -5.2 -9.0 -4.95 -9.15 -4.7 -9.3 -4.65 -9.3 -4.6 -9.35 -4.55 -9.35 -4.5 -9.35 -4.45 -9.35 -4.4 -9.35 -4.35 -9.35 -4.3 -9.3 -4.25 -9.3 -4.2 -9.3 -4.15 -9.3 -4.1 -9.25 -4.1 -9.25 -4.0 -9.25 -3.95 -9.2 -3.9 -9.2 -3.85 -9.15 -3.85 -9.15 -3.8 -9.1 -3.75 -9.1 -3.75 -9.05 -3.7 -9.05 -3.65 -9.05 -3.65 -9.0 -3.6 -9.0 -3.55 -9.0 -3.55 -9.0 -3.5 -9.0 -3.45 -9.0 -3.4 -9.0 -3.35 -9.0 -3.3 -9.0 -1.95 -9.0 -1.7 -8.9 -1.65 -8.85 -1.6 -8.85 -1.6 -8.85 -1.55 -8.8 -1.5 -8.8 -1.45 -8.8 -1.45 -8.75 -1.4 -8.75 -1.35 -8.75 -1.3 -8.7 -1.25 -8.7 -1.2 -8.65 -1.15 -8.65 -1.1 -8.65 -1.05 -8.6 -1.0 -8.6 -0.6 -8.6 -0.6 -8.6 -0.5 -8.65 -0.4 -8.65 -0.35 -8.7 -0.25 -8.7 -0.15 -8.7 -0.05 -8.7 0.0 -8.7 0.1 -8.7 0.2 -8.7 0.25 -8.7 0.35 -8.7 0.45 -8.65 0.5 -8.65 0.6 -8.65 0.2 -8.7 0.8 -8.6 1.25 -8.55 1.7 -8.5 2.1 -8.45 2.75 -8.3 3.45 -8.15 3.7 -8.1 3.75 -8.1 3.8 -8.1 3.8 -8.1 3.85 -8.1 3.9 -8.1 3.95 -8.05 3.95 -8.05 4.0 -8.0 4.35 -7.85 4.7 -7.7 5.25 -7.4 5.8 -7.1 5.85 -7.05 5.9 -7.05 5.95 -7.0 6.0 -6.95 6.1 -6.95 6.15 -6.9 6.2 -6.9 6.25 -6.85 6.3 -6.85 6.35 -6.8 6.25 -6.85 6.45 -6.8 6.5 -6.75 6.5 -6.75 6.55 -6.7 6.6 -6.7 6.7 -6.65 6.8 -6.55 6.95 -6.5 7.0 -6.4 7.1 -6.3 7.2 -6.2 7.3 -6.05 7.35 -5.95 7.4 -5.85 7.45 -5.7 7.5 -5.55 7.5 -5.45 7.5 -5.3 7.5 -5.15 7.45 -5.05 7.4 -4.9 7.4 -4.85 7.35 -4.8 7.35 -4.75 7.35 -4.7 7.35 -4.65 7.3 -4.55 7.3 -4.55 7.3 -4.45 7.3 -4.4 7.3 -4.35 7.25 -4.3 7.25 -4.25 7.25 -4.2 7.25 -4.2 7.2 -4.15 7.2 -4.1 7.2 -4.1 7.2 -4.1 7.2 -4.05 7.2 -4.0 7.15 -3.95 7.15 -3.85 7.1 -3.8 7.1 -3.7 7.1 -3.65 7.1 -3.55 7.05 -3.5 7.05 -3.4 7.05 -3.35 7.05 -3.25 7.05 -3.1 7.05 -3.05 7.05 -2.95 7.05 -2.9 7.0 -2.8 7.0 -2.7 7.0 -2.65 6.95 -2.55 6.95 -2.5 6.95 -2.4 6.95 -2.35 6.95 -2.25 7.0 -2.2 7.0 -2.1 7.0 -2.05 7.05 -2.0 7.1 -1.95 7.1 -1.9 7.15 -1.85 7.2 -1.8 7.25 -1.75 7.3 -1.7 7.4 -1.6 7.6 -1.2 8.2 -0.2 8.4 0.3 8.55 0.5 8.8 1.3 8.9 1.8 8.9 2.9 8.9 3.05 8.9 3.15 8.85 3.3 8.85 3.4 8.8 3.55 8.75 3.7 8.7 3.8 8.65 3.9 8.6 4.05 8.5 4.15 8.45 4.3 8.35 4.4 8.25 4.5 8.2 4.6 8.1 4.7 8.0 4.8 7.95 4.85 7.9 4.9 7.8 4.95 7.75 5.0 7.7 5.05 7.6 5.1 7.55 5.15 7.5 5.2 7.4 5.2 7.3 5.25 7.25 5.3 7.15 5.3 7.05 5.35 7.0 5.35 6.9 5.4 6.8 5.4 6.75 5.4 6.75 5.4 6.7 5.4 6.65 5.4 6.6 5.4 6.6 5.45 6.55 5.45 6.5 5.5 6.35 5.6 6.2 5.65 6.05 5.75 5.9 5.8 5.7 5.9 5.55 5.95 5.4 6.0 5.25 6.05 5.05 6.1 4.9 6.1 4.7 6.15 4.55 6.15 4.35 6.2 4.15 6.2 4.0 6.2 3.8 6.2 3.9 6.1 3.8 6.1 3.8 6.1 3.8 6.1 L3.8 6.1 M7.1 -5.4 Q7.1 -5.5 7.1 -5.55 7.1 -5.6 7.1 -5.65 7.05 -5.7 7.05 -5.75 7.05 -5.8 7.0 -5.8 7.0 -5.85 6.95 -5.9 6.95 -5.95 6.9 -5.95 6.85 -6.0 6.8 -6.05 6.75 -6.05 6.7 -6.1 6.65 -6.15 6.6 -6.15 6.55 -6.2 6.5 -6.25 6.4 -6.25 6.35 -6.3 6.3 -6.3 6.25 -6.35 6.2 -6.35 6.15 -6.4 6.1 -6.4 6.05 -6.4 6.0 -6.45 5.9 -6.45 5.9 -6.45 5.8 -6.5 5.35 -6.75 5.3 -6.8 5.3 -6.8 5.3 -6.85 5.25 -6.9 5.2 -6.9 4.3 -7.35 4.1 -7.4 3.8 -7.5 3.0 -7.7 2.0 -7.9 1.4 -8.0 0.95 -8.1 0.5 -8.2 0.45 -8.2 0.4 -8.25 0.35 -8.25 0.3 -8.25 0.2 -8.3 0.15 -8.3 0.1 -8.3 0.05 -8.3 0.0 -8.3 -0.05 -8.3 -0.1 -8.3 -0.15 -8.3 -0.25 -8.3 -0.3 -8.25 -0.35 -8.25 -0.4 -8.2 -0.45 -8.15 -0.55 -8.15 -0.6 -8.1 -0.7 -8.1 -0.75 -8.1 -0.85 -8.1 -0.9 -8.1 -1.0 -8.15 -1.05 -8.15 -1.15 -8.15 -1.2 -8.2 -1.25 -8.2 -1.3 -8.25 -1.4 -8.25 -1.45 -8.3 -1.5 -8.3 -2.15 -8.35 -2.8 -8.4 -2.8 -8.4 -2.8 -8.4 -2.85 -8.4 -2.9 -8.4 -2.95 -8.4 -3.0 -8.4 -3.1 -8.4 -3.15 -8.4 -3.2 -8.4 -3.25 -8.4 -3.3 -8.4 -3.35 -8.4 -3.4 -8.45 -3.45 -8.45 -3.55 -8.45 -3.6 -8.45 -3.65 -8.5 -3.7 -8.5 -4.0 -8.6 -4.3 -8.7 -4.35 -8.7 -4.35 -8.75 -4.4 -8.75 -4.45 -8.75 -4.5 -8.75 -4.5 -8.75 -4.55 -8.75 -4.55 -8.7 -4.6 -8.7 -4.65 -8.7 -4.65 -8.65 -4.65 -8.65 -4.7 -8.6 -4.7 -8.55 -4.7 -8.55 -4.7 -8.5 -4.7 -8.45 -4.7 -8.4 -4.7 -8.4 -4.7 -8.35 -4.7 -8.3 -4.7 -8.25 -4.7 -8.25 -4.7 -8.2 -4.7 -8.15 -4.7 -8.1 -4.65 -8.1 -4.65 -8.05 -4.65 -8.0 -4.65 -7.95 -4.6 -7.95 -4.6 -7.9 -4.55 -7.75 -4.55 -7.6 -4.5 -7.45 -4.45 -7.3 -4.45 -7.15 -4.4 -7.05 -4.4 -6.9 -4.35 -6.75 -4.35 -6.6 -4.35 -6.45 -4.35 -6.35 -4.3 -6.2 -4.3 -6.05 -4.3 -5.9 -4.3 -5.75 -4.3 -5.6 -4.3 -5.45 -4.3 -5.35 -4.3 -5.2 -4.35 -5.1 -4.35 -4.95 -4.4 -4.8 -4.4 -4.7 -4.45 -4.55 -4.5 -4.45 -4.55 -4.35 -4.6 -4.2 -4.65 -4.1 -4.7 -4.0 -4.75 -3.9 -4.85 -3.8 -4.9 -3.7 -4.95 -3.6 -5.0 -3.5 -5.1 -3.45 -5.15 -3.35 -5.2 -3.3 -5.3 -3.2 -5.35 -3.15 -5.4 -3.1 -5.5 -3.05 -5.6 -3.0 -5.65 -2.95 -5.75 -2.9 -5.85 -2.85 -5.9 -2.85 -6.0 -2.8 -6.1 -2.8 -6.15 -2.8 -6.25 -2.8 -6.3 -2.8 -6.4 -2.85 -6.45 -2.85 -6.55 -2.85 -6.6 -2.9 -6.7 -2.9 -6.75 -2.95 -6.85 -3.0 -6.9 -3.0 -6.95 -3.05 -7.0 -3.1 -7.1 -3.15 -7.15 -3.15 -7.2 -3.2 -7.3 -3.25 -7.4 -3.3 -7.45 -3.25 -7.45 -3.2 -7.5 -3.2 -7.5 -3.15 -7.5 -3.1 -7.5 -3.05 -7.5 -3.05 -7.5 -3.0 -7.5 -2.95 -7.5 -2.9 -7.5 -2.85 -7.5 -2.8 -7.55 -2.7 -7.55 -2.65 -7.55 -2.6 -7.55 -2.55 -7.6 -2.5 -7.6 -2.45 -7.65 -2.4 -7.65 -2.35 -7.7 -2.3 -7.75 -2.3 -7.75 -2.25 -7.8 -2.2 -7.8 -2.15 -7.85 -2.15 -7.85 -2.15 -7.85 -2.1 -7.9 -2.1 -7.9 -2.1 -7.9 -2.05 -7.9 -2.05 -7.95 -2.0 -7.95 -2.0 -7.95 -1.95 -7.95 -1.95 -7.95 -1.9 -7.95 -1.85 -7.9 -1.85 -7.9 -1.8 -7.9 -1.7 -7.9 -1.65 -7.9 -1.6 -7.9 -1.5 -7.9 -1.45 -7.9 -1.4 -7.9 -1.3 -7.9 -1.25 -7.9 -1.2 -7.9 -1.1 -7.85 -1.05 -7.85 -1.0 -7.85 -0.9 -7.85 -0.85 -7.8 -0.75 -7.8 -0.7 -7.7 -0.1 -7.3 1.1 -7.3 1.2 -7.25 1.25 -7.25 1.3 -7.2 1.4 -7.2 1.45 -7.2 1.5 -7.15 1.6 -7.1 1.65 -7.1 1.7 -7.05 1.75 -7.05 1.8 -7.0 1.85 -6.95 1.95 -6.9 2.0 -6.85 2.05 -6.8 2.1 -6.75 2.2 -6.7 2.3 -6.65 2.35 -6.6 2.45 -6.55 2.55 -6.5 2.6 -6.45 2.7 -6.4 2.8 -6.3 2.95 -6.3 2.95 -6.25 3.05 -6.2 3.1 -6.15 3.2 -6.1 3.25 -6.05 3.3 -6.0 3.4 -5.95 3.45 -5.9 3.5 -5.6 3.8 -4.8 4.4 -4.75 4.45 -4.7 4.5 -4.6 4.55 -4.55 4.6 -4.5 4.65 -4.45 4.7 -4.35 4.75 -4.3 4.8 -4.2 4.85 -4.15 4.85 -4.1 4.9 -4.0 4.95 -3.95 5.0 -3.85 5.0 -3.8 5.05 -3.7 5.1 -3.4 5.25 -3.1 5.4 -3.0 5.45 -2.85 5.5 -2.8 5.5 -2.65 5.55 -2.65 5.55 -2.4 5.65 -2.3 5.7 -2.2 5.75 -2.1 5.8 -1.95 5.8 -1.85 5.85 -1.75 5.9 -1.65 5.95 -1.5 5.95 -1.4 6.0 -1.3 6.0 -1.3 6.0 0.5 6.0 1.25 5.85 2.0 5.7 2.2 5.7 2.4 5.7 3.7 5.7 4.4 5.6 4.45 5.6 4.55 5.6 4.6 5.6 4.7 5.6 4.75 5.55 4.85 5.55 4.9 5.55 5.0 5.55 5.05 5.5 5.15 5.5 5.2 5.5 5.3 5.45 5.35 5.45 5.45 5.45 5.5 5.4 5.6 5.4 5.7 5.4 5.8 5.35 5.9 5.35 6.05 5.3 6.15 5.25 6.25 5.2 6.35 5.2 6.45 5.15 6.5 5.1 6.65 5.05 6.8 5.0 6.85 4.95 7.0 4.9 7.1 4.9 7.2 4.85 7.3 4.8 7.35 4.8 7.4 4.8 7.4 4.8 7.45 4.75 7.5 4.75 7.55 4.75 7.6 4.7 7.65 4.7 7.7 4.65 7.7 4.65 7.75 4.6 7.8 4.6 7.85 4.55 7.85 4.55 7.9 4.5 7.9 4.5 7.95 4.45 8.0 4.4 8.05 4.3 8.1 4.25 8.15 4.15 8.2 4.1 8.25 4.0 8.3 3.95 8.3 3.85 8.35 3.8 8.4 3.7 8.4 3.6 8.45 3.55 8.45 3.45 8.5 3.4 8.5 3.3 8.55 2.7 8.6 2.1 8.6 2.0 8.6 1.9 8.6 1.75 8.55 1.65 8.55 1.55 8.55 1.45 8.5 1.35 8.5 1.25 8.45 1.15 8.4 1.05 8.4 1.0 8.35 0.9 8.3 0.8 8.25 0.7 8.25 0.6 8.2 0.5 7.95 -0.05 7.7 -0.6 7.7 -0.65 7.65 -0.7 7.7 -0.55 7.6 -0.75 7.6 -0.8 7.6 -0.85 7.55 -0.9 7.55 -0.95 7.5 -1.0 7.5 -1.0 7.45 -1.05 7.45 -1.1 7.4 -1.15 7.35 -1.15 7.35 -1.2 7.3 -1.2 7.25 -1.25 7.15 -1.35 7.1 -1.45 7.05 -1.5 7.0 -1.6 6.95 -1.7 6.95 -1.8 6.9 -1.85 6.9 -1.95 6.9 -2.05 6.85 -2.15 6.85 -2.25 6.85 -2.35 6.85 -2.5 6.9 -2.6 6.9 -2.7 6.9 -2.8 6.95 -2.9 6.95 -3.0 6.95 -3.05 6.95 -3.15 7.0 -3.25 7.0 -3.35 7.0 -3.45 7.0 -3.5 7.0 -3.6 7.0 -3.7 7.0 -3.8 7.0 -3.85 7.0 -3.95 7.0 -4.0 7.0 -4.1 7.0 -4.15 7.0 -4.15 7.0 -4.2 7.0 -4.25 7.0 -4.3 7.0 -4.3 7.0 -4.35 7.0 -4.4 7.0 -4.45 7.0 -4.45 7.05 -4.5 7.05 -4.55 7.05 -4.6 7.05 -4.6 7.1 -4.65 7.1 -4.7 7.1 -4.75 7.05 -4.8 7.05 -4.85 7.05 -4.9 7.05 -4.95 7.05 -5.0 7.05 -5.05 7.05 -5.1 7.05 -5.15 7.05 -5.15 7.05 -5.2 7.05 -5.25 7.05 -5.3 7.05 -5.3 7.1 -5.35 7.1 -5.4 L7.1 -5.4" fill="#ffffff" fill-rule="evenodd" stroke="none"/>
    </g>
  
</svg>
