<?xml version="1.0" encoding="UTF-8" standalone="no"?>
<svg xmlns:xlink="http://www.w3.org/1999/xlink" height="21.0px" width="21.0px" xmlns="http://www.w3.org/2000/svg">
  <g transform="matrix(1.0, 0.0, 0.0, 1.0, 10.5, 10.5)">
    <use data-characterId="175" height="20.0" transform="matrix(1.0, 0.0, 0.0, 1.0, -10.0, -10.0)" width="20.0" xlink:href="#shape0"/>
  </g>
  
    <g id="shape0" transform="matrix(1.0, 0.0, 0.0, 1.0, 10.0, 10.0)">
      <path d="M-9.05 -1.35 Q-8.3 -2.05 -7.35 -2.05 -6.35 -2.05 -5.7 -1.35 -5.0 -0.6 -5.0 0.4 L-5.1 1.05 -4.85 1.4 -4.85 1.6 Q-4.85 2.05 -5.3 2.05 L-6.95 7.85 -4.35 7.85 -4.35 5.45 Q-4.85 5.35 -5.2 4.95 -5.55 4.55 -5.55 4.0 -5.55 3.4 -5.1 2.95 -4.7 2.55 -4.1 2.55 -3.45 2.55 -3.05 2.95 -2.65 3.4 -2.65 4.0 -2.65 4.55 -3.0 4.95 -3.3 5.35 -3.8 5.45 L-3.8 7.85 -2.05 7.85 -2.05 -0.1 Q-3.05 -0.3 -3.7 -1.1 -4.4 -1.95 -4.4 -3.0 -4.4 -4.25 -3.55 -5.1 -2.7 -6.0 -1.45 -6.0 -0.25 -6.0 0.65 -5.1 1.45 -4.25 1.45 -3.0 1.45 -1.95 0.8 -1.1 0.15 -0.3 -0.9 -0.1 L-0.9 7.85 1.3 7.85 1.3 3.75 0.2 3.1 Q-0.2 2.6 -0.2 1.9 -0.2 1.1 0.35 0.55 0.9 0.05 1.65 0.05 2.4 0.05 2.95 0.55 3.5 1.1 3.5 1.9 3.5 2.6 3.05 3.1 L2.0 3.75 2.0 7.85 5.9 7.85 2.65 -3.5 2.6 -3.5 Q2.3 -3.5 2.15 -3.65 1.9 -3.9 1.9 -4.2 L1.9 -4.45 Q1.9 -4.85 2.3 -5.1 2.15 -5.65 2.15 -6.15 2.15 -7.75 3.2 -8.85 4.35 -10.0 5.9 -10.0 7.45 -10.0 8.55 -8.85 9.65 -7.75 9.65 -6.15 L9.5 -5.1 9.9 -4.45 9.9 -4.2 9.7 -3.65 9.2 -3.5 9.15 -3.5 5.95 7.85 10.0 7.85 10.0 10.0 -10.0 10.0 -10.0 7.85 -7.75 7.85 -9.4 2.05 -9.85 1.6 -9.85 1.4 -9.6 1.05 -9.7 0.4 Q-9.7 -0.6 -9.05 -1.35" fill="#ffffff" fill-rule="evenodd" stroke="none"/>
    </g>
  
</svg>
