<?xml version="1.0" encoding="UTF-8" standalone="no"?>
<svg xmlns:xlink="http://www.w3.org/1999/xlink" height="20.5px" width="20.5px" xmlns="http://www.w3.org/2000/svg">
  <g transform="matrix(1.0, 0.0, 0.0, 1.0, 10.25, 10.25)">
    <use data-characterId="181" height="20.0" transform="matrix(1.0, 0.0, 0.0, 1.0, -10.0, -10.0)" width="20.0" xlink:href="#shape0"/>
  </g>
  
    <g id="shape0" transform="matrix(1.0, 0.0, 0.0, 1.0, 10.0, 10.0)">
      <path d="M-3.5 -9.8 Q-3.3 -9.8 -3.1 -9.8 -3.1 -8.3 -3.1 -6.8 -1.95 -6.8 -0.8 -6.8 -0.8 -6.75 -0.8 -6.7 -0.8 -5.95 -0.8 -5.2 -0.8 -5.15 -0.8 -5.1 -1.3 -4.4 -2.1 -3.2 -2.1 -3.15 -2.1 -3.1 -1.45 -3.1 -0.8 -3.1 -0.8 0.1 -0.8 3.3 0.0 3.3 0.8 3.3 0.8 2.55 0.8 1.8 3.6 1.8 6.4 1.8 6.4 2.55 6.4 3.3 7.4 3.3 8.4 3.3 8.4 6.15 8.4 9.0 9.15 9.0 9.9 9.0 9.9 9.4 9.9 9.8 0.15 9.8 -9.6 9.8 -9.6 9.45 -9.6 9.1 -8.95 9.1 -8.3 9.1 -8.3 6.25 -8.3 3.4 -7.05 3.4 -5.8 3.4 -6.0 1.2 -6.0 -3.1 -5.4 -3.1 -4.8 -3.1 -4.85 -3.15 -4.9 -3.2 -5.4 -4.1 -5.9 -5.0 -6.0 -5.0 -6.0 -5.1 -6.0 -5.9 -6.0 -6.7 -6.0 -6.7 -6.0 -6.7 -4.75 -6.7 -3.5 -6.7 -3.5 -8.25 -3.5 -9.8 L-3.5 -9.8 M-2.9 8.3 Q-2.9 7.35 -2.9 6.4 -5.1 6.4 -7.3 6.4 -7.3 7.35 -7.3 8.3 -5.1 8.3 -2.9 8.3 L-2.9 8.3 M2.2 8.3 Q2.2 7.35 2.2 6.4 0.0 6.4 -2.2 6.4 -2.2 7.35 -2.2 8.3 0.0 8.3 2.2 8.3 L2.2 8.3 M2.8 6.4 Q2.8 7.75 2.8 9.1 3.75 9.1 4.7 9.1 4.7 7.75 4.7 6.4 3.75 6.4 2.8 6.4 L2.8 6.4 M5.2 6.4 Q5.2 7.35 5.2 8.3 6.1 8.3 7.0 8.3 7.1 8.3 7.1 8.2 7.1 7.35 7.1 6.5 7.1 6.4 7.0 6.4 6.1 6.4 5.2 6.4 L5.2 6.4 M-5.4 -1.6 Q-5.4 -1.2 -5.4 -0.8 -3.4 -0.8 -1.4 -0.8 -1.4 -1.2 -1.4 -1.6 -3.4 -1.6 -5.4 -1.6 L-5.4 -1.6 M-5.4 0.7 Q-3.4 0.7 -1.4 0.7 -1.4 0.3 -1.4 -0.1 -3.4 -0.1 -5.4 -0.1 -5.4 0.3 -5.4 0.7 L-5.4 0.7 M-1.4 -6.0 Q-3.4 -6.0 -5.4 -6.0 -5.4 -5.6 -5.4 -5.2 -3.4 -5.2 -1.4 -5.2 -1.4 -5.6 -1.4 -6.0 L-1.4 -6.0 M2.8 5.4 Q2.85 5.4 2.9 5.4 4.95 5.4 7.0 5.4 7.05 5.4 7.1 5.4 7.2 5.4 7.2 5.3 7.2 5.1 7.2 4.9 7.2 4.8 7.1 4.8 5.0 4.8 2.9 4.8 2.9 4.8 2.85 4.8 2.85 4.8 2.8 4.8 2.8 5.1 2.8 5.4 L2.8 5.4 M-2.9 4.9 Q-5.1 4.9 -7.3 4.9 -7.3 5.2 -7.3 5.5 -5.1 5.5 -2.9 5.5 -2.9 5.2 -2.9 4.9 L-2.9 4.9 M-2.2 5.4 Q0.0 5.4 2.2 5.4 2.2 5.1 2.2 4.8 0.0 4.8 -2.2 4.8 -2.2 5.1 -2.2 5.4 L-2.2 5.4" fill="#ffffff" fill-rule="evenodd" stroke="none"/>
    </g>
  
</svg>
