<?xml version="1.0" encoding="UTF-8" standalone="no"?>
<svg xmlns:xlink="http://www.w3.org/1999/xlink" height="21.35px" width="16.35px" xmlns="http://www.w3.org/2000/svg">
  <g transform="matrix(1.0, 0.0, 0.0, 1.0, 8.05, 10.65)">
    <use data-characterId="63" height="21.35" transform="matrix(1.0, 0.0, 0.0, 1.0, -8.05, -10.65)" width="16.35" xlink:href="#shape0"/>
  </g>
  
    <g id="shape0" transform="matrix(1.0, 0.0, 0.0, 1.0, 8.05, 10.65)">
      <path d="M-0.05 -7.05 Q1.4 -7.05 4.3 -7.05 4.4 -7.05 4.4 -7.05 4.45 -7.05 4.5 -6.95 4.85 -6.45 5.75 -5.3 6.55 -4.25 7.0 -3.65 7.0 -3.6 7.05 -3.6 7.1 -3.5 7.1 -3.55 7.1 -3.5 7.1 -3.45 7.1 -3.05 7.1 -2.25 7.1 -2.15 7.1 -2.1 7.1 -2.0 7.05 -1.9 7.05 -1.85 7.0 -1.8 7.0 -1.7 6.95 -1.65 6.9 -1.6 6.85 -1.55 6.8 -1.5 6.75 -1.45 6.7 -1.4 6.65 -1.35 6.6 -1.3 6.5 -1.25 6.5 -1.25 6.5 -1.25 6.45 -1.2 6.45 -1.15 6.4 -1.1 6.4 -1.05 6.4 0.1 6.4 2.6 6.4 2.65 6.4 2.7 6.6 2.7 7.1 2.7 7.1 4.1 7.1 7.0 2.4 7.0 -7.05 7.0 -7.05 5.6 -7.05 2.7 -6.85 2.7 -6.35 2.7 -6.35 2.6 -6.35 2.5 -6.35 1.3 -6.35 -1.05 -6.35 -1.15 -6.35 -1.2 -6.4 -1.25 -6.45 -1.25 -6.55 -1.3 -6.6 -1.35 -6.65 -1.4 -6.7 -1.45 -6.75 -1.5 -6.8 -1.55 -6.85 -1.6 -6.9 -1.65 -6.95 -1.7 -6.95 -1.8 -7.0 -1.85 -7.0 -1.95 -7.05 -2.0 -7.05 -2.1 -7.05 -2.2 -7.05 -2.25 -7.05 -2.65 -7.05 -3.55 -7.05 -3.65 -7.05 -3.65 -7.05 -3.7 -6.95 -3.75 -6.05 -4.75 -4.25 -6.95 -4.25 -6.95 -4.25 -7.0 -4.2 -7.0 -4.15 -7.05 -4.1 -7.05 -4.05 -7.05 -2.75 -7.05 -0.05 -7.05 M-0.05 -8.05 Q-1.45 -8.05 -4.15 -8.05 -4.25 -8.05 -4.3 -8.05 -4.35 -8.05 -4.45 -8.0 -4.5 -8.0 -4.55 -8.0 -4.65 -7.95 -4.7 -7.9 -4.75 -7.9 -4.8 -7.85 -4.85 -7.8 -4.95 -7.75 -5.0 -7.7 -5.05 -7.65 -5.1 -7.6 -5.15 -7.55 -5.5 -7.05 -6.4 -5.9 -7.25 -4.85 -7.65 -4.25 -7.7 -4.2 -7.7 -4.15 -7.75 -4.1 -7.8 -4.05 -7.8 -4.0 -7.85 -3.95 -7.85 -3.9 -7.9 -3.85 -7.9 -3.8 -7.9 -3.75 -7.9 -3.7 -7.95 -3.7 -7.95 -3.65 -7.95 -3.55 -7.95 -3.5 -7.95 -3.45 -7.95 -3.05 -7.95 -2.15 -7.95 -2.05 -7.95 -1.95 -7.9 -1.8 -7.9 -1.7 -7.85 -1.6 -7.85 -1.5 -7.8 -1.4 -7.75 -1.3 -7.7 -1.2 -7.65 -1.1 -7.6 -1.0 -7.55 -0.9 -7.45 -0.8 -7.4 -0.75 -7.35 -0.65 -7.25 -0.55 -7.25 0.2 -7.25 1.8 L-7.95 1.8 -7.95 2.8 -7.95 7.1 -7.95 8.1 -6.95 8.1 7.2 8.1 8.2 8.1 8.2 7.1 8.2 2.8 8.2 1.8 7.5 1.8 Q7.5 1.0 7.5 -0.55 7.6 -0.65 7.65 -0.7 7.7 -0.8 7.8 -0.9 7.85 -1.0 7.9 -1.1 7.95 -1.2 8.0 -1.3 8.05 -1.4 8.1 -1.5 8.1 -1.6 8.15 -1.7 8.15 -1.85 8.2 -1.95 8.2 -2.05 8.2 -2.15 8.2 -2.55 8.2 -3.35 8.2 -3.4 8.2 -3.45 8.2 -3.55 8.2 -3.6 8.15 -3.65 8.15 -3.7 8.15 -3.75 8.15 -3.8 8.1 -3.85 8.1 -3.9 8.05 -3.95 8.05 -4.0 8.0 -4.05 7.95 -4.1 7.95 -4.15 7.9 -4.15 7.5 -4.75 6.65 -5.8 5.8 -6.95 5.4 -7.45 5.35 -7.5 5.3 -7.55 5.25 -7.6 5.2 -7.65 5.15 -7.7 5.1 -7.75 5.05 -7.8 5.0 -7.8 4.9 -7.85 4.85 -7.9 4.8 -7.9 4.7 -7.9 4.65 -7.95 4.55 -7.95 4.5 -7.95 4.4 -7.95 2.9 -8.05 -0.05 -8.05 L-0.05 -8.05 -0.05 -8.05" fill="#ffffff" fill-rule="evenodd" stroke="none"/>
    </g>
  
</svg>
