<?xml version="1.0" encoding="UTF-8" standalone="no"?>
<svg xmlns:xlink="http://www.w3.org/1999/xlink" height="32.1px" width="31.95px" xmlns="http://www.w3.org/2000/svg">
  <g transform="matrix(1.0, 0.0, 0.0, 1.0, 15.95, 16.05)">
    <use data-characterId="247" height="32.1" transform="matrix(1.0, 0.0, 0.0, 1.0, -15.95, -16.05)" width="31.95" xlink:href="#shape0"/>
  </g>
  
    <g id="shape0" transform="matrix(1.0, 0.0, 0.0, 1.0, 15.95, 16.05)">
      <path d="M10.8 -3.85 Q10.6 -3.65 10.55 -3.55 10.5 -3.45 10.4 -3.15 L10.4 -3.05 10.4 -2.75 10.8 8.35 -10.85 8.35 -10.45 -2.55 -10.45 -3.05 -10.55 -3.35 Q-10.55 -3.4 -10.6 -3.45 -10.6 -3.5 -10.65 -3.55 -10.65 -3.6 -10.7 -3.6 -10.7 -3.65 -10.75 -3.7 -10.75 -3.7 -10.8 -3.75 -10.85 -3.8 -10.85 -3.8 -10.9 -3.85 -10.9 -3.9 -10.95 -3.9 -10.95 -3.95 L-10.65 -3.95 -10.55 -3.95 -9.35 -3.95 -8.05 -3.95 -6.85 -3.95 -6.85 -3.95 -6.85 -3.95 -6.75 -3.95 Q-6.75 -3.95 -6.75 -3.9 -6.75 -3.9 -6.8 -3.85 -6.8 -3.85 -6.8 -3.8 -6.8 -3.8 -6.85 -3.75 -6.85 -3.7 -6.9 -3.7 -6.9 -3.65 -6.95 -3.65 -6.95 -3.6 -7.0 -3.6 -7.05 -3.55 -7.05 -3.55 L-7.15 -3.05 -7.15 -2.75 Q-7.15 -2.45 -7.15 -1.15 -7.15 -0.55 -7.15 0.25 L-7.15 1.45 -6.75 1.45 -6.75 2.45 -5.55 2.45 -3.95 2.45 -3.65 2.45 -2.45 2.45 -0.75 2.45 -0.45 2.45 0.7 2.45 2.1 2.45 2.4 2.45 3.6 2.45 5.3 2.45 6.5 2.45 6.5 1.45 7.1 1.45 7.1 0.25 Q7.1 0.2 7.05 -0.5 7.0 -1.25 7.0 -1.25 7.0 -1.35 7.0 -2.95 7.0 -3.0 7.0 -3.1 7.0 -3.2 6.95 -3.25 6.95 -3.35 6.9 -3.4 6.85 -3.5 6.85 -3.55 6.8 -3.65 6.75 -3.7 6.7 -3.75 6.65 -3.8 6.6 -3.85 6.55 -3.9 6.45 -3.95 6.4 -3.95 L6.5 -3.95 6.8 -3.95 8.0 -3.95 9.3 -3.95 10.3 -3.95 10.3 -3.95 10.4 -3.95 10.8 -3.85 M12.4 -6.15 Q11.9 -6.15 11.4 -6.15 11.4 -6.05 11.4 -5.15 10.95 -5.15 10.5 -5.15 10.5 -5.65 10.5 -6.15 10.2 -6.15 9.9 -6.15 9.55 -6.15 9.2 -6.15 9.2 -6.15 9.2 -5.15 8.55 -5.15 7.9 -5.15 7.9 -5.65 7.9 -6.15 7.2 -6.15 6.5 -6.15 6.5 -6.05 6.5 -5.15 6.15 -5.15 5.8 -5.15 5.8 -5.65 5.8 -6.15 5.3 -6.15 4.8 -6.15 4.8 -5.15 4.8 -3.55 4.9 -3.55 4.95 -3.5 5.0 -3.5 5.1 -3.45 5.15 -3.4 5.25 -3.4 5.3 -3.35 5.4 -3.3 5.45 -3.25 5.5 -3.2 5.55 -3.15 5.6 -3.1 5.65 -3.05 5.7 -3.0 5.7 -2.9 5.7 -2.85 5.7 -2.8 5.65 -1.3 5.6 0.25 5.6 0.25 5.4 0.25 5.2 0.25 L5.2 0.25 Q5.2 0.55 5.2 1.25 4.4 1.25 3.6 1.25 3.6 0.95 3.6 0.25 2.9 0.25 2.2 0.25 2.2 0.55 2.2 1.25 1.5 1.25 0.8 1.25 0.8 0.95 0.8 0.25 0.1 0.25 -0.55 0.25 -0.55 0.55 -0.55 1.25 -1.25 1.25 -1.95 1.25 -1.95 0.95 -1.95 0.25 -2.75 0.25 -3.55 0.25 -3.55 0.35 -3.55 1.25 -4.35 1.25 -5.15 1.25 -5.15 0.75 -5.15 0.25 -5.35 0.25 -5.55 0.25 -5.65 -2.6 -5.65 -2.85 -5.65 -2.9 -5.6 -2.95 -5.55 -3.0 -5.5 -3.05 -5.45 -3.1 -5.4 -3.15 -5.35 -3.2 -5.3 -3.25 -5.2 -3.3 -5.15 -3.35 -5.1 -3.35 -5.0 -3.4 -4.95 -3.4 -4.9 -3.45 -4.8 -3.45 -4.75 -3.45 -4.75 -3.95 -4.7 -4.75 -4.65 -5.65 -4.65 -5.95 -5.15 -5.95 -5.65 -5.95 -5.65 -5.85 -5.65 -4.95 -6.0 -4.95 -6.35 -4.95 -6.35 -5.45 -6.35 -5.95 L-7.85 -5.95 Q-7.85 -5.95 -7.85 -4.95 -8.5 -4.95 -9.15 -4.95 -9.15 -5.25 -9.15 -5.95 -9.8 -5.95 -10.45 -5.95 -10.45 -5.95 -10.45 -4.95 -10.9 -4.95 -11.35 -4.95 -11.35 -4.95 -11.35 -5.95 -11.85 -5.95 -12.35 -5.95 -12.35 -5.05 -12.35 -3.45 -12.3 -3.45 -12.25 -3.4 -12.15 -3.4 -12.1 -3.35 -12.05 -3.3 -12.0 -3.3 -11.95 -3.25 -11.85 -3.2 -11.8 -3.15 -11.75 -3.1 -11.7 -3.05 -11.65 -3.0 -11.6 -2.95 -11.55 -2.9 -11.5 -2.8 -11.45 -2.75 L-12.25 9.45 Q-0.15 9.45 11.9 9.45 L11.3 -2.85 Q11.3 -2.9 11.35 -2.95 11.4 -3.05 11.45 -3.1 11.5 -3.15 11.55 -3.2 11.6 -3.25 11.7 -3.3 11.75 -3.35 11.85 -3.4 11.9 -3.45 12.0 -3.5 12.1 -3.5 12.15 -3.55 12.25 -3.55 12.3 -3.55 L12.3 -3.55 Q12.4 -4.35 12.4 -6.15 L12.4 -6.15 12.4 -6.15" fill="#ffffff" fill-rule="evenodd" stroke="none"/>
      <path d="M1.7 8.65 L-1.65 8.65 Q-1.65 8.15 -1.65 7.85 -1.65 7.4 -1.65 7.1 -1.6 6.7 -1.6 6.4 -1.55 6.05 -1.45 5.8 -1.4 5.5 -1.25 5.25 -1.15 5.05 -0.95 4.9 -0.75 4.7 -0.55 4.65 -0.3 4.55 0.0 4.55 0.3 4.55 0.55 4.65 0.8 4.7 1.0 4.9 1.15 5.05 1.3 5.25 1.4 5.5 1.5 5.8 1.6 6.05 1.65 6.4 1.65 6.7 1.7 7.1 1.7 7.4 1.7 7.85 1.7 8.1 1.7 8.65 L1.7 8.65" fill="#ffffff" fill-rule="evenodd" stroke="none"/>
    </g>
  
</svg>
