<?xml version="1.0" encoding="UTF-8" standalone="no"?>
<svg xmlns:xlink="http://www.w3.org/1999/xlink" height="32.1px" width="31.95px" xmlns="http://www.w3.org/2000/svg">
  <g transform="matrix(1.0, 0.0, 0.0, 1.0, 15.95, 16.05)">
    <use data-characterId="154" height="21.0" transform="matrix(1.0, 0.0, 0.0, 1.0, -10.5, -10.5)" width="21.0" xlink:href="#shape0"/>
  </g>
  
    <g id="shape0" transform="matrix(1.0, 0.0, 0.0, 1.0, 10.5, 10.5)">
      <path d="M7.8 0.25 L8.4 0.25 8.4 -2.05 7.35 -2.05 6.7 -5.15 4.4 -5.15 3.7 -2.05 2.75 -2.05 2.7 0.15 3.3 0.25 1.0 9.15 1.0 10.0 10.0 10.0 10.0 9.05 7.8 0.25 M-1.55 -2.9 L-1.55 -5.9 -2.75 -5.9 -3.5 -10.0 -6.1 -10.0 -6.9 -5.9 -8.0 -5.9 -8.05 -2.95 -7.4 -2.9 -10.0 8.9 -10.0 10.0 0.3 10.0 0.3 8.7 -2.25 -2.9 -1.55 -2.9 Z" fill="none" stroke="#ffffff" stroke-linecap="butt" stroke-linejoin="miter-clip" stroke-miterlimit="10.0" stroke-width="1.0"/>
    </g>
  
</svg>
