<?xml version="1.0" encoding="UTF-8" standalone="no"?>
<svg xmlns:xlink="http://www.w3.org/1999/xlink" height="19.2px" width="19.2px" xmlns="http://www.w3.org/2000/svg">
  <g transform="matrix(1.0, 0.0, 0.0, 1.0, 9.6, 9.6)">
    <use data-characterId="209" height="19.2" transform="matrix(1.0, 0.0, 0.0, 1.0, -9.6, -9.6)" width="19.2" xlink:href="#shape0"/>
  </g>
  
    <g id="shape0" transform="matrix(1.0, 0.0, 0.0, 1.0, 9.6, 9.6)">
      <path d="M0.0 -4.6 Q0.2 -4.5 0.4 -4.4 1.3 -3.85 3.8 -2.0 L5.6 -2.0 6.4 -1.7 6.7 -0.9 6.7 -0.3 8.1 0.5 Q8.2 0.55 8.25 0.6 8.3 0.65 8.35 0.75 8.4 0.8 8.45 0.85 8.5 0.9 8.55 1.0 8.55 1.05 8.6 1.1 8.6 1.2 8.6 1.25 8.65 1.35 8.6 1.4 8.6 1.5 8.6 1.6 L8.1 2.2 7.5 2.5 7.4 2.5 7.4 6.6 8.6 6.6 Q8.65 6.6 8.7 6.6 8.75 6.6 8.8 6.6 8.85 6.65 8.9 6.65 8.95 6.65 9.0 6.7 9.05 6.7 9.1 6.7 9.15 6.75 9.2 6.75 9.25 6.8 9.3 6.85 9.35 6.85 9.4 6.9 L9.7 7.6 9.7 8.6 9.3 9.2 8.6 9.6 -8.6 9.6 -9.4 9.2 -9.7 8.5 -9.7 7.5 -9.4 6.8 Q-9.35 6.75 -9.3 6.75 -9.3 6.7 -9.25 6.65 -9.2 6.65 -9.15 6.6 -9.1 6.6 -9.05 6.6 -9.0 6.55 -8.95 6.55 -8.9 6.55 -8.8 6.5 -8.75 6.5 -8.7 6.5 -8.65 6.5 -8.6 6.5 L-7.7 6.5 -7.7 2.5 Q-7.8 2.5 -7.9 2.45 -7.95 2.45 -8.05 2.4 -8.1 2.35 -8.2 2.35 -8.25 2.3 -8.3 2.25 -8.35 2.2 -8.4 2.15 -8.45 2.1 -8.5 2.0 -8.55 1.95 -8.55 1.85 -8.6 1.8 -8.6 1.7 L-8.5 1.0 -8.1 0.5 -6.7 -0.3 -6.7 -0.9 -6.4 -1.7 -5.6 -2.0 -3.7 -2.0 0.0 -4.6 0.0 -4.6 M0.0 -3.5 L-2.7 -1.5 -3.5 -1.0 -5.7 -1.0 -5.7 0.2 -7.6 1.3 -6.6 1.3 -6.6 7.5 -8.6 7.5 -8.6 8.5 8.6 8.5 8.6 7.5 6.4 7.5 6.4 1.4 7.6 1.4 5.6 0.3 5.6 -0.9 3.4 -0.9 2.7 -1.3 0.0 -3.5 0.0 -3.5" fill="#ffffff" fill-rule="evenodd" stroke="none"/>
    </g>
  
</svg>
