<?xml version="1.0" encoding="UTF-8" standalone="no"?>
<svg xmlns:xlink="http://www.w3.org/1999/xlink" height="21.25px" width="21.1px" xmlns="http://www.w3.org/2000/svg">
  <g transform="matrix(1.0, 0.0, 0.0, 1.0, 10.5, 10.6)">
    <use data-characterId="60" height="21.25" transform="matrix(1.0, 0.0, 0.0, 1.0, -10.5, -10.6)" width="21.1" xlink:href="#shape0"/>
  </g>
  
    <g id="shape0" transform="matrix(1.0, 0.0, 0.0, 1.0, 10.5, 10.6)">
      <path d="M8.8 1.85 L8.8 3.85 -8.7 3.85 -8.7 1.85 8.8 1.85 M9.6 1.05 Q3.2 1.05 -9.5 1.05 -9.5 2.85 -9.5 4.65 -3.1 4.65 9.6 4.65 9.6 2.85 9.6 1.05 L9.6 1.05 9.6 1.05" fill="#ffffff" fill-rule="evenodd" stroke="none"/>
      <path d="M5.2 5.75 Q5.5 5.75 6.2 5.75 L6.3 5.75 Q6.25 5.9 6.2 6.0 6.1 6.15 6.05 6.25 5.95 6.4 5.9 6.55 5.8 6.65 5.7 6.8 5.6 6.9 5.55 7.05 5.45 7.15 5.35 7.3 5.25 7.4 5.1 7.5 5.0 7.65 4.9 7.75 4.65 8.0 4.4 8.2 4.15 8.4 3.9 8.6 3.6 8.75 3.35 8.95 3.05 9.1 2.8 9.2 2.5 9.3 2.2 9.4 1.9 9.5 1.6 9.6 1.3 9.65 0.95 9.7 0.65 9.75 0.3 9.75 0.2 9.75 -0.1 9.75 -0.65 9.75 -1.2 9.65 -1.75 9.6 -2.25 9.4 -2.75 9.25 -3.2 9.05 -3.65 8.8 -4.05 8.55 -4.45 8.25 -4.85 7.95 -5.2 7.6 -5.45 7.25 -5.75 6.9 -6.0 6.5 -6.25 6.15 -6.4 5.75 L-6.1 5.75 -5.7 5.75 Q-5.5 5.75 -5.2 5.75 -5.05 6.0 -4.9 6.25 -4.75 6.5 -4.6 6.7 -4.45 6.9 -4.25 7.1 -4.05 7.3 -3.85 7.45 -3.65 7.65 -3.4 7.8 -3.15 7.95 -2.9 8.05 -2.65 8.15 -2.4 8.25 -2.1 8.35 -1.8 8.45 -1.7 8.5 -1.55 8.5 -1.45 8.55 -1.35 8.6 -1.25 8.6 -1.1 8.65 -1.0 8.65 -0.9 8.65 -0.8 8.7 -0.65 8.7 -0.55 8.7 -0.45 8.75 -0.35 8.75 -0.2 8.75 -0.1 8.75 0.0 8.75 0.25 8.75 0.5 8.75 0.75 8.7 1.0 8.65 1.25 8.6 1.5 8.55 1.75 8.45 2.0 8.4 2.2 8.3 2.45 8.2 2.65 8.05 2.9 7.95 3.1 7.8 3.35 7.65 3.55 7.5 3.8 7.35 3.9 7.25 4.0 7.2 4.15 7.1 4.25 7.0 4.35 6.9 4.45 6.8 4.5 6.7 4.6 6.6 4.7 6.5 4.8 6.4 4.85 6.3 4.95 6.2 5.0 6.1 5.1 5.95 5.15 5.85 5.2 5.75 M4.8 4.95 Q4.75 4.95 4.75 4.95 4.8 4.95 4.65 5.0 4.65 5.05 4.6 5.05 4.55 5.15 4.5 5.25 4.4 5.4 4.35 5.5 4.3 5.6 4.2 5.7 4.15 5.8 4.1 5.9 4.0 6.0 3.9 6.1 3.85 6.2 3.75 6.3 3.65 6.4 3.6 6.5 3.5 6.55 3.4 6.65 3.2 6.8 3.0 6.95 2.85 7.05 2.65 7.15 2.45 7.3 2.25 7.4 2.05 7.45 1.85 7.55 1.6 7.6 1.4 7.65 1.2 7.75 1.0 7.75 0.75 7.8 0.55 7.8 0.3 7.85 0.1 7.85 0.0 7.85 -0.1 7.85 -0.2 7.85 -0.3 7.85 -0.4 7.8 -0.5 7.8 -0.6 7.8 -0.7 7.8 -0.8 7.75 -0.9 7.75 -1.0 7.75 -1.1 7.7 -1.2 7.7 -1.3 7.7 -1.4 7.65 -1.5 7.65 -1.75 7.55 -2.0 7.45 -2.25 7.35 -2.5 7.25 -2.7 7.15 -2.95 7.0 -3.15 6.85 -3.35 6.7 -3.55 6.5 -3.7 6.35 -3.85 6.15 -4.0 5.95 -4.15 5.75 -4.3 5.5 -4.4 5.3 -4.5 5.05 -4.5 4.95 -4.55 4.95 -4.6 4.95 -4.7 4.95 -5.0 4.95 -5.6 4.95 -5.8 4.95 -6.3 4.95 -6.7 4.95 -7.4 4.95 -7.25 5.5 -7.05 6.05 -6.8 6.6 -6.5 7.1 -6.15 7.6 -5.75 8.05 -5.35 8.5 -4.85 8.85 -4.35 9.25 -3.85 9.55 -3.25 9.9 -2.65 10.1 -2.05 10.3 -1.4 10.45 -0.7 10.55 0.0 10.55 0.1 10.55 0.4 10.55 0.75 10.55 1.15 10.5 1.5 10.45 1.85 10.35 2.2 10.25 2.5 10.15 2.85 10.05 3.2 9.9 3.5 9.75 3.8 9.55 4.1 9.4 4.4 9.2 4.7 9.0 4.95 8.75 5.25 8.5 5.5 8.25 5.65 8.1 5.85 7.9 6.0 7.7 6.15 7.55 6.3 7.35 6.4 7.15 6.55 6.95 6.7 6.75 6.8 6.55 6.9 6.3 7.0 6.1 7.1 5.9 7.2 5.65 7.25 5.4 7.35 5.2 7.4 4.95 7.0 4.95 6.1 4.95 5.7 4.95 4.8 4.95 4.8 4.95 4.8 4.95 L4.8 4.95 4.8 4.95" fill="#ffffff" fill-rule="evenodd" stroke="none"/>
      <path d="M0.1 -9.4 Q0.8 -9.4 2.0 -9.2 2.15 -9.15 2.35 -9.1 2.55 -9.05 2.75 -8.95 3.0 -8.85 3.2 -8.7 3.4 -8.55 3.65 -8.4 3.85 -8.2 4.05 -8.0 4.25 -7.75 4.4 -7.5 4.55 -7.2 4.65 -6.85 4.75 -6.5 4.8 -6.1 4.8 -6.0 4.8 -5.95 4.8 -5.85 4.8 -5.8 4.8 -5.7 4.8 -5.65 4.8 -5.55 4.8 -5.5 4.8 -5.4 4.8 -5.35 4.85 -5.25 4.85 -5.2 4.85 -5.1 4.85 -5.05 4.9 -4.95 4.9 -4.9 L4.9 -4.8 Q4.9 -4.7 4.9 -4.65 4.95 -4.55 4.95 -4.5 5.0 -4.4 5.0 -4.35 5.05 -4.3 5.1 -4.2 5.15 -4.15 5.2 -4.1 5.25 -4.05 5.3 -4.0 5.4 -3.95 5.45 -3.95 5.55 -3.9 5.6 -3.9 5.65 -3.9 5.7 -3.85 5.8 -3.8 5.85 -3.8 5.9 -3.8 6.0 -3.8 6.1 -3.75 6.4 -3.65 6.65 -3.55 6.8 -3.5 6.9 -3.45 7.0 -3.4 7.1 -3.35 7.15 -3.3 7.25 -3.25 7.35 -3.2 7.45 -3.15 7.5 -3.1 7.6 -3.05 7.65 -3.0 7.75 -2.95 7.8 -2.9 7.85 -2.85 7.9 -2.8 7.95 -2.75 8.0 -2.7 8.05 -2.6 8.15 -2.5 8.2 -2.4 8.2 -2.3 8.25 -2.2 8.25 -2.15 8.25 -2.05 8.25 -1.95 8.25 -1.85 8.2 -1.75 8.2 -1.7 8.15 -1.6 8.1 -1.5 8.05 -1.45 8.0 -1.35 7.9 -1.3 7.85 -1.2 7.8 -1.15 7.7 -1.1 7.65 -1.0 7.55 -0.95 7.5 -0.9 7.4 -0.85 7.3 -0.8 7.25 -0.75 7.15 -0.7 7.05 -0.65 6.95 -0.65 6.85 -0.6 6.7 -0.55 6.6 -0.5 6.5 -0.5 6.45 -0.6 6.35 -0.75 6.25 -0.85 6.15 -0.95 6.05 -1.05 5.95 -1.1 5.85 -1.2 5.7 -1.25 5.6 -1.35 5.5 -1.4 5.4 -1.45 5.3 -1.5 5.15 -1.6 5.15 -1.6 5.05 -1.65 5.0 -1.7 4.85 -1.75 4.75 -1.8 4.6 -1.85 4.45 -1.9 4.35 -1.9 4.2 -1.95 4.05 -2.0 3.95 -2.0 3.8 -2.05 3.65 -2.05 3.5 -2.1 3.35 -2.1 3.2 -2.1 3.05 -2.15 2.9 -2.15 2.7 -2.2 2.45 -2.2 1.9 -2.25 1.3 -2.3 1.1 -2.3 0.7 -2.3 -0.1 -2.3 -0.2 -2.3 -0.4 -2.3 -0.6 -2.3 -0.8 -2.3 -1.05 -2.3 -1.25 -2.25 -1.45 -2.25 -1.65 -2.25 -1.9 -2.2 -2.1 -2.2 -2.35 -2.15 -2.55 -2.15 -2.8 -2.1 -3.0 -2.05 -3.25 -2.05 -3.45 -2.0 -3.7 -1.95 -3.9 -1.9 -4.05 -1.85 -4.2 -1.8 -4.3 -1.8 -4.45 -1.75 -4.55 -1.7 -4.7 -1.65 -4.8 -1.6 -4.9 -1.55 -5.0 -1.55 -5.1 -1.5 -5.2 -1.45 -5.3 -1.4 -5.4 -1.35 -5.5 -1.3 -5.6 -1.25 -5.7 -1.2 -5.75 -1.15 -5.8 -1.1 -5.85 -1.05 -5.9 -1.0 -6.0 -0.95 -6.05 -0.9 -6.1 -0.85 -6.1 -0.8 -6.15 -0.75 -6.2 -0.7 -6.25 -0.65 -6.3 -0.6 -6.35 -0.55 -6.35 -0.5 -6.4 -0.45 -6.4 -0.4 -6.5 -0.45 -6.6 -0.45 -6.65 -0.5 -6.75 -0.55 -6.85 -0.55 -6.9 -0.6 -7.0 -0.65 -7.05 -0.7 -7.15 -0.7 -7.2 -0.75 -7.25 -0.8 -7.3 -0.85 -7.35 -0.85 -7.4 -0.9 -7.45 -0.95 -7.5 -1.0 -7.6 -1.05 -7.65 -1.15 -7.7 -1.2 -7.75 -1.25 -7.8 -1.35 -7.85 -1.4 -7.9 -1.45 -7.95 -1.55 -7.95 -1.6 -8.0 -1.65 -8.0 -1.75 -8.0 -1.8 -8.05 -1.85 -8.0 -1.95 -8.0 -2.0 -8.0 -2.1 -8.0 -2.2 -7.95 -2.3 -7.9 -2.35 -7.9 -2.45 -7.85 -2.55 -7.8 -2.6 -7.75 -2.7 -7.7 -2.75 -7.65 -2.8 -7.6 -2.9 -7.5 -2.95 -7.45 -3.0 -7.35 -3.05 -7.3 -3.1 -7.2 -3.15 -7.1 -3.2 -7.05 -3.2 -7.05 -3.25 -7.0 -3.25 -6.95 -3.25 -6.95 -3.25 -6.9 -3.25 -6.8 -3.3 -6.85 -3.3 -6.8 -3.3 -6.8 -3.3 -6.75 -3.3 -6.75 -3.3 -6.7 -3.35 -6.65 -3.35 -6.65 -3.35 -6.6 -3.4 -6.6 -3.4 -6.55 -3.45 -6.55 -3.45 -6.5 -3.45 -6.5 -3.5 -6.5 -3.5 -6.45 -3.5 -6.45 -3.5 -6.4 -3.55 -6.4 -3.55 -6.35 -3.55 -6.35 -3.55 -6.3 -3.55 -6.25 -3.6 -6.25 -3.6 -6.2 -3.6 -6.15 -3.6 -6.1 -3.6 -6.1 -3.6 -6.05 -3.65 -6.0 -3.65 -5.95 -3.65 -5.95 -3.7 -5.9 -3.7 L-5.8 -3.7 Q-5.75 -3.7 -5.75 -3.7 -5.7 -3.7 -5.65 -3.7 -5.65 -3.75 -5.6 -3.8 -5.55 -3.8 -5.5 -3.8 -5.45 -3.8 -5.45 -3.8 -5.4 -3.85 -5.4 -3.9 -5.35 -3.9 -5.25 -3.95 -5.2 -4.0 -5.1 -4.0 -5.05 -4.05 -5.0 -4.1 -4.95 -4.15 -4.9 -4.25 -4.85 -4.3 -4.8 -4.4 -4.8 -4.45 -4.75 -4.55 -4.75 -4.6 -4.7 -4.7 -4.7 -4.8 -4.7 -4.9 -4.7 -5.1 -4.7 -5.3 -4.7 -5.8 -4.7 -6.3 -4.7 -6.5 -4.65 -6.75 -4.6 -6.95 -4.55 -7.1 -4.45 -7.3 -4.4 -7.5 -4.3 -7.65 -4.2 -7.8 -4.1 -7.95 -3.95 -8.1 -3.8 -8.25 -3.65 -8.35 -3.55 -8.5 -3.35 -8.6 -3.2 -8.7 -3.0 -8.8 -2.9 -8.85 -2.75 -8.9 -2.65 -8.95 -2.55 -9.0 -2.4 -9.05 -2.3 -9.1 -2.15 -9.15 -2.0 -9.15 -1.9 -9.2 -1.75 -9.25 -1.6 -9.3 -1.45 -9.3 -1.3 -9.35 -1.15 -9.35 -0.95 -9.4 -0.8 -9.4 -0.4 -9.4 0.1 -9.4 M0.1 -10.2 Q-0.2 -10.2 -0.7 -10.2 -0.85 -10.2 -1.05 -10.15 -1.2 -10.15 -1.35 -10.1 -1.55 -10.05 -1.7 -10.05 -1.9 -10.0 -2.05 -9.95 -2.2 -9.9 -2.35 -9.85 -2.55 -9.8 -2.7 -9.75 -2.85 -9.7 -3.0 -9.65 -3.15 -9.55 -3.3 -9.5 -3.55 -9.35 -3.75 -9.2 -4.0 -9.1 -4.15 -8.9 -4.35 -8.75 -4.5 -8.6 -4.7 -8.4 -4.8 -8.2 -4.95 -8.0 -5.05 -7.8 -5.15 -7.6 -5.25 -7.35 -5.35 -7.15 -5.4 -6.9 -5.45 -6.65 -5.5 -6.4 -5.5 -5.65 -5.5 -4.9 -5.5 -4.8 -5.5 -4.75 -5.55 -4.7 -5.6 -4.7 -5.65 -4.65 -5.65 -4.65 -5.7 -4.6 -5.75 -4.6 -5.75 -4.6 -5.85 -4.55 -5.9 -4.55 -5.95 -4.55 -5.95 -4.5 -6.0 -4.5 -6.05 -4.5 -6.05 -4.5 -6.1 -4.5 -6.15 -4.5 -6.2 -4.45 -6.2 -4.45 -6.25 -4.45 -6.3 -4.45 -6.35 -4.45 -6.35 -4.4 -6.4 -4.4 -6.45 -4.4 -6.5 -4.4 -6.5 -4.4 -6.55 -4.4 -6.6 -4.4 -6.75 -4.3 -7.05 -4.15 -7.35 -4.0 -7.5 -3.9 -7.75 -3.8 -7.95 -3.6 -8.15 -3.45 -8.35 -3.25 -8.5 -3.05 -8.65 -2.85 -8.75 -2.6 -8.8 -2.35 -8.85 -2.1 -8.85 -1.85 -8.85 -1.6 -8.8 -1.35 -8.7 -1.1 -8.55 -0.85 -8.35 -0.6 -8.1 -0.4 -8.0 -0.3 -7.85 -0.2 -7.75 -0.15 -7.65 -0.05 -7.55 0.0 -7.4 0.05 -7.3 0.15 -7.15 0.2 -7.05 0.25 -6.95 0.3 -6.8 0.35 -6.65 0.35 -6.55 0.4 -6.4 0.45 -6.25 0.5 -6.1 0.55 -6.1 0.55 -6.1 0.55 -6.05 0.55 -6.0 0.5 -6.0 0.5 -5.95 0.5 -5.9 0.45 -5.9 0.45 -5.85 0.45 -5.8 0.45 -5.8 0.35 -5.75 0.3 -5.75 0.2 -5.7 0.15 -5.7 0.1 -5.65 0.0 -5.6 -0.05 -5.55 -0.1 -5.55 -0.15 -5.5 -0.2 -5.45 -0.25 -5.4 -0.3 -5.35 -0.35 -5.3 -0.4 -5.25 -0.45 -5.2 -0.5 -5.15 -0.55 -3.8 -1.1 -3.6 -1.15 -3.4 -1.2 -3.2 -1.25 -2.95 -1.25 -2.8 -1.3 -2.55 -1.3 -2.35 -1.35 -2.15 -1.35 -1.95 -1.35 -1.75 -1.35 -1.55 -1.35 -1.3 -1.35 -1.15 -1.4 -0.9 -1.4 -0.8 -1.4 -0.5 -1.4 -0.45 -1.4 -0.4 -1.4 -0.4 -1.4 -0.35 -1.4 -0.3 -1.4 -0.25 -1.4 -0.25 -1.4 -0.2 -1.4 0.2 -1.4 0.9 -1.4 1.1 -1.4 1.65 -1.35 2.15 -1.3 2.5 -1.3 4.05 -1.05 4.5 -0.9 4.6 -0.85 4.7 -0.8 4.85 -0.75 4.95 -0.7 5.05 -0.65 5.15 -0.55 5.25 -0.5 5.35 -0.4 5.45 -0.35 5.5 -0.25 5.6 -0.15 5.65 -0.05 5.7 0.05 5.75 0.2 5.8 0.3 5.8 0.45 5.8 0.45 5.8 0.5 5.85 0.55 5.9 0.55 5.9 0.55 5.9 0.55 5.95 0.55 6.0 0.5 5.8 0.6 6.1 0.5 6.15 0.45 6.2 0.45 6.25 0.45 6.3 0.45 6.45 0.4 6.6 0.35 6.75 0.3 6.9 0.25 7.0 0.2 7.15 0.15 7.3 0.1 7.4 0.05 7.55 -0.05 7.65 -0.1 7.8 -0.2 7.9 -0.3 8.0 -0.35 8.1 -0.45 8.2 -0.55 8.3 -0.7 8.45 -0.85 8.55 -0.95 8.65 -1.1 8.7 -1.25 8.75 -1.4 8.8 -1.55 8.85 -1.75 8.85 -1.9 8.85 -2.05 8.8 -2.2 8.8 -2.4 8.75 -2.55 8.7 -2.7 8.6 -2.85 8.5 -3.05 8.4 -3.2 8.35 -3.3 8.25 -3.35 8.15 -3.45 8.05 -3.55 8.0 -3.6 7.9 -3.7 7.8 -3.75 7.7 -3.8 7.6 -3.85 7.45 -3.95 7.35 -4.0 7.25 -4.05 7.15 -4.1 7.0 -4.15 6.95 -4.2 6.8 -4.3 6.75 -4.35 6.65 -4.35 6.6 -4.4 6.5 -4.4 6.45 -4.45 6.35 -4.5 6.3 -4.5 6.2 -4.55 6.15 -4.55 6.05 -4.55 6.0 -4.6 5.9 -4.6 5.85 -4.65 5.75 -4.65 5.7 -4.65 5.6 -4.7 5.55 -4.7 5.5 -4.75 5.5 -4.8 5.5 -4.9 5.5 -5.0 5.5 -5.05 5.5 -5.15 5.5 -5.2 5.5 -5.3 5.5 -5.35 5.5 -5.45 5.5 -5.55 5.5 -5.65 5.5 -5.7 5.45 -5.8 5.45 -5.85 5.45 -5.95 5.45 -6.05 5.4 -6.1 5.4 -6.2 5.35 -6.6 5.25 -6.95 5.15 -7.3 5.0 -7.6 4.9 -7.9 4.7 -8.2 4.5 -8.45 4.25 -8.7 4.05 -8.95 3.75 -9.15 3.5 -9.3 3.2 -9.5 2.95 -9.65 2.65 -9.8 2.3 -9.9 2.0 -10.0 1.9 -10.0 1.8 -10.05 1.7 -10.05 1.6 -10.05 1.5 -10.1 1.35 -10.1 1.25 -10.1 1.15 -10.15 1.0 -10.15 0.9 -10.15 0.75 -10.15 0.6 -10.2 0.5 -10.2 0.35 -10.2 0.25 -10.2 0.1 -10.2 L0.1 -10.2 0.1 -10.2" fill="#ffffff" fill-rule="evenodd" stroke="none"/>
    </g>
  
</svg>
