<?xml version="1.0" encoding="UTF-8" standalone="no"?>
<svg xmlns:xlink="http://www.w3.org/1999/xlink" height="25.25px" width="25.25px" xmlns="http://www.w3.org/2000/svg">
  <g transform="matrix(1.0, 0.0, 0.0, 1.0, 12.6, 12.6)">
    <use data-characterId="221" height="20.0" transform="matrix(1.0, 0.0, 0.0, 1.0, -10.0, -10.0)" width="20.0" xlink:href="#shape0"/>
    <use data-characterId="223" height="101.0" transform="matrix(0.25, 0.0, 0.0, 0.25, -12.625, -12.625)" width="101.0" xlink:href="#sprite0"/>
  </g>
  
    <g id="shape0" transform="matrix(1.0, 0.0, 0.0, 1.0, 10.0, 10.0)">
      <path d="M5.65 3.35 L4.95 3.05 Q4.65 2.75 4.65 2.35 4.65 1.95 4.95 1.65 5.25 1.35 5.65 1.35 6.1 1.35 6.35 1.65 L6.65 2.35 6.35 3.05 Q6.1 3.35 5.65 3.35 M8.0 10.0 L8.0 -8.0 -7.65 -8.0 -7.65 10.0 -10.0 10.0 -10.0 -10.0 10.0 -10.0 10.0 10.0 8.0 10.0" fill="#ffffff" fill-rule="evenodd" stroke="none"/>
    </g>
    <g id="sprite0" transform="matrix(1.0, 0.0, 0.0, 1.0, 0.5, 0.5)">
      <use data-characterId="222" height="101.0" transform="matrix(1.0, 0.0, 0.0, 1.0, -0.5, -0.5)" width="101.0" xlink:href="#shape1"/>
    </g>
    <g id="shape1" transform="matrix(1.0, 0.0, 0.0, 1.0, 0.5, 0.5)">
      <path d="M0.0 100.0 L0.0 0.0 100.0 0.0 100.0 100.0 0.0 100.0 Z" fill="none" stroke="#00ff00" stroke-linecap="round" stroke-linejoin="round" stroke-opacity="0.0" stroke-width="1.0"/>
      <path d="M100.0 100.0 L0.0 100.0 0.0 0.0 100.0 0.0 100.0 100.0" fill="#ffffff" fill-opacity="0.007843138" fill-rule="evenodd" stroke="none"/>
    </g>
  
</svg>
