<?xml version="1.0" encoding="UTF-8" standalone="no"?>
<svg xmlns:xlink="http://www.w3.org/1999/xlink" height="21.75px" width="22.0px" xmlns="http://www.w3.org/2000/svg">
  <g transform="matrix(1.0, 0.0, 0.0, 1.0, 11.0, 10.85)">
    <use data-characterId="124" height="21.75" transform="matrix(1.0, 0.0, 0.0, 1.0, -11.0, -10.85)" width="22.0" xlink:href="#shape0"/>
  </g>
  
    <g id="shape0" transform="matrix(1.0, 0.0, 0.0, 1.0, 11.0, 10.85)">
      <path d="M8.9 1.7 Q8.8 1.7 8.8 1.8 8.25 3.55 8.2 3.6 8.1 3.85 7.95 4.1 7.85 4.3 7.7 4.55 7.6 4.75 7.45 4.95 7.3 5.15 7.15 5.35 7.0 5.55 6.85 5.75 6.7 5.95 6.5 6.1 6.35 6.3 6.15 6.45 6.0 6.65 5.8 6.8 5.3 7.2 4.1 8.0 3.95 8.1 3.8 8.15 3.65 8.2 3.5 8.3 3.35 8.35 3.15 8.4 3.0 8.45 2.85 8.55 2.65 8.6 2.5 8.65 2.35 8.7 2.15 8.75 2.0 8.8 1.85 8.85 1.65 8.85 1.5 8.9 1.3 8.95 1.1 8.95 0.9 9.0 0.7 9.0 0.5 9.05 0.3 9.05 0.1 9.05 -0.1 9.05 -0.3 9.05 -0.5 9.05 -0.7 9.05 -0.9 9.0 -1.1 9.0 -1.3 8.95 -1.5 8.95 -1.7 8.9 -2.0 8.85 -2.3 8.75 -2.6 8.7 -2.85 8.6 -3.15 8.5 -3.4 8.4 -3.7 8.3 -3.95 8.15 -4.25 8.0 -4.5 7.85 -4.75 7.7 -5.0 7.5 -5.25 7.35 -5.5 7.15 -5.75 6.95 -6.0 6.7 -6.1 6.55 -6.2 6.5 -6.3 6.35 -6.35 6.25 -6.45 6.15 -6.55 6.05 -6.65 5.9 -6.75 5.8 -6.85 5.7 -6.9 5.55 -7.0 5.45 -7.1 5.3 -7.15 5.2 -7.25 5.05 -7.35 4.95 -7.4 4.8 -7.5 4.65 -7.6 4.45 -7.7 4.3 -7.8 4.1 -7.9 3.95 -8.0 3.75 -8.1 3.6 -8.15 3.4 -8.25 3.2 -8.3 3.05 -8.4 2.85 -8.45 2.65 -8.5 2.5 -8.6 2.3 -8.65 2.1 -8.7 1.9 -8.7 1.85 -8.7 1.85 -8.75 1.8 -8.75 1.8 -8.8 1.75 -8.85 1.75 -8.85 1.7 -8.9 1.7 -9.4 1.7 -10.3 1.7 -10.5 1.7 -11.0 1.7 -11.0 -0.05 -11.0 -1.75 -10.3 -1.75 -9.0 -1.75 -8.95 -1.75 -8.9 -1.8 -8.85 -1.8 -8.8 -1.85 -8.4 -3.05 -8.1 -3.65 -8.0 -3.9 -7.85 -4.1 -7.75 -4.3 -7.6 -4.5 -7.5 -4.75 -7.35 -4.95 -7.2 -5.15 -7.05 -5.3 -6.9 -5.5 -6.7 -5.7 -6.55 -5.9 -6.35 -6.05 -6.2 -6.25 -6.0 -6.4 -5.8 -6.6 -5.6 -6.75 -5.45 -6.85 -5.35 -6.95 -5.2 -7.05 -5.05 -7.15 -4.95 -7.25 -4.8 -7.35 -4.65 -7.45 -4.5 -7.55 -4.4 -7.6 -4.25 -7.7 -4.1 -7.8 -3.95 -7.85 -3.8 -7.95 -3.65 -8.0 -3.45 -8.1 -3.3 -8.15 -3.1 -8.25 -2.9 -8.3 -2.75 -8.35 -2.55 -8.4 -2.35 -8.45 -2.15 -8.5 -1.95 -8.55 -1.7 -8.6 -1.5 -8.65 -1.3 -8.65 -1.1 -8.7 -0.9 -8.7 -0.65 -8.75 -0.45 -8.75 -0.25 -8.75 0.0 -8.75 0.1 -8.75 0.2 -8.75 0.3 -8.75 0.4 -8.75 0.5 -8.75 0.6 -8.7 0.7 -8.7 0.8 -8.7 0.9 -8.7 1.0 -8.65 1.1 -8.65 1.2 -8.65 1.3 -8.6 1.4 -8.6 1.5 -8.6 1.6 -8.55 1.8 -8.5 1.9 -8.5 2.05 -8.45 2.2 -8.4 2.35 -8.35 2.5 -8.3 2.65 -8.25 2.8 -8.25 2.95 -8.2 3.1 -8.15 3.2 -8.1 3.35 -8.0 3.5 -7.95 3.65 -7.9 3.75 -7.85 3.9 -7.75 4.05 -7.65 4.25 -7.55 4.4 -7.45 4.55 -7.35 4.75 -7.25 4.9 -7.15 5.05 -7.05 5.25 -6.95 5.4 -6.8 5.55 -6.7 5.7 -6.6 5.85 -6.45 6.0 -6.35 6.15 -6.2 6.25 -6.1 6.4 -5.95 6.55 -5.75 6.9 -5.4 7.25 -5.05 7.4 -4.85 7.55 -4.7 7.65 -4.5 7.75 -4.35 7.85 -4.15 8.0 -4.0 8.05 -3.8 8.15 -3.6 8.25 -3.45 8.35 -3.25 8.4 -3.05 8.5 -2.85 8.55 -2.65 8.6 -2.45 8.7 -2.2 8.75 -2.0 8.8 -1.75 8.85 -1.7 8.9 -1.65 9.6 -1.65 11.0 -1.65 11.0 0.05 11.0 1.7 L8.9 1.7 8.9 1.7 M-10.2 0.8 Q-3.4 0.8 10.2 0.8 10.2 -0.05 10.2 -0.85 3.4 -0.85 -10.2 -0.85 -10.2 0.0 -10.2 0.8 L-10.2 0.8 M-5.5 -1.65 Q-1.7 -1.65 5.6 -1.65 5.5 -2.05 5.3 -2.4 5.15 -2.8 4.9 -3.15 4.7 -3.5 4.4 -3.85 4.1 -4.2 3.75 -4.45 3.4 -4.8 3.0 -5.0 2.6 -5.25 2.2 -5.45 1.75 -5.65 1.25 -5.75 0.75 -5.85 0.2 -5.85 -0.4 -5.85 -0.95 -5.75 -1.5 -5.65 -2.0 -5.5 -2.5 -5.35 -2.9 -5.1 -3.35 -4.85 -3.7 -4.55 -4.05 -4.25 -4.35 -3.9 -4.65 -3.6 -4.85 -3.2 -5.1 -2.85 -5.25 -2.45 -5.4 -2.05 -5.5 -1.65 L-5.5 -1.65 M-5.5 1.7 Q-5.4 2.05 -5.25 2.4 -5.1 2.8 -4.85 3.1 -4.65 3.45 -4.35 3.8 -4.05 4.1 -3.75 4.4 -3.4 4.65 -3.0 4.9 -2.6 5.15 -2.15 5.3 -1.65 5.5 -1.15 5.6 -0.65 5.7 -0.1 5.7 0.45 5.7 1.0 5.65 1.55 5.55 2.0 5.4 2.5 5.25 2.9 5.0 3.3 4.8 3.7 4.5 4.05 4.2 4.35 3.9 4.6 3.55 4.85 3.2 5.1 2.85 5.25 2.45 5.4 2.1 5.5 1.7 1.7 1.7 -5.5 1.7 L-5.5 1.7 M-8.0 1.7 Q-8.0 1.75 -8.0 1.8 -8.0 1.75 -8.0 1.7 -8.0 1.8 -8.0 1.9 -7.95 2.1 -7.9 2.3 -7.8 2.45 -7.75 2.65 -7.65 2.8 -7.6 3.0 -7.5 3.2 -7.4 3.35 -7.35 3.5 -7.25 3.7 -7.15 3.85 -7.05 4.05 -6.95 4.2 -6.8 4.4 -6.7 4.55 -6.6 4.7 -6.5 4.85 -6.4 4.95 -6.3 5.05 -6.2 5.15 -6.1 5.25 -6.05 5.4 -5.9 5.5 -5.8 5.6 -5.7 5.7 -5.6 5.8 -5.5 5.9 -5.4 6.0 -5.25 6.1 -5.15 6.2 -5.05 6.3 -4.9 6.4 -4.8 6.5 -4.65 6.6 -4.55 6.7 -4.45 6.75 -4.3 6.85 -4.2 6.95 -4.05 7.0 -3.9 7.1 -3.8 7.15 -3.65 7.25 -3.5 7.3 -3.4 7.35 -3.25 7.45 -3.1 7.5 -2.95 7.55 -2.8 7.6 -2.65 7.65 -2.5 7.7 -2.35 7.75 -2.2 7.8 -2.05 7.85 -1.9 7.9 -1.75 7.95 -1.6 7.95 -1.45 8.0 -1.3 8.05 -1.15 8.05 -1.0 8.05 -0.85 8.1 -0.7 8.1 -0.55 8.1 -0.4 8.1 -0.2 8.1 -0.1 8.1 0.05 8.1 0.2 8.1 0.35 8.1 0.5 8.1 0.65 8.1 0.8 8.1 0.95 8.05 1.1 8.05 1.2 8.05 1.35 8.0 1.5 8.0 1.65 7.95 1.75 7.95 1.9 7.9 2.1 7.85 2.3 7.8 2.5 7.7 2.7 7.65 2.9 7.55 3.1 7.5 3.3 7.4 3.45 7.3 3.65 7.2 3.8 7.1 4.0 7.0 4.15 6.9 4.35 6.8 4.5 6.65 4.65 6.55 4.8 6.4 4.95 6.3 5.05 6.2 5.2 6.1 5.3 6.0 5.4 5.9 5.55 5.75 5.65 5.65 5.75 5.55 5.85 5.4 5.95 5.3 6.05 5.15 6.15 5.05 6.25 4.9 6.35 4.8 6.4 4.65 6.5 4.5 6.6 4.4 6.7 4.3 6.75 4.15 6.85 4.05 6.9 3.9 7.0 3.8 7.05 3.65 7.15 3.55 7.2 3.4 7.25 3.25 7.3 3.15 7.35 3.0 7.45 2.85 7.5 2.7 7.55 2.6 7.6 2.4 7.6 2.35 7.65 2.35 7.65 2.3 7.65 2.25 7.7 2.2 7.7 2.15 7.7 2.1 7.75 2.05 7.75 2.0 7.75 1.95 7.75 1.9 7.8 1.85 7.8 1.8 7.8 1.75 7.8 1.7 7.8 1.6 7.8 1.6 7.7 1.6 7.2 1.6 6.3 1.6 6.25 1.65 6.2 1.7 6.15 1.95 6.05 2.15 6.0 2.35 5.9 2.55 5.8 2.8 5.7 3.0 5.6 3.15 5.5 3.35 5.35 3.55 5.2 3.75 5.1 3.9 4.95 4.1 4.8 4.25 4.65 4.4 4.45 4.55 4.3 4.7 4.2 4.8 4.1 4.9 4.0 4.95 3.9 5.05 3.8 5.1 3.7 5.2 3.6 5.25 3.5 5.35 3.4 5.4 3.25 5.45 3.15 5.5 3.05 5.6 2.95 5.65 2.8 5.7 2.75 5.75 2.6 5.8 2.4 5.9 2.15 6.0 1.9 6.1 1.7 6.2 1.45 6.25 1.2 6.3 1.0 6.35 0.75 6.4 0.5 6.45 0.25 6.45 0.0 6.5 -0.25 6.5 -0.45 6.5 -0.7 6.45 -0.95 6.45 -1.2 6.4 -1.5 6.35 -1.8 6.3 -2.1 6.25 -2.4 6.15 -2.7 6.05 -2.95 5.95 -3.2 5.8 -3.45 5.65 -3.75 5.55 -3.95 5.35 -4.2 5.2 -4.45 5.0 -4.65 4.8 -4.9 4.6 -5.1 4.35 -5.3 4.1 -5.4 3.95 -5.5 3.85 -5.6 3.7 -5.7 3.55 -5.8 3.45 -5.9 3.3 -6.0 3.15 -6.05 3.0 -6.15 2.85 -6.2 2.7 -6.3 2.55 -6.35 2.4 -6.4 2.2 -6.5 2.05 -6.55 1.9 -6.6 1.7 -6.6 1.65 -6.65 1.65 -6.7 1.6 -6.8 1.6 -7.2 1.6 -8.0 1.6 -7.9 1.65 -7.9 1.7 -7.85 1.7 -7.9 1.7 -7.95 1.7 -8.0 1.7 L-8.0 1.7 M8.0 -1.65 Q7.85 -2.3 7.55 -2.9 7.3 -3.5 6.95 -4.05 6.6 -4.65 6.15 -5.15 5.75 -5.65 5.2 -6.05 4.7 -6.5 4.1 -6.85 3.5 -7.2 2.8 -7.4 2.1 -7.65 1.4 -7.75 0.6 -7.9 -0.2 -7.85 -0.9 -7.85 -1.6 -7.75 -2.3 -7.6 -2.95 -7.35 -3.55 -7.15 -4.15 -6.8 -4.7 -6.45 -5.2 -6.05 -5.75 -5.6 -6.15 -5.1 -6.6 -4.65 -6.95 -4.05 -7.3 -3.5 -7.55 -2.9 -7.85 -2.3 -8.0 -1.65 -7.5 -1.65 -6.5 -1.65 -6.45 -1.9 -6.35 -2.15 -6.25 -2.45 -6.15 -2.65 -6.0 -2.9 -5.9 -3.15 -5.75 -3.4 -5.6 -3.6 -5.45 -3.8 -5.3 -4.05 -5.15 -4.25 -4.95 -4.45 -4.8 -4.65 -4.6 -4.8 -4.4 -5.0 -4.2 -5.15 -3.95 -5.3 -3.75 -5.45 -3.5 -5.6 -3.3 -5.75 -3.05 -5.9 -2.8 -6.0 -2.55 -6.1 -2.3 -6.2 -2.05 -6.3 -1.8 -6.35 -1.55 -6.4 -1.3 -6.45 -1.0 -6.5 -0.75 -6.55 -0.5 -6.55 -0.2 -6.55 0.05 -6.55 0.3 -6.55 0.5 -6.55 0.75 -6.5 1.0 -6.45 1.25 -6.45 1.45 -6.4 1.7 -6.3 1.9 -6.25 2.15 -6.2 2.35 -6.1 2.6 -6.0 2.85 -5.9 3.05 -5.8 3.3 -5.7 3.5 -5.55 3.8 -5.4 4.05 -5.2 4.3 -5.0 4.55 -4.8 4.75 -4.6 5.0 -4.4 5.2 -4.15 5.4 -3.9 5.55 -3.65 5.75 -3.4 5.9 -3.15 6.05 -2.85 6.15 -2.6 6.3 -2.3 6.4 -2.0 6.5 -1.65 7.0 -1.65 8.0 -1.65 L8.0 -1.65" fill="#ffffff" fill-rule="evenodd" stroke="none"/>
    </g>
  
</svg>
