<?xml version="1.0" encoding="UTF-8" standalone="no"?>
<svg xmlns:xlink="http://www.w3.org/1999/xlink" height="17.85px" width="22.2px" xmlns="http://www.w3.org/2000/svg">
  <g transform="matrix(1.0, 0.0, 0.0, 1.0, 11.15, 8.9)">
    <use data-characterId="215" height="15.5" transform="matrix(1.0, 0.0, 0.0, 1.0, -9.9, -7.75)" width="19.8" xlink:href="#shape0"/>
  </g>
  
    <g id="shape0" transform="matrix(1.0, 0.0, 0.0, 1.0, 9.9, 7.75)">
      <path d="M9.9 -5.25 Q9.9 -4.45 9.9 -3.65 9.75 -3.65 9.6 -3.6 9.45 -3.6 9.35 -3.55 9.2 -3.5 9.05 -3.4 8.95 -3.35 8.85 -3.25 8.75 -3.15 8.65 -3.05 8.6 -2.95 8.5 -2.8 8.45 -2.7 8.45 -2.55 8.4 -2.4 8.4 -2.25 8.4 0.0 8.4 2.25 8.4 2.3 8.45 2.35 8.45 2.4 8.5 2.4 8.55 2.45 8.6 2.45 8.7 2.45 8.75 2.5 8.85 2.5 8.9 2.5 9.0 2.5 9.1 2.5 9.15 2.5 9.25 2.5 9.35 2.5 9.4 2.5 9.5 2.5 9.6 2.45 9.65 2.45 9.75 2.4 9.85 2.4 9.9 2.35 9.9 3.05 9.9 3.75 9.7 3.8 9.55 3.85 9.35 3.85 9.15 3.9 8.95 3.9 8.8 3.9 8.6 3.85 8.4 3.85 8.25 3.8 8.05 3.75 7.85 3.7 7.7 3.6 7.5 3.55 7.35 3.45 7.15 3.35 7.0 3.25 6.85 3.25 6.7 3.25 6.45 3.4 6.2 3.5 5.95 3.6 5.7 3.65 5.45 3.75 5.2 3.75 4.95 3.8 4.7 3.85 4.45 3.85 4.2 3.8 3.95 3.8 3.7 3.75 3.45 3.65 3.2 3.6 2.95 3.5 2.7 3.35 2.7 3.35 2.6 3.3 2.55 3.3 2.5 3.3 2.45 3.25 2.4 3.25 2.35 3.25 2.3 3.25 2.25 3.25 2.2 3.25 2.15 3.25 2.1 3.25 2.05 3.25 2.0 3.3 1.95 3.3 1.9 3.35 1.65 3.5 1.4 3.6 1.1 3.65 0.85 3.75 0.6 3.8 0.35 3.8 0.05 3.85 -0.2 3.8 -0.45 3.8 -0.7 3.75 -0.95 3.75 -1.2 3.65 -1.45 3.6 -1.7 3.5 -1.95 3.4 -2.2 3.25 -2.3 3.25 -2.4 3.25 -2.65 3.4 -2.9 3.5 -3.15 3.65 -3.4 3.7 -3.6 3.8 -3.85 3.8 -4.1 3.85 -4.35 3.9 -4.6 3.9 -4.85 3.85 -5.1 3.85 -5.35 3.8 -5.6 3.75 -5.9 3.65 -6.15 3.55 -6.4 3.45 -6.5 3.4 -6.55 3.4 -6.6 3.35 -6.65 3.3 -6.75 3.3 -6.8 3.3 -6.85 3.25 -6.9 3.25 -6.95 3.25 -7.0 3.25 -7.05 3.25 -7.1 3.3 -7.15 3.3 -7.2 3.35 -7.25 3.4 -7.3 3.45 -7.3 3.45 -7.35 3.45 -7.4 3.5 -7.4 3.55 -7.55 3.6 -7.7 3.65 -7.85 3.7 -8.0 3.75 -8.15 3.75 -8.3 3.8 -8.45 3.8 -8.6 3.85 -8.75 3.85 -8.9 3.85 -9.05 3.85 -9.2 3.85 -9.35 3.85 -9.5 3.8 -9.65 3.8 -9.8 3.75 -9.8 3.05 -9.8 2.35 -9.75 2.4 -9.65 2.4 -9.6 2.45 -9.5 2.45 -9.45 2.45 -9.35 2.45 -9.3 2.45 -9.2 2.45 -9.15 2.45 -9.05 2.45 -9.0 2.45 -8.9 2.45 -8.8 2.45 -8.75 2.45 -8.65 2.45 -8.6 2.45 -8.55 2.45 -8.55 2.45 -8.5 2.45 -8.45 2.45 -8.45 2.4 -8.4 2.4 -8.4 2.4 -8.35 2.35 -8.35 2.35 -8.35 2.35 -8.35 2.3 -8.3 2.3 -8.3 2.25 -8.3 2.2 -8.3 2.2 -8.3 2.15 -8.3 1.0 -8.3 -0.15 -8.3 -1.15 -8.3 -2.15 -8.3 -2.3 -8.35 -2.5 -8.35 -2.65 -8.4 -2.8 -8.5 -2.9 -8.55 -3.05 -8.65 -3.2 -8.75 -3.3 -8.85 -3.4 -8.95 -3.5 -9.1 -3.55 -9.25 -3.65 -9.35 -3.7 -9.5 -3.7 -9.65 -3.75 -9.8 -3.75 -9.8 -4.55 -9.8 -5.35 -9.7 -5.35 -9.6 -5.35 -1.05 -5.35 7.5 -5.35 8.3 -5.25 9.9 -5.25 L9.9 -5.25 M0.0 -3.65 Q0.0 -3.65 0.0 -3.65 -1.9 -3.65 -3.8 -3.65 -3.9 -3.65 -4.0 -3.65 -4.15 -3.6 -4.25 -3.6 -4.35 -3.55 -4.45 -3.5 -4.5 -3.5 -4.6 -3.4 -4.7 -3.35 -4.8 -3.3 -4.85 -3.25 -4.95 -3.15 -5.0 -3.05 -5.1 -2.95 -5.15 -2.85 -5.2 -2.75 -5.2 -2.7 -5.25 -2.65 -5.25 -2.55 -5.25 -2.5 -5.25 -2.45 -5.3 -2.4 -5.3 -2.3 -5.3 -2.25 -5.3 -2.15 -5.3 -2.1 -5.3 -2.05 -5.3 -1.95 -5.3 -1.9 -5.3 -1.8 -5.3 -1.75 -5.3 -1.65 -5.3 0.3 -5.3 2.25 -5.3 2.3 -5.3 2.35 -5.3 2.4 -5.25 2.4 -5.25 2.45 -5.2 2.45 -5.2 2.45 -5.15 2.5 -5.1 2.55 -5.1 2.55 -4.95 2.55 -4.75 2.6 -4.6 2.6 -4.45 2.6 -4.3 2.6 -4.1 2.55 -3.95 2.55 -3.8 2.55 -3.65 2.5 -3.5 2.5 -3.35 2.45 -3.2 2.4 -3.05 2.35 -2.9 2.3 -2.75 2.2 -2.6 2.15 -2.55 2.1 -2.5 2.1 -2.45 2.05 -2.4 2.05 -2.35 2.05 -2.3 2.05 -2.25 2.05 -2.2 2.05 -2.15 2.05 -2.1 2.05 -2.05 2.05 -2.0 2.1 -1.95 2.1 -1.9 2.1 -1.8 2.15 -1.8 2.15 -1.55 2.3 -1.3 2.4 -1.0 2.45 -0.75 2.55 -0.5 2.6 -0.25 2.6 0.0 2.65 0.25 2.6 0.5 2.6 0.75 2.55 1.0 2.5 1.25 2.4 1.5 2.35 1.8 2.2 2.05 2.1 2.3 1.95 2.4 1.95 2.5 1.95 2.65 2.05 2.8 2.1 2.95 2.2 3.1 2.25 3.3 2.35 3.45 2.4 3.6 2.45 3.75 2.5 3.95 2.5 4.1 2.55 4.3 2.55 4.45 2.55 4.65 2.6 4.85 2.55 5.0 2.55 5.2 2.55 5.35 2.55 5.4 2.55 5.45 2.5 5.5 2.45 5.5 2.4 5.5 2.25 5.5 0.15 5.5 -1.95 5.5 -2.1 5.45 -2.3 5.45 -2.45 5.4 -2.6 5.3 -2.7 5.25 -2.85 5.15 -3.0 5.05 -3.1 4.95 -3.2 4.8 -3.3 4.65 -3.35 4.55 -3.45 4.4 -3.5 4.25 -3.5 4.05 -3.55 3.9 -3.55 2.5 -3.65 0.0 -3.65 L0.0 -3.65" fill="#ffffff" fill-rule="evenodd" stroke="none"/>
      <path d="M-9.9 5.45 Q-9.7 5.45 -9.55 5.5 -9.35 5.5 -9.15 5.5 -8.95 5.5 -8.8 5.45 -8.6 5.45 -8.4 5.45 -8.25 5.4 -8.05 5.35 -7.85 5.3 -7.7 5.25 -7.5 5.2 -7.35 5.1 -7.15 5.05 -7.0 4.95 -6.95 4.9 -6.9 4.9 -6.9 4.9 -6.85 4.9 -6.8 4.9 -6.75 4.9 -6.75 4.9 -6.7 4.95 -6.45 5.1 -6.15 5.2 -5.9 5.3 -5.65 5.4 -5.35 5.45 -5.1 5.5 -4.8 5.55 -4.55 5.55 -4.3 5.55 -4.0 5.5 -3.75 5.45 -3.45 5.4 -3.2 5.3 -2.95 5.2 -2.65 5.1 -2.4 4.95 -2.3 4.95 -2.2 4.95 -1.95 5.1 -1.7 5.2 -1.5 5.35 -1.25 5.4 -1.0 5.5 -0.75 5.55 -0.55 5.55 -0.3 5.6 -0.05 5.6 0.2 5.6 0.45 5.55 0.7 5.55 0.95 5.5 1.2 5.4 1.45 5.35 1.7 5.25 2.1 5.05 2.1 5.05 2.15 5.0 2.2 5.0 2.2 5.0 2.25 5.0 2.3 5.0 2.35 5.0 2.35 5.0 2.4 5.05 2.65 5.2 2.95 5.3 3.2 5.4 3.45 5.5 3.75 5.55 4.0 5.6 4.3 5.65 4.55 5.65 4.8 5.65 5.1 5.6 5.35 5.55 5.65 5.5 5.9 5.4 6.15 5.3 6.45 5.2 6.7 5.05 6.75 5.0 6.8 5.0 6.8 5.0 6.85 5.0 6.9 5.0 6.95 5.0 6.95 5.0 7.0 5.05 7.15 5.15 7.25 5.2 7.4 5.25 7.55 5.3 7.65 5.35 7.8 5.4 7.95 5.45 8.05 5.5 8.2 5.55 8.35 5.55 8.5 5.6 8.6 5.6 8.75 5.65 8.9 5.65 9.05 5.65 9.2 5.65 9.5 5.6 9.8 5.55 9.8 6.25 9.8 6.95 9.6 7.0 9.45 7.05 9.25 7.05 9.05 7.1 8.85 7.1 8.7 7.1 8.5 7.1 8.3 7.05 8.15 7.0 7.95 7.0 7.75 6.95 7.6 6.85 7.4 6.8 7.25 6.7 7.05 6.65 6.9 6.55 6.7 6.55 6.7 6.55 6.5 6.65 6.3 6.75 6.15 6.85 5.95 6.9 5.75 7.0 5.55 7.05 5.35 7.1 5.15 7.15 4.9 7.15 4.7 7.2 4.5 7.2 4.3 7.2 4.05 7.15 3.85 7.15 3.6 7.1 3.4 7.05 3.35 7.05 3.25 7.0 3.2 7.0 3.1 6.95 3.05 6.95 3.0 6.9 2.95 6.9 2.85 6.85 2.85 6.85 2.75 6.8 2.65 6.75 2.65 6.75 2.55 6.7 2.5 6.7 2.45 6.65 2.4 6.65 2.1 6.65 2.1 6.65 1.85 6.8 1.55 6.9 1.3 7.0 1.05 7.1 0.75 7.15 0.5 7.2 0.2 7.25 -0.05 7.25 -0.3 7.25 -0.6 7.2 -0.85 7.15 -1.15 7.1 -1.4 7.0 -1.65 6.9 -1.95 6.8 -2.2 6.65 -2.25 6.6 -2.25 6.6 -2.3 6.6 -2.35 6.6 -2.4 6.6 -2.4 6.6 -2.45 6.6 -2.5 6.65 -2.75 6.8 -3.0 6.9 -3.25 7.05 -3.5 7.1 -3.75 7.2 -4.0 7.2 -4.25 7.25 -4.5 7.25 -4.75 7.25 -5.05 7.25 -5.3 7.2 -5.55 7.15 -5.8 7.1 -6.1 7.0 -6.35 6.9 -6.6 6.75 -6.7 6.7 -6.8 6.65 -6.8 6.65 -6.8 6.65 -6.85 6.6 -6.85 6.6 -6.9 6.6 -6.95 6.55 -6.95 6.55 -7.0 6.55 -7.05 6.6 -7.1 6.65 -7.2 6.7 -7.25 6.75 -7.3 6.8 -7.4 6.85 -7.45 6.9 -7.5 6.95 -7.6 6.95 -7.7 7.0 -7.75 7.05 -7.85 7.05 -7.95 7.1 -8.0 7.1 -8.1 7.15 -8.2 7.15 -8.3 7.15 -8.4 7.2 -8.5 7.2 -8.55 7.2 -8.65 7.2 -8.75 7.25 -8.85 7.25 -8.95 7.25 -9.0 7.25 -9.1 7.25 -9.2 7.25 -9.3 7.25 -9.35 7.25 -9.45 7.25 -9.5 7.25 -9.6 7.25 -9.8 7.25 -10.0 7.25 -10.0 7.1 -9.95 6.95 -9.95 6.85 -9.95 6.7 -9.95 6.6 -9.9 6.45 -9.9 6.35 -9.9 6.25 -9.9 6.15 -9.9 6.05 -9.9 5.95 -9.9 5.85 -9.9 5.75 -9.9 5.65 -9.9 5.6 -9.9 5.45 L-9.9 5.45" fill="#ffffff" fill-rule="evenodd" stroke="none"/>
      <path d="M-9.9 -6.75 Q-8.45 -6.75 -7.0 -6.75 -5.05 -6.75 -3.1 -6.75 -1.1 -6.75 0.9 -6.75 2.85 -6.75 4.8 -6.75 6.75 -6.75 8.7 -6.75 9.3 -6.75 9.9 -6.75 9.9 -6.35 9.9 -5.95 9.75 -5.95 9.6 -5.95 8.7 -5.95 7.8 -5.95 3.7 -5.95 -0.4 -5.95 -4.5 -5.95 -8.6 -5.95 -9.2 -5.95 -9.8 -5.95 -9.8 -6.0 -9.85 -6.05 -9.85 -6.1 -9.85 -6.15 -9.85 -6.2 -9.9 -6.25 -9.9 -6.3 -9.9 -6.35 -9.9 -6.4 -9.9 -6.45 -9.9 -6.5 -9.9 -6.55 -9.9 -6.6 -9.9 -6.65 -9.9 -6.7 -9.9 -6.75 L-9.9 -6.75" fill="#ffffff" fill-rule="evenodd" stroke="none"/>
    </g>
  
</svg>
