<?xml version="1.0" encoding="UTF-8" standalone="no"?>
<svg xmlns:xlink="http://www.w3.org/1999/xlink" height="15.65px" width="22.0px" xmlns="http://www.w3.org/2000/svg">
  <g transform="matrix(1.0, 0.0, 0.0, 1.0, 11.0, 7.8)">
    <use data-characterId="126" height="13.05" transform="matrix(1.0, 0.0, 0.0, 1.0, -9.5, -5.9)" width="19.0" xlink:href="#shape0"/>
  </g>
  
    <g id="shape0" transform="matrix(1.0, 0.0, 0.0, 1.0, 9.5, 5.9)">
      <path d="M3.2 4.9 Q1.9 4.9 -0.6 4.9 -0.55 5.0 -0.55 5.1 -0.5 5.2 -0.5 5.3 -0.5 5.4 -0.5 5.5 -0.5 5.6 -0.5 5.7 -0.5 5.8 -0.55 5.9 -0.55 6.0 -0.6 6.1 -0.65 6.2 -0.7 6.3 -0.8 6.4 -0.85 6.5 -0.9 6.55 -0.95 6.6 -1.0 6.65 -1.05 6.65 -1.15 6.7 -1.2 6.75 -1.25 6.8 -1.3 6.85 -1.35 6.9 -1.45 6.9 -1.5 6.95 -1.55 7.0 -1.6 7.0 -1.7 7.05 -1.75 7.05 -1.8 7.05 -1.95 7.1 -2.1 7.1 -2.25 7.1 -2.4 7.1 -2.55 7.1 -2.7 7.05 -2.85 7.0 -2.95 6.95 -3.1 6.9 -3.2 6.85 -3.35 6.75 -3.45 6.65 -3.55 6.55 -3.65 6.45 -3.75 6.35 -3.8 6.25 -3.85 6.1 -3.9 5.95 -3.95 5.85 -3.95 5.7 -3.95 5.55 -3.95 5.4 -3.9 5.3 -3.9 5.15 -3.85 5.05 -3.75 4.9 -3.7 4.8 -3.6 4.7 -3.5 4.55 -3.4 4.45 -3.25 4.35 -3.1 4.2 -3.3 3.6 -3.6 2.4 -3.9 1.15 -4.05 0.65 -4.5 -1.05 -5.35 -4.4 -5.4 -4.45 -5.4 -4.5 -5.45 -4.55 -5.45 -4.6 -5.5 -4.65 -5.5 -4.7 -5.55 -4.7 -5.6 -4.75 -5.6 -4.75 -5.65 -4.75 -5.65 -4.8 -5.7 -4.8 -5.75 -4.8 -5.8 -4.8 -5.8 -4.8 -5.85 -4.8 -6.5 -4.8 -7.6 -4.8 -7.65 -4.8 -7.75 -4.8 -7.8 -4.8 -7.85 -4.85 -7.9 -4.85 -7.95 -4.9 -8.0 -4.9 -8.05 -4.95 -8.05 -4.95 -8.1 -5.0 -8.15 -5.05 -8.15 -5.1 -8.2 -5.15 -8.2 -5.2 -8.2 -5.25 -8.2 -5.3 -8.2 -5.35 -8.2 -5.4 -8.2 -5.5 -8.15 -5.55 -8.15 -5.6 -8.1 -5.6 -8.05 -5.65 -8.05 -5.7 -8.0 -5.7 -7.95 -5.75 -7.9 -5.75 -7.85 -5.8 -7.8 -5.8 -7.75 -5.8 -7.65 -5.8 -7.6 -5.8 -7.1 -5.8 -5.95 -5.8 -5.8 -5.8 -5.65 -5.8 -5.55 -5.75 -5.4 -5.75 -5.3 -5.7 -5.15 -5.65 -5.05 -5.6 -4.95 -5.5 -4.85 -5.45 -4.75 -5.35 -4.7 -5.3 -4.6 -5.2 -4.55 -5.1 -4.5 -4.95 -4.45 -4.85 -4.4 -4.75 -4.4 -4.75 -4.35 -4.65 -4.35 -4.6 -4.35 -4.55 -4.3 -4.5 -4.3 -4.45 -4.3 -4.4 -4.3 -4.35 -4.25 -4.3 -4.25 -4.25 -4.25 -4.2 -4.25 -4.15 -4.25 -4.05 -4.25 -4.0 -4.25 -3.95 -4.25 -3.9 -4.25 -3.85 -4.2 -3.8 -4.2 -3.75 -4.15 -3.75 -4.15 -3.75 -4.1 -3.75 -4.05 -3.7 -3.95 -3.7 -2.7 -3.75 -0.15 -3.7 2.25 -3.7 7.0 -3.7 7.1 -3.7 7.15 -3.7 7.2 -3.7 7.3 -3.65 7.35 -3.65 7.4 -3.6 7.45 -3.6 7.5 -3.55 7.55 -3.5 7.55 -3.45 7.6 -3.4 7.6 -3.35 7.6 -3.25 7.6 -3.2 7.6 -3.15 7.6 -3.05 6.95 -0.8 6.2 2.4 6.2 2.45 6.15 2.5 6.15 2.55 6.15 2.6 6.1 2.65 6.05 2.7 6.05 2.75 6.0 2.75 5.95 2.8 5.9 2.8 5.85 2.85 5.8 2.85 5.75 2.85 5.7 2.9 5.6 2.9 5.55 2.9 2.95 2.9 -2.15 2.9 -2.25 2.9 -2.4 2.9 -2.4 2.95 -2.4 3.0 -2.35 3.0 -2.35 3.05 -2.35 3.1 -2.35 3.15 -2.4 2.9 -2.35 3.2 -2.3 3.25 -2.3 3.3 -2.3 3.35 -2.3 3.4 -2.3 3.4 -2.25 3.45 -2.25 3.5 -2.25 3.55 -2.25 3.6 -2.2 3.65 -2.2 3.7 -2.15 3.7 -2.15 3.75 -2.1 3.75 -2.1 3.8 -2.05 3.8 -2.0 3.85 -2.0 3.85 -1.95 3.85 -1.9 3.85 -1.85 3.9 -1.8 3.9 -1.8 3.9 -1.75 3.9 -1.4 3.9 -0.6 3.9 1.2 3.9 4.75 3.9 4.9 3.9 5.05 3.9 5.2 3.95 5.35 4.0 5.5 4.05 5.65 4.1 5.75 4.15 5.85 4.25 6.0 4.35 6.1 4.45 6.2 4.55 6.25 4.65 6.35 4.8 6.4 4.95 6.45 5.05 6.5 5.25 6.55 5.4 6.5 5.6 6.5 5.75 6.45 5.9 6.4 6.05 6.35 6.2 6.25 6.35 6.15 6.45 6.05 6.6 5.9 6.7 5.8 6.8 5.65 6.85 5.45 6.95 5.3 7.0 5.1 7.05 4.9 7.05 4.75 7.05 4.55 7.05 4.4 7.05 4.25 7.0 4.05 6.95 3.9 6.85 3.8 6.8 3.65 6.7 3.5 6.6 3.4 6.45 3.3 6.35 3.2 6.2 3.15 6.05 3.1 5.9 3.05 5.75 3.0 5.55 3.0 5.5 3.05 5.5 3.05 5.45 3.05 5.4 3.1 5.4 3.1 5.35 3.1 5.3 3.1 5.25 3.1 5.25 3.1 5.15 3.15 5.1 3.15 5.1 3.15 5.05 3.15 5.0 3.2 4.95 3.2 4.9 L3.2 4.9 M-0.1 -2.7 Q-0.05 -2.4 0.0 -1.8 0.05 -1.15 0.1 -0.9 0.95 -0.9 2.5 -0.9 2.55 -1.2 2.6 -1.8 2.65 -2.45 2.7 -2.7 1.75 -2.7 -0.1 -2.7 L-0.1 -2.7 M-3.9 -2.7 Q-3.9 -2.65 -3.9 -2.65 -3.55 -1.45 -3.45 -0.95 -3.45 -0.9 -3.4 -0.9 -3.35 -0.9 -3.3 -0.9 -2.6 -0.9 -1.1 -0.9 -1.05 -0.9 -1.05 -0.9 -1.0 -0.9 -0.95 -0.9 -1.1 -2.2 -1.1 -2.7 -2.05 -2.7 -3.9 -2.7 L-3.9 -2.7 M3.55 -0.9 Q4.4 -0.9 5.95 -0.9 6.05 -1.25 6.2 -1.8 6.45 -2.55 6.5 -2.7 5.55 -2.7 3.7 -2.7 3.7 -2.05 3.55 -0.9 L3.55 -0.9 M0.15 0.1 Q0.2 0.45 0.25 1.0 0.3 1.65 0.35 1.9 0.35 1.9 0.35 1.9 0.4 1.95 0.45 1.95 0.5 1.95 0.5 1.95 0.85 1.95 1.65 1.95 1.8 1.95 2.25 1.95 2.3 1.65 2.35 1.05 2.35 0.4 2.4 0.1 1.65 0.1 0.15 0.1 L0.15 0.1 M-0.8 1.95 Q-0.8 1.6 -0.8 1.0 -0.85 0.35 -0.85 0.1 -1.65 0.1 -3.1 0.1 -3.1 0.1 -3.1 0.2 -3.05 0.4 -2.9 1.05 -2.75 1.6 -2.7 1.9 -2.65 1.95 -2.6 1.95 -2.0 1.95 -0.8 1.95 L-0.8 1.95 M5.7 0.1 Q4.9 0.1 3.45 0.1 3.4 0.4 3.35 1.05 3.35 1.65 3.3 1.95 3.9 1.95 5.1 1.95 5.1 1.95 5.15 1.9 5.15 1.9 5.2 1.9 5.2 1.85 5.2 1.8 5.25 1.75 5.25 1.7 5.25 1.65 5.25 1.6 5.25 1.55 5.25 1.5 5.3 1.45 5.3 1.45 5.3 1.4 5.3 1.35 5.3 1.3 5.35 1.3 5.35 1.25 5.35 1.2 5.4 1.15 5.4 1.05 5.45 1.0 5.45 0.9 5.5 0.85 5.5 0.75 5.55 0.7 5.55 0.65 5.6 0.55 5.6 0.5 5.6 0.45 5.65 0.4 5.65 0.3 5.65 0.25 5.7 0.2 5.7 0.1 L5.7 0.1 M-2.95 5.5 Q-2.95 5.55 -2.95 5.6 -2.9 5.65 -2.9 5.7 -2.85 5.75 -2.85 5.8 -2.8 5.85 -2.75 5.9 -2.7 5.95 -2.65 5.95 -2.6 6.0 -2.55 6.0 -2.45 6.05 -2.4 6.05 -2.35 6.05 -2.25 6.05 -2.2 6.05 -2.1 6.05 -2.05 6.05 -2.0 6.0 -1.95 6.0 -1.9 5.95 -1.8 5.95 -1.75 5.9 -1.7 5.85 -1.7 5.8 -1.65 5.75 -1.6 5.7 -1.6 5.65 -1.55 5.6 -1.55 5.55 -1.55 5.5 -1.55 5.45 -1.55 5.35 -1.6 5.3 -1.6 5.25 -1.65 5.2 -1.7 5.15 -1.7 5.1 -1.75 5.05 -1.8 5.0 -1.85 5.0 -1.95 4.95 -2.0 4.95 -2.05 4.9 -2.1 4.9 -2.2 4.9 -2.25 4.9 -2.35 4.9 -2.4 4.9 -2.45 4.9 -2.55 4.95 -2.6 4.95 -2.65 5.0 -2.7 5.0 -2.75 5.05 -2.8 5.1 -2.85 5.15 -2.85 5.2 -2.9 5.25 -2.9 5.3 -2.9 5.35 -2.95 5.4 -2.95 5.5 L-2.95 5.5 M5.45 5.5 Q5.45 5.45 5.45 5.35 5.4 5.3 5.4 5.25 5.35 5.2 5.35 5.15 5.3 5.1 5.25 5.05 5.2 5.0 5.15 5.0 5.1 4.95 5.05 4.95 5.0 4.9 4.9 4.9 4.85 4.9 4.75 4.9 4.7 4.9 4.6 4.9 4.55 4.9 4.5 4.95 4.45 4.95 4.4 5.0 4.3 5.0 4.3 5.05 4.25 5.1 4.2 5.15 4.15 5.2 4.1 5.25 4.1 5.3 4.05 5.35 4.05 5.4 4.05 5.5 4.05 5.55 4.05 5.6 4.1 5.65 4.1 5.7 4.15 5.75 4.15 5.8 4.2 5.85 4.25 5.9 4.3 5.95 4.35 5.95 4.4 6.0 4.45 6.0 4.5 6.05 4.6 6.05 4.65 6.05 4.75 6.05 4.85 6.05 4.9 6.05 5.0 6.05 5.05 6.0 5.1 6.0 5.15 5.95 5.2 5.95 5.25 5.9 5.3 5.85 5.35 5.8 5.35 5.75 5.4 5.7 5.4 5.65 5.45 5.6 5.45 5.55 5.45 5.5 L5.45 5.5" fill="#ffffff" fill-rule="evenodd" stroke="none"/>
    </g>
  
</svg>
