<?xml version="1.0" encoding="UTF-8" standalone="no"?>
<svg xmlns:xlink="http://www.w3.org/1999/xlink" height="32.1px" width="31.95px" xmlns="http://www.w3.org/2000/svg">
  <g transform="matrix(1.0, 0.0, 0.0, 1.0, 15.95, 16.05)">
    <use data-characterId="153" height="32.1" transform="matrix(1.0, 0.0, 0.0, 1.0, -15.95, -16.05)" width="31.95" xlink:href="#shape0"/>
  </g>
  
    <g id="shape0" transform="matrix(1.0, 0.0, 0.0, 1.0, 15.95, 16.05)">
      <path d="M-8.7 4.9 L-9.2 8.1 -6.3 6.5 -8.7 4.9 M-7.2 0.5 L-5.7 1.5 -5.7 -0.4 -7.2 0.5 M-8.0 1.2 L-8.4 3.4 -6.3 2.4 -8.0 1.2 M-2.7 4.2 L-4.8 3.1 -4.8 5.7 -2.7 4.2 M-4.8 1.5 L-3.3 0.5 -4.8 -0.3 -4.8 1.5 M-1.9 5.0 L-2.0 4.9 -4.3 6.5 -1.4 8.1 -1.9 5.0 M-5.7 7.4 L-5.7 7.4 -8.5 9.1 -5.7 9.1 -5.7 7.4 M-4.7 7.4 L-4.8 7.4 -4.8 9.1 -2.0 9.1 -4.7 7.4 M-5.7 3.2 L-5.7 3.2 -7.8 4.2 -5.7 5.7 -5.7 3.2 M-2.6 1.2 L-2.7 1.2 -4.3 2.3 -2.2 3.3 -2.6 1.2 M-2.9 -0.4 L-3.2 -2.1 -4.4 -1.2 -2.9 -0.4 M-5.7 -2.1 L-5.7 -3.3 -7.2 -3.3 -5.7 -2.1 M-4.9 -3.3 L-4.9 -2.1 -3.4 -3.3 -4.9 -3.3 M-7.5 -2.1 L-7.7 -0.4 -6.3 -1.2 -7.5 -2.1 M-7.9 -5.5 L-7.9 -4.4 -2.6 -4.4 -2.6 -5.5 -7.9 -5.5 M-4.5 -9.9 L-4.8 -9.9 -4.8 -6.5 -4.0 -6.5 -4.5 -9.9 M-5.7 -9.9 L-6.0 -9.9 -6.5 -6.5 -5.6 -6.5 -5.6 -9.9 M0.05 9.2 L0.05 10.6 -10.9 10.6 -10.9 9.4 -8.0 -3.3 -8.7 -3.4 -8.6 -6.5 -7.4 -6.5 -6.6 -10.9 -3.8 -10.9 -3.0 -6.5 -1.7 -6.5 -1.7 -3.3 -2.4 -3.3 0.05 9.2 M6.15 8.2 L6.05 8.2 6.05 9.5 8.45 9.5 6.15 8.2 M5.35 9.5 L5.35 8.2 5.25 8.2 2.95 9.5 5.35 9.5 M3.35 3.4 L3.05 5.1 4.85 4.3 3.35 3.4 M4.85 7.5 L2.75 6.3 2.35 8.7 4.85 7.5 M5.35 6.9 L5.35 5.0 5.25 4.9 3.45 5.7 5.35 6.9 M6.05 4.9 L6.05 6.9 7.95 5.7 6.05 4.9 M4.85 1.6 L3.85 1.0 3.65 2.2 4.85 1.6 M6.05 2.2 L6.05 3.6 7.35 2.8 6.05 2.2 M5.35 3.7 L5.35 2.3 4.05 2.9 5.35 3.7 M5.35 0.9 L5.35 0.0 4.05 0.0 5.35 0.9 M6.05 0.0 L6.05 0.9 7.45 0.0 6.05 0.0 M7.85 2.2 L7.65 1.0 6.55 1.6 7.85 2.2 M8.45 5.0 L8.15 3.5 7.95 3.4 6.55 4.3 8.45 5.0 M8.65 6.4 L8.65 6.4 6.55 7.5 9.15 8.7 8.65 6.4 M3.75 -2.4 L4.45 -5.7 6.95 -5.7 7.65 -2.4 8.75 -2.4 8.75 0.0 8.15 0.0 10.55 9.5 10.55 10.6 0.85 10.6 0.85 9.6 3.35 0.0 2.65 0.0 2.65 -2.4 3.75 -2.4 M3.45 -1.6 L3.45 -0.7 8.05 -0.7 8.05 -1.6 3.45 -1.6 M6.35 -4.9 L6.05 -4.9 6.05 -2.4 6.85 -2.4 6.35 -4.9 M5.35 -4.9 L5.05 -4.9 4.55 -2.4 5.35 -2.4 5.35 -4.9" fill="#ffffff" fill-rule="evenodd" stroke="none"/>
    </g>
  
</svg>
