<?xml version="1.0" encoding="UTF-8" standalone="no"?>
<svg xmlns:xlink="http://www.w3.org/1999/xlink" height="21.25px" width="21.1px" xmlns="http://www.w3.org/2000/svg">
  <g transform="matrix(1.0, 0.0, 0.0, 1.0, 10.5, 10.6)">
    <use data-characterId="59" height="19.05" transform="matrix(1.0, 0.0, 0.0, 1.0, -9.5, -9.5)" width="19.0" xlink:href="#shape0"/>
  </g>
  
    <g id="shape0" transform="matrix(1.0, 0.0, 0.0, 1.0, 9.5, 9.5)">
      <path d="M-8.5 4.25 Q-8.5 2.65 -8.5 1.05 -2.8 1.05 8.5 1.05 8.5 2.65 8.5 4.25 2.9 4.25 -8.5 4.25 L-8.5 4.25" fill="#ffffff" fill-rule="evenodd" stroke="none"/>
      <path d="M-5.1 -4.9 Q-5.1 -5.0 -5.1 -5.1 -5.1 -5.2 -5.1 -5.3 -5.1 -5.4 -5.1 -5.5 -5.1 -5.6 -5.05 -5.7 -5.05 -5.8 -5.05 -5.9 -5.05 -6.0 -5.0 -6.1 -5.0 -6.2 -4.95 -6.3 -4.95 -6.4 -4.9 -6.5 -4.8 -6.7 -4.75 -6.95 -4.65 -7.15 -4.5 -7.3 -4.4 -7.5 -4.3 -7.7 -4.15 -7.85 -4.0 -8.0 -3.85 -8.15 -3.7 -8.3 -3.5 -8.4 -3.3 -8.5 -3.15 -8.65 -2.95 -8.75 -2.7 -8.8 -2.5 -8.9 -2.3 -8.95 -2.1 -9.05 -1.95 -9.1 -1.75 -9.15 -1.55 -9.15 -1.35 -9.2 -1.2 -9.25 -1.0 -9.25 -0.8 -9.25 -0.6 -9.3 -0.4 -9.3 -0.2 -9.3 -0.05 -9.3 0.2 -9.3 0.35 -9.3 0.6 -9.3 0.7 -9.3 0.85 -9.3 0.95 -9.3 1.05 -9.3 1.15 -9.25 1.25 -9.25 1.4 -9.25 1.5 -9.2 1.6 -9.2 1.7 -9.15 1.85 -9.15 1.95 -9.1 2.05 -9.05 2.15 -9.0 2.3 -8.95 2.4 -8.9 2.7 -8.8 2.95 -8.65 3.2 -8.5 3.4 -8.35 3.65 -8.2 3.85 -8.0 4.0 -7.8 4.2 -7.6 4.35 -7.4 4.5 -7.15 4.6 -6.9 4.7 -6.65 4.8 -6.4 4.9 -6.1 4.95 -5.8 5.0 -5.5 5.0 -5.4 5.0 -5.35 5.0 -5.25 5.0 -5.2 5.0 -5.1 5.0 -5.05 5.0 -4.95 5.0 -4.9 5.0 -4.8 5.0 -4.75 5.05 -4.65 5.05 -4.6 5.05 -4.5 5.05 -4.45 5.1 -4.35 5.1 -4.3 5.1 -4.2 5.1 -4.2 5.1 -4.15 5.0 -4.1 4.75 -4.0 4.5 -3.9 4.25 -3.8 4.0 -3.75 3.75 -3.65 3.55 -3.55 3.3 -3.5 3.05 -3.4 2.8 -3.35 2.55 -3.3 2.3 -3.2 2.05 -3.15 1.8 -3.1 1.5 -3.05 1.25 -3.0 1.0 -3.0 0.8 -3.0 0.6 -2.95 0.45 -2.95 0.25 -2.95 0.05 -2.95 -0.15 -2.95 -0.35 -2.95 -0.55 -2.95 -0.75 -3.0 -0.95 -3.0 -1.15 -3.05 -1.35 -3.05 -1.55 -3.1 -1.7 -3.1 -1.9 -3.15 -2.1 -3.2 -3.1 -3.5 -4.9 -4.1 -5.0 -4.1 -5.0 -4.15 -5.05 -4.2 -5.0 -4.3 -5.0 -4.35 -5.05 -4.35 -5.05 -4.4 -5.05 -4.45 -5.05 -4.5 -5.1 -4.5 -5.1 -4.55 -5.1 -4.6 -5.1 -4.6 -5.1 -4.65 -5.1 -4.7 -5.1 -4.75 -5.1 -4.75 -5.1 -4.8 -5.1 -4.85 -5.1 -4.9 L-5.1 -4.9" fill="#ffffff" fill-rule="evenodd" stroke="none"/>
      <path d="M5.2 0.65 Q5.2 0.55 5.15 0.45 5.1 0.3 5.05 0.2 5.05 0.15 4.95 0.05 4.9 -0.05 4.85 -0.1 4.8 -0.2 4.7 -0.25 4.65 -0.35 4.55 -0.4 4.45 -0.45 4.4 -0.5 4.3 -0.55 4.2 -0.6 4.1 -0.65 4.0 -0.7 3.85 -0.75 3.75 -0.8 3.65 -0.8 3.55 -0.85 3.4 -0.9 3.3 -0.9 3.2 -0.95 3.05 -0.95 2.95 -1.0 2.85 -1.0 2.75 -1.0 2.6 -1.05 2.55 -1.05 2.4 -1.1 1.8 -1.2 0.7 -1.2 0.2 -1.2 -0.7 -1.2 -0.9 -1.2 -1.1 -1.2 -1.25 -1.2 -1.45 -1.15 -1.65 -1.15 -1.85 -1.15 -2.0 -1.15 -2.2 -1.1 -2.4 -1.1 -2.6 -1.05 -2.75 -1.05 -2.95 -1.0 -3.15 -1.0 -3.35 -0.95 -3.5 -0.9 -3.7 -0.9 -3.8 -0.85 -3.8 -0.85 -3.9 -0.8 -3.95 -0.8 -4.05 -0.75 -4.1 -0.75 -4.2 -0.7 -4.25 -0.65 -4.35 -0.6 -4.4 -0.55 -4.5 -0.55 -4.55 -0.5 -4.6 -0.45 -4.7 -0.4 -4.75 -0.35 -4.8 -0.3 -4.85 -0.25 -4.9 -0.2 -4.95 -0.15 -5.0 -0.15 -5.05 -0.1 -5.1 -0.05 -5.15 0.0 -5.15 0.05 -5.2 0.1 -5.25 0.15 -5.3 0.2 -5.3 0.25 -5.35 0.3 -5.35 0.4 -5.4 0.45 -5.4 0.55 -5.4 0.55 -5.4 0.6 -5.4 0.65 -5.4 0.75 -5.45 0.75 -5.5 0.75 -5.55 0.7 -5.6 0.7 -5.65 0.7 -5.7 0.7 -5.75 0.65 -5.75 0.65 -5.8 0.65 -5.85 0.65 -5.9 0.65 -5.9 0.65 -5.95 0.65 -5.95 0.65 -6.05 0.6 -6.2 0.55 -6.15 0.55 -6.45 0.4 -6.55 0.35 -6.65 0.3 -6.75 0.25 -6.85 0.2 -7.0 0.15 -7.05 0.1 -7.2 0.0 -7.25 -0.05 -7.35 -0.1 -7.45 -0.2 -7.55 -0.3 -7.6 -0.4 -7.8 -0.6 -7.9 -0.85 -8.0 -1.05 -8.05 -1.3 -8.1 -1.55 -8.1 -1.75 -8.05 -1.95 -8.0 -2.2 -7.95 -2.4 -7.8 -2.55 -7.7 -2.75 -7.55 -2.9 -7.45 -3.05 -7.25 -3.2 -7.1 -3.3 -6.9 -3.4 -6.85 -3.45 -6.8 -3.45 -6.8 -3.5 -6.75 -3.5 -6.7 -3.5 -6.65 -3.55 -6.6 -3.55 -6.55 -3.55 -6.5 -3.55 -6.45 -3.55 -6.4 -3.55 -6.3 -3.55 -6.25 -3.55 -6.2 -3.5 -6.15 -3.5 -6.1 -3.5 -5.95 -3.45 -5.45 -3.3 -5.0 -3.15 -4.8 -3.1 -4.5 -3.0 -4.25 -2.9 -3.95 -2.85 -3.65 -2.75 -3.4 -2.7 -3.1 -2.65 -2.85 -2.6 -2.55 -2.55 -2.25 -2.5 -1.95 -2.45 -1.7 -2.4 -1.4 -2.4 -1.1 -2.35 -0.8 -2.3 -0.5 -2.3 -0.2 -2.3 0.1 -2.3 0.45 -2.3 0.75 -2.3 1.05 -2.35 1.35 -2.35 1.7 -2.4 2.0 -2.45 2.3 -2.5 2.6 -2.55 2.9 -2.65 3.2 -2.7 3.5 -2.8 3.8 -2.85 4.1 -2.95 4.4 -3.05 4.7 -3.2 5.6 -3.45 5.7 -3.5 5.85 -3.55 6.0 -3.55 6.15 -3.55 6.25 -3.55 6.4 -3.55 6.5 -3.55 6.65 -3.5 6.75 -3.5 6.9 -3.45 7.0 -3.4 7.1 -3.35 7.2 -3.25 7.3 -3.2 7.4 -3.1 7.5 -3.0 7.6 -2.9 7.75 -2.75 7.85 -2.6 7.9 -2.4 8.0 -2.25 8.05 -2.05 8.05 -1.9 8.05 -1.7 8.05 -1.55 8.05 -1.35 8.0 -1.2 7.9 -1.05 7.85 -0.85 7.75 -0.7 7.6 -0.55 7.45 -0.4 7.3 -0.3 7.2 -0.2 7.05 -0.1 6.95 -0.05 6.85 0.05 6.7 0.15 6.6 0.2 6.45 0.25 6.35 0.3 6.2 0.4 6.05 0.45 5.9 0.5 5.8 0.5 5.65 0.55 5.5 0.6 5.35 0.6 5.2 0.65 5.3 0.65 5.2 0.65 L5.2 0.65" fill="#ffffff" fill-rule="evenodd" stroke="none"/>
      <path d="M-6.6 4.55 Q-6.3 4.55 -5.6 4.55 -5.1 4.55 -4.2 4.55 -4.1 4.55 -4.1 4.65 -4.0 4.85 -3.9 5.1 -3.75 5.3 -3.65 5.45 -3.5 5.65 -3.35 5.8 -3.2 6.0 -3.0 6.15 -2.85 6.3 -2.65 6.4 -2.45 6.55 -2.25 6.65 -2.05 6.8 -1.85 6.85 -1.65 6.95 -1.4 7.05 -1.1 7.15 -0.8 7.2 -0.5 7.25 -0.2 7.25 0.05 7.3 0.35 7.25 0.65 7.25 0.9 7.2 1.2 7.15 1.45 7.05 1.75 6.95 2.0 6.8 2.25 6.7 2.5 6.5 2.75 6.35 3.0 6.15 3.1 6.05 3.2 6.0 3.25 5.9 3.35 5.85 3.4 5.75 3.5 5.65 3.55 5.55 3.65 5.45 3.7 5.35 3.75 5.25 3.8 5.2 3.85 5.05 3.95 4.95 4.0 4.85 4.05 4.75 4.1 4.65 4.1 4.55 4.2 4.55 5.0 4.55 6.6 4.55 6.55 4.75 6.45 5.0 6.4 5.2 6.3 5.4 6.25 5.6 6.15 5.8 6.05 6.0 5.95 6.2 5.85 6.4 5.7 6.55 5.6 6.75 5.45 6.9 5.35 7.05 5.2 7.25 5.05 7.4 4.9 7.55 4.65 7.8 4.4 8.0 4.15 8.2 3.9 8.4 3.6 8.6 3.35 8.75 3.05 8.9 2.8 9.0 2.5 9.1 2.2 9.2 1.9 9.3 1.6 9.4 1.3 9.45 0.95 9.5 0.65 9.55 0.3 9.55 -0.35 9.6 -1.0 9.5 -1.6 9.4 -2.15 9.25 -2.75 9.05 -3.25 8.75 -3.8 8.5 -4.25 8.15 -4.7 7.8 -5.1 7.35 -5.45 6.95 -5.75 6.5 -6.05 6.05 -6.25 5.55 -6.5 5.05 -6.6 4.55 L-6.6 4.55" fill="#ffffff" fill-rule="evenodd" stroke="none"/>
    </g>
  
</svg>
