<?xml version="1.0" encoding="UTF-8" standalone="no"?>
<svg xmlns:xlink="http://www.w3.org/1999/xlink" height="22.2px" width="22.25px" xmlns="http://www.w3.org/2000/svg">
  <g transform="matrix(1.0, 0.0, 0.0, 1.0, 11.1, 11.05)">
    <use data-characterId="203" height="22.2" transform="matrix(1.0, 0.0, 0.0, 1.0, -11.1, -11.05)" width="22.25" xlink:href="#shape0"/>
  </g>
  
    <g id="shape0" transform="matrix(1.0, 0.0, 0.0, 1.0, 11.1, 11.05)">
      <path d="M-5.0 8.45 Q-4.7 8.45 -4.4 8.45 -4.4 8.4 -4.4 8.35 -4.4 8.3 -4.4 8.25 -4.4 3.95 -4.4 -4.55 -4.4 -4.6 -4.4 -4.65 -4.4 -4.7 -4.35 -4.75 -4.35 -4.85 -4.35 -4.9 -4.35 -4.95 -4.3 -5.0 -4.3 -5.05 -4.25 -5.1 -4.25 -5.15 -4.2 -5.2 -4.2 -5.3 -4.15 -5.35 -4.1 -5.4 -4.1 -5.45 -4.05 -5.5 -3.95 -5.6 -3.9 -5.65 -3.85 -5.7 -3.75 -5.75 -3.7 -5.8 -3.6 -5.85 -3.5 -5.9 -3.45 -5.95 -3.35 -5.95 -3.25 -6.0 -3.15 -6.0 -3.05 -6.05 -2.95 -6.05 -2.9 -6.05 -2.8 -6.05 -2.2 -6.05 -1.6 -6.05 -1.6 -6.25 -1.6 -6.65 -1.55 -6.65 -1.6 -6.7 -1.6 -6.75 -1.7 -6.75 -1.8 -6.8 -1.85 -6.85 -1.95 -6.9 -2.05 -6.95 -2.1 -7.0 -2.15 -7.1 -2.25 -7.15 -2.3 -7.25 -2.35 -7.35 -2.4 -7.45 -2.45 -7.55 -2.5 -7.65 -2.55 -7.75 -2.6 -7.9 -2.65 -8.0 -2.7 -8.15 -2.7 -8.3 -2.7 -8.4 -2.75 -8.55 -2.7 -8.65 -2.7 -8.8 -2.7 -8.9 -2.7 -9.0 -2.65 -9.1 -2.65 -9.25 -2.6 -9.35 -2.55 -9.45 -2.5 -9.55 -2.4 -9.65 -2.35 -9.75 -2.25 -9.85 -2.2 -9.95 -2.15 -10.0 -2.1 -10.05 -2.0 -10.1 -1.95 -10.15 -1.9 -10.2 -1.8 -10.25 -1.75 -10.3 -1.65 -10.3 -1.6 -10.35 -1.5 -10.4 -1.45 -10.45 -1.4 -10.45 -1.3 -10.5 -1.25 -10.5 -1.15 -10.55 -1.1 -10.55 -1.0 -10.55 -0.9 -10.6 -0.8 -10.6 -0.75 -10.6 -0.65 -10.6 -0.55 -10.6 -0.45 -10.6 -0.4 -10.6 -0.3 -10.6 -0.2 -10.6 -0.1 -10.6 -0.05 -10.55 0.05 -10.55 0.15 -10.5 0.25 -10.5 0.35 -10.45 0.45 -10.4 0.5 -10.35 0.6 -10.35 0.7 -10.3 0.75 -10.25 0.8 -10.2 0.9 -10.1 0.95 -10.05 1.0 -10.0 1.05 -9.95 1.1 -9.85 1.15 -9.8 1.2 -9.7 1.25 -9.65 1.3 -9.55 1.35 -9.45 1.4 -9.35 1.4 -9.3 1.45 -9.2 1.45 -9.15 1.5 -9.05 1.5 -9.0 1.55 -8.9 1.55 -8.85 1.55 -8.75 1.55 -8.7 1.55 -8.6 1.55 -8.5 1.55 -8.4 1.55 -8.35 1.55 -8.25 1.55 -8.15 1.55 -8.2 1.5 -8.0 1.5 -7.9 1.45 -7.85 1.45 -7.75 1.4 -7.7 1.4 -7.65 1.35 -7.55 1.35 -7.5 1.3 -7.45 1.25 -7.4 1.2 -7.35 1.2 -7.3 1.15 -7.25 1.1 -7.2 1.05 -7.15 1.05 -7.1 1.0 -7.1 0.95 -7.05 0.95 -7.0 0.9 -7.0 0.9 -6.95 0.85 -6.95 0.8 -6.9 0.8 -6.9 0.75 -6.85 0.7 -6.85 0.7 -6.85 0.65 -6.8 0.6 -6.8 0.6 -6.8 0.55 -6.75 0.2 -6.45 0.4 -6.65 0.35 -6.6 0.45 -6.55 0.45 -6.35 0.45 -6.05 1.05 -6.05 1.65 -6.05 1.7 -6.05 1.8 -6.05 1.85 -6.05 1.9 -6.05 2.0 -6.0 2.05 -6.0 2.1 -6.0 2.15 -5.95 2.25 -5.95 2.3 -5.95 2.35 -5.9 2.4 -5.9 2.45 -5.85 2.5 -5.8 2.55 -5.8 2.65 -5.75 2.7 -5.7 2.8 -5.65 2.85 -5.55 2.9 -5.5 2.95 -5.45 3.0 -5.35 3.05 -5.3 3.1 -5.2 3.1 -5.15 3.15 -5.05 3.2 -5.0 3.2 -4.9 3.2 -4.8 3.2 -4.75 3.25 -4.65 3.25 -4.55 3.25 -3.95 3.25 -2.65 3.25 -2.6 3.25 -2.55 3.25 -2.5 3.25 -2.45 3.4 -2.45 3.55 -2.45 3.55 -2.5 3.5 -2.55 3.45 -2.65 3.45 -2.7 3.45 -2.75 3.45 -2.85 3.45 -2.9 3.4 -2.95 3.4 -2.95 3.4 -3.0 3.35 -3.05 3.35 -3.1 3.35 -3.15 3.35 -3.2 3.35 -3.25 3.35 -3.3 3.35 -3.35 3.35 -3.4 3.35 -3.4 3.35 -3.45 3.35 -3.5 3.35 -3.55 3.35 -3.6 3.35 -3.7 3.35 -3.75 3.4 -3.8 3.4 -3.85 3.4 -3.95 3.45 -4.0 3.45 -4.05 3.5 -4.05 3.55 -4.1 3.6 -4.15 3.65 -4.2 3.65 -4.25 3.75 -4.25 3.75 -4.3 3.85 -4.35 3.9 -4.35 3.9 -4.4 3.95 -4.4 4.0 -4.4 4.0 -4.45 4.05 -4.45 4.05 -4.45 4.1 -4.5 4.1 -4.5 4.15 -4.5 4.15 -4.5 4.2 -4.55 4.25 -4.55 4.25 -4.55 4.3 -4.55 4.35 -4.55 4.35 -4.6 4.3 -4.75 4.25 -4.9 4.25 -4.95 4.25 -5.0 4.2 -5.05 4.2 -5.1 4.15 -5.15 4.1 -5.25 4.1 -5.3 4.05 -5.35 4.0 -5.4 4.0 -5.45 3.95 -5.5 3.9 -5.55 3.9 -5.6 3.85 -5.65 3.8 -5.65 3.75 -5.7 3.75 -5.75 3.7 -5.8 3.65 -5.8 3.6 -5.85 3.55 -5.9 3.5 -5.95 3.45 -5.95 3.4 -6.0 3.35 -6.05 3.3 -6.05 3.25 -6.1 3.2 -6.15 3.15 -6.15 3.1 -6.2 3.05 -6.2 3.0 -6.25 2.95 -6.25 2.95 -6.15 2.95 -6.25 3.15 -6.7 3.15 -6.75 3.15 -6.8 3.2 -6.85 3.25 -6.85 3.35 -6.85 3.45 -6.8 3.45 -6.8 3.5 -6.8 3.55 -6.75 3.6 -6.75 3.65 -6.75 3.7 -6.7 3.75 -6.7 3.85 -6.65 3.85 -6.65 3.9 -6.6 3.95 -6.6 4.0 -6.55 4.05 -6.5 4.1 -6.5 4.15 -6.45 4.25 -6.4 4.3 -6.3 4.4 -6.2 4.5 -6.15 4.55 -6.05 4.6 -5.95 4.7 -5.85 4.75 -5.75 4.8 -5.7 4.85 -5.6 4.9 -5.5 4.95 -5.4 5.0 -5.3 5.05 -5.15 5.1 -5.05 5.15 -4.95 5.15 -4.9 5.15 -4.85 5.15 -4.8 5.2 -4.75 5.2 -4.65 5.2 -4.65 5.25 -4.6 5.25 -4.55 5.25 -4.55 5.45 -4.15 5.55 -3.95 5.75 -3.55 5.75 -3.55 5.75 -3.5 5.75 -3.45 5.85 -3.45 5.95 -3.4 6.05 -3.35 6.05 -3.25 6.05 -2.95 6.05 -2.9 6.05 -2.9 6.0 -2.85 6.0 -2.8 5.95 -2.8 5.9 -2.75 5.85 -2.75 5.85 -2.75 5.8 -2.75 5.8 -2.75 5.75 -2.7 5.75 -2.65 5.75 -2.65 5.7 -2.6 5.7 -2.55 5.7 -2.5 5.65 -2.5 5.65 -2.45 5.6 -2.3 5.45 -1.95 5.3 -1.6 5.25 -1.45 5.2 -1.4 5.15 -1.35 5.1 -1.35 5.05 -1.35 5.0 -1.35 5.0 -1.3 4.95 -1.3 4.95 -1.25 4.95 -1.2 4.95 -1.15 4.95 -1.15 4.95 -1.05 4.95 -0.85 4.95 -0.35 4.95 -0.3 4.95 -0.25 4.95 -0.15 4.95 -0.1 4.95 -0.05 5.0 0.0 5.0 0.1 5.0 0.15 5.0 0.2 5.05 0.3 5.05 0.35 5.05 0.4 5.1 0.45 5.1 0.55 5.1 0.6 5.15 0.65 5.15 0.75 5.2 0.8 5.2 0.9 5.2 0.95 5.25 1.05 5.25 1.1 5.3 1.15 5.3 1.25 5.3 1.3 5.35 1.4 5.4 1.45 5.4 1.5 5.45 1.55 5.45 1.65 5.5 1.7 5.55 1.75 5.55 1.8 5.6 1.9 5.6 1.95 5.65 2.0 5.7 2.05 5.7 2.15 5.75 2.2 5.8 2.25 5.85 2.3 5.9 2.35 6.0 2.45 5.95 2.45 6.0 2.5 6.05 2.55 6.1 2.6 6.15 2.65 6.75 3.3 6.95 3.55 7.4 4.3 7.45 4.35 7.5 4.4 7.5 4.5 7.55 4.55 7.55 4.65 7.55 4.7 7.55 4.8 7.55 4.85 7.55 4.95 7.55 5.0 7.55 5.1 7.55 5.15 7.5 5.25 7.5 5.3 7.5 5.4 7.45 5.45 7.45 5.55 7.45 5.65 7.4 5.75 7.4 5.85 7.35 5.9 7.3 6.0 7.3 6.1 7.25 6.2 7.2 6.3 7.15 6.35 7.1 6.45 7.05 6.5 7.0 6.6 6.95 6.65 6.9 6.75 6.8 6.8 6.75 6.85 6.7 6.9 6.65 6.95 6.55 7.0 6.5 7.05 6.45 7.1 6.35 7.1 6.3 7.15 6.2 7.2 6.15 7.2 6.05 7.25 6.0 7.25 5.9 7.25 5.8 7.3 5.7 7.3 5.65 7.35 5.55 7.35 4.8 7.35 4.05 7.35 4.05 7.35 4.05 7.55 4.05 7.6 4.0 7.7 4.0 7.75 3.95 7.8 3.9 7.85 3.9 7.9 3.85 7.9 3.8 7.95 3.75 8.0 3.75 8.0 3.7 8.0 3.65 8.05 3.6 8.05 3.55 8.05 3.5 8.05 3.45 8.05 3.4 8.05 3.35 8.05 3.35 8.15 3.35 8.25 3.65 8.25 3.95 8.25 L3.95 9.05 Q4.2 9.05 4.45 9.05 4.85 9.05 5.25 9.05 5.25 9.55 5.25 10.45 5.15 10.45 5.05 10.45 -0.55 10.45 -6.2 10.45 -6.3 10.45 -6.35 10.45 -6.35 10.45 -6.4 10.4 -6.4 10.35 -6.4 10.25 -6.4 9.85 -6.4 9.15 -6.4 9.1 -6.4 9.1 -6.4 9.05 -6.4 9.05 -6.35 9.0 -6.35 9.0 -6.3 8.95 -6.3 8.95 -6.25 8.95 -6.2 8.95 -5.6 8.95 -5.0 8.95 L-5.0 8.45 -5.0 8.45 Z" fill="none" stroke="#ffffff" stroke-linecap="round" stroke-linejoin="round" stroke-width="0.9"/>
    </g>
  
</svg>
