<?xml version="1.0" encoding="UTF-8" standalone="no"?>
<svg xmlns:xlink="http://www.w3.org/1999/xlink" height="20.5px" width="20.5px" xmlns="http://www.w3.org/2000/svg">
  <g transform="matrix(1.0, 0.0, 0.0, 1.0, 10.25, 10.25)">
    <use data-characterId="187" height="20.0" transform="matrix(1.0, 0.0, 0.0, 1.0, -10.0, -10.0)" width="20.0" xlink:href="#shape0"/>
  </g>
  
    <g id="shape0" transform="matrix(1.0, 0.0, 0.0, 1.0, 10.0, 10.0)">
      <path d="M4.8 -9.9 Q4.85 -9.85 4.95 -9.8 5.0 -9.75 5.05 -9.65 5.1 -9.6 5.15 -9.55 5.15 -9.5 5.2 -9.4 5.25 -9.35 5.25 -9.3 5.3 -9.2 5.3 -9.15 5.3 -9.1 5.35 -9.0 5.35 -8.95 5.4 -8.85 5.5 -8.25 5.55 -7.6 5.65 -7.0 5.65 -6.35 5.7 -5.75 5.7 -5.1 5.7 -4.5 5.7 -3.9 5.65 -3.25 5.6 -2.65 5.5 -2.0 5.4 -1.4 5.3 -0.8 5.2 -0.15 5.05 0.45 4.9 1.05 4.8 1.5 4.7 1.95 4.6 2.4 4.55 2.8 4.5 3.25 4.45 3.7 4.4 4.15 4.35 4.6 4.35 5.05 4.35 5.5 4.35 5.95 4.35 6.4 4.35 6.85 4.4 7.3 4.45 7.75 4.55 8.2 4.55 8.3 4.55 8.35 4.55 8.45 4.55 8.55 4.5 8.6 4.5 8.7 4.45 8.75 4.4 8.85 4.35 8.9 4.3 8.95 4.25 9.0 4.2 9.05 4.1 9.1 4.05 9.15 3.95 9.2 3.85 9.25 3.65 9.35 3.45 9.4 3.3 9.5 3.1 9.55 2.9 9.6 2.7 9.65 2.5 9.7 2.3 9.75 2.1 9.8 1.9 9.8 1.75 9.85 1.55 9.85 1.35 9.9 1.15 9.9 0.95 9.9 0.75 9.9 0.45 9.9 0.2 9.9 -0.1 9.95 -0.35 9.9 -0.65 9.9 -0.9 9.9 -1.15 9.85 -1.45 9.85 -1.7 9.8 -1.95 9.75 -2.25 9.7 -2.5 9.65 -2.75 9.6 -3.0 9.5 -3.25 9.45 -3.5 9.35 -3.65 9.3 -3.75 9.25 -3.85 9.2 -3.95 9.1 -4.05 9.05 -4.1 9.0 -4.2 8.9 -4.25 8.85 -4.3 8.75 -4.3 8.65 -4.35 8.6 -4.35 8.45 -4.35 8.35 -4.35 8.2 -4.35 8.1 -4.35 7.9 -4.3 7.45 -4.25 7.0 -4.2 6.55 -4.2 6.1 -4.15 5.65 -4.2 5.15 -4.2 4.7 -4.2 4.25 -4.25 3.8 -4.3 3.35 -4.35 2.9 -4.45 2.45 -4.5 2.0 -4.6 1.55 -4.7 1.1 -4.8 0.65 -4.95 0.05 -5.05 -0.5 -5.15 -1.1 -5.25 -1.7 -5.35 -2.3 -5.4 -2.9 -5.45 -3.45 -5.45 -4.05 -5.5 -4.65 -5.45 -5.25 -5.45 -5.85 -5.45 -6.45 -5.4 -7.05 -5.35 -7.65 -5.3 -8.25 -5.2 -8.85 -5.2 -8.95 -5.15 -9.05 -5.15 -9.1 -5.1 -9.2 -5.1 -9.3 -5.05 -9.35 -5.05 -9.45 -5.0 -9.5 -5.0 -9.55 -4.95 -9.6 -4.9 -9.7 -4.85 -9.75 -4.8 -9.8 -4.75 -9.85 -4.7 -9.85 -4.6 -9.9 -1.4 -9.9 4.8 -9.9 L4.8 -9.9 M0.1 -9.05 Q-1.15 -9.05 -3.6 -9.05 -3.75 -9.05 -3.8 -9.05 -3.85 -9.05 -3.9 -9.05 -4.0 -9.05 -4.0 -9.0 -4.05 -9.0 -4.1 -8.95 -4.1 -8.95 -4.15 -8.9 -4.15 -8.85 -4.2 -8.8 -4.2 -8.7 -4.2 -8.6 -4.2 -8.55 -4.25 -8.4 -4.35 -7.85 -4.4 -7.3 -4.45 -6.75 -4.5 -6.2 -4.55 -5.65 -4.55 -5.1 -4.55 -4.55 -4.5 -4.0 -4.5 -3.5 -4.45 -2.95 -4.4 -2.4 -4.3 -1.85 -4.25 -1.3 -4.1 -0.8 -4.0 -0.25 -3.85 0.3 -3.7 0.8 -3.6 1.3 -3.5 1.8 -3.45 2.25 -3.35 2.75 -3.25 3.25 -3.2 3.75 -3.15 4.2 -3.1 4.7 -3.1 5.2 -3.1 5.7 -3.1 6.2 -3.1 6.7 -3.15 7.2 -3.2 7.7 -3.3 8.2 -3.3 8.25 -3.3 8.25 -3.3 8.3 -3.25 8.35 -3.25 8.4 -3.2 8.4 -3.15 8.45 -3.1 8.45 -3.05 8.5 -3.0 8.5 -2.6 8.65 -2.2 8.75 -1.8 8.85 -1.4 8.9 -1.0 9.0 -0.6 9.0 -0.2 9.05 0.25 9.05 0.65 9.05 1.05 9.0 1.45 9.0 1.8 8.9 2.2 8.85 2.6 8.75 3.0 8.65 3.4 8.5 3.45 8.5 3.45 8.45 3.5 8.45 3.5 8.4 3.55 8.4 3.55 8.4 3.6 8.35 3.6 8.35 3.65 8.3 3.65 8.25 3.65 8.25 3.65 8.2 3.65 8.15 3.65 8.1 3.7 8.05 3.7 8.0 3.5 5.5 3.6 4.15 3.7 2.85 4.25 0.4 4.35 -0.15 4.45 -0.75 4.55 -1.3 4.65 -1.9 4.7 -2.45 4.75 -3.0 4.8 -3.6 4.8 -4.15 4.85 -4.7 4.8 -5.3 4.8 -5.85 4.8 -6.4 4.75 -7.0 4.7 -7.55 4.6 -8.1 4.55 -8.7 4.55 -8.75 4.5 -8.8 4.5 -8.85 4.45 -8.85 4.45 -8.9 4.4 -8.95 4.4 -8.95 4.35 -9.0 4.35 -9.0 4.3 -9.0 4.25 -9.05 4.25 -9.05 4.2 -9.05 4.15 -9.05 4.1 -9.05 4.05 -9.05 2.75 -9.05 0.1 -9.05 L0.1 -9.05" fill="#ffffff" fill-rule="evenodd" stroke="none"/>
      <path d="M-3.3 -5.65 Q-2.35 -5.65 0.85 -5.65 1.7 -5.65 3.5 -5.65 3.55 -5.65 3.65 -5.65 3.7 -5.65 3.75 -5.65 3.8 -5.65 3.8 -5.6 3.85 -5.6 3.9 -5.55 3.9 -5.55 3.95 -5.5 3.95 -5.45 4.0 -5.4 4.0 -5.4 4.0 -5.3 4.05 -5.25 4.05 -5.2 4.05 -4.8 4.05 -4.4 4.05 -4.05 4.05 -3.65 4.0 -3.25 4.0 -2.85 3.95 -2.5 3.9 -2.1 3.85 -1.7 3.75 -1.3 3.7 -0.95 3.65 -0.55 3.55 -0.2 3.45 0.2 3.4 0.55 3.3 0.95 3.25 1.25 3.15 1.5 3.1 1.8 3.05 2.1 3.0 2.4 2.95 2.7 2.9 2.95 2.9 3.25 2.85 3.55 2.8 3.85 2.8 4.15 2.75 4.45 2.75 4.75 2.75 5.05 2.75 5.35 2.75 5.65 2.75 5.95 2.8 6.55 2.85 7.2 2.85 7.45 2.85 7.55 2.85 7.6 2.85 7.65 2.85 7.7 2.85 7.75 2.8 7.8 2.8 7.85 2.8 7.9 2.75 7.9 2.75 7.95 2.7 7.95 2.65 8.0 2.65 8.0 2.6 8.0 2.5 8.0 2.45 8.0 2.15 8.05 1.9 8.15 1.6 8.2 1.3 8.2 1.05 8.25 0.75 8.3 0.45 8.3 0.2 8.3 -0.1 8.3 -0.4 8.3 -0.7 8.25 -1.0 8.25 -1.3 8.2 -1.55 8.15 -1.85 8.1 -2.15 8.0 -2.2 8.0 -2.25 8.0 -2.3 8.0 -2.35 8.0 -2.4 8.0 -2.4 7.95 -2.45 7.95 -2.45 7.9 -2.5 7.9 -2.5 7.85 -2.5 7.85 -2.55 7.8 -2.55 7.75 -2.55 7.7 -2.55 7.6 -2.55 7.55 -2.5 7.15 -2.45 6.75 -2.45 6.35 -2.4 5.9 -2.4 5.5 -2.4 5.1 -2.45 4.7 -2.45 4.3 -2.5 3.9 -2.55 3.5 -2.6 3.1 -2.65 2.7 -2.75 2.3 -2.8 1.9 -2.9 1.5 -3.0 1.15 -3.1 0.75 -3.2 0.35 -3.25 -0.05 -3.35 -0.4 -3.4 -0.8 -3.5 -1.2 -3.55 -1.6 -3.6 -2.0 -3.65 -2.4 -3.7 -2.75 -3.75 -3.15 -3.75 -3.55 -3.8 -3.95 -3.8 -4.3 -3.8 -4.7 -3.75 -5.1 -3.75 -5.15 -3.75 -5.25 -3.75 -5.3 -3.75 -5.35 -3.75 -5.4 -3.7 -5.45 -3.7 -5.5 -3.7 -5.5 -3.65 -5.55 -3.6 -5.6 -3.6 -5.6 -3.55 -5.65 -3.5 -5.65 -3.45 -5.65 -3.35 -5.65 -3.3 -5.65" fill="#ffffff" fill-rule="evenodd" stroke="none"/>
    </g>
  
</svg>
