<?xml version="1.0" encoding="UTF-8" standalone="no"?>
<svg xmlns:xlink="http://www.w3.org/1999/xlink" height="20.0px" width="20.0px" xmlns="http://www.w3.org/2000/svg">
  <g transform="matrix(1.0, 0.0, 0.0, 1.0, 10.0, 10.0)">
    <use data-characterId="160" height="20.0" transform="matrix(1.0, 0.0, 0.0, 1.0, -10.0, -10.0)" width="20.0" xlink:href="#shape0"/>
  </g>
  
    <g id="shape0" transform="matrix(1.0, 0.0, 0.0, 1.0, 10.0, 10.0)">
      <path d="M-0.05 -1.45 Q-0.7 -1.45 -1.1 -1.05 -1.55 -0.6 -1.55 0.0 L-1.1 1.0 Q-0.7 1.45 -0.05 1.45 0.6 1.45 1.0 1.0 1.45 0.6 1.45 0.0 L1.0 -1.05 Q0.6 -1.45 -0.05 -1.45 M-0.05 -2.1 Q0.85 -2.1 1.5 -1.45 2.15 -0.85 2.15 0.0 2.15 0.85 1.5 1.45 0.85 2.1 -0.05 2.1 -1.0 2.1 -1.6 1.45 -2.25 0.85 -2.25 0.0 -2.25 -0.85 -1.6 -1.45 -1.0 -2.1 -0.05 -2.1" fill="#ffffff" fill-rule="evenodd" stroke="none"/>
      <path d="M-1.8 6.15 L-1.95 6.75 Q-5.15 6.0 -6.8 3.3 -8.5 0.5 -7.6 -2.6 -7.0 -4.55 -5.45 -5.95 -3.9 -7.4 -1.85 -7.85 L-0.05 -8.05 Q3.2 -8.05 5.45 -5.85 7.8 -3.65 7.8 -0.5 7.8 2.05 6.15 4.05 4.5 6.15 1.85 6.75 L1.5 5.35 1.75 6.15 Q4.1 5.6 5.65 3.7 7.15 1.8 7.15 -0.5 7.15 -3.4 5.05 -5.4 2.95 -7.45 -0.05 -7.45 L-0.2 -7.45 Q-2.85 -7.4 -4.85 -5.7 -6.85 -4.0 -7.2 -1.45 -7.55 1.2 -6.0 3.4 -4.45 5.55 -1.8 6.15" fill="#ffffff" fill-rule="evenodd" stroke="none"/>
      <path d="M-0.05 2.4 L-1.85 9.35 1.75 9.35 -0.05 2.4 M-0.05 -0.25 L2.55 10.0 -2.7 10.0 -0.05 -0.25" fill="#ffffff" fill-rule="evenodd" stroke="none"/>
      <path d="M-6.35 -7.0 Q-6.8 -7.0 -6.8 -6.6 L-6.8 -6.45 Q-6.65 -6.1 -6.35 -6.1 L-6.3 -6.1 Q-5.85 -6.15 -5.85 -6.6 -5.85 -7.0 -6.35 -7.0 M-6.35 -7.65 L-5.5 -7.35 Q-5.15 -7.0 -5.15 -6.6 -5.15 -6.15 -5.5 -5.8 -5.85 -5.45 -6.35 -5.45 -6.75 -5.5 -7.0 -5.7 L-7.4 -6.3 -7.45 -6.35 -7.45 -6.6 -7.1 -7.35 -6.35 -7.65" fill="#ffffff" fill-rule="evenodd" stroke="none"/>
      <path d="M6.2 -7.05 Q5.75 -7.05 5.75 -6.6 L5.75 -6.5 Q5.85 -6.15 6.2 -6.15 L6.25 -6.15 Q6.7 -6.15 6.7 -6.6 6.7 -7.05 6.2 -7.05 M6.2 -7.7 Q6.7 -7.7 7.0 -7.35 L7.35 -6.6 Q7.35 -6.15 7.0 -5.8 6.7 -5.5 6.2 -5.5 5.35 -5.55 5.1 -6.3 L5.1 -6.4 5.05 -6.5 5.05 -6.6 Q5.05 -7.05 5.4 -7.35 5.75 -7.7 6.2 -7.7" fill="#ffffff" fill-rule="evenodd" stroke="none"/>
      <path d="M-0.05 -9.35 Q-0.5 -9.35 -0.55 -8.9 L-0.5 -8.85 -0.5 -8.8 Q-0.45 -8.45 -0.1 -8.45 L0.0 -8.45 Q0.4 -8.45 0.4 -8.9 L-0.05 -9.35 M-0.05 -10.0 L0.75 -9.7 1.05 -8.9 0.75 -8.15 Q0.4 -7.8 -0.05 -7.8 L-0.1 -7.8 Q-0.95 -7.8 -1.15 -8.65 L-1.15 -8.75 -1.2 -8.9 -0.9 -9.7 Q-0.5 -10.0 -0.05 -10.0" fill="#ffffff" fill-rule="evenodd" stroke="none"/>
      <path d="M-6.35 5.05 Q-6.8 5.05 -6.8 5.5 L-6.8 5.65 -6.35 5.95 -6.3 5.95 Q-5.85 5.95 -5.85 5.55 L-5.95 5.2 Q-6.15 5.05 -6.35 5.05 M-6.35 4.4 Q-5.85 4.4 -5.5 4.75 -5.15 5.1 -5.15 5.55 -5.15 5.95 -5.5 6.3 L-6.35 6.6 -7.0 6.4 -7.4 5.8 -7.45 5.75 -7.45 5.55 Q-7.45 5.1 -7.1 4.75 -6.8 4.4 -6.35 4.4" fill="#ffffff" fill-rule="evenodd" stroke="none"/>
      <path d="M6.2 5.0 Q5.75 5.0 5.75 5.45 L5.75 5.6 6.2 5.95 6.25 5.95 6.7 5.5 Q6.7 5.0 6.2 5.0 M6.2 4.4 Q6.7 4.4 7.0 4.7 7.35 5.05 7.35 5.5 L7.0 6.25 Q6.7 6.6 6.2 6.6 5.35 6.6 5.1 5.75 L5.1 5.7 5.05 5.65 5.05 5.5 Q5.05 5.05 5.4 4.7 5.75 4.4 6.2 4.4" fill="#ffffff" fill-rule="evenodd" stroke="none"/>
      <path d="M8.85 -0.7 L8.5 -0.6 8.4 -0.25 8.4 -0.15 Q8.5 0.2 8.85 0.2 L8.9 0.2 9.35 -0.25 Q9.35 -0.7 8.85 -0.7 M8.85 -1.35 Q9.35 -1.35 9.65 -1.05 L10.0 -0.25 9.65 0.5 Q9.35 0.85 8.85 0.85 8.0 0.85 7.75 0.0 L7.7 -0.1 7.7 -0.25 Q7.7 -0.7 8.05 -1.05 L8.85 -1.35" fill="#ffffff" fill-rule="evenodd" stroke="none"/>
      <path d="M0.3 -7.8 L0.3 -0.35 -0.4 -0.35 -0.4 -7.8 0.3 -7.8" fill="#ffffff" fill-rule="evenodd" stroke="none"/>
      <path d="M7.9 -0.5 L7.9 0.15 -8.2 0.15 -8.2 -0.5 7.9 -0.5" fill="#ffffff" fill-rule="evenodd" stroke="none"/>
      <path d="M5.25 -6.05 L5.75 -5.6 -4.6 5.05 -5.1 4.6 5.25 -6.05" fill="#ffffff" fill-rule="evenodd" stroke="none"/>
      <path d="M-5.25 -5.9 L5.25 4.75 4.7 5.2 -5.75 -5.45 -5.25 -5.9" fill="#ffffff" fill-rule="evenodd" stroke="none"/>
      <path d="M-1.75 6.05 L-1.6 5.5 -1.9 6.6 Q-5.0 5.85 -6.65 3.2 -8.3 0.5 -7.4 -2.6 -6.85 -4.5 -5.35 -5.9 -3.85 -7.25 -1.85 -7.7 L-0.05 -7.9 Q3.1 -7.9 5.35 -5.75 7.6 -3.55 7.6 -0.55 7.6 2.0 6.0 4.0 4.4 5.95 1.85 6.6 L1.7 6.0 Q4.0 5.45 5.5 3.6 7.0 1.8 7.0 -0.55 7.0 -3.35 4.9 -5.3 2.85 -7.3 -0.05 -7.3 L-0.2 -7.3 Q-2.8 -7.25 -4.75 -5.55 -6.7 -3.9 -7.05 -1.45 -7.4 1.15 -5.85 3.3 -4.35 5.4 -1.75 6.05" fill="#ffffff" fill-rule="evenodd" stroke="none"/>
      <path d="M-8.9 -0.5 Q-9.35 -0.5 -9.35 0.0 L-9.35 0.1 -8.9 0.45 -8.85 0.45 Q-8.4 0.4 -8.4 0.0 L-8.5 -0.35 -8.9 -0.5 M-8.9 -1.15 Q-8.4 -1.15 -8.05 -0.8 -7.7 -0.45 -7.7 0.0 -7.7 0.45 -8.05 0.8 -8.4 1.1 -8.9 1.1 L-9.55 0.85 -9.95 0.25 -10.0 0.2 -10.0 0.0 -9.65 -0.8 Q-9.35 -1.15 -8.9 -1.15" fill="#ffffff" fill-rule="evenodd" stroke="none"/>
    </g>
  
</svg>
