<?xml version="1.0" encoding="UTF-8" standalone="no"?>
<svg xmlns:xlink="http://www.w3.org/1999/xlink" height="21.75px" width="22.0px" xmlns="http://www.w3.org/2000/svg">
  <g transform="matrix(1.0, 0.0, 0.0, 1.0, 11.0, 10.85)">
    <use data-characterId="123" height="21.75" transform="matrix(1.0, 0.0, 0.0, 1.0, -11.0, -10.85)" width="22.0" xlink:href="#shape0"/>
  </g>
  
    <g id="shape0" transform="matrix(1.0, 0.0, 0.0, 1.0, 11.0, 10.85)">
      <path d="M10.9 -1.75 L-11.0 -1.75 -11.0 1.6 11.0 1.6 11.0 -1.75 10.9 -1.75 10.9 -1.75" fill="#000000" fill-rule="evenodd" stroke="none"/>
      <path d="M-6.0 -1.25 Q-5.85 -1.8 -5.65 -2.25 -5.45 -2.75 -5.2 -3.2 -4.9 -3.65 -4.6 -4.05 -4.25 -4.45 -3.85 -4.75 -3.45 -5.1 -3.0 -5.35 -2.55 -5.6 -2.05 -5.8 -1.55 -5.95 -1.0 -6.05 -0.45 -6.15 0.1 -6.15 0.65 -6.15 1.2 -6.05 1.75 -5.95 2.25 -5.8 2.75 -5.6 3.2 -5.35 3.65 -5.1 4.05 -4.75 4.45 -4.45 4.8 -4.05 5.15 -3.65 5.45 -3.2 5.7 -2.75 5.95 -2.3 6.15 -1.8 6.3 -1.25" fill="none" stroke="#000000" stroke-linecap="round" stroke-linejoin="round" stroke-width="0.75"/>
      <path d="M6.2 1.3 Q6.05 1.85 5.85 2.35 5.65 2.85 5.35 3.3 5.1 3.75 4.75 4.15 4.4 4.55 4.0 4.9 3.6 5.25 3.15 5.5 2.7 5.75 2.2 5.95 1.65 6.1 1.15 6.2 0.6 6.3 0.0 6.3 -0.55 6.3 -1.1 6.2 -1.65 6.1 -2.15 5.95 -2.65 5.75 -3.1 5.5 -3.55 5.25 -3.95 4.9 -4.35 4.55 -4.7 4.15 -5.05 3.8 -5.35 3.3 -5.6 2.85 -5.85 2.35 -6.05 1.85 -6.2 1.3" fill="none" stroke="#000000" stroke-linecap="round" stroke-linejoin="round" stroke-width="0.75"/>
      <path d="M8.3 -1.25 L8.3 -1.15" fill="none" stroke="#000000" stroke-linecap="round" stroke-linejoin="round" stroke-width="0.75"/>
      <path d="M-8.6 -1.25 Q-8.4 -2.0 -8.1 -2.75 -7.85 -3.45 -7.45 -4.1 -7.05 -4.75 -6.55 -5.3 -6.1 -5.85 -5.55 -6.35 -5.0 -6.8 -4.35 -7.2 -3.7 -7.55 -3.0 -7.8 -2.3 -8.1 -1.55 -8.2 -0.8 -8.35 0.0 -8.35 0.8 -8.35 1.55 -8.2 2.35 -8.1 3.05 -7.8 3.75 -7.55 4.4 -7.2 5.05 -6.8 5.6 -6.35 6.2 -5.85 6.65 -5.3 7.15 -4.75 7.5 -4.1 7.9 -3.45 8.2 -2.75 8.45 -2.05 8.6 -1.25" fill="none" stroke="#000000" stroke-linecap="round" stroke-linejoin="round" stroke-width="0.75"/>
      <path d="M8.6 1.3 Q8.45 2.05 8.2 2.8 7.9 3.5 7.5 4.15 7.15 4.8 6.65 5.4 6.2 5.95 5.6 6.45 5.05 6.95 4.4 7.3 3.75 7.7 3.05 7.95 2.35 8.25 1.55 8.35 0.8 8.5 0.0 8.5 -0.8 8.5 -1.55 8.35 -2.3 8.2 -3.0 7.95 -3.7 7.7 -4.3 7.3 -4.95 6.95 -5.45 6.45 -6.0 5.95 -6.5 5.4 -6.95 4.8 -7.3 4.15 -7.7 3.5 -7.95 2.8 -8.25 2.1 -8.4 1.3" fill="none" stroke="#000000" stroke-linecap="round" stroke-linejoin="round" stroke-width="0.75"/>
      <path d="M7.6 0.1 Q7.6 -2.95 5.4 -5.1 3.2 -7.25 0.1 -7.25 -3.0 -7.25 -5.2 -5.1 -7.4 -2.95 -7.4 0.1 -7.4 3.2 -5.2 5.35 -3.0 7.5 0.1 7.5 3.2 7.5 5.4 5.35 7.6 3.2 7.6 0.1 L7.6 0.1 Z" fill="none" stroke="#000000" stroke-linecap="round" stroke-linejoin="round" stroke-width="2.0"/>
    </g>
  
</svg>
