<?xml version="1.0" encoding="UTF-8" standalone="no"?>
<svg xmlns:xlink="http://www.w3.org/1999/xlink" height="19.05px" width="14.6px" xmlns="http://www.w3.org/2000/svg">
  <g transform="matrix(1.0, 0.0, 0.0, 1.0, 7.3, 9.5)">
    <use data-characterId="53" height="19.05" transform="matrix(1.0, 0.0, 0.0, 1.0, -7.05, -9.5)" width="14.1" xlink:href="#shape0"/>
  </g>
  
    <g id="shape0" transform="matrix(1.0, 0.0, 0.0, 1.0, 7.05, 9.5)">
      <path d="M-6.45 8.65 Q-6.5 8.65 -6.55 8.6 -6.6 8.6 -6.65 8.55 -6.65 8.5 -6.7 8.45 -6.75 8.45 -6.75 8.4 -6.75 8.35 -6.8 8.3 -6.8 8.25 -6.8 8.2 -6.8 8.15 -6.8 8.15 -6.75 8.1 -6.75 8.05 -6.75 8.0 -6.7 8.0 -6.7 7.95 -6.65 7.9 -6.65 7.9 -6.65 7.85 -6.6 7.85 -6.6 7.8 -6.55 7.8 -6.55 7.8 -6.5 7.75 -6.5 7.75 -6.45 7.75 -6.4 7.75 -6.4 7.75 -6.35 7.75 -6.25 7.75 -6.15 7.75 -6.05 7.75 -6.05 7.75 -6.05 7.75 -5.95 7.75 -5.95 5.6 -5.95 3.45 -6.05 3.45 -6.35 3.45 -6.4 3.45 -6.45 3.45 -6.5 3.4 -6.55 3.4 -6.6 3.4 -6.6 3.35 -6.65 3.35 -6.65 3.3 -6.7 3.3 -6.75 3.25 -6.75 3.2 -6.75 3.2 -6.8 3.15 -6.8 3.1 -6.8 3.1 -6.85 3.05 -6.85 3.0 -6.85 2.95 -6.85 2.95 -6.85 2.9 -6.85 2.85 -6.85 2.8 -6.85 2.8 -6.8 2.75 -6.8 2.7 -6.8 2.7 -6.8 2.65 -6.75 2.6 -6.75 2.6 -6.7 2.55 -6.7 2.55 -6.65 2.55 -6.55 2.55 -6.45 2.55 -6.35 2.55 -6.35 2.55 -6.35 2.55 -6.25 2.55 -2.05 2.55 6.25 2.55 6.3 2.55 6.3 2.55 6.35 2.55 6.4 2.55 6.45 2.55 6.45 2.55 6.5 2.55 6.55 2.55 6.55 2.55 6.6 2.6 6.65 2.6 6.65 2.6 6.7 2.65 6.7 2.65 6.75 2.7 6.75 2.75 6.8 2.8 6.8 2.85 6.85 2.9 6.85 3.0 6.85 3.05 6.85 3.1 6.85 3.15 6.85 3.2 6.8 3.25 6.8 3.3 6.75 3.35 6.75 3.35 6.7 3.4 6.65 3.4 6.6 3.45 6.55 3.45 6.5 3.45 6.5 3.45 6.45 3.45 6.4 3.45 6.35 3.45 6.35 3.45 6.3 3.45 6.25 3.45 6.2 3.45 6.2 3.45 6.15 3.45 6.1 3.5 6.05 3.5 6.05 3.5 6.0 3.5 5.95 3.55 5.95 5.7 5.95 7.85 6.05 7.85 6.35 7.85 6.4 7.85 6.45 7.85 6.5 7.85 6.55 7.85 6.6 7.9 6.6 7.9 6.65 7.9 6.7 7.95 6.7 7.95 6.75 8.0 6.75 8.0 6.75 8.05 6.8 8.1 6.8 8.15 6.85 8.2 6.85 8.25 6.85 8.3 6.85 8.3 6.85 8.35 6.85 8.4 6.8 8.45 6.8 8.45 6.8 8.5 6.8 8.55 6.75 8.55 6.75 8.6 6.7 8.65 6.7 8.65 6.65 8.7 6.6 8.7 6.6 8.75 6.55 8.75 6.55 8.75 6.45 8.75 2.15 8.65 -6.45 8.65 L-6.45 8.65 M-3.85 7.75 Q-3.85 5.6 -3.85 3.45 -4.15 3.45 -4.65 3.45 -4.65 5.6 -4.65 7.75 -4.35 7.75 -3.85 7.75 L-3.85 7.75 M-1.75 7.75 Q-1.75 5.6 -1.75 3.45 -2.05 3.45 -2.55 3.45 -2.55 5.6 -2.55 7.75 -2.25 7.75 -1.75 7.75 L-1.75 7.75 M0.45 7.75 Q0.45 5.6 0.45 3.45 0.15 3.45 -0.35 3.45 -0.35 5.6 -0.35 7.75 -0.15 7.75 0.45 7.75 L0.45 7.75 M1.75 3.45 Q1.75 5.6 1.75 7.75 2.05 7.75 2.55 7.75 2.55 5.6 2.55 3.45 2.25 3.45 1.75 3.45 L1.75 3.45 M3.85 3.45 Q3.85 5.6 3.85 7.75 4.15 7.75 4.65 7.75 4.65 5.6 4.65 3.45 4.35 3.45 3.85 3.45 L3.85 3.45" fill="#ffffff" fill-rule="evenodd" stroke="none"/>
      <path d="M-0.75 -7.1 Q-0.55 -7.1 -0.15 -7.1 -0.15 -7.55 -0.15 -8.0 -0.15 -8.15 -0.15 -8.3 -0.1 -8.3 -0.1 -8.3 -0.1 -8.35 -0.1 -8.35 -0.1 -8.4 -0.1 -8.45 -0.05 -8.45 -0.05 -8.5 0.0 -8.5 0.05 -8.5 0.1 -8.4 0.15 -8.3 0.15 -7.7 0.15 -7.1 0.35 -7.1 0.75 -7.1 0.75 -6.9 0.75 -6.7 0.75 -6.6 0.75 -6.6 0.75 -6.55 0.85 -6.5 1.2 -6.4 1.55 -6.3 1.85 -6.2 2.15 -6.05 2.45 -5.9 2.7 -5.7 2.95 -5.5 3.15 -5.3 3.4 -5.1 3.55 -4.85 3.75 -4.55 3.9 -4.3 4.05 -4.0 4.15 -3.65 4.3 -3.35 4.35 -3.0 4.4 -2.7 4.45 -2.4 4.5 -2.4 4.55 -2.35 4.6 -2.35 4.65 -2.3 4.7 -2.25 4.75 -2.25 4.75 -2.2 4.8 -2.15 4.85 -2.15 4.85 -2.1 4.85 -2.05 4.85 -2.05 4.9 -2.0 4.85 -1.95 4.85 -1.9 4.85 -1.9 4.8 -1.85 4.8 -1.8 4.75 -1.75 4.7 -1.75 4.7 -1.7 4.65 -1.7 4.6 -1.7 4.55 -1.7 4.55 -1.7 4.45 -1.7 3.25 -1.7 0.75 -1.7 -0.95 -1.7 -4.45 -1.7 -4.5 -1.7 -4.5 -1.7 -4.55 -1.7 -4.6 -1.7 -4.65 -1.7 -4.65 -1.75 -4.7 -1.75 -4.75 -1.75 -4.75 -1.8 -4.8 -1.8 -4.8 -1.8 -4.8 -1.85 -4.85 -1.9 -4.85 -1.9 -4.85 -1.95 -4.85 -2.0 -4.85 -2.05 -4.85 -2.05 -4.85 -2.1 -4.85 -2.1 -4.85 -2.15 -4.85 -2.15 -4.85 -2.2 -4.85 -2.2 -4.8 -2.25 -4.8 -2.25 -4.8 -2.3 -4.75 -2.3 -4.75 -2.3 -4.7 -2.35 -4.7 -2.35 -4.65 -2.4 -4.65 -2.45 -4.6 -2.45 -4.55 -2.5 -4.45 -2.5 -4.45 -2.6 -4.4 -2.7 -4.4 -2.85 -4.35 -2.9 -4.35 -3.05 -4.35 -3.15 -4.3 -3.25 -4.25 -3.35 -4.25 -3.45 -4.2 -3.55 -4.2 -3.65 -4.15 -3.75 -4.1 -3.85 -4.05 -3.95 -4.0 -4.1 -3.95 -4.2 -3.85 -4.4 -3.7 -4.65 -3.55 -4.85 -3.4 -5.0 -3.25 -5.2 -3.05 -5.35 -2.9 -5.55 -2.7 -5.7 -2.5 -5.8 -2.3 -5.95 -2.05 -6.05 -1.85 -6.15 -1.6 -6.3 -1.35 -6.35 -1.1 -6.45 -0.85 -6.5 -0.8 -6.5 -0.75 -6.55 -0.75 -6.6 -0.75 -6.7 -0.75 -6.9 -0.75 -7.1 -0.75 -7.05 -0.75 -7.0 -0.75 -7.05 -0.75 -7.1 L-0.75 -7.1" fill="#ffffff" fill-rule="evenodd" stroke="none"/>
      <path d="M0.45 1.95 Q0.15 1.95 -0.45 1.95 -0.45 0.95 -0.45 -0.1 -0.55 -0.1 -0.85 -0.1 -0.85 0.9 -0.85 1.95 -1.15 1.95 -1.75 1.95 -1.75 0.95 -1.75 -0.1 -1.9 -0.1 -2.0 -0.1 -2.05 -0.1 -2.15 -0.1 -2.15 0.9 -2.15 1.95 -2.45 1.95 -3.05 1.95 -3.05 0.95 -3.05 -0.1 -3.2 -0.1 -3.3 -0.1 -3.35 -0.1 -3.45 -0.1 -3.45 0.9 -3.45 1.95 -3.75 1.95 -4.35 1.95 -4.35 0.95 -4.35 -0.1 -4.55 -0.1 -4.85 -0.1 -4.9 -0.1 -5.0 -0.1 -5.05 -0.1 -5.1 -0.1 -5.15 -0.15 -5.2 -0.15 -5.25 -0.2 -5.3 -0.2 -5.35 -0.25 -5.4 -0.25 -5.4 -0.3 -5.45 -0.35 -5.5 -0.35 -5.5 -0.4 -5.55 -0.45 -5.55 -0.5 -5.55 -0.55 -5.6 -0.55 -5.6 -0.6 -5.6 -0.65 -5.6 -0.7 -5.6 -0.75 -5.6 -0.75 -5.55 -0.8 -5.55 -0.85 -5.55 -0.85 -5.5 -0.9 -5.5 -0.95 -5.45 -0.95 -5.4 -0.95 -5.4 -1.0 -5.35 -1.0 -5.25 -1.0 -5.25 -1.0 -5.2 -1.0 -5.15 -1.0 -3.25 -1.0 0.65 -1.0 2.05 -1.0 4.95 -1.0 5.0 -1.0 5.0 -1.0 5.05 -1.0 5.1 -0.95 5.15 -0.95 5.15 -0.95 5.2 -0.9 5.25 -0.9 5.25 -0.9 5.3 -0.85 5.35 -0.85 5.35 -0.8 5.4 -0.8 5.4 -0.75 5.45 -0.7 5.45 -0.7 5.45 -0.65 5.45 -0.6 5.5 -0.5 5.45 -0.45 5.45 -0.4 5.45 -0.35 5.4 -0.3 5.4 -0.25 5.35 -0.2 5.3 -0.2 5.25 -0.15 5.2 -0.15 5.15 -0.1 5.1 -0.1 5.0 -0.1 4.95 -0.1 4.85 -0.1 4.55 -0.1 4.55 0.9 4.55 1.95 4.25 1.95 3.55 1.95 3.55 0.95 3.55 -0.1 3.4 -0.1 3.3 -0.1 3.25 -0.1 3.15 -0.1 3.15 0.9 3.15 1.95 2.85 1.95 2.25 1.95 2.25 0.95 2.25 -0.1 2.1 -0.1 2.0 -0.1 1.95 -0.1 1.85 -0.1 1.85 0.9 1.85 1.95 1.55 1.95 0.95 1.95 0.95 0.95 0.95 -0.1 0.85 -0.1 0.55 -0.1 0.45 0.65 0.45 1.95 L0.45 1.95" fill="#ffffff" fill-rule="evenodd" stroke="none"/>
    </g>
  
</svg>
