<?xml version="1.0" encoding="UTF-8" standalone="no"?>
<svg xmlns:xlink="http://www.w3.org/1999/xlink" height="32.1px" width="31.95px" xmlns="http://www.w3.org/2000/svg">
  <g transform="matrix(1.0, 0.0, 0.0, 1.0, 15.95, 16.05)">
    <use data-characterId="246" height="32.1" transform="matrix(1.0, 0.0, 0.0, 1.0, -15.95, -16.05)" width="31.95" xlink:href="#shape0"/>
  </g>
  
    <g id="shape0" transform="matrix(1.0, 0.0, 0.0, 1.0, 15.95, 16.05)">
      <path d="M12.1 9.45 Q7.0 9.45 1.9 9.45 1.9 9.45 1.9 9.45 1.9 9.4 1.85 9.4 1.8 9.35 1.8 9.3 1.75 9.25 1.7 9.2 1.7 9.15 1.65 9.1 1.6 9.05 1.6 9.0 1.55 8.9 1.55 8.85 1.5 8.8 1.5 8.75 1.5 8.25 1.5 7.85 1.5 7.45 1.45 7.1 1.45 6.7 1.4 6.4 1.35 6.1 1.25 5.85 1.2 5.6 1.05 5.4 0.95 5.25 0.8 5.1 0.65 5.0 0.45 4.9 0.25 4.85 0.05 4.85 -0.25 4.85 -0.45 4.9 -0.7 5.0 -0.85 5.15 -1.0 5.25 -1.15 5.5 -1.25 5.65 -1.35 5.95 -1.45 6.2 -1.5 6.5 -1.55 6.8 -1.6 7.15 -1.6 7.5 -1.65 7.9 -1.65 8.2 -1.65 8.75 -1.65 8.8 -1.65 8.85 -1.7 8.9 -1.7 9.0 -1.75 9.05 -1.75 9.1 -1.8 9.15 -1.85 9.2 -1.85 9.25 -1.9 9.3 -1.95 9.35 -1.95 9.4 -2.0 9.4 -2.05 9.45 -2.05 9.45 -2.05 9.45 -6.95 9.45 -11.85 9.45 L-11.35 -2.65 Q-11.35 -2.7 -11.4 -2.75 -11.45 -2.8 -11.5 -2.85 -11.5 -2.9 -11.55 -2.95 -11.6 -3.0 -11.7 -3.0 -11.75 -3.05 -11.8 -3.1 -11.85 -3.15 -11.9 -3.15 -12.0 -3.2 -12.05 -3.2 -12.1 -3.25 -12.15 -3.25 -12.15 -4.15 -12.15 -5.75 -11.95 -5.75 -11.75 -5.75 -11.5 -5.75 -11.25 -5.75 -11.25 -5.65 -11.25 -4.85 -10.85 -4.85 -10.45 -4.85 -10.45 -5.3 -10.45 -5.75 -10.2 -5.75 -10.0 -5.75 -9.6 -5.75 -9.15 -5.75 -9.15 -5.35 -9.15 -4.85 -8.5 -4.85 -7.85 -4.85 -7.85 -5.3 -7.85 -5.75 L-6.55 -5.75 Q-6.55 -5.75 -6.55 -4.85 -6.25 -4.85 -5.95 -4.85 -5.95 -5.15 -5.95 -5.75 -5.75 -5.75 -5.55 -5.75 -5.3 -5.75 -5.05 -5.75 -5.05 -4.95 -5.05 -3.25 -5.1 -3.25 -5.2 -3.2 -5.25 -3.2 -5.3 -3.15 -5.4 -3.1 -5.45 -3.05 -5.5 -3.05 -5.6 -3.0 -5.65 -2.95 -5.7 -2.9 -5.8 -2.85 -5.8 -2.8 -5.9 -2.75 -5.9 -2.75 -5.95 -2.7 -5.95 -2.65 -5.95 -2.35 -5.9 -1.15 -5.85 0.15 -5.85 0.35 -5.6 0.35 -5.35 0.35 -5.35 0.9 -5.35 1.45 -4.55 1.45 -3.75 1.45 -3.75 1.15 -3.75 0.35 -2.95 0.35 -2.15 0.35 -2.15 0.75 -2.15 1.45 -1.45 1.45 -0.75 1.45 -0.75 1.05 -0.75 0.35 -0.05 0.35 0.6 0.35 0.6 0.65 0.6 1.45 1.3 1.45 2.0 1.45 2.0 1.15 2.0 0.35 2.7 0.35 3.4 0.35 3.4 0.75 3.4 1.45 4.2 1.45 5.0 1.45 5.0 1.15 5.0 0.35 5.25 0.35 5.5 0.35 5.6 -0.35 5.6 -2.65 5.6 -2.7 5.6 -2.75 5.55 -2.8 5.5 -2.85 5.45 -2.9 5.4 -2.95 5.35 -3.0 5.3 -3.05 5.2 -3.1 5.15 -3.15 5.05 -3.15 5.0 -3.2 4.9 -3.2 4.85 -3.25 4.75 -3.25 4.7 -3.25 4.7 -4.05 4.7 -5.95 5.15 -5.95 5.6 -5.95 5.6 -5.95 5.6 -5.05 5.9 -5.05 6.2 -5.05 6.2 -5.45 6.2 -5.95 6.9 -5.95 7.6 -5.95 7.6 -5.95 7.6 -5.05 8.25 -5.05 8.9 -5.05 8.9 -5.5 8.9 -5.95 9.55 -5.95 10.2 -5.95 10.2 -5.95 10.2 -4.85 10.4 -4.85 10.6 -4.85 10.8 -4.85 11.0 -4.85 11.0 -5.25 11.0 -5.95 11.45 -5.95 11.9 -5.95 11.9 -5.35 11.9 -3.45 11.85 -3.45 11.8 -3.45 11.7 -3.4 11.65 -3.4 11.6 -3.35 11.5 -3.3 11.45 -3.25 11.4 -3.25 11.3 -3.2 11.25 -3.15 11.2 -3.1 11.15 -3.05 11.1 -3.0 11.05 -2.95 11.05 -2.9 11.0 -2.85 L12.1 9.45 12.1 9.45" fill="#ffffff" fill-rule="evenodd" stroke="none"/>
      <path d="M-2.15 9.45 L1.9 9.45 1.6 8.55 -1.95 8.55 -2.15 9.45" fill="#ffffff" fill-rule="evenodd" stroke="none"/>
    </g>
  
</svg>
