<?xml version="1.0" encoding="UTF-8" standalone="no"?>
<svg xmlns:xlink="http://www.w3.org/1999/xlink" height="19.05px" width="14.6px" xmlns="http://www.w3.org/2000/svg">
  <g transform="matrix(1.0, 0.0, 0.0, 1.0, 7.3, 9.5)">
    <use data-characterId="54" height="19.0" transform="matrix(1.0, 0.0, 0.0, 1.0, -7.3, -9.5)" width="14.6" xlink:href="#shape0"/>
  </g>
  
    <g id="shape0" transform="matrix(1.0, 0.0, 0.0, 1.0, 7.3, 9.5)">
      <path d="M6.4 3.7 Q6.4 4.95 6.4 6.2 6.4 6.2 6.6 6.4 6.7 6.45 6.75 6.5 6.8 6.5 6.9 6.55 6.95 6.6 7.0 6.65 7.05 6.75 7.1 6.8 7.15 6.85 7.2 6.9 7.2 7.0 7.25 7.05 7.25 7.15 7.3 7.2 7.3 7.3 7.3 7.4 7.3 7.5 7.3 7.6 7.3 7.65 7.3 7.75 7.3 7.85 7.25 7.9 7.25 8.0 7.2 8.05 7.15 8.15 7.1 8.2 7.05 8.3 7.0 8.35 6.9 8.4 6.85 8.5 6.8 8.55 6.7 8.6 6.65 8.65 6.65 8.65 6.6 8.65 6.55 8.65 6.5 8.7 6.45 8.7 6.45 8.7 6.4 8.75 6.35 8.75 6.3 8.75 6.3 8.75 6.25 8.8 6.2 8.8 6.15 8.8 6.15 8.8 6.1 8.8 3.05 8.8 0.0 8.8 -3.0 8.8 -6.0 8.8 -6.05 8.8 -6.1 8.8 -6.15 8.8 -6.2 8.75 -6.3 8.75 -6.35 8.75 -6.4 8.7 -6.45 8.65 -6.5 8.65 -6.55 8.6 -6.6 8.6 -6.65 8.55 -6.7 8.5 -6.7 8.45 -6.75 8.45 -6.8 8.4 -6.9 8.3 -7.0 8.15 -7.05 8.05 -7.05 7.9 -7.1 7.75 -7.1 7.6 -7.1 7.5 -7.05 7.35 -7.0 7.2 -6.9 7.1 -6.85 7.0 -6.75 6.9 -6.65 6.8 -6.55 6.7 -6.45 6.65 -6.3 6.6 -6.3 6.4 -6.3 6.2 -6.3 5.0 -6.3 3.8 -6.3 3.7 -6.3 3.65 -6.35 3.6 -6.4 3.6 -6.5 3.6 -6.6 3.55 -6.65 3.5 -6.75 3.45 -6.8 3.4 -6.85 3.35 -6.95 3.3 -7.0 3.2 -7.05 3.15 -7.1 3.05 -7.1 2.95 -7.15 2.85 -7.15 2.8 -7.2 2.7 -7.2 2.6 -7.2 2.5 -7.2 2.4 -7.15 2.3 -7.1 2.2 -7.05 2.15 -7.05 2.05 -6.95 1.95 -6.9 1.9 -6.85 1.8 -6.8 1.75 -6.7 1.7 -6.65 1.65 -6.55 1.6 -6.45 1.55 -6.4 1.5 -6.3 1.5 -6.2 1.5 -6.05 1.5 -5.9 1.5 -5.5 1.5 -5.1 1.5 -5.1 1.05 -5.1 0.6 -5.15 0.55 -5.2 0.5 -5.3 0.4 -5.4 0.35 -5.45 0.25 -5.55 0.2 -5.6 0.1 -5.65 0.0 -5.75 -0.1 -5.75 -0.15 -5.8 -0.25 -5.85 -0.35 -5.9 -0.45 -5.9 -0.55 -5.9 -0.65 -5.9 -0.8 -5.9 -0.9 -5.9 -1.0 -5.9 -1.05 -5.85 -1.1 -5.85 -1.15 -5.8 -1.2 -5.8 -1.25 -5.75 -1.3 -5.7 -1.35 -5.7 -1.4 -5.65 -1.45 -5.6 -1.45 -5.6 -1.5 -5.55 -1.55 -5.5 -1.6 -5.45 -1.6 -5.45 -1.65 -5.4 -1.7 -5.3 -1.75 -5.3 -1.8 -5.3 -1.8 -5.3 -1.9 -5.3 -2.0 -5.3 -2.05 -5.3 -2.1 -5.3 -2.2 -5.3 -2.25 -5.3 -2.3 -5.3 -2.35 -5.25 -2.4 -5.25 -2.5 -5.25 -2.55 -5.2 -2.6 -5.15 -2.65 -5.15 -2.7 -5.1 -2.7 -5.05 -2.75 -5.0 -2.8 -5.0 -2.8 -4.95 -2.85 -4.95 -2.85 -4.95 -2.9 -4.9 -2.9 -4.9 -2.95 -4.9 -3.0 -4.85 -3.0 -4.85 -3.05 -4.85 -3.1 -4.85 -3.1 -4.8 -3.15 -4.8 -3.2 -4.8 -3.25 -4.8 -3.25 -4.8 -3.3 -4.7 -3.6 -4.65 -3.85 -4.55 -4.1 -4.4 -4.35 -4.3 -4.6 -4.15 -4.8 -4.0 -5.05 -3.8 -5.25 -3.65 -5.45 -3.45 -5.65 -3.25 -5.85 -3.05 -6.0 -2.85 -6.15 -2.6 -6.3 -2.35 -6.45 -2.1 -6.6 -2.05 -6.6 -2.0 -6.65 -2.0 -6.65 -1.95 -6.65 -1.9 -6.7 -1.85 -6.7 -1.85 -6.7 -1.8 -6.75 -1.75 -6.75 -1.7 -6.75 -1.7 -6.75 -1.65 -6.8 -1.6 -6.8 -1.55 -6.8 -1.55 -6.8 -1.5 -6.8 -1.45 -6.8 -1.4 -6.85 -1.35 -6.85 -1.35 -6.9 -1.3 -6.95 -1.3 -7.0 -1.3 -7.2 -1.3 -7.4 -1.25 -7.45 -1.2 -7.5 -0.95 -7.5 -0.7 -7.5 -0.7 -7.75 -0.7 -8.0 -0.7 -8.05 -0.7 -8.15 -0.65 -8.2 -0.65 -8.3 -0.6 -8.35 -0.6 -8.4 -0.55 -8.45 -0.5 -8.5 -0.45 -8.55 -0.4 -8.6 -0.35 -8.6 -0.3 -8.65 -0.2 -8.65 -0.15 -8.7 -0.05 -8.7 0.0 -8.7 0.1 -8.7 0.2 -8.7 0.25 -8.7 0.35 -8.65 0.4 -8.65 0.5 -8.6 0.55 -8.6 0.6 -8.55 0.65 -8.5 0.7 -8.45 0.75 -8.4 0.8 -8.3 0.85 -8.25 0.85 -8.15 0.9 -8.1 0.9 -8.0 0.9 -7.95 0.9 -7.9 0.9 -7.9 0.9 -7.85 0.9 -7.8 0.9 -7.75 0.9 -7.75 0.9 -7.7 0.9 -7.65 0.9 -7.6 0.95 -7.6 0.95 -7.55 0.95 -7.5 0.95 -7.45 1.0 -7.45 1.0 -7.4 1.25 -7.4 1.5 -7.4 1.5 -7.35 1.55 -7.35 1.55 -7.3 1.6 -7.3 1.6 -7.0 1.6 -6.7 1.6 -6.7 1.65 -6.75 1.65 -6.75 1.7 -6.75 1.75 -6.75 1.8 -6.75 1.8 -6.75 1.85 -6.7 1.9 -6.7 1.95 -6.7 2.0 -6.7 2.05 -6.65 2.1 -6.65 2.1 -6.65 2.15 -6.6 2.2 -6.6 2.35 -6.5 2.55 -6.45 2.7 -6.35 2.85 -6.25 3.0 -6.15 3.15 -6.05 3.25 -5.95 3.4 -5.85 3.55 -5.75 3.65 -5.6 3.8 -5.5 3.9 -5.35 4.0 -5.25 4.1 -5.1 4.2 -4.95 4.3 -4.8 4.35 -4.7 4.4 -4.6 4.45 -4.5 4.5 -4.4 4.55 -4.3 4.6 -4.2 4.65 -4.1 4.7 -4.0 4.75 -3.9 4.75 -3.75 4.8 -3.65 4.85 -3.55 4.9 -3.45 4.9 -3.3 4.95 -3.25 5.0 -3.1 5.05 -3.0 5.1 -2.9 5.15 -2.85 5.2 -2.8 5.25 -2.75 5.3 -2.65 5.35 -2.6 5.35 -2.55 5.4 -2.5 5.4 -2.45 5.4 -2.4 5.45 -2.3 5.45 -2.25 5.45 -2.2 5.45 -2.1 5.45 -2.05 5.4 -2.0 5.4 -1.9 5.4 -1.85 5.4 -1.8 5.4 -1.75 5.5 -1.7 5.6 -1.65 5.7 -1.55 5.8 -1.45 5.85 -1.35 5.9 -1.25 5.95 -1.15 6.0 -1.05 6.0 -0.9 6.05 -0.8 6.05 -0.7 6.05 -0.6 6.0 -0.45 6.0 -0.35 5.95 -0.25 5.85 -0.1 5.8 0.0 5.8 0.05 5.75 0.05 5.75 0.1 5.7 0.15 5.7 0.2 5.65 0.2 5.6 0.25 5.6 0.3 5.55 0.3 5.5 0.35 5.5 0.35 5.45 0.35 5.4 0.4 5.35 0.4 5.35 0.4 5.3 0.4 5.25 0.4 5.2 0.45 5.2 0.5 5.2 0.6 5.2 1.0 5.2 1.4 5.6 1.4 6.0 1.4 6.05 1.4 6.1 1.4 6.15 1.4 6.25 1.4 6.3 1.45 6.35 1.45 6.4 1.45 6.45 1.5 6.5 1.5 6.55 1.5 6.6 1.55 6.7 1.55 6.75 1.6 6.8 1.65 6.85 1.65 6.9 1.7 7.0 1.8 7.1 1.9 7.15 2.05 7.2 2.15 7.25 2.3 7.3 2.45 7.3 2.6 7.3 2.75 7.25 2.9 7.2 3.0 7.15 3.15 7.05 3.3 7.0 3.4 6.85 3.5 6.75 3.65 6.6 3.7 6.5 3.7 6.4 3.7 L6.4 3.7 M-5.5 7.1 Q-5.65 7.1 -5.8 7.1 -5.85 7.1 -5.85 7.1 -5.9 7.1 -5.95 7.1 -6.0 7.1 -6.05 7.1 -6.1 7.15 -6.15 7.15 -6.15 7.15 -6.2 7.2 -6.25 7.2 -6.25 7.25 -6.3 7.25 -6.3 7.3 -6.35 7.3 -6.35 7.35 -6.35 7.4 -6.35 7.4 -6.4 7.45 -6.4 7.5 -6.4 7.5 -6.4 7.55 -6.4 7.6 -6.4 7.65 -6.4 7.65 -6.4 7.7 -6.4 7.75 -6.35 7.75 -6.35 7.8 -6.3 7.85 -6.3 7.85 -6.3 7.9 -6.25 7.9 -6.25 7.95 -6.2 7.95 -6.2 7.95 -6.15 7.95 -6.15 8.0 -6.1 8.0 -6.05 8.0 -6.05 8.0 -6.0 8.0 -3.25 8.0 -0.5 8.0 2.75 8.0 6.0 8.0 6.05 8.0 6.05 8.0 6.1 8.0 6.15 7.95 6.2 7.95 6.2 7.95 6.25 7.9 6.3 7.9 6.3 7.85 6.35 7.8 6.4 7.8 6.4 7.75 6.45 7.7 6.45 7.65 6.5 7.65 6.5 7.6 6.5 7.55 6.5 7.55 6.5 7.5 6.5 7.45 6.45 7.4 6.45 7.4 6.45 7.35 6.4 7.3 6.4 7.3 6.35 7.25 6.35 7.2 6.3 7.2 6.25 7.15 6.2 7.15 6.15 7.1 6.1 7.1 5.85 7.1 5.6 7.1 5.6 5.1 5.6 3.1 5.8 3.1 6.0 3.1 6.05 3.1 6.05 3.1 6.1 3.1 6.15 3.05 6.2 3.05 6.2 3.05 6.25 3.0 6.3 3.0 6.3 2.95 6.35 2.9 6.35 2.9 6.35 2.85 6.4 2.8 6.4 2.75 6.4 2.75 6.4 2.7 6.4 2.65 6.4 2.65 6.4 2.6 6.4 2.55 6.35 2.5 6.35 2.5 6.35 2.45 6.35 2.4 6.3 2.4 6.3 2.35 6.25 2.3 6.25 2.3 6.2 2.25 6.15 2.25 6.15 2.2 6.1 2.2 5.9 2.2 5.7 2.2 0.1 2.2 -5.5 2.2 -5.8 2.2 -6.1 2.2 -6.15 2.2 -6.15 2.2 -6.2 2.2 -6.25 2.25 -6.3 2.25 -6.3 2.25 -6.35 2.3 -6.35 2.35 -6.4 2.35 -6.45 2.4 -6.45 2.4 -6.45 2.45 -6.5 2.5 -6.5 2.55 -6.5 2.55 -6.5 2.6 -6.5 2.65 -6.5 2.65 -6.5 2.7 -6.45 2.75 -6.45 2.8 -6.45 2.8 -6.4 2.85 -6.35 2.9 -6.35 2.9 -6.3 2.95 -6.3 2.95 -6.25 2.95 -6.2 3.0 -6.15 3.0 -6.15 3.0 -6.1 3.0 -5.85 3.0 -5.6 3.0 -5.5 4.4 -5.5 7.1 L-5.5 7.1 M0.0 -6.8 Q-0.05 -6.8 -0.05 -6.8 -0.05 -6.8 0.0 -6.8 -0.15 -6.8 -0.3 -6.8 -0.45 -6.8 -0.45 -6.75 -0.5 -6.75 -0.5 -6.6 -0.5 -6.5 -0.5 -6.5 -0.5 -6.45 -0.5 -6.4 -0.5 -6.35 -0.55 -6.35 -0.55 -6.3 -0.6 -6.3 -0.65 -6.3 -0.7 -6.3 -1.3 -6.1 -1.5 -6.0 -1.65 -5.95 -1.75 -5.9 -1.9 -5.85 -2.0 -5.8 -2.15 -5.75 -2.25 -5.7 -2.35 -5.6 -2.45 -5.55 -2.55 -5.45 -2.65 -5.4 -2.75 -5.3 -2.85 -5.2 -2.95 -5.1 -3.05 -5.0 -3.15 -4.9 -3.2 -4.8 -3.3 -4.65 -3.4 -4.55 -3.5 -4.4 -3.6 -4.25 -3.7 -4.15 -3.75 -4.0 -3.85 -3.85 -3.9 -3.7 -3.95 -3.6 -4.0 -3.45 -4.05 -3.3 -4.1 -3.15 -4.1 -3.0 -4.15 -2.85 -4.2 -2.65 -4.2 -2.5 -4.3 -2.45 -4.4 -2.4 -4.45 -2.35 -4.45 -2.3 -4.5 -2.3 -4.5 -2.25 -4.5 -2.2 -4.5 -2.15 -4.5 -2.15 -4.5 -2.1 -4.5 -2.05 -4.5 -2.0 -4.5 -1.95 -4.45 -1.95 -4.45 -1.9 -4.4 -1.9 -4.35 -1.9 -4.3 -1.9 -4.3 -1.9 -4.2 -1.9 -2.65 -1.9 -1.1 -1.9 1.65 -1.9 4.4 -1.9 4.5 -1.9 4.6 -1.9 4.6 -1.95 4.65 -2.0 4.65 -2.05 4.65 -2.1 4.65 -2.15 4.65 -2.15 4.65 -2.2 4.65 -2.25 4.6 -2.25 4.6 -2.3 4.55 -2.35 4.55 -2.35 4.5 -2.4 4.45 -2.45 4.4 -2.45 4.3 -2.5 4.25 -2.7 4.2 -2.9 4.2 -3.05 4.15 -3.2 4.1 -3.35 4.05 -3.5 4.0 -3.65 3.95 -3.8 3.9 -3.95 3.85 -4.05 3.75 -4.2 3.7 -4.35 3.6 -4.5 3.5 -4.6 3.4 -4.75 3.3 -4.85 3.2 -5.0 3.1 -5.1 3.0 -5.2 2.85 -5.3 2.75 -5.4 2.65 -5.5 2.5 -5.6 2.4 -5.7 2.25 -5.8 2.1 -5.85 2.0 -5.95 1.85 -6.0 1.7 -6.05 1.55 -6.1 1.4 -6.15 1.25 -6.2 1.05 -6.25 0.9 -6.3 0.85 -6.3 0.8 -6.35 0.8 -6.4 0.8 -6.5 0.8 -6.55 0.8 -6.6 0.8 -6.7 0.8 -6.75 0.75 -6.8 0.7 -6.8 0.45 -6.8 0.2 -6.8 0.2 -7.15 0.2 -7.5 0.2 -7.55 0.2 -7.55 0.2 -7.6 0.2 -7.65 0.2 -7.7 0.2 -7.7 0.25 -7.75 0.25 -7.8 0.25 -7.85 0.2 -7.85 0.2 -7.9 0.2 -7.95 0.2 -8.0 0.15 -8.0 0.15 -8.05 0.1 -8.1 0.05 -8.05 0.0 -8.0 0.0 -7.4 0.0 -6.8 L0.0 -6.8 M3.1 -0.3 Q3.3 -0.3 3.5 -0.3 3.5 0.5 3.5 1.3 3.95 1.3 4.4 1.3 4.4 0.5 4.4 -0.3 4.55 -0.3 4.7 -0.3 4.85 -0.3 5.0 -0.3 5.05 -0.3 5.05 -0.35 5.1 -0.35 5.15 -0.4 5.2 -0.4 5.2 -0.45 5.25 -0.5 5.25 -0.55 5.3 -0.55 5.3 -0.6 5.3 -0.65 5.3 -0.7 5.35 -0.75 5.3 -0.8 5.3 -0.85 5.3 -0.9 5.3 -0.95 5.25 -0.95 5.25 -1.0 5.2 -1.05 5.2 -1.05 5.15 -1.1 5.1 -1.1 5.1 -1.15 5.05 -1.15 5.0 -1.15 5.0 -1.15 4.95 -1.2 4.9 -1.2 4.85 -1.2 4.85 -1.2 4.8 -1.2 4.55 -1.15 4.3 -1.1 0.15 -1.1 -4.0 -1.1 -4.0 -1.1 -4.6 -1.1 -4.7 -1.1 -4.8 -1.1 -4.85 -1.1 -4.85 -1.1 -4.9 -1.1 -4.95 -1.05 -4.95 -1.05 -5.0 -1.05 -5.0 -1.0 -5.0 -0.95 -5.05 -0.95 -5.05 -0.9 -5.05 -0.9 -5.1 -0.85 -5.1 -0.8 -5.1 -0.75 -5.1 -0.75 -5.1 -0.7 -5.1 -0.65 -5.1 -0.65 -5.1 -0.6 -5.1 -0.55 -5.05 -0.5 -5.05 -0.5 -5.05 -0.45 -5.0 -0.4 -5.0 -0.4 -5.0 -0.35 -4.95 -0.35 -4.95 -0.35 -4.9 -0.3 -4.85 -0.3 -4.85 -0.3 -4.8 -0.3 -4.75 -0.3 -4.7 -0.3 -4.65 -0.3 -4.65 -0.3 -4.6 -0.3 -4.55 -0.3 -4.5 -0.3 -4.5 -0.3 -4.45 -0.25 -4.4 -0.25 -4.35 -0.25 -4.35 -0.25 -4.3 -0.2 -4.3 -0.2 -4.3 -0.2 -4.25 -0.15 -4.3 0.3 -4.3 1.4 -3.85 1.4 -3.4 1.4 -3.4 0.6 -3.4 -0.2 -3.2 -0.2 -3.0 -0.2 -3.0 0.6 -3.0 1.4 -2.55 1.4 -2.1 1.4 -2.1 0.6 -2.1 -0.2 -1.9 -0.2 -1.7 -0.2 -1.7 0.6 -1.7 1.4 -1.25 1.4 -0.8 1.4 -0.8 0.6 -0.8 -0.2 -0.6 -0.2 -0.4 -0.2 -0.4 0.6 -0.4 1.4 0.05 1.4 0.5 1.4 0.5 0.6 0.5 -0.2 0.7 -0.2 0.9 -0.2 0.9 0.6 0.9 1.4 1.35 1.4 1.8 1.4 1.8 0.6 1.8 -0.2 2.0 -0.2 2.2 -0.2 2.2 0.6 2.2 1.4 2.65 1.4 3.1 1.4 3.1 0.55 3.1 -0.3 L3.1 -0.3" fill="#ffffff" fill-rule="evenodd" stroke="none"/>
      <path d="M1.7 7.1 Q1.7 5.1 1.7 3.1 2.05 3.1 2.4 3.1 2.4 5.1 2.4 7.1 2.05 7.1 1.7 7.1 L1.7 7.1" fill="#ffffff" fill-rule="evenodd" stroke="none"/>
      <path d="M0.4 7.1 Q0.05 7.1 -0.3 7.1 -0.3 5.1 -0.3 3.1 0.05 3.1 0.4 3.1 0.4 5.1 0.4 7.1 L0.4 7.1" fill="#ffffff" fill-rule="evenodd" stroke="none"/>
      <path d="M-3.5 7.1 Q-3.85 7.1 -4.2 7.1 -4.2 5.1 -4.2 3.1 -3.85 3.1 -3.5 3.1 -3.5 5.1 -3.5 7.1 L-3.5 7.1" fill="#ffffff" fill-rule="evenodd" stroke="none"/>
      <path d="M-2.3 3.0 Q-1.95 3.0 -1.6 3.0 -1.6 5.0 -1.6 7.0 -1.95 7.0 -2.3 7.0 -2.3 5.0 -2.3 3.0 L-2.3 3.0" fill="#ffffff" fill-rule="evenodd" stroke="none"/>
      <path d="M3.7 3.1 Q4.05 3.1 4.4 3.1 4.4 5.1 4.4 7.1 4.05 7.1 3.7 7.1 3.7 5.1 3.7 3.1 L3.7 3.1" fill="#ffffff" fill-rule="evenodd" stroke="none"/>
    </g>
  
</svg>
