<?xml version="1.0" encoding="UTF-8" standalone="no"?>
<svg xmlns:xlink="http://www.w3.org/1999/xlink" height="32.1px" width="31.95px" xmlns="http://www.w3.org/2000/svg">
  <g transform="matrix(1.0, 0.0, 0.0, 1.0, 15.95, 16.05)">
    <use data-characterId="26" height="32.1" transform="matrix(1.0, 0.0, 0.0, 1.0, -15.95, -16.05)" width="31.95" xlink:href="#shape0"/>
  </g>
  
    <g id="shape0" transform="matrix(1.0, 0.0, 0.0, 1.0, 15.95, 16.05)">
      <path d="M-0.05 3.75 Q2.25 3.35 3.5 3.25 3.5 5.05 3.5 8.75 3.3 8.85 3.1 8.95 2.9 9.0 2.65 9.1 2.45 9.15 2.25 9.2 2.0 9.3 1.8 9.35 1.55 9.4 1.35 9.45 1.1 9.45 0.9 9.5 0.65 9.5 0.4 9.55 0.15 9.55 -0.05 9.55 -0.05 7.55 -0.05 3.75 L-0.05 3.75" fill="#ffffff" fill-rule="evenodd" stroke="none"/>
      <path d="M-0.25 3.75 Q-0.25 5.65 -0.25 9.55 -1.85 9.3 -1.95 9.25 -2.2 9.2 -2.7 9.05 -3.25 8.9 -3.45 8.85 -3.5 8.85 -3.55 8.8 -3.55 8.8 -3.6 8.75 -3.65 8.75 -3.7 8.75 -3.7 8.7 -3.75 8.7 -3.75 8.65 -3.8 8.6 -3.8 8.6 -3.85 8.55 -3.85 8.5 -3.85 8.45 -3.85 8.4 -3.85 8.35 -3.85 6.75 -3.85 3.55 -3.85 3.45 -3.85 3.25 -1.5 3.65 -0.25 3.75 L-0.25 3.75" fill="#ffffff" fill-rule="evenodd" stroke="none"/>
      <path d="M8.8 -1.25 Q8.45 -1.25 8.1 -1.25 7.95 -1.25 7.75 -1.25 7.6 -1.3 7.45 -1.3 7.3 -1.35 7.15 -1.35 7.0 -1.4 6.85 -1.45 6.7 -1.5 6.55 -1.55 6.4 -1.6 6.25 -1.65 6.1 -1.75 6.0 -1.8 5.85 -1.85 5.7 -1.95 5.6 -2.0 5.55 -2.05 5.45 -2.15 5.4 -2.2 5.3 -2.25 5.25 -2.35 5.2 -2.4 5.15 -2.45 5.1 -2.55 5.05 -2.65 5.0 -2.7 4.95 -2.8 4.95 -2.85 4.9 -2.95 4.85 -3.05 4.8 -3.15 4.7 -3.45 4.4 -4.2 4.2 -4.85 4.0 -5.25 3.95 -5.4 3.9 -5.5 3.8 -5.6 3.75 -5.7 3.65 -5.8 3.55 -5.9 3.45 -6.0 3.35 -6.05 3.25 -6.1 3.15 -6.15 3.0 -6.2 2.9 -6.25 2.75 -6.25 2.6 -6.25 2.45 -6.25 2.3 -6.25 2.2 -6.25 2.0 -6.25 1.7 -6.25 1.7 -6.25 1.55 -6.25 1.4 -6.25 1.25 -6.25 1.15 -6.25 1.0 -6.25 0.85 -6.2 0.7 -6.2 0.55 -6.15 0.4 -6.15 0.3 -6.1 0.15 -6.0 0.05 -5.95 0.05 -6.85 0.05 -8.65 0.2 -8.65 0.4 -8.7 0.55 -8.7 0.7 -8.7 0.9 -8.7 1.05 -8.65 1.25 -8.65 1.4 -8.6 1.6 -8.6 1.75 -8.55 1.95 -8.5 2.1 -8.45 2.25 -8.4 2.4 -8.3 2.55 -8.25 2.7 -8.15 2.8 -8.1 2.9 -8.0 3.0 -7.9 3.1 -7.8 3.15 -7.75 3.25 -7.65 3.3 -7.55 3.4 -7.4 3.45 -7.35 3.5 -7.2 3.55 -7.1 3.6 -7.0 3.6 -7.0 3.7 -6.75 3.75 -6.65 3.8 -6.55 3.85 -6.45 3.9 -6.3 4.0 -6.05 4.05 -6.0 4.1 -5.85 4.15 -5.75 4.25 -5.6 4.3 -5.45 4.35 -5.35 4.45 -5.2 4.5 -5.1 4.6 -4.95 4.65 -4.85 4.75 -4.75 4.85 -4.65 4.9 -4.55 5.0 -4.45 5.15 -4.35 5.25 -4.25 5.4 -4.15 5.55 -4.05 5.65 -4.0 5.8 -3.95 5.95 -3.85 6.1 -3.8 6.25 -3.8 6.4 -3.75 6.55 -3.7 6.7 -3.7 6.9 -3.65 7.05 -3.65 7.2 -3.65 7.35 -3.65 7.4 -3.65 7.5 -3.65 7.55 -3.65 7.65 -3.65 7.75 -3.65 7.85 -3.65 7.9 -3.65 8.0 -3.65 8.1 -3.65 8.2 -3.7 8.3 -3.7 8.4 -3.7 8.5 -3.7 8.6 -3.75 8.7 -3.75 8.65 -3.7 8.6 -3.65 8.6 -3.6 8.55 -3.5 8.5 -3.5 8.45 -3.4 8.4 -3.3 8.35 -3.3 8.3 -3.2 8.25 -3.15 8.2 -3.1 8.2 -3.05 8.15 -2.95 8.1 -2.9 8.05 -2.8 8.0 -2.75 7.95 -2.7 7.95 -2.65 7.9 -2.65 7.9 -2.6 7.85 -2.55 7.85 -2.5 7.85 -2.5 7.8 -2.45 7.8 -2.4 7.85 -2.35 7.85 -2.35 7.85 -2.3 7.9 -2.25 7.9 -2.2 7.95 -2.2 8.0 -2.15 8.05 -2.1 8.15 -2.05 8.2 -2.0 8.25 -1.95 8.35 -1.9 8.4 -1.85 8.45 -1.8 8.5 -1.75 8.55 -1.7 8.6 -1.6 8.75 -1.45 8.7 -1.5 8.75 -1.4 8.8 -1.35 8.85 -1.3 8.9 -1.25 8.8 -1.35 8.8 -1.25 L8.8 -1.25" fill="#ffffff" fill-rule="evenodd" stroke="none"/>
      <path d="M6.4 1.65 Q6.4 3.25 6.4 6.45 6.4 6.5 6.4 6.55 6.4 6.55 6.35 6.6 6.35 6.65 6.3 6.7 6.3 6.75 6.25 6.8 6.2 6.85 6.15 6.9 6.1 6.95 6.1 7.0 6.05 7.0 6.0 7.05 5.95 7.1 5.9 7.15 5.5 7.45 4.9 7.85 4.05 8.35 3.9 8.45 3.9 8.45 3.85 8.45 3.8 8.45 3.7 8.45 3.7 8.35 3.7 8.15 3.7 6.55 3.7 3.35 3.7 3.3 3.7 3.25 3.7 3.2 3.75 3.15 3.75 3.1 3.75 3.1 3.75 3.05 3.8 3.0 3.8 3.0 3.85 2.95 3.85 2.95 3.9 2.95 3.9 2.9 3.95 2.9 4.0 2.85 4.0 2.85 4.15 2.8 4.3 2.75 4.45 2.65 4.6 2.6 4.75 2.55 4.9 2.45 5.05 2.4 5.2 2.35 5.35 2.25 5.5 2.15 5.65 2.1 5.8 2.0 5.95 1.9 6.1 1.85 6.25 1.75 6.4 1.65 L6.4 1.65" fill="#ffffff" fill-rule="evenodd" stroke="none"/>
      <path d="M-6.65 1.55 Q-6.5 1.7 -6.35 1.8 -6.2 1.9 -6.05 2.0 -5.9 2.15 -5.75 2.25 -5.6 2.3 -5.45 2.4 -5.3 2.5 -5.15 2.6 -5.0 2.65 -4.8 2.75 -4.65 2.8 -4.5 2.9 -4.35 2.95 -4.15 3.05 -4.15 3.05 -4.1 3.05 -4.1 3.1 -4.05 3.15 -4.05 3.15 -4.0 3.2 -4.0 3.25 -4.0 3.3 -3.95 3.3 -3.95 3.35 -3.95 5.15 -3.95 8.65 -4.1 8.6 -4.25 8.55 -4.4 8.45 -4.55 8.4 -4.7 8.3 -4.85 8.25 -4.95 8.15 -5.1 8.1 -5.25 8.0 -5.35 7.9 -5.5 7.8 -5.65 7.7 -5.75 7.65 -5.9 7.55 -6.0 7.5 -6.15 7.35 -6.25 7.3 -6.3 7.2 -6.4 7.1 -6.45 7.05 -6.5 6.95 -6.55 6.9 -6.6 6.8 -6.65 6.75 -6.7 6.65 -6.7 6.55 -6.75 6.45 -6.75 6.35 -6.75 6.25 -6.75 6.15 -6.75 6.05 -6.75 5.95 -6.75 4.65 -6.75 2.05 -6.75 2.0 -6.7 2.0 -6.7 1.95 -6.7 1.9 -6.7 1.9 -6.7 1.85 -6.7 1.85 -6.7 1.8 -6.65 1.75 -6.65 1.75 -6.65 1.7 -6.65 1.7 -6.65 1.65 -6.65 1.6 -6.65 1.6 -6.65 1.55 L-6.65 1.55" fill="#ffffff" fill-rule="evenodd" stroke="none"/>
      <path d="M-2.35 0.95 Q-2.35 0.15 -2.35 -1.25 -0.1 -1.25 2.1 -1.25 2.1 -0.55 2.1 0.95 1.8 1.0 1.55 1.05 1.25 1.1 1.0 1.1 0.7 1.15 0.45 1.15 0.15 1.2 -0.15 1.2 -0.4 1.2 -0.7 1.15 -0.95 1.15 -1.25 1.1 -1.55 1.1 -1.8 1.05 -2.1 1.0 -2.35 0.95 L-2.35 0.95" fill="#ffffff" fill-rule="evenodd" stroke="none"/>
      <path d="M-3.55 0.75 Q-4.7 0.2 -5.25 -0.15 -5.35 -0.2 -5.45 -0.3 -5.55 -0.4 -5.6 -0.5 -5.65 -0.6 -5.7 -0.7 -5.75 -0.8 -5.8 -0.95 -5.8 -1.05 -5.8 -1.2 -5.8 -1.3 -5.8 -1.45 -5.8 -1.55 -5.8 -1.7 -5.8 -1.8 -5.75 -1.95 -5.7 -2.1 -5.65 -2.25 -5.6 -2.4 -5.55 -2.5 -5.5 -2.65 -5.4 -2.75 -5.35 -2.9 -5.25 -3.0 -5.15 -3.1 -5.05 -3.2 -4.95 -3.3 -4.85 -3.4 -4.75 -3.5 -4.6 -3.6 -4.5 -3.65 -4.35 -3.75 -4.2 -3.85 -4.0 -3.95 -3.85 -4.05 -3.65 -4.15 -3.5 -4.25 -3.3 -4.3 -3.1 -4.4 -2.95 -4.45 -2.75 -4.5 -2.55 -4.55 -2.35 -4.6 -2.15 -4.65 -1.95 -4.65 -1.7 -4.7 -1.5 -4.75 -1.25 -4.75 -1.45 -4.6 -1.65 -4.3 -1.95 -4.0 -2.05 -3.85 -2.25 -3.6 -2.7 -3.15 -3.15 -2.7 -3.35 -2.45 -3.4 -2.4 -3.4 -2.4 -3.45 -2.35 -3.45 -2.3 -3.45 -2.25 -3.45 -2.2 -3.45 -2.15 -3.45 -2.1 -3.45 -2.1 -3.45 -2.05 -3.55 -1.25 -3.55 0.75 L-3.55 0.75" fill="#ffffff" fill-rule="evenodd" stroke="none"/>
      <path d="M-3.15 -2.45 Q-2.6 -3.05 -1.6 -4.1 -0.5 -5.25 -0.05 -5.75 0.9 -4.65 2.9 -2.45 -0.15 -2.45 -3.15 -2.45 L-3.15 -2.45" fill="#ffffff" fill-rule="evenodd" stroke="none"/>
      <path d="M1.0 -4.85 Q1.2 -4.85 1.35 -4.8 1.55 -4.8 1.75 -4.75 1.9 -4.7 2.05 -4.65 2.25 -4.6 2.4 -4.55 2.55 -4.5 2.7 -4.45 2.85 -4.4 3.0 -4.35 3.15 -4.25 3.3 -4.2 3.45 -4.15 3.6 -4.05 3.7 -4.0 3.75 -3.95 3.85 -3.95 3.9 -3.9 4.0 -3.85 4.05 -3.8 4.1 -3.7 4.2 -3.65 4.25 -3.6 4.3 -3.55 4.35 -3.45 4.4 -3.4 4.45 -3.3 4.45 -3.25 4.5 -3.15 4.5 -3.05 4.5 -3.0 4.55 -2.9 4.6 -2.85 4.6 -2.75 4.65 -2.7 4.7 -2.65 4.75 -2.6 4.8 -2.5 4.85 -2.45 4.9 -2.4 4.95 -2.35 5.0 -2.3 5.05 -2.25 5.1 -2.15 5.15 -2.15 5.2 -2.05 5.25 -2.0 5.3 -1.95 5.35 -1.9 5.35 -1.8 5.4 -1.75 5.4 -1.7 5.4 -1.6 5.45 -1.55 5.45 -1.5 5.45 -1.4 5.45 -1.35 5.45 -1.3 5.6 -4.5 5.4 -1.15 5.4 -1.1 5.4 -1.05 5.4 -0.95 5.35 -0.9 5.35 -0.8 5.3 -0.75 5.3 -0.7 5.25 -0.6 5.2 -0.55 5.2 -0.45 5.15 -0.4 5.1 -0.35 5.05 -0.3 5.0 -0.25 4.9 -0.2 4.85 -0.15 4.8 -0.1 4.7 -0.05 4.65 0.0 3.1 0.75 3.1 -0.15 3.1 -1.85 3.1 -1.9 3.1 -2.0 3.1 -2.05 3.1 -2.15 3.05 -2.2 3.05 -2.25 3.0 -2.3 3.0 -2.4 2.95 -2.45 2.95 -2.5 2.9 -2.55 2.85 -2.6 2.85 -2.65 2.8 -2.75 2.75 -2.75 2.7 -2.85 2.55 -3.05 1.0 -4.85 L1.0 -4.85" fill="#ffffff" fill-rule="evenodd" stroke="none"/>
      <path d="M3.1 -2.25 Q3.1 -1.25 3.1 0.75 3.05 0.75 3.05 0.8 3.0 0.8 2.95 0.8 2.9 0.8 2.85 0.85 2.8 0.85 2.75 0.85 2.6 0.9 2.65 0.85 2.6 0.9 2.55 0.9 2.5 0.9 2.45 0.9 2.35 0.95 2.3 0.95 2.3 0.15 2.3 -1.35 -0.15 -1.35 -2.55 -1.35 -2.55 -0.55 -2.55 0.95 -2.6 0.95 -2.65 0.9 -2.7 0.9 -2.75 0.9 -2.8 0.9 -2.85 0.85 -3.0 0.85 -2.95 0.85 -3.0 0.85 -3.05 0.85 -3.1 0.8 -3.1 0.8 -3.15 0.8 -3.2 0.8 -3.25 0.75 -3.25 0.75 -3.3 0.75 -3.35 0.7 -3.35 0.7 -3.35 0.65 -3.35 0.6 -3.35 0.55 -3.35 -0.35 -3.35 -2.25 -0.1 -2.25 3.1 -2.25 L3.1 -2.25" fill="#ffffff" fill-rule="evenodd" stroke="none"/>
      <path d="M-0.05 3.45 Q-0.05 2.75 -0.05 1.45 1.95 1.2 2.7 1.05 2.9 1.55 3.3 2.75 3.3 2.8 3.3 2.85 3.25 2.9 3.2 2.95 3.2 3.0 3.1 3.05 2.85 3.1 2.2 3.25 1.6 3.4 1.2 3.45 0.55 3.45 -0.05 3.45 L-0.05 3.45" fill="#ffffff" fill-rule="evenodd" stroke="none"/>
      <path d="M-6.95 6.55 Q-7.0 6.45 -7.05 6.35 -7.15 6.25 -7.2 6.15 -7.25 6.1 -7.3 6.0 -7.35 5.9 -7.4 5.8 -7.45 5.7 -7.5 5.6 -7.6 5.5 -7.65 5.4 -7.7 5.3 -7.75 5.15 -7.8 5.05 -7.85 4.95 -7.9 4.85 -7.95 4.75 -8.0 4.65 -8.05 4.55 -8.05 4.45 -8.1 4.35 -8.1 4.25 -8.1 4.15 -8.15 4.05 -8.15 3.9 -8.15 3.8 -8.15 3.7 -8.15 3.6 -8.15 3.45 -8.15 3.4 -8.15 3.25 -8.15 2.05 -8.15 -0.45 -8.0 -0.25 -7.75 0.2 -7.5 0.65 -7.35 0.85 -7.35 0.9 -7.35 0.95 -7.25 1.0 -7.15 1.1 -7.1 1.15 -7.05 1.25 -6.95 1.3 -6.95 1.4 -6.9 1.5 -6.9 1.6 -6.85 1.65 -6.85 1.75 -6.85 1.85 -6.85 1.95 -6.85 2.05 -6.85 2.15 -6.85 2.3 -6.85 2.35 -6.85 3.75 -6.85 6.55 -6.9 6.55 -6.95 6.55 L-6.95 6.55" fill="#ffffff" fill-rule="evenodd" stroke="none"/>
      <path d="M6.6 6.55 Q6.6 5.65 6.6 4.15 6.6 3.35 6.6 1.65 6.6 1.65 6.6 1.6 6.6 1.55 6.6 1.5 6.65 1.45 6.65 1.4 6.65 1.35 6.65 1.3 6.7 1.3 6.7 1.25 7.6 -0.1 7.9 -0.45 7.9 -0.35 7.9 -0.05 7.9 1.05 7.9 3.25 7.9 3.45 7.9 3.65 7.85 3.85 7.85 4.05 7.8 4.25 7.75 4.45 7.7 4.65 7.65 4.85 7.55 5.0 7.5 5.2 7.4 5.4 7.3 5.55 7.25 5.75 7.15 5.9 7.05 6.1 6.9 6.25 6.8 6.35 6.6 6.55 L6.6 6.55" fill="#ffffff" fill-rule="evenodd" stroke="none"/>
      <path d="M-3.05 1.15 Q-2.65 1.2 -1.7 1.35 -0.8 1.5 -0.25 1.55 -0.25 2.15 -0.25 3.55 -1.35 3.55 -1.85 3.45 -1.95 3.45 -2.1 3.4 -2.2 3.4 -2.3 3.35 -2.4 3.35 -2.5 3.35 -2.6 3.3 -2.7 3.3 -2.8 3.25 -2.9 3.25 -3.0 3.2 -3.1 3.2 -3.2 3.15 -3.3 3.1 -3.4 3.1 -3.45 3.05 -3.5 3.05 -3.5 3.05 -3.55 3.0 -3.6 2.95 -3.6 2.95 -3.65 2.9 -3.65 2.85 -3.65 2.8 -3.65 2.8 -3.65 2.75 -3.45 2.15 -3.05 1.15 L-3.05 1.15" fill="#ffffff" fill-rule="evenodd" stroke="none"/>
      <path d="M6.4 1.35 Q6.25 1.45 5.05 2.15 4.2 2.65 3.6 2.95 3.3 2.25 2.9 1.05 3.7 0.65 5.3 -0.15 5.45 0.1 5.85 0.55 6.2 1.05 6.4 1.35 L6.4 1.35" fill="#ffffff" fill-rule="evenodd" stroke="none"/>
      <path d="M-3.95 2.85 Q-4.15 2.75 -4.35 2.7 -4.5 2.6 -4.7 2.55 -4.85 2.45 -5.05 2.35 -5.2 2.25 -5.4 2.15 -5.55 2.05 -5.7 1.95 -5.9 1.85 -6.05 1.75 -6.2 1.6 -6.35 1.5 -6.5 1.4 -6.65 1.25 -5.6 -0.1 -5.55 -0.15 -5.3 0.0 -4.7 0.3 -4.2 0.6 -3.85 0.75 -3.85 0.75 -3.85 0.75 -3.8 0.8 -3.75 0.8 -3.7 0.85 -3.6 0.85 -3.5 0.9 -3.45 0.95 -3.4 0.95 -3.35 1.0 -3.3 1.0 -3.25 1.05 -3.25 1.1 -3.25 1.15 -3.25 1.2 -3.25 1.25 -3.3 1.3 -3.35 1.4 -3.35 1.45 -3.4 1.5 -3.45 1.6 -3.45 1.65 -3.55 1.85 -3.7 2.25 -3.9 2.65 -3.95 2.85 L-3.95 2.85" fill="#ffffff" fill-rule="evenodd" stroke="none"/>
      <path d="M-2.65 -4.85 Q-2.85 -5.35 -3.25 -6.55 -2.75 -6.6 -1.75 -6.75 -0.8 -6.9 -0.25 -6.95 -0.2 -6.8 -0.2 -6.7 -0.2 -6.55 -0.2 -6.4 -0.25 -6.25 -0.3 -6.15 -0.3 -6.0 -0.35 -5.85 -0.45 -5.75 -0.5 -5.6 -0.6 -5.5 -0.65 -5.4 -0.75 -5.3 -0.85 -5.25 -0.95 -5.2 -1.05 -5.15 -1.2 -5.1 -1.6 -5.05 -2.0 -5.0 -2.15 -4.95 -2.4 -4.9 -2.65 -4.85 L-2.65 -4.85" fill="#ffffff" fill-rule="evenodd" stroke="none"/>
      <path d="M-3.45 -6.45 Q-3.1 -5.35 -2.85 -4.85 -4.35 -4.0 -4.95 -3.75 -5.0 -3.8 -5.05 -3.85 -5.05 -3.9 -5.1 -4.0 -5.1 -4.05 -5.15 -4.1 -5.2 -4.2 -5.25 -4.25 -5.25 -4.3 -5.3 -4.4 -5.35 -4.45 -5.35 -4.5 -5.4 -4.6 -5.45 -4.65 -5.5 -4.7 -5.55 -4.75 -5.6 -4.8 -5.65 -4.85 -5.7 -4.9 -5.7 -4.95 -5.7 -5.0 -5.7 -5.05 -5.7 -5.1 -5.7 -5.15 -5.7 -5.15 -5.65 -5.2 -5.65 -5.25 -5.6 -5.25 -5.6 -5.3 -5.55 -5.3 -5.5 -5.35 -5.45 -5.35 -4.85 -5.65 -3.45 -6.45 L-3.45 -6.45" fill="#ffffff" fill-rule="evenodd" stroke="none"/>
      <path d="M-8.15 -1.25 Q-7.95 -1.45 -7.6 -1.85 -7.3 -2.25 -7.05 -2.45 -7.0 -2.3 -6.95 -2.1 -6.9 -1.95 -6.85 -1.8 -6.8 -1.65 -6.75 -1.5 -6.7 -1.35 -6.6 -1.25 -6.5 -1.1 -6.45 -0.95 -6.35 -0.85 -6.25 -0.7 -6.15 -0.6 -6.0 -0.5 -5.9 -0.35 -5.75 -0.25 -6.0 0.05 -6.3 0.45 -6.8 1.05 -6.85 1.15 -6.95 1.0 -7.05 0.9 -7.15 0.75 -7.25 0.6 -7.35 0.45 -7.45 0.3 -7.55 0.2 -7.6 0.05 -7.7 -0.1 -7.8 -0.3 -7.85 -0.45 -7.9 -0.6 -8.0 -0.75 -8.05 -0.9 -8.1 -1.1 -8.15 -1.25 L-8.15 -1.25" fill="#ffffff" fill-rule="evenodd" stroke="none"/>
      <path d="M-5.95 -4.85 Q-5.65 -4.35 -5.05 -3.55 -5.2 -3.4 -5.35 -3.3 -5.45 -3.15 -5.55 -3.0 -5.65 -2.85 -5.75 -2.7 -5.8 -2.5 -5.9 -2.35 -5.95 -2.2 -5.95 -2.0 -6.0 -1.8 -6.0 -1.65 -6.0 -1.45 -5.95 -1.25 -5.9 -1.05 -5.85 -0.85 -6.05 -1.0 -6.25 -1.2 -6.45 -1.4 -6.55 -1.65 -6.7 -1.9 -6.75 -2.15 -6.85 -2.4 -6.85 -2.7 -6.85 -3.0 -6.8 -3.25 -6.75 -3.55 -6.65 -3.85 -6.55 -4.1 -6.4 -4.35 -6.2 -4.65 -5.95 -4.85 L-5.95 -4.85" fill="#ffffff" fill-rule="evenodd" stroke="none"/>
      <path d="M5.5 -0.25 Q5.65 -0.4 5.95 -0.75 6.3 -1.1 6.4 -1.25 6.45 -1.3 6.5 -1.3 6.5 -1.35 6.55 -1.35 6.6 -1.35 6.65 -1.35 6.65 -1.35 6.7 -1.35 6.9 -1.3 7.25 -1.25 7.6 -1.2 7.8 -1.15 7.75 -1.0 7.7 -0.85 7.65 -0.7 7.6 -0.55 7.55 -0.4 7.45 -0.25 7.4 -0.1 7.3 0.05 7.25 0.15 7.15 0.3 7.05 0.45 6.95 0.55 6.85 0.7 6.75 0.8 6.65 0.95 6.5 1.05 6.45 1.0 5.5 -0.25 L5.5 -0.25" fill="#ffffff" fill-rule="evenodd" stroke="none"/>
      <path d="M0.05 -5.85 Q0.25 -5.9 0.4 -6.0 0.6 -6.05 0.75 -6.1 0.95 -6.1 1.1 -6.15 1.3 -6.15 1.45 -6.2 1.65 -6.2 1.8 -6.2 1.95 -6.2 2.15 -6.15 2.3 -6.15 2.5 -6.1 2.65 -6.1 2.8 -6.05 2.75 -5.85 2.6 -5.45 2.45 -5.05 2.4 -4.85 2.3 -4.85 2.2 -4.9 2.15 -4.9 2.0 -4.9 2.0 -4.9 1.8 -4.95 1.7 -4.95 1.6 -4.95 1.5 -5.0 1.4 -5.0 1.3 -5.0 1.2 -5.05 1.1 -5.05 1.0 -5.1 0.9 -5.1 0.8 -5.15 0.7 -5.2 0.05 -5.85 L0.05 -5.85" fill="#ffffff" fill-rule="evenodd" stroke="none"/>
      <path d="M3.0 -6.05 Q3.15 -6.0 3.3 -5.9 3.4 -5.8 3.5 -5.65 3.6 -5.55 3.65 -5.45 3.75 -5.3 3.8 -5.15 3.85 -5.05 3.95 -4.9 3.95 -4.9 4.05 -4.6 4.15 -4.45 4.2 -4.3 4.25 -4.15 4.3 -4.05 4.0 -4.2 3.45 -4.45 2.9 -4.7 2.6 -4.85 2.65 -5.0 2.8 -5.35 2.9 -5.8 3.0 -6.05 L3.0 -6.05" fill="#ffffff" fill-rule="evenodd" stroke="none"/>
      <path d="M-8.15 -1.65 Q-8.15 -1.85 -8.1 -2.05 -8.05 -2.25 -8.0 -2.4 -7.95 -2.6 -7.85 -2.8 -7.75 -2.95 -7.65 -3.1 -7.6 -3.25 -7.45 -3.45 -7.35 -3.6 -7.2 -3.75 -7.1 -3.9 -6.95 -4.05 -6.8 -4.2 -6.65 -4.35 -6.95 -3.25 -6.95 -3.25 -6.95 -3.1 -7.0 -2.95 -7.05 -2.85 -7.1 -2.75 -7.15 -2.65 -7.25 -2.5 -7.3 -2.45 -7.4 -2.35 -7.5 -2.25 -7.6 -2.15 -7.65 -2.1 -7.8 -2.0 -7.9 -1.9 -7.95 -1.85 -8.1 -1.75 -8.15 -1.65 L-8.15 -1.65" fill="#ffffff" fill-rule="evenodd" stroke="none"/>
      <path d="M4.5 -5.75 Q4.7 -5.65 5.0 -5.4 5.4 -5.1 5.5 -5.05 5.4 -4.95 5.2 -4.55 5.15 -4.6 5.1 -4.7 5.05 -4.75 5.0 -4.85 4.95 -4.85 4.9 -4.95 4.8 -5.05 4.8 -5.1 4.7 -5.15 4.7 -5.25 4.65 -5.3 4.6 -5.35 4.55 -5.45 4.5 -5.5 4.45 -5.6 4.4 -5.65 4.45 -5.7 4.5 -5.75 L4.5 -5.75" fill="#ffffff" fill-rule="evenodd" stroke="none"/>
      <path d="M5.7 -1.65 Q5.75 -1.65 5.8 -1.6 5.8 -1.6 5.85 -1.6 5.85 -1.6 5.9 -1.55 5.9 -1.55 5.95 -1.55 6.0 -1.55 6.0 -1.55 6.05 -1.5 6.1 -1.5 6.1 -1.5 6.15 -1.5 6.2 -1.45 6.2 -1.45 6.15 -1.4 6.15 -1.35 6.1 -1.35 6.05 -1.3 6.05 -1.25 6.0 -1.2 5.95 -1.15 5.95 -1.1 5.9 -1.05 5.85 -1.0 5.85 -0.95 5.8 -0.9 5.8 -0.85 5.75 -0.85 5.75 -0.8 5.7 -0.75 5.7 -0.75 5.7 -0.75 5.65 -0.75 5.6 -0.75 5.6 -0.8 5.65 -0.9 5.65 -0.95 5.65 -1.0 5.7 -1.1 5.7 -1.15 5.7 -1.2 5.7 -1.25 5.7 -1.3 5.7 -1.35 5.7 -1.4 5.7 -1.45 5.7 -1.5 5.7 -1.55 5.7 -1.6 5.7 -1.65 L5.7 -1.65" fill="#ffffff" fill-rule="evenodd" stroke="none"/>
      <path d="M6.1 -4.15 Q5.9 -4.25 5.5 -4.45 5.55 -4.45 5.7 -4.85 5.75 -4.8 5.8 -4.75 5.8 -4.75 5.85 -4.7 5.85 -4.65 5.9 -4.6 5.95 -4.6 5.95 -4.55 5.95 -4.5 6.0 -4.45 6.0 -4.4 6.05 -4.35 6.05 -4.3 6.1 -4.25 6.1 -4.2 6.1 -4.15 6.1 -4.25 6.1 -4.15 L6.1 -4.15" fill="#ffffff" fill-rule="evenodd" stroke="none"/>
    </g>
  
</svg>
