<?xml version="1.0" encoding="UTF-8" standalone="no"?>
<svg xmlns:xlink="http://www.w3.org/1999/xlink" height="21.75px" width="22.0px" xmlns="http://www.w3.org/2000/svg">
  <g transform="matrix(1.0, 0.0, 0.0, 1.0, 11.0, 10.85)">
    <use data-characterId="11" height="21.75" transform="matrix(1.0, 0.0, 0.0, 1.0, -11.0, -10.85)" width="22.0" xlink:href="#shape0"/>
  </g>
  
    <g id="shape0" transform="matrix(1.0, 0.0, 0.0, 1.0, 11.0, 10.85)">
      <path d="M-0.9 -10.75 Q-0.3 -10.75 0.8 -10.75 0.8 -10.75 0.9 -10.75 1.05 -10.75 1.4 -10.7 1.75 -10.65 1.9 -10.65 2.05 -10.65 2.25 -10.6 2.4 -10.6 2.6 -10.55 2.75 -10.5 2.9 -10.45 3.1 -10.4 3.25 -10.35 3.4 -10.3 3.6 -10.25 3.75 -10.2 3.9 -10.15 4.1 -10.05 4.25 -10.0 4.45 -9.95 4.6 -9.85 4.75 -9.75 4.9 -9.7 5.05 -9.6 5.2 -9.55 5.35 -9.45 5.5 -9.35 5.65 -9.25 5.8 -9.2 5.95 -9.1 6.1 -9.0 6.2 -8.9 6.35 -8.8 6.5 -8.7 6.65 -8.6 6.75 -8.45 6.9 -8.35 8.2 -7.1 8.4 -6.75 8.55 -6.6 8.65 -6.4 8.75 -6.25 8.9 -6.1 9.0 -5.9 9.1 -5.75 9.2 -5.55 9.3 -5.4 9.4 -5.25 9.5 -5.05 9.6 -4.9 9.7 -4.7 9.75 -4.5 9.85 -4.35 9.9 -4.15 10.0 -3.95 10.1 -3.75 10.15 -3.55 10.2 -3.35 10.3 -3.15 10.35 -2.95 10.4 -2.75 10.45 -2.5 10.5 -2.3 10.55 -2.1 10.6 -1.9 10.6 -1.7 10.65 -1.5 10.65 -1.3 10.7 -1.1 10.7 -0.9 10.7 -0.65 10.7 -0.5 10.75 -0.3 10.75 -0.15 10.75 0.0 10.75 0.15 10.75 0.35 10.75 0.5 10.7 0.7 10.7 0.85 10.7 1.0 10.65 1.2 10.65 1.35 10.6 1.5 10.55 1.7 10.55 1.85 10.5 2.0 10.45 2.15 10.4 2.35 10.4 2.5 10.35 2.7 10.3 2.85 10.25 3.0 10.2 3.2 10.15 3.35 10.1 3.5 10.05 3.7 10.0 3.85 9.9 4.0 9.85 4.15 9.8 4.3 9.75 4.45 9.7 4.6 9.6 4.75 9.55 4.9 9.45 5.05 9.4 5.2 9.3 5.35 9.2 5.5 9.1 5.65 9.05 5.8 8.95 5.95 8.85 6.1 8.75 6.25 8.65 6.35 8.55 6.5 8.4 6.65 8.3 6.8 8.2 6.9 6.95 8.2 6.6 8.4 6.45 8.55 6.35 8.65 6.2 8.8 6.05 8.9 5.9 9.05 5.75 9.15 5.6 9.25 5.4 9.35 5.25 9.45 5.1 9.55 4.9 9.65 4.75 9.75 4.55 9.85 4.35 9.95 4.2 10.05 4.0 10.1 3.8 10.2 3.6 10.25 3.4 10.3 3.2 10.4 2.95 10.45 2.75 10.5 2.55 10.55 2.35 10.6 2.15 10.65 1.95 10.7 1.75 10.7 1.55 10.75 1.3 10.75 1.1 10.8 0.9 10.8 0.7 10.8 0.55 10.8 0.35 10.85 0.2 10.85 0.0 10.85 -0.15 10.85 -0.3 10.85 -0.5 10.85 -0.65 10.8 -0.8 10.8 -1.0 10.8 -1.15 10.75 -1.35 10.75 -1.5 10.7 -1.65 10.65 -1.85 10.65 -2.0 10.6 -2.2 10.55 -2.35 10.55 -2.5 10.5 -2.65 10.45 -2.85 10.4 -3.0 10.35 -3.2 10.3 -3.35 10.3 -3.5 10.25 -3.65 10.2 -3.85 10.1 -4.0 10.05 -4.15 10.0 -4.3 9.95 -4.45 9.9 -4.6 9.8 -4.75 9.7 -4.9 9.65 -5.05 9.55 -5.2 9.5 -5.35 9.4 -5.5 9.3 -5.65 9.2 -5.8 9.15 -5.95 9.05 -6.1 8.95 -6.2 8.85 -6.35 8.75 -6.5 8.65 -6.65 8.55 -6.75 8.4 -6.9 8.3 -8.2 7.05 -8.4 6.7 -8.55 6.55 -8.65 6.4 -8.75 6.25 -8.9 6.1 -9.0 5.95 -9.1 5.75 -9.2 5.6 -9.3 5.45 -9.4 5.25 -9.5 5.1 -9.6 4.9 -9.7 4.75 -9.75 4.55 -9.85 4.4 -9.9 4.2 -10.0 4.0 -10.6 2.2 -10.7 1.4 -10.75 1.15 -10.8 0.9 -10.8 0.05 -10.8 -0.75 -10.8 -0.8 -10.8 -0.85 -10.75 -1.35 -10.7 -1.85 -10.65 -2.05 -10.6 -2.2 -10.6 -2.4 -10.55 -2.6 -10.5 -2.75 -10.45 -2.9 -10.4 -3.1 -10.35 -3.25 -10.35 -3.4 -10.3 -3.6 -10.2 -3.75 -10.15 -3.9 -10.1 -4.05 -10.05 -4.25 -9.95 -4.4 -9.9 -4.55 -9.8 -4.7 -9.75 -4.85 -9.65 -5.0 -9.6 -5.15 -9.5 -5.3 -9.4 -5.45 -9.3 -5.6 -9.2 -5.75 -9.1 -5.9 -9.0 -6.05 -8.9 -6.2 -8.8 -6.3 -8.65 -6.45 -8.55 -6.6 -8.45 -6.75 -8.3 -6.85 -6.8 -8.35 -6.7 -8.45 -6.55 -8.55 -6.45 -8.65 -6.3 -8.8 -6.15 -8.9 -6.0 -9.0 -5.85 -9.1 -5.75 -9.2 -5.55 -9.3 -5.45 -9.35 -5.25 -9.45 -5.1 -9.55 -4.95 -9.65 -4.8 -9.7 -4.65 -9.8 -4.45 -9.9 -4.3 -9.95 -4.15 -10.05 -3.95 -10.1 -3.8 -10.15 -3.6 -10.25 -3.45 -10.3 -3.25 -10.35 -3.05 -10.4 -2.9 -10.45 -2.7 -10.5 -2.5 -10.55 -2.35 -10.6 -2.15 -10.65 -1.95 -10.7 -1.75 -10.7 -1.6 -10.75 -1.4 -10.75 -1.2 -10.75 -0.9 -10.75 L-0.9 -10.75 M-7.2 0.05 Q-7.2 0.8 -7.05 1.5 -6.9 2.2 -6.65 2.85 -6.35 3.5 -6.0 4.05 -5.6 4.65 -5.1 5.1 -4.6 5.6 -4.05 6.0 -3.45 6.4 -2.8 6.65 -2.15 6.9 -1.45 7.05 -0.75 7.2 0.0 7.2 0.75 7.2 1.45 7.05 2.15 6.9 2.8 6.65 3.45 6.35 4.05 6.0 4.6 5.6 5.1 5.1 5.6 4.6 6.0 4.05 6.35 3.45 6.65 2.85 6.9 2.2 7.05 1.5 7.2 0.75 7.2 0.05 7.2 -0.7 7.05 -1.4 6.9 -2.1 6.65 -2.75 6.35 -3.4 6.0 -4.0 5.6 -4.55 5.1 -5.05 4.6 -5.55 4.05 -5.95 3.45 -6.35 2.8 -6.6 2.15 -6.85 1.45 -7.0 0.75 -7.15 0.0 -7.15 -0.75 -7.15 -1.45 -7.0 -2.15 -6.85 -2.8 -6.6 -3.45 -6.3 -4.05 -5.95 -4.6 -5.55 -5.1 -5.05 -5.6 -4.55 -6.0 -4.0 -6.35 -3.4 -6.65 -2.8 -6.9 -2.15 -7.05 -1.45 -7.2 -0.7 -7.2 0.0 L-7.2 0.05" fill="#ffffff" fill-rule="evenodd" stroke="none"/>
      <path d="M3.6 0.05 Q3.6 0.4 3.55 0.75 3.45 1.1 3.3 1.45 3.2 1.75 3.0 2.05 2.8 2.35 2.55 2.55 2.3 2.8 2.0 3.0 1.75 3.2 1.4 3.35 1.1 3.45 0.75 3.55 0.35 3.6 0.0 3.6 -0.35 3.6 -0.75 3.55 -1.1 3.45 -1.4 3.35 -1.75 3.2 -2.0 3.0 -2.3 2.8 -2.55 2.55 -2.8 2.3 -3.0 2.05 -3.2 1.75 -3.3 1.45 -3.45 1.1 -3.55 0.75 -3.6 0.4 -3.6 0.05 -3.6 -0.3 -3.55 -0.7 -3.45 -1.05 -3.3 -1.35 -3.2 -1.7 -3.0 -2.0 -2.8 -2.25 -2.55 -2.5 -2.3 -2.75 -2.0 -2.95 -1.75 -3.15 -1.4 -3.3 -1.1 -3.4 -0.75 -3.5 -0.35 -3.55 0.0 -3.55 0.35 -3.55 0.75 -3.5 1.1 -3.4 1.4 -3.3 1.75 -3.15 2.0 -2.95 2.3 -2.75 2.55 -2.5 2.8 -2.25 3.0 -2.0 3.2 -1.7 3.3 -1.4 3.45 -1.05 3.55 -0.7 3.6 -0.35 3.6 0.0 L3.6 0.05" fill="#ffffff" fill-rule="evenodd" stroke="none"/>
    </g>
  
</svg>
