<?xml version="1.0" encoding="UTF-8" standalone="no"?>
<svg xmlns:xlink="http://www.w3.org/1999/xlink" height="32.1px" width="31.95px" xmlns="http://www.w3.org/2000/svg">
  <g transform="matrix(1.0, 0.0, 0.0, 1.0, 15.95, 16.05)">
    <use data-characterId="44" height="32.1" transform="matrix(1.0, 0.0, 0.0, 1.0, -15.95, -16.05)" width="31.95" xlink:href="#shape0"/>
  </g>
  
    <g id="shape0" transform="matrix(1.0, 0.0, 0.0, 1.0, 15.95, 16.05)">
      <path d="M10.4 3.05 Q12.0 4.65 15.0 7.65 L14.8 7.65 Q-0.1 7.65 -14.95 7.65 -14.7 7.3 -14.45 7.0 -14.2 6.65 -13.95 6.35 -13.7 6.05 -13.45 5.8 -13.15 5.5 -12.9 5.2 -12.6 4.95 -12.35 4.65 -12.05 4.4 -11.75 4.15 -11.45 3.9 -11.1 3.65 -10.8 3.4 -10.45 3.15 -10.9 2.4 -14.25 -3.55 -14.25 -3.6 -14.25 -3.65 -14.3 -3.7 -14.3 -3.7 -14.35 -3.75 -14.4 -3.75 -14.4 -3.8 -14.45 -3.8 -14.45 -3.8 -14.45 -3.85 -14.45 -3.95 -14.45 -4.45 -14.4 -4.4 -14.35 -4.4 -14.35 -4.35 -14.3 -4.35 -14.25 -4.3 -14.2 -4.3 -14.15 -4.3 -14.1 -4.25 -14.1 -4.25 -14.05 -4.25 -14.0 -4.2 -13.95 -4.2 -13.9 -4.2 -13.9 -4.2 -13.85 -4.15 -13.85 -4.15 -13.8 -4.05 -11.15 0.35 -10.15 2.0 -9.75 2.75 -9.4 2.55 -7.95 1.75 -8.2 1.2 -8.7 -0.05 -9.25 -1.3 -9.55 -1.95 -10.7 -4.95 -10.95 -5.65 -10.95 -5.65 -10.95 -6.35 -10.9 -6.3 -10.85 -6.3 -10.85 -6.25 -10.8 -6.2 -10.75 -6.2 -10.7 -6.15 -10.6 -6.1 -10.6 -6.1 -10.55 -6.05 -10.55 -6.05 -10.5 -6.0 -10.45 -6.0 -10.45 -5.95 -10.4 -5.9 -10.4 -5.9 -10.35 -5.85 -9.8 -4.8 -8.75 -2.5 -7.75 -0.3 -7.15 0.85 -7.2 0.8 -7.1 0.9 -7.1 0.9 -7.1 0.95 -7.05 0.95 -7.05 0.95 -7.05 1.0 -7.0 1.0 -7.0 1.05 -7.0 1.05 -7.0 1.1 -7.0 1.1 -6.95 1.15 -6.95 1.2 -6.95 1.2 -6.95 1.25 -6.7 1.2 -6.45 1.15 -6.2 1.1 -6.0 1.0 -5.75 0.95 -5.55 0.9 -5.3 0.85 -5.05 0.8 -4.85 0.7 -4.6 0.65 -4.35 0.55 -4.15 0.5 -3.9 0.4 -3.65 0.35 -3.4 0.25 -3.15 0.15 -3.25 -0.3 -3.45 -1.6 -3.6 -2.85 -3.75 -3.55 -4.35 -7.35 -4.35 -7.65 -4.35 -7.7 -4.35 -7.75 -4.35 -7.8 -4.3 -7.85 -4.3 -7.9 -4.3 -7.95 -4.25 -8.0 -4.25 -8.05 -4.2 -8.1 -4.2 -8.1 -4.2 -8.15 -4.2 -8.2 -4.15 -8.25 -4.15 -8.25 -4.15 -8.25 -4.2 -8.3 -4.15 -8.25 -4.1 -8.2 -4.05 -8.2 -4.0 -8.15 -4.2 -8.25 -3.95 -8.05 -3.9 -8.0 -3.85 -8.0 -3.8 -7.95 -3.8 -7.9 -3.75 -7.9 -3.7 -7.85 -3.7 -7.8 -3.7 -7.75 -3.65 -7.7 -3.65 -7.65 -2.65 -2.55 -2.05 0.15 -0.05 0.15 1.9 0.15 1.95 0.15 2.0 0.15 2.0 0.1 2.05 0.05 2.05 0.05 2.1 0.0 2.1 -0.05 2.15 -0.1 2.15 -0.15 2.2 -0.2 2.2 -0.25 2.2 -0.3 2.2 -0.35 2.2 -0.4 2.2 -0.45 2.2 -0.45 2.45 -1.6 2.85 -3.85 3.3 -6.2 3.5 -7.25 3.5 -7.35 3.5 -7.3 3.5 -7.35 3.5 -7.4 3.5 -7.4 3.55 -7.45 3.55 -7.45 3.55 -7.5 3.55 -7.55 3.55 -7.55 3.6 -7.6 3.6 -7.6 3.6 -7.65 3.65 -7.7 3.7 -7.7 3.7 -7.75 3.75 -7.8 3.8 -7.85 3.8 -7.9 3.85 -7.95 3.9 -8.0 3.9 -8.05 3.95 -8.1 3.95 -8.1 4.0 -8.15 4.0 -8.2 4.05 -8.25 4.1 -8.25 4.1 -8.3 4.15 -8.3 4.2 -8.35 4.2 -8.35 4.25 -8.3 4.3 -8.25 4.3 -8.25 4.35 -8.2 4.35 -8.15 4.4 -8.1 4.4 -8.05 4.45 -8.0 4.45 -7.95 4.45 -7.95 4.5 -7.9 4.5 -7.85 4.5 -7.8 4.5 -7.8 4.5 -7.75 4.5 -7.75 3.85 -3.3 3.7 -2.15 3.6 -1.8 3.45 -0.95 3.35 -0.2 3.2 0.25 3.6 0.35 5.0 0.8 6.2 1.2 6.9 1.35 7.45 0.25 8.35 -1.85 9.35 -4.05 9.8 -5.05 9.85 -5.1 9.85 -5.15 9.9 -5.25 9.95 -5.3 9.95 -5.35 10.0 -5.45 10.0 -5.5 10.05 -5.6 10.1 -5.7 10.1 -5.75 10.15 -5.85 10.15 -5.9 10.2 -5.95 10.25 -6.05 10.25 -6.1 10.3 -6.15 10.3 -6.2 10.3 -6.2 10.35 -6.25 10.35 -6.25 10.4 -6.3 10.4 -6.3 10.45 -6.3 10.5 -6.35 10.5 -6.35 10.55 -6.35 9.9 -6.15 10.65 -6.4 10.7 -6.4 10.75 -6.4 10.75 -6.45 10.8 -6.45 10.8 -6.4 10.8 -6.4 10.8 -6.35 10.85 -6.3 10.85 -6.3 10.85 -6.25 10.9 -6.25 10.9 -6.2 10.95 -6.15 10.95 -6.15 10.95 -6.1 11.0 -6.1 11.0 -6.05 11.0 -6.0 11.0 -6.0 11.0 -5.95 10.45 -4.4 10.0 -3.55 9.65 -2.5 9.0 -0.9 8.05 1.4 7.9 1.75 8.35 1.95 9.7 2.75 11.2 0.3 11.5 -0.15 11.9 -0.85 12.7 -2.15 13.55 -3.55 13.9 -4.15 13.95 -4.2 14.0 -4.2 14.0 -4.25 14.05 -4.3 14.1 -4.3 14.15 -4.35 14.25 -4.4 14.25 -4.4 14.3 -4.45 14.3 -4.45 14.35 -4.5 14.4 -4.5 14.45 -4.55 14.45 -4.6 14.5 -4.6 14.5 -4.65 14.5 -4.35 14.5 -3.85 13.95 -2.8 12.75 -0.75 11.55 1.3 11.0 2.35 10.9 2.4 10.85 2.45 10.75 2.5 10.7 2.55 10.65 2.6 10.6 2.65 10.55 2.7 10.5 2.75 10.5 2.8 10.45 2.8 10.45 2.85 10.45 2.9 10.4 2.95 10.4 2.95 10.4 3.0 10.4 3.05 L10.4 3.05 M-13.65 6.95 Q-13.65 7.05 -13.65 7.1 -13.65 7.15 -13.6 7.15 -13.55 7.2 -13.45 7.25 -13.3 7.2 -13.15 7.2 -13.0 7.15 -12.85 7.1 -12.85 7.1 -12.55 7.05 -12.35 7.0 -12.25 7.0 -12.1 6.95 -11.95 6.9 -11.8 6.9 -11.65 6.85 -11.5 6.8 -11.35 6.75 -11.2 6.7 -11.05 6.65 -10.65 6.5 -10.3 6.4 -9.9 6.3 -9.5 6.2 -9.15 6.15 -8.75 6.1 -8.4 6.05 -8.05 6.1 -7.65 6.1 -7.3 6.15 -6.95 6.2 -6.6 6.3 -6.25 6.4 -5.9 6.5 -5.5 6.65 -5.15 6.85 -5.0 6.95 -4.85 7.0 -4.7 7.1 -4.6 7.15 -4.45 7.2 -4.35 7.2 -4.2 7.25 -4.05 7.25 -3.95 7.25 -3.8 7.2 -3.65 7.2 -3.55 7.15 -3.4 7.1 -3.25 7.0 -3.1 6.95 -2.95 6.85 -2.55 6.65 -2.15 6.5 -1.8 6.35 -1.4 6.25 -1.0 6.15 -0.65 6.1 -0.25 6.0 0.1 6.0 0.5 6.0 0.85 6.1 1.25 6.15 1.6 6.25 2.0 6.35 2.35 6.5 2.75 6.65 3.1 6.85 3.25 6.95 3.4 7.0 3.55 7.1 3.7 7.15 3.8 7.2 3.95 7.2 4.1 7.25 4.2 7.25 4.35 7.25 4.5 7.2 4.6 7.2 4.75 7.15 4.9 7.1 5.05 7.0 5.15 6.95 5.3 6.85 5.65 6.65 6.05 6.5 6.4 6.35 6.75 6.25 7.15 6.15 7.5 6.1 7.9 6.0 8.25 6.0 8.65 6.0 9.0 6.1 9.4 6.15 9.75 6.25 10.1 6.35 10.5 6.5 10.85 6.65 11.2 6.85 11.35 6.95 11.5 7.0 11.65 7.05 11.8 7.1 11.95 7.15 12.1 7.15 12.25 7.2 12.4 7.2 12.55 7.2 12.7 7.2 12.8 7.2 13.0 7.15 13.25 7.15 13.3 7.15 13.45 7.15 13.6 7.15 13.25 6.75 12.9 6.4 12.55 6.0 12.2 5.65 11.85 5.3 11.5 5.0 11.1 4.65 10.75 4.35 10.35 4.05 10.0 3.8 9.6 3.5 9.2 3.25 8.8 3.0 8.35 2.8 7.95 2.55 7.5 2.35 7.4 2.4 7.35 2.45 7.25 2.5 7.15 2.55 7.1 2.6 7.0 2.7 6.95 2.75 6.9 2.8 6.85 2.8 6.75 2.9 6.7 2.95 6.65 3.0 6.6 3.05 6.55 3.05 6.45 3.1 6.4 3.15 6.4 3.05 6.4 2.95 6.4 2.9 6.4 2.8 6.35 2.75 6.35 2.65 6.35 2.6 6.3 2.5 6.3 2.45 6.25 2.3 6.2 2.2 6.2 2.15 6.2 2.05 6.15 1.95 6.15 1.85 6.1 1.75 6.15 1.75 4.55 1.3 3.55 1.0 2.8 0.75 2.75 0.85 2.75 0.95 2.7 1.05 2.7 1.2 2.7 1.3 2.65 1.4 2.65 1.5 2.65 1.6 2.6 1.65 2.6 1.8 2.6 1.9 2.6 1.95 2.55 2.1 2.55 2.15 2.55 2.25 2.5 2.35 2.55 2.25 2.45 2.45 2.4 2.5 2.4 2.55 2.35 2.6 2.3 2.65 2.3 2.7 2.25 2.75 2.2 2.75 2.2 2.8 2.15 2.85 2.1 2.85 2.05 2.9 2.05 2.9 2.0 2.95 1.9 2.95 1.85 2.9 1.85 2.85 1.8 2.8 1.8 2.75 1.75 2.65 1.75 2.6 1.7 2.55 1.7 2.5 1.7 2.45 1.65 2.4 1.65 2.35 1.65 2.3 1.65 2.25 1.65 2.25 1.6 2.2 1.6 2.15 1.6 1.9 1.7 1.4 1.8 0.95 1.8 0.75 -0.2 0.75 -2.15 0.75 -2.1 0.85 -2.1 0.95 -2.05 1.05 -2.05 1.2 -2.05 1.3 -2.0 1.4 -2.0 1.5 -2.0 1.6 -1.95 1.65 -1.95 1.8 -1.95 1.9 -1.95 1.95 -1.9 2.1 -1.9 2.15 -1.9 2.25 -1.85 2.35 -1.85 2.4 -1.85 2.45 -1.9 2.5 -1.9 2.55 -1.9 2.6 -1.95 2.65 -1.95 2.7 -2.0 2.75 -2.0 2.75 -2.05 2.85 -2.05 2.9 -2.1 2.95 -2.1 3.0 -2.15 3.05 -2.15 3.1 -2.15 3.15 -2.15 3.1 -2.15 3.1 -2.2 3.05 -2.2 3.0 -2.25 3.0 -2.25 2.95 -2.3 2.95 -2.35 2.9 -2.4 2.8 -2.4 2.8 -2.45 2.8 -2.5 2.75 -2.55 2.7 -2.6 2.65 -2.65 2.6 -2.65 2.55 -2.75 2.35 -2.95 0.95 -3.2 1.0 -3.45 1.05 -3.7 1.1 -3.9 1.2 -4.15 1.25 -4.35 1.3 -4.55 1.35 -4.75 1.4 -5.0 1.45 -5.15 1.55 -5.35 1.6 -5.55 1.65 -5.75 1.75 -5.9 1.8 -6.1 1.9 -6.25 1.95 -6.3 2.05 -6.3 2.15 -6.35 2.25 -6.4 2.3 -6.4 2.4 -6.4 2.5 -6.45 2.6 -6.45 2.7 -6.45 2.75 -6.5 2.85 -6.5 2.95 -6.5 3.0 -6.5 3.05 -6.55 3.15 -6.55 3.2 -6.55 3.25 -6.7 3.15 -7.05 3.0 -7.4 2.8 -7.65 2.65 -8.1 2.8 -8.5 3.0 -8.9 3.15 -9.35 3.4 -9.75 3.6 -10.15 3.85 -10.55 4.1 -10.9 4.4 -11.3 4.65 -11.65 4.95 -12.0 5.25 -12.35 5.6 -12.7 5.9 -13.05 6.25 -13.35 6.6 -13.65 6.95 L-13.65 6.95" fill="#ffffff" fill-rule="evenodd" stroke="none"/>
      <path d="M1.3 0.95 L1.3 1.95 1.3 2.55 Q1.3 2.6 1.3 2.65 1.35 2.7 1.35 2.75 1.35 2.8 1.4 2.85 1.4 2.9 1.45 2.95 1.45 2.95 1.5 3.0 1.5 3.05 1.55 3.1 1.55 3.1 1.6 3.15 1.6 3.15 1.6 3.15 1.65 3.2 1.7 3.2 1.75 3.25 1.8 3.25 1.8 3.25 1.85 3.25 1.9 3.25 1.95 3.25 2.0 3.2 2.0 3.2 2.05 3.2 2.05 3.2 2.1 3.15 2.1 3.15 2.1 3.15 2.1 3.15 2.15 3.15 2.2 3.15 2.25 3.1 2.3 3.05 2.3 3.05 2.35 3.0 2.35 2.95 2.4 2.95 2.4 2.9 2.4 2.85 2.4 2.85 2.4 2.85 2.4 2.85 2.4 2.9 2.5 2.6 2.6 2.25 2.6 2.05 2.9 1.15 3.25 1.25 3.95 1.4 4.7 1.55 5.0 1.65 5.1 1.7 5.8 1.95 L6.0 2.15 Q6.0 2.25 6.1 2.75 6.2 3.2 6.2 3.25 6.2 3.3 6.2 3.3 6.25 3.35 6.25 3.4 6.25 3.4 6.3 3.45 6.3 3.45 6.35 3.45 6.4 3.5 6.4 3.5 6.45 3.5 6.5 3.5 6.55 3.5 6.6 3.5 6.65 3.45 6.7 3.45 6.75 3.4 6.8 3.35 6.9 3.3 6.95 3.25 7.0 3.2 7.05 3.15 7.1 3.1 7.15 3.1 7.25 3.05 7.3 3.0 7.35 2.95 7.45 2.95 7.5 2.9 7.55 2.9 7.65 2.85 7.7 2.85 7.95 2.95 8.2 3.05 9.55 3.85 9.8 4.05 10.7 4.6 10.8 4.65 11.0 4.85 11.8 5.45 12.3 5.95 13.4 7.05 L13.6 7.25 13.6 7.25 Q13.55 7.25 13.5 7.25 13.45 7.25 13.4 7.25 13.35 7.25 13.3 7.25 13.25 7.25 13.2 7.25 13.15 7.2 13.1 7.2 13.05 7.2 13.0 7.15 12.95 7.15 12.9 7.1 12.85 7.1 12.8 7.05 12.7 7.0 12.6 7.0 12.5 6.95 12.4 6.9 12.35 6.9 12.2 6.85 12.1 6.8 12.0 6.8 11.9 6.75 11.8 6.7 11.7 6.7 11.6 6.65 11.5 6.6 11.4 6.55 11.3 6.5 11.2 6.45 11.2 6.45 10.2 5.95 10.1 5.9 10.0 5.9 9.95 5.85 9.85 5.85 9.8 5.8 9.7 5.8 9.65 5.8 9.55 5.8 9.5 5.75 9.4 5.75 9.35 5.75 9.25 5.75 9.2 5.75 9.1 5.75 9.05 5.75 8.9 5.75 8.75 5.75 8.6 5.75 8.45 5.75 8.3 5.8 8.15 5.8 8.0 5.85 7.85 5.85 7.7 5.9 7.55 5.9 7.4 5.95 7.25 6.0 7.1 6.05 6.95 6.1 6.8 6.15 6.65 6.2 6.5 6.25 6.45 6.3 5.5 6.75 5.4 6.8 5.3 6.85 5.2 6.9 5.1 6.9 4.95 6.95 4.9 6.95 4.8 7.0 4.7 7.0 4.6 7.0 4.5 6.95 4.4 6.95 4.3 6.9 4.2 6.9 4.1 6.85 4.0 6.8 3.9 6.75 3.75 6.65 3.6 6.55 3.45 6.5 3.3 6.4 3.15 6.35 3.0 6.25 2.85 6.2 2.7 6.15 2.55 6.1 2.4 6.0 2.25 5.95 2.1 5.9 1.95 5.85 1.8 5.85 1.7 5.8 1.5 5.75 1.4 5.7 1.25 5.7 1.15 5.65 1.05 5.65 0.9 5.6 0.75 5.6 0.65 5.6 0.5 5.6 0.35 5.6 0.25 5.6 0.1 5.6 -0.05 5.65 -0.15 5.65 -0.3 5.7 -0.45 5.7 -0.55 5.75 -0.7 5.8 -0.85 5.85 -1.0 5.85 -1.15 5.9 -1.3 5.95 -1.45 6.0 -1.6 6.1 -1.75 6.15 -1.9 6.2 -2.05 6.25 -2.2 6.35 -2.35 6.4 -2.5 6.5 -2.65 6.55 -2.8 6.65 -2.95 6.75 -3.05 6.8 -3.2 6.85 -3.3 6.9 -3.4 6.9 -3.5 6.95 -3.6 6.95 -3.7 7.0 -3.8 7.0 -3.9 7.0 -4.0 6.95 -4.1 6.95 -4.2 6.9 -4.3 6.9 -4.4 6.85 -4.45 6.8 -4.55 6.75 -4.7 6.75 -4.85 6.75 -4.95 6.7 -5.1 6.7 -5.2 6.65 -5.3 6.6 -5.4 6.6 -5.5 6.55 -5.55 6.5 -5.65 6.45 -4.75 6.95 -5.8 6.35 -5.9 6.25 -6.0 6.25 -6.1 6.2 -6.15 6.15 -6.25 6.1 -6.35 6.1 -6.45 6.05 -6.55 6.05 -6.65 6.0 -6.8 6.0 -6.9 6.0 -7.0 5.95 -7.1 5.95 -7.2 5.95 -7.3 5.95 -7.35 5.95 -7.45 5.95 -7.55 5.95 -7.6 5.95 -7.65 5.95 -8.45 6.0 -9.25 6.05 -9.75 6.05 -11.85 6.85 -12.1 6.9 -12.75 6.95 -13.3 7.0 -13.45 7.05 L-12.95 6.55 Q-12.9 6.5 -12.85 6.45 -12.85 6.4 -12.75 6.35 -12.75 6.3 -12.65 6.25 -12.3 5.9 -12.55 6.15 -12.5 6.1 -12.45 6.05 -12.4 6.0 -12.4 5.95 -12.35 5.9 -12.3 5.85 -12.25 5.8 -12.25 5.75 -12.15 5.65 -12.05 5.55 -11.95 5.45 -11.85 5.4 -11.8 5.35 -11.7 5.25 -11.65 5.2 -11.55 5.15 -11.35 5.0 -11.35 5.0 -11.25 4.95 -11.15 4.85 -11.05 4.8 -10.95 4.7 -10.8 4.55 -10.65 4.45 -10.6 4.35 -10.55 4.3 -10.45 4.2 -10.4 4.15 -10.3 4.05 -10.2 4.0 -10.1 3.95 -10.0 3.9 -9.95 3.8 -9.8 3.75 -9.75 3.7 -9.6 3.65 -10.05 3.85 -9.4 3.55 -9.25 3.5 -9.15 3.45 -9.1 3.4 -9.05 3.4 -9.05 3.35 -9.0 3.35 -8.95 3.3 -8.9 3.3 -8.85 3.25 -8.8 3.25 -8.75 3.2 -8.7 3.2 -8.65 3.2 -8.65 3.15 -8.6 3.15 -8.55 3.1 -8.5 3.1 -8.45 3.05 -8.4 3.05 -8.35 3.05 -8.3 3.0 -8.25 3.0 -8.2 2.95 -8.15 2.95 -8.1 2.9 -8.0 2.85 -7.95 2.8 -7.9 2.8 -7.85 2.75 -7.85 2.75 -7.8 2.75 -7.75 2.75 -7.7 2.75 -7.65 2.75 -7.55 2.75 -6.85 3.45 -6.8 3.5 -6.8 3.5 -6.75 3.55 -6.75 3.55 -6.7 3.55 -6.7 3.55 -6.65 3.5 -6.65 3.5 -6.6 3.5 -6.6 3.45 -6.6 3.45 -6.6 3.4 -6.55 3.35 -6.55 3.3 -6.55 3.3 -6.55 3.25 -6.5 3.2 -6.5 3.15 -6.45 3.05 -6.45 3.0 -6.4 2.95 -6.4 2.85 -6.35 2.8 -6.35 2.7 -6.3 2.65 -6.3 2.6 -6.3 2.5 -6.3 2.45 -6.25 2.4 -6.25 2.35 -6.25 2.3 -6.25 2.25 L-6.05 2.05 Q-5.8 1.95 -5.25 1.8 -4.7 1.65 -4.45 1.55 -4.05 1.45 -3.65 1.35 -3.4 1.25 -3.15 1.15 -3.15 1.2 -3.15 1.25 -3.15 1.35 -3.15 1.4 -3.1 1.45 -3.1 1.55 -3.1 1.6 -3.05 1.7 -3.05 1.8 -3.05 1.85 -3.0 1.95 -3.0 2.0 -3.0 2.05 -3.0 2.15 -2.95 2.2 -2.95 2.25 -2.8 2.55 -2.65 2.85 L-2.35 3.15 Q-2.25 3.15 -2.25 3.15 -2.2 3.15 -2.2 3.1 -2.15 3.1 -2.15 3.0 -2.1 3.0 -2.05 2.85 -2.0 2.8 -1.95 2.75 -1.9 2.75 -1.9 2.7 -1.85 2.65 -1.85 2.6 -1.8 2.55 -1.8 2.5 -1.8 2.45 -1.8 2.45 -1.8 2.4 -1.8 2.35 -1.75 2.35 -1.75 2.3 -1.75 2.3 -1.75 2.25 -1.75 2.25 -1.75 1.95 L-1.95 0.95 Q-1.95 0.9 -1.95 0.85 -1.9 0.85 -1.85 0.85 -1.8 0.85 -1.75 0.9 -1.65 0.9 -1.6 0.95 -1.5 0.95 -1.45 0.95 L1.3 0.95 1.3 0.95" fill="#ffffff" fill-rule="evenodd" stroke="none"/>
    </g>
  
</svg>
