<?xml version="1.0" encoding="UTF-8" standalone="no"?>
<svg xmlns:xlink="http://www.w3.org/1999/xlink" height="20.5px" width="20.5px" xmlns="http://www.w3.org/2000/svg">
  <g transform="matrix(1.0, 0.0, 0.0, 1.0, 10.25, 10.25)">
    <use data-characterId="182" height="20.5" transform="matrix(1.0, 0.0, 0.0, 1.0, -10.25, -10.25)" width="20.5" xlink:href="#shape0"/>
  </g>
  
    <g id="shape0" transform="matrix(1.0, 0.0, 0.0, 1.0, 10.25, 10.25)">
      <path d="M-8.35 3.35 Q-7.1 3.35 -5.85 3.35 -5.85 0.15 -5.85 -3.05 -5.25 -3.05 -4.65 -3.05 -4.65 -3.05 -4.65 -3.1 -4.7 -3.15 -4.75 -3.15 -5.55 -4.35 -5.85 -4.95 -5.85 -5.0 -5.85 -5.05 -5.85 -5.85 -5.85 -6.65 -5.85 -6.65 -5.85 -6.65 -4.6 -6.65 -3.35 -6.65 -3.35 -8.15 -3.35 -9.65 -3.15 -9.65 -2.95 -9.65 -2.95 -8.15 -2.95 -6.65 -1.8 -6.65 -0.65 -6.65 -0.65 -6.6 -0.65 -6.55 -0.65 -5.8 -0.65 -5.05 -0.65 -5.0 -0.65 -4.95 -0.75 -4.85 -0.85 -4.7 -0.95 -4.6 -1.05 -4.5 -1.15 -4.4 -1.25 -4.25 -1.35 -4.15 -1.4 -4.05 -1.5 -3.95 -1.6 -3.8 -1.65 -3.7 -1.75 -3.6 -1.8 -3.5 -1.9 -3.35 -1.95 -3.3 -2.05 -3.15 -2.05 -3.1 -2.05 -3.05 -1.4 -3.05 -0.75 -3.05 -0.75 0.15 -0.75 3.35 0.05 3.35 0.85 3.35 0.85 2.6 0.85 1.85 3.6 1.85 6.35 1.85 6.35 2.6 6.35 3.35 7.35 3.35 8.35 3.35 8.35 6.2 8.35 9.05 9.1 9.05 9.85 9.05 9.85 9.45 9.85 9.85 0.1 9.85 -9.65 9.85 -9.65 9.5 -9.65 9.15 -9.0 9.15 -8.35 9.15 -8.35 6.25 -8.35 3.35 L-8.35 3.35 M-7.95 8.95 Q-2.55 8.95 2.85 8.95 2.85 7.65 2.85 6.35 3.8 6.35 4.75 6.35 4.75 7.65 4.75 8.95 6.35 8.95 7.95 8.95 7.95 6.4 7.95 3.85 0.0 3.85 -7.95 3.85 -7.95 6.4 -7.95 8.95 L-7.95 8.95 M-5.35 0.65 Q-5.35 1.95 -5.35 3.25 -3.35 3.25 -1.35 3.25 -1.35 1.95 -1.35 0.65 -3.35 0.65 -5.35 0.65 L-5.35 0.65 M5.75 3.35 Q5.75 2.95 5.75 2.55 5.75 2.45 5.65 2.45 3.6 2.45 1.55 2.45 1.45 2.45 1.35 2.45 1.35 2.9 1.35 3.35 3.55 3.35 5.75 3.35 L5.75 3.35 M-1.35 -2.55 Q-3.35 -2.55 -5.35 -2.55 -5.35 -2.1 -5.35 -1.65 -3.35 -1.65 -1.35 -1.65 -1.35 -2.1 -1.35 -2.55 L-1.35 -2.55 M-5.35 -5.15 Q-3.35 -5.15 -1.35 -5.15 -1.35 -5.55 -1.35 -5.95 -3.35 -5.95 -5.35 -5.95 -5.35 -5.55 -5.35 -5.15 L-5.35 -5.15 M-5.35 -0.05 Q-3.35 -0.05 -1.35 -0.05 -1.35 -0.4 -1.35 -0.75 -3.35 -0.75 -5.35 -0.75 -5.35 -0.4 -5.35 -0.05 L-5.35 -0.05" fill="#ffffff" fill-rule="evenodd" stroke="none"/>
      <path d="M-2.95 6.35 Q-2.95 7.3 -2.95 8.25 -5.1 8.25 -7.25 8.25 -7.25 7.3 -7.25 6.35 -5.1 6.35 -2.95 6.35 L-2.95 6.35" fill="#ffffff" fill-rule="evenodd" stroke="none"/>
      <path d="M-2.15 8.25 Q-2.15 7.3 -2.15 6.35 0.0 6.35 2.15 6.35 2.15 7.3 2.15 8.25 0.0 8.25 -2.15 8.25 L-2.15 8.25" fill="#ffffff" fill-rule="evenodd" stroke="none"/>
      <path d="M7.15 8.25 Q6.2 8.25 5.25 8.25 5.25 7.3 5.25 6.35 6.2 6.35 7.15 6.35 7.15 7.3 7.15 8.25 L7.15 8.25" fill="#ffffff" fill-rule="evenodd" stroke="none"/>
      <path d="M-2.15 5.45 Q-2.15 5.15 -2.15 4.85 0.0 4.85 2.15 4.85 2.15 5.15 2.15 5.45 0.0 5.45 -2.15 5.45 L-2.15 5.45" fill="#ffffff" fill-rule="evenodd" stroke="none"/>
      <path d="M-2.95 4.85 Q-2.95 5.15 -2.95 5.45 -5.1 5.45 -7.25 5.45 -7.25 5.2 -7.25 4.95 -7.2 4.95 -7.15 4.95 -7.1 4.95 -7.05 4.95 -5.0 4.95 -2.95 4.95 -2.95 4.9 -2.95 4.85 L-2.95 4.85" fill="#ffffff" fill-rule="evenodd" stroke="none"/>
      <path d="M7.15 4.85 Q7.15 5.15 7.15 5.45 5.0 5.45 2.85 5.45 2.85 5.15 2.85 4.85 5.0 4.85 7.15 4.85 L7.15 4.85" fill="#ffffff" fill-rule="evenodd" stroke="none"/>
    </g>
  
</svg>
