<?xml version="1.0" encoding="UTF-8" standalone="no"?>
<svg xmlns:xlink="http://www.w3.org/1999/xlink" height="21.2px" width="20.4px" xmlns="http://www.w3.org/2000/svg">
  <g transform="matrix(1.0, 0.0, 0.0, 1.0, 10.2, 10.6)">
    <use data-characterId="226" height="21.2" transform="matrix(1.0, 0.0, 0.0, 1.0, -10.2, -10.6)" width="20.4" xlink:href="#shape0"/>
  </g>
  
    <g id="shape0" transform="matrix(1.0, 0.0, 0.0, 1.0, 10.2, 10.6)">
      <path d="M6.8 9.9 Q5.1 9.9 3.4 9.9 3.4 9.75 3.4 9.6 3.4 3.45 3.4 -2.7 3.4 -2.75 3.4 -2.8 3.4 -2.8 3.4 -2.85 3.4 -2.9 3.45 -2.95 3.45 -2.95 3.5 -3.0 3.5 -3.05 3.5 -3.1 3.5 -3.1 3.5 -3.15 3.5 -3.2 3.55 -3.25 3.55 -3.25 3.6 -3.3 3.6 -3.35 3.6 -3.35 3.6 -3.4 3.6 -3.45 3.6 -3.45 3.6 -3.5 3.6 -3.5 3.6 -3.55 3.6 -3.6 3.6 -3.6 3.65 -3.65 3.65 -3.65 3.65 -3.7 3.65 -3.75 3.7 -3.75 3.7 -3.8 3.75 -4.45 3.8 -5.1 5.25 -5.1 6.7 -5.1 6.7 -4.7 6.7 -4.3 6.7 -4.15 6.7 -4.0 6.75 -3.85 6.8 -3.7 6.8 -3.7 6.8 -3.7 6.8 -3.65 6.8 -3.6 6.8 -3.4 6.8 -3.2 6.8 -3.15 6.8 -3.15 6.8 -3.15 6.8 -3.1 6.8 -3.1 6.8 -3.1 6.8 -3.05 6.8 -3.05 6.8 -3.0 6.8 -3.0 6.85 -2.95 6.85 -2.95 6.85 -2.9 6.85 -2.85 6.9 -2.85 6.9 -2.8 6.9 -2.8 6.9 -2.75 6.9 -2.75 6.9 -2.7 6.8 1.5 6.8 9.9 L6.8 9.9 Z" fill="none" stroke="#ffffff" stroke-linecap="round" stroke-linejoin="round" stroke-width="0.5"/>
      <path d="M-3.5 9.9 Q-5.15 9.9 -6.8 9.9 -6.8 9.75 -6.8 9.6 -6.8 3.5 -6.8 -2.6 -6.8 -2.6 -6.8 -2.65 -6.8 -2.65 -6.8 -2.7 -6.8 -2.7 -6.8 -2.7 -6.8 -2.75 -6.8 -2.75 -6.8 -2.8 -6.8 -2.8 -6.75 -2.85 -6.75 -2.85 -6.75 -2.9 -6.75 -2.95 -6.7 -2.95 -6.7 -3.0 -6.7 -3.05 -6.7 -3.05 -6.7 -3.1 -6.7 -3.15 -6.7 -3.2 -6.65 -3.2 -6.65 -3.25 -6.6 -3.3 -6.6 -3.35 -6.6 -3.4 -6.6 -3.55 -6.6 -3.7 -6.6 -3.75 -6.6 -3.75 -6.6 -3.8 -6.6 -3.85 -6.6 -3.9 -6.55 -3.9 -6.55 -3.95 -6.5 -4.0 -6.5 -4.1 -6.5 -4.2 -6.5 -4.7 -6.5 -5.2 -5.05 -5.2 -3.6 -5.2 -3.6 -4.95 -3.6 -4.7 -3.6 -4.4 -3.6 -4.1 -3.55 -3.85 -3.5 -3.6 -3.5 -3.55 -3.5 -3.5 -3.5 -3.45 -3.5 -3.45 -3.5 -3.4 -3.5 -3.35 -3.5 -3.3 -3.5 -3.3 -3.45 -3.25 -3.45 -3.2 -3.45 -3.15 -3.45 -3.15 -3.4 -3.1 -3.4 -3.1 -3.4 -3.1 -3.35 -3.05 -3.3 -2.7 -3.35 -2.1 -3.4 -1.35 -3.4 -1.1 -3.4 -0.1 -3.4 0.9 -3.4 1.9 -3.4 2.9 -3.4 3.9 -3.4 4.9 -3.5 6.5 -3.5 9.9 L-3.5 9.9 Z" fill="none" stroke="#ffffff" stroke-linecap="round" stroke-linejoin="round" stroke-width="0.5"/>
      <path d="M1.6 9.9 Q0.0 9.9 -1.6 9.9 -1.6 9.75 -1.6 9.6 -1.6 3.5 -1.6 -2.6 -1.6 -2.6 -1.6 -2.65 -1.6 -2.65 -1.6 -2.7 -1.6 -2.7 -1.6 -2.7 -1.6 -2.75 -1.6 -2.75 -1.6 -2.8 -1.6 -2.8 -1.55 -2.85 -1.55 -2.85 -1.55 -2.9 -1.55 -2.95 -1.5 -2.95 -1.5 -3.0 -1.5 -3.05 -1.5 -3.05 -1.5 -3.1 -1.5 -3.15 -1.5 -3.2 -1.45 -3.2 -1.45 -3.25 -1.4 -3.3 -1.4 -3.35 -1.4 -3.4 -1.4 -3.55 -1.4 -3.7 -1.4 -3.75 -1.4 -3.75 -1.4 -3.8 -1.4 -3.85 -1.4 -3.9 -1.35 -3.9 -1.35 -3.95 -1.3 -4.0 -1.3 -4.1 -1.3 -4.2 -1.3 -4.7 -1.3 -5.2 0.1 -5.2 1.5 -5.2 1.5 -4.95 1.5 -4.7 1.5 -4.4 1.5 -4.1 1.55 -3.85 1.6 -3.6 1.6 -3.55 1.6 -3.5 1.6 -3.45 1.6 -3.45 1.6 -3.4 1.6 -3.35 1.6 -3.3 1.6 -3.3 1.65 -3.25 1.65 -3.2 1.65 -3.15 1.65 -3.15 1.7 -3.1 1.7 -3.1 1.7 -3.1 1.75 -3.05 1.8 -2.7 1.75 -2.1 1.7 -1.35 1.7 -1.1 1.7 -0.1 1.7 0.9 1.7 1.9 1.7 2.9 1.7 3.9 1.7 4.9 1.6 6.5 1.6 9.9 L1.6 9.9 Z" fill="none" stroke="#ffffff" stroke-linecap="round" stroke-linejoin="round" stroke-width="0.5"/>
      <path d="M-8.6 -7.2 Q-8.55 -7.25 -8.5 -7.3 -7.75 -7.3 -7.0 -7.3 -6.95 -7.2 -6.9 -7.1 -6.9 -7.1 -6.9 -7.1 -6.9 -7.05 -6.9 -7.0 -6.9 -5.6 -6.9 -4.2 -6.9 -4.15 -6.9 -4.1 -6.9 -4.1 -6.9 -4.05 -6.9 -4.0 -6.95 -3.95 -6.95 -3.95 -7.0 -3.9 -7.0 -3.85 -7.0 -3.8 -7.0 -3.8 -7.0 -3.75 -7.0 -3.7 -7.05 -3.65 -7.05 -3.65 -7.1 -3.6 -7.1 -3.55 -7.1 -3.5 -7.1 -3.3 -7.1 -3.1 -7.1 -3.05 -7.1 -3.05 -7.1 -3.05 -7.1 -3.0 -7.1 -3.0 -7.1 -3.0 -7.1 -2.95 -7.1 -2.95 -7.1 -2.9 -7.1 -2.9 -7.15 -2.85 -7.15 -2.85 -7.15 -2.8 -7.15 -2.75 -7.2 -2.75 -7.2 -2.7 -7.2 -2.6 -7.2 -2.5 -7.2 3.9 -7.2 10.3 -7.35 10.4 -7.5 10.5 -7.9 10.5 -8.3 10.5 -8.3 10.5 -8.35 10.45 -8.4 10.4 -8.4 10.4 -8.4 10.35 -8.45 10.35 -8.45 10.3 -8.5 10.3 -8.55 10.3 -8.6 10.3 -8.6 10.2 -8.6 10.1 -8.6 3.85 -8.6 -2.4 -8.6 -2.45 -8.6 -2.45 -8.6 -2.45 -8.6 -2.5 -8.6 -2.5 -8.6 -2.5 -8.6 -2.55 -8.6 -2.55 -8.6 -2.6 -8.6 -2.6 -8.65 -2.65 -8.65 -2.65 -8.65 -2.7 -8.65 -2.75 -8.7 -2.75 -8.7 -2.8 -8.7 -2.85 -8.7 -2.9 -8.7 -2.9 -8.7 -2.95 -8.7 -3.0 -8.75 -3.05 -8.75 -3.05 -8.8 -3.1 -8.8 -3.15 -8.8 -3.2 -8.8 -3.25 -8.8 -3.3 -8.8 -3.3 -8.8 -3.35 -8.8 -3.4 -8.8 -3.45 -8.8 -3.45 -8.8 -3.5 -8.8 -3.55 -8.8 -3.6 -8.85 -3.65 -8.85 -3.7 -8.85 -3.75 -8.85 -3.8 -8.9 -3.85 -8.9 -3.9 -8.9 -4.0 -8.9 -4.1 -8.85 -4.3 -8.8 -4.55 -8.75 -4.75 -8.75 -4.95 -8.7 -5.15 -8.65 -5.35 -8.65 -5.55 -8.65 -5.75 -8.6 -5.95 -8.6 -6.15 -8.6 -6.3 -8.6 -6.5 -8.6 -6.65 -8.6 -6.85 -8.6 -6.95 -8.6 -7.2 L-8.6 -7.2 Z" fill="none" stroke="#ffffff" stroke-linecap="round" stroke-linejoin="round" stroke-width="0.5"/>
      <path d="M-3.5 -7.2 Q-3.45 -7.25 -3.4 -7.3 -2.65 -7.3 -1.9 -7.3 -1.85 -7.25 -1.8 -7.2 -1.8 -7.15 -1.8 -7.1 -1.8 -5.7 -1.8 -4.3 -1.8 -4.25 -1.8 -4.2 -1.8 -4.2 -1.8 -4.15 -1.8 -4.1 -1.85 -4.05 -1.85 -4.05 -1.9 -4.0 -1.9 -3.95 -1.9 -3.9 -1.9 -3.9 -1.9 -3.85 -1.9 -3.8 -1.95 -3.75 -1.95 -3.75 -2.0 -3.7 -2.0 -3.65 -2.0 -3.6 -2.0 -3.4 -2.0 -3.2 -2.0 -3.15 -2.0 -3.15 -2.0 -3.15 -2.0 -3.1 -2.0 -3.1 -2.0 -3.1 -2.0 -3.05 -2.0 -3.05 -2.0 -3.0 -2.0 -3.0 -2.05 -2.95 -2.05 -2.95 -2.05 -2.9 -2.05 -2.85 -2.1 -2.85 -2.1 -2.8 -2.1 -2.7 -2.1 -2.6 -2.1 3.8 -2.1 10.2 -2.25 10.3 -2.4 10.4 -2.8 10.4 -3.2 10.4 -3.2 10.4 -3.25 10.35 -3.3 10.3 -3.3 10.3 -3.3 10.25 -3.35 10.25 -3.35 10.2 -3.4 10.2 -3.45 10.2 -3.5 10.2 -3.5 10.1 -3.5 10.0 -3.5 3.75 -3.5 -2.5 -3.5 -2.55 -3.5 -2.55 -3.5 -2.55 -3.5 -2.6 -3.5 -2.6 -3.5 -2.6 -3.5 -2.65 -3.5 -2.65 -3.5 -2.7 -3.5 -2.7 -3.55 -2.75 -3.55 -2.75 -3.55 -2.8 -3.55 -2.85 -3.6 -2.85 -3.6 -2.9 -3.6 -2.95 -3.6 -2.95 -3.6 -3.0 -3.6 -3.05 -3.6 -3.1 -3.65 -3.1 -3.65 -3.15 -3.7 -3.2 -3.7 -3.25 -3.7 -3.25 -3.7 -3.3 -3.7 -3.35 -3.7 -3.35 -3.7 -3.4 -3.7 -3.4 -3.7 -3.45 -3.7 -3.5 -3.7 -3.5 -3.75 -3.55 -3.75 -3.55 -3.75 -3.6 -3.75 -3.65 -3.8 -3.65 -3.8 -3.7 -3.75 -3.85 -3.7 -4.0 -3.65 -4.1 -3.65 -4.25 -3.6 -4.35 -3.55 -4.5 -3.55 -4.6 -3.55 -4.7 -3.5 -4.85 -3.5 -4.95 -3.5 -5.05 -3.5 -5.15 -3.5 -5.25 -3.5 -5.4 -3.5 -5.45 -3.5 -5.6 -3.5 -6.4 -3.5 -7.2 L-3.5 -7.2 Z" fill="none" stroke="#ffffff" stroke-linecap="round" stroke-linejoin="round" stroke-width="0.5"/>
      <path d="M1.6 -7.2 Q1.65 -7.25 1.7 -7.3 2.45 -7.3 3.2 -7.3 3.25 -7.2 3.3 -7.1 3.3 -7.1 3.3 -7.1 3.3 -5.7 3.3 -4.3 3.3 -4.25 3.3 -4.2 3.3 -4.2 3.3 -4.15 3.3 -4.1 3.25 -4.05 3.25 -4.05 3.2 -4.0 3.2 -3.95 3.2 -3.9 3.2 -3.9 3.2 -3.85 3.2 -3.8 3.15 -3.75 3.15 -3.75 3.1 -3.7 3.1 -3.65 3.1 -3.6 3.1 -3.4 3.1 -3.2 3.1 -3.15 3.1 -3.15 3.1 -3.15 3.1 -3.1 3.1 -3.1 3.1 -3.1 3.1 -3.05 3.1 -3.05 3.1 -3.0 3.1 -3.0 3.05 -2.95 3.05 -2.95 3.05 -2.9 3.05 -2.85 3.0 -2.85 3.0 -2.8 3.0 -2.7 3.0 -2.6 3.0 3.8 3.0 10.2 2.85 10.3 2.7 10.4 2.3 10.4 1.9 10.4 1.9 10.4 1.85 10.35 1.8 10.3 1.8 10.3 1.8 10.25 1.75 10.25 1.75 10.2 1.7 10.2 1.65 10.2 1.6 10.2 1.6 10.1 1.6 10.0 1.6 3.75 1.6 -2.5 1.6 -2.5 1.6 -2.55 1.6 -2.55 1.6 -2.6 1.6 -2.6 1.6 -2.6 1.6 -2.65 1.6 -2.65 1.6 -2.7 1.6 -2.7 1.55 -2.75 1.55 -2.75 1.55 -2.8 1.55 -2.85 1.5 -2.85 1.5 -2.9 1.5 -2.95 1.5 -2.95 1.5 -3.0 1.5 -3.05 1.5 -3.1 1.45 -3.1 1.45 -3.15 1.4 -3.2 1.4 -3.25 1.4 -3.25 1.4 -3.3 1.4 -3.35 1.4 -3.35 1.4 -3.4 1.4 -3.4 1.4 -3.45 1.4 -3.5 1.4 -3.5 1.35 -3.55 1.35 -3.55 1.35 -3.6 1.35 -3.65 1.3 -3.65 1.3 -3.7 1.25 -4.5 1.2 -5.3 1.25 -5.45 1.35 -5.6 1.4 -5.75 1.45 -5.85 1.45 -6.0 1.5 -6.1 1.55 -6.25 1.55 -6.35 1.55 -6.45 1.6 -6.6 1.6 -6.7 1.6 -6.8 1.6 -6.9 1.6 -7.0 1.6 -7.05 1.6 -7.2 L1.6 -7.2 Z" fill="none" stroke="#ffffff" stroke-linecap="round" stroke-linejoin="round" stroke-width="0.5"/>
      <path d="M6.8 -7.2 Q6.85 -7.25 6.9 -7.3 7.65 -7.3 8.4 -7.3 8.45 -7.2 8.5 -7.1 8.5 -7.1 8.5 -7.1 8.5 -5.7 8.5 -4.3 8.5 -4.15 8.5 -4.0 8.45 -3.85 8.4 -3.7 8.4 -3.65 8.4 -3.6 8.4 -3.4 8.4 -3.2 8.4 -3.15 8.4 -3.15 8.4 -3.15 8.4 -3.1 8.4 -3.1 8.4 -3.1 8.4 -3.05 8.4 -3.05 8.4 -3.0 8.4 -3.0 8.35 -2.95 8.35 -2.95 8.35 -2.9 8.35 -2.85 8.3 -2.85 8.3 -2.8 8.3 -2.7 8.3 -2.6 8.3 3.8 8.3 10.2 8.15 10.3 8.0 10.4 7.6 10.4 7.2 10.4 7.05 10.3 6.9 10.2 6.9 10.1 6.9 10.0 6.9 3.75 6.9 -2.5 6.9 -2.7 6.9 -2.9 6.9 -2.95 6.9 -2.95 6.9 -3.0 6.9 -3.05 6.9 -3.1 6.9 -3.15 6.85 -3.2 6.85 -3.25 6.85 -3.25 6.8 -3.3 6.8 -3.35 6.8 -3.35 6.8 -3.4 6.8 -3.45 6.8 -3.45 6.8 -3.5 6.8 -3.5 6.8 -3.55 6.8 -3.6 6.8 -3.6 6.75 -3.65 6.75 -3.65 6.75 -3.7 6.75 -3.75 6.7 -3.75 6.7 -3.8 6.7 -3.95 6.75 -4.05 6.75 -4.15 6.75 -4.3 6.75 -4.4 6.8 -4.5 6.8 -4.65 6.8 -4.75 6.8 -4.85 6.8 -4.95 6.8 -5.05 6.8 -5.15 6.8 -5.25 6.8 -5.4 6.8 -5.45 6.8 -5.6 6.8 -6.4 6.8 -7.2 L6.8 -7.2 Z" fill="none" stroke="#ffffff" stroke-linecap="round" stroke-linejoin="round" stroke-width="0.5"/>
      <path d="M9.8 9.9 Q9.2 9.9 8.6 9.9 8.6 9.75 8.6 9.6 8.6 3.5 8.6 -2.6 8.6 -2.8 8.6 -3.0 8.6 -3.05 8.6 -3.05 8.6 -3.1 8.6 -3.15 8.6 -3.2 8.6 -3.25 8.65 -3.3 8.65 -3.35 8.65 -3.35 8.7 -3.4 8.7 -3.45 8.7 -3.45 8.7 -3.5 8.7 -3.55 8.7 -3.55 8.7 -3.6 8.7 -3.6 8.7 -3.65 8.7 -3.7 8.7 -3.7 8.75 -3.75 8.75 -3.75 8.75 -3.8 8.75 -3.85 8.8 -3.85 8.8 -3.9 8.8 -3.95 8.85 -4.05 8.85 -4.15 8.85 -4.2 8.85 -4.3 8.85 -4.4 8.85 -4.45 8.85 -4.55 8.85 -4.7 8.85 -4.75 8.85 -4.85 8.85 -4.95 8.85 -5.05 8.85 -5.1 8.9 -5.2 8.9 -5.3 9.2 -5.3 9.5 -5.3 9.6 -5.4 9.7 -5.5 9.7 -5.7 9.7 -5.9 9.6 -6.0 9.5 -6.1 9.2 -6.1 8.9 -6.1 8.9 -6.45 8.9 -6.8 8.9 -6.8 8.9 -6.8 8.9 -6.8 8.9 -6.8 9.4 -6.8 9.9 -6.8 9.8 -1.1 9.8 9.9 L9.8 9.9 Z" fill="none" stroke="#ffffff" stroke-linecap="round" stroke-linejoin="round" stroke-width="0.5"/>
      <path d="M-8.7 9.9 Q-9.3 9.9 -9.9 9.9 -9.9 1.65 -9.9 -6.6 -9.65 -6.6 -9.4 -6.6 -9.15 -6.6 -8.9 -6.6 -8.9 -6.25 -8.9 -5.9 -9.15 -5.9 -9.4 -5.9 -9.4 -5.9 -9.6 -5.7 -9.6 -5.5 -9.6 -5.3 -9.5 -5.2 -9.4 -5.1 -9.15 -5.1 -8.9 -5.1 -8.9 -4.8 -8.9 -4.5 -8.9 -4.4 -8.9 -4.4 -8.9 -4.3 -8.9 -4.25 -8.9 -4.2 -8.9 -4.15 -8.9 -4.1 -8.9 -4.05 -8.9 -3.95 -8.9 -3.9 -8.85 -3.85 -8.85 -3.8 -8.85 -3.7 -8.85 -3.65 -8.8 -3.55 -8.8 -3.5 -8.8 -3.45 -8.8 -3.4 -8.8 -3.35 -8.8 -3.35 -8.8 -3.3 -8.8 -3.25 -8.8 -3.2 -8.8 -3.2 -8.75 -3.15 -8.75 -3.1 -8.75 -3.05 -8.75 -3.05 -8.7 -3.0 -8.7 -3.0 -8.7 -3.0 -8.65 -2.95 -8.6 -2.65 -8.65 -2.05 -8.7 -1.3 -8.7 -1.1 -8.7 -0.1 -8.7 0.9 -8.7 1.85 -8.7 2.8 -8.7 3.8 -8.7 4.8 -8.7 5.75 -8.7 6.7 -8.7 8.3 -8.7 9.9 L-8.7 9.9 Z" fill="none" stroke="#ffffff" stroke-linecap="round" stroke-linejoin="round" stroke-width="0.5"/>
      <path d="M6.5 -6.6 Q6.5 -6.3 6.5 -6.0 7.05 -6.0 5.3 -5.95 4.15 -5.95 3.6 -6.0 3.6 -6.3 3.6 -6.6 5.05 -6.6 6.5 -6.6 L6.5 -6.6 Z" fill="none" stroke="#ffffff" stroke-linecap="round" stroke-linejoin="round" stroke-width="0.5"/>
      <path d="M-6.6 -6.0 Q-6.6 -6.35 -6.6 -6.7 -5.2 -6.7 -3.8 -6.7 -3.8 -6.55 -3.8 -6.4 -3.8 -6.25 -3.8 -6.1 -4.7 -6.0 -6.6 -6.0 L-6.6 -6.0 Z" fill="none" stroke="#ffffff" stroke-linecap="round" stroke-linejoin="round" stroke-width="0.5"/>
      <path d="M-1.4 -6.0 Q-1.4 -6.35 -1.4 -6.7 0.0 -6.7 1.4 -6.7 1.4 -6.55 1.4 -6.4 1.4 -6.25 1.4 -6.1 0.4 -6.0 -1.4 -6.0 L-1.4 -6.0 Z" fill="none" stroke="#ffffff" stroke-linecap="round" stroke-linejoin="round" stroke-width="0.5"/>
    </g>
  
</svg>
