<?xml version="1.0" encoding="UTF-8" standalone="no"?>
<svg xmlns:xlink="http://www.w3.org/1999/xlink" height="22.2px" width="22.2px" xmlns="http://www.w3.org/2000/svg">
  <g transform="matrix(1.0, 0.0, 0.0, 1.0, 11.1, 11.05)">
    <use data-characterId="121" height="22.2" transform="matrix(1.0, 0.0, 0.0, 1.0, -11.1, -11.05)" width="22.2" xlink:href="#shape0"/>
  </g>
  
    <g id="shape0" transform="matrix(1.0, 0.0, 0.0, 1.0, 11.1, 11.05)">
      <path d="M11.1 -6.45 Q11.1 0.4 11.1 7.25 11.1 7.3 11.05 7.35 11.05 7.4 11.0 7.4 10.95 7.45 10.9 7.45 10.25 7.45 9.6 7.45 8.5 7.55 7.4 7.65 7.3 7.65 7.15 7.7 7.05 7.7 6.9 7.75 6.85 7.75 6.65 7.8 6.5 7.8 6.4 7.85 6.25 7.85 6.15 7.9 6.05 7.9 5.9 7.9 5.8 7.95 5.65 7.95 5.55 7.95 5.4 7.95 3.95 7.85 2.5 7.75 0.55 7.65 -1.4 7.55 -2.2 7.5 -3.0 7.45 -4.95 7.2 -5.3 7.25 -7.0 7.35 -10.9 7.75 -10.95 7.7 -11.0 7.65 -11.0 0.1 -11.0 -7.45 -11.0 -7.5 -10.95 -7.55 -10.95 -7.6 -10.9 -7.6 -10.85 -7.65 -10.8 -7.65 -9.65 -7.7 -8.5 -7.75 -7.2 -7.75 -6.6 -7.85 -6.35 -7.9 -6.05 -7.95 -5.8 -7.95 -5.55 -7.95 -5.3 -7.95 -5.0 -7.95 -4.75 -7.9 -4.5 -7.9 -4.25 -7.85 -3.95 -7.8 -3.75 -7.75 -3.45 -7.7 -3.3 -7.65 -2.9 -7.55 -2.6 -7.5 -2.4 -7.45 -1.1 -7.25 0.2 -7.05 0.9 -7.05 2.3 -6.85 4.1 -6.55 4.2 -6.55 6.5 -6.55 7.6 -6.65 9.2 -6.7 10.8 -6.75 10.85 -6.75 10.85 -6.75 10.9 -6.7 10.95 -6.65 11.0 -6.65 11.0 -6.6 11.05 -6.55 11.1 -6.5 11.1 -6.5 11.1 -6.45 L11.1 -6.45 M-1.0 4.35 Q-1.0 5.45 -1.0 6.55 -0.95 6.6 -0.9 6.65 0.15 6.6 1.2 6.55 1.2 6.55 1.25 6.5 1.25 6.5 1.3 6.45 1.25 4.65 1.2 2.85 1.2 2.25 1.2 1.65 1.2 1.6 1.2 1.55 1.35 1.55 1.5 1.55 1.6 1.6 1.7 1.65 2.1 1.7 2.5 1.75 2.6 1.8 2.65 1.8 2.75 1.8 2.8 1.8 2.9 1.85 2.95 1.85 3.05 1.85 3.1 1.9 3.2 1.9 3.25 1.9 3.35 1.9 3.4 1.95 3.5 1.95 3.55 1.95 3.65 1.95 3.7 1.95 4.7 1.9 5.7 1.85 6.25 1.8 6.8 1.75 8.25 1.75 9.7 1.75 9.8 1.75 9.85 1.75 9.95 1.75 10.0 1.75 10.1 1.7 10.15 1.7 10.2 1.65 10.2 1.65 10.25 1.6 10.3 1.55 10.3 1.5 10.3 1.45 10.35 1.4 10.3 1.3 10.3 1.25 10.3 1.15 10.2 0.55 10.2 -0.65 10.15 -0.65 10.1 -0.65 9.85 -0.6 9.6 -0.55 9.05 -0.6 8.5 -0.65 7.4 -0.6 6.3 -0.55 5.8 -0.5 5.3 -0.45 5.2 -0.45 5.1 -0.45 5.0 -0.45 4.9 -0.45 4.8 -0.45 4.75 -0.45 4.65 -0.45 4.55 -0.45 4.45 -0.45 4.35 -0.45 4.25 -0.5 4.15 -0.5 4.05 -0.5 3.9 -0.5 3.8 -0.55 3.7 -0.55 3.65 -0.55 3.55 -0.55 3.5 -0.55 3.4 -0.55 3.35 -0.6 3.25 -0.6 3.2 -0.6 3.1 -0.6 3.05 -0.65 2.95 -0.65 2.9 -0.65 2.8 -0.7 2.75 -0.7 2.65 -0.7 2.6 -0.75 2.5 -0.75 2.45 -0.75 2.4 -0.75 2.35 -0.75 2.25 -0.8 2.2 -0.8 2.15 -0.8 2.05 -0.85 2.0 -0.85 1.95 -0.85 1.85 -0.85 1.8 -0.85 1.75 -0.9 1.65 -0.9 1.6 -0.85 1.55 -0.85 1.5 -0.85 1.4 -0.85 1.35 -0.85 1.25 -0.85 1.2 -0.85 1.15 -0.9 1.1 -0.9 1.1 -0.95 1.05 -1.0 1.05 -1.05 1.05 -1.1 1.0 -1.1 1.0 -1.15 1.0 -1.2 1.0 -1.25 1.0 -1.3 1.0 -1.35 0.8 -2.75 0.8 -3.25 0.8 -4.6 0.8 -5.95 0.75 -6.0 0.7 -6.05 -0.15 -6.05 -1.0 -6.05 -1.1 -6.1 -1.2 -6.15 -1.35 -6.15 -1.5 -6.15 -1.5 -6.1 -1.5 -6.05 -1.5 -5.45 -1.5 -4.85 -1.45 -3.1 -1.4 -1.35 -1.4 -1.3 -1.4 -1.25 -1.35 -1.1 -1.3 -0.95 -1.4 -0.95 -1.5 -0.95 -1.55 -0.95 -1.6 -0.95 -1.65 -0.95 -1.65 -0.95 -1.7 -0.95 -1.75 -0.95 -1.8 -0.95 -1.85 -0.95 -1.9 -0.95 -1.95 -0.95 -2.0 -1.0 -2.05 -1.0 -2.1 -1.0 -2.1 -1.0 -2.15 -1.05 -2.2 -1.05 -2.3 -1.15 -3.2 -1.35 -3.45 -1.4 -3.7 -1.45 -4.2 -1.5 -4.7 -1.55 -5.1 -1.5 -5.5 -1.45 -6.0 -1.4 -6.5 -1.35 -7.55 -1.4 -8.6 -1.45 -9.4 -1.45 -10.2 -1.45 -10.25 -1.4 -10.3 -1.35 -10.3 0.0 -10.3 1.35 -10.25 1.35 -10.25 1.4 -10.2 1.4 -10.2 1.45 -9.25 1.45 -8.3 1.45 -7.4 1.4 -6.5 1.35 -6.1 1.3 -5.7 1.25 -5.55 1.25 -5.3 1.25 -5.15 1.25 -4.95 1.25 -4.85 1.25 -4.55 1.25 -4.35 1.25 -4.2 1.25 -4.0 1.25 -3.8 1.25 -3.65 1.25 -3.45 1.25 -3.25 1.3 -3.05 1.35 -2.9 1.4 -2.7 1.45 -2.65 1.45 -2.6 1.5 -2.55 1.5 -2.45 1.5 -2.4 1.5 -2.35 1.55 -2.3 1.55 -2.25 1.55 -2.2 1.55 -2.1 1.55 -2.05 1.55 -2.0 1.55 -1.9 1.55 -1.85 1.55 -1.8 1.55 -1.7 1.55 -1.45 1.6 -1.2 1.65 -1.15 1.65 -1.05 1.65 -1.0 1.7 -1.0 1.7 -0.95 1.75 -0.95 1.8 -0.9 1.85 -0.9 1.85 -0.9 1.9 -0.9 1.95 -0.9 2.0 -0.9 2.05 -0.9 2.1 -0.9 2.15 -0.9 2.2 -0.9 2.25 -1.0 2.95 -1.0 4.35 L-1.0 4.35 M-2.4 -4.75 Q-2.4 -5.55 -2.4 -6.35 -2.4 -6.4 -2.4 -6.45 -2.45 -6.45 -2.5 -6.5 -2.55 -6.5 -2.6 -6.5 -2.65 -6.5 -2.7 -6.55 -2.75 -6.55 -2.8 -6.55 -2.85 -6.55 -2.85 -6.55 -2.9 -6.6 -2.95 -6.6 -3.0 -6.6 -3.0 -6.6 -3.05 -6.65 -3.1 -6.65 -3.5 -6.75 -3.9 -6.85 -3.95 -6.85 -3.95 -6.9 -4.0 -6.9 -4.05 -6.9 -4.1 -6.9 -4.1 -6.95 -4.15 -6.95 -4.2 -6.95 -4.25 -6.95 -4.25 -6.95 -4.3 -6.95 -4.35 -6.95 -4.4 -6.95 -4.4 -6.95 -4.45 -6.95 -4.5 -6.95 -4.75 -6.95 -5.0 -6.95 -6.35 -6.9 -7.7 -6.85 -7.75 -6.8 -7.8 -6.75 -7.8 -6.75 -7.8 -6.75 -7.8 -6.75 -7.8 -6.75 -7.75 -6.7 -7.7 -6.7 -7.7 -6.65 -7.65 -6.6 -7.6 -6.6 -7.55 -6.55 -7.55 -6.55 -7.5 -6.55 -7.1 -6.35 -6.7 -6.15 -6.7 -6.15 -6.4 -5.85 -6.2 -5.7 -6.0 -5.55 -6.0 -5.55 -5.95 -5.5 -5.95 -5.5 -5.9 -5.45 -5.9 -5.45 -5.9 -5.45 -5.85 -5.4 -5.85 -5.4 -5.8 -5.4 -5.8 -5.35 -5.75 -5.35 -5.75 -5.3 -5.7 -5.3 -5.65 -5.3 -5.65 -5.25 -5.6 -5.25 -5.45 -5.1 -5.3 -4.95 -4.9 -4.75 -4.9 -4.75 -4.85 -4.75 -4.8 -4.7 -4.8 -4.7 -4.75 -4.65 -4.7 -4.65 -4.7 -4.6 -4.65 -4.6 -4.65 -4.6 -4.6 -4.55 -4.6 -4.55 -4.55 -4.5 -4.55 -4.5 -4.55 -4.5 -4.5 -4.45 -4.45 -4.4 -4.45 -4.4 -4.3 -4.3 -4.2 -4.25 -4.15 -4.25 -4.1 -4.25 -4.1 -4.2 -4.05 -4.2 -4.0 -4.15 -3.95 -4.1 -3.95 -4.1 -3.9 -4.05 -3.85 -4.05 -3.85 -4.0 -3.8 -4.0 -3.75 -3.95 -3.75 -3.95 -3.7 -3.95 -3.7 -3.9 -3.65 -3.9 -3.6 -3.85 -3.6 -3.85 -3.55 -3.8 -3.55 -3.8 -3.5 -3.75 -3.45 -3.7 -3.45 -3.7 -3.4 -3.65 -3.25 -3.5 -3.1 -3.35 -2.8 -3.05 -2.5 -2.75 -2.4 -2.7 -2.3 -2.65 -2.3 -2.75 -2.3 -2.85 -2.35 -3.1 -2.4 -3.35 -2.4 -4.05 -2.4 -4.75 L-2.4 -4.75 M-2.0 4.85 Q-2.0 4.05 -2.0 3.25 -2.0 3.15 -2.0 3.05 -2.2 3.1 -2.4 3.15 -2.45 3.15 -2.5 3.15 -2.5 3.2 -2.6 3.25 -2.85 3.45 -3.1 3.65 -3.4 3.8 -3.7 3.95 -3.9 4.05 -4.5 4.25 -4.6 4.3 -4.7 4.35 -4.95 4.55 -5.2 4.75 -5.5 5.0 -5.8 5.25 -5.85 5.25 -5.85 5.3 -5.9 5.3 -5.95 5.35 -5.95 5.35 -6.0 5.4 -6.0 5.45 -6.05 5.45 -6.05 5.5 -6.1 5.55 -6.15 5.6 -6.15 5.6 -6.2 5.65 -6.25 5.7 -6.25 5.7 -6.3 5.75 -6.35 5.8 -6.35 5.8 -6.4 5.85 -6.45 5.9 -6.5 5.9 -6.55 5.95 -6.55 5.95 -6.6 5.95 -6.8 6.1 -7.0 6.25 -7.2 6.35 -7.4 6.45 -7.45 6.45 -7.5 6.5 -7.5 6.5 -7.55 6.55 -7.6 6.55 -7.6 6.6 -7.65 6.6 -7.65 6.6 -7.7 6.65 -7.7 6.65 -7.75 6.7 -7.75 6.7 -7.75 6.7 -7.8 6.75 -7.85 6.8 -7.85 6.8 -7.85 6.8 -7.8 6.75 -7.85 6.8 -7.9 6.85 -7.85 6.9 -7.8 6.95 -7.4 6.9 -7.0 6.85 -6.6 6.8 -6.2 6.75 -5.9 6.7 -5.6 6.65 -5.3 6.6 -5.0 6.55 -4.2 6.6 -3.4 6.65 -2.8 6.7 -2.2 6.75 -2.15 6.75 -2.1 6.7 -2.05 6.7 -2.05 6.65 -2.0 6.6 -2.0 6.55 -2.0 5.7 -2.0 4.85 L-2.0 4.85 M2.4 6.05 Q2.4 6.2 2.4 6.25 2.4 6.35 2.4 6.4 2.4 6.45 2.4 6.5 2.45 6.55 2.45 6.6 2.45 6.65 2.5 6.65 2.55 6.7 2.55 6.75 2.6 6.75 2.65 6.8 2.7 6.8 2.8 6.85 2.85 6.85 2.9 6.9 2.9 6.9 2.95 6.9 3.0 6.9 3.05 6.95 3.1 6.95 3.15 6.95 3.2 6.95 3.25 6.95 3.3 6.95 3.35 6.95 3.35 6.95 3.4 6.95 3.45 6.95 3.5 6.95 4.9 6.95 5.6 6.85 5.95 6.8 6.3 6.75 6.85 6.7 7.4 6.65 7.6 6.65 7.8 6.65 7.85 6.65 7.9 6.6 8.0 6.45 8.0 6.45 7.95 6.4 7.9 6.35 7.65 6.3 7.4 6.25 7.25 6.2 7.1 6.15 6.8 6.0 6.5 5.85 6.25 5.75 6.0 5.65 6.0 5.65 5.95 5.6 5.95 5.6 5.9 5.55 5.9 5.55 5.9 5.55 5.85 5.5 5.85 5.5 5.8 5.5 5.8 5.45 5.75 5.45 5.75 5.4 5.7 5.4 5.65 5.4 5.65 5.35 5.6 5.35 5.4 5.25 5.2 5.15 4.85 5.0 4.5 4.85 4.45 4.85 4.4 4.85 4.4 4.8 4.35 4.8 4.3 4.75 4.25 4.7 4.25 4.7 4.2 4.65 4.15 4.6 4.15 4.6 4.1 4.55 4.05 4.55 4.0 4.5 3.95 4.5 3.9 4.45 3.85 4.45 3.85 4.45 3.8 4.45 3.6 4.3 3.4 4.15 3.4 4.15 2.9 3.65 2.6 3.4 2.3 3.15 2.2 3.1 2.1 3.05 2.1 3.15 2.1 3.25 2.15 4.3 2.2 5.35 2.25 5.4 2.25 5.45 2.3 5.45 2.3 5.5 2.35 5.55 2.35 5.6 2.35 5.6 2.4 5.65 2.4 5.7 2.4 5.75 2.4 5.8 2.4 5.85 2.4 5.9 2.4 5.95 2.4 6.0 2.4 6.05 L2.4 6.05 M1.8 -2.75 Q1.8 -2.75 1.8 -2.75 1.8 -2.7 1.85 -2.7 1.85 -2.65 1.85 -2.6 1.85 -2.6 1.9 -2.55 1.9 -2.55 1.9 -2.5 1.9 -2.45 1.9 -2.45 1.9 -2.4 1.9 -2.4 1.9 -2.35 1.9 -2.3 1.9 -2.3 1.9 -2.25 2.1 -2.3 2.3 -2.35 2.6 -2.55 2.9 -2.75 2.95 -2.75 3.0 -2.8 3.0 -2.8 3.05 -2.8 3.1 -2.85 3.15 -2.85 3.15 -2.85 3.2 -2.9 3.25 -2.9 3.3 -2.9 3.3 -2.9 3.35 -2.95 3.4 -2.95 3.45 -2.95 3.45 -2.95 3.5 -2.95 3.9 -3.1 4.3 -3.25 4.4 -3.3 4.5 -3.35 4.5 -3.35 4.55 -3.4 4.55 -3.4 4.6 -3.4 4.6 -3.45 4.6 -3.45 4.65 -3.5 4.65 -3.5 4.7 -3.5 4.7 -3.55 4.75 -3.55 4.75 -3.55 4.8 -3.6 4.85 -3.6 4.85 -3.65 4.9 -3.65 5.2 -3.85 5.5 -4.05 5.55 -4.1 5.6 -4.1 5.65 -4.15 5.7 -4.2 5.75 -4.25 5.8 -4.25 5.85 -4.3 5.9 -4.35 5.95 -4.4 5.95 -4.4 6.0 -4.45 6.05 -4.5 6.1 -4.55 6.1 -4.55 6.15 -4.6 6.2 -4.65 6.2 -4.65 7.0 -5.05 7.05 -5.05 7.05 -5.05 7.05 -5.1 7.1 -5.15 7.1 -5.15 7.1 -5.2 7.15 -5.25 7.15 -5.3 7.15 -5.3 7.2 -5.35 7.2 -5.35 7.05 -5.4 6.95 -5.4 6.9 -5.35 6.6 -5.3 6.3 -5.25 4.95 -5.3 3.6 -5.35 3.55 -5.35 3.45 -5.35 3.4 -5.35 3.3 -5.35 3.25 -5.4 3.2 -5.4 3.15 -5.4 3.05 -5.4 3.0 -5.45 2.95 -5.45 2.9 -5.45 2.85 -5.5 2.8 -5.5 2.7 -5.5 2.7 -5.5 2.6 -5.55 2.3 -5.6 2.0 -5.65 2.0 -5.65 2.0 -5.65 2.0 -5.65 2.0 -5.7 1.95 -5.75 1.9 -5.75 1.9 -5.7 1.9 -5.65 1.8 -4.75 1.8 -2.75 L1.8 -2.75 M-9.9 6.85 Q-9.75 6.85 -9.6 6.85 -8.95 6.8 -8.3 6.75 -8.3 6.75 -8.25 6.75 -8.25 6.75 -8.2 6.75 -8.2 6.75 -8.2 6.7 -8.15 6.7 -8.15 6.7 -8.1 6.7 -8.1 6.65 -8.05 6.65 -8.05 6.6 -8.0 6.6 -7.95 6.6 -7.95 6.55 -7.9 6.55 -7.8 6.45 -7.7 6.35 -7.65 6.3 -7.65 6.3 -7.6 6.25 -7.55 6.25 -7.5 6.2 -7.45 6.2 -7.4 6.15 -7.35 6.15 -7.35 6.15 -7.3 6.15 -7.25 6.15 -7.25 6.1 -7.25 6.1 -7.2 6.1 -7.2 6.05 -7.2 6.05 -7.15 6.0 -7.15 6.0 -7.1 6.0 -7.1 5.95 -7.05 5.95 -7.05 5.95 -7.0 5.9 -6.95 5.9 -6.95 5.85 -6.9 5.85 -6.65 5.7 -6.4 5.55 -6.1 5.3 -5.8 5.05 -5.75 5.05 -5.75 5.0 -5.7 5.0 -5.65 4.95 -5.65 4.95 -5.6 4.9 -5.6 4.85 -5.55 4.85 -5.55 4.8 -5.5 4.75 -5.45 4.7 -5.45 4.7 -5.4 4.65 -5.35 4.6 -5.35 4.6 -5.3 4.55 -5.05 4.35 -4.8 4.15 -4.7 4.05 -4.1 3.65 -3.8 3.55 -3.5 3.45 -3.4 3.4 -3.3 3.35 -3.05 3.2 -2.8 3.05 -2.75 3.0 -2.7 3.0 -2.7 2.95 -2.65 2.95 -2.6 2.95 -2.55 2.95 -2.55 2.95 -2.5 2.95 -2.2 2.75 -1.9 2.55 -1.85 2.5 -1.8 2.45 -1.8 2.4 -1.8 2.35 -1.85 2.35 -1.9 2.3 -1.9 2.3 -1.95 2.3 -2.0 2.25 -2.05 2.25 -2.1 2.25 -2.15 2.2 -2.2 2.2 -2.25 2.2 -2.3 2.2 -2.35 2.15 -2.4 2.15 -2.4 2.15 -2.45 2.15 -2.5 2.15 -2.55 2.15 -2.6 2.15 -2.7 2.15 -2.75 2.15 -2.8 2.2 -2.85 2.2 -2.95 2.2 -3.0 2.2 -3.05 2.25 -3.15 2.25 -3.2 2.25 -3.25 2.3 -3.3 2.3 -3.4 2.3 -3.45 2.35 -3.5 2.35 -3.65 2.4 -3.8 2.45 -4.1 2.6 -4.4 2.75 -4.6 2.9 -4.8 3.05 -5.0 3.25 -5.2 3.45 -5.6 3.85 -5.6 3.85 -6.0 4.05 -6.1 4.15 -6.5 4.35 -6.6 4.45 -6.8 4.6 -7.0 4.75 -7.05 4.8 -7.05 4.8 -7.1 4.85 -7.15 4.85 -7.2 4.85 -7.2 4.85 -7.25 4.85 -7.3 4.85 -7.55 5.05 -7.8 5.25 -8.05 5.4 -8.3 5.55 -8.65 5.85 -9.0 6.15 -9.05 6.2 -9.05 6.2 -9.05 6.2 -9.1 6.25 -9.1 6.25 -9.1 6.25 -9.15 6.3 -9.15 6.3 -9.2 6.3 -9.2 6.35 -9.25 6.35 -9.25 6.4 -9.3 6.4 -9.35 6.4 -9.35 6.45 -9.4 6.45 -9.45 6.5 -9.45 6.5 -9.5 6.55 -9.55 6.55 -9.6 6.6 -9.65 6.6 -9.7 6.65 -9.75 6.65 -9.75 6.65 -9.8 6.65 -9.85 6.75 -9.9 6.85 L-9.9 6.85 M-8.3 2.25 Q-9.1 2.25 -9.9 2.25 -9.95 2.25 -9.95 2.25 -10.0 2.3 -10.05 2.35 -10.1 2.35 -10.1 2.4 -10.15 2.45 -10.2 2.5 -10.2 2.5 -10.2 2.55 -10.2 3.9 -10.2 5.25 -10.15 5.3 -10.1 5.35 -10.05 5.35 -10.0 5.35 -9.95 5.35 -9.95 5.3 -9.9 5.3 -9.9 5.25 -9.7 5.15 -9.5 5.05 -9.45 5.05 -9.4 5.0 -9.4 5.0 -9.35 4.95 -9.3 4.95 -9.25 4.9 -9.25 4.85 -9.2 4.85 -9.15 4.8 -9.1 4.75 -9.1 4.75 -9.05 4.7 -9.0 4.65 -8.95 4.6 -8.95 4.6 -8.9 4.55 -8.85 4.55 -8.85 4.5 -8.8 4.5 -8.75 4.45 -8.75 4.45 -8.7 4.45 -8.7 4.4 -8.65 4.4 -8.6 4.35 -8.6 4.35 -8.55 4.3 -8.55 4.3 -8.5 4.25 -8.45 4.2 -8.45 4.2 -8.4 4.15 -7.95 3.85 -7.5 3.55 -7.4 3.5 -7.3 3.45 -7.1 3.3 -6.9 3.15 -6.6 3.0 -6.3 2.85 -6.25 2.85 -6.25 2.8 -6.2 2.8 -6.15 2.75 -6.1 2.75 -6.1 2.7 -6.05 2.65 -6.0 2.65 -6.0 2.6 -5.95 2.55 -5.9 2.55 -5.9 2.5 -5.85 2.45 -5.85 2.4 -5.8 2.4 -5.8 2.35 -5.7 2.2 -5.6 2.05 -5.65 2.05 -5.7 2.05 -5.75 2.1 -5.8 2.15 -6.3 2.2 -6.8 2.25 -7.55 2.25 -8.3 2.25 L-8.3 2.25 M-10.3 -3.85 Q-10.3 -3.1 -10.3 -2.35 -10.25 -2.3 -10.2 -2.25 -9.25 -2.2 -8.3 -2.15 -7.15 -2.2 -6.0 -2.25 -6.0 -2.3 -6.0 -2.35 -6.0 -2.4 -6.0 -2.4 -6.05 -2.45 -6.05 -2.5 -6.1 -2.55 -6.15 -2.55 -6.15 -2.6 -6.2 -2.65 -6.25 -2.65 -6.3 -2.65 -6.3 -2.65 -6.35 -2.65 -6.4 -2.7 -6.4 -2.7 -6.45 -2.7 -6.45 -2.75 -6.5 -2.75 -6.5 -2.75 -6.55 -2.8 -6.55 -2.8 -6.55 -2.8 -6.6 -2.85 -6.65 -2.9 -6.65 -2.9 -6.7 -2.9 -6.7 -2.9 -6.75 -2.95 -6.75 -2.95 -6.8 -2.95 -6.8 -2.95 -6.85 -3.0 -6.85 -3.0 -6.9 -3.0 -6.9 -3.05 -6.95 -3.05 -6.95 -3.1 -7.0 -3.1 -7.05 -3.1 -7.05 -3.15 -7.1 -3.15 -7.15 -3.15 -7.15 -3.15 -7.2 -3.15 -7.25 -3.15 -7.3 -3.15 -7.3 -3.2 -7.35 -3.2 -7.4 -3.25 -7.45 -3.25 -7.45 -3.3 -7.5 -3.3 -7.55 -3.35 -7.55 -3.35 -7.6 -3.35 -7.6 -3.4 -7.65 -3.4 -7.7 -3.45 -7.7 -3.45 -7.75 -3.5 -7.75 -3.5 -7.8 -3.55 -7.85 -3.6 -7.85 -3.6 -7.9 -3.65 -7.95 -3.65 -7.95 -3.7 -8.0 -3.7 -8.05 -3.75 -8.1 -3.75 -8.1 -3.8 -8.15 -3.85 -8.2 -3.85 -8.25 -3.9 -8.25 -3.95 -8.3 -3.95 -8.35 -4.0 -8.4 -4.05 -8.4 -4.1 -8.45 -4.1 -8.5 -4.15 -8.5 -4.15 -8.55 -4.2 -8.55 -4.2 -8.6 -4.2 -8.6 -4.25 -8.6 -4.25 -8.65 -4.3 -8.65 -4.3 -8.7 -4.3 -8.7 -4.35 -8.75 -4.35 -8.75 -4.35 -8.8 -4.4 -8.85 -4.4 -8.85 -4.45 -8.9 -4.45 -9.05 -4.6 -9.2 -4.75 -9.45 -4.9 -9.7 -5.05 -9.8 -5.15 -9.9 -5.25 -9.95 -5.3 -9.95 -5.3 -10.0 -5.35 -10.05 -5.35 -10.1 -5.35 -10.1 -5.35 -10.15 -5.35 -10.2 -5.35 -10.2 -5.25 -10.2 -5.15 -10.2 -5.1 -10.25 -5.0 -10.25 -4.9 -10.25 -4.85 -10.25 -4.75 -10.3 -4.65 -10.3 -4.6 -10.3 -4.5 -10.3 -4.4 -10.3 -4.35 -10.3 -4.25 -10.3 -4.15 -10.3 -4.1 -10.3 -4.0 -10.3 -3.95 -10.3 -3.85 L-10.3 -3.85 M-3.6 -2.25 Q-3.6 -2.2 -3.6 -2.15 -3.5 -2.2 -3.4 -2.25 -3.65 -2.45 -3.9 -2.65 -3.95 -2.65 -3.95 -2.65 -4.0 -2.7 -4.05 -2.7 -4.1 -2.75 -4.1 -2.8 -4.15 -2.8 -4.2 -2.85 -4.25 -2.85 -4.3 -2.9 -4.35 -2.9 -4.4 -2.95 -4.45 -2.95 -4.5 -2.95 -4.55 -3.0 -4.6 -3.0 -4.65 -3.05 -4.65 -3.05 -4.7 -3.1 -4.75 -3.1 -4.8 -3.15 -4.8 -3.2 -4.85 -3.2 -4.9 -3.25 -5.1 -3.35 -5.3 -3.45 -5.45 -3.6 -5.6 -3.75 -6.0 -3.95 -6.0 -3.95 -6.05 -4.0 -6.05 -4.0 -6.1 -4.05 -6.15 -4.1 -6.2 -4.15 -6.2 -4.15 -6.25 -4.2 -6.3 -4.25 -6.35 -4.25 -6.35 -4.3 -6.4 -4.35 -6.45 -4.35 -6.5 -4.4 -6.5 -4.4 -6.55 -4.45 -6.6 -4.45 -6.65 -4.5 -6.65 -4.5 -6.7 -4.55 -6.75 -4.55 -6.8 -4.6 -6.85 -4.6 -6.9 -4.65 -6.95 -4.65 -6.95 -4.65 -7.0 -4.65 -7.05 -4.7 -7.1 -4.7 -7.15 -4.75 -7.2 -4.8 -7.25 -4.8 -7.3 -4.85 -7.35 -4.85 -7.4 -4.9 -7.45 -4.9 -7.45 -4.95 -7.5 -4.95 -7.55 -4.95 -7.6 -5.0 -7.6 -5.0 -7.65 -5.0 -7.7 -5.05 -7.85 -5.1 -8.0 -5.15 -8.5 -5.65 -8.5 -5.65 -8.7 -5.85 -8.9 -6.05 -9.25 -6.35 -9.6 -6.65 -9.6 -6.65 -9.65 -6.7 -9.65 -6.7 -9.7 -6.7 -9.7 -6.75 -9.7 -6.75 -9.75 -6.8 -9.75 -6.8 -9.8 -6.8 -9.8 -6.85 -9.85 -6.85 -9.85 -6.85 -9.9 -6.9 -9.95 -6.9 -9.95 -6.95 -10.0 -6.95 -10.1 -7.0 -10.2 -7.05 -10.2 -7.0 -10.2 -6.95 -10.2 -6.9 -10.2 -6.8 -10.2 -6.75 -10.2 -6.7 -10.25 -6.7 -10.3 -6.5 -10.3 -6.4 -10.3 -6.35 -10.35 -6.25 -10.35 -6.2 -10.35 -6.1 -10.3 -6.0 -10.3 -5.95 -10.2 -5.9 -10.15 -5.8 -10.0 -5.75 -9.7 -5.55 -9.4 -5.35 -9.2 -5.2 -9.0 -5.05 -8.75 -4.8 -8.5 -4.55 -8.3 -4.4 -8.1 -4.25 -8.05 -4.2 -8.0 -4.2 -8.0 -4.15 -7.95 -4.1 -7.9 -4.05 -7.85 -4.05 -7.8 -4.0 -7.75 -3.95 -7.7 -3.95 -7.65 -3.9 -7.6 -3.85 -7.55 -3.85 -7.5 -3.8 -7.5 -3.8 -7.45 -3.75 -7.4 -3.75 -7.35 -3.7 -7.3 -3.7 -7.3 -3.7 -7.25 -3.7 -7.2 -3.65 -7.15 -3.65 -7.15 -3.65 -7.1 -3.6 -7.05 -3.6 -7.0 -3.6 -7.0 -3.6 -6.95 -3.55 -6.9 -3.55 -6.85 -3.55 -6.85 -3.55 -6.8 -3.55 -6.8 -3.55 -6.6 -3.35 -6.4 -3.2 -6.2 -3.05 -5.9 -2.9 -5.6 -2.75 -5.55 -2.75 -5.5 -2.7 -5.5 -2.7 -5.45 -2.65 -5.4 -2.65 -5.35 -2.6 -5.3 -2.55 -5.3 -2.55 -5.25 -2.5 -5.2 -2.5 -5.15 -2.45 -5.1 -2.45 -5.05 -2.4 -5.0 -2.4 -4.95 -2.35 -4.9 -2.35 -4.85 -2.35 -4.75 -2.3 -4.7 -2.3 -4.6 -2.3 -4.5 -2.3 -4.45 -2.25 -4.35 -2.25 -4.3 -2.25 -4.2 -2.25 -4.15 -2.25 -4.05 -2.25 -3.95 -2.25 -3.9 -2.25 -3.8 -2.25 -3.7 -2.25 -3.6 -2.25 L-3.6 -2.25 M3.0 -1.45 Q3.15 -1.5 3.3 -1.55 3.65 -1.7 4.0 -1.85 4.6 -2.05 4.6 -2.05 4.65 -2.05 4.7 -2.05 4.7 -2.1 4.75 -2.1 4.8 -2.15 4.85 -2.2 4.85 -2.2 4.9 -2.25 5.1 -2.45 5.3 -2.65 5.5 -2.8 5.7 -2.95 6.1 -3.25 6.5 -3.55 6.9 -3.75 7.0 -3.75 7.4 -3.95 7.8 -4.15 7.95 -4.25 8.1 -4.35 8.4 -4.55 8.7 -4.75 8.75 -4.75 8.8 -4.8 8.8 -4.8 8.85 -4.85 8.9 -4.85 8.9 -4.9 8.95 -4.9 8.95 -4.9 9.0 -4.95 9.0 -4.95 9.05 -5.0 9.05 -5.0 9.05 -5.0 9.1 -5.05 9.15 -5.1 9.15 -5.1 9.3 -5.2 9.5 -5.35 9.55 -5.35 9.55 -5.35 9.6 -5.35 9.6 -5.35 9.55 -5.35 9.5 -5.35 9.4 -5.35 9.25 -5.35 9.25 -5.35 9.05 -5.35 8.9 -5.4 8.8 -5.4 8.65 -5.4 8.55 -5.4 8.4 -5.4 8.3 -5.35 8.2 -5.35 8.05 -5.3 7.95 -5.25 7.85 -5.2 7.7 -5.15 7.6 -5.05 7.6 -5.05 7.55 -5.0 7.55 -5.0 7.5 -5.0 7.45 -4.95 7.4 -4.95 7.4 -4.95 7.35 -4.9 7.3 -4.9 7.25 -4.9 7.2 -4.9 7.15 -4.85 7.1 -4.85 7.1 -4.85 7.05 -4.85 7.0 -4.85 6.9 -4.8 6.8 -4.75 6.4 -4.55 6.3 -4.45 6.1 -4.3 5.9 -4.15 5.85 -4.1 5.85 -4.1 5.8 -4.05 5.75 -4.0 5.7 -4.0 5.7 -3.95 5.65 -3.95 5.6 -3.95 5.55 -3.9 5.55 -3.9 5.55 -3.9 5.5 -3.85 5.5 -3.85 5.5 -3.85 5.45 -3.8 5.45 -3.8 5.4 -3.8 5.4 -3.75 5.35 -3.75 5.35 -3.7 5.3 -3.7 5.25 -3.7 5.25 -3.65 5.2 -3.65 5.2 -3.65 5.15 -3.6 5.15 -3.6 5.1 -3.6 5.1 -3.55 5.1 -3.55 5.05 -3.5 5.05 -3.5 5.0 -3.5 5.0 -3.45 4.95 -3.45 4.95 -3.4 4.9 -3.4 4.85 -3.4 4.85 -3.35 4.8 -3.35 4.8 -3.35 4.75 -3.3 4.75 -3.3 4.7 -3.3 4.7 -3.3 4.65 -3.25 4.65 -3.25 4.6 -3.25 4.55 -3.25 4.5 -3.25 4.5 -3.2 4.45 -3.2 4.4 -3.2 4.35 -3.2 4.35 -3.15 4.3 -3.15 4.25 -3.15 4.2 -3.1 4.2 -3.1 4.15 -3.1 4.1 -3.05 4.05 -3.05 4.05 -3.0 4.0 -3.0 3.95 -3.0 3.9 -2.95 3.85 -2.95 3.8 -2.9 3.75 -2.9 3.7 -2.9 3.65 -2.85 3.6 -2.85 3.45 -2.8 3.3 -2.75 2.95 -2.6 2.6 -2.45 2.6 -2.45 2.2 -2.25 2.0 -2.1 1.8 -1.95 1.75 -1.95 1.7 -1.95 1.7 -1.85 1.7 -1.75 1.8 -1.7 1.9 -1.7 2.0 -1.65 2.1 -1.65 2.2 -1.6 2.25 -1.6 2.35 -1.6 2.45 -1.55 2.5 -1.55 2.55 -1.55 2.65 -1.5 2.7 -1.5 2.8 -1.5 2.85 -1.5 2.95 -1.45 3.0 -1.45 L3.0 -1.45 M4.3 2.65 Q3.9 2.65 3.5 2.65 3.45 2.65 3.4 2.65 3.45 2.7 3.5 2.75 3.55 2.8 3.6 2.8 3.6 2.85 3.65 2.9 3.7 2.9 3.75 2.95 3.75 2.95 3.8 2.95 4.05 3.1 4.3 3.25 4.35 3.3 4.4 3.3 4.4 3.35 4.45 3.35 4.5 3.35 4.55 3.35 4.55 3.35 4.6 3.35 4.9 3.5 5.2 3.65 5.35 3.7 5.5 3.75 5.75 3.9 6.0 4.05 6.15 4.1 6.3 4.15 6.6 4.35 6.9 4.55 6.9 4.55 6.95 4.6 6.95 4.6 7.0 4.6 7.0 4.6 7.05 4.65 7.05 4.65 7.1 4.65 7.15 4.65 7.2 4.65 7.2 4.7 7.25 4.7 7.3 4.7 7.35 4.7 7.35 4.75 7.4 4.75 7.85 4.9 8.3 5.05 8.7 5.25 8.8 5.35 8.85 5.4 8.9 5.4 8.9 5.45 8.95 5.5 9.0 5.55 9.05 5.55 9.1 5.6 9.15 5.65 9.2 5.65 9.25 5.7 9.3 5.75 9.35 5.75 9.4 5.8 9.4 5.8 9.45 5.85 9.5 5.85 9.85 6.0 10.2 6.15 10.2 6.2 10.2 6.25 10.15 6.25 10.1 6.25 10.2 6.25 10.3 6.25 10.4 6.25 10.5 6.25 10.55 6.25 10.55 6.2 10.6 6.2 10.6 6.15 10.6 6.1 10.6 6.05 10.6 5.95 10.6 5.9 10.6 5.85 10.6 5.8 10.6 5.75 10.6 5.7 10.6 5.65 10.6 5.6 10.55 5.55 10.55 5.45 10.55 5.4 10.55 5.35 10.5 5.3 10.5 5.25 10.5 5.25 10.5 5.25 10.3 5.25 10.1 5.25 9.85 5.1 9.6 4.95 9.4 4.8 9.2 4.65 9.15 4.6 9.15 4.6 9.1 4.55 9.05 4.5 9.0 4.5 9.0 4.45 8.95 4.45 8.9 4.45 8.85 4.4 8.85 4.4 8.8 4.35 8.75 4.35 8.7 4.3 8.65 4.3 8.6 4.25 8.55 4.25 8.55 4.25 8.5 4.25 8.1 4.05 8.0 3.95 7.85 3.9 7.7 3.85 7.35 3.7 7.0 3.55 6.85 3.5 6.7 3.45 6.5 3.3 6.3 3.15 6.25 3.1 6.25 3.1 6.2 3.05 6.15 3.05 6.1 3.05 6.1 3.05 6.05 3.05 6.0 3.05 5.6 2.85 5.2 2.65 4.75 2.65 4.3 2.65 L4.3 2.65 M9.8 -3.35 Q9.8 -3.65 9.8 -3.95 9.75 -4.0 9.7 -4.05 9.5 -3.9 9.3 -3.75 9.2 -3.7 9.1 -3.65 8.85 -3.45 8.6 -3.25 8.6 -3.25 8.55 -3.2 8.55 -3.2 8.5 -3.2 8.5 -3.2 8.45 -3.15 8.45 -3.15 8.4 -3.15 8.35 -3.15 8.3 -3.15 8.3 -3.1 8.25 -3.1 8.2 -3.1 8.15 -3.1 8.15 -3.05 8.1 -3.05 8.05 -3.05 8.0 -3.0 8.0 -3.0 7.95 -2.95 7.9 -2.95 7.85 -2.9 7.8 -2.85 7.8 -2.85 7.75 -2.8 7.7 -2.8 7.65 -2.75 7.6 -2.75 7.55 -2.7 7.5 -2.7 7.45 -2.65 7.4 -2.65 7.25 -2.6 7.1 -2.55 6.8 -2.4 6.5 -2.25 6.25 -2.15 6.0 -2.05 5.95 -2.05 5.95 -2.0 5.9 -2.0 5.85 -1.95 5.8 -1.95 5.8 -1.9 5.75 -1.85 5.7 -1.85 5.65 -1.8 5.6 -1.75 5.6 -1.75 5.55 -1.7 5.5 -1.65 5.45 -1.6 5.45 -1.6 5.4 -1.55 5.35 -1.5 5.3 -1.45 5.3 -1.4 5.35 -1.4 5.35 -1.35 5.4 -1.35 5.75 -1.4 6.1 -1.45 7.1 -1.4 8.1 -1.35 8.9 -1.4 9.7 -1.45 9.7 -1.5 9.7 -1.55 9.65 -2.15 9.6 -2.75 9.65 -2.8 9.65 -2.8 9.7 -2.85 9.7 -2.9 9.75 -2.95 9.75 -2.95 9.75 -3.0 9.8 -3.05 9.8 -3.1 9.8 -3.1 9.8 -3.15 9.8 -3.2 9.8 -3.25 9.8 -3.25 9.8 -3.3 9.8 -3.35 L9.8 -3.35 M10.3 4.15 Q10.25 3.4 10.2 2.65 10.2 2.6 10.2 2.55 10.15 2.5 10.1 2.45 8.85 2.45 7.6 2.45 6.75 2.5 5.9 2.55 5.85 2.6 5.8 2.65 6.1 2.9 6.4 3.15 6.75 3.3 7.1 3.45 7.55 3.6 8.0 3.75 8.1 3.8 8.2 3.85 8.45 4.05 8.7 4.25 8.75 4.3 8.75 4.3 8.8 4.3 8.85 4.35 8.9 4.35 8.9 4.35 8.95 4.4 9.0 4.4 9.05 4.45 9.05 4.45 9.1 4.5 9.15 4.5 9.2 4.55 9.2 4.6 9.25 4.6 9.3 4.65 9.6 4.85 9.9 5.05 9.95 5.05 10.0 5.1 10.05 5.1 10.1 5.1 10.15 5.1 10.2 5.1 10.25 5.1 10.25 5.1 10.3 5.05 10.3 5.0 10.35 5.0 10.35 4.95 10.4 4.9 10.4 4.8 10.4 4.75 10.4 4.65 10.4 4.6 10.35 4.6 10.35 4.55 10.35 4.5 10.35 4.5 10.3 4.45 10.3 4.45 10.3 4.4 10.3 4.35 10.3 4.35 10.3 4.3 10.3 4.3 10.3 4.25 10.3 4.2 10.3 4.2 10.3 4.15 L10.3 4.15" fill="#ffffff" fill-rule="evenodd" stroke="none"/>
    </g>
  
</svg>
