<?xml version="1.0" encoding="UTF-8" standalone="no"?>
<svg xmlns:xlink="http://www.w3.org/1999/xlink" height="22.2px" width="22.2px" xmlns="http://www.w3.org/2000/svg">
  <g transform="matrix(1.0, 0.0, 0.0, 1.0, 11.1, 11.1)">
    <use data-characterId="145" height="22.2" transform="matrix(1.0, 0.0, 0.0, 1.0, -11.1, -11.1)" width="22.2" xlink:href="#shape0"/>
  </g>
  
    <g id="shape0" transform="matrix(1.0, 0.0, 0.0, 1.0, 11.1, 11.1)">
      <path d="M10.5 -1.0 Q10.45 -1.0 10.45 -1.0 10.4 -1.0 10.35 -1.0 10.3 -0.95 10.3 -0.95 10.25 -0.95 10.2 -0.9 10.15 -0.9 10.15 -0.9 10.1 -0.85 10.05 -0.85 10.0 -0.8 9.95 -0.75 9.95 -0.75 9.9 -0.7 8.45 0.9 7.0 2.5 6.95 2.55 6.9 2.6 6.85 2.65 6.85 2.7 6.8 2.75 6.8 2.75 6.8 2.8 6.8 2.85 6.8 2.9 6.8 2.95 6.8 2.95 6.85 3.0 6.85 3.05 6.9 3.1 6.95 3.15 7.0 3.2 7.05 3.2 7.1 3.2 9.1 1.0 10.2 -0.1 10.55 -0.5 10.9 -0.9 10.9 -0.9 10.9 -0.9 10.75 -0.9 10.6 -0.9 10.6 -1.0 10.5 -1.0 L10.5 -1.0 10.5 -1.0" fill="#ffffff" fill-rule="evenodd" stroke="none"/>
      <path d="M4.6 2.4 L4.7 2.5 Q4.75 2.55 4.75 2.6 4.8 2.65 4.85 2.75 4.9 2.8 4.9 2.85 4.95 2.9 5.0 2.95 5.0 3.0 5.05 3.05 5.1 3.1 5.1 3.2 5.15 3.25 5.15 3.3 5.2 3.35 5.2 3.4 4.45 4.2 3.7 5.0 L0.7 8.3 0.0 9.0 Q-3.4 5.2 -5.2 3.3 -5.2 3.3 -5.2 3.3 -5.2 3.3 -5.2 3.3 L-4.8 2.7 -4.6 2.4 -2.3 4.9 -0.4 7.0 0.0 7.4 0.4 7.0 0.7 6.7 4.6 2.4 M4.7 1.5 Q2.35 4.05 0.0 6.6 -0.1 6.5 -2.35 4.05 -3.75 2.55 -4.7 1.6 -4.75 1.65 -4.8 1.7 -4.8 1.7 -4.8 1.8 -5.2 2.45 -5.6 3.1 -5.65 3.15 -5.65 3.2 -5.7 3.25 -5.7 3.3 -5.75 3.3 -5.75 3.35 -5.75 3.35 -5.75 3.4 -5.75 3.45 -5.7 3.45 -5.7 3.5 -5.65 3.5 -5.65 3.55 -5.6 3.6 -5.55 3.65 -5.5 3.7 -1.9 7.7 -0.1 9.6 -0.05 9.65 0.0 9.7 0.05 9.65 0.1 9.6 0.1 9.6 0.1 9.5 2.7 6.7 4.0 5.2 4.8 4.3 5.6 3.4 5.6 3.4 5.65 3.35 5.65 3.35 5.65 3.3 5.65 3.3 5.65 3.3 5.7 3.25 5.7 3.25 5.7 3.2 5.65 3.2 5.65 3.15 5.65 3.15 5.65 3.1 5.65 3.05 5.6 3.05 5.6 3.0 5.15 2.25 4.7 1.5 4.75 1.6 4.75 1.6 4.75 1.65 4.7 1.6 4.7 1.55 4.7 1.5 L4.7 1.5 4.7 1.5" fill="#ffffff" fill-rule="evenodd" stroke="none"/>
      <path d="M0.1 -10.4 L0.1 -10.4 Q0.15 -10.4 0.15 -10.4 0.2 -10.4 0.2 -10.4 0.25 -10.4 0.3 -10.4 0.3 -10.4 0.35 -10.35 0.4 -10.35 0.45 -10.35 0.5 -10.3 0.55 -10.25 0.6 -10.25 0.6 -10.2 0.65 -10.15 0.7 -10.1 0.75 -10.05 0.75 -10.0 0.8 -9.9 0.85 -9.85 0.9 -9.8 0.9 -9.75 0.95 -9.65 1.0 -9.6 1.0 -9.55 1.05 -9.45 1.1 -9.4 1.1 -9.35 1.15 -9.3 1.15 -9.2 1.2 -9.15 1.2 -9.1 4.4 -1.5 5.9 2.3 L6.2 3.0 4.1 -0.7 1.7 -4.9 -0.5 -8.8 Q-0.55 -8.9 -0.55 -8.95 -0.6 -9.05 -0.65 -9.1 -0.65 -9.2 -0.65 -9.25 -0.7 -9.35 -0.7 -9.4 -0.7 -9.5 -0.7 -9.55 -0.7 -9.65 -0.7 -9.7 -0.7 -9.8 -0.65 -9.85 -0.65 -9.95 -0.6 -10.0 -0.55 -10.05 -0.5 -10.1 -0.5 -10.15 -0.45 -10.2 -0.4 -10.25 -0.35 -10.25 -0.35 -10.3 -0.3 -10.3 -0.25 -10.35 -0.2 -10.35 -0.15 -10.35 -0.1 -10.4 -0.05 -10.4 0.0 -10.4 0.05 -10.4 0.1 -10.4 M0.1 -10.9 Q0.0 -10.9 -0.05 -10.9 -0.15 -10.9 -0.2 -10.85 -0.3 -10.85 -0.35 -10.8 -0.45 -10.8 -0.55 -10.75 -0.6 -10.7 -0.65 -10.65 -0.75 -10.6 -0.8 -10.55 -0.85 -10.5 -0.9 -10.45 -0.95 -10.35 -1.0 -10.3 -1.05 -10.2 -1.1 -10.1 -1.15 -9.95 -1.15 -9.85 -1.15 -9.75 -1.2 -9.65 -1.2 -9.55 -1.2 -9.45 -1.15 -9.35 -1.15 -9.25 -1.1 -9.15 -1.1 -9.1 -1.05 -9.0 -1.0 -8.9 -0.95 -8.8 -0.9 -8.7 0.2 -6.75 1.3 -4.8 5.4 2.4 9.5 9.6 9.55 9.7 9.6 9.8 9.6 9.8 9.6 9.8 9.6 9.75 9.6 9.7 9.6 9.7 9.5 9.6 8.85 8.0 8.2 6.4 4.95 -1.45 1.7 -9.3 1.2 -10.3 1.1 -10.4 1.05 -10.45 1.0 -10.55 0.95 -10.6 0.85 -10.65 0.8 -10.7 0.75 -10.75 0.7 -10.75 0.65 -10.8 0.6 -10.85 0.5 -10.85 0.45 -10.85 0.4 -10.9 0.3 -10.9 0.25 -10.9 0.2 -10.9 0.1 -10.9 L0.1 -10.9 0.1 -10.9" fill="#ffffff" fill-rule="evenodd" stroke="none"/>
      <path d="M-1.3 -8.2 Q-1.25 -8.15 -1.25 -8.1 -1.2 -8.0 -1.15 -7.95 -1.1 -7.9 -1.1 -7.85 -1.05 -7.75 -1.0 -7.7 -1.0 -7.65 -0.95 -7.55 -0.9 -7.5 -0.9 -7.45 -0.85 -7.4 -0.85 -7.3 -0.8 -7.25 -0.8 -7.2 -0.65 -6.9 -0.5 -6.6 -2.1 -4.0 -5.3 1.4 L-6.1 2.7 -6.4 3.1 -1.3 -8.2 M-1.3 -9.4 Q-5.6 0.2 -9.9 9.8 -9.9 9.8 -9.9 9.8 -9.9 9.8 -9.85 9.75 -9.85 9.75 -9.85 9.7 -9.8 9.7 -9.8 9.7 -9.8 9.65 -9.75 9.65 -9.75 9.6 -9.75 9.6 -9.75 9.55 -9.7 9.55 -9.7 9.5 -9.7 9.45 -9.7 9.45 -9.7 9.4 -7.75 6.15 -5.8 2.9 -2.95 -1.85 -0.1 -6.6 -0.05 -6.65 -0.05 -6.65 0.0 -6.7 0.0 -6.75 0.0 -6.8 -0.05 -6.8 -0.05 -6.85 -0.1 -6.9 -0.1 -6.95 -0.15 -7.0 -0.15 -7.0 -0.2 -7.05 -0.2 -7.1 -0.2 -7.15 -0.25 -7.15 -0.25 -7.2 -0.3 -7.25 -0.3 -7.3 -0.35 -7.35 -0.35 -7.4 -0.4 -7.45 -0.45 -7.5 -0.45 -7.55 -0.5 -7.6 -0.5 -7.65 -0.55 -7.75 -0.55 -7.85 -0.6 -7.95 -0.65 -8.0 -0.7 -8.1 -0.75 -8.2 -0.75 -8.3 -0.8 -8.4 -0.85 -8.5 -0.9 -8.6 -1.0 -8.7 -1.05 -8.8 -1.1 -8.9 -1.15 -9.0 -1.2 -9.1 -1.25 -9.15 -1.25 -9.15 -1.3 -9.2 -1.3 -9.25 -1.3 -9.3 -1.3 -9.3 -1.3 -9.35 -1.3 -9.4 L-1.3 -9.4 -1.3 -9.4" fill="#ffffff" fill-rule="evenodd" stroke="none"/>
      <path d="M-5.9 3.7 Q-5.95 3.75 -5.95 3.75 -6.0 3.8 -6.0 3.85 -6.05 3.9 -6.05 3.95 -6.1 4.0 -6.1 4.05 -6.1 4.05 -6.1 4.1 -6.15 4.15 -6.15 4.2 -6.15 4.2 -6.15 4.25 -6.15 4.3 -6.15 4.35 -6.15 4.35 -6.1 4.4 -4.4 6.2 -0.5 10.5 -0.45 10.55 -0.45 10.55 -0.4 10.6 -0.35 10.65 -0.35 10.65 -0.3 10.7 -0.25 10.7 -0.25 10.75 -0.2 10.8 -0.15 10.8 -0.15 10.85 -0.1 10.85 -0.05 10.9 0.0 10.95 0.05 10.95 0.1 11.0 0.15 10.9 0.2 10.8 2.25 8.55 4.3 6.3 4.9 5.6 6.1 4.4 6.1 4.4 6.15 4.35 6.15 4.35 6.15 4.3 6.15 4.3 6.15 4.3 6.2 4.25 6.2 4.25 6.2 4.2 6.15 4.2 6.15 4.15 6.15 4.15 6.15 4.1 6.15 4.05 6.1 4.05 6.1 4.0 6.0 3.85 5.9 3.7 5.85 3.75 5.8 3.8 4.2 5.6 3.3 6.5 1.7 8.25 0.1 10.0 0.05 10.1 0.0 10.1 0.0 10.1 -0.1 10.1 -0.2 10.1 -0.2 10.1 -0.2 10.1 -0.3 10.0 -0.35 9.95 -0.4 9.9 -0.4 9.9 -0.45 9.85 -0.3 10.0 -0.55 9.75 -0.6 9.7 -0.6 9.65 -0.65 9.6 -0.7 9.55 -0.75 9.5 -0.8 9.45 -0.85 9.4 -0.9 9.4 -0.95 9.35 -1.0 9.3 -3.3 6.75 -5.6 4.2 -5.6 4.15 -5.6 4.15 -5.6 4.1 -5.6 4.05 -5.65 4.05 -5.65 4.0 -5.65 4.0 -5.65 3.95 -5.7 3.9 -5.7 3.9 -5.75 3.85 -5.75 3.85 -5.8 3.8 -5.85 3.75 -5.85 3.75 -5.9 3.7 L-5.9 3.7 -5.9 3.7" fill="#ffffff" fill-rule="evenodd" stroke="none"/>
      <path d="M8.6 -0.5 L8.8 -0.5 8.0 0.4 6.9 1.6 6.9 1.5 Q6.65 0.95 6.4 0.4 6.8 0.0 6.8 0.0 7.3 -0.5 7.3 -0.5 7.95 -0.5 8.6 -0.5 M8.6 -1.0 Q7.85 -1.0 7.1 -1.0 7.0 -1.0 6.95 -1.0 6.9 -0.95 6.9 -0.9 6.4 -0.35 5.9 0.2 5.85 0.25 5.85 0.25 5.85 0.3 5.85 0.35 5.85 0.4 5.85 0.4 5.85 0.45 5.9 0.5 6.3 1.4 6.7 2.3 6.75 2.4 6.8 2.5 9.0 0.1 10.0 -0.9 9.95 -0.9 9.9 -0.9 9.8 -0.9 9.7 -0.95 9.65 -0.95 9.55 -0.95 9.45 -0.95 9.35 -1.0 9.3 -1.0 9.2 -1.0 9.15 -1.0 9.05 -1.0 9.0 -1.0 8.9 -1.0 8.85 -1.0 8.75 -1.0 8.7 -1.0 8.6 -1.0 L8.6 -1.0 8.6 -1.0" fill="#ffffff" fill-rule="evenodd" stroke="none"/>
      <path d="M-7.3 -0.5 Q-7.3 -0.5 -7.3 -0.5 -7.3 -0.5 -6.4 0.4 -6.65 0.95 -6.9 1.5 L-6.9 1.5 -8.1 0.2 -8.8 -0.6 -8.8 -0.6 -7.9 -0.6 Q-7.85 -0.6 -7.8 -0.6 -7.7 -0.6 -7.6 -0.6 -7.45 -0.55 -7.3 -0.5 L-7.3 -0.5 M-7.3 -1.0 Q-7.3 -1.0 -7.3 -1.0 -7.4 -1.0 -7.5 -1.0 -7.65 -1.0 -7.8 -1.0 -8.25 -1.0 -8.7 -1.0 -9.25 -1.0 -9.8 -1.0 -9.8 -0.95 -9.8 -0.9 -8.3 0.75 -6.8 2.4 -6.7 2.35 -6.7 2.3 -6.7 2.3 -6.7 2.2 -6.35 1.4 -6.0 0.6 -6.0 0.55 -5.95 0.55 -5.95 0.5 -5.95 0.45 -5.95 0.45 -5.95 0.4 -5.95 0.4 -5.95 0.35 -5.95 0.3 -5.95 0.3 -5.95 0.25 -6.0 0.25 -6.0 0.2 -6.05 0.15 -6.05 0.15 -6.1 0.1 -6.7 -0.5 -6.9 -0.8 -6.9 -0.8 -6.95 -0.85 -6.95 -0.85 -7.0 -0.85 -7.0 -0.9 -7.0 -0.9 -7.05 -0.9 -7.05 -0.95 -7.1 -0.95 -7.1 -0.95 -7.15 -0.95 -7.15 -1.0 -7.2 -1.0 -7.25 -1.0 -7.25 -1.0 -7.3 -1.0 L-7.3 -1.0 -7.3 -1.0" fill="#ffffff" fill-rule="evenodd" stroke="none"/>
      <path d="M-10.6 -1.0 Q-10.65 -1.0 -10.65 -1.0 -10.7 -1.0 -10.75 -1.0 -10.8 -1.0 -10.85 -1.0 -10.9 -0.95 -10.95 -0.95 -10.95 -0.95 -11.0 -0.9 -9.05 1.15 -7.1 3.2 -7.05 3.0 -7.0 2.8 -6.95 2.75 -6.95 2.7 -6.95 2.65 -6.95 2.6 -6.95 2.55 -6.95 2.55 -6.95 2.5 -7.0 2.45 -7.05 2.45 -7.1 2.4 -8.55 0.8 -10.0 -0.8 -10.0 -0.8 -10.05 -0.85 -10.05 -0.85 -10.1 -0.85 -10.1 -0.9 -10.15 -0.9 -10.2 -0.9 -10.2 -0.95 -10.25 -0.95 -10.3 -0.95 -10.35 -0.95 -10.4 -1.0 -10.45 -1.0 -10.5 -1.0 -10.55 -1.0 -10.6 -1.0 L-10.6 -1.0 -10.6 -1.0" fill="#ffffff" fill-rule="evenodd" stroke="none"/>
    </g>
  
</svg>
