<?xml version="1.0" encoding="UTF-8" standalone="no"?>
<svg xmlns:xlink="http://www.w3.org/1999/xlink" height="21.4px" width="21.4px" xmlns="http://www.w3.org/2000/svg">
  <g transform="matrix(1.0, 0.0, 0.0, 1.0, 10.7, 10.7)">
    <use data-characterId="8" height="21.4" transform="matrix(1.0, 0.0, 0.0, 1.0, -10.7, -10.7)" width="21.4" xlink:href="#shape0"/>
  </g>
  
    <g id="shape0" transform="matrix(1.0, 0.0, 0.0, 1.0, 10.7, 10.7)">
      <path d="M-0.1 -10.3 Q0.9 -10.3 1.9 -10.1 2.9 -9.9 3.8 -9.5 4.7 -9.1 5.5 -8.55 6.3 -8.0 7.0 -7.3 7.7 -6.6 8.25 -5.8 8.8 -4.95 9.2 -4.05 9.6 -3.15 9.8 -2.15 10.0 -1.15 10.0 -0.1 10.0 0.95 9.8 1.95 9.6 2.95 9.2 3.85 8.8 4.75 8.25 5.6 7.7 6.4 7.0 7.1 6.3 7.8 5.5 8.35 4.7 8.9 3.8 9.3 2.9 9.7 1.9 9.9 0.9 10.1 -0.1 10.1 -1.15 10.1 -2.15 9.9 -3.1 9.7 -4.0 9.3 -4.9 8.9 -5.7 8.35 -6.5 7.75 -7.2 7.05 -7.9 6.35 -8.4 5.5 -8.95 4.65 -9.3 3.75 -9.7 2.75 -9.9 1.75 -10.1 0.7 -10.1 -0.4 -10.1 -1.4 -9.9 -2.35 -9.7 -3.3 -9.3 -4.2 -8.95 -5.05 -8.4 -5.85 -7.85 -6.65 -7.15 -7.35 -6.5 -8.0 -5.7 -8.55 -4.85 -9.1 -4.0 -9.5 -3.05 -9.9 -2.1 -10.1 -1.1 -10.3 -0.1 -10.3 L-0.1 -10.3 M7.7 -0.1 Q7.7 -0.9 7.55 -1.65 7.4 -2.4 7.1 -3.1 6.8 -3.8 6.4 -4.45 6.0 -5.05 5.45 -5.55 4.95 -6.1 4.35 -6.5 3.75 -6.95 3.1 -7.25 2.45 -7.55 1.75 -7.7 1.0 -7.9 0.3 -7.9 -0.5 -7.9 -1.3 -7.75 -2.05 -7.65 -2.8 -7.35 -3.5 -7.05 -4.1 -6.6 -4.75 -6.2 -5.25 -5.65 -5.8 -5.15 -6.25 -4.55 -6.65 -3.9 -7.0 -3.25 -7.3 -2.55 -7.5 -1.8 -7.65 -1.05 -7.7 -0.3 -7.7 0.55 -7.55 1.35 -7.4 2.15 -7.1 2.85 -6.85 3.6 -6.45 4.25 -6.05 4.9 -5.5 5.45 -5.0 6.0 -4.4 6.4 -3.8 6.85 -3.1 7.15 -2.4 7.5 -1.65 7.65 -0.9 7.8 -0.1 7.8 0.7 7.8 1.45 7.65 2.2 7.5 2.95 7.2 3.65 6.9 4.25 6.45 4.9 6.05 5.4 5.5 5.95 4.95 6.35 4.35 6.8 3.7 7.1 3.0 7.4 2.25 7.55 1.5 7.7 0.7 7.7 -0.1 L7.7 -0.1" fill="#ffffff" fill-rule="evenodd" stroke="none"/>
      <path d="M-2.0 6.6 Q-1.85 6.5 -1.8 6.4 -1.7 6.3 -1.65 6.2 -1.55 6.15 -1.55 6.05 -1.5 5.95 -1.5 5.85 -1.45 5.75 -1.45 5.65 -1.45 5.55 -1.5 5.45 -1.4 6.8 -1.5 5.2 -1.5 5.1 -1.5 5.0 -1.5 1.85 -1.5 -1.3 -1.5 -2.7 -1.6 -3.5 -1.7 -3.6 -1.8 -3.7 -1.85 -3.65 -1.9 -3.6 -2.0 -3.45 -2.1 -3.3 -2.1 -3.35 -2.15 -3.4 -2.15 -3.4 -2.2 -3.45 -2.25 -3.5 -2.3 -3.55 -2.3 -3.55 -2.35 -3.6 -2.4 -3.65 -2.45 -3.7 -2.5 -3.75 -2.55 -3.8 -2.6 -3.85 -2.6 -3.9 -2.65 -3.95 -2.7 -4.0 -2.6 -4.1 -2.55 -4.2 -2.45 -4.3 -2.4 -4.45 -2.35 -4.45 -2.25 -4.65 -2.15 -4.8 -2.1 -4.9 -2.0 -5.05 -1.95 -5.15 -1.85 -5.25 -1.75 -5.35 -1.65 -5.45 -1.5 -5.5 -1.35 -5.55 -1.2 -5.6 -1.15 -5.6 -1.1 -5.6 -1.1 -5.6 -1.05 -5.6 -1.0 -5.65 -0.95 -5.65 -0.95 -5.7 -0.9 -5.7 -0.9 -5.75 -0.9 -5.8 -0.85 -5.85 -0.9 -5.9 -0.9 -5.95 -0.9 -6.05 -0.95 -6.1 -1.0 -6.2 -1.05 -6.55 -1.1 -6.9 -1.1 -7.0 -1.1 -7.05 -1.1 -7.15 -1.1 -7.2 -1.1 -7.3 -1.05 -7.35 -1.05 -7.4 -1.0 -7.45 -0.95 -7.5 -0.9 -7.5 -0.85 -7.55 -0.8 -7.55 -0.7 -7.6 -0.65 -7.6 -0.6 -7.6 -0.5 -7.6 -0.45 -7.6 -0.4 -7.6 -0.3 -7.55 -0.25 -7.55 -0.2 -7.5 -0.15 -7.5 -0.1 -7.45 -0.05 -7.4 0.0 -7.35 0.05 -7.25 0.05 -7.2 0.1 -7.15 0.1 -7.05 0.1 -7.0 0.1 -6.9 0.1 -6.8 0.1 -6.75 0.1 -6.7 0.1 -6.65 0.1 -6.6 0.05 -6.55 0.05 -6.5 0.05 -6.45 0.05 -6.4 0.0 -6.35 0.0 -6.3 0.0 -6.25 -0.05 -6.2 -0.05 -6.15 -0.05 -6.1 -0.1 -6.05 -0.1 -6.0 -0.1 -5.95 -0.1 -5.95 -0.1 -5.9 -0.1 -5.85 -0.1 -5.8 -0.05 -5.75 -0.05 -5.75 0.0 -5.7 0.05 -5.7 0.1 -5.65 0.2 -5.65 0.25 -5.6 0.3 -5.6 0.35 -5.6 0.45 -5.55 0.5 -5.5 0.55 -5.5 0.6 -5.45 0.65 -5.45 0.7 -5.4 0.75 -5.35 0.8 -5.3 0.85 -5.25 0.9 -5.2 0.95 -5.15 0.95 -5.1 1.0 -5.1 1.0 -5.05 1.05 -5.0 1.05 -4.95 1.05 -4.9 1.05 -4.85 1.05 -4.8 1.05 -4.75 1.05 -4.7 1.0 -4.65 1.0 -4.6 0.95 -4.6 0.85 -4.55 0.8 -4.5 0.75 -4.5 0.75 -4.45 0.7 -4.45 0.65 -4.4 0.65 -4.35 0.6 -4.3 0.6 -4.25 0.6 -4.2 0.5 -2.5 0.1 0.4 0.1 0.4 0.4 1.9 0.4 3.95 0.4 6.0 0.45 6.15 0.5 6.3 0.65 6.25 0.8 6.2 0.8 6.1 0.85 6.0 0.85 5.95 0.85 5.85 0.85 5.75 0.9 5.65 0.9 5.6 0.9 5.5 0.9 5.4 0.9 5.35 0.9 5.25 0.9 5.15 0.9 5.1 0.9 5.0 0.9 4.9 0.9 4.8 0.9 4.7 0.9 4.6 0.9 4.5 0.9 4.45 0.9 4.35 0.9 4.25 0.9 4.2 0.9 4.1 0.9 4.0 0.9 3.95 0.85 3.85 0.85 3.75 0.85 3.65 0.85 3.6 0.8 3.5 0.8 3.4 0.8 3.4 0.6 3.2 0.55 3.15 0.5 3.1 0.45 3.05 0.5 3.0 0.55 2.25 0.6 1.5 0.7 1.6 0.8 1.7 0.85 1.8 0.95 1.85 1.05 1.9 1.15 1.9 1.2 1.95 1.3 1.95 1.4 1.95 1.5 1.9 1.6 1.9 1.7 1.85 1.8 1.8 1.9 1.7 2.0 1.6 2.1 1.5 2.1 2.95 2.0 3.1 1.9 3.25 1.8 3.4 1.75 3.55 1.7 3.7 1.7 3.85 1.65 4.05 1.65 4.15 1.65 4.35 1.65 4.4 1.65 4.65 1.65 4.85 1.6 5.0 1.6 5.15 1.6 5.3 1.55 5.45 1.5 5.6 1.45 5.95 1.4 6.3 L1.3 6.6 Q0.45 6.6 -0.4 6.6 L-0.5 6.5 Q-0.5 3.6 -0.5 0.7 -0.5 0.6 -0.5 0.6 -0.5 0.55 -0.6 0.5 -0.65 0.6 -0.7 0.7 -0.7 3.5 -0.7 6.3 -0.7 6.35 -0.75 6.4 -0.75 6.45 -0.8 6.45 -0.85 6.5 -0.9 6.5 -0.95 6.5 -1.0 6.55 -1.1 6.55 -1.15 6.55 -1.2 6.55 -1.25 6.6 -1.35 6.6 -1.4 6.6 -1.5 6.6 -1.55 6.6 -1.6 6.6 -1.7 6.6 -1.75 6.6 -1.85 6.6 -1.9 6.6 -2.0 6.6 L-2.0 6.6" fill="#ffffff" fill-rule="evenodd" stroke="none"/>
      <path d="M3.9 0.7 Q3.9 2.2 3.9 3.7 L3.8 3.7 Q3.7 2.55 3.6 1.4 L3.6 1.4 Q3.6 1.5 3.6 1.6 3.65 2.4 3.7 3.2 3.6 4.25 3.5 5.3 3.45 5.45 3.45 5.5 3.45 5.6 3.45 5.65 3.4 5.75 3.4 5.85 3.4 5.9 3.45 6.0 3.45 6.05 3.45 6.15 3.5 6.2 3.55 6.3 3.55 6.4 3.65 6.45 3.7 6.55 3.8 6.6 3.45 6.6 3.1 6.6 3.1 6.45 3.1 6.3 3.1 5.1 3.1 3.9 3.1 3.85 3.1 3.8 3.1 3.8 3.0 3.7 3.0 3.95 3.0 4.2 3.0 5.35 3.0 6.5 3.0 6.5 2.7 6.8 2.45 6.8 2.2 6.8 L2.2 6.8 Q2.35 6.75 2.45 6.65 2.55 6.6 2.6 6.5 2.65 6.45 2.65 6.35 2.65 6.25 2.65 6.15 2.65 6.1 2.6 5.95 2.6 5.95 2.55 5.75 2.55 5.6 2.5 5.5 2.5 5.4 2.5 5.3 2.45 4.8 2.4 4.3 2.4 2.6 2.3 1.8 L2.2 1.7 Q2.15 1.7 2.1 1.75 2.05 1.8 2.0 1.85 2.0 1.85 1.9 1.9 1.85 1.95 1.8 2.0 1.75 2.05 1.7 2.05 1.6 2.1 1.55 2.1 1.5 2.1 1.45 2.1 1.35 2.05 1.3 2.0 1.2 1.95 1.1 1.9 1.0 1.8 0.9 1.75 0.8 1.65 0.75 1.55 0.65 1.5 0.6 1.4 0.55 1.3 0.5 1.2 0.45 1.05 0.4 0.95 0.4 0.8 0.4 0.7 0.4 0.55 0.4 0.4 0.4 -0.9 0.6 -3.3 0.6 -3.45 0.6 -3.55 0.65 -3.65 0.7 -3.75 0.75 -3.85 0.8 -3.95 0.85 -4.0 0.9 -4.1 1.0 -4.15 1.05 -4.25 1.15 -4.3 1.25 -4.35 1.3 -4.4 1.4 -4.5 1.5 -4.55 1.6 -4.6 1.6 -4.6 1.8 -4.8 1.7 -4.85 1.6 -4.9 L1.6 -4.9 Q1.55 -4.95 1.5 -5.0 1.45 -5.05 1.45 -5.15 1.4 -5.25 1.4 -5.35 1.35 -5.4 1.35 -5.5 1.35 -5.65 1.35 -5.75 1.35 -5.85 1.4 -5.95 1.4 -6.05 1.45 -6.15 1.45 -6.25 1.5 -6.3 1.5 -6.35 1.55 -6.4 1.6 -6.45 1.6 -6.5 1.65 -6.55 1.7 -6.55 1.75 -6.6 1.8 -6.6 1.85 -6.65 1.9 -6.65 1.95 -6.65 2.0 -6.7 2.0 -6.7 2.05 -6.7 2.1 -6.7 2.1 -6.7 2.15 -6.7 2.15 -6.65 2.2 -6.6 2.25 -6.6 2.25 -6.55 2.3 -6.5 2.3 -6.45 2.35 -6.4 2.5 -6.1 2.4 -6.3 2.45 -6.2 2.45 -6.2 2.5 -6.15 2.55 -6.1 2.55 -6.05 2.6 -6.0 2.6 -6.0 2.6 -5.3 2.55 -5.2 2.5 -5.1 L2.4 -5.0 Q2.4 -4.9 2.4 -4.85 2.45 -4.8 2.5 -4.8 2.7 -4.75 2.9 -4.65 3.05 -4.55 3.2 -4.45 3.3 -4.35 3.4 -4.2 3.5 -4.05 3.55 -3.85 3.6 -3.75 3.65 -3.55 3.7 -3.4 3.7 -3.2 3.75 -3.05 3.75 -2.85 3.8 -2.5 3.8 -2.5 4.0 -0.7 4.0 0.1 4.0 0.15 4.0 0.2 4.0 0.25 3.95 0.3 3.95 0.35 3.9 0.4 3.9 0.45 3.85 0.5 3.85 0.55 3.8 0.65 3.75 0.7 3.7 0.75 3.65 0.8 3.6 0.9 3.55 0.95 3.5 1.0 3.45 0.9 3.4 0.8 3.45 0.4 3.5 0.0 3.5 -0.4 3.5 -0.8 3.5 -0.95 3.45 -1.05 3.45 -1.2 3.4 -1.35 3.4 -1.45 3.4 -1.6 3.35 -1.75 3.35 -1.85 3.3 -2.0 3.25 -2.15 3.25 -2.3 3.2 -2.4 3.15 -2.55 3.1 -2.7 3.05 -2.85 3.0 -3.0 3.0 -3.05 3.0 -3.1 3.0 -3.1 3.0 -3.15 3.0 -3.2 2.95 -3.25 2.95 -3.25 2.9 -3.3 2.9 -3.25 2.85 -3.2 2.85 -3.1 2.85 -3.05 2.8 -3.0 2.8 -2.95 2.8 -2.85 2.8 -2.8 2.75 -2.75 2.75 -2.65 2.75 -2.6 2.75 -2.55 2.75 -2.5 2.75 -2.4 2.8 -2.35 2.8 -2.3 2.8 -2.25 2.8 -2.2 2.8 -2.1 2.8 -2.05 2.85 -2.0 2.85 -1.95 2.85 -1.85 2.85 -1.8 2.9 -1.75 2.9 -1.65 2.9 -1.6 2.95 -1.55 2.95 -1.5 2.95 -1.4 3.0 -1.35 3.0 -1.3 2.8 -1.25 2.7 -1.2 2.55 -1.15 2.45 -1.05 2.4 -1.0 2.35 -0.9 2.3 -0.8 2.3 -0.7 2.3 -0.6 2.3 -0.5 2.3 -0.4 2.35 -0.25 2.4 -0.15 2.4 -0.05 2.35 -0.25 2.5 0.2 2.45 0.25 2.4 0.3 2.3 0.35 2.25 0.4 2.2 0.5 2.1 0.55 2.05 0.6 2.0 0.65 1.9 0.7 1.8 0.75 1.75 0.8 1.65 0.85 1.55 0.9 1.5 0.9 1.4 0.95 1.3 1.0 1.25 1.05 1.25 1.05 1.2 1.05 1.15 1.0 1.1 1.0 1.05 0.95 1.6 1.3 0.9 0.85 0.85 0.8 0.8 0.8 L0.8 0.6 Q0.9 -0.45 1.0 -1.5 1.05 -1.6 1.1 -1.7 1.15 -1.8 1.15 -1.9 1.2 -2.0 1.2 -2.15 1.25 -2.25 1.25 -2.35 1.25 -2.5 1.25 -2.6 1.25 -2.7 1.25 -2.85 1.25 -2.95 1.25 -3.05 1.2 -3.2 1.2 -3.3 1.15 -3.35 1.1 -3.4 1.1 -3.0 1.1 -2.6 1.0 -1.9 0.6 -0.5 0.6 -0.45 0.6 -0.4 0.6 -0.35 0.6 -0.35 0.6 -0.3 0.6 -0.25 0.6 -0.2 0.6 -0.15 0.6 -0.1 0.6 -0.1 0.65 -0.05 0.65 0.0 0.65 0.05 0.65 0.05 0.7 0.1 0.7 0.1 0.7 0.35 0.7 0.6 0.7 0.65 0.7 0.7 0.7 0.75 0.7 0.8 0.7 0.85 0.75 0.85 0.75 0.9 0.8 0.9 0.85 0.9 0.9 0.95 0.9 0.95 0.95 0.95 1.0 1.0 1.05 1.0 1.1 1.0 1.15 1.05 1.2 1.05 1.25 1.05 1.3 1.05 1.35 1.1 1.4 1.1 1.4 1.1 1.45 1.1 1.5 1.1 1.6 1.05 1.7 1.0 1.75 0.95 1.85 0.9 1.9 0.85 2.0 0.8 2.05 0.75 2.15 0.7 2.2 0.65 2.3 0.6 2.35 0.5 2.4 0.5 2.5 0.45 2.55 0.4 2.65 0.35 2.7 0.3 2.7 0.2 2.7 0.1 2.7 0.05 2.65 0.0 2.65 0.0 2.65 -0.05 2.6 -0.1 2.6 -0.15 2.6 -0.2 2.55 -0.25 2.55 -0.3 2.55 -0.35 2.55 -0.4 2.5 -0.45 2.5 -0.5 2.5 -0.5 2.5 -0.55 2.5 -0.6 2.5 -0.65 2.5 -0.65 2.5 -0.7 2.55 -0.75 2.55 -0.75 2.6 -0.8 2.6 -0.8 2.65 -0.85 2.65 -0.9 2.7 -0.9 2.75 -0.95 2.8 -0.95 2.8 -1.0 2.9 -1.05 2.95 -1.05 3.0 -1.1 3.0 -1.05 3.05 -1.05 3.1 -1.0 3.1 -0.95 3.15 -0.95 3.2 -0.9 3.25 -0.85 3.3 -0.85 3.35 -0.8 3.35 -0.75 3.4 -0.75 3.45 -0.7 3.45 -0.65 3.5 -0.6 3.5 -0.55 3.5 -0.5 3.45 0.1 3.4 0.7 3.4 0.95 3.4 1.2 3.45 1.2 3.5 1.2 3.5 1.2 3.55 1.2 3.6 1.2 3.65 1.15 3.65 1.15 3.7 1.1 3.65 1.05 3.7 0.95 3.75 0.9 3.9 0.7 L3.9 0.7" fill="#ffffff" fill-rule="evenodd" stroke="none"/>
      <path d="M-2.4 6.6 Q-2.65 6.6 -2.9 6.6 -2.9 6.45 -2.9 6.3 -2.9 4.8 -2.9 3.3 L-3.0 3.2 -3.1 3.3 Q-3.1 4.8 -3.1 6.3 -3.1 6.35 -3.1 6.4 -3.15 6.45 -3.15 6.5 -3.2 6.55 -3.2 6.6 -3.25 6.65 -3.3 6.7 -3.35 6.7 -3.4 6.7 -3.45 6.75 -3.5 6.7 -3.6 6.7 -3.65 6.7 -3.75 6.65 -3.8 6.6 -3.65 6.45 -3.55 6.25 -3.45 6.1 -3.4 5.9 -3.35 5.7 -3.35 5.5 -3.4 5.35 -3.4 5.15 -3.45 5.0 -3.5 4.8 -3.55 4.6 -3.6 4.4 -3.65 4.2 -3.65 4.05 -3.7 3.85 -3.7 3.7 -3.7 3.45 -3.7 3.2 -3.7 3.05 -3.7 3.0 -3.7 2.95 -3.75 2.9 -3.8 2.9 -3.9 2.9 -4.0 2.85 -4.1 2.8 -4.1 2.65 -4.05 2.5 -4.05 2.35 -4.0 2.2 -3.95 2.1 -3.95 1.95 -3.85 1.7 -3.85 1.65 -3.85 1.5 -3.8 1.35 -3.75 1.2 -3.75 1.1 -3.75 0.95 -3.7 0.8 -3.7 0.65 -3.7 0.5 -3.7 0.0 -3.7 -0.5 -3.75 -0.55 -3.8 -0.6 -3.8 0.6 -4.0 2.4 -4.05 2.35 -4.1 2.2 -4.1 2.0 -4.15 1.75 -4.15 1.5 -4.15 1.15 -4.15 0.85 -4.1 0.5 -4.1 0.15 -4.05 -0.2 -4.05 -0.5 -4.0 -0.8 -3.95 -1.1 -3.9 -1.25 -3.85 -1.45 -3.8 -1.5 -3.75 -1.45 -3.7 -1.4 -3.65 -1.35 -3.6 -1.3 -3.6 -1.3 -3.55 -1.3 -3.55 -1.3 -3.5 -1.35 -3.5 -1.35 -3.5 -1.4 -3.5 -1.45 -3.45 -1.5 -3.45 -1.5 -3.45 -1.6 -3.4 -1.65 -3.4 -1.7 -3.4 -1.75 -3.35 -1.75 -3.45 -1.65 -3.3 -1.85 -3.3 -1.9 -3.3 -1.9 -3.25 -1.95 -3.25 -1.95 -3.25 -2.0 -3.25 -2.05 -3.25 -2.1 -3.25 -2.15 -3.3 -2.2 -3.3 -2.25 -3.35 -2.35 -3.4 -2.4 -3.4 -2.4 -3.4 -2.45 -3.45 -2.5 -3.4 -2.55 -3.4 -2.65 -3.4 -2.7 -3.4 -2.8 -3.35 -2.85 -3.35 -2.95 -3.3 -3.05 -3.3 -3.15 -3.25 -3.2 -3.2 -3.3 -3.15 -3.35 -3.15 -3.45 -3.1 -3.5 -3.05 -3.55 -3.0 -3.6 -2.95 -3.6 -2.9 -3.6 -2.85 -3.65 -2.75 -3.6 -2.7 -3.6 -2.6 -3.55 -2.55 -3.55 -2.5 -3.5 -2.45 -3.45 -2.4 -3.4 -2.35 -3.35 -2.35 -3.3 -2.3 -3.25 -2.3 -3.2 -2.3 -2.8 -2.3 -2.4 L-2.3 -2.3 Q-2.4 -2.25 -2.5 -2.25 -2.55 -2.2 -2.6 -2.15 -2.6 -2.15 -2.6 -2.1 -2.6 -2.1 -2.6 -2.05 -2.6 -2.05 -2.55 -2.05 -2.5 -2.05 -2.45 -2.0 -2.45 -2.0 -2.4 -2.0 -2.35 -2.0 -2.3 -2.0 -2.2 -1.95 -2.15 -1.9 -2.05 -1.8 -2.0 -1.75 -1.9 -1.7 -1.85 -1.65 -1.8 -1.55 -1.75 -1.5 -1.7 -1.4 -1.65 -1.35 -1.6 -1.25 -1.6 -1.2 -1.6 -1.1 -1.6 -1.05 -1.65 -0.95 -1.7 -0.9 -1.75 -0.8 -1.8 -0.7 -1.85 -0.7 -1.9 -0.7 -1.95 -0.7 -2.0 -0.7 -2.05 -0.7 -2.1 -0.7 -2.15 -0.7 -2.15 -0.65 -2.2 -0.65 -2.2 -0.65 -2.25 -0.6 -2.25 -0.55 -2.3 -0.55 -2.3 -0.5 -2.3 -0.45 -2.3 -0.4 -2.0 2.6 -2.0 2.6 -2.05 2.7 -2.1 2.8 -2.2 2.9 -2.3 3.0 -2.6 5.4 -2.6 5.5 -2.6 5.55 -2.6 5.65 -2.6 5.7 -2.6 5.8 -2.55 5.85 -2.55 5.95 -2.55 6.0 -2.55 6.1 -2.5 6.15 -2.5 6.25 -2.5 6.3 -2.45 6.35 -2.45 6.4 -2.45 6.5 -2.4 6.55 -2.4 6.6 L-2.4 6.6" fill="#ffffff" fill-rule="evenodd" stroke="none"/>
      <path d="M-3.6 -2.6 Q-3.6 -2.15 -3.6 -1.7 -3.85 -1.7 -4.1 -1.7 -4.1 -1.65 -4.1 -1.65 -4.1 -1.65 -4.1 -1.6 -4.1 -1.6 -4.1 -1.55 -4.1 -1.5 -4.1 -1.5 -4.15 -1.45 -4.15 -1.4 -4.15 -1.4 -4.2 -1.35 -4.2 -1.3 -4.25 -1.25 -4.25 -1.25 -4.3 -1.2 -4.3 -1.35 -4.3 -1.5 -4.3 -1.5 -3.9 -2.7 -3.8 -2.65 -3.75 -2.65 -3.7 -2.6 -3.7 -2.6 -3.65 -2.6 -3.6 -2.6 L-3.6 -2.6" fill="#ffffff" fill-rule="evenodd" stroke="none"/>
    </g>
  
</svg>
