<?xml version="1.0" encoding="UTF-8" standalone="no"?>
<svg xmlns:xlink="http://www.w3.org/1999/xlink" height="21.4px" width="21.4px" xmlns="http://www.w3.org/2000/svg">
  <g transform="matrix(1.0, 0.0, 0.0, 1.0, 10.7, 10.7)">
    <use data-characterId="9" height="21.4" transform="matrix(1.0, 0.0, 0.0, 1.0, -10.7, -10.7)" width="21.4" xlink:href="#shape0"/>
  </g>
  
    <g id="shape0" transform="matrix(1.0, 0.0, 0.0, 1.0, 10.7, 10.7)">
      <path d="M-0.1 -10.3 Q0.9 -10.3 1.9 -10.1 2.9 -9.9 3.8 -9.5 4.7 -9.1 5.5 -8.55 6.3 -8.0 7.0 -7.3 7.7 -6.6 8.25 -5.8 8.8 -4.95 9.2 -4.05 9.6 -3.15 9.8 -2.15 10.0 -1.15 10.0 -0.1 10.0 0.95 9.8 1.95 9.6 2.95 9.2 3.85 8.8 4.75 8.25 5.6 7.7 6.4 7.0 7.1 6.3 7.8 5.5 8.35 4.7 8.9 3.8 9.3 2.9 9.7 1.9 9.9 0.9 10.1 -0.1 10.1 -1.15 10.1 -2.15 9.9 -3.1 9.7 -4.0 9.3 -4.9 8.9 -5.7 8.35 -6.5 7.75 -7.2 7.05 -7.9 6.35 -8.4 5.5 -8.95 4.65 -9.3 3.75 -9.7 2.75 -9.9 1.75 -10.1 0.7 -10.1 -0.4 -10.1 -1.4 -9.9 -2.35 -9.7 -3.3 -9.3 -4.2 -8.95 -5.05 -8.4 -5.85 -7.85 -6.65 -7.15 -7.35 -6.5 -8.0 -5.7 -8.55 -4.85 -9.1 -4.0 -9.5 -3.05 -9.9 -2.1 -10.1 -1.1 -10.3 -0.1 -10.3 L-0.1 -10.3 M7.7 -0.1 Q7.7 -0.9 7.55 -1.65 7.4 -2.4 7.1 -3.1 6.8 -3.8 6.4 -4.45 6.0 -5.05 5.45 -5.55 4.95 -6.1 4.35 -6.5 3.75 -6.95 3.1 -7.25 2.45 -7.55 1.75 -7.7 1.0 -7.9 0.3 -7.9 -0.5 -7.9 -1.3 -7.75 -2.05 -7.65 -2.8 -7.35 -3.5 -7.05 -4.1 -6.6 -4.75 -6.2 -5.25 -5.65 -5.8 -5.15 -6.25 -4.55 -6.65 -3.9 -7.0 -3.25 -7.3 -2.55 -7.5 -1.8 -7.65 -1.05 -7.7 -0.3 -7.7 0.55 -7.55 1.35 -7.4 2.15 -7.1 2.85 -6.85 3.6 -6.45 4.25 -6.05 4.9 -5.5 5.45 -5.0 6.0 -4.4 6.4 -3.8 6.85 -3.1 7.15 -2.4 7.5 -1.65 7.65 -0.9 7.8 -0.1 7.8 0.7 7.8 1.45 7.65 2.2 7.5 2.95 7.2 3.65 6.9 4.25 6.45 4.9 6.05 5.4 5.5 5.95 4.95 6.35 4.35 6.8 3.7 7.1 3.0 7.4 2.25 7.55 1.5 7.7 0.7 7.7 -0.1 L7.7 -0.1" fill="#ffffff" fill-rule="evenodd" stroke="none"/>
    </g>
  
</svg>
