<?xml version="1.0" encoding="UTF-8" standalone="no"?>
<svg xmlns:xlink="http://www.w3.org/1999/xlink" height="22.2px" width="22.25px" xmlns="http://www.w3.org/2000/svg">
  <g transform="matrix(1.0, 0.0, 0.0, 1.0, 11.1, 11.05)">
    <use data-characterId="202" height="19.8" transform="matrix(1.0, 0.0, 0.0, 1.0, -9.9, -9.9)" width="19.8" xlink:href="#shape0"/>
  </g>
  
    <g id="shape0" transform="matrix(1.0, 0.0, 0.0, 1.0, 9.9, 9.9)">
      <path d="M-5.8 8.4 Q-5.2 8.4 -4.6 8.4 -4.6 8.05 -4.6 7.7 -4.3 7.7 -4.0 7.7 -4.0 7.6 -4.0 7.5 -4.0 1.75 -4.0 -4.0 -4.0 -4.05 -4.0 -4.1 -4.0 -4.15 -4.0 -4.2 -3.95 -4.3 -3.95 -4.35 -3.95 -4.4 -3.9 -4.45 -3.9 -4.5 -3.9 -4.55 -3.85 -4.6 -3.85 -4.65 -3.8 -4.7 -3.75 -4.7 -3.75 -4.75 -3.7 -4.8 -3.65 -4.85 -3.6 -4.95 -3.5 -5.0 -3.45 -5.05 -3.4 -5.1 -3.3 -5.15 -3.25 -5.15 -3.2 -5.2 -3.1 -5.25 -3.0 -5.25 -2.95 -5.25 -2.85 -5.3 -2.75 -5.3 -2.7 -5.3 -2.6 -5.3 -2.5 -5.3 -1.95 -5.3 -1.4 -5.3 -1.4 -5.6 -1.4 -5.9 -1.5 -5.95 -1.6 -6.0 -1.7 -6.1 -1.8 -6.15 -1.9 -6.25 -1.95 -6.3 -2.05 -6.4 -2.1 -6.5 -2.15 -6.6 -2.2 -6.65 -2.25 -6.75 -2.3 -6.85 -2.3 -6.95 -2.35 -7.1 -2.4 -7.2 -2.4 -7.3 -2.45 -7.45 -2.45 -7.55 -2.5 -7.7 -2.5 -7.8 -2.5 -7.9 -2.45 -8.0 -2.45 -8.1 -2.4 -8.2 -2.4 -8.35 -2.35 -8.45 -2.3 -8.5 -2.2 -8.6 -2.15 -8.7 -2.05 -8.8 -2.0 -8.9 -1.9 -9.0 -1.85 -9.05 -1.8 -9.1 -1.75 -9.15 -1.65 -9.2 -1.6 -9.25 -1.55 -9.3 -1.5 -9.35 -1.45 -9.35 -1.4 -9.4 -1.3 -9.45 -1.25 -9.5 -1.2 -9.5 -1.1 -9.55 -1.05 -9.55 -0.95 -9.6 -0.9 -9.6 -0.85 -9.6 -0.75 -9.65 -0.7 -9.65 -0.6 -9.65 -0.55 -9.65 -0.45 -9.65 -0.4 -9.65 -0.3 -9.6 -0.25 -9.6 -0.15 -9.6 -0.1 -9.55 0.0 -9.55 0.05 -9.5 0.15 -9.45 0.2 -9.45 0.3 -9.4 0.35 -9.4 0.35 -9.35 0.4 -9.35 0.45 -9.3 0.45 -9.3 0.5 -9.3 0.5 -9.25 0.55 -9.25 0.6 -9.2 0.6 -9.2 0.65 -9.15 0.65 -9.15 0.7 -9.1 0.75 -9.05 0.75 -9.05 0.8 -9.0 0.85 -8.95 0.85 -8.9 0.9 -8.9 0.95 -8.85 0.95 -8.8 1.0 -8.75 1.0 -8.75 1.05 -8.7 1.05 -8.65 1.1 -8.6 1.1 -8.6 1.1 -8.55 1.15 -8.5 1.15 -8.45 1.15 -8.45 1.2 -8.4 1.2 -8.35 1.25 -8.3 1.25 -8.2 1.25 -8.15 1.3 -8.1 1.3 -8.05 1.3 -7.95 1.3 -7.9 1.35 -7.85 1.35 -7.75 1.35 -7.7 1.35 -7.65 1.35 -7.6 1.35 -7.5 1.3 -7.45 1.3 -7.4 1.3 -7.35 1.25 -7.3 1.25 -7.15 1.2 -7.15 1.2 -7.1 1.2 -7.05 1.15 -6.95 1.15 -6.9 1.1 -6.85 1.1 -6.8 1.05 -6.75 1.05 -6.7 1.0 -6.65 0.95 -6.6 0.95 -6.55 0.9 -6.5 0.85 -6.45 0.85 -6.45 0.85 -6.45 0.8 -6.4 0.8 -6.4 0.75 -6.35 0.7 -6.35 0.7 -6.3 0.65 -6.25 0.6 -6.25 0.6 -6.2 0.55 -6.2 0.5 -6.15 0.45 -6.15 0.45 -6.1 0.4 -6.1 0.35 -6.0 0.3 -6.0 0.3 -5.95 0.3 -5.9 0.3 -5.7 0.3 -5.5 0.8 -5.5 1.3 -5.5 1.4 -5.5 1.45 -5.5 1.55 -5.5 1.6 -5.5 1.65 -5.45 1.75 -5.45 1.8 -5.45 1.9 -5.4 1.95 -5.4 2.05 -5.35 2.1 -5.35 2.15 -5.3 2.2 -5.25 2.3 -5.2 2.35 -5.15 2.4 -5.1 2.45 -5.05 2.45 -5.0 2.5 -5.0 2.55 -4.95 2.6 -4.9 2.6 -4.85 2.65 -4.8 2.65 -4.75 2.7 -4.7 2.75 -4.65 2.75 -4.6 2.75 -4.5 2.8 -4.45 2.8 -4.4 2.8 -4.35 2.8 -4.3 2.8 -3.55 2.8 -2.8 2.8 -2.45 2.8 -2.1 2.95 -2.1 3.1 -2.1 3.05 -2.15 3.05 -2.15 3.05 -2.2 3.05 -2.25 3.0 -2.3 3.0 -2.3 3.0 -2.35 2.95 -2.4 2.95 -2.45 2.95 -2.45 2.95 -2.5 2.9 -2.55 2.9 -2.6 2.9 -2.6 2.9 -2.65 2.9 -2.7 2.9 -3.0 2.9 -3.3 2.9 -3.35 2.9 -3.35 2.9 -3.4 2.95 -3.45 2.95 -3.45 2.95 -3.5 3.0 -3.5 3.0 -3.55 3.05 -3.55 3.05 -3.6 3.1 -3.6 3.1 -3.6 3.15 -3.65 3.15 -3.65 3.2 -3.7 3.2 -3.7 3.5 -3.85 3.8 -4.0 3.75 -4.2 3.7 -4.4 3.7 -4.45 3.65 -4.55 3.65 -4.6 3.6 -4.7 3.55 -4.75 3.5 -4.85 3.45 -4.9 3.4 -4.95 3.35 -5.05 3.3 -5.1 3.25 -5.15 3.2 -5.2 3.1 -5.25 3.05 -5.3 2.95 -5.35 2.9 -5.4 2.75 -5.45 2.6 -5.5 2.55 -5.5 2.5 -5.55 2.5 -5.6 2.5 -5.7 2.6 -5.9 2.7 -6.1 2.75 -6.15 2.8 -6.2 2.85 -6.2 2.9 -6.15 2.95 -6.15 3.0 -6.1 3.05 -6.1 3.1 -6.1 3.15 -6.05 3.2 -6.05 3.25 -6.0 3.25 -6.0 3.3 -5.95 3.35 -5.95 3.4 -5.9 3.4 -5.85 3.45 -5.85 3.5 -5.8 3.55 -5.75 3.6 -5.7 3.65 -5.7 3.7 -5.65 3.75 -5.6 3.8 -5.55 3.85 -5.5 3.9 -5.4 3.95 -5.35 3.95 -5.3 4.0 -5.25 4.05 -5.2 4.1 -5.1 4.1 -5.05 4.15 -5.0 4.2 -4.9 4.2 -4.85 4.25 -4.8 4.25 -4.8 4.25 -4.75 4.3 -4.7 4.3 -4.65 4.3 -4.6 4.35 -4.55 4.35 -4.5 4.35 -4.45 4.35 -4.4 4.4 -4.35 4.4 -4.3 4.4 -4.3 4.4 -4.25 4.4 -4.2 4.4 -4.2 4.6 -3.8 4.8 -3.4 4.9 -3.3 4.95 -3.25 5.0 -3.2 5.05 -3.2 5.1 -3.15 5.15 -3.15 5.15 -3.1 5.2 -3.1 5.2 -3.05 5.2 -3.05 5.2 -3.0 5.2 -2.95 5.2 -2.95 5.2 -2.9 5.2 -2.9 5.2 -2.95 5.2 -2.85 5.2 -2.8 5.2 -2.8 5.2 -2.75 5.2 -2.75 5.2 -2.75 5.2 -2.7 5.2 -2.7 5.2 -2.7 5.2 -2.65 5.15 -2.65 5.15 -2.65 5.15 -2.6 5.15 -2.6 5.1 -2.55 5.1 -2.55 5.05 -2.55 5.05 -2.5 5.0 -2.5 5.0 -2.5 4.8 -2.3 4.6 -1.85 4.4 -1.4 4.35 -1.3 4.3 -1.2 4.2 -1.1 4.2 -1.1 4.2 -1.1 4.2 -1.0 4.2 -0.8 4.2 -0.65 4.2 -0.45 4.25 -0.25 4.25 -0.1 4.3 0.1 4.3 0.25 4.35 0.45 4.4 0.6 4.45 0.8 4.5 0.95 4.55 1.1 4.6 1.3 4.65 1.45 4.7 1.65 4.8 1.8 4.8 1.85 4.85 1.9 4.85 1.95 4.9 2.0 4.9 2.05 4.95 2.1 5.0 2.15 5.0 2.2 5.05 2.25 5.1 2.25 5.1 2.3 5.15 2.35 5.2 2.4 5.25 2.4 5.25 2.45 5.3 2.5 5.65 2.9 6.0 3.3 6.05 3.35 6.05 3.4 6.1 3.5 6.15 3.55 6.2 3.6 6.2 3.65 6.25 3.7 6.3 3.75 6.3 3.85 6.35 3.9 6.4 3.95 6.4 4.0 6.45 4.1 6.45 4.15 6.5 4.25 6.5 4.3 6.5 4.3 6.5 5.2 6.5 5.3 6.45 5.35 6.45 5.45 6.4 5.5 6.4 5.55 6.35 5.65 6.3 5.7 6.25 5.8 6.25 5.85 6.2 5.95 6.15 6.0 6.1 6.05 6.05 6.1 6.0 6.2 5.95 6.25 5.9 6.3 5.85 6.35 5.8 6.35 5.8 6.4 5.75 6.45 5.7 6.5 5.65 6.5 5.6 6.55 5.55 6.6 5.5 6.6 5.45 6.65 5.4 6.7 5.3 6.7 5.25 6.75 5.2 6.75 5.15 6.8 5.1 6.8 5.0 6.8 4.9 6.85 4.85 6.85 4.75 6.85 4.65 6.85 4.55 6.85 4.5 6.85 4.4 6.85 4.3 6.85 4.25 6.85 4.15 6.85 4.05 6.8 3.95 6.8 3.9 6.75 3.8 6.75 3.7 6.7 3.6 6.7 3.6 6.7 3.55 6.65 3.5 6.6 3.5 6.6 3.5 6.6 3.5 6.85 3.5 7.1 3.5 7.15 3.5 7.2 3.45 7.25 3.45 7.3 3.45 7.35 3.4 7.35 3.35 7.4 3.3 7.4 3.3 7.45 3.25 7.45 3.2 7.45 3.15 7.5 3.1 7.5 3.1 7.5 3.05 7.5 3.0 7.5 2.95 7.5 2.9 7.5 2.9 7.6 2.9 7.7 3.1 7.7 3.3 7.7 3.4 7.7 3.45 7.7 3.5 7.75 3.5 7.8 3.5 8.1 3.5 8.4 4.1 8.4 4.7 8.4 4.7 9.05 4.7 9.7 4.6 9.7 4.5 9.7 -0.6 9.7 -5.7 9.7 -5.85 9.7 -5.85 9.65 -5.9 9.65 -5.9 9.5 -5.9 9.45 -5.85 9.35 -5.85 9.3 -5.85 9.2 -5.85 9.15 -5.8 9.1 -5.8 9.0 -5.8 8.95 -5.8 8.9 -5.8 8.8 -5.8 8.75 -5.8 8.7 -5.8 8.6 -5.8 8.55 -5.8 8.5 -5.8 8.4 L-5.8 8.4 M-0.5 0.7 Q0.55 0.7 1.6 0.7 1.7 0.7 1.8 0.7 1.85 0.7 1.85 0.65 1.9 0.65 1.9 0.6 1.95 0.6 1.95 0.6 1.95 0.55 1.95 0.55 2.0 0.5 2.0 0.5 2.0 0.45 2.0 0.45 2.0 0.4 2.0 0.35 2.0 0.35 2.0 0.3 2.0 -1.5 2.0 -3.3 2.0 -3.45 2.0 -3.6 2.0 -3.65 1.95 -3.75 1.95 -3.8 1.9 -3.9 1.85 -3.95 1.8 -4.0 1.75 -4.05 1.7 -4.1 1.65 -4.15 1.6 -4.2 1.55 -4.2 1.5 -4.25 1.4 -4.25 1.35 -4.3 1.25 -4.3 1.2 -4.3 -0.4 -4.3 -2.0 -4.3 -2.05 -4.3 -2.05 -4.3 -2.1 -4.3 -2.15 -4.3 -2.15 -4.25 -2.2 -4.25 -2.2 -4.25 -2.25 -4.25 -2.25 -4.25 -2.3 -4.2 -2.3 -4.2 -2.35 -4.15 -2.4 -4.15 -2.45 -4.15 -2.45 -4.1 -2.5 -4.1 -2.55 -4.1 -2.65 -4.05 -2.7 -4.05 -2.75 -4.0 -2.8 -4.0 -2.85 -3.95 -2.85 -3.9 -2.9 -3.85 -2.95 -3.85 -2.95 -3.8 -2.95 -3.75 -3.0 -3.7 -3.0 -3.65 -3.0 -3.6 -3.0 -3.55 -3.0 -3.5 -3.0 -1.6 -3.0 0.3 -3.0 0.35 -3.0 0.35 -3.0 0.4 -3.0 0.45 -2.95 0.5 -2.95 0.5 -2.95 0.55 -2.9 0.55 -2.9 0.6 -2.85 0.65 -2.85 0.65 -2.8 0.65 -2.75 0.7 -2.7 0.7 -2.65 0.7 -2.6 0.7 -1.55 0.7 -0.5 0.7 L-0.5 0.7 M2.9 4.8 Q2.95 4.8 3.0 4.8 3.05 4.8 3.1 4.8 3.15 4.8 3.2 4.8 3.25 4.85 3.3 4.85 3.35 4.85 3.35 4.9 3.4 4.9 3.4 4.95 3.45 4.95 3.45 5.0 3.5 5.05 3.5 5.1 3.5 5.15 3.5 5.2 3.5 5.35 3.5 5.5 3.5 5.6 3.5 5.6 3.55 5.65 3.6 5.7 3.65 5.75 3.7 5.75 3.7 5.75 3.75 5.75 3.8 5.8 3.85 5.8 3.85 5.8 3.9 5.85 3.95 5.85 4.0 5.85 4.0 5.85 4.05 5.9 4.1 5.9 4.15 5.9 4.15 5.9 4.2 5.9 4.3 5.9 4.35 5.95 4.45 5.95 4.5 5.95 4.55 5.95 4.65 5.95 4.7 5.95 4.8 5.95 4.85 5.95 4.95 5.9 5.0 5.9 5.05 5.85 5.1 5.85 5.2 5.8 5.25 5.75 5.3 5.7 5.35 5.65 5.45 5.55 5.5 5.5 5.55 5.4 5.6 5.3 5.65 5.15 5.7 5.05 5.7 4.95 5.75 4.8 5.75 4.7 5.75 4.55 5.75 4.45 5.7 4.3 5.7 4.2 5.65 4.1 5.6 4.0 5.4 3.7 5.2 3.4 4.85 3.0 4.5 2.6 4.2 2.2 3.9 1.8 3.85 1.75 3.85 1.7 3.8 1.6 3.75 1.55 3.75 1.5 3.7 1.45 3.7 1.35 3.65 1.3 3.65 1.2 3.6 1.15 3.6 1.1 3.6 1.0 3.55 0.95 3.55 0.85 3.5 0.8 3.5 0.7 3.5 0.75 3.5 0.75 3.5 0.8 3.5 0.85 3.5 0.9 3.5 0.9 3.5 0.95 3.5 1.0 3.5 1.05 3.5 1.05 3.45 1.1 3.45 1.15 3.45 1.2 3.45 1.25 3.4 1.25 3.4 1.3 3.4 1.35 3.35 1.35 3.35 1.4 3.3 1.4 3.25 1.45 3.2 1.45 3.2 1.45 3.15 1.45 3.1 1.5 3.05 1.5 3.0 1.5 2.95 1.5 2.95 1.5 2.9 1.5 2.85 1.5 2.8 1.5 2.9 2.6 2.9 4.8 L2.9 4.8 M-1.9 -7.7 Q-1.9 -7.55 -1.85 -7.4 -1.85 -7.25 -1.8 -7.15 -1.75 -7.0 -1.65 -6.9 -1.6 -6.8 -1.5 -6.7 -1.4 -6.6 -1.3 -6.55 -1.2 -6.45 -1.1 -6.4 -1.0 -6.35 -0.85 -6.35 -0.75 -6.3 -0.6 -6.3 -0.45 -6.3 -0.3 -6.35 -0.2 -6.35 -0.05 -6.4 0.05 -6.45 0.15 -6.55 0.25 -6.6 0.35 -6.7 0.45 -6.8 0.5 -6.9 0.55 -7.0 0.6 -7.1 0.65 -7.2 0.7 -7.35 0.7 -7.45 0.7 -7.6 0.7 -7.75 0.65 -7.9 0.65 -8.05 0.6 -8.15 0.55 -8.3 0.45 -8.4 0.4 -8.5 0.3 -8.6 0.2 -8.7 0.1 -8.75 0.0 -8.85 -0.1 -8.9 -0.2 -8.95 -0.35 -8.95 -0.45 -9.0 -0.6 -9.0 -0.75 -9.0 -0.85 -8.95 -1.0 -8.95 -1.1 -8.9 -1.2 -8.85 -1.3 -8.75 -1.4 -8.7 -1.5 -8.6 -1.6 -8.5 -1.65 -8.4 -1.75 -8.3 -1.8 -8.2 -1.85 -8.1 -1.85 -7.95 -1.9 -7.85 -1.9 -7.7 L-1.9 -7.7 M3.6 5.9 Q3.6 6.05 3.6 6.2 3.65 6.25 3.7 6.3 3.8 6.35 3.85 6.35 3.95 6.4 4.0 6.45 4.1 6.45 4.2 6.5 4.25 6.5 4.35 6.5 4.45 6.55 4.55 6.55 4.65 6.55 4.75 6.55 4.8 6.55 4.9 6.55 5.0 6.5 5.1 6.5 5.2 6.5 5.3 6.45 5.35 6.4 5.45 6.4 5.55 6.35 5.6 6.3 5.7 6.25 5.8 6.2 5.85 6.15 5.9 6.1 6.0 6.0 6.05 5.95 6.1 5.85 6.2 5.8 6.25 5.7 6.3 5.6 6.35 5.45 6.4 5.35 6.45 5.2 6.5 5.05 6.5 4.9 6.55 4.8 6.55 4.65 6.55 4.5 6.55 4.35 6.5 4.25 6.5 4.1 6.45 4.0 6.35 3.85 6.3 3.75 6.2 3.6 6.1 3.5 5.9 3.3 5.3 2.5 5.0 2.1 4.7 1.7 4.65 1.55 4.6 1.45 4.55 1.3 4.5 1.15 4.45 1.0 4.4 0.9 4.35 0.75 4.35 0.6 4.3 0.45 4.3 0.3 4.25 0.15 4.25 0.0 4.2 -0.15 4.2 -0.3 4.2 -0.45 4.2 -0.6 4.2 -0.95 4.2 -1.3 4.0 -1.3 3.8 -1.3 3.8 -1.25 3.8 -1.2 3.8 -1.0 3.8 -0.95 3.8 -0.8 3.8 -0.65 3.8 -0.55 3.8 -0.4 3.8 -0.25 3.85 -0.15 3.85 0.0 3.85 0.1 3.85 0.25 3.9 0.4 3.9 0.5 3.95 0.65 3.95 0.75 4.0 0.9 4.25 1.7 4.4 1.9 5.0 2.65 5.6 3.4 5.65 3.45 5.65 3.5 5.7 3.55 5.75 3.6 5.8 3.65 5.8 3.7 5.85 3.75 5.9 3.8 5.9 3.85 5.95 3.9 6.0 4.0 6.0 4.05 6.05 4.1 6.05 4.15 6.1 4.25 6.1 4.3 6.1 4.35 6.15 4.45 6.15 4.5 6.15 4.6 6.15 4.65 6.15 4.75 6.15 4.8 6.1 4.9 6.1 4.95 6.1 5.05 6.05 5.1 6.05 5.15 6.0 5.2 5.95 5.3 5.95 5.35 5.9 5.4 5.85 5.5 5.8 5.6 5.7 5.7 5.65 5.8 5.55 5.85 5.5 5.9 5.4 5.95 5.3 6.0 5.2 6.05 5.15 6.1 5.05 6.1 4.95 6.1 4.85 6.15 4.7 6.1 4.6 6.1 4.5 6.1 4.45 6.1 4.4 6.1 4.35 6.1 4.3 6.1 4.2 6.05 4.15 6.05 4.1 6.05 4.05 6.05 4.0 6.0 3.95 6.0 3.9 6.0 3.85 5.95 3.8 5.95 3.7 5.95 3.7 5.95 3.6 5.9 L3.6 5.9 M4.0 -1.4 Q4.0 -1.4 4.0 -1.4 4.05 -1.4 4.1 -1.4 4.05 -1.4 4.0 -1.4 4.15 -1.4 4.2 -1.4 4.25 -1.4 4.3 -1.4 4.3 -1.45 4.35 -1.5 4.35 -1.5 4.4 -1.6 4.45 -1.65 4.45 -1.75 4.5 -1.8 4.55 -1.9 4.55 -1.95 4.6 -2.05 4.65 -2.2 4.65 -2.2 4.7 -2.25 4.7 -2.35 4.75 -2.4 4.75 -2.45 4.8 -2.55 4.85 -2.6 4.85 -2.65 4.9 -2.7 4.9 -2.8 4.9 -2.9 4.75 -3.25 4.6 -3.6 4.6 -3.65 4.55 -3.7 4.5 -3.7 4.4 -3.7 4.1 -3.6 3.8 -3.5 3.75 -3.5 3.75 -3.5 3.7 -3.5 3.65 -3.45 3.6 -3.45 3.55 -3.4 3.5 -3.4 3.45 -3.35 3.45 -3.35 3.4 -3.3 3.35 -3.25 3.35 -3.2 3.3 -3.2 3.3 -3.15 3.25 -3.1 3.25 -3.05 3.25 -3.05 3.25 -3.0 3.2 -2.95 3.2 -2.9 3.2 -2.9 3.2 -2.85 3.2 -2.8 3.2 -2.75 3.2 -2.75 3.2 -2.7 3.35 -2.25 3.5 -1.8 3.55 -1.65 3.6 -1.5 3.6 -1.4 3.6 -1.4 3.6 -1.35 3.6 -1.3 3.65 -1.25 3.65 -1.25 3.7 -1.2 3.75 -1.2 3.8 -1.2 3.9 -1.2 3.95 -1.3 4.0 -1.4 L4.0 -1.4 M3.0 -5.9 Q2.95 -5.8 2.9 -5.7 3.05 -5.65 3.2 -5.55 3.3 -5.5 3.4 -5.4 3.5 -5.3 3.6 -5.2 3.7 -5.1 3.8 -5.0 3.85 -4.85 3.9 -4.75 3.95 -4.6 4.05 -4.5 4.05 -4.35 4.1 -4.2 4.15 -4.05 4.2 -3.9 4.35 -3.9 4.5 -3.9 4.45 -4.05 4.4 -4.25 4.35 -4.4 4.3 -4.55 4.25 -4.7 4.15 -4.8 4.1 -4.95 4.0 -5.1 3.9 -5.2 3.8 -5.35 3.7 -5.45 3.6 -5.55 3.45 -5.65 3.3 -5.75 3.15 -5.85 3.0 -5.9 L3.0 -5.9" fill="#ffffff" fill-rule="evenodd" stroke="none"/>
      <path d="M4.1 -3.5 Q3.95 -2.75 3.8 -2.0 3.75 -2.05 3.75 -2.1 3.7 -2.2 3.65 -2.25 3.6 -2.3 3.6 -2.35 3.55 -2.4 3.55 -2.45 3.5 -2.55 3.45 -2.6 3.45 -2.65 3.45 -2.7 3.4 -2.8 3.4 -2.85 3.4 -2.95 3.4 -3.0 3.4 -3.05 3.4 -3.05 3.4 -3.1 3.4 -3.15 3.4 -3.2 3.45 -3.2 3.45 -3.25 3.5 -3.3 3.55 -3.3 3.6 -3.3 3.6 -3.3 3.65 -3.35 3.65 -3.35 3.7 -3.35 3.7 -3.4 3.75 -3.4 3.8 -3.4 3.8 -3.45 3.85 -3.45 3.9 -3.45 3.9 -3.45 3.95 -3.5 4.0 -3.5 4.05 -3.5 4.05 -3.5 4.1 -3.5 4.1 -3.5 4.1 -3.5 L4.1 -3.5" fill="#ffffff" fill-rule="evenodd" stroke="none"/>
    </g>
  
</svg>
