<?xml version="1.0" encoding="UTF-8" standalone="no"?>
<svg xmlns:xlink="http://www.w3.org/1999/xlink" height="22.2px" width="18.3px" xmlns="http://www.w3.org/2000/svg">
  <g transform="matrix(1.0, 0.0, 0.0, 1.0, 9.15, 11.1)">
    <use data-characterId="47" height="19.8" transform="matrix(1.0, 0.0, 0.0, 1.0, -7.9, -9.9)" width="15.85" xlink:href="#shape0"/>
  </g>
  
    <g id="shape0" transform="matrix(1.0, 0.0, 0.0, 1.0, 7.9, 9.9)">
      <path d="M-5.3 7.3 Q-5.25 7.2 -4.7 5.8 -4.65 5.6 -4.55 5.4 -4.5 5.2 -4.5 5.0 -4.45 4.75 -4.4 4.55 -4.4 4.35 -4.4 4.15 -4.4 3.95 -4.4 3.75 -4.4 3.55 -4.4 3.3 -4.4 3.1 -4.45 2.9 -4.45 2.7 -4.5 2.5 -4.5 2.45 -4.5 2.45 -4.5 2.4 -4.5 2.35 -4.55 2.35 -4.55 2.3 -4.55 2.3 -4.6 2.25 -4.6 2.25 -4.65 2.2 -4.65 2.2 -4.7 2.2 -4.7 2.15 -4.75 2.15 -4.75 2.1 -4.8 2.1 -4.85 2.05 -4.9 2.0 -4.95 1.9 -5.0 1.85 -5.05 1.8 -5.1 1.75 -5.1 1.65 -5.15 1.6 -5.15 1.55 -5.15 1.45 -5.15 1.4 -5.15 1.35 -5.15 1.3 -5.1 1.2 -5.05 1.15 -5.0 1.1 -4.95 1.05 -4.9 0.95 -4.85 0.85 -4.85 0.8 -4.8 0.7 -4.8 0.6 -4.8 0.55 -4.8 0.45 -4.8 0.4 -4.75 0.3 -4.75 0.15 -4.75 0.1 -4.75 0.0 -4.75 -0.05 -4.75 -0.15 -4.7 -0.2 -5.9 -0.2 -6.5 -0.1 -6.85 -0.05 -7.2 0.0 -7.25 0.0 -7.3 0.0 -7.3 0.0 -7.35 0.0 -7.4 0.0 -7.4 0.0 -7.45 0.0 -7.5 0.0 -7.5 -0.05 -7.55 -0.05 -7.55 -0.05 -7.55 -0.1 -7.6 -0.1 -7.6 -0.15 -7.6 -0.15 -7.6 -0.2 -7.6 -0.25 -7.65 -0.25 -7.65 -0.3 -7.65 -0.35 -7.65 -0.35 -7.65 -0.4 -7.65 -0.4 -7.6 -0.45 -7.6 -0.5 -7.6 -0.5 -7.55 -0.55 -7.55 -0.55 -7.5 -0.6 -7.45 -0.65 -7.45 -0.65 -7.4 -0.7 -7.05 -1.0 -6.15 -1.8 -5.35 -2.55 -4.9 -2.9 -4.4 -3.35 -3.25 -4.3 -2.2 -5.25 -1.6 -5.7 -1.55 -5.75 -1.45 -5.75 -1.35 -5.85 -1.35 -5.85 -1.25 -5.9 -1.2 -5.9 -1.15 -5.95 -1.05 -5.95 -1.0 -6.0 -0.95 -6.05 -0.85 -6.05 -0.8 -6.05 -0.75 -6.1 -0.65 -6.1 -0.6 -6.1 -0.5 -6.1 0.75 -6.25 3.2 -6.5 5.7 -6.75 6.95 -6.9 7.15 -6.9 7.35 -6.9 7.4 -6.9 7.45 -6.9 7.5 -6.85 7.55 -6.85 7.55 -6.85 7.6 -6.8 7.6 -6.75 7.65 -6.7 7.65 -6.7 7.65 -6.65 7.65 -6.6 7.65 -6.55 7.65 -6.5 7.6 -6.5 7.6 -6.45 7.55 -6.4 7.45 -6.3 7.25 -6.1 6.35 -5.35 4.35 -3.65 2.45 -2.05 1.45 -1.2 1.4 -1.15 1.4 -1.15 1.35 -1.1 1.3 -1.05 1.25 -1.05 1.2 -1.0 1.15 -1.0 1.1 -0.95 1.05 -0.95 1.0 -0.95 0.95 -0.95 0.9 -0.9 0.85 -0.9 0.8 -0.9 0.75 -0.9 0.65 -0.9 0.1 -0.85 -0.95 -0.7 -2.05 -0.55 -2.6 -0.5 -2.7 -0.5 -2.8 -0.5 -2.85 -0.55 -2.9 -0.6 -2.0 -1.55 -1.4 -2.0 -1.15 -2.2 -0.65 -2.55 -0.15 -2.9 0.05 -3.1 0.25 -3.3 0.25 -3.3 0.3 -3.35 0.3 -3.35 0.35 -3.4 0.4 -3.45 0.4 -3.45 0.4 -3.5 0.45 -3.5 0.45 -3.55 0.45 -3.6 0.45 -3.6 0.45 -3.65 0.45 -3.65 0.4 -3.7 0.4 -3.75 0.4 -3.75 0.35 -3.8 0.35 -3.8 0.3 -3.85 0.3 -3.85 0.25 -3.85 0.25 -3.9 0.2 -3.9 0.2 -3.9 0.15 -3.9 0.15 -3.95 0.1 -3.95 0.05 -3.95 0.0 -3.95 0.0 -3.95 -0.05 -3.95 -0.1 -3.9 -0.1 -3.9 -0.35 -3.75 -0.6 -3.6 -0.85 -3.45 -1.05 -3.3 -1.3 -3.1 -1.5 -2.95 -1.75 -2.75 -1.95 -2.6 -2.2 -2.4 -2.4 -2.2 -2.6 -2.0 -2.8 -1.8 -3.0 -1.6 -3.15 -1.35 -3.35 -1.15 -3.5 -0.9 -3.55 -0.8 -3.6 -0.75 -3.6 -0.65 -3.65 -0.6 -3.7 -0.5 -3.75 -0.45 -3.75 -0.35 -3.8 -0.3 -3.85 -0.2 -3.85 -0.15 -3.9 -0.05 -3.9 0.05 -3.95 0.15 -3.95 0.2 -4.0 0.3 -4.0 0.4 -4.0 0.45 -4.05 0.45 -4.05 0.5 -4.05 0.55 -4.05 0.55 -4.05 0.6 -4.05 0.6 -4.0 0.65 -4.0 0.7 -4.0 0.7 -3.95 0.75 -3.95 0.75 -3.9 0.8 -3.9 0.85 -3.85 0.85 -3.8 0.9 -3.75 0.95 -3.7 1.0 -3.65 1.0 -3.65 1.05 -3.6 1.1 -3.6 1.15 -3.55 1.2 -3.55 1.25 -3.55 1.3 -3.55 1.35 -3.5 1.4 -3.5 1.5 -3.5 1.55 -3.5 1.6 -3.5 1.6 -3.5 1.7 -3.5 1.8 -3.5 2.2 -3.35 2.65 -3.05 3.35 -2.75 4.2 -2.6 4.5 -2.55 4.6 -2.55 4.7 -2.5 4.85 -2.5 4.95 -2.5 5.05 -2.45 5.15 -2.45 5.25 -2.45 5.35 -2.45 5.45 -2.45 5.55 -2.4 5.65 -2.4 5.75 -2.4 5.85 -2.4 6.0 -2.4 6.05 -2.4 6.2 -2.4 6.35 -2.45 6.5 -2.5 6.65 -2.55 6.8 -2.6 6.95 -2.7 7.05 -2.75 7.15 -2.85 7.25 -2.95 7.35 -3.05 7.4 -3.2 7.45 -3.3 7.5 -3.45 7.55 -3.6 7.6 -3.75 7.6 -3.9 7.6 -4.5 7.5 -5.3 7.3 L-5.3 7.3" fill="#ffffff" fill-rule="evenodd" stroke="none"/>
      <path d="M-2.8 0.3 Q-2.45 0.25 -1.85 0.2 -1.25 0.15 -0.9 0.1 -0.6 0.05 0.0 0.0 0.6 -0.05 0.85 -0.1 0.95 -0.1 1.0 -0.1 1.05 -0.1 1.15 -0.15 1.2 -0.15 1.3 -0.15 1.35 -0.2 1.4 -0.2 1.45 -0.25 1.55 -0.3 1.6 -0.3 1.65 -0.35 1.7 -0.4 1.75 -0.45 1.8 -0.45 1.85 -0.5 2.2 -0.8 3.1 -1.55 3.95 -2.2 4.35 -2.6 4.4 -2.65 4.45 -2.65 4.45 -2.65 4.5 -2.7 4.55 -2.7 4.6 -2.75 4.65 -2.75 4.65 -2.8 4.75 -2.7 4.85 -2.6 4.95 -2.5 5.05 -2.4 5.1 -2.3 5.2 -2.25 5.3 -2.15 5.35 -2.05 5.45 -1.95 5.5 -1.85 5.6 -1.75 5.65 -1.65 5.7 -1.55 5.75 -1.4 5.8 -1.3 5.85 -1.2 5.85 -1.15 5.9 -1.1 5.9 -1.05 5.9 -1.0 5.9 -0.95 5.95 -0.9 5.95 -0.85 5.95 -0.8 5.95 -0.75 5.95 -0.7 5.9 -0.65 5.9 -0.6 5.9 -0.55 5.9 -0.5 5.9 -0.45 5.85 -0.4 5.8 -0.25 5.75 -0.05 5.7 0.1 5.65 0.25 5.55 0.4 5.5 0.55 5.4 0.7 5.3 0.85 5.2 1.0 5.1 1.15 5.0 1.3 4.85 1.4 4.75 1.55 4.6 1.65 4.5 1.8 4.35 1.9 4.05 2.2 3.75 2.4 3.45 2.65 3.1 2.8 2.8 3.0 2.45 3.15 2.1 3.25 1.75 3.35 1.4 3.45 1.05 3.45 0.7 3.5 0.35 3.5 0.0 3.5 -0.4 3.45 -0.75 3.4 -1.1 3.3 -1.15 3.3 -1.2 3.25 -1.3 3.25 -1.35 3.2 -1.4 3.2 -1.5 3.15 -1.55 3.1 -1.6 3.1 -1.65 3.05 -1.7 3.0 -1.8 3.0 -1.85 2.95 -1.9 2.9 -1.95 2.85 -2.0 2.85 -2.0 2.8 -2.05 2.75 -2.1 2.7 -2.1 2.7 -2.15 2.65 -2.2 2.6 -2.25 2.55 -2.25 2.5 -2.3 2.45 -2.35 2.4 -2.35 2.35 -2.4 2.3 -2.4 2.25 -2.45 2.2 -2.5 2.2 -2.5 2.15 -2.5 2.1 -2.6 1.5 -2.8 0.3 L-2.8 0.3" fill="#ffffff" fill-rule="evenodd" stroke="none"/>
    </g>
  
</svg>
