<?xml version="1.0" encoding="UTF-8" standalone="no"?>
<svg xmlns:xlink="http://www.w3.org/1999/xlink" height="20.0px" width="20.05px" xmlns="http://www.w3.org/2000/svg">
  <g transform="matrix(1.0, 0.0, 0.0, 1.0, 10.0, 10.0)">
    <use data-characterId="157" height="20.0" transform="matrix(1.0, 0.0, 0.0, 1.0, -10.0, -10.0)" width="20.0" xlink:href="#shape0"/>
  </g>
  
    <g id="shape0" transform="matrix(1.0, 0.0, 0.0, 1.0, 10.0, 10.0)">
      <path d="M-0.4 -10.0 Q1.0 -10.0 2.1 -9.4 L3.15 -8.45 3.4 -8.5 Q4.05 -8.5 4.35 -7.8 4.65 -7.1 4.1 -6.6 L5.95 -6.15 Q7.05 -5.6 7.15 -4.75 L7.05 -4.05 6.7 -3.45 8.45 -3.05 Q9.9 -2.65 10.0 -1.7 10.05 -0.6 8.8 0.3 7.6 1.1 6.4 1.1 L5.9 1.0 Q5.25 1.5 4.2 1.6 L4.0 1.6 2.95 1.45 1.85 2.05 Q1.2 2.35 1.0 2.9 1.35 3.65 0.85 4.75 0.3 5.9 0.45 6.85 L2.05 7.75 Q3.1 8.25 3.3 8.9 L-0.05 7.85 0.7 8.9 1.15 9.45 1.4 10.0 -0.3 9.25 -1.15 8.75 -1.9 8.45 -1.95 8.45 -3.65 9.05 -5.9 9.7 -4.5 9.05 -3.9 8.65 -3.3 8.15 -4.5 8.35 -4.75 8.4 -5.55 8.3 -5.6 8.3 -7.25 8.7 -7.7 8.65 Q-7.35 8.6 -6.8 8.15 L-5.75 7.45 -4.8 7.25 -3.9 7.05 -3.4 6.4 -2.8 5.9 -2.7 5.3 -2.6 4.7 Q-2.15 4.45 -2.05 3.75 -1.95 3.05 -2.65 3.05 L-2.8 3.05 -3.65 1.75 Q-4.1 0.9 -4.65 0.75 -4.95 1.1 -5.8 1.35 L-7.6 1.65 Q-9.3 1.65 -9.95 0.45 -10.2 -0.25 -9.35 -1.1 L-7.95 -2.1 Q-8.35 -2.65 -7.95 -3.55 -7.5 -4.45 -6.75 -4.6 -7.0 -5.2 -6.75 -5.95 L-6.0 -7.1 Q-5.5 -7.65 -4.45 -8.05 L-2.45 -8.45 -2.15 -8.45 Q-2.3 -8.75 -2.05 -9.25 -1.7 -9.9 -1.1 -9.95 L-0.4 -10.0 M-0.4 -9.35 L-1.0 -9.35 -1.35 -9.15 -1.55 -8.6 Q-1.45 -8.35 -1.65 -8.05 -1.85 -7.8 -2.15 -7.8 L-2.45 -7.8 -4.2 -7.45 -5.5 -6.65 -6.15 -5.75 -6.2 -4.9 Q-6.0 -4.6 -6.2 -4.35 -6.25 -4.1 -6.6 -4.0 -7.2 -3.85 -7.4 -3.15 -7.6 -2.65 -7.4 -2.45 L-7.3 -1.95 Q-7.3 -1.7 -7.6 -1.5 L-8.9 -0.65 -9.35 0.25 Q-8.9 1.0 -7.6 1.0 L-6.0 0.75 Q-5.35 0.55 -5.15 0.3 L-4.65 0.1 -4.5 0.1 Q-3.55 0.35 -2.95 1.75 L-2.55 2.4 Q-1.65 2.45 -1.45 3.25 -1.35 3.7 -1.55 4.25 L-2.05 5.05 -2.05 5.35 -2.25 6.15 -2.75 6.7 -2.95 6.85 -3.1 7.1 -3.55 7.55 -3.45 7.55 -3.3 7.5 Q-3.0 7.5 -2.8 7.8 L-2.7 8.0 -2.05 7.8 -1.9 7.8 Q-1.35 7.8 -0.5 8.4 L-0.65 8.05 Q-0.85 7.7 -0.55 7.4 L-0.1 7.2 -0.2 6.95 Q-0.4 5.85 0.2 4.55 L0.5 3.85 0.4 3.15 0.4 2.7 Q0.55 2.15 1.05 1.75 L1.9 1.35 2.5 1.0 2.95 0.8 3.05 0.85 4.0 1.0 4.15 1.0 Q5.0 0.95 5.55 0.5 L5.9 0.4 6.05 0.4 6.4 0.45 7.75 0.15 8.9 -0.65 9.35 -1.65 Q9.25 -2.35 6.9 -2.75 L6.55 -2.8 Q6.15 -2.9 6.05 -3.3 5.95 -3.65 6.3 -3.95 L6.45 -4.25 6.5 -4.7 Q6.45 -5.2 5.55 -5.6 L4.0 -6.0 Q3.6 -6.05 3.45 -6.4 3.3 -6.85 3.65 -7.1 3.9 -7.2 3.75 -7.5 L3.4 -7.85 3.3 -7.85 3.15 -7.8 Q2.75 -7.8 2.6 -8.15 L1.8 -8.85 Q0.85 -9.35 -0.4 -9.35" fill="#ffffff" fill-rule="evenodd" stroke="none"/>
    </g>
  
</svg>
