<?xml version="1.0" encoding="UTF-8" standalone="no"?>
<svg xmlns:xlink="http://www.w3.org/1999/xlink" height="20.0px" width="20.0px" xmlns="http://www.w3.org/2000/svg">
  <g transform="matrix(1.0, 0.0, 0.0, 1.0, 10.0, 10.0)">
    <use data-characterId="162" height="20.0" transform="matrix(1.0, 0.0, 0.0, 1.0, -10.0, -10.0)" width="20.0" xlink:href="#shape0"/>
  </g>
  
    <g id="shape0" transform="matrix(1.0, 0.0, 0.0, 1.0, 10.0, 10.0)">
      <path d="M0.0 9.8 Q-1.0 8.4 -1.4 7.8 -1.75 7.3 -2.05 6.8 -2.4 6.3 -2.7 5.85 -3.05 5.35 -3.35 4.85 -3.65 4.3 -3.95 3.8 -4.25 3.3 -4.5 2.8 -4.8 2.25 -5.05 1.75 -5.35 1.2 -5.6 0.7 -5.85 0.15 -6.1 -0.4 -6.45 -1.2 -6.6 -2.0 -6.75 -2.75 -6.7 -3.5 -6.7 -4.2 -6.5 -4.9 -6.3 -5.55 -6.0 -6.2 -5.7 -6.8 -5.25 -7.3 -4.85 -7.85 -4.35 -8.25 -3.85 -8.7 -3.3 -9.0 -2.75 -9.3 -2.2 -9.5 -1.4 -9.75 -0.6 -9.8 0.2 -9.9 1.0 -9.75 1.8 -9.65 2.5 -9.35 3.25 -9.05 3.85 -8.6 4.5 -8.15 5.0 -7.6 5.55 -7.05 5.9 -6.35 6.3 -5.65 6.5 -4.9 6.7 -4.15 6.7 -3.3 6.7 -3.1 6.7 -2.9 6.65 -2.7 6.65 -2.5 6.6 -2.3 6.55 -2.05 6.5 -1.85 6.45 -1.65 6.4 -1.45 6.35 -1.25 6.25 -1.05 6.2 -0.85 6.15 -0.7 6.05 -0.5 6.0 -0.3 5.9 -0.1 5.6 0.55 5.3 1.25 5.0 1.85 4.65 2.5 4.35 3.15 4.0 3.75 3.65 4.35 3.25 5.0 2.9 5.6 2.5 6.2 2.1 6.8 1.7 7.4 1.3 7.95 0.85 8.6 0.45 9.15 0.0 9.8 L0.0 9.8 M3.1 -3.0 Q3.1 -3.3 3.05 -3.6 2.95 -3.9 2.85 -4.2 2.75 -4.5 2.55 -4.75 2.4 -5.0 2.2 -5.2 2.0 -5.4 1.75 -5.55 1.5 -5.75 1.2 -5.85 0.9 -5.95 0.6 -6.05 0.3 -6.1 0.0 -6.1 -0.3 -6.1 -0.6 -6.05 -0.9 -6.0 -1.2 -5.85 -1.45 -5.75 -1.7 -5.6 -1.95 -5.45 -2.15 -5.25 -2.35 -5.05 -2.5 -4.8 -2.7 -4.55 -2.8 -4.3 -2.95 -4.0 -3.0 -3.7 -3.1 -3.4 -3.1 -3.1 -3.1 -2.8 -3.05 -2.5 -3.0 -2.2 -2.85 -1.9 -2.75 -1.6 -2.6 -1.35 -2.45 -1.1 -2.25 -0.9 -2.05 -0.7 -1.8 -0.55 -1.55 -0.35 -1.3 -0.25 -1.0 -0.15 -0.7 -0.05 -0.4 0.0 -0.1 0.0 0.25 0.0 0.55 -0.05 0.85 -0.1 1.15 -0.25 1.45 -0.35 1.7 -0.5 1.95 -0.65 2.2 -0.85 2.4 -1.05 2.55 -1.3 2.75 -1.55 2.85 -1.8 2.95 -2.1 3.05 -2.4 3.1 -2.7 3.1 -3.0 L3.1 -3.0" fill="#ffffff" fill-rule="evenodd" stroke="none"/>
    </g>
  
</svg>
