<?xml version="1.0" encoding="UTF-8" standalone="no"?>
<svg xmlns:xlink="http://www.w3.org/1999/xlink" height="21.0px" width="21.0px" xmlns="http://www.w3.org/2000/svg">
  <g transform="matrix(1.0, 0.0, 0.0, 1.0, 10.5, 10.5)">
    <use data-characterId="178" height="20.0" transform="matrix(1.0, 0.0, 0.0, 1.0, -10.0, -10.0)" width="20.0" xlink:href="#shape0"/>
  </g>
  
    <g id="shape0" transform="matrix(1.0, 0.0, 0.0, 1.0, 10.0, 10.0)">
      <path d="M-1.8 -8.4 Q-1.0 -8.4 -0.2 -8.4 -0.1 -8.35 0.0 -8.3 0.3 -8.25 0.55 -8.15 0.8 -8.1 1.05 -8.0 1.3 -7.9 1.55 -7.8 1.8 -7.65 2.0 -7.5 2.25 -7.35 2.45 -7.2 2.65 -7.0 2.85 -6.8 3.0 -6.6 3.2 -6.4 3.35 -6.15 3.5 -5.9 3.5 -5.9 3.5 -5.9 3.55 -5.9 3.6 -5.9 3.6 -5.9 3.6 -5.9 3.65 -5.95 3.65 -5.95 3.7 -5.95 3.75 -6.0 3.75 -6.0 3.8 -6.0 4.05 -6.15 4.3 -6.25 4.55 -6.4 4.8 -6.45 5.0 -6.55 5.25 -6.6 5.5 -6.65 5.75 -6.7 6.0 -6.7 6.25 -6.7 6.5 -6.7 6.75 -6.65 7.0 -6.6 7.3 -6.55 7.55 -6.5 7.8 -6.4 8.05 -6.3 8.25 -6.15 8.5 -6.05 8.7 -5.85 8.9 -5.7 9.05 -5.45 9.2 -5.25 9.35 -5.05 9.5 -4.8 9.55 -4.55 9.65 -4.3 9.7 -4.05 9.75 -3.8 9.75 -3.55 9.75 -3.25 9.7 -3.0 9.7 -2.95 9.65 -2.85 9.65 -2.8 9.65 -2.7 9.65 -2.65 9.65 -2.6 9.65 -2.5 9.65 -2.45 9.7 -2.4 9.7 -2.3 9.7 -2.25 9.75 -2.2 9.75 -2.15 9.75 -2.05 9.8 -1.95 9.8 -1.9 9.8 -1.45 9.8 -1.0 9.75 -0.8 9.7 -0.6 9.65 -0.35 9.55 -0.1 9.5 0.15 9.4 0.35 9.3 0.6 9.15 0.75 9.05 0.95 8.9 1.15 8.75 1.35 8.6 1.5 8.4 1.65 8.2 1.8 8.05 1.95 7.85 2.05 7.65 2.2 7.4 2.3 7.35 2.35 7.25 2.35 7.15 2.4 7.1 2.4 7.0 2.4 6.95 2.4 6.85 2.4 6.8 2.4 6.7 2.4 6.65 2.4 6.6 2.4 6.55 2.35 6.5 2.35 6.45 2.35 6.4 2.3 6.4 2.3 6.35 2.25 6.25 2.2 6.15 2.2 6.0 2.2 5.55 2.1 5.1 2.0 5.0 1.95 4.9 1.9 4.85 1.9 4.75 1.85 4.65 1.8 4.55 1.75 4.5 1.75 4.4 1.7 4.3 1.65 4.25 1.6 4.15 1.55 4.05 1.5 3.95 1.45 3.9 1.4 3.8 1.35 3.7 1.3 3.55 1.2 3.4 1.1 3.45 1.05 3.55 0.95 3.65 0.9 3.75 0.85 3.75 0.85 3.9 0.7 4.0 0.65 4.05 0.6 4.15 0.5 4.25 0.45 4.3 0.35 4.4 0.3 4.45 0.2 4.5 0.1 4.55 0.0 4.6 -0.1 4.5 -0.1 4.45 -0.1 4.4 -0.05 4.4 0.0 4.3 0.05 4.2 0.1 3.85 0.35 3.5 0.5 3.15 0.7 2.8 0.85 2.45 1.05 2.1 1.15 1.7 1.25 1.35 1.35 0.95 1.45 0.6 1.5 0.2 1.55 -0.2 1.6 -0.6 1.6 -1.0 1.6 -1.4 1.55 -1.8 1.5 -2.1 1.4 -2.35 1.35 -2.6 1.25 -2.85 1.15 -3.1 1.05 -3.3 0.9 -3.55 0.75 -3.75 0.65 -3.95 0.45 -4.15 0.3 -4.35 0.1 -4.5 -0.05 -4.65 -0.3 -4.8 -0.5 -4.95 -0.75 -5.1 -1.0 -5.25 -1.35 -5.4 -1.7 -5.45 -1.6 -5.5 -1.5 -5.55 -1.4 -5.55 -1.25 -5.6 -1.15 -5.55 -1.05 -5.55 -0.95 -5.55 -0.85 -5.5 -0.8 -5.5 -0.65 -5.45 -0.6 -5.4 -0.5 -5.35 -0.35 -5.35 -0.3 -5.3 -0.2 -5.3 -0.1 -5.35 -0.1 -5.45 -0.05 -5.5 -0.05 -5.6 -0.05 -5.65 -0.05 -5.75 -0.05 -5.85 -0.05 -5.85 -0.05 -5.95 -0.05 -6.0 0.0 -6.05 0.0 -6.1 0.0 -6.15 0.0 -6.2 0.05 -6.25 0.05 -6.3 0.1 -6.4 0.15 -6.5 0.2 -6.55 0.25 -6.65 0.25 -6.7 0.3 -6.8 0.3 -6.85 0.3 -6.95 0.3 -7.0 0.3 -7.1 0.3 -7.15 0.3 -7.25 0.25 -7.3 0.25 -7.4 0.25 -7.6 0.2 -7.6 0.2 -7.9 0.1 -8.15 -0.1 -8.45 -0.25 -8.65 -0.5 -8.9 -0.7 -9.05 -0.95 -9.25 -1.25 -9.4 -1.5 -9.5 -1.8 -9.6 -2.15 -9.7 -2.45 -9.7 -2.75 -9.75 -3.05 -9.7 -3.4 -9.7 -3.7 -9.6 -4.0 -9.45 -4.35 -9.3 -4.65 -9.15 -4.95 -8.95 -5.2 -8.75 -5.45 -8.5 -5.6 -8.3 -5.8 -8.0 -5.9 -7.8 -6.05 -7.5 -6.1 -7.25 -6.2 -6.95 -6.25 -6.65 -6.3 -6.35 -6.35 -6.05 -6.4 -5.7 -6.4 -5.65 -6.4 -5.6 -6.4 -5.6 -6.4 -5.55 -6.4 -5.5 -6.45 -5.45 -6.45 -5.45 -6.45 -5.4 -6.45 -5.35 -6.5 -5.3 -6.5 -5.3 -6.5 -5.25 -6.55 -5.2 -6.55 -5.15 -6.55 -5.15 -6.6 -5.1 -6.6 -4.45 -7.05 -4.85 -6.8 -4.65 -6.9 -4.55 -7.0 -4.4 -7.1 -4.25 -7.2 -4.1 -7.3 -4.0 -7.35 -3.8 -7.45 -3.65 -7.55 -3.5 -7.6 -3.35 -7.7 -3.2 -7.75 -3.05 -7.8 -2.85 -7.85 -2.7 -7.9 -2.65 -7.95 -2.6 -8.0 -2.6 -8.05 -2.55 -8.1 -2.5 -8.15 -2.45 -8.15 -2.4 -8.2 -2.3 -8.2 -2.25 -8.25 -2.2 -8.3 -2.15 -8.3 -2.1 -8.3 -2.0 -8.35 -1.95 -8.35 -1.9 -8.4 -1.8 -8.4 L-1.8 -8.4" fill="#ffffff" fill-rule="evenodd" stroke="none"/>
      <path d="M5.7 2.6 Q5.5 3.8 5.3 4.3 5.25 4.5 5.15 4.75 5.1 4.95 5.05 5.2 5.0 5.4 4.95 5.65 4.9 5.9 4.9 6.1 4.85 6.35 4.85 6.55 4.8 6.8 4.8 7.05 4.75 7.25 4.75 7.5 4.7 7.7 4.7 8.0 4.7 8.05 4.7 8.1 4.7 8.25 4.7 8.25 4.7 8.35 4.7 8.4 4.7 8.45 4.7 8.5 4.7 8.6 4.65 8.65 4.65 8.7 4.6 8.7 4.6 8.75 4.55 8.8 4.45 8.8 4.4 8.8 4.35 8.8 3.9 8.5 3.7 8.3 3.7 8.3 3.35 8.1 3.05 7.95 2.75 7.75 2.4 7.55 2.1 7.4 1.8 7.25 1.45 7.05 1.1 6.9 0.8 6.75 0.45 6.6 0.1 6.45 -0.2 6.3 -0.55 6.15 -0.9 6.05 -1.25 5.9 -1.6 5.8 -1.85 5.7 -2.05 5.65 -2.3 5.6 -2.5 5.55 -2.75 5.5 -2.95 5.45 -3.2 5.4 -3.4 5.35 -3.65 5.35 -3.85 5.3 -4.1 5.3 -4.3 5.3 -4.55 5.25 -4.75 5.3 -5.0 5.3 -5.2 5.3 -5.3 5.3 -5.4 5.3 -5.45 5.35 -5.55 5.35 -5.65 5.4 -5.75 5.45 -5.8 5.5 -5.9 5.55 -5.95 5.6 -6.05 5.65 -6.1 5.7 -6.2 5.75 -6.15 5.75 -6.35 5.9 -6.45 5.95 -6.5 6.0 -6.7 6.05 -6.9 6.1 -7.0 5.85 -7.1 5.6 -7.1 5.55 -7.1 5.55 -7.1 5.5 -7.1 5.45 -7.1 5.4 -7.1 5.35 -7.05 5.3 -7.05 5.25 -7.05 5.25 -7.0 5.2 -6.45 3.5 -5.9 1.8 -5.9 1.75 -5.85 1.7 -5.85 1.7 -5.85 1.65 -5.8 1.6 -5.8 1.55 -5.8 1.5 -5.75 1.45 -5.75 1.4 -5.75 1.35 -5.75 1.3 -5.75 1.2 -5.75 1.15 -5.75 1.1 -5.8 1.05 -5.8 1.0 -5.8 0.95 -5.8 0.85 -5.8 0.8 -5.8 0.75 -5.8 0.7 -5.75 0.65 -5.75 0.6 -5.7 0.6 -5.7 0.55 -5.65 0.55 -5.6 0.5 -5.55 0.5 -5.55 0.45 -5.5 0.45 -5.4 0.4 -5.4 0.4 -5.35 0.4 -5.3 0.35 -5.3 0.35 -5.25 0.35 -5.2 0.35 -5.15 0.35 -5.1 0.35 -5.05 0.35 -5.0 0.35 -4.95 0.35 -4.9 0.35 -4.85 0.4 -4.8 0.4 -4.8 0.45 -4.75 0.45 -4.7 0.5 -4.5 0.7 -4.3 0.85 -4.1 1.0 -3.9 1.15 -3.7 1.25 -3.45 1.35 -3.25 1.45 -3.0 1.55 -2.8 1.6 -2.55 1.7 -2.3 1.75 -2.05 1.8 -1.85 1.8 -1.6 1.85 -1.35 1.9 -1.1 1.9 -0.85 1.9 -0.6 1.9 -0.35 1.9 -0.15 1.85 0.15 1.85 0.35 1.85 0.6 1.8 0.85 1.75 1.1 1.75 1.3 1.7 1.55 1.65 1.8 1.55 2.0 1.5 2.25 1.4 2.5 1.3 2.7 1.2 2.85 1.2 3.0 1.2 3.15 1.35 3.35 1.45 3.5 1.55 3.65 1.65 3.8 1.8 4.0 1.85 4.15 1.95 4.3 2.05 4.5 2.15 4.65 2.2 4.8 2.3 5.0 2.35 5.15 2.4 5.35 2.5 5.5 2.55 5.7 2.6 L5.7 2.6" fill="#ffffff" fill-rule="evenodd" stroke="none"/>
    </g>
  
</svg>
