<?xml version="1.0" encoding="UTF-8" standalone="no"?>
<svg xmlns:xlink="http://www.w3.org/1999/xlink" height="22.0px" width="22.3px" xmlns="http://www.w3.org/2000/svg">
  <g transform="matrix(1.0, 0.0, 0.0, 1.0, 11.15, 11.0)">
    <use data-characterId="66" height="22.0" transform="matrix(1.0, 0.0, 0.0, 1.0, -11.15, -11.0)" width="22.3" xlink:href="#shape0"/>
  </g>
  
    <g id="shape0" transform="matrix(1.0, 0.0, 0.0, 1.0, 11.15, 11.0)">
      <path d="M-1.25 -2.5 Q-1.5 -2.5 -1.75 -2.5 -4.35 -2.5 -6.95 -2.5 -7.0 -2.5 -7.1 -2.55 -7.15 -2.55 -7.25 -2.6 -7.3 -2.65 -7.35 -2.75 -7.4 -2.8 -7.45 -2.9 -7.5 -3.0 -7.55 -3.1 -7.55 -3.2 -7.6 -3.3 -7.6 -3.4 -7.65 -3.5 -7.65 -3.6 -7.65 -3.7 -7.65 -4.7 -7.6 -4.75 -7.55 -4.8 -6.55 -4.8 -3.95 -4.8 -1.35 -4.8 -1.3 -4.9 -1.3 -5.0 -1.25 -5.05 -1.25 -5.15 -1.2 -5.2 -1.2 -5.3 -1.2 -5.35 -1.2 -5.45 -1.25 -5.5 -1.25 -5.6 -1.3 -5.65 -1.3 -5.7 -1.35 -5.8 -1.4 -5.85 -1.45 -5.9 -1.55 -6.0 -1.7 -6.1 -1.85 -6.25 -2.0 -6.4 -2.1 -6.55 -2.2 -6.7 -2.3 -6.85 -2.4 -7.0 -2.45 -7.2 -2.5 -7.4 -2.55 -7.55 -2.55 -7.75 -2.55 -7.95 -2.55 -8.15 -2.55 -8.3 -2.5 -8.5 -2.45 -8.7 -2.4 -8.9 -2.25 -9.05 -2.15 -9.25 -2.05 -9.4 -1.9 -9.55 -1.75 -9.65 -1.65 -9.8 -1.45 -9.9 -1.3 -10.0 -1.1 -10.1 -0.95 -10.2 -0.75 -10.25 -0.55 -10.3 -0.35 -10.3 -0.15 -10.3 0.05 -10.3 0.25 -10.3 0.45 -10.25 0.65 -10.25 0.85 -10.15 1.0 -10.1 1.2 -10.05 1.35 -9.95 1.5 -9.8 1.65 -9.7 1.8 -9.6 1.95 -9.45 2.05 -9.3 2.2 -9.15 2.3 -8.95 2.4 -8.8 2.45 -8.6 2.5 -8.4 2.55 -8.2 2.55 -8.05 2.55 -7.85 2.55 -7.65 2.55 -7.45 2.5 -7.3 2.45 -7.1 2.4 -6.9 2.3 -6.75 2.2 -6.6 2.1 -6.45 2.0 -6.3 1.85 -6.15 1.7 -6.0 1.55 -5.9 1.45 -5.85 1.4 -5.8 1.35 -5.75 1.3 -5.65 1.25 -5.6 1.25 -5.55 1.2 -5.5 1.2 -5.4 1.2 -5.35 1.2 -5.3 1.2 -5.25 1.25 -5.15 1.25 -5.05 1.25 -5.0 1.25 -4.9 1.25 -4.8 1.5 -4.8 1.75 -4.8 4.35 -4.8 6.95 -4.8 7.05 -4.8 7.1 -4.8 7.15 -4.8 7.2 -4.8 7.25 -4.75 7.3 -4.75 7.35 -4.75 7.4 -4.7 7.4 -4.65 7.45 -4.65 7.45 -4.6 7.45 -4.55 7.5 -4.5 7.45 -4.45 7.45 -4.35 7.45 -4.3 7.45 -4.35 7.45 -3.9 7.45 -3.7 7.45 -3.55 7.45 -3.4 7.4 -3.3 7.4 -3.15 7.35 -3.05 7.3 -2.95 7.25 -2.85 7.2 -2.75 7.05 -2.7 6.95 -2.65 6.8 -2.65 6.65 -2.6 6.45 -2.6 3.85 -2.6 1.25 -2.6 1.25 -2.3 1.25 -2.0 1.3 1.85 1.35 5.7 1.35 5.85 1.35 6.0 1.4 6.1 1.45 6.2 1.5 6.35 1.55 6.4 1.6 6.5 1.7 6.55 1.75 6.6 1.85 6.65 1.95 6.7 2.05 6.7 2.2 6.7 2.3 6.7 2.4 6.65 2.55 6.6 2.7 6.55 2.8 6.5 2.95 6.5 3.05 6.45 3.2 6.4 3.3 6.35 3.4 6.25 3.55 6.2 3.65 6.15 3.75 6.1 3.9 6.0 4.0 5.95 4.1 5.85 4.2 5.8 4.35 5.7 4.45 5.6 4.6 5.5 4.7 5.4 4.8 5.3 4.85 5.2 4.9 5.1 4.95 5.0 5.0 4.9 5.0 4.75 5.0 4.65 4.95 4.55 4.95 4.45 4.9 4.3 4.85 4.2 4.75 4.05 4.65 3.95 4.55 3.8 4.5 3.7 4.45 3.6 4.65 3.4 4.65 3.4 4.95 3.3 5.2 3.2 5.45 3.05 5.7 2.9 5.9 2.8 6.15 2.6 6.35 2.45 6.6 2.25 6.8 2.1 7.0 1.9 7.2 1.75 7.4 1.5 7.55 1.35 7.75 1.1 7.9 1.0 8.15 0.7 8.25 0.6 8.3 0.55 8.35 0.5 8.4 0.5 8.45 0.45 8.5 0.4 8.55 0.4 8.55 0.4 8.6 0.4 8.65 0.45 8.7 0.45 8.7 0.5 8.75 0.55 8.8 0.65 8.8 0.7 8.85 0.8 8.9 1.0 8.95 1.2 9.0 1.4 9.05 1.6 9.05 1.8 9.05 2.05 9.05 2.25 9.05 2.45 9.05 2.65 9.0 2.85 8.95 3.05 8.9 3.25 8.85 3.4 8.8 3.6 8.75 3.8 8.65 4.0 8.6 4.1 8.55 4.2 8.55 4.35 8.5 4.45 8.45 4.55 8.4 4.65 8.35 4.75 8.3 4.85 8.25 4.95 8.2 5.05 8.15 5.1 8.05 5.2 8.0 5.3 7.95 5.4 7.9 5.45 7.85 5.6 7.85 5.65 7.8 5.65 7.8 5.7 7.75 5.75 7.75 5.75 7.75 5.75 7.7 5.8 7.7 5.8 7.65 5.8 7.65 5.8 7.6 5.8 7.6 5.8 7.55 5.8 7.5 5.75 7.5 5.75 7.45 5.7 7.4 5.65 7.35 5.65 7.3 5.6 7.25 5.6 7.2 5.6 7.15 5.6 7.1 5.6 7.05 5.6 7.05 5.65 7.0 5.65 6.95 5.7 6.95 5.7 6.9 5.75 6.9 5.8 6.85 5.85 6.85 5.9 6.65 6.2 6.4 6.5 6.2 6.8 5.95 7.05 5.7 7.3 5.4 7.55 5.15 7.75 4.85 8.0 4.55 8.2 4.25 8.35 3.95 8.55 3.6 8.7 3.3 8.85 2.95 9.0 2.6 9.15 2.25 9.3 2.1 9.35 2.0 9.4 1.85 9.45 1.75 9.5 1.6 9.55 1.5 9.6 1.4 9.65 1.25 9.7 1.15 9.75 1.0 9.85 0.85 9.9 0.75 9.95 0.6 10.05 0.5 10.1 0.35 10.15 0.25 10.2 0.1 10.2 -0.05 10.2 -0.15 10.15 -0.25 10.1 -0.35 10.1 -0.45 10.0 -0.5 10.0 -0.65 9.9 -0.8 9.85 -0.85 9.8 -0.95 9.75 -1.05 9.7 -1.15 9.65 -1.25 9.6 -1.35 9.6 -1.45 9.55 -1.55 9.5 -1.65 9.5 -2.05 9.4 -2.4 9.25 -2.8 9.1 -3.15 8.95 -3.5 8.8 -3.85 8.6 -4.2 8.4 -4.5 8.2 -4.8 8.0 -5.1 7.75 -5.4 7.5 -5.65 7.2 -5.95 6.95 -6.2 6.65 -6.45 6.35 -6.65 6.0 -6.7 5.95 -6.75 5.9 -6.75 5.85 -6.8 5.85 -6.85 5.8 -6.9 5.8 -6.9 5.8 -6.95 5.8 -7.0 5.8 -7.05 5.8 -7.05 5.8 -7.1 5.85 -7.15 5.85 -7.2 5.85 -7.2 5.9 -7.25 5.9 -7.3 5.9 -7.3 5.9 -7.35 5.9 -7.4 5.9 -7.45 5.9 -7.5 5.9 -7.55 5.85 -7.6 5.85 -7.6 5.85 -7.65 5.8 -7.8 5.55 -7.9 5.35 -8.05 5.1 -8.15 4.9 -8.3 4.65 -8.4 4.4 -8.5 4.15 -8.6 3.9 -8.7 3.65 -8.75 3.4 -8.8 3.15 -8.85 2.9 -8.9 2.6 -8.9 2.35 -8.9 2.1 -8.85 1.8 -8.85 1.75 -8.85 1.7 -8.85 1.65 -8.85 1.55 -8.8 1.5 -8.8 1.45 -8.8 1.4 -8.8 1.35 -8.75 1.3 -8.75 1.25 -8.75 1.2 -8.7 1.1 -8.7 1.1 -8.7 1.0 -8.65 0.95 -8.65 0.9 -8.6 0.8 -8.6 0.75 -8.55 0.65 -8.5 0.6 -8.5 0.55 -8.45 0.55 -8.4 0.5 -8.4 0.5 -8.35 0.5 -8.3 0.5 -8.3 0.55 -8.25 0.6 -8.2 0.6 -8.15 0.65 -8.1 0.7 -8.05 0.8 -6.85 2.0 -6.25 2.5 -6.15 2.55 -6.05 2.65 -5.95 2.7 -5.85 2.75 -5.75 2.8 -5.65 2.9 -5.55 2.95 -5.45 3.0 -5.4 3.0 -5.25 3.1 -5.1 3.15 -5.05 3.2 -4.95 3.25 -4.85 3.3 -4.75 3.35 -4.65 3.4 -4.65 3.4 -4.6 3.45 -4.6 3.45 -4.55 3.45 -4.55 3.45 -4.55 3.5 -4.5 3.5 -4.5 3.5 -4.45 3.5 -4.45 3.5 -4.4 3.55 -4.4 3.55 -4.35 3.55 -4.3 3.55 -4.3 3.6 -4.25 3.6 -4.4 3.8 -4.5 4.0 -4.6 4.2 -4.7 4.35 -4.75 4.55 -4.75 4.7 -4.8 4.85 -4.75 5.0 -4.7 5.15 -4.65 5.3 -4.55 5.45 -4.45 5.55 -4.3 5.7 -4.15 5.85 -4.0 5.95 -3.75 6.1 -3.65 6.15 -3.6 6.15 -3.5 6.2 -3.45 6.25 -3.35 6.3 -3.3 6.3 -3.2 6.35 -3.15 6.4 -3.05 6.4 -3.0 6.45 -2.9 6.5 -2.85 6.5 -2.75 6.55 -2.7 6.55 -2.6 6.6 -2.55 6.6 -2.4 6.65 -2.25 6.65 -2.1 6.65 -1.95 6.65 -1.85 6.65 -1.75 6.6 -1.65 6.55 -1.55 6.5 -1.5 6.45 -1.4 6.35 -1.35 6.3 -1.35 6.15 -1.3 6.05 -1.25 5.9 -1.25 5.75 -1.25 5.6 -1.2 3.75 -1.15 1.9 -1.25 1.05 -1.25 -2.5 L-1.25 -2.5 M0.05 -7.9 Q0.05 -7.9 0.05 -7.9 0.05 -8.0 0.05 -8.1 0.0 -8.1 0.0 -8.1 0.0 -8.05 0.0 -8.05 0.0 -8.0 0.0 -7.95 0.0 -7.95 0.05 -7.9 0.0 -7.9 0.0 -7.9 0.0 -7.9 0.05 -7.9 L0.05 -7.9 Z" fill="none" stroke="#ffffff" stroke-linecap="round" stroke-linejoin="round" stroke-width="1.0"/>
    </g>
  
</svg>
