<?xml version="1.0" encoding="UTF-8" standalone="no"?>
<svg xmlns:xlink="http://www.w3.org/1999/xlink" height="46.0px" width="12.8px" xmlns="http://www.w3.org/2000/svg">
  <g transform="matrix(1.0, 0.0, 0.0, 1.0, 6.4, 46.0)">
    <use data-characterId="101" data-characterName="Pipboy_MapPage_fla.PlayerSetMarker_Base_69" height="46.0" id="MarkerBase_mc" transform="matrix(1.0, 0.0, 0.0, 1.0, -6.4, -46.0)" width="12.8" xlink:href="#sprite0"/>
  </g>
  
    <g id="sprite0" transform="matrix(1.0, 0.0, 0.0, 1.0, 6.4, 46.0)">
      <use data-characterId="100" height="35.0" transform="matrix(1.0, 0.0, 0.0, 1.0, -6.4, -35.0)" width="12.8" xlink:href="#shape0"/>
    </g>
    <g id="shape0" transform="matrix(1.0, 0.0, 0.0, 1.0, 6.4, 35.0)">
      <path d="M5.4 -23.05 L5.4 -33.9 -5.4 -33.9 -5.4 -23.05 5.4 -23.05 M1.1 -22.05 L1.1 0.0 -1.1 0.0 -1.1 -22.05 -6.4 -22.05 -6.4 -35.0 6.4 -35.0 6.4 -22.05 1.1 -22.05" fill="#ffffff" fill-opacity="0.35686275" fill-rule="evenodd" stroke="none"/>
    </g>
  
</svg>
