<?xml version="1.0" encoding="UTF-8" standalone="no"?>
<svg xmlns:xlink="http://www.w3.org/1999/xlink" height="20.0px" width="20.0px" xmlns="http://www.w3.org/2000/svg">
  <g transform="matrix(1.0, 0.0, 0.0, 1.0, 10.0, 10.0)">
    <use data-characterId="163" height="20.0" transform="matrix(1.0, 0.0, 0.0, 1.0, -10.0, -10.0)" width="20.0" xlink:href="#shape0"/>
  </g>
  
    <g id="shape0" transform="matrix(1.0, 0.0, 0.0, 1.0, 10.0, 10.0)">
      <path d="M0.0 -8.8 Q0.6 -8.8 1.15 -8.7 1.7 -8.6 2.25 -8.35 2.75 -8.15 3.2 -7.85 3.65 -7.55 4.05 -7.15 4.45 -6.8 4.75 -6.35 5.05 -5.9 5.25 -5.4 5.5 -4.85 5.6 -4.35 5.7 -3.75 5.7 -3.2 5.7 -3.05 5.7 -2.85 5.65 -2.7 5.65 -2.5 5.6 -2.3 5.55 -2.15 5.5 -1.95 5.45 -1.75 5.4 -1.6 5.35 -1.4 5.3 -1.25 5.25 -1.05 5.2 -0.9 5.1 -0.7 5.05 -0.6 5.0 -0.4 4.75 0.15 4.5 0.7 4.25 1.25 3.95 1.8 3.65 2.35 3.35 2.9 3.05 3.4 2.75 3.95 2.4 4.5 2.05 5.0 1.75 5.5 1.4 6.05 1.05 6.55 0.7 7.1 0.35 7.55 0.0 8.1 -0.3 7.7 -0.6 7.3 -3.95 2.15 -5.2 -0.8 -5.35 -1.15 -5.45 -1.55 -5.55 -1.9 -5.6 -2.2 -5.65 -2.55 -5.7 -2.85 -5.7 -3.2 -5.7 -3.45 -5.65 -3.75 -5.65 -4.05 -5.6 -4.3 -5.5 -4.55 -5.45 -4.75 -5.4 -5.0 -5.3 -5.2 -5.2 -5.4 -5.05 -5.7 -4.9 -5.95 -4.75 -6.2 -4.55 -6.45 -4.4 -6.7 -4.2 -6.95 -4.0 -7.15 -3.75 -7.35 -3.55 -7.55 -3.3 -7.75 -3.05 -7.9 -2.8 -8.05 -2.55 -8.2 -2.3 -8.3 -2.05 -8.45 -1.8 -8.5 -1.7 -8.55 -1.55 -8.55 -1.45 -8.6 -1.35 -8.65 -1.25 -8.65 -1.1 -8.7 -1.0 -8.7 -0.9 -8.7 -0.8 -8.75 -0.65 -8.75 -0.55 -8.75 -0.45 -8.8 -0.35 -8.8 -0.2 -8.8 -0.1 -8.8 0.0 -8.8 M0.0 1.0 L0.0 1.0 Q0.4 1.0 0.8 0.9 1.2 0.85 1.55 0.7 1.95 0.55 2.25 0.3 2.6 0.1 2.9 -0.15 3.15 -0.45 3.4 -0.75 3.6 -1.1 3.75 -1.45 3.95 -1.8 4.0 -2.2 4.1 -2.6 4.1 -3.0 4.1 -3.2 4.1 -3.4 4.05 -3.6 4.05 -3.8 4.0 -4.0 3.95 -4.2 3.85 -4.4 3.8 -4.55 3.7 -4.75 3.65 -4.9 3.55 -5.1 3.45 -5.25 3.3 -5.45 3.2 -5.6 3.05 -5.75 2.9 -5.9 2.75 -6.05 2.6 -6.2 2.45 -6.3 2.25 -6.4 2.1 -6.55 1.9 -6.65 1.75 -6.7 1.55 -6.8 1.4 -6.85 1.2 -6.95 1.0 -7.0 0.8 -7.0 0.6 -7.05 0.4 -7.1 0.2 -7.1 0.0 -7.1 -0.4 -7.1 -0.8 -7.0 -1.2 -6.95 -1.55 -6.8 -1.9 -6.65 -2.25 -6.4 -2.55 -6.2 -2.85 -5.9 -3.1 -5.65 -3.35 -5.35 -3.55 -5.0 -3.75 -4.65 -3.9 -4.3 -4.0 -3.9 -4.1 -3.5 -4.1 -3.1 -4.1 -2.9 -4.1 -2.7 -4.05 -2.5 -4.05 -2.3 -4.0 -2.1 -3.95 -1.9 -3.9 -1.7 -3.8 -1.55 -3.75 -1.35 -3.65 -1.2 -3.55 -1.0 -3.45 -0.85 -3.35 -0.65 -3.25 -0.5 -3.15 -0.35 -3.0 -0.2 -2.85 -0.05 -2.7 0.05 -2.55 0.2 -2.35 0.3 -2.2 0.4 -2.0 0.5 -1.85 0.6 -1.65 0.65 -1.45 0.75 -1.25 0.8 -1.05 0.85 -0.85 0.9 -0.65 0.95 -0.45 1.0 -0.2 1.0 0.0 1.0 L0.0 1.0 M0.0 -9.8 Q-0.15 -9.8 -0.25 -9.8 -0.4 -9.8 -0.5 -9.8 -0.65 -9.75 -0.8 -9.75 -0.9 -9.75 -1.05 -9.7 -1.2 -9.7 -1.3 -9.7 -1.45 -9.65 -1.55 -9.65 -1.7 -9.6 -1.85 -9.55 -1.95 -9.55 -2.1 -9.5 -2.65 -9.3 -3.2 -9.0 -3.75 -8.7 -4.25 -8.25 -4.75 -7.85 -5.15 -7.35 -5.6 -6.8 -5.9 -6.2 -6.2 -5.6 -6.4 -4.95 -6.6 -4.25 -6.6 -3.55 -6.65 -2.8 -6.5 -2.0 -6.35 -1.2 -6.0 -0.4 -5.75 0.15 -5.5 0.7 -5.25 1.2 -4.95 1.75 -4.7 2.25 -4.4 2.8 -4.15 3.3 -3.85 3.8 -3.55 4.3 -3.25 4.85 -2.95 5.35 -2.6 5.85 -2.3 6.3 -1.95 6.8 -1.65 7.3 -1.3 7.8 -0.9 8.4 0.1 9.8 0.55 9.15 0.95 8.6 1.4 7.95 1.8 7.4 2.2 6.75 2.6 6.2 3.0 5.55 3.35 4.95 3.75 4.35 4.1 3.75 4.45 3.1 4.75 2.45 5.1 1.85 5.4 1.2 5.7 0.55 6.0 -0.1 6.1 -0.3 6.15 -0.5 6.25 -0.7 6.3 -0.85 6.35 -1.05 6.45 -1.25 6.5 -1.45 6.55 -1.65 6.6 -1.85 6.65 -2.05 6.7 -2.3 6.75 -2.5 6.75 -2.7 6.8 -2.9 6.8 -3.1 6.8 -3.3 6.8 -4.0 6.6 -4.65 6.45 -5.3 6.2 -5.9 5.9 -6.45 5.55 -7.0 5.15 -7.5 4.7 -7.95 4.2 -8.35 3.65 -8.7 3.1 -9.05 2.55 -9.3 1.9 -9.55 1.3 -9.65 0.65 -9.8 0.0 -9.8 L0.0 -9.8 0.0 -9.8 M0.0 0.0 Q0.0 0.0 0.0 0.0 -0.3 0.0 -0.6 -0.05 -0.9 -0.15 -1.2 -0.25 -1.5 -0.35 -1.75 -0.55 -2.0 -0.7 -2.2 -0.9 -2.4 -1.1 -2.55 -1.35 -2.75 -1.6 -2.85 -1.9 -2.95 -2.2 -3.05 -2.5 -3.1 -2.8 -3.1 -3.1 -3.1 -3.4 -3.05 -3.7 -2.95 -4.0 -2.85 -4.3 -2.75 -4.55 -2.55 -4.8 -2.4 -5.05 -2.2 -5.25 -2.0 -5.45 -1.75 -5.6 -1.5 -5.75 -1.2 -5.85 -0.9 -6.0 -0.6 -6.05 -0.3 -6.1 0.0 -6.1 0.0 -6.1 0.0 -6.1 0.3 -6.1 0.6 -6.05 0.9 -5.95 1.2 -5.85 1.5 -5.75 1.75 -5.55 2.0 -5.4 2.2 -5.2 2.4 -5.0 2.55 -4.75 2.75 -4.5 2.85 -4.2 2.95 -3.9 3.05 -3.6 3.1 -3.3 3.1 -3.0 3.1 -2.7 3.05 -2.4 2.95 -2.15 2.85 -1.85 2.75 -1.6 2.55 -1.35 2.4 -1.1 2.2 -0.9 2.0 -0.7 1.75 -0.55 1.5 -0.35 1.2 -0.25 0.9 -0.1 0.6 -0.05 0.3 0.0 0.0 0.0 L0.0 0.0 0.0 0.0" fill="#ffffff" fill-rule="evenodd" stroke="none"/>
    </g>
  
</svg>
