<?xml version="1.0" encoding="UTF-8" standalone="no"?>
<svg xmlns:xlink="http://www.w3.org/1999/xlink" height="21.75px" width="22.0px" xmlns="http://www.w3.org/2000/svg">
  <g transform="matrix(1.0, 0.0, 0.0, 1.0, 11.0, 10.85)">
    <use data-characterId="12" height="21.75" transform="matrix(1.0, 0.0, 0.0, 1.0, -11.0, -10.85)" width="22.0" xlink:href="#shape0"/>
  </g>
  
    <g id="shape0" transform="matrix(1.0, 0.0, 0.0, 1.0, 11.0, 10.85)">
      <path d="M0.7 -10.05 Q0.75 -10.05 0.8 -10.05 L1.2 -10.05 Q1.25 -10.05 1.25 -10.05 1.3 -10.05 1.35 -10.05 1.4 -10.05 1.4 -10.05 1.45 -10.05 1.5 -10.05 1.55 -10.05 1.55 -10.05 1.6 -10.0 1.65 -10.0 1.7 -10.0 1.7 -10.0 1.75 -9.95 1.8 -9.95 2.0 -9.95 2.15 -9.9 2.35 -9.85 2.55 -9.8 2.7 -9.8 2.9 -9.7 3.05 -9.65 3.25 -9.6 3.45 -9.55 3.65 -9.45 3.8 -9.4 4.0 -9.3 4.2 -9.25 4.4 -9.15 4.55 -9.05 4.8 -8.95 4.9 -8.9 5.0 -8.85 5.1 -8.75 5.25 -8.7 5.35 -8.6 5.5 -8.5 5.6 -8.4 5.75 -8.35 5.9 -8.25 6.0 -8.15 6.15 -8.05 6.25 -7.95 6.4 -7.85 6.5 -7.75 6.6 -7.65 6.7 -7.55 6.75 -7.5 7.9 -6.35 8.05 -6.2 8.2 -6.0 8.35 -5.8 8.45 -5.65 8.6 -5.45 8.7 -5.25 8.85 -5.0 8.95 -4.8 9.05 -4.6 9.15 -4.35 9.25 -4.1 9.35 -3.9 9.45 -3.65 9.55 -3.4 9.6 -3.15 9.7 -2.85 9.8 -2.45 10.0 -1.65 10.05 -1.45 10.05 -1.2 10.1 -1.0 10.1 -0.8 10.1 -0.55 10.1 -0.35 10.1 -0.15 10.1 0.05 10.1 0.25 10.05 0.5 10.05 0.7 10.05 0.9 10.0 1.1 9.95 1.3 9.95 1.5 9.9 1.7 9.85 1.9 9.8 2.05 9.8 2.2 9.75 2.35 9.7 2.55 9.65 2.7 9.6 2.85 9.6 3.0 9.55 3.15 9.5 3.3 9.4 3.45 9.35 3.6 9.3 3.75 9.25 3.9 9.15 4.05 9.1 4.2 9.05 4.35 8.95 4.55 8.85 4.7 8.8 4.85 8.7 5.0 8.6 5.15 8.55 5.3 8.45 5.4 8.35 5.55 8.25 5.65 8.15 5.8 8.05 5.9 8.0 6.0 7.9 6.1 7.8 6.2 7.7 6.3 7.2 6.8 6.2 7.8 6.05 7.95 5.85 8.1 5.65 8.25 5.45 8.35 5.3 8.5 5.05 8.6 4.85 8.75 4.65 8.85 4.4 8.95 4.2 9.05 3.95 9.15 3.7 9.25 3.45 9.35 3.2 9.45 2.95 9.55 2.7 9.6 2.3 9.7 1.5 9.9 1.4 9.9 1.3 9.95 1.15 9.95 1.05 9.95 0.95 9.95 0.85 10.0 0.75 10.0 0.65 10.0 0.55 10.0 0.45 10.0 0.4 10.0 0.3 10.0 0.2 10.0 0.1 10.0 0.0 10.0 -0.1 10.0 -0.7 10.0 -1.9 9.8 -2.1 9.75 -2.25 9.75 -2.4 9.7 -2.55 9.65 -2.75 9.6 -2.9 9.55 -3.05 9.5 -3.2 9.5 -3.35 9.45 -3.5 9.4 -3.65 9.35 -3.8 9.25 -3.95 9.2 -4.1 9.15 -4.25 9.1 -4.4 9.0 -4.55 8.95 -4.75 8.85 -4.9 8.75 -5.05 8.7 -5.2 8.6 -5.35 8.5 -5.45 8.45 -5.6 8.35 -5.75 8.25 -5.85 8.15 -5.95 8.05 -6.1 8.0 -6.2 7.9 -6.3 7.8 -6.4 7.7 -6.5 7.6 -7.0 7.1 -8.0 6.1 -8.15 5.95 -8.25 5.75 -8.4 5.6 -8.5 5.4 -8.65 5.2 -8.75 5.0 -8.85 4.85 -8.95 4.65 -9.05 4.4 -9.15 4.2 -9.25 4.0 -9.35 3.8 -9.45 3.6 -9.55 3.35 -9.65 3.15 -9.7 2.9 -9.75 2.8 -9.75 2.7 -9.8 2.55 -9.85 2.45 -9.85 2.35 -9.9 2.25 -9.9 2.1 -9.95 2.0 -9.95 1.9 -10.0 1.75 -10.0 1.6 -10.0 1.5 -10.05 1.35 -10.05 1.2 -10.1 1.1 -10.1 0.9 L-10.1 0.7 -10.1 0.6 -10.1 -0.75 Q-10.1 -0.8 -10.1 -0.85 L-10.1 -1.25 Q-10.1 -1.3 -10.1 -1.35 -10.1 -1.4 -10.1 -1.4 -10.1 -1.45 -10.1 -1.5 -10.1 -1.55 -10.1 -1.55 -10.1 -1.6 -10.1 -1.65 -10.05 -1.7 -10.05 -1.7 -10.05 -1.75 -10.05 -1.8 -10.0 -1.85 -10.0 -1.85 -10.0 -2.0 -9.95 -2.15 -9.95 -2.3 -9.9 -2.45 -9.85 -2.6 -9.8 -2.75 -9.75 -2.9 -9.7 -3.05 -9.65 -3.2 -9.6 -3.35 -9.55 -3.5 -9.5 -3.65 -9.4 -3.8 -9.35 -3.95 -9.3 -4.1 -9.2 -4.25 -9.15 -4.4 -9.0 -4.6 -8.95 -4.8 -8.8 -5.0 -8.7 -5.2 -8.55 -5.4 -8.4 -5.6 -8.25 -5.8 -8.1 -6.0 -7.95 -6.15 -7.8 -6.35 -7.65 -6.55 -7.5 -6.7 -7.35 -6.85 -7.25 -7.05 -7.1 -7.15 -7.05 -7.2 -7.0 -7.25 -6.95 -7.3 -6.85 -7.35 -6.8 -7.4 -6.75 -7.45 -6.7 -7.5 -6.65 -7.55 -6.6 -7.6 -6.55 -7.65 -6.5 -7.65 -6.4 -7.7 -6.35 -7.75 -6.3 -7.8 -6.25 -7.8 -6.2 -7.85 -6.05 -7.95 -5.95 -8.05 -5.8 -8.15 -5.65 -8.25 -5.5 -8.35 -5.35 -8.45 -5.2 -8.55 -5.05 -8.65 -4.9 -8.7 -4.75 -8.8 -4.6 -8.85 -4.4 -8.95 -4.25 -9.05 -4.05 -9.1 -3.9 -9.2 -3.7 -9.25 -3.55 -9.3 -3.45 -9.4 -3.3 -9.45 -3.15 -9.5 -3.0 -9.55 -2.85 -9.6 -2.7 -9.65 -2.5 -9.7 -2.35 -9.75 -2.2 -9.8 -2.05 -9.85 -1.85 -9.85 -1.7 -9.9 -1.55 -9.9 -1.35 -9.95 -1.2 -9.95 -1.15 -9.95 -1.15 -9.95 -1.15 -9.95 -1.1 -9.95 -1.1 -9.95 -1.1 -9.95 -1.05 -9.95 -1.05 -9.95 -1.0 -9.95 -1.0 -10.0 -0.95 -10.0 -0.95 -10.0 -0.9 -10.0 -0.85 -10.0 -0.85 -10.05 -0.8 -10.05 L-0.7 -10.05 0.7 -10.05 M0.0 7.9 Q0.8 7.9 1.55 7.75 2.35 7.6 3.05 7.3 3.75 7.0 4.4 6.55 5.0 6.1 5.55 5.55 6.1 5.05 6.55 4.4 6.95 3.75 7.25 3.05 7.6 2.35 7.75 1.6 7.9 0.8 7.9 0.05 7.9 -0.75 7.75 -1.55 7.6 -2.35 7.3 -3.05 7.0 -3.75 6.55 -4.4 6.15 -5.05 5.6 -5.55 5.05 -6.1 4.45 -6.55 3.8 -7.0 3.1 -7.3 2.35 -7.6 1.6 -7.75 0.8 -7.95 0.0 -7.95 L-0.1 -7.95 Q-0.9 -7.95 -1.7 -7.8 -2.45 -7.65 -3.2 -7.35 -3.9 -7.05 -4.55 -6.6 -5.15 -6.15 -5.7 -5.6 -6.25 -5.1 -6.65 -4.45 -7.1 -3.8 -7.4 -3.1 -7.7 -2.4 -7.85 -1.65 -8.0 -0.85 -8.0 -0.05 -8.0 0.75 -7.85 1.55 -7.7 2.3 -7.35 3.05 -7.05 3.75 -6.65 4.4 -6.2 5.0 -5.65 5.55 -5.1 6.1 -4.45 6.55 -3.8 7.0 -3.1 7.3 -2.4 7.6 -1.6 7.75 -0.8 7.9 0.0 7.9 L0.0 7.9 M0.9 -10.85 Q0.05 -10.85 -0.8 -10.85 -1.05 -10.8 -1.3 -10.75 -1.5 -10.75 -1.65 -10.7 -1.85 -10.7 -2.05 -10.65 -2.2 -10.6 -2.4 -10.55 -2.55 -10.5 -2.75 -10.5 -2.9 -10.45 -3.1 -10.4 -3.25 -10.35 -3.4 -10.25 -3.55 -10.25 -3.75 -10.15 -3.9 -10.15 -4.1 -10.05 -4.25 -9.95 -4.45 -9.9 -4.6 -9.8 -4.75 -9.75 -4.95 -9.65 -5.1 -9.55 -5.3 -9.45 -5.45 -9.35 -5.6 -9.25 -5.75 -9.15 -5.95 -9.05 -6.1 -8.95 -6.25 -8.85 -6.4 -8.7 -6.55 -8.6 -6.7 -8.45 -7.0 -8.25 -7.6 -7.65 -7.75 -7.5 -7.9 -7.35 -8.05 -7.15 -8.2 -6.95 -8.35 -6.8 -8.5 -6.6 -8.65 -6.4 -8.8 -6.2 -8.95 -5.95 -9.1 -5.75 -9.25 -5.55 -9.4 -5.35 -9.5 -5.15 -9.6 -4.95 -9.75 -4.75 -9.8 -4.55 -9.9 -4.4 -9.95 -4.25 -10.0 -4.1 -10.1 -3.95 -10.15 -3.8 -10.2 -3.65 -10.25 -3.45 -10.3 -3.3 -10.35 -3.15 -10.4 -2.95 -10.45 -2.8 -10.5 -2.65 -10.55 -2.45 -10.55 -2.3 -10.6 -2.15 -10.6 -1.95 -10.6 -1.9 -10.65 -1.85 -10.65 -1.8 -10.65 -1.7 -10.65 -1.65 -10.7 -1.6 -10.7 -1.55 -10.7 -1.45 -10.7 -1.4 -10.7 -1.35 -10.7 -1.3 -10.7 -1.2 -10.7 -1.15 -10.7 -1.1 -10.7 -1.05 -10.7 -0.95 -10.7 -0.95 -10.7 -0.95 -10.7 -0.9 -10.7 -0.85 -10.7 0.0 -10.7 0.8 -10.7 0.85 -10.7 0.9 -10.7 0.95 -10.7 0.95 -10.7 1.0 -10.65 1.05 -10.65 1.1 -10.6 1.1 -10.4 2.5 -10.2 3.2 -10.1 3.45 -10.05 3.7 -9.95 3.95 -9.85 4.15 -9.75 4.4 -9.65 4.65 -9.55 4.85 -9.45 5.05 -9.3 5.3 -9.2 5.5 -9.05 5.7 -8.9 5.95 -8.8 6.15 -8.6 6.35 -8.45 6.5 -8.3 6.7 -7.8 7.3 -6.8 8.3 -6.65 8.4 -6.55 8.5 -6.4 8.65 -6.25 8.75 -6.1 8.85 -6.0 8.95 -5.85 9.05 -5.7 9.15 -5.55 9.2 -5.4 9.3 -5.25 9.4 -5.1 9.5 -4.95 9.55 -4.8 9.65 -4.65 9.75 -4.5 9.8 -4.35 9.9 -4.2 9.95 -4.05 10.0 -3.9 10.1 -3.7 10.15 -3.55 10.2 -3.4 10.25 -3.25 10.3 -3.05 10.35 -2.9 10.4 -2.75 10.45 -2.55 10.5 -2.4 10.55 -2.25 10.55 -2.05 10.6 -1.9 10.6 -1.8 10.6 -1.65 10.65 -1.55 10.65 -1.45 10.65 -1.3 10.7 -1.2 10.7 -1.05 10.7 -0.95 10.75 -0.8 10.75 -0.7 10.75 -0.6 10.8 -0.45 10.8 -0.35 10.8 -0.25 10.8 -0.1 10.8 0.0 10.8 1.1 10.8 1.7 10.7 1.9 10.65 2.35 10.55 2.8 10.45 3.0 10.4 3.25 10.35 3.5 10.25 3.8 10.15 4.05 10.05 4.3 9.95 4.55 9.85 4.75 9.7 5.0 9.6 5.25 9.45 5.5 9.35 5.7 9.2 5.95 9.05 6.15 8.9 6.4 8.75 6.6 8.55 6.8 8.4 7.4 7.9 8.4 6.9 8.5 6.75 8.6 6.65 8.75 6.5 8.85 6.35 8.95 6.25 9.05 6.1 9.15 5.95 9.25 5.8 9.3 5.65 9.4 5.5 9.5 5.35 9.6 5.2 9.65 5.05 9.75 4.9 9.8 4.75 9.9 4.6 10.0 4.45 10.05 4.3 10.1 4.15 10.2 4.0 10.25 3.85 10.3 3.7 10.35 3.5 10.4 3.35 10.45 3.2 10.5 3.0 10.55 2.85 10.6 2.7 10.65 2.5 10.65 2.35 10.7 2.2 10.7 2.0 10.75 1.8 10.75 1.55 10.8 1.35 10.8 1.1 10.85 0.9 10.85 0.65 10.85 0.45 10.85 0.2 10.85 0.0 10.85 -0.25 10.85 -0.45 10.85 -0.65 10.85 -0.9 10.85 -1.1 10.8 -1.35 10.8 -1.55 10.75 -1.75 10.65 -2.2 10.55 -2.65 10.5 -2.85 10.45 -3.1 10.35 -3.35 10.25 -3.65 10.15 -3.9 10.05 -4.15 9.95 -4.4 9.8 -4.65 9.7 -4.85 9.55 -5.1 9.4 -5.35 9.3 -5.6 9.15 -5.8 9.0 -6.0 8.85 -6.25 8.65 -6.45 8.5 -6.65 8.1 -7.15 7.3 -7.95 7.2 -8.05 7.1 -8.15 7.0 -8.25 6.85 -8.35 6.7 -8.45 6.55 -8.55 6.45 -8.65 6.3 -8.8 6.15 -8.9 6.0 -9.0 5.85 -9.1 5.7 -9.15 5.55 -9.25 5.45 -9.3 5.3 -9.4 5.2 -9.45 5.0 -9.55 4.8 -9.65 4.65 -9.7 4.45 -9.8 4.25 -9.9 4.05 -9.95 3.85 -10.05 3.65 -10.1 3.45 -10.2 3.25 -10.25 3.05 -10.3 2.8 -10.35 2.6 -10.4 2.4 -10.45 2.2 -10.5 2.0 -10.55 1.8 -10.6 1.45 -10.7 1.1 -10.8 0.9 -10.85 0.9 -10.8 0.9 -10.8 0.9 -10.8 0.9 -10.85 L0.9 -10.85 0.9 -10.85 M0.0 7.2 Q0.0 7.2 0.0 7.2 -0.75 7.2 -1.5 7.05 -2.2 6.9 -2.85 6.65 -3.5 6.35 -4.1 5.95 -4.7 5.55 -5.15 5.05 -5.65 4.6 -6.05 4.0 -6.45 3.45 -6.7 2.8 -6.95 2.15 -7.1 1.45 -7.2 0.75 -7.2 0.05 -7.2 -0.7 -7.05 -1.4 -6.9 -2.1 -6.65 -2.75 -6.35 -3.4 -6.0 -4.0 -5.6 -4.55 -5.1 -5.05 -4.6 -5.55 -4.05 -5.95 -3.45 -6.35 -2.8 -6.6 -2.15 -6.85 -1.45 -7.0 -0.75 -7.15 0.0 -7.15 0.0 -7.15 0.1 -7.15 0.85 -7.15 1.55 -7.0 2.25 -6.85 2.9 -6.6 3.55 -6.3 4.15 -5.9 4.7 -5.5 5.2 -5.0 5.7 -4.55 6.1 -3.95 6.45 -3.4 6.75 -2.75 7.0 -2.1 7.15 -1.4 7.3 -0.7 7.3 0.05 7.3 0.75 7.1 1.45 6.95 2.15 6.7 2.8 6.4 3.45 6.0 4.0 5.6 4.6 5.1 5.1 4.6 5.55 4.05 5.95 3.45 6.35 2.8 6.65 2.15 6.9 1.45 7.05 0.75 7.2 0.0 7.2 L0.0 7.2 0.0 7.2" fill="#ffffff" fill-rule="evenodd" stroke="none"/>
      <path d="M0.0 -2.85 L0.0 -2.85 Q0.05 -2.85 0.1 -2.85 0.1 -2.85 0.15 -2.85 0.2 -2.85 0.25 -2.85 0.25 -2.85 0.3 -2.85 0.35 -2.85 0.4 -2.85 0.4 -2.85 0.45 -2.85 0.5 -2.8 0.55 -2.8 0.55 -2.8 0.6 -2.75 0.8 -2.7 1.0 -2.65 1.2 -2.6 1.4 -2.5 1.55 -2.4 1.75 -2.25 1.9 -2.15 2.05 -2.0 2.2 -1.85 2.3 -1.7 2.45 -1.55 2.55 -1.35 2.6 -1.15 2.7 -0.95 2.75 -0.8 2.8 -0.55 2.85 -0.4 2.85 -0.25 2.85 -0.05 2.85 0.1 2.85 0.25 2.85 0.4 2.8 0.55 2.75 0.7 2.7 0.85 2.65 1.0 2.6 1.15 2.55 1.3 2.45 1.4 2.4 1.55 2.3 1.7 2.2 1.8 2.1 1.9 2.0 2.0 1.9 2.15 1.75 2.2 1.65 2.3 1.5 2.4 1.4 2.5 1.25 2.55 1.1 2.6 0.95 2.65 0.8 2.7 0.65 2.75 0.5 2.8 0.35 2.8 0.15 2.8 0.0 2.8 -0.05 2.8 -0.05 2.8 -0.1 2.8 -0.15 2.8 -0.2 2.8 -0.2 2.8 -0.25 2.8 -0.3 2.8 -0.35 2.8 -0.35 2.8 -0.4 2.8 -0.45 2.8 -0.5 2.75 -0.5 2.75 -0.55 2.75 -0.6 2.7 -0.8 2.65 -1.0 2.6 -1.2 2.55 -1.4 2.45 -1.55 2.35 -1.75 2.2 -1.9 2.1 -2.05 1.95 -2.2 1.8 -2.3 1.65 -2.45 1.5 -2.55 1.3 -2.6 1.1 -2.7 0.95 -2.75 0.75 -2.8 0.5 -2.85 0.35 -2.85 0.2 -2.85 0.0 -2.85 -0.15 -2.85 -0.3 -2.85 -0.45 -2.8 -0.6 -2.75 -0.75 -2.7 -0.9 -2.65 -1.05 -2.6 -1.2 -2.55 -1.35 -2.45 -1.45 -2.4 -1.6 -2.3 -1.75 -2.2 -1.85 -2.1 -1.95 -1.95 -2.05 -1.85 -2.2 -1.7 -2.25 -1.6 -2.35 -1.45 -2.45 -1.3 -2.55 -1.15 -2.6 -1.05 -2.65 -0.9 -2.7 -0.75 -2.75 -0.6 -2.8 -0.45 -2.85 -0.3 -2.85 -0.15 -2.85 0.0 -2.85 M0.0 -3.55 Q-0.4 -3.55 -0.8 -3.45 -1.2 -3.4 -1.55 -3.2 -1.9 -3.05 -2.2 -2.8 -2.5 -2.55 -2.75 -2.3 -3.0 -2.0 -3.2 -1.65 -3.35 -1.3 -3.45 -0.9 -3.6 -0.55 -3.6 -0.1 -3.6 0.3 -3.5 0.7 -3.45 0.95 -3.35 1.2 -3.25 1.45 -3.15 1.7 -3.0 1.95 -2.85 2.15 -2.7 2.4 -2.5 2.55 -2.35 2.75 -2.1 2.9 -1.9 3.05 -1.7 3.2 -1.45 3.3 -1.2 3.4 -0.95 3.5 -0.7 3.5 -0.6 3.5 -0.35 3.55 -0.1 3.6 0.0 3.6 0.4 3.6 0.8 3.5 1.2 3.45 1.55 3.25 1.9 3.1 2.2 2.85 2.5 2.6 2.75 2.35 3.0 2.05 3.2 1.7 3.35 1.35 3.45 0.95 3.6 0.6 3.6 0.15 3.6 -0.25 3.5 -0.65 3.45 -0.9 3.35 -1.15 3.25 -1.4 3.15 -1.65 3.0 -1.9 2.85 -2.1 2.7 -2.35 2.5 -2.5 2.35 -2.7 2.1 -2.85 1.9 -3.0 1.7 -3.15 1.45 -3.25 1.2 -3.35 0.95 -3.45 0.7 -3.45 0.65 -3.45 0.6 -3.5 0.6 -3.5 0.55 -3.5 0.5 -3.55 0.45 -3.55 0.4 -3.55 0.35 -3.55 0.3 -3.55 0.25 -3.55 0.2 -3.55 0.15 -3.55 0.15 -3.55 0.1 -3.55 0.05 -3.55 0.0 -3.55 L0.0 -3.55 0.0 -3.55" fill="#ffffff" fill-rule="evenodd" stroke="none"/>
    </g>
  
</svg>
