<?xml version="1.0" encoding="UTF-8" standalone="no"?>
<svg xmlns:xlink="http://www.w3.org/1999/xlink" height="32.1px" width="31.95px" xmlns="http://www.w3.org/2000/svg">
  <g transform="matrix(1.0, 0.0, 0.0, 1.0, 15.95, 16.05)">
    <use data-characterId="142" height="32.1" transform="matrix(1.0, 0.0, 0.0, 1.0, -15.95, -16.05)" width="31.95" xlink:href="#shape0"/>
  </g>
  
    <g id="shape0" transform="matrix(1.0, 0.0, 0.0, 1.0, 15.95, 16.05)">
      <path d="M-7.55 -7.55 Q-7.3 -8.1 -7.25 -8.15 -7.2 -8.2 -7.2 -8.25 -7.15 -8.3 -7.1 -8.3 -7.05 -8.35 -7.05 -8.4 -7.0 -8.4 -6.95 -8.4 -6.9 -8.45 -6.85 -8.45 -6.8 -8.45 -6.75 -8.45 -6.75 -8.45 -6.65 -8.45 -6.65 -8.45 -6.55 -8.45 -6.5 -8.45 -6.45 -8.45 -6.4 -8.45 -6.35 -8.45 -6.3 -8.4 -6.25 -8.4 -6.2 -8.4 -6.2 -8.35 -6.15 -8.35 -6.1 -8.3 -6.1 -8.3 -6.05 -8.25 -6.05 -8.2 -6.0 -8.15 -6.0 -8.1 -5.95 -8.05 -5.95 -8.0 -5.9 -8.0 -5.9 -7.95 -5.9 -7.9 -5.9 -7.9 -5.9 -7.85 -5.7 -7.3 -5.85 -7.8 -5.85 -7.75 -5.85 -7.75 -5.85 -7.7 -5.8 -7.7 -5.8 -7.65 -5.8 -7.6 -5.8 -7.6 -5.75 -7.55 -5.7 -7.6 -5.7 -7.6 -5.65 -7.65 -5.6 -7.7 -5.55 -7.7 -5.5 -7.75 -5.45 -7.75 -5.4 -7.75 -5.35 -7.8 -5.3 -7.8 -5.25 -7.8 -5.2 -7.8 -5.15 -7.8 -5.1 -7.8 -5.0 -7.75 -4.95 -7.75 -4.9 -7.75 -4.85 -7.7 -4.8 -7.7 -4.75 -7.65 -4.75 -7.6 -4.65 -7.55 -4.6 -7.5 -4.6 -7.4 -4.55 -7.35 -4.5 -7.25 -4.45 -7.15 -4.4 -7.15 -4.4 -7.05 -4.35 -7.0 -4.3 -6.9 -4.3 -6.85 -4.25 -6.75 -4.25 -6.7 -4.25 -6.6 -4.25 -6.55 -4.25 -6.45 -4.25 -6.35 -4.25 -6.35 -4.25 -6.35 -4.3 -6.3 -4.3 -6.25 -4.35 -6.25 -4.35 -6.2 -4.35 -6.15 -4.4 -6.1 -4.4 -6.05 -4.4 -6.0 -4.35 -5.95 -4.35 -5.9 -4.35 -5.85 -4.35 -5.8 -4.3 -5.75 -4.3 -5.75 -4.3 -5.7 -4.25 -5.65 -4.25 -5.6 -4.2 -5.55 -4.2 -5.55 -4.2 -5.5 -4.2 -5.45 -4.2 -5.4 -4.2 -5.4 -4.15 -5.3 -4.15 -5.25 -4.15 -5.2 -4.15 -5.15 -4.15 -5.1 -4.1 -5.05 -4.1 -5.05 -4.1 -5.0 -4.05 -4.95 -3.95 -4.7 -3.95 -3.05 -3.95 -2.95 -3.95 -2.65 -0.05 -2.65 3.8 -2.65 3.8 -3.05 3.8 -3.75 3.8 -3.65 3.8 -3.95 3.8 -4.05 3.8 -4.1 3.8 -4.2 3.8 -4.3 3.85 -4.35 3.85 -4.45 3.85 -4.55 3.85 -4.6 3.9 -4.7 3.9 -4.8 3.9 -4.9 3.95 -4.95 4.0 -5.05 4.0 -5.15 4.0 -5.2 4.05 -5.25 4.05 -5.25 4.05 -5.3 4.1 -5.35 4.1 -5.4 4.1 -5.45 4.1 -5.5 4.15 -5.6 4.15 -5.6 4.15 -5.65 4.15 -5.7 4.15 -5.75 4.2 -5.75 4.2 -5.8 4.2 -5.85 4.2 -5.9 4.25 -5.9 4.25 -5.95 4.25 -6.0 4.3 -6.05 4.3 -6.1 4.3 -6.1 4.3 -6.15 4.25 -6.2 4.25 -6.25 4.25 -6.25 4.25 -6.3 4.2 -6.35 4.2 -6.4 4.15 -6.4 4.1 -6.45 4.05 -6.5 4.05 -6.55 4.0 -6.6 4.0 -6.65 4.0 -6.75 4.0 -6.8 4.0 -6.85 4.0 -6.9 4.05 -6.95 4.05 -7.0 4.05 -7.05 4.1 -7.1 4.1 -7.15 4.15 -7.15 4.2 -7.2 4.2 -7.25 4.25 -7.3 4.25 -7.3 4.3 -7.35 4.3 -7.4 4.35 -7.45 4.35 -7.45 4.4 -7.5 4.4 -7.55 4.45 -7.6 4.5 -7.65 4.55 -7.7 4.6 -7.75 4.65 -7.8 4.75 -7.8 4.8 -7.85 4.9 -7.85 4.95 -7.9 5.05 -7.9 5.15 -7.9 5.2 -7.9 5.3 -7.85 5.35 -7.85 5.45 -7.8 5.5 -7.75 5.55 -7.7 5.6 -7.65 5.65 -7.7 5.7 -7.7 5.7 -7.75 5.75 -7.8 5.75 -7.85 5.8 -7.85 5.85 -7.9 5.85 -7.95 5.85 -8.0 5.9 -8.0 5.9 -8.05 5.95 -8.1 5.95 -8.15 6.0 -8.15 6.0 -8.2 6.0 -8.25 6.05 -8.3 6.1 -8.35 6.1 -8.4 6.15 -8.4 6.2 -8.45 6.25 -8.5 6.3 -8.5 6.35 -8.5 6.35 -8.55 6.4 -8.55 6.45 -8.55 6.5 -8.55 6.55 -8.55 6.6 -8.55 6.65 -8.55 6.7 -8.55 6.75 -8.55 6.8 -8.55 6.85 -8.55 6.9 -8.5 6.95 -8.5 7.0 -8.45 7.05 -8.45 7.1 -8.4 7.1 -8.4 7.15 -8.35 7.2 -8.3 7.2 -8.25 7.25 -8.2 7.25 -8.15 7.3 -8.1 7.3 -8.05 7.3 -8.0 7.3 -7.95 7.3 -7.95 7.35 -7.9 7.35 -7.85 7.35 -7.85 7.35 -7.8 7.4 -7.8 7.4 -7.75 7.45 -7.75 7.45 -7.7 7.45 -7.7 7.5 -7.7 7.5 -7.65 7.55 -7.6 7.55 -7.6 7.6 -7.65 7.6 -7.7 7.65 -7.75 7.7 -7.75 7.75 -7.8 7.8 -7.8 7.85 -7.85 7.9 -7.85 7.95 -7.85 8.0 -7.9 8.05 -7.9 8.1 -7.9 8.15 -7.9 8.2 -7.9 8.25 -7.85 8.3 -7.85 8.45 -7.8 8.6 -7.75 8.65 -7.65 8.7 -7.6 8.75 -7.55 8.8 -7.45 8.85 -7.4 8.9 -7.35 8.95 -7.25 8.95 -7.2 9.0 -7.1 9.0 -7.05 9.05 -6.95 9.05 -6.9 9.05 -6.8 9.05 -6.75 9.05 -6.65 9.0 -6.55 9.0 -6.55 9.0 -6.55 8.95 -6.5 8.95 -6.45 8.9 -6.4 8.9 -6.35 8.9 -6.3 8.9 -6.25 8.9 -6.2 8.9 -6.15 8.9 -6.1 8.9 -6.05 8.9 -6.0 8.95 -5.95 8.95 -5.9 8.95 -5.85 9.0 -5.75 9.0 -5.75 9.05 -5.65 9.15 -5.2 9.25 -4.9 9.3 -4.65 9.3 -4.55 9.3 -4.25 9.3 -3.45 9.3 -1.75 9.3 -1.75 9.3 -1.65 9.3 -1.55 9.3 -1.5 9.3 -1.45 9.3 -1.4 9.3 -1.35 9.3 -1.3 9.35 -1.25 9.35 -1.2 9.35 -1.15 9.35 -1.05 9.35 -1.0 9.4 -0.95 9.4 -0.9 9.4 -0.85 9.45 -0.75 9.5 -0.6 9.55 -0.45 9.6 -0.3 9.65 -0.2 9.7 -0.05 9.8 0.15 9.8 0.25 9.9 0.4 9.95 0.55 10.0 0.7 10.05 0.8 10.1 0.95 10.15 1.1 10.25 1.2 10.3 1.35 10.4 1.5 10.45 1.65 10.55 1.8 10.6 1.95 10.7 2.05 10.8 2.2 10.9 2.35 11.0 2.5 11.05 2.6 11.15 2.75 11.25 2.9 11.4 3.0 11.5 3.15 11.6 3.3 11.7 3.4 11.8 3.55 11.95 3.7 12.05 3.85 12.2 4.0 12.35 4.15 12.5 4.25 12.65 4.4 12.85 4.55 13.0 4.65 13.15 4.8 13.35 4.9 13.5 5.05 13.65 5.15 13.85 5.25 14.05 5.35 14.2 5.45 14.4 5.55 14.5 5.6 14.75 5.7 15.0 5.8 15.1 5.85 15.2 5.9 15.25 5.95 15.35 6.0 15.4 6.05 15.5 6.1 15.55 6.15 15.6 6.2 15.65 6.3 15.65 6.35 15.7 6.45 15.7 6.5 15.7 6.6 15.75 6.7 15.7 6.75 15.7 6.85 15.7 6.95 15.7 7.05 15.7 7.25 15.7 7.55 15.7 8.05 15.7 8.1 15.7 8.2 15.65 8.25 15.65 8.3 15.6 8.35 15.55 8.4 15.5 8.45 15.45 8.5 15.4 8.55 15.35 8.55 15.3 8.6 15.25 8.6 15.2 8.65 15.1 8.65 15.05 8.65 15.0 8.65 15.0 8.65 14.95 8.65 14.95 8.65 14.9 8.65 9.6 8.65 4.3 8.65 4.25 8.65 4.2 8.65 4.15 8.65 4.1 8.65 4.05 8.65 4.0 8.65 3.95 8.65 3.9 8.6 3.85 8.6 3.8 8.6 3.75 8.55 3.75 8.5 3.7 8.5 3.65 8.45 3.65 8.4 3.6 8.35 3.6 8.3 3.55 8.3 3.55 8.25 3.55 8.2 3.55 8.15 3.5 8.1 3.5 8.05 3.5 8.0 3.5 8.0 3.5 7.95 3.5 7.75 3.5 7.25 3.5 7.2 3.5 7.2 3.5 7.15 3.5 7.1 3.5 7.1 3.4 7.05 0.25 4.75 0.05 4.55 -0.05 4.5 -0.05 4.5 -0.1 4.5 -0.15 4.55 -0.45 4.8 -1.1 5.25 -1.75 5.7 -2.05 5.95 -2.3 6.1 -2.75 6.45 -3.25 6.8 -3.45 6.95 -3.55 7.05 -3.55 7.05 -3.55 7.1 -3.55 7.15 -3.55 7.45 -3.55 8.05 -3.55 8.1 -3.55 8.15 -3.6 8.2 -3.6 8.25 -3.65 8.3 -3.7 8.35 -3.7 8.4 -3.75 8.4 -3.8 8.45 -3.85 8.45 -3.95 8.5 -4.0 8.5 -4.05 8.55 -4.1 8.55 -4.2 8.55 -4.25 8.55 -4.3 8.55 -4.35 8.55 -9.55 8.55 -14.75 8.55 -14.8 8.55 -14.8 8.55 -14.85 8.55 -14.9 8.55 -14.9 8.55 -14.95 8.55 -14.95 8.55 -15.0 8.55 -15.05 8.55 -15.05 8.55 -15.1 8.5 -15.1 8.5 -15.15 8.5 -15.2 8.5 -15.2 8.45 -15.25 8.45 -15.3 8.45 -15.35 8.4 -15.4 8.4 -15.45 8.35 -15.5 8.3 -15.5 8.25 -15.55 8.25 -15.55 8.2 -15.6 8.15 -15.6 8.1 -15.6 8.05 -15.65 8.0 -15.65 7.95 -15.65 7.95 -15.65 7.9 -15.65 7.85 -15.65 7.55 -15.65 7.05 -15.65 7.0 -15.65 6.95 -15.7 6.85 -15.7 6.75 -15.75 6.65 -15.75 6.6 -15.75 6.5 -15.7 6.4 -15.7 6.3 -15.65 6.25 -15.65 6.15 -15.6 6.1 -15.55 6.0 -15.45 5.95 -15.4 5.9 -15.3 5.85 -15.25 5.8 -15.15 5.75 -15.0 5.7 -14.85 5.65 -14.7 5.55 -14.55 5.5 -14.45 5.45 -14.3 5.35 -14.15 5.3 -14.0 5.25 -13.9 5.15 -13.75 5.05 -13.6 5.0 -13.5 4.9 -13.35 4.8 -13.2 4.75 -13.1 4.65 -12.95 4.55 -12.75 4.4 -12.6 4.25 -12.4 4.1 -12.25 3.95 -12.05 3.75 -11.9 3.6 -11.75 3.45 -11.6 3.3 -11.45 3.1 -11.3 2.95 -11.2 2.75 -11.05 2.6 -10.9 2.4 -10.8 2.2 -10.65 2.05 -10.55 1.85 -10.45 1.7 -10.35 1.5 -10.3 1.35 -10.2 1.15 -10.1 1.0 -10.05 0.85 -9.95 0.65 -9.9 0.5 -9.8 0.3 -9.75 0.15 -9.65 -0.05 -9.6 -0.2 -9.55 -0.4 -9.5 -0.6 -9.4 -0.75 -9.35 -0.95 -9.35 -1.0 -9.35 -1.0 -9.35 -1.05 -9.3 -1.1 -9.3 -1.15 -9.3 -1.15 -9.3 -1.2 -9.25 -1.25 -9.25 -1.3 -9.25 -1.35 -9.25 -2.25 -9.25 -3.95 -9.25 -4.0 -9.25 -4.1 -9.25 -4.15 -9.25 -4.25 -9.25 -4.3 -9.2 -4.4 -9.2 -4.45 -9.2 -4.55 -9.2 -4.6 -9.15 -4.7 -9.15 -4.75 -9.15 -4.85 -9.1 -4.9 -9.1 -5.0 -9.1 -5.05 -9.05 -5.15 -9.05 -5.15 -9.0 -5.25 -9.0 -5.35 -9.0 -5.35 -8.95 -5.45 -8.95 -5.5 -8.95 -5.55 -8.9 -5.6 -8.9 -5.65 -8.9 -5.7 -8.9 -5.75 -8.9 -5.8 -8.85 -5.9 -8.85 -5.95 -8.85 -6.0 -8.85 -6.05 -8.9 -6.1 -8.95 -6.15 -9.0 -6.25 -9.0 -6.3 -9.05 -6.35 -9.05 -6.45 -9.1 -6.5 -9.1 -6.55 -9.1 -6.65 -9.1 -6.7 -9.1 -6.75 -9.1 -6.85 -9.1 -6.9 -9.05 -6.95 -9.05 -7.05 -9.05 -7.1 -9.0 -7.15 -8.95 -7.25 -8.95 -7.25 -8.9 -7.3 -8.9 -7.35 -8.85 -7.35 -8.8 -7.45 -8.75 -7.5 -8.7 -7.6 -8.65 -7.65 -8.55 -7.7 -8.5 -7.75 -8.4 -7.75 -8.3 -7.8 -8.25 -7.8 -8.15 -7.8 -8.05 -7.8 -7.95 -7.75 -7.85 -7.75 -7.75 -7.7 -7.65 -7.6 -7.55 -7.55 -7.55 -7.55 -7.55 -7.55 L-7.55 -7.55 M8.0 -7.15 Q8.0 -7.05 8.0 -6.85 7.9 -6.85 7.8 -6.85 7.8 -6.8 7.8 -6.75 7.8 -6.75 7.8 -6.65 7.9 -6.65 8.0 -6.65 8.0 -6.6 8.05 -6.5 8.05 -6.45 8.05 -6.35 8.05 -6.3 8.05 -6.25 8.05 -6.15 8.05 -6.1 8.05 -6.05 8.0 -5.95 8.0 -5.9 8.0 -5.85 7.95 -5.8 7.95 -5.7 7.9 -5.6 7.9 -5.55 7.85 -5.35 7.85 -5.3 7.8 -5.2 7.75 -5.1 7.75 -5.0 7.7 -4.85 7.65 -4.75 7.65 -4.65 7.65 -4.5 7.6 -4.4 7.6 -4.3 7.6 -4.15 7.6 -4.05 7.6 -3.9 7.6 -3.8 7.6 -3.65 7.6 -3.65 7.6 -3.55 7.6 -3.55 7.6 -3.55 7.5 -4.0 7.25 -4.9 7.0 -5.85 6.9 -6.25 6.9 -6.3 6.85 -6.35 6.85 -6.45 6.85 -6.5 6.8 -6.55 6.8 -6.6 6.8 -6.7 6.8 -6.75 6.8 -6.8 6.8 -6.9 6.75 -6.95 6.75 -7.0 6.8 -7.05 6.8 -7.15 6.8 -7.2 6.8 -7.25 6.9 -7.3 6.9 -7.35 6.95 -7.35 7.0 -7.35 6.95 -7.4 6.9 -7.45 6.9 -7.5 6.8 -7.55 6.8 -7.55 6.8 -7.55 6.8 -7.65 6.8 -7.85 6.7 -7.85 6.6 -7.85 6.6 -7.75 6.6 -7.55 6.5 -7.55 6.4 -7.55 6.4 -7.45 6.4 -7.45 6.4 -7.45 6.4 -7.35 6.5 -7.35 6.6 -7.35 6.6 -7.15 6.6 -6.75 6.5 -6.45 6.35 -5.75 6.2 -5.15 6.1 -4.75 6.0 -4.35 5.8 -3.55 5.8 -3.6 5.8 -3.65 5.8 -3.75 5.85 -3.85 5.85 -3.95 5.85 -4.0 5.85 -4.1 5.8 -4.2 5.8 -4.3 5.8 -4.4 5.75 -4.5 5.7 -4.6 5.7 -4.7 5.65 -4.75 5.65 -4.85 5.6 -4.95 5.55 -5.05 5.5 -5.15 5.25 -6.25 5.3 -6.45 5.3 -6.45 5.3 -6.55 5.4 -6.55 5.5 -6.55 5.5 -6.65 5.5 -6.65 5.5 -6.65 5.5 -6.75 5.45 -6.75 5.4 -6.75 5.35 -6.75 5.35 -6.8 5.35 -6.8 5.35 -6.85 5.35 -6.85 5.35 -6.9 5.35 -6.95 5.35 -6.95 5.35 -7.0 5.35 -7.0 5.35 -7.05 5.3 -7.05 5.3 -7.05 5.25 -7.1 5.3 -7.05 5.25 -7.05 5.2 -7.05 5.1 -7.05 5.1 -6.95 5.1 -6.75 5.1 -6.75 5.1 -6.75 5.05 -6.7 5.0 -6.65 5.0 -6.65 4.9 -6.55 5.0 -6.5 5.0 -6.45 5.05 -6.45 5.1 -6.35 5.1 -6.3 5.1 -6.25 5.1 -6.15 5.1 -6.1 5.1 -6.05 5.1 -6.0 5.1 -5.9 5.1 -5.85 5.1 -5.8 5.1 -5.7 5.1 -5.65 5.05 -5.6 5.05 -5.55 5.05 -5.45 5.05 -5.4 5.0 -5.35 4.95 -5.2 4.95 -5.1 4.9 -5.0 4.85 -4.9 4.85 -4.75 4.8 -4.65 4.75 -4.5 4.75 -4.4 4.75 -4.25 4.7 -4.15 4.7 -4.05 4.7 -3.9 4.7 -3.8 4.7 -3.7 4.7 -3.55 4.7 -3.45 4.7 -2.95 4.7 -2.05 4.7 -2.0 4.7 -1.95 4.7 -1.9 4.7 -1.85 0.1 -1.85 -4.45 -1.85 -4.45 -1.95 -4.45 -2.05 -4.45 -2.75 -4.45 -4.05 -4.45 -4.15 -4.45 -4.25 -4.5 -4.4 -4.65 -5.0 -4.8 -5.5 -4.85 -5.85 -4.85 -6.05 -4.85 -6.45 -4.75 -6.45 -4.65 -6.45 -4.65 -6.5 -4.65 -6.55 -4.65 -6.55 -4.65 -6.65 -4.75 -6.65 -4.85 -6.65 -4.85 -6.75 -4.85 -6.95 -4.95 -6.95 -5.05 -6.95 -5.05 -6.85 -5.05 -6.65 -5.15 -6.65 -5.25 -6.65 -5.25 -6.6 -5.25 -6.55 -5.25 -6.5 -5.25 -6.45 -5.15 -6.45 -5.05 -6.45 -5.05 -6.4 -5.05 -6.3 -5.0 -6.25 -5.0 -6.15 -5.0 -6.1 -5.0 -6.0 -5.05 -5.95 -5.05 -5.85 -5.05 -5.8 -5.05 -5.7 -5.1 -5.65 -5.1 -5.6 -5.1 -5.55 -5.15 -5.45 -5.15 -5.4 -5.15 -5.35 -5.2 -5.2 -5.25 -5.1 -5.25 -5.0 -5.3 -4.9 -5.35 -4.8 -5.35 -4.65 -5.4 -4.55 -5.45 -4.45 -5.45 -4.35 -5.45 -4.2 -5.5 -4.1 -5.5 -4.0 -5.5 -3.9 -5.5 -3.75 -5.5 -3.65 -5.45 -3.55 -5.45 -3.5 -5.45 -3.45 -5.45 -3.5 -5.5 -3.55 -5.5 -3.55 -5.5 -3.6 -5.55 -3.65 -5.55 -3.7 -5.55 -3.75 -5.55 -3.8 -5.6 -3.9 -5.6 -3.9 -5.6 -3.95 -5.6 -4.0 -5.6 -4.05 -5.65 -4.05 -5.65 -4.1 -5.65 -4.15 -5.75 -4.3 -5.8 -4.5 -5.85 -4.65 -5.95 -4.8 -6.0 -4.95 -6.05 -5.15 -6.15 -5.3 -6.2 -5.45 -6.25 -5.6 -6.3 -5.75 -6.35 -5.95 -6.4 -6.1 -6.45 -6.25 -6.5 -6.4 -6.55 -6.6 -6.55 -6.75 -6.55 -6.95 -6.55 -7.25 -6.5 -7.25 -6.45 -7.25 -6.45 -7.3 -6.45 -7.35 -6.45 -7.4 -6.45 -7.4 -6.5 -7.45 -6.5 -7.45 -6.55 -7.45 -6.6 -7.45 -6.6 -7.45 -6.65 -7.45 -6.65 -7.55 -6.65 -7.75 -6.75 -7.75 -6.85 -7.75 -6.85 -7.65 -6.85 -7.45 -6.95 -7.45 -7.05 -7.45 -7.05 -7.4 -7.0 -7.35 -7.0 -7.35 -6.95 -7.3 -6.95 -7.3 -6.9 -7.25 -6.9 -7.25 -6.85 -7.25 -6.85 -7.25 -6.8 -7.25 -6.8 -7.25 -6.75 -7.25 -6.75 -7.25 -6.7 -7.25 -6.8 -6.55 -7.1 -5.4 -7.45 -4.15 -7.55 -3.55 -7.55 -3.6 -7.55 -3.65 -7.55 -3.75 -7.55 -3.85 -7.55 -3.95 -7.55 -4.1 -7.55 -4.2 -7.6 -4.3 -7.6 -4.4 -7.65 -4.5 -7.65 -4.55 -7.7 -4.7 -7.8 -4.95 -7.75 -4.85 -7.8 -5.0 -7.8 -5.05 -7.85 -5.15 -7.85 -5.25 -7.85 -5.3 -7.9 -5.4 -7.9 -5.4 -7.95 -5.55 -7.95 -5.65 -8.0 -5.7 -8.0 -5.8 -8.05 -5.85 -8.05 -5.95 -8.05 -6.0 -8.1 -6.1 -8.1 -6.2 -8.1 -6.3 -8.1 -6.35 -8.1 -6.45 -8.05 -6.55 -7.95 -6.55 -7.85 -6.55 -7.85 -6.6 -7.85 -6.65 -7.85 -6.7 -7.85 -6.75 -7.95 -6.75 -8.05 -6.75 -8.05 -6.85 -8.05 -7.05 -8.15 -7.05 -8.25 -7.05 -8.25 -6.95 -8.25 -6.75 -8.35 -6.75 -8.4 -6.75 -8.45 -6.75 -8.45 -6.7 -8.45 -6.65 -8.45 -6.55 -8.35 -6.55 -8.25 -6.55 -8.25 -6.45 -8.25 -6.45 -8.25 -6.4 -8.25 -6.35 -8.25 -6.3 -8.25 -6.2 -8.25 -6.15 -8.25 -6.05 -8.3 -6.0 -8.3 -5.9 -8.3 -5.85 -8.3 -5.75 -8.35 -5.7 -8.35 -5.6 -8.35 -5.55 -8.4 -5.45 -8.4 -5.4 -8.4 -5.3 -8.45 -5.25 -8.45 -5.15 -8.45 -5.1 -8.5 -5.0 -8.5 -5.0 -8.55 -4.85 -8.55 -4.75 -8.6 -4.7 -8.6 -4.6 -8.65 -4.55 -8.65 -4.45 -8.65 -4.4 -8.7 -4.3 -8.7 -4.2 -8.7 -4.1 -8.7 -4.05 -8.7 -3.95 -8.65 -3.85 -8.65 -2.95 -8.65 -1.05 -8.65 -1.05 -8.65 -0.95 -8.65 -0.95 -8.65 -0.9 -8.65 -0.85 -8.65 -0.8 -8.65 -0.8 -8.65 -0.75 -8.7 -0.7 -8.7 -0.65 -8.7 -0.65 -8.7 -0.6 -8.7 -0.55 -8.75 -0.5 -8.75 -0.5 -8.75 -0.45 -8.9 -0.1 -9.15 0.6 -9.4 1.3 -9.55 1.65 -9.65 1.8 -9.7 1.95 -9.8 2.1 -9.85 2.25 -9.95 2.4 -10.05 2.55 -10.15 2.7 -10.25 2.85 -10.35 3.0 -10.45 3.15 -10.55 3.25 -10.65 3.4 -10.75 3.55 -10.85 3.7 -10.95 3.8 -11.05 3.95 -11.15 4.1 -11.3 4.2 -11.4 4.35 -11.5 4.45 -11.6 4.6 -11.75 4.7 -11.85 4.8 -11.95 4.95 -12.1 5.05 -12.2 5.15 -12.35 5.25 -12.45 5.35 -12.55 5.45 -12.7 5.55 -12.8 5.65 -12.95 5.75 -13.1 5.85 -13.2 5.9 -13.3 6.0 -13.4 6.05 -13.55 6.1 -13.65 6.2 -13.75 6.25 -13.85 6.35 -14.0 6.4 -14.1 6.45 -14.25 6.5 -14.35 6.55 -14.45 6.6 -14.6 6.65 -14.7 6.7 -14.85 6.75 -14.85 6.75 -14.9 6.75 -14.9 6.75 -14.95 6.75 -14.95 6.8 -15.0 6.8 -15.0 6.8 -15.05 6.85 -15.05 6.85 -15.05 6.85 -15.05 6.9 -15.1 6.9 -15.1 6.95 -15.1 7.0 -15.05 7.0 -15.05 7.05 -15.05 7.05 -15.05 7.05 -15.05 7.05 -15.05 7.05 -15.0 7.05 -15.0 7.0 -15.0 7.0 -15.0 7.0 -14.95 7.0 -14.95 7.0 -14.9 6.95 -14.9 6.95 -14.85 6.95 -14.8 6.95 -14.8 6.95 -14.75 6.95 -14.55 6.85 -14.15 6.7 -13.75 6.55 -13.55 6.45 -13.55 6.75 -13.55 7.45 -13.65 7.45 -13.75 7.45 -14.25 7.45 -14.75 7.45 -14.85 7.5 -14.95 7.55 -14.95 7.75 -14.95 8.15 -9.55 8.15 -4.15 8.15 -4.15 7.95 -4.15 7.45 -4.2 7.45 -4.2 7.45 -4.25 7.5 -4.3 7.45 -4.3 7.45 -4.3 7.45 -4.35 7.45 -4.35 7.4 -4.35 7.4 -4.4 7.35 -4.4 7.35 -4.4 7.3 -4.45 7.25 -4.45 7.2 -4.45 7.2 -4.45 7.15 -4.45 7.1 -4.4 7.0 -4.35 6.95 -4.25 6.95 -4.2 6.9 -4.2 6.9 -4.15 6.85 -4.1 6.85 -4.05 6.8 -4.05 6.8 -4.0 6.8 -3.95 6.75 -3.35 6.3 -2.25 5.55 -1.05 4.7 -0.55 4.35 -0.45 4.3 -0.45 4.3 -0.4 4.25 -0.35 4.25 -0.3 4.2 -0.3 4.15 -0.3 4.15 -0.3 4.1 -0.3 4.1 -0.3 4.05 -0.3 4.0 -0.3 3.95 -0.1 4.8 -0.35 3.8 -0.35 3.75 -0.35 3.65 -0.35 3.6 -0.45 3.55 -0.45 3.55 -0.55 3.55 -1.0 3.8 -2.3 4.55 -3.4 5.15 -4.05 5.55 -4.1 5.6 -4.15 5.6 -4.15 5.6 -4.2 5.65 -4.4 5.7 -4.3 5.65 -4.35 5.7 -4.4 5.7 -4.45 5.7 -4.45 5.75 -4.45 5.25 -4.45 4.15 -4.35 4.15 -4.25 4.15 -4.25 4.1 -4.3 4.1 -4.3 4.05 -4.3 4.0 -4.35 3.95 -4.35 3.95 -4.35 3.9 -4.35 3.85 -4.35 3.8 -4.4 3.75 -4.4 3.75 -4.45 3.7 -4.45 3.65 -4.45 3.6 -4.5 3.55 -4.5 3.5 -4.5 3.45 -4.5 3.4 -4.5 3.35 -4.5 3.3 -4.5 3.25 -4.5 3.25 -4.5 3.2 -4.45 3.15 -4.45 2.45 -4.45 0.95 -4.45 0.85 -4.45 0.85 -4.45 0.85 -4.45 0.75 -4.35 0.75 -4.25 0.75 -4.25 0.7 -4.3 0.65 -4.3 0.65 -4.35 0.6 -4.35 0.55 -4.35 0.5 -4.4 0.5 -4.4 0.45 -4.4 0.4 -4.45 0.35 -4.45 0.3 -4.45 0.25 -4.45 0.2 -4.45 0.15 -4.45 0.1 -4.45 0.05 -4.3 0.05 -4.15 0.05 0.2 0.05 4.5 0.05 4.55 0.05 4.6 0.05 4.65 0.05 4.7 0.05 4.7 0.05 4.7 0.1 4.7 0.15 4.7 0.25 4.7 0.3 4.65 0.3 4.65 0.35 4.65 0.4 4.65 0.4 4.65 0.45 4.6 0.55 4.6 0.5 4.6 0.55 4.6 0.55 4.6 0.6 4.6 0.6 4.55 0.65 4.55 0.7 4.55 0.7 4.5 0.75 4.55 0.75 4.6 0.75 4.65 0.7 4.7 0.75 4.7 0.75 4.75 0.75 4.75 0.75 4.8 0.8 4.8 0.8 4.8 0.8 4.8 0.85 4.8 0.85 4.8 0.9 4.8 0.9 4.8 0.9 4.8 0.95 4.8 1.75 4.8 3.35 4.8 3.4 4.8 3.45 4.8 3.5 4.8 3.5 4.75 3.55 4.7 3.55 4.7 3.6 4.65 3.6 4.65 3.65 4.65 3.7 4.65 3.7 4.65 3.75 4.6 3.85 4.6 3.8 4.6 3.85 4.6 3.85 4.6 3.9 4.6 3.9 4.55 3.95 4.55 4.0 4.55 4.0 4.5 4.05 4.6 4.05 4.7 4.05 4.7 4.55 4.7 5.65 1.4 3.75 0.6 3.35 0.6 3.4 0.55 3.45 0.55 3.5 0.55 3.5 0.55 3.55 0.55 3.6 0.55 3.6 0.55 3.65 0.55 3.65 0.5 3.7 0.5 3.7 0.5 3.75 0.5 3.8 0.5 3.8 0.5 3.85 0.55 3.85 0.55 3.85 0.6 3.95 1.9 4.85 4.5 6.85 4.55 6.9 4.6 6.95 4.6 6.95 4.65 7.0 4.65 7.05 4.65 7.05 4.65 7.1 4.6 7.15 4.6 7.15 4.4 7.35 4.4 7.55 4.4 7.95 9.85 7.95 15.3 7.95 15.3 7.75 15.3 7.25 14.6 7.25 13.9 7.25 13.9 6.85 13.9 6.25 14.15 6.35 14.5 6.5 15.05 6.7 15.2 6.75 15.2 6.75 15.25 6.8 15.25 6.8 15.25 6.8 15.3 6.8 15.3 6.8 15.3 6.8 15.35 6.75 15.35 6.75 15.35 6.75 15.4 6.7 15.4 6.7 15.4 6.65 15.4 6.6 15.4 6.6 15.4 6.55 15.4 6.5 15.4 6.45 15.4 6.4 15.35 6.4 15.35 6.35 15.3 6.35 15.3 6.35 15.25 6.35 15.25 6.35 15.2 6.35 15.15 6.3 15.05 6.3 15.0 6.25 14.9 6.2 14.9 6.2 14.75 6.15 14.65 6.1 14.6 6.1 14.5 6.05 14.45 6.0 14.35 6.0 14.3 5.95 14.2 5.9 14.15 5.85 14.1 5.8 14.0 5.75 13.85 5.65 13.65 5.55 13.5 5.45 13.35 5.35 13.2 5.25 13.05 5.1 12.9 5.0 12.75 4.85 12.6 4.75 12.45 4.6 12.3 4.45 12.15 4.35 12.0 4.2 11.85 4.05 11.75 3.9 11.6 3.75 11.5 3.6 11.4 3.5 11.25 3.35 11.15 3.2 11.05 3.1 10.95 2.95 10.85 2.8 10.8 2.7 10.7 2.55 10.6 2.4 10.5 2.25 10.45 2.15 10.35 2.0 10.25 1.85 10.2 1.7 10.1 1.55 9.7 0.75 9.1 -0.85 9.0 -1.05 9.0 -2.05 9.0 -2.65 9.0 -3.75 9.0 -3.85 9.0 -3.95 9.0 -4.1 9.0 -4.2 9.0 -4.3 8.95 -4.4 8.95 -4.55 8.95 -4.65 8.9 -4.75 8.9 -4.85 8.85 -5.0 8.85 -5.1 8.8 -5.2 8.8 -5.3 8.75 -5.45 8.7 -5.55 8.5 -6.4 8.5 -6.75 8.6 -6.75 8.7 -6.75 8.7 -6.8 8.7 -6.85 8.7 -6.85 8.7 -6.95 8.6 -6.95 8.5 -6.95 8.5 -7.05 8.5 -7.25 8.45 -7.25 8.35 -7.2 8.3 -7.2 8.25 -7.2 8.2 -7.15 8.2 -7.15 8.15 -7.15 8.1 -7.15 8.1 -7.15 8.05 -7.15 8.05 -7.15 8.0 -7.15 8.0 -7.15 7.95 -7.15 L8.0 -7.15 M-0.05 3.15 Q0.0 3.1 0.05 3.1 0.1 3.05 0.15 3.0 0.2 3.0 0.25 3.0 0.3 2.95 0.4 2.95 0.45 2.95 0.5 2.95 0.55 2.95 0.6 2.95 0.65 2.95 0.7 3.0 0.75 3.0 0.8 3.05 1.25 3.25 1.95 3.7 2.75 4.15 3.1 4.35 3.15 4.35 3.2 4.4 3.2 4.4 3.25 4.45 3.3 4.45 3.35 4.45 3.4 4.5 3.4 4.5 3.45 4.55 3.5 4.55 3.55 4.6 3.55 4.6 3.6 4.65 3.65 4.7 3.7 4.7 3.7 4.75 3.7 4.7 3.65 4.65 3.65 4.5 3.65 4.55 3.6 4.5 3.6 4.45 3.6 4.4 3.6 4.35 3.6 4.3 3.6 4.25 3.6 4.2 3.6 4.15 3.6 4.1 3.6 4.05 3.6 4.0 3.6 3.95 3.65 3.9 3.65 3.8 3.7 3.7 3.75 3.65 3.75 3.55 3.75 3.45 3.8 3.4 3.8 3.3 3.8 3.2 3.8 3.15 3.8 3.05 3.8 2.95 3.8 2.9 3.8 2.8 3.8 2.75 3.8 2.65 3.8 2.35 3.8 1.75 3.8 1.7 3.8 1.65 3.8 1.65 3.8 1.6 3.8 1.55 3.8 1.5 3.8 1.45 3.8 1.4 3.8 1.35 3.8 1.3 3.8 1.25 3.8 1.2 3.75 1.15 3.75 1.15 3.75 1.1 3.7 1.05 3.7 1.0 3.7 0.95 3.7 0.9 3.7 0.85 3.7 0.8 3.65 0.8 3.65 0.75 3.65 0.75 3.6 0.75 3.6 0.75 3.55 0.75 3.5 0.75 0.0 0.75 -3.45 0.75 -3.55 0.75 -3.65 0.75 -3.7 0.8 -3.7 0.8 -3.75 0.85 -3.75 0.9 -3.75 0.9 -3.8 1.0 -3.8 1.05 -3.8 1.1 -3.85 1.1 -3.85 1.15 -3.85 1.2 -3.9 1.2 -3.9 1.25 -3.9 1.3 -3.95 1.35 -3.95 1.35 -3.95 1.4 -3.95 1.45 -3.95 2.05 -3.95 3.25 -3.95 3.3 -3.95 3.3 -3.95 3.35 -3.95 3.4 -3.95 3.45 -3.95 3.5 -3.95 3.55 -3.9 3.6 -3.9 3.6 -3.85 3.65 -3.8 3.85 -3.8 3.75 -3.8 3.85 -3.8 3.9 -3.8 3.95 -3.75 4.0 -3.75 4.05 -3.75 4.1 -3.75 4.2 -3.75 4.25 -3.75 4.3 -3.75 4.35 -3.8 4.45 -3.8 4.5 -3.85 4.6 -3.85 4.65 -3.8 4.65 -3.75 4.65 -3.75 4.6 -3.65 4.55 -3.25 4.3 -2.45 3.85 -1.65 3.4 -1.25 3.15 -1.15 3.1 -1.1 3.1 -1.05 3.05 -0.95 3.0 -0.9 3.0 -0.8 2.95 -0.75 2.95 -0.65 2.95 -0.6 2.9 -0.5 2.9 -0.45 2.95 -0.35 2.95 -0.3 3.0 -0.2 3.05 -0.15 3.1 -0.05 3.15 L-0.05 3.15" fill="#ffffff" fill-rule="evenodd" stroke="none"/>
      <path d="M-4.55 -0.85 Q-4.55 -1.05 -4.55 -1.55 0.0 -1.55 4.5 -1.55 4.5 -1.35 4.5 -0.85 -0.05 -0.85 -4.55 -0.85 L-4.55 -0.85" fill="#ffffff" fill-rule="evenodd" stroke="none"/>
      <path d="M9.4 7.45 Q9.15 7.45 8.9 7.45 8.9 7.45 8.85 7.45 8.8 7.4 8.8 7.35 8.6 6.9 8.6 6.85 8.6 6.05 8.6 4.45 8.6 4.4 8.6 4.35 8.6 4.3 8.6 4.25 8.7 4.25 8.8 4.25 8.8 4.2 8.75 4.15 8.75 4.15 8.75 4.1 8.75 4.05 8.7 4.0 8.7 3.95 8.7 3.95 8.7 3.9 8.7 3.85 8.65 3.8 8.65 3.8 8.65 3.75 8.6 3.75 8.6 3.75 8.55 3.7 8.6 3.65 8.6 3.65 8.6 3.6 8.6 3.55 8.6 2.65 8.6 0.95 8.6 0.9 8.6 0.85 8.65 0.85 8.7 0.85 8.75 0.85 8.75 0.85 8.8 0.85 8.85 0.9 8.9 0.9 8.9 0.95 8.95 1.05 9.05 1.3 9.15 1.55 9.2 1.65 9.2 1.7 9.25 1.75 9.25 1.75 9.3 1.8 9.3 1.85 9.3 1.9 9.35 1.95 9.35 2.0 9.35 2.05 9.35 2.1 9.4 2.15 9.4 2.2 9.4 2.25 9.4 2.25 9.4 2.3 9.4 2.35 9.4 3.95 9.4 7.25 9.4 7.25 9.4 7.45 L9.4 7.45" fill="#ffffff" fill-rule="evenodd" stroke="none"/>
      <path d="M-9.35 7.45 Q-9.35 7.35 -9.35 7.25 -9.35 5.55 -9.35 2.05 -9.35 2.0 -9.35 2.0 -9.35 1.95 -9.35 1.9 -9.35 1.85 -9.3 1.85 -9.3 1.8 -9.3 1.75 -9.3 1.7 -9.25 1.7 -9.25 1.65 -9.25 1.6 -9.2 1.55 -9.2 1.55 -9.2 1.5 -9.15 1.45 -9.15 1.45 -9.1 1.4 -9.1 1.35 -9.1 1.3 -9.05 1.25 -9.05 1.25 -9.05 1.2 -9.0 1.15 -9.0 1.1 -9.0 1.1 -9.0 1.05 -9.0 1.0 -8.95 0.95 -8.95 0.95 -8.95 0.9 -8.95 0.85 -8.95 0.85 -8.9 0.8 -8.9 0.75 -8.85 0.75 -8.85 0.75 -8.8 0.8 -8.8 0.8 -8.75 0.85 -8.75 0.9 -8.75 0.95 -8.75 1.65 -8.75 3.05 -8.75 3.25 -8.75 3.15 -8.75 3.25 -8.75 3.3 -8.75 3.35 -8.75 3.4 -8.8 3.45 -8.8 3.5 -8.8 3.55 -8.8 3.6 -8.8 3.65 -8.85 3.75 -8.85 3.8 -8.9 3.85 -8.9 3.9 -8.95 3.95 -8.95 4.05 -8.95 4.05 -9.0 4.05 -9.05 4.15 -8.95 4.15 -8.85 4.15 -8.85 4.2 -8.85 4.25 -8.85 4.3 -8.85 4.35 -8.85 5.15 -8.85 6.75 -8.85 6.8 -8.85 6.8 -8.85 6.85 -8.85 6.9 -8.9 6.95 -8.9 6.95 -8.9 7.0 -8.9 7.05 -8.95 7.05 -8.95 7.1 -8.95 7.15 -9.0 7.15 -9.0 7.2 -9.0 7.2 -9.05 7.25 -9.05 7.25 -9.1 7.3 -9.15 7.35 -9.15 7.4 -9.2 7.45 -9.25 7.45 -9.35 7.45 L-9.35 7.45" fill="#ffffff" fill-rule="evenodd" stroke="none"/>
      <path d="M9.8 2.65 Q9.8 2.7 9.85 2.7 9.85 2.75 9.9 2.8 9.9 2.8 9.9 2.85 9.9 2.85 9.95 2.9 10.0 2.95 10.0 2.95 10.0 3.0 10.05 3.0 10.05 3.05 10.05 3.1 10.1 3.1 10.1 3.15 10.15 3.25 10.3 3.45 10.45 3.65 10.5 3.75 10.55 3.8 10.55 3.8 10.55 3.85 10.6 3.9 10.6 3.95 10.6 4.0 10.6 4.05 10.6 4.1 10.6 4.1 10.6 4.15 10.6 5.15 10.6 7.25 10.6 7.3 10.6 7.35 10.6 7.4 10.6 7.45 10.15 7.45 9.7 7.45 9.8 5.85 9.8 2.65 9.8 2.65 9.8 2.65 L9.8 2.65" fill="#ffffff" fill-rule="evenodd" stroke="none"/>
      <path d="M-9.75 2.65 Q-9.75 4.25 -9.75 7.45 -10.2 7.45 -10.65 7.45 -10.65 7.35 -10.65 7.25 -10.65 6.25 -10.65 4.25 -10.65 4.2 -10.65 4.2 -10.65 4.15 -10.65 4.1 -10.65 4.05 -10.65 4.05 -10.65 4.0 -10.65 3.95 -10.6 3.95 -10.6 3.9 -10.6 3.85 -10.55 3.85 -10.55 3.8 -10.5 3.8 -10.5 3.75 -10.45 3.75 -10.4 3.7 -10.4 3.6 -10.35 3.55 -10.3 3.45 -10.25 3.4 -10.25 3.35 -10.2 3.25 -10.15 3.2 -10.1 3.15 -10.05 3.05 -10.0 3.0 -9.95 2.95 -9.9 2.85 -9.85 2.8 -9.8 2.75 -9.75 2.65 -9.75 2.65 -9.75 2.65 L-9.75 2.65" fill="#ffffff" fill-rule="evenodd" stroke="none"/>
      <path d="M12.0 7.45 Q11.55 7.45 11.1 7.45 11.1 6.45 11.1 4.35 11.15 4.4 11.2 4.4 11.2 4.45 11.25 4.5 11.3 4.5 11.35 4.55 11.35 4.55 11.4 4.55 11.6 4.75 12.0 5.15 12.05 5.2 12.1 5.25 12.0 6.05 12.0 7.45 12.0 7.45 12.0 7.45 L12.0 7.45" fill="#ffffff" fill-rule="evenodd" stroke="none"/>
      <path d="M-11.05 4.35 Q-11.05 5.45 -11.05 7.45 -11.55 7.45 -12.05 7.45 -12.05 7.35 -12.05 7.35 -12.05 7.35 -12.05 7.25 -12.05 6.65 -12.05 5.35 -12.0 5.25 -11.95 5.15 -11.75 4.95 -11.35 4.55 -11.2 4.45 -11.15 4.45 -11.15 4.4 -11.05 4.35 L-11.05 4.35" fill="#ffffff" fill-rule="evenodd" stroke="none"/>
      <path d="M13.3 7.45 Q12.85 7.45 12.4 7.45 12.4 6.85 12.4 5.55 12.5 5.65 13.1 6.05 13.15 6.05 13.15 6.1 13.2 6.1 13.25 6.15 13.25 6.15 13.3 6.15 13.3 6.2 13.35 6.25 13.35 6.25 13.35 6.3 13.4 6.3 13.4 6.35 13.4 6.4 13.4 6.45 13.4 6.5 13.4 6.55 13.4 6.6 13.35 6.65 13.35 6.7 13.35 6.8 13.35 6.85 13.35 6.9 13.3 6.95 13.3 7.0 13.3 7.05 13.3 7.1 13.3 7.15 13.3 7.25 13.3 7.3 13.3 7.35 13.3 7.4 13.3 7.45 L13.3 7.45" fill="#ffffff" fill-rule="evenodd" stroke="none"/>
      <path d="M-12.35 5.55 Q-12.35 6.15 -12.35 7.45 -12.8 7.45 -13.25 7.45 -13.25 7.05 -13.25 6.25 -13.25 6.25 -13.25 6.2 -13.2 6.15 -13.15 6.15 -12.95 5.95 -12.35 5.55 L-12.35 5.55" fill="#ffffff" fill-rule="evenodd" stroke="none"/>
      <path d="M0.05 -0.35 Q-2.1 -0.35 -4.25 -0.35 -4.35 -0.35 -4.45 -0.35 -4.5 -0.4 -4.55 -0.45 -4.55 -0.45 -4.55 -0.5 -4.55 -0.55 -4.45 -0.55 -4.45 -0.55 -4.4 -0.55 -4.35 -0.55 -4.25 -0.55 0.1 -0.55 4.4 -0.55 4.45 -0.55 4.5 -0.55 4.55 -0.5 4.6 -0.45 4.6 -0.45 4.55 -0.4 4.55 -0.35 4.5 -0.35 4.4 -0.35 4.3 -0.35 2.15 -0.35 0.05 -0.35 L0.05 -0.35" fill="#ffffff" fill-rule="evenodd" stroke="none"/>
      <path d="M7.6 6.45 Q7.4 6.45 7.2 6.45 7.25 5.35 7.3 4.95 7.3 4.9 7.35 4.9 7.35 4.85 7.35 4.85 7.5 4.8 7.45 4.8 7.5 4.8 7.5 4.75 7.6 4.8 7.6 4.85 7.65 4.85 7.7 4.95 7.7 5.05 7.7 5.35 7.7 5.4 7.65 5.5 7.65 5.55 7.65 5.65 7.65 5.7 7.65 5.75 7.65 5.85 7.6 5.9 7.6 5.95 7.6 6.05 7.6 6.1 7.6 6.15 7.6 6.25 7.6 6.3 7.6 6.35 7.6 6.45 L7.6 6.45" fill="#ffffff" fill-rule="evenodd" stroke="none"/>
      <path d="M5.7 6.45 Q5.7 5.95 5.7 4.95 5.7 4.9 5.7 4.85 5.75 4.8 5.8 4.8 5.8 4.75 5.85 4.75 5.9 4.75 5.9 4.8 5.9 4.8 5.9 4.85 5.9 4.9 5.9 4.9 5.95 4.95 5.95 5.0 6.0 5.05 6.0 5.05 6.0 5.1 6.0 5.15 6.0 5.55 6.0 6.45 5.85 6.45 5.7 6.45 L5.7 6.45" fill="#ffffff" fill-rule="evenodd" stroke="none"/>
      <path d="M7.6 3.05 Q7.4 3.05 7.2 3.05 7.2 2.55 7.2 1.65 7.2 1.6 7.2 1.55 7.25 1.5 7.3 1.5 7.3 1.5 7.35 1.5 7.4 1.5 7.4 1.5 7.4 1.5 7.4 1.55 7.4 1.6 7.4 1.65 7.45 1.65 7.45 1.7 7.5 1.75 7.5 1.8 7.5 1.8 7.5 1.85 7.5 1.9 7.55 1.95 7.55 2.05 7.55 2.1 7.6 2.15 7.6 2.25 7.6 2.3 7.6 2.4 7.6 2.45 7.6 2.55 7.6 2.6 7.6 2.7 7.6 2.75 7.6 2.85 7.6 2.95 7.6 3.05 L7.6 3.05" fill="#ffffff" fill-rule="evenodd" stroke="none"/>
      <path d="M6.0 3.05 Q5.8 3.05 5.6 3.05 5.6 3.05 5.6 3.05 5.6 2.55 5.6 1.65 5.65 1.6 5.7 1.55 5.75 1.5 5.8 1.5 5.8 1.5 5.85 1.5 5.9 1.5 5.9 1.5 5.9 1.5 5.9 1.55 5.9 1.6 5.9 1.65 5.95 1.65 5.95 1.7 6.0 1.75 6.0 1.8 6.0 1.8 6.0 1.85 6.0 2.15 6.0 3.05 L6.0 3.05" fill="#ffffff" fill-rule="evenodd" stroke="none"/>
      <path d="M-6.45 3.05 Q-6.65 3.05 -6.85 3.05 -6.85 2.55 -6.85 1.55 -6.85 1.5 -6.85 1.45 -6.8 1.4 -6.75 1.4 -6.7 1.35 -6.7 1.4 -6.65 1.4 -6.65 1.45 -6.65 1.5 -6.65 1.55 -6.65 1.55 -6.6 1.6 -6.6 1.65 -6.6 1.7 -6.55 1.7 -6.55 1.75 -6.45 2.15 -6.45 3.05 L-6.45 3.05" fill="#ffffff" fill-rule="evenodd" stroke="none"/>
      <path d="M-7.25 6.45 Q-7.45 6.45 -7.65 6.45 -7.65 6.05 -7.65 5.35 -7.65 5.3 -7.65 5.3 -7.65 5.25 -7.65 5.2 -7.65 5.2 -7.65 5.15 -7.65 5.15 -7.65 5.1 -7.65 5.05 -7.65 5.05 -7.65 5.0 -7.6 5.0 -7.6 4.95 -7.6 4.9 -7.6 4.9 -7.55 4.85 -7.55 4.8 -7.55 4.8 -7.55 4.75 -7.5 4.75 -7.45 4.75 -7.45 4.8 -7.4 4.8 -7.35 4.85 -7.35 4.9 -7.3 4.9 -7.3 4.95 -7.3 5.0 -7.25 5.05 -7.25 5.1 -7.25 5.15 -7.25 5.2 -7.25 5.2 -7.25 5.25 -7.25 5.65 -7.25 6.45 L-7.25 6.45" fill="#ffffff" fill-rule="evenodd" stroke="none"/>
      <path d="M-6.45 6.45 Q-6.65 6.45 -6.85 6.45 -6.85 6.25 -6.85 5.95 -6.85 5.65 -6.85 4.95 -6.85 4.9 -6.8 4.8 -6.75 4.75 -6.65 4.75 -7.25 4.05 -6.6 4.85 -6.55 4.85 -6.55 4.9 -6.5 4.95 -6.5 5.0 -6.45 5.0 -6.45 5.05 -6.45 5.55 -6.45 6.45 L-6.45 6.45" fill="#ffffff" fill-rule="evenodd" stroke="none"/>
      <path d="M6.8 6.45 Q6.6 6.45 6.4 6.45 6.4 6.4 6.4 6.35 6.4 5.95 6.4 5.05 6.4 5.0 6.4 4.95 6.4 4.9 6.45 4.9 6.55 4.8 6.5 4.8 6.5 4.8 6.5 4.75 6.5 4.8 6.55 4.8 6.65 4.9 6.6 4.9 6.6 4.9 6.6 4.95 6.6 5.0 6.6 5.05 6.6 5.1 6.6 5.15 6.65 5.2 6.65 5.3 6.7 5.4 6.7 5.45 6.75 5.55 6.75 5.65 6.8 5.7 6.8 5.8 6.8 5.9 6.8 5.95 6.8 6.05 6.8 6.15 6.8 6.2 6.8 6.3 6.8 6.35 6.8 6.45 L6.8 6.45" fill="#ffffff" fill-rule="evenodd" stroke="none"/>
      <path d="M6.8 3.05 Q6.6 3.05 6.4 3.05 6.45 1.95 6.5 1.55 6.5 1.5 6.55 1.5 6.55 1.45 6.6 1.45 6.7 1.4 6.65 1.4 6.7 1.4 6.7 1.35 6.8 1.45 6.8 1.45 6.85 1.5 6.9 1.55 6.9 1.75 6.9 2.25 6.9 2.3 6.85 2.35 6.85 2.35 6.85 2.4 6.85 2.45 6.85 2.5 6.85 2.55 6.85 2.6 6.8 2.65 6.8 2.7 6.8 2.75 6.8 2.85 6.8 2.9 6.8 2.95 6.8 2.95 6.8 3.05 L6.8 3.05" fill="#ffffff" fill-rule="evenodd" stroke="none"/>
      <path d="M-6.45 -0.45 Q-6.65 -0.45 -6.85 -0.45 -6.85 -0.95 -6.85 -1.85 -6.85 -1.9 -6.85 -1.95 -6.85 -1.95 -6.8 -2.0 -6.8 -2.0 -6.75 -2.05 -6.75 -2.05 -6.7 -2.0 -6.7 -1.95 -6.65 -1.95 -6.65 -1.9 -6.65 -1.85 -6.65 -1.85 -6.6 -1.8 -6.6 -1.75 -6.6 -1.7 -6.55 -1.7 -6.55 -1.65 -6.45 -1.35 -6.45 -0.45 L-6.45 -0.45" fill="#ffffff" fill-rule="evenodd" stroke="none"/>
      <path d="M6.0 -0.45 Q5.8 -0.45 5.6 -0.45 5.6 -0.95 5.6 -1.85 5.6 -1.9 5.6 -1.95 5.6 -2.0 5.65 -2.0 5.7 -2.1 5.7 -2.1 5.7 -2.1 5.7 -2.15 5.75 -2.1 5.8 -2.05 5.8 -2.0 5.8 -1.95 5.85 -1.95 5.85 -1.9 5.9 -1.85 5.9 -1.8 5.9 -1.8 5.9 -1.75 5.9 -1.7 5.95 -1.6 5.95 -1.55 5.95 -1.45 6.0 -1.35 6.0 -1.3 6.0 -1.2 6.0 -1.15 6.0 -1.05 6.0 -1.0 6.0 -0.9 6.0 -0.8 6.0 -0.75 6.0 -0.65 6.0 -0.55 6.0 -0.45 L6.0 -0.45" fill="#ffffff" fill-rule="evenodd" stroke="none"/>
      <path d="M-5.65 3.05 Q-5.85 3.05 -6.05 3.05 -6.05 2.95 -6.05 2.85 -6.05 2.75 -6.05 2.7 -6.05 2.6 -6.05 2.5 -6.05 2.4 -6.05 2.3 -6.05 2.2 -6.05 2.1 -6.05 2.0 -6.0 1.95 -6.0 1.85 -6.0 1.75 -6.0 1.65 -5.95 1.55 -5.95 1.55 -5.75 1.35 -5.75 1.4 -5.75 1.4 -5.75 1.4 -5.7 1.5 -5.65 1.5 -5.65 1.55 -5.65 1.6 -5.65 1.65 -5.65 1.7 -5.6 1.75 -5.6 1.85 -5.6 1.85 -5.55 1.9 -5.55 1.95 -5.55 2.0 -5.6 2.1 -5.6 2.15 -5.6 2.25 -5.65 2.3 -5.65 2.35 -5.65 2.45 -5.65 2.5 -5.65 2.55 -5.65 2.65 -5.65 2.7 -5.65 2.75 -5.65 2.85 -5.65 2.9 -5.65 2.95 -5.65 3.05 L-5.65 3.05" fill="#ffffff" fill-rule="evenodd" stroke="none"/>
      <path d="M-7.25 3.05 Q-7.45 3.05 -7.65 3.05 -7.65 2.55 -7.65 1.65 -7.65 1.6 -7.65 1.6 -7.65 1.55 -7.6 1.5 -7.6 1.45 -7.55 1.45 -7.5 1.4 -7.45 1.35 -7.25 1.6 -7.4 1.45 -7.35 1.45 -7.3 1.5 -7.3 1.55 -7.3 1.6 -7.25 1.6 -7.25 1.65 -7.25 2.15 -7.25 3.05 L-7.25 3.05" fill="#ffffff" fill-rule="evenodd" stroke="none"/>
      <path d="M-5.65 6.45 Q-5.85 6.45 -6.05 6.45 -6.05 6.35 -6.05 6.25 -6.05 6.15 -6.05 6.1 -6.05 6.0 -6.05 5.9 -6.05 5.8 -6.05 5.7 -6.05 5.6 -6.05 5.5 -6.05 5.4 -6.0 5.35 -6.0 5.25 -6.0 5.15 -6.0 5.05 -5.95 4.95 -5.95 4.95 -5.75 4.75 -5.75 4.8 -5.75 4.8 -5.75 4.8 -5.7 4.9 -5.65 4.9 -5.65 4.95 -5.65 5.0 -5.65 5.05 -5.65 5.1 -5.6 5.15 -5.6 5.25 -5.6 5.25 -5.55 5.3 -5.55 5.35 -5.55 5.4 -5.6 5.5 -5.6 5.55 -5.6 5.65 -5.65 5.7 -5.65 5.8 -5.65 5.85 -5.65 5.95 -5.65 6.0 -5.65 6.1 -5.65 6.15 -5.65 6.2 -5.65 6.25 -5.65 6.35 -5.65 6.35 -5.65 6.45 L-5.65 6.45" fill="#ffffff" fill-rule="evenodd" stroke="none"/>
      <path d="M7.6 -0.45 Q7.45 -0.45 7.3 -0.45 7.3 -0.45 7.3 -0.45 7.3 -0.85 7.3 -1.75 7.3 -1.8 7.3 -1.85 7.35 -1.9 7.35 -1.9 7.35 -1.9 7.4 -2.0 7.45 -2.0 7.45 -2.05 7.5 -2.05 7.5 -2.05 7.6 -1.95 7.7 -1.85 7.6 -1.45 7.6 -0.45 L7.6 -0.45" fill="#ffffff" fill-rule="evenodd" stroke="none"/>
      <path d="M-5.65 -0.45 Q-5.85 -0.45 -6.05 -0.45 -6.05 -0.55 -6.05 -0.65 -6.05 -0.75 -6.05 -0.8 -6.05 -0.9 -6.05 -1.0 -6.05 -1.1 -6.05 -1.2 -6.05 -1.3 -6.05 -1.4 -6.05 -1.5 -6.0 -1.55 -6.0 -1.65 -6.0 -1.75 -6.0 -1.85 -5.95 -1.95 -5.95 -2.0 -5.95 -2.05 -5.95 -2.05 -5.9 -2.15 -5.85 -2.15 -5.85 -2.15 -5.8 -2.15 -5.75 -2.05 -5.75 -2.0 -5.75 -1.95 -5.75 -1.95 -5.7 -1.9 -5.7 -1.85 -5.7 -1.8 -5.65 -1.7 -5.65 -1.65 -5.65 -1.35 -5.65 -0.45 L-5.65 -0.45" fill="#ffffff" fill-rule="evenodd" stroke="none"/>
      <path d="M6.8 -0.45 Q6.6 -0.45 6.4 -0.45 6.45 -1.55 6.5 -1.95 6.55 -2.0 6.6 -2.05 6.65 -2.1 6.7 -2.15 6.75 -2.1 6.8 -2.05 6.8 -2.0 6.8 -1.95 6.85 -1.95 6.85 -1.9 6.9 -1.85 6.9 -1.8 6.9 -1.8 6.9 -1.75 6.8 -1.35 6.8 -0.45 L6.8 -0.45" fill="#ffffff" fill-rule="evenodd" stroke="none"/>
      <path d="M-7.15 -0.45 Q-7.35 -0.45 -7.55 -0.45 -7.55 -0.5 -7.55 -0.55 -7.55 -0.55 -7.55 -0.65 -7.55 -0.95 -7.55 -1.65 -7.55 -1.7 -7.55 -1.75 -7.55 -1.75 -7.55 -1.85 -7.55 -1.9 -7.5 -2.0 -7.45 -2.05 -7.35 -2.05 -7.35 -2.05 -7.3 -2.05 -7.25 -2.0 -7.25 -1.95 -7.25 -1.85 -7.25 -1.75 -7.25 -1.65 -7.25 -1.55 -7.25 -1.5 -7.25 -1.4 -7.25 -1.3 -7.25 -1.2 -7.25 -1.1 -7.25 -1.0 -7.25 -0.9 -7.2 -0.8 -7.2 -0.75 -7.2 -0.65 -7.2 -0.55 -7.15 -0.45 L-7.15 -0.45" fill="#ffffff" fill-rule="evenodd" stroke="none"/>
    </g>
  
</svg>
