<?xml version="1.0" encoding="UTF-8" standalone="no"?>
<svg xmlns:xlink="http://www.w3.org/1999/xlink" height="15.65px" width="22.0px" xmlns="http://www.w3.org/2000/svg">
  <g transform="matrix(1.0, 0.0, 0.0, 1.0, 11.0, 7.8)">
    <use data-characterId="127" height="15.65" transform="matrix(1.0, 0.0, 0.0, 1.0, -11.0, -7.8)" width="22.0" xlink:href="#shape0"/>
  </g>
  
    <g id="shape0" transform="matrix(1.0, 0.0, 0.0, 1.0, 11.0, 7.8)">
      <path d="M6.0 3.65 Q6.15 3.65 6.3 3.7 6.45 3.7 6.55 3.75 6.65 3.8 6.75 3.9 6.85 4.0 6.9 4.1 7.0 4.2 7.05 4.35 7.1 4.45 7.15 4.6 7.2 4.75 7.2 4.9 7.25 5.05 7.3 5.25 7.35 5.45 7.35 5.6 7.3 5.8 7.25 6.0 7.25 6.15 7.15 6.3 7.05 6.5 6.95 6.65 6.8 6.8 6.65 6.9 6.55 7.05 6.35 7.1 6.2 7.2 6.0 7.25 5.8 7.35 5.6 7.35 5.4 7.35 5.25 7.35 5.05 7.3 4.85 7.25 4.7 7.2 4.5 7.1 4.35 7.05 4.2 6.9 4.05 6.8 3.95 6.65 3.8 6.5 3.75 6.35 3.65 6.2 3.6 6.0 3.5 5.85 3.5 5.65 3.55 5.3 3.6 4.95 2.2 4.95 -0.6 4.95 -0.55 5.05 -0.55 5.2 -0.5 5.3 -0.5 5.4 -0.5 5.55 -0.5 5.65 -0.45 5.75 -0.5 5.9 -0.5 6.0 -0.55 6.1 -0.55 6.25 -0.6 6.35 -0.65 6.45 -0.75 6.55 -0.8 6.65 -0.9 6.75 -0.95 6.8 -1.0 6.85 -1.05 6.9 -1.15 6.95 -1.2 7.0 -1.25 7.05 -1.3 7.1 -1.35 7.1 -1.45 7.15 -1.5 7.2 -1.6 7.25 -1.65 7.25 -1.75 7.3 -1.8 7.3 -1.9 7.35 -2.0 7.35 -2.15 7.4 -2.35 7.4 -2.5 7.4 -2.65 7.4 -2.85 7.35 -3.0 7.35 -3.15 7.3 -3.3 7.2 -3.45 7.15 -3.55 7.05 -3.7 7.0 -3.8 6.85 -3.95 6.75 -4.05 6.65 -4.15 6.5 -4.2 6.35 -4.25 6.2 -4.3 6.05 -4.35 5.9 -4.35 5.75 -4.4 5.6 -4.35 5.4 -4.35 5.25 -4.3 5.1 -4.25 4.95 -4.2 4.8 -4.1 4.7 -4.0 4.55 -3.9 4.4 -3.8 4.3 -3.65 4.15 -3.5 4.05 -3.65 3.35 -4.0 2.0 -4.35 0.6 -4.5 -0.1 -4.7 -1.0 -5.15 -2.95 -5.6 -4.8 -5.8 -5.8 -5.8 -5.85 -5.85 -5.9 -5.85 -5.95 -5.9 -6.0 -5.9 -6.0 -5.95 -6.05 -6.0 -6.1 -6.0 -6.1 -6.05 -6.15 -6.1 -6.15 -6.15 -6.15 -6.2 -6.15 -6.25 -6.2 -6.3 -6.2 -6.35 -6.2 -6.4 -6.2 -7.0 -6.2 -8.3 -6.2 -8.35 -6.2 -8.45 -6.2 -8.5 -6.2 -8.6 -6.25 -8.65 -6.25 -8.7 -6.3 -8.75 -6.3 -8.8 -6.35 -8.85 -6.35 -8.9 -6.4 -8.9 -6.45 -8.95 -6.5 -8.95 -6.55 -9.0 -6.6 -9.0 -6.65 -9.0 -6.7 -9.0 -6.75 -9.0 -6.8 -8.95 -6.85 -8.95 -6.9 -8.9 -6.95 -8.9 -7.0 -8.85 -7.05 -8.8 -7.1 -8.75 -7.15 -8.7 -7.2 -8.65 -7.2 -8.6 -7.25 -8.5 -7.25 -8.45 -7.3 -8.35 -7.3 -8.3 -7.3 -7.7 -7.3 -6.4 -7.3 -6.25 -7.3 -6.1 -7.3 -5.9 -7.25 -5.8 -7.2 -5.65 -7.15 -5.5 -7.1 -5.4 -7.05 -5.3 -6.95 -5.2 -6.85 -5.1 -6.75 -5.0 -6.65 -4.9 -6.55 -4.85 -6.4 -4.8 -6.3 -4.75 -6.15 -4.7 -6.0 -4.65 -5.9 -4.65 -5.9 -4.65 -5.8 -4.65 -5.75 -4.6 -5.7 -4.6 -5.65 -4.6 -5.6 -4.55 -5.55 -4.55 -5.5 -4.55 -5.45 -4.55 -5.35 -4.5 -5.3 -4.5 -5.25 -4.5 -5.2 -4.5 -5.15 -4.5 -5.1 -4.5 -5.05 -4.5 -5.0 -4.5 -4.95 -4.45 -4.95 -4.45 -4.9 -4.4 -4.9 -4.35 -4.9 -4.3 -4.9 -4.3 -4.9 -4.2 -4.9 -2.8 -4.9 0.0 -4.9 2.6 -4.9 7.9 -4.9 8.0 -4.9 8.1 -4.9 8.15 -4.85 8.25 -4.85 8.3 -4.8 8.35 -4.75 8.45 -4.75 8.5 -4.7 8.5 -4.65 8.55 -4.55 8.6 -4.5 8.6 -4.45 8.6 -4.35 8.6 -4.25 8.6 -4.2 8.6 -4.1 7.75 -0.5 7.0 2.15 7.0 2.2 6.95 2.3 6.95 2.35 6.9 2.4 6.9 2.45 6.85 2.45 6.8 2.5 6.75 2.55 6.7 2.55 6.65 2.6 6.6 2.6 6.55 2.6 6.5 2.6 6.45 2.65 6.4 2.65 6.3 2.65 L6.0 3.65 6.0 3.65 Z" fill="none" stroke="#ffffff" stroke-linecap="round" stroke-linejoin="round" stroke-width="0.75"/>
    </g>
  
</svg>
