<?xml version="1.0" encoding="UTF-8" standalone="no"?>
<svg xmlns:xlink="http://www.w3.org/1999/xlink" height="22.0px" width="22.3px" xmlns="http://www.w3.org/2000/svg">
  <g transform="matrix(1.0, 0.0, 0.0, 1.0, 11.15, 11.0)">
    <use data-characterId="65" height="22.0" transform="matrix(1.0, 0.0, 0.0, 1.0, -11.15, -11.0)" width="22.3" xlink:href="#shape0"/>
  </g>
  
    <g id="shape0" transform="matrix(1.0, 0.0, 0.0, 1.0, 11.15, 11.0)">
      <path d="M-1.35 -3.2 Q-1.6 -3.2 -1.85 -3.2 -4.5 -3.2 -7.15 -3.2 -7.25 -3.2 -7.3 -3.2 -7.35 -3.2 -7.4 -3.2 -7.45 -3.25 -7.5 -3.25 -7.55 -3.25 -7.6 -3.3 -7.65 -3.35 -7.65 -3.35 -7.7 -3.4 -7.7 -3.45 -7.75 -3.5 -7.75 -3.55 -7.75 -3.65 -7.75 -3.7 -7.75 -4.65 -7.7 -4.75 -7.6 -4.8 -6.65 -4.8 -4.0 -4.8 -1.35 -4.8 -1.3 -4.9 -1.3 -5.0 -1.25 -5.1 -1.25 -5.2 -1.25 -5.3 -1.25 -5.35 -1.2 -5.45 -1.25 -5.5 -1.25 -5.6 -1.3 -5.65 -1.3 -5.75 -1.35 -5.8 -1.4 -5.9 -1.5 -5.95 -1.55 -6.0 -1.65 -6.1 -1.8 -6.2 -1.95 -6.35 -2.1 -6.5 -2.2 -6.65 -2.3 -6.8 -2.4 -7.0 -2.5 -7.15 -2.55 -7.35 -2.6 -7.55 -2.6 -7.75 -2.65 -7.95 -2.6 -8.1 -2.6 -8.3 -2.55 -8.5 -2.5 -8.7 -2.45 -8.9 -2.4 -9.1 -2.25 -9.25 -2.15 -9.45 -2.05 -9.6 -1.9 -9.75 -1.75 -9.9 -1.65 -10.0 -1.45 -10.1 -1.3 -10.25 -1.1 -10.35 -0.95 -10.4 -0.75 -10.45 -0.55 -10.55 -0.35 -10.55 -0.15 -10.6 0.05 -10.6 0.25 -10.6 0.45 -10.55 0.65 -10.55 0.85 -10.45 1.05 -10.4 1.2 -10.3 1.4 -10.2 1.55 -10.05 1.7 -9.95 1.85 -9.8 2.0 -9.65 2.1 -9.5 2.2 -9.35 2.3 -9.15 2.4 -9.0 2.45 -8.8 2.5 -8.6 2.55 -8.4 2.55 -8.2 2.55 -8.0 2.55 -7.85 2.55 -7.65 2.5 -7.45 2.45 -7.25 2.4 -7.05 2.3 -6.9 2.2 -6.7 2.05 -6.55 1.95 -6.4 1.8 -6.25 1.65 -6.1 1.45 -6.0 1.35 -5.95 1.3 -5.9 1.25 -5.8 1.2 -5.75 1.15 -5.7 1.15 -5.65 1.1 -5.55 1.1 -5.5 1.1 -5.4 1.1 -5.35 1.1 -5.3 1.15 -5.2 1.15 -5.1 1.15 -5.05 1.15 -4.95 1.15 -4.9 1.4 -4.9 1.65 -4.9 4.35 -4.9 7.05 -4.9 7.15 -4.9 7.2 -4.9 7.25 -4.9 7.3 -4.9 7.35 -4.85 7.4 -4.85 7.45 -4.8 7.5 -4.8 7.55 -4.75 7.55 -4.7 7.6 -4.65 7.6 -4.6 7.65 -4.55 7.65 -4.45 7.65 -4.4 7.65 -4.3 7.65 -4.05 7.65 -3.95 7.65 -3.75 7.65 -3.65 7.6 -3.55 7.6 -3.45 7.55 -3.4 7.5 -3.35 7.45 -3.3 7.4 -3.25 7.3 -3.25 7.2 -3.2 7.1 -3.2 6.9 -3.2 6.8 -3.2 6.55 -3.2 3.9 -3.2 1.25 -3.2 1.25 -2.9 1.25 -2.6 1.35 1.65 1.45 5.9 1.45 6.05 1.45 6.2 1.5 6.3 1.55 6.4 1.6 6.55 1.65 6.6 1.7 6.7 1.8 6.75 1.85 6.8 1.95 6.85 2.05 6.9 2.15 6.9 2.3 6.9 2.4 6.9 2.5 6.85 2.65 6.8 2.8 6.75 2.9 6.7 3.05 6.65 3.15 6.6 3.3 6.55 3.45 6.5 3.55 6.45 3.7 6.35 3.8 6.3 3.95 6.25 4.05 6.15 4.2 6.1 4.3 6.05 4.4 5.95 4.55 5.9 4.65 5.8 4.8 5.7 4.9 5.6 5.0 5.5 5.05 5.4 5.1 5.3 5.15 5.15 5.2 5.05 5.2 4.9 5.2 4.8 5.15 4.7 5.15 4.55 5.1 4.4 5.05 4.3 4.95 4.15 4.85 4.05 4.75 3.9 4.65 3.8 4.65 3.8 4.65 3.75 4.65 3.7 4.75 3.6 4.85 3.5 5.15 3.4 5.4 3.3 5.65 3.15 5.9 3.0 6.15 2.9 6.4 2.7 6.6 2.55 6.85 2.35 7.05 2.2 7.25 2.0 7.45 1.8 7.7 1.55 7.85 1.35 8.05 1.15 8.25 0.95 8.45 0.7 8.55 0.6 8.6 0.55 8.65 0.5 8.7 0.5 8.75 0.45 8.8 0.4 8.85 0.4 8.85 0.4 8.9 0.4 8.95 0.45 9.0 0.45 9.0 0.5 9.05 0.55 9.1 0.65 9.1 0.7 9.15 0.8 9.2 1.0 9.25 1.2 9.3 1.4 9.35 1.65 9.35 1.85 9.35 2.05 9.35 2.25 9.35 2.45 9.35 2.65 9.3 2.85 9.25 3.05 9.2 3.25 9.15 3.45 9.1 3.7 9.05 3.9 8.95 4.1 8.55 4.95 8.15 5.8 8.15 5.85 8.1 5.85 8.1 5.9 8.05 5.95 8.05 5.95 8.05 6.0 8.0 6.0 7.95 6.0 7.95 6.05 7.9 6.05 7.9 6.05 7.85 6.05 7.8 6.05 7.75 6.05 7.7 6.0 7.65 6.0 7.6 5.95 7.55 5.95 7.5 5.9 7.45 5.9 7.4 5.9 7.35 5.9 7.3 5.9 7.25 5.9 7.2 5.95 7.2 5.95 7.15 6.0 7.1 6.0 7.05 6.05 7.05 6.1 7.0 6.15 6.95 6.2 6.75 6.5 6.5 6.8 6.25 7.1 5.95 7.35 5.7 7.65 5.45 7.85 5.15 8.1 4.85 8.3 4.55 8.55 4.25 8.75 3.9 8.9 3.55 9.1 3.25 9.25 2.9 9.4 2.55 9.55 2.15 9.7 2.0 9.75 1.9 9.8 1.75 9.85 1.6 9.9 1.5 9.95 1.35 10.0 1.25 10.05 1.1 10.1 1.0 10.15 0.85 10.25 0.55 10.35 0.55 10.35 0.4 10.45 0.3 10.5 0.15 10.55 0.05 10.6 -0.1 10.6 -0.25 10.6 -1.65 9.9 -1.95 9.8 -2.35 9.65 -2.7 9.5 -3.1 9.35 -3.45 9.2 -3.85 9.0 -4.2 8.85 -4.55 8.65 -4.85 8.4 -5.2 8.2 -5.5 7.95 -5.8 7.7 -6.1 7.4 -6.4 7.15 -6.65 6.85 -6.9 6.55 -7.15 6.2 -7.15 6.15 -7.2 6.15 -7.2 6.1 -7.25 6.1 -7.25 6.05 -7.3 6.05 -7.35 6.05 -7.35 6.05 -7.4 6.05 -7.45 6.05 -7.45 6.05 -7.5 6.05 -7.55 6.05 -7.6 6.05 -7.6 6.1 -7.65 6.1 -7.7 6.1 -7.7 6.1 -7.75 6.1 -7.8 6.1 -7.85 6.1 -7.9 6.1 -7.95 6.05 -8.0 6.05 -8.0 6.05 -8.05 6.0 -8.2 5.7 -8.3 5.5 -8.45 5.25 -8.55 5.0 -8.7 4.75 -8.8 4.55 -8.9 4.25 -9.0 4.05 -9.1 3.75 -9.15 3.5 -9.25 3.25 -9.3 3.0 -9.35 2.7 -9.35 2.45 -9.35 2.2 -9.35 1.9 -9.35 1.7 -9.15 0.9 -9.1 0.8 -9.1 0.7 -9.05 0.6 -9.0 0.55 -9.0 0.5 -8.95 0.45 -8.9 0.45 -8.85 0.45 -8.85 0.4 -8.8 0.45 -8.75 0.45 -8.7 0.5 -8.65 0.5 -8.6 0.55 -8.55 0.6 -8.45 0.7 -6.9 2.25 -6.55 2.5 -5.75 3.0 -4.95 3.5 -4.95 3.5 -4.55 3.7 -4.7 3.95 -4.85 4.1 -4.95 4.3 -5.0 4.5 -5.1 4.7 -5.1 4.85 -5.1 5.0 -5.1 5.15 -5.05 5.3 -4.95 5.4 -4.9 5.55 -4.75 5.7 -4.65 5.8 -4.45 5.95 -4.3 6.05 -4.05 6.2 -3.95 6.25 -3.9 6.25 -3.8 6.3 -3.75 6.35 -3.65 6.4 -3.6 6.4 -3.5 6.45 -3.45 6.5 -3.35 6.5 -3.3 6.55 -3.2 6.6 -3.15 6.6 -3.05 6.65 -3.0 6.65 -2.9 6.7 -2.85 6.7 -2.7 6.75 -2.55 6.8 -2.4 6.8 -2.25 6.8 -2.1 6.8 -2.0 6.75 -1.9 6.7 -1.8 6.65 -1.7 6.6 -1.65 6.5 -1.6 6.4 -1.55 6.3 -1.5 6.15 -1.45 6.0 -1.45 5.85 -1.45 5.7 -1.4 3.8 -1.35 1.9 -1.35 -0.65 -1.35 -3.2 L-1.35 -3.2 M0.05 -7.4 Q0.1 -7.4 0.2 -7.4 0.25 -7.45 0.3 -7.45 0.35 -7.5 0.4 -7.5 0.45 -7.55 0.5 -7.6 0.55 -7.65 0.55 -7.7 0.6 -7.75 0.6 -7.8 0.65 -7.9 0.65 -7.95 0.65 -8.0 0.65 -8.1 0.65 -8.15 0.65 -8.25 0.6 -8.3 0.6 -8.35 0.55 -8.4 0.55 -8.45 0.5 -8.5 0.45 -8.55 0.4 -8.6 0.35 -8.6 0.3 -8.65 0.25 -8.65 0.15 -8.7 0.1 -8.7 0.05 -8.7 -0.05 -8.7 -0.1 -8.7 -0.2 -8.7 -0.25 -8.65 -0.3 -8.65 -0.35 -8.6 -0.4 -8.6 -0.45 -8.55 -0.5 -8.5 -0.55 -8.45 -0.55 -8.4 -0.6 -8.35 -0.6 -8.3 -0.65 -8.25 -0.65 -8.2 -0.65 -8.15 -0.65 -8.1 -0.65 -8.05 -0.65 -7.95 -0.6 -7.9 -0.6 -7.8 -0.55 -7.75 -0.55 -7.7 -0.5 -7.65 -0.45 -7.6 -0.4 -7.55 -0.35 -7.5 -0.3 -7.5 -0.25 -7.45 -0.15 -7.45 -0.1 -7.4 0.0 -7.4 0.05 -7.4 L0.05 -7.4" fill="#ffffff" fill-rule="evenodd" stroke="none"/>
    </g>
  
</svg>
