<?xml version="1.0" encoding="UTF-8" standalone="no"?>
<svg xmlns:xlink="http://www.w3.org/1999/xlink" height="32.1px" width="31.95px" xmlns="http://www.w3.org/2000/svg">
  <g transform="matrix(1.0, 0.0, 0.0, 1.0, 15.95, 16.05)">
    <use data-characterId="166" height="32.1" transform="matrix(1.0, 0.0, 0.0, 1.0, -15.95, -16.05)" width="31.95" xlink:href="#shape0"/>
  </g>
  
    <g id="shape0" transform="matrix(1.0, 0.0, 0.0, 1.0, 15.95, 16.05)">
      <path d="M1.3 -5.05 Q1.3 -5.0 1.3 -4.95 1.3 -4.9 1.3 -4.9 1.3 -4.85 1.35 -4.8 1.35 -4.8 1.35 -4.75 1.35 -4.75 1.35 -4.7 1.4 -4.65 1.4 -4.65 1.4 -4.6 1.4 -4.6 1.4 -4.55 1.4 -4.5 1.4 -4.5 1.4 -4.45 L1.4 -4.35 1.4 -4.25 Q1.4 -4.25 1.5 -4.15 1.55 -4.05 1.55 -4.05 1.6 -3.95 1.65 -3.9 1.7 -3.85 1.75 -3.85 1.8 -3.8 1.8 -3.75 1.85 -3.7 1.9 -3.65 1.95 -3.6 2.0 -3.6 2.05 -3.55 2.1 -3.55 L2.1 -3.55 2.2 -3.55 Q2.4 -3.5 2.45 -3.5 2.6 -3.45 2.75 -3.4 2.9 -3.35 3.0 -3.35 3.15 -3.3 3.25 -3.3 3.4 -3.25 3.55 -3.2 3.65 -3.2 3.8 -3.2 3.95 -3.15 4.05 -3.15 4.2 -3.15 4.3 -3.15 4.15 -3.1 4.05 -3.1 3.9 -3.05 3.8 -3.0 3.65 -3.0 3.55 -2.95 3.4 -2.95 3.3 -2.95 3.15 -2.9 3.05 -2.9 2.9 -2.9 2.8 -2.85 2.65 -2.85 2.55 -2.85 2.45 -2.85 2.3 -2.85 2.2 -2.85 2.15 -2.85 2.05 -2.85 2.0 -2.8 1.9 -2.8 1.85 -2.75 1.8 -2.75 1.7 -2.7 1.65 -2.7 1.6 -2.65 1.55 -2.6 1.55 -2.55 1.5 -2.5 1.45 -2.45 1.45 -2.4 1.4 -2.35 1.35 -2.3 1.3 -2.2 1.2 -2.15 1.15 -2.1 1.1 -2.05 1.0 -2.0 0.9 -1.95 0.85 -1.9 0.75 -1.85 0.65 -1.8 0.55 -1.8 0.45 -1.75 0.35 -1.7 0.25 -1.7 0.15 -1.65 0.05 -1.65 -0.1 -1.6 -0.4 -1.55 -0.7 -1.5 -0.85 -1.45 -1.25 -1.4 -1.65 -1.35 L-2.95 -0.95 -1.95 0.05 -1.75 0.25 Q-0.6 1.45 0.2 2.15 1.85 3.75 2.1 4.05 2.3 4.25 2.5 4.45 2.7 4.65 2.9 4.9 3.05 5.1 3.25 5.3 3.4 5.5 3.55 5.7 3.7 5.95 3.85 6.15 4.0 6.4 4.15 6.6 4.25 6.85 4.4 7.05 4.5 7.3 4.6 7.55 5.0 8.55 5.0 8.65 L1.5 8.75 0.4 8.75 Q0.35 8.6 0.25 8.45 0.2 8.3 0.1 8.2 0.05 8.05 -0.05 7.9 -0.1 7.8 -0.2 7.7 -0.25 7.55 -0.35 7.45 -0.45 7.3 -0.5 7.2 -0.6 7.1 -0.7 7.0 -0.8 6.85 -0.85 6.75 -1.35 6.05 -1.55 5.85 L-1.55 5.85 -1.55 5.85 -3.45 2.95 Q-3.6 2.75 -3.8 2.55 -3.95 2.3 -4.1 2.1 -4.25 1.9 -4.4 1.7 -4.55 1.45 -4.7 1.25 -4.85 1.05 -5.0 0.8 -5.1 0.6 -5.25 0.4 -5.35 0.2 -5.45 -0.05 -5.55 -0.25 -5.65 -0.45 -5.75 -0.7 -5.8 -0.95 -5.9 -1.2 -5.9 -1.45 -5.95 -1.7 -6.0 -1.95 -6.0 -2.2 -6.0 -2.45 -5.95 -2.7 -5.9 -2.9 -5.9 -3.15 -5.8 -3.4 -5.75 -3.6 -5.65 -3.85 -5.6 -4.1 -5.45 -4.35 L-4.75 -4.35 Q-4.65 -4.35 -4.55 -4.35 -4.5 -4.35 -4.4 -4.35 -4.3 -4.4 -4.2 -4.4 -4.15 -4.4 -4.05 -4.4 -4.0 -4.45 -3.9 -4.45 -3.85 -4.45 -3.75 -4.5 -3.7 -4.5 -3.65 -4.5 -3.6 -4.55 -3.55 -4.55 -3.5 -4.55 -3.5 -4.6 -3.45 -4.6 -3.4 -4.6 -3.4 -4.6 -3.35 -4.65 -3.3 -4.65 -3.25 -4.65 -3.25 -4.65 -3.2 -4.65 -3.15 -4.65 -3.1 -4.65 -3.1 -4.65 -3.05 -4.65 -3.0 -4.65 -2.95 -4.65 -2.75 -4.65 -2.55 -4.65 -2.3 -4.65 -2.05 -4.65 L-1.25 -4.65 Q-1.15 -4.65 -1.05 -4.65 -1.0 -4.65 -0.9 -4.65 -0.8 -4.7 -0.7 -4.7 -0.6 -4.7 -0.55 -4.7 -0.45 -4.75 -0.35 -4.75 -0.3 -4.75 -0.2 -4.8 -0.1 -4.8 -0.05 -4.8 0.05 -4.85 0.1 -4.85 0.45 -4.9 0.8 -4.95 L0.9 -4.95 1.0 -4.95 Q1.0 -4.95 1.05 -4.95 1.05 -4.95 1.1 -4.95 1.15 -4.95 1.15 -4.95 1.2 -5.0 1.25 -5.0 1.3 -5.0 1.3 -5.05 M1.7 -5.85 Q1.55 -5.8 1.2 -5.75 0.85 -5.7 0.7 -5.65 0.6 -5.65 0.45 -5.6 0.35 -5.6 0.2 -5.55 0.15 -5.55 -0.05 -5.5 -0.2 -5.5 -0.3 -5.45 -0.4 -5.45 -0.5 -5.4 -0.65 -5.4 -0.75 -5.4 -0.9 -5.35 -1.0 -5.35 -1.15 -5.35 -1.25 -5.35 -1.65 -5.35 -2.05 -5.35 -2.5 -5.35 -2.95 -5.35 -3.05 -5.35 -3.05 -5.35 -3.15 -5.35 -3.2 -5.35 -3.25 -5.35 -3.3 -5.35 -3.35 -5.35 -3.4 -5.35 -3.45 -5.35 -3.5 -5.35 -3.55 -5.3 -3.6 -5.3 -3.65 -5.3 -3.7 -5.3 -3.75 -5.25 -3.75 -5.25 -3.8 -5.25 -3.85 -5.2 -3.95 -5.2 -4.0 -5.2 -4.05 -5.15 -4.15 -5.15 -4.2 -5.15 -4.25 -5.1 -4.35 -5.1 -4.4 -5.1 -4.45 -5.1 -4.55 -5.05 -4.6 -5.05 -4.65 -5.05 -4.7 -5.05 -4.75 -5.05 -5.35 -5.05 -5.95 -5.05 -6.0 -5.0 -6.05 -4.95 -6.05 -4.95 -6.05 -4.9 -6.05 -4.85 -6.05 -4.75 -6.2 -4.45 -6.3 -4.2 -6.45 -3.9 -6.55 -3.6 -6.6 -3.35 -6.65 -3.05 -6.7 -2.75 -6.75 -2.5 -6.75 -2.2 -6.75 -1.9 -6.75 -1.6 -6.7 -1.35 -6.65 -1.05 -6.55 -0.75 -6.5 -0.45 -6.35 -0.15 -6.25 0.1 -6.1 0.35 -6.0 0.55 -5.85 0.8 -5.75 1.05 -5.6 1.25 -5.45 1.5 -5.35 1.75 -5.2 1.95 -5.05 2.15 -4.9 2.4 -4.7 2.6 -4.55 2.8 -4.4 3.05 -4.25 3.25 -4.05 3.45 -3.35 4.35 -1.95 6.15 -1.8 6.35 -1.65 6.6 -1.55 6.75 -1.4 6.95 -0.6 8.05 -1.1 7.35 -0.95 7.55 -0.85 7.7 -0.7 7.9 -0.6 8.1 -0.5 8.3 -0.4 8.45 -0.25 8.7 -0.15 8.9 -0.05 9.1 0.0 9.35 0.0 9.4 0.1 9.45 0.1 9.45 0.2 9.45 0.9 9.45 1.6 9.45 L5.7 9.35 Q5.95 9.3 6.0 9.25 6.05 9.25 6.05 9.15 6.05 9.1 6.0 8.95 5.7 7.9 5.4 7.25 5.25 7.0 5.15 6.75 5.0 6.5 4.85 6.25 4.7 6.0 4.55 5.75 4.4 5.5 4.2 5.3 4.05 5.05 3.85 4.85 3.7 4.6 3.5 4.4 3.3 4.2 3.1 3.95 2.95 3.75 2.7 3.55 2.0 2.85 0.75 1.65 -0.6 0.35 -1.15 -0.25 -1.25 -0.3 -1.25 -0.35 -1.3 -0.35 -1.35 -0.45 -1.1 -0.5 -0.5 -0.6 0.0 -0.7 0.3 -0.75 0.45 -0.75 0.6 -0.8 0.75 -0.85 0.9 -0.85 1.05 -0.9 1.15 -0.95 1.3 -1.0 1.45 -1.05 1.55 -1.15 1.7 -1.2 1.8 -1.3 1.9 -1.4 2.0 -1.5 2.1 -1.6 2.25 -1.7 2.3 -1.85 2.3 -1.9 2.4 -1.95 2.4 -1.95 2.5 -1.95 2.8 -1.95 3.05 -2.0 3.35 -2.05 3.6 -2.1 3.9 -2.1 4.15 -2.2 4.4 -2.25 4.7 -2.3 4.95 -2.35 5.2 -2.45 5.45 -2.5 5.7 -2.6 5.95 -2.7 6.2 -2.75 6.45 -2.85 6.7 -2.95 6.8 -3.0 6.9 -3.05 6.95 -3.05 6.95 -3.1 7.0 -3.1 7.05 -3.15 7.05 -3.15 7.1 -3.2 7.1 -3.25 7.1 -3.25 7.15 -3.3 7.15 -3.35 7.15 -3.4 7.15 -3.45 7.15 -3.5 7.15 -3.55 7.15 -3.6 7.1 -3.65 7.1 -3.7 7.05 -3.7 7.05 -3.75 7.0 -3.8 7.0 -3.8 6.95 -3.85 6.9 -3.85 6.9 -3.85 6.85 -3.9 6.8 -3.9 6.75 -3.9 6.7 -3.95 6.65 -3.95 6.6 -3.95 6.55 -3.95 6.5 -3.95 6.35 -3.95 6.2 -3.95 6.15 -3.95 6.1 -3.9 6.05 -3.9 6.0 -3.9 5.95 -3.85 5.85 -3.85 5.8 -3.85 5.75 -3.8 5.7 -3.8 5.65 -3.8 5.6 -3.8 5.55 -3.75 5.5 -3.75 5.45 -3.75 5.35 -3.75 5.3 -3.75 5.15 -3.75 4.95 -3.75 4.8 -3.75 4.65 -3.75 4.45 -3.8 4.3 -3.8 4.15 -3.8 3.95 -3.85 3.8 -3.85 3.65 -3.9 3.45 -3.9 3.3 -3.95 3.1 -4.0 2.95 -4.05 2.8 -4.1 2.6 -4.15 2.55 -4.15 2.55 -4.2 2.5 -4.2 2.5 -4.25 2.45 -4.25 2.45 -4.25 2.4 -4.3 2.4 -4.3 2.35 -4.35 2.35 -4.35 2.3 -4.4 2.3 -4.4 2.3 -4.45 2.25 -4.5 2.25 -4.5 2.2 -4.55 2.15 -4.8 2.05 -5.1 1.95 -5.6 1.9 -5.65 1.9 -5.7 1.85 -5.8 1.8 -5.85 1.7 -5.85 L1.7 -5.85 1.7 -5.85 M-5.95 -5.05 Q-6.0 -5.05 -6.05 -5.05 -6.0 -5.05 -5.95 -5.05 -5.95 -5.05 -5.95 -5.05 L-5.95 -5.05 -5.95 -5.05" fill="#ffffff" fill-rule="evenodd" stroke="none"/>
      <path d="M-1.85 -8.55 Q-1.8 -8.55 -1.75 -8.55 -1.75 -8.55 -1.65 -8.45 -1.55 -8.4 -1.45 -8.35 -1.4 -8.3 -1.35 -8.3 -1.35 -8.3 -1.3 -8.25 -1.25 -8.25 -1.2 -8.2 -1.15 -8.2 -1.15 -8.15 L-1.05 -8.05 -0.95 -8.05 0.2 -7.45 Q0.25 -7.45 0.3 -7.4 0.35 -7.4 0.4 -7.35 0.45 -7.35 0.5 -7.3 0.55 -7.25 0.6 -7.2 0.65 -7.2 0.7 -7.15 0.75 -7.1 0.8 -7.05 0.85 -7.0 0.9 -6.95 0.95 -6.9 1.0 -6.85 0.95 -6.85 0.85 -6.8 0.8 -6.8 0.7 -6.8 0.65 -6.8 0.55 -6.75 0.5 -6.75 0.45 -6.75 0.35 -6.75 0.3 -6.75 0.25 -6.75 0.15 -6.75 0.1 -6.75 0.05 -6.75 0.0 -6.75 -0.05 -6.75 -0.35 -6.75 -1.55 -6.55 L-1.85 -6.55 Q-1.85 -6.75 -1.85 -7.15 -1.9 -8.4 -1.85 -8.55 M-2.15 -9.45 Q-2.25 -9.45 -2.25 -9.45 -2.3 -9.4 -2.35 -9.35 -2.35 -9.35 -2.4 -9.3 -2.4 -9.3 -2.45 -9.25 -2.45 -9.25 -2.45 -9.2 -2.5 -9.15 -2.5 -9.15 -2.5 -9.1 -2.55 -9.05 -2.55 -9.05 -2.55 -9.0 -2.55 -8.95 -2.55 -8.9 -2.55 -8.9 -2.55 -8.85 -2.55 -8.75 -2.6 -8.65 -2.6 -8.5 -2.6 -8.4 -2.65 -8.3 -2.65 -8.2 -2.65 -8.1 -2.65 -8.0 -2.65 -7.9 -2.65 -7.8 -2.65 -7.7 -2.65 -7.6 -2.65 -7.5 -2.65 -7.35 -2.65 -7.3 -2.65 -7.15 -2.65 -7.1 -2.65 -7.05 -2.65 -6.95 -2.65 -6.9 -2.65 -6.85 -2.65 -6.8 -2.65 -6.7 -2.65 -6.65 -2.65 -6.6 -2.65 -6.5 -2.65 -6.45 -2.65 -6.4 -2.6 -6.35 -2.6 -6.25 -2.6 -6.2 -2.55 -6.15 -2.55 -6.15 -2.55 -6.1 -2.55 -6.1 -2.55 -6.05 -2.55 -6.0 -2.55 -6.0 -2.55 -5.95 -2.55 -5.9 -2.55 -5.9 -2.5 -5.85 -2.5 -5.8 -2.5 -5.8 -2.45 -5.8 -2.45 -5.75 -2.4 -5.75 -2.35 -5.75 -1.9 -5.75 -1.45 -5.75 -1.4 -5.75 -1.3 -5.8 -1.2 -5.8 -1.15 -5.8 -1.05 -5.85 -1.0 -5.85 -0.9 -5.85 -0.8 -5.9 -0.7 -5.9 -0.65 -5.9 -0.55 -5.9 -0.45 -5.95 -0.35 -5.95 -0.25 -5.95 -0.15 -5.95 -0.05 -5.95 0.05 -5.95 1.8 -6.25 1.85 -6.25 1.9 -6.3 1.95 -6.3 1.95 -6.35 2.0 -6.35 2.0 -6.4 2.05 -6.4 2.05 -6.4 2.05 -6.45 2.1 -6.45 2.1 -6.45 2.1 -6.45 2.15 -6.45 2.2 -6.45 2.15 -6.5 2.15 -6.55 2.1 -6.6 2.05 -6.65 2.05 -6.75 2.0 -6.8 1.95 -6.85 1.9 -6.9 1.9 -6.95 1.85 -7.0 1.8 -7.05 1.75 -7.1 1.75 -7.15 1.7 -7.15 1.65 -7.2 1.6 -7.25 1.55 -7.3 1.5 -7.4 1.45 -7.45 1.35 -7.55 1.3 -7.6 1.25 -7.65 1.2 -7.7 1.1 -7.75 1.05 -7.85 0.95 -7.9 0.9 -7.95 0.8 -8.0 0.75 -8.05 0.65 -8.05 0.6 -8.1 0.5 -8.15 0.1 -8.35 -0.65 -8.75 -0.75 -8.85 -1.35 -9.15 -1.45 -9.2 -1.7 -9.3 -1.95 -9.4 -2.05 -9.45 -2.1 -9.45 -2.15 -9.45 L-2.15 -9.45 -2.15 -9.45" fill="#ffffff" fill-rule="evenodd" stroke="none"/>
      <path d="M-3.65 -8.55 Q-3.65 -8.4 -3.7 -8.3 -3.7 -8.15 -3.7 -8.0 -3.75 -7.9 -3.75 -7.75 -3.75 -7.65 -3.75 -7.5 -3.75 -7.35 -3.7 -7.25 -3.7 -7.1 -3.7 -6.95 -3.65 -6.85 -3.65 -6.7 -3.6 -6.6 -3.55 -6.45 L-4.45 -6.45 -5.25 -6.45 -5.25 -6.15 -5.45 -6.15 Q-5.45 -6.15 -5.45 -6.15 -5.45 -6.15 -5.45 -6.15 -5.45 -6.2 -5.5 -6.2 -5.55 -6.3 -5.55 -6.3 -5.55 -6.3 -5.55 -6.35 -5.55 -6.4 -5.55 -6.45 -5.55 -6.5 -5.55 -6.5 -5.55 -6.55 -5.55 -6.6 -5.55 -6.7 -5.5 -6.75 -5.5 -6.8 -5.45 -6.85 -5.45 -6.95 -5.4 -7.0 -5.35 -7.1 -5.3 -7.15 -5.25 -7.25 -5.15 -7.35 -5.1 -7.45 -5.05 -7.5 -5.05 -7.6 -5.0 -7.65 -4.95 -7.75 -4.85 -7.8 -4.8 -7.85 -4.75 -7.9 -4.7 -8.0 -4.6 -8.05 -4.55 -8.1 -4.45 -8.15 -4.6 -8.05 -4.3 -8.25 -4.25 -8.3 -4.15 -8.35 -4.1 -8.35 -4.1 -8.4 -4.05 -8.4 -4.05 -8.4 -4.0 -8.4 -3.95 -8.45 -3.95 -8.45 -3.9 -8.45 -3.85 -8.45 -3.85 -8.45 -3.85 -8.5 -3.8 -8.5 -3.75 -8.5 -3.75 -8.5 -3.7 -8.55 -3.65 -8.55 M-2.75 -9.65 Q-3.05 -9.55 -3.65 -9.35 -3.7 -9.35 -3.75 -9.3 -3.85 -9.3 -3.9 -9.25 -3.95 -9.25 -4.0 -9.25 -4.05 -9.2 -4.1 -9.2 -4.15 -9.15 -4.25 -9.15 -4.3 -9.1 -4.35 -9.1 -4.4 -9.05 -4.45 -9.0 -4.5 -9.0 -4.55 -8.95 -4.65 -8.9 -4.75 -8.85 -4.85 -8.8 -4.9 -8.7 -5.0 -8.65 -5.1 -8.6 -5.15 -8.55 -5.25 -8.45 -5.35 -8.4 -5.4 -8.35 -5.5 -8.25 -5.55 -8.2 -5.65 -8.1 -5.7 -8.05 -5.8 -7.95 -5.85 -7.85 -5.95 -7.75 -6.0 -7.65 -6.05 -7.55 -6.1 -7.45 -6.2 -7.4 -6.2 -7.3 -6.25 -7.2 -6.3 -7.1 -6.35 -7.0 -6.35 -6.9 -6.4 -6.8 -6.4 -6.7 -6.4 -6.6 -6.4 -6.45 -6.4 -6.35 -6.35 -6.25 -6.35 -6.2 -6.05 -5.65 -6.05 -5.6 -6.0 -5.6 -6.0 -5.55 -6.0 -5.55 -5.95 -5.5 -5.95 -5.5 -5.9 -5.5 -5.9 -5.45 -5.9 -5.45 -5.85 -5.45 -5.85 -5.45 -5.8 -5.45 -5.75 -5.45 -5.75 -5.45 -5.7 -5.45 -5.65 -5.45 -5.55 -5.45 -5.45 -5.45 -5.0 -5.45 -4.55 -5.45 -4.3 -5.5 -4.05 -5.55 -4.35 -5.65 -4.4 -5.65 -4.45 -5.65 -4.45 -5.75 -3.55 -5.75 -2.65 -5.75 -2.75 -6.0 -2.8 -6.25 -2.85 -6.5 -2.85 -6.7 -2.9 -6.95 -2.95 -7.2 -2.95 -7.45 -2.95 -7.7 -2.95 -7.95 -2.95 -8.2 -2.9 -8.4 -2.9 -8.65 -2.85 -8.9 -2.85 -9.15 -2.8 -9.4 -2.75 -9.65 L-2.75 -9.65 -2.75 -9.65" fill="#ffffff" fill-rule="evenodd" stroke="none"/>
      <path d="M-1.55 -9.45 Q-1.45 -9.35 -0.85 -9.05 0.3 -8.45 0.5 -8.35 0.6 -8.3 0.7 -8.25 0.8 -8.15 0.85 -8.1 0.95 -8.05 1.05 -8.0 1.1 -7.9 1.2 -7.85 1.3 -7.75 1.35 -7.7 1.45 -7.65 1.5 -7.55 1.6 -7.5 1.65 -7.4 1.7 -7.35 1.8 -7.25 1.85 -7.2 1.9 -7.15 1.95 -7.05 1.95 -7.05 2.0 -7.0 2.05 -6.95 2.05 -6.9 2.1 -6.85 2.1 -6.8 2.15 -6.75 2.15 -6.65 2.2 -6.6 2.2 -6.55 2.2 -6.5 2.2 -6.4 2.2 -6.35 2.3 -6.35 2.35 -6.35 2.45 -6.35 2.5 -6.35 2.55 -6.35 2.6 -6.4 2.7 -6.4 2.75 -6.4 2.8 -6.45 2.85 -6.45 2.9 -6.5 2.95 -6.55 3.0 -6.6 3.05 -6.7 3.1 -6.75 3.1 -6.85 3.1 -6.9 3.15 -6.95 3.15 -6.95 3.15 -7.0 3.2 -7.05 3.2 -7.1 3.2 -7.15 3.2 -7.2 3.2 -7.25 3.2 -7.3 3.2 -7.35 3.2 -7.4 3.15 -7.45 3.15 -7.45 3.15 -7.5 3.1 -7.55 3.1 -7.6 3.05 -7.65 3.05 -7.7 3.0 -7.75 3.0 -7.8 2.95 -7.85 2.9 -7.9 2.85 -7.9 2.85 -7.95 2.8 -8.0 2.75 -8.0 2.75 -8.05 2.65 -8.1 2.65 -8.1 2.65 -8.15 2.6 -8.15 2.1 -8.45 1.1 -8.85 0.7 -9.0 -0.45 -9.25 -0.6 -9.3 -0.75 -9.35 -1.15 -9.4 -1.55 -9.45 L-1.55 -9.45 -1.55 -9.45" fill="#ffffff" fill-rule="evenodd" stroke="none"/>
      <path d="M-3.75 -9.65 Q-3.85 -9.65 -3.95 -9.65 -4.05 -9.65 -4.15 -9.65 -4.25 -9.6 -4.3 -9.6 -4.4 -9.6 -4.5 -9.6 -4.6 -9.55 -4.7 -9.55 -4.75 -9.55 -4.85 -9.5 -4.95 -9.5 -5.0 -9.5 -5.1 -9.45 -5.15 -9.45 -5.2 -9.45 -5.25 -9.45 -5.3 -9.45 -5.3 -9.45 -5.35 -9.45 -5.4 -9.4 -5.45 -9.4 -5.45 -9.35 -5.65 -9.25 -6.35 -8.55 -6.45 -8.45 -6.5 -8.35 -6.55 -8.25 -6.6 -8.15 -6.65 -8.1 -6.7 -8.0 -6.75 -7.9 -6.75 -7.8 -6.8 -7.7 -6.85 -7.6 -6.85 -7.55 -6.9 -7.4 -6.9 -7.35 -6.95 -7.25 -6.95 -7.15 -6.95 -7.05 -6.95 -7.0 -7.0 -6.9 -7.0 -6.85 -7.0 -6.75 -7.0 -6.7 -7.0 -6.65 -7.0 -6.6 -7.0 -6.5 -7.0 -6.45 -6.95 -6.4 -6.95 -6.35 -6.95 -6.3 -6.9 -6.25 -6.9 -6.15 -6.9 -6.15 -6.85 -6.05 -6.85 -6.0 -6.85 -5.95 -6.8 -5.9 -6.75 -5.85 -6.7 -5.8 -6.65 -5.75 -6.6 -5.7 -6.55 -5.65 -6.45 -5.65 -6.4 -5.6 -6.35 -5.55 -6.25 -5.5 -6.2 -5.5 -6.15 -5.45 -6.1 -5.45 -6.05 -5.45 -6.05 -5.5 -6.1 -5.5 -6.1 -5.55 -6.15 -5.6 -6.15 -5.6 -6.2 -5.65 -6.25 -5.7 -6.25 -5.7 -6.3 -5.75 -6.3 -5.75 -6.3 -5.8 -6.35 -5.8 -6.35 -5.85 -6.35 -5.9 -6.35 -5.9 -6.35 -5.95 -6.35 -6.05 -6.4 -6.15 -6.4 -6.3 -6.4 -6.4 -6.4 -6.5 -6.4 -6.6 -6.4 -6.7 -6.35 -6.8 -6.35 -6.9 -6.3 -7.0 -6.3 -7.1 -6.25 -7.15 -6.2 -7.25 -6.15 -7.35 -6.1 -7.45 -6.05 -7.55 -6.0 -7.6 -6.0 -7.7 -5.95 -7.75 -5.9 -7.85 -5.85 -7.9 -5.8 -7.95 -5.75 -8.05 -5.7 -8.1 -5.65 -8.15 -5.55 -8.2 -5.5 -8.25 -5.45 -8.3 -5.4 -8.4 -5.3 -8.45 -5.25 -8.5 -5.15 -8.55 -5.05 -8.65 -4.95 -8.75 -4.85 -8.8 -4.75 -8.9 -4.65 -8.95 -4.55 -9.05 -4.45 -9.1 -4.35 -9.15 -4.25 -9.2 -4.1 -9.3 -4.0 -9.35 -3.85 -9.4 -3.75 -9.45 -3.65 -9.45 -3.5 -9.5 -3.35 -9.55 -3.3 -9.6 -3.25 -9.65 -3.25 -9.65 -3.15 -9.65 -3.45 -9.65 -3.75 -9.65 L-3.75 -9.65 -3.75 -9.65" fill="#ffffff" fill-rule="evenodd" stroke="none"/>
      <path d="M-2.55 -9.95 Q-2.6 -9.95 -2.65 -9.95 -2.7 -9.95 -2.7 -9.95 -2.75 -9.95 -2.8 -9.9 -2.85 -9.9 -2.85 -9.85 L-2.75 -9.75 Q-2.3 -9.7 -1.85 -9.65 -1.85 -9.65 -1.9 -9.7 -1.95 -9.7 -1.95 -9.75 -2.0 -9.75 -2.05 -9.8 -2.1 -9.8 -2.15 -9.85 -2.2 -9.85 -2.25 -9.9 -2.3 -9.9 -2.35 -9.9 -2.4 -9.95 -2.45 -9.95 -2.5 -9.95 -2.55 -9.95 L-2.55 -9.95 -2.55 -9.95 M-1.85 -9.75 Q-1.85 -9.75 -1.85 -9.7 -1.85 -9.7 -1.85 -9.75 -1.85 -9.75 -1.85 -9.75 L-1.85 -9.75 -1.85 -9.75" fill="#ffffff" fill-rule="evenodd" stroke="none"/>
    </g>
  
</svg>
